<?xml version="1.0" encoding="UTF-8"?>
<svg width="10px" height="6px" viewBox="0 0 10 6" version="1.1" xmlns="http://www.w3.org/2000/svg" xmlns:xlink="http://www.w3.org/1999/xlink">
    <title>4.组件/2.通用/icon/状态栏/设置</title>
    <defs>
        <path d="M3.14347897,5.1494396 C3.31557605,4.97441632 3.58482832,4.95286071 3.7808275,5.0862093 L3.85056062,5.14347897 L7.93415899,9.15861622 L11.9342719,5.14700552 C12.1075639,4.97316527 12.3769575,4.95345466 12.5720386,5.08814279 L12.6413778,5.14588881 C12.815218,5.31918084 12.8349286,5.58857445 12.7002405,5.78365554 L12.6424945,5.85299471 L8.29228458,10.2169666 C8.11983139,10.3899653 7.85200709,10.4104319 7.65699904,10.2775245 L7.58761277,10.2204931 L3.1494396,5.85652126 C2.95253841,5.66291203 2.94986974,5.34634079 3.14347897,5.1494396 Z" id="path-1"></path>
    </defs>
    <g id="顶部导航" stroke="none" stroke-width="1" fill="none" fill-rule="evenodd">
        <g id="0.导航交互1-无banner" transform="translate(-1773.000000, -27.000000)">
            <g id="4.组件/1.导航/0.顶部导航/有背景">
                <g id="4.组件/2.通用/icon/状态栏/下拉箭头" transform="translate(1778.000000, 30.000000) translate(-1778.000000, -30.000000) translate(1770.000000, 22.000000)">
                    <mask id="mask-2" fill="#267DFF">
                        <use xlink:href="#path-1"></use>
                    </mask>
                    <use id="蒙版" fill="#267DFF" fill-rule="nonzero" xlink:href="#path-1"></use>
                    <g id="hover-fill" mask="url(#mask-2)" fill="#FFFFFF" fill-rule="evenodd">
                        <rect id="矩形备份-6" x="0" y="0" width="16" height="16"></rect>
                    </g>
                </g>
            </g>
        </g>
    </g>
</svg>