<?xml version="1.0" encoding="UTF-8"?>
<svg width="24px" height="24px" viewBox="0 0 24 24" version="1.1" xmlns="http://www.w3.org/2000/svg" xmlns:xlink="http://www.w3.org/1999/xlink">
    <title>Web_SFW/icon/24/现状-Disabled</title>
    <g id="控件" stroke="none" stroke-width="1" fill="none" fill-rule="evenodd">
        <g id="编组备份" transform="translate(1.000000, 2.000000)">
            <path d="M21,0 C21.5522847,0 22,0.44771525 22,1 L22,13 C22,13.5522847 21.5522847,14 21,14 L17.194,14 L18.9743416,19.3418861 L18.9951205,19.4296971 C19.028717,19.6643645 18.8909776,19.8967204 18.6581139,19.9743416 C18.3961422,20.0616655 18.1129822,19.9200855 18.0256584,19.6581139 L18.0256584,19.6581139 L17.139,17 L4.86,17 L3.97434165,19.6581139 C3.88701776,19.9200855 3.60385778,20.0616655 3.34188612,19.9743416 C3.10902242,19.8967204 2.971283,19.6643645 3.00487946,19.4296971 L3.02565835,19.3418861 L4.805,14 L1,14 C0.44771525,14 0,13.5522847 0,13 L0,1 C0,0.44771525 0.44771525,0 1,0 L21,0 Z M16.139,14 L5.86,14 L5.193,16 L16.806,16 L16.139,14 Z" id="形状结合" fill="#CCCCCC"></path>
            <polyline id="路径-75" stroke="#FFFFFF" stroke-linecap="round" stroke-linejoin="round" points="5 8.5 8.5 5.5 12.5 8.5 16.5 4.5"></polyline>
        </g>
    </g>
</svg>