<?xml version="1.0" encoding="UTF-8"?>
<svg width="24px" height="24px" viewBox="0 0 24 24" version="1.1" xmlns="http://www.w3.org/2000/svg" xmlns:xlink="http://www.w3.org/1999/xlink">
    <title>Web_SFW/icon/24/分析对比-Click</title>
    <g id="控件" stroke="none" stroke-width="1" fill="none" fill-rule="evenodd">
        <g id="编组备份-2" fill="#1563D7" transform="translate(1.000000, 1.000000)">
            <path d="M11.5,0 C11.7761424,-5.07265313e-17 12,0.223857625 12,0.5 L12,21.5 C12,21.7761424 11.7761424,22 11.5,22 C11.2238576,22 11,21.7761424 11,21.5 L11,0.5 C11,0.223857625 11.2238576,5.07265313e-17 11.5,0 Z M9,3 L9,4 L1,4 L1,18 L9,18 L9,19 L1,19 C0.44771525,19 0,18.5522847 0,18 L0,4 C0,3.44771525 0.44771525,3 1,3 L9,3 Z M19.8284271,18 L19.8284271,19 L18.8284271,19 L18.8284271,18 L19.8284271,18 Z M17.8284271,18 L17.8284271,19 L16.8284271,19 L16.8284271,18 L17.8284271,18 Z M15.8284271,18 L15.8284271,19 L14.8284271,19 L14.8284271,18 L15.8284271,18 Z M13.8284271,18 L13.8284271,19 L13,19 L13,18 L13.8284271,18 Z M20.99817,17.5434186 L21.9945868,17.6279981 C21.9490021,18.1650239 21.6185154,18.6324337 21.1364803,18.8585304 L21.1364803,18.8585304 L20.7118267,17.9531745 C20.8726854,17.8777244 20.9830414,17.721647 20.99817,17.5434186 L20.99817,17.5434186 Z M22,15.5857864 L22,16.5857864 L21,16.5857864 L21,15.5857864 L22,15.5857864 Z M22,13.5857864 L22,14.5857864 L21,14.5857864 L21,13.5857864 L22,13.5857864 Z M22,11.5857864 L22,12.5857864 L21,12.5857864 L21,11.5857864 L22,11.5857864 Z M22,9.58578644 L22,10.5857864 L21,10.5857864 L21,9.58578644 L22,9.58578644 Z M22,7.58578644 L22,8.58578644 L21,8.58578644 L21,7.58578644 L22,7.58578644 Z M22,5.58578644 L22,6.58578644 L21,6.58578644 L21,5.58578644 L22,5.58578644 Z M21.2265817,3.18751045 C21.6472336,3.42071099 21.9342739,3.84350411 21.9930825,4.36761629 L21.9930825,4.36761629 L21.9997288,4.56932012 L21.0002712,4.60225276 L20.996652,4.44141784 C20.9781566,4.28119011 20.88234,4.14005804 20.7417254,4.06210425 L20.7417254,4.06210425 Z M14,3 L14,4 L13,4 L13,3 L14,3 Z M16,3 L16,4 L15,4 L15,3 L16,3 Z M18,3 L18,4 L17,4 L17,3 L18,3 Z M20,3 L20,4 L19,4 L19,3 L20,3 Z" id="形状结合"></path>
            <path d="M1,3 L9,3 L9,3 L9,19 L1,19 C0.44771525,19 6.76353751e-17,18.5522847 0,18 L0,4 C-6.76353751e-17,3.44771525 0.44771525,3 1,3 Z" id="矩形"></path>
        </g>
    </g>
</svg>