<?xml version="1.0" encoding="UTF-8"?>
<svg width="21px" height="23px" viewBox="0 0 21 23" version="1.1" xmlns="http://www.w3.org/2000/svg" xmlns:xlink="http://www.w3.org/1999/xlink">
    <title>反馈 2</title>
    <desc>Created with Sketch.</desc>
    <g id="Porting-advisor" stroke="none" stroke-width="1" fill="none" fill-rule="evenodd">
        <g id="移植4.0-report备份-28" transform="translate(-1820.000000, -21.000000)" fill="#9EA4B3" fill-rule="nonzero" stroke="#9EA4B3">
            <g id="编组-11">
                <g id="nav">
                    <g id="编组-7" transform="translate(1585.000000, 20.000000)">
                        <g id="反馈-2" transform="translate(236.000000, 2.000000)">
                            <g id="反馈">
                                <path d="M13.4470588,0 L13.4470588,1.05 L2.11764706,1.05 C1.48235294,1.05 1.05882353,1.47 1.05882353,2.1 L1.05882353,18.9 C1.05882353,19.53 1.48235294,19.95 2.11764706,19.95 L15.8823529,19.95 C16.5176471,19.95 16.9411765,19.53 16.9411765,18.9 L16.9411765,7.455 L18,7.455 L18,18.9 C18,20.055 17.0470588,21 15.8823529,21 L2.11764706,21 C0.952941176,21 0,20.055 0,18.9 L0,2.1 C0,0.945 0.952941176,0 2.11764706,0 L13.4470588,0 Z" id="Rectangle-18"></path>
                                <path d="M4.5,9 L8.5,9 C8.8,9 9,9.2 9,9.5 L9,9.5 C9,9.8 8.8,10 8.5,10 L4.5,10 C4.2,10 4,9.8 4,9.5 L4,9.5 C4,9.2 4.2,9 4.5,9 Z" id="Rectangle-20"></path>
                                <path d="M11.1643836,8.06849315 L18.0684932,1.16438356 C18.2876712,0.945205479 18.6164384,0.945205479 18.8356164,1.16438356 L18.8356164,1.16438356 C19.0547945,1.38356164 19.0547945,1.71232877 18.8356164,1.93150685 L11.9315068,8.83561644 C11.7123288,9.05479452 11.3835616,9.05479452 11.1643836,8.83561644 L11.1643836,8.83561644 C10.9452055,8.61643836 10.9452055,8.28767123 11.1643836,8.06849315 Z" id="Rectangle-20_1_"></path>
                                <path d="M4.5,13 L12.5,13 C12.8,13 13,13.2 13,13.5 L13,13.5 C13,13.8 12.8,14 12.5,14 L4.5,14 C4.2,14 4,13.8 4,13.5 L4,13.5 C4,13.2 4.2,13 4.5,13 Z" id="Rectangle-20_2_"></path>
                            </g>
                        </g>
                    </g>
                </g>
            </g>
        </g>
    </g>
</svg>