<?xml version="1.0" encoding="UTF-8"?>
<svg width="24px" height="24px" viewBox="0 0 24 24" version="1.1" xmlns="http://www.w3.org/2000/svg" xmlns:xlink="http://www.w3.org/1999/xlink">
    <title>Hover</title>
    <g id="调优助手" stroke="none" stroke-width="1" fill="none" fill-rule="evenodd">
        <g id="查看任务分析路径" transform="translate(-1623.000000, -406.000000)">
            <g id="Hover" transform="translate(1623.000000, 406.000000)">
                <circle id="椭圆形" stroke="#4C94FB" fill="#cbdffc" cx="12" cy="12" r="11.5"></circle>
                <path d="M13.6071429,7.21547492 C13.6167411,7.22574277 13.6258929,7.23623385 13.6348214,7.24672492 L17.2823661,11.3607874 C17.5120377,11.620323 17.5120377,12.0104037 17.2823661,12.2699392 L13.6341518,16.3840017 C13.3908992,16.6718125 12.9609795,16.7093987 12.6714745,16.468165 C12.3819695,16.2269313 12.3413773,15.797285 12.5805804,15.5060999 L12.6082589,15.4748499 L12.6082589,15.4748499 L15.21,12.539 L7.33482143,12.5391356 C7.17310268,12.5391356 7.03804408,12.4167724 7.00680629,12.2539916 L7,12.1819928 L7,11.4677071 C7,11.2706088 7.15,11.1105642 7.33482143,11.1105642 L7.33482143,11.1105642 L15.227,11.11 L12.6089286,8.15609992 C12.3491821,7.88045066 12.3620739,7.4464267 12.6377232,7.18668027 C12.9133725,6.92693385 13.3473964,6.93982566 13.6071429,7.21547492 Z" id="形状结合" fill="#4C94FB"></path>
            </g>
        </g>
    </g>
</svg>