<?xml version="1.0" encoding="UTF-8"?>
<svg width="320px" height="130px" viewBox="0 0 320 130" version="1.1" xmlns="http://www.w3.org/2000/svg" xmlns:xlink="http://www.w3.org/1999/xlink">
    <title>Web_SFW/缺省页/插画/404</title>
    <defs>
        <linearGradient x1="50%" y1="3.28731665%" x2="50%" y2="106.790336%" id="linearGradient-1">
            <stop stop-color="#B8BDC6" offset="0%"></stop>
            <stop stop-color="#BABFC8" stop-opacity="0.97" offset="11%"></stop>
            <stop stop-color="#BFC4CC" stop-opacity="0.88" offset="26%"></stop>
            <stop stop-color="#C8CCD3" stop-opacity="0.74" offset="42%"></stop>
            <stop stop-color="#D4D7DE" stop-opacity="0.55" offset="61%"></stop>
            <stop stop-color="#E3E5EB" stop-opacity="0.3" offset="80%"></stop>
            <stop stop-color="#F5F6FA" stop-opacity="0" offset="100%"></stop>
        </linearGradient>
    </defs>
    <g id="Web_SFW/缺省页/插画/404" stroke="none" stroke-width="1" fill="none" fill-rule="evenodd">
        <g id="浅色-404" transform="translate(65.000000, 7.000000)">
            <rect id="矩形" fill="url(#linearGradient-1)" fill-rule="nonzero" opacity="0.17" x="101.723077" y="0" width="82.0923077" height="69.6"></rect>
            <rect id="矩形" fill="#FFFFFF" fill-rule="nonzero" x="101.723077" y="0" width="82.0923077" height="3.56923077"></rect>
            <rect id="矩形" fill="#E1E4EA" fill-rule="nonzero" x="176.676923" y="0.892307692" width="1.78461538" height="1.78461538"></rect>
            <rect id="矩形" fill="#E1E4EA" fill-rule="nonzero" x="179.353846" y="0.892307692" width="1.78461538" height="1.78461538"></rect>
            <rect id="矩形" fill="#E1E4EA" fill-rule="nonzero" x="182.030769" y="0.892307692" width="1.78461538" height="1.78461538"></rect>
            <path d="M189.169231,51.4299369 C178.705458,46.0336435 169.447558,47.5715871 171.811782,60.5706582 C174.176007,73.5697294 173.053297,84.5901596 163.076626,82.7913951 C153.099954,80.9926307 143.135163,56.5624114 141.4808,37.051813 C139.826436,17.5412146 106.733231,-8.99655702 91.4726958,6.37988112 C91.4726958,6.37988112 87.05017,11.8331354 87.4748988,21.8462575" id="路径" stroke="#0077FF" stroke-width="0.75" stroke-dasharray="4"></path>
            <polyline id="路径" stroke="#B8BCC1" stroke-linejoin="round" points="61.5692308 100.556494 61.5692308 116 0 116 0 79.4153846 39.1037752 79.4153846"></polyline>
            <path d="M155.261538,100.287971 L155.261538,26.7692308 L39.2615385,26.7692308 L39.2615385,100.287971 L94.3674872,100.287971 L94.3674872,113.240873 L76.5570256,113.240873 C75.8013868,113.240873 75.1888205,113.858525 75.1888205,114.620436 C75.1888205,115.382348 75.8013868,116 76.5570256,116 L118.269436,116 C119.025075,116 119.637641,115.382348 119.637641,114.620436 C119.637641,113.858525 119.025075,113.240873 118.269436,113.240873 L100.447077,113.240873 L100.447077,100.287971 L155.261538,100.287971 Z" id="路径" stroke="#B8BCC1" stroke-linejoin="round"></path>
            <rect id="矩形" stroke="#B8BCC1" fill="#FBFDFF" fill-rule="nonzero" x="39.2615385" y="26.7692308" width="116" height="64.2461538"></rect>
            <line x1="44.6153846" y1="33.9076923" x2="151.692308" y2="33.9076923" id="路径" stroke="#B8BCC1" stroke-linecap="round" stroke-linejoin="round"></line>
            <rect id="矩形" fill="#B8BCC1" fill-rule="nonzero" x="145.446154" y="28.5538462" width="1.78461538" height="1.78461538"></rect>
            <rect id="矩形" fill="#B8BCC1" fill-rule="nonzero" x="142.769231" y="28.5538462" width="1.78461538" height="1.78461538"></rect>
            <rect id="矩形" fill="#B8BCC1" fill-rule="nonzero" x="149.907692" y="28.5538462" width="1.78461538" height="1.78461538"></rect>
            <path d="M11.6,61.5692308 C12.5856159,61.5692308 13.3846154,60.7702313 13.3846154,59.7846154 C13.3846154,58.7989995 12.5856159,58 11.6,58 C10.6143841,58 9.81538462,58.7989995 9.81538462,59.7846154 C9.81538462,60.7702313 10.6143841,61.5692308 11.6,61.5692308 Z" id="椭圆形" stroke="#0077FF" stroke-width="0.75" stroke-dasharray="4"></path>
            <circle id="椭圆形" stroke="#B8BCC1" stroke-linejoin="round" cx="182.476923" cy="82.5384615" r="1.33846154"></circle>
            <circle id="椭圆形" stroke="#B8BCC1" stroke-linejoin="round" cx="63.3538462" cy="5.35384615" r="1.78461538"></circle>
            <g id="404" transform="translate(71.384615, 41.046154)" fill="#0077FF" fill-rule="nonzero" font-family="HuaweiSansMedium, Huawei Sans Medium" font-size="30" font-weight="normal">
                <text>
                    <tspan x="0.256805889" y="28">404</tspan>
                </text>
            </g>
            <rect id="矩形" stroke="#91969B" fill="#F0F6FF" fill-rule="nonzero" x="129.384615" y="74.0615385" width="21.4153846" height="8.92307692"></rect>
            <polygon id="路径" stroke="#91969B" fill="#E8EBF2" fill-rule="nonzero" points="148.123077 82.0923077 151.692308 82.0923077 151.692308 74.9538462"></polygon>
            <polygon id="路径" stroke="#91969B" fill="#E8EBF2" fill-rule="nonzero" points="143.231574 82.9846154 138.307692 82.9846154 142.306888 74.0615385 147.230769 74.0615385"></polygon>
            <polygon id="路径" stroke="#91969B" fill="#E8EBF2" fill-rule="nonzero" points="134.310107 82.9846154 129.384615 82.9846154 133.382201 74.0615385 138.307692 74.0615385"></polygon>
            <line x1="150.8" y1="74.0615385" x2="150.8" y2="91.0153846" id="路径" stroke="#91969B" fill="#E1E4EA" fill-rule="nonzero" stroke-linecap="round" stroke-linejoin="round"></line>
            <line x1="128.492308" y1="73.1692308" x2="128.492308" y2="91.0153846" id="路径" stroke="#91969B" fill="#E1E4EA" fill-rule="nonzero" stroke-linecap="round" stroke-linejoin="round"></line>
            <g id="编组" opacity="0.81" transform="translate(49.969231, 73.169231)" fill-rule="nonzero" stroke="#91969B">
                <polygon id="路径" fill="#F0F6FF" points="5.24676923 0.0877679697 1.37705903 15.0990164 11.2024043 15.0990164 7.3326941 0.0877679697"></polygon>
                <polygon id="路径" fill="#E8EBF2" points="3.74188193 5.93311475 8.84048658 5.93311475 8.13162075 3.1889029 4.44784258 3.1889029"></polygon>
                <polygon id="路径" fill="#E8EBF2" points="2.24280501 11.7404288 10.3366583 11.7404288 9.63069767 8.9991425 2.94876565 8.9991425"></polygon>
                <rect id="矩形" fill="#F0F6FF" x="0.273087657" y="15.11657" width="12.033288" height="2.51894073"></rect>
            </g>
            <path d="M117.668972,83.8769231 L75.06949,83.8769231 C74.020138,83.8769231 73.1692308,83.0789451 73.1692308,82.0923077 L73.1692308,82.0923077 C73.1692308,81.1056703 74.020138,80.3076923 75.06949,80.3076923 L117.668972,80.3076923 C118.718324,80.3076923 119.569231,81.1056703 119.569231,82.0923077 L119.569231,82.0923077 C119.569231,83.0789451 118.718324,83.8769231 117.668972,83.8769231 Z" id="路径" stroke="#91969B" stroke-linecap="round" stroke-linejoin="round"></path>
            <path d="M109.753846,80.3076923 L117.388034,80.3076923 C118.592676,80.3076923 119.569231,81.1066919 119.569231,82.0923077 L119.569231,82.0923077 C119.569231,83.0779235 118.592676,83.8769231 117.388034,83.8769231 L109.753846,83.8769231 L109.753846,80.3076923 L109.753846,80.3076923 Z" id="路径" stroke="#91969B" fill="#E8EBF2" fill-rule="nonzero"></path>
            <path d="M117.784615,82.6037511 L117.015858,82.1337176 C117.297241,81.4697965 116.965317,80.7188359 116.261063,80.4260347 C115.55681,80.1332334 114.727498,80.4013977 114.37521,81.0358394 C114.022922,81.6702813 114.271351,82.4482407 114.940135,82.804918 C115.608921,83.161595 116.463244,82.9717565 116.882866,82.3732251 L117.62243,82.8282894 L117.784615,82.6037511 Z M115.666477,82.7175172 C115.195485,82.7175172 114.77087,82.4556532 114.590629,82.0540317 C114.410388,81.6524099 114.510017,81.1901235 114.843059,80.882736 C115.1761,80.5753482 115.676968,80.4833937 116.112108,80.6497506 C116.547248,80.8161077 116.830967,81.2080154 116.830967,81.6427272 C116.830967,81.9293423 116.706956,82.2040891 116.486462,82.4059116 C116.265969,82.6077341 115.96727,82.7199123 115.656746,82.7175172 L115.666477,82.7175172 Z" id="形状" fill="#91969B" fill-rule="nonzero"></path>
            <path d="M89.6255622,29.4461538 C94.4550954,36.4892829 101.517288,51.6969829 66.9288293,45.5913554 C52.9584202,43.1229968 21.6241961,34.2938678 13.5907666,41.5595052 C5.1042909,49.2256575 10.783656,56.2153846 10.783656,56.2153846" id="路径" stroke="#0077FF" stroke-width="0.75" stroke-dasharray="4"></path>
        </g>
    </g>
</svg>