<?xml version="1.0" encoding="UTF-8"?>
<svg width="16px" height="16px" viewBox="0 0 16 16" version="1.1" xmlns="http://www.w3.org/2000/svg" xmlns:xlink="http://www.w3.org/1999/xlink">
    <!-- Generator: Sketch 63.1 (92452) - https://sketch.com -->
    <title>形状</title>
    <desc>Created with Sketch.</desc>
    <g id="页面-1" stroke="none" stroke-width="1" fill="none" fill-rule="evenodd">
        <g id="swap使用优化建议" transform="translate(-152.000000, -1006.000000)" fill="#F45C5E" fill-rule="nonzero">
            <g id="编组-7备份-3" transform="translate(64.000000, 903.000000)">
                <g id="编组-8" transform="translate(32.000000, 72.000000)">
                    <g id="编组">
                        <g id="编组-6" transform="translate(0.000000, 1.000000)">
                            <path d="M62.8774936,32.4936516 C65.205546,30.5636559 68.1488474,29.7095729 71.1555287,30.0875336 C71.6681206,30.1474515 72.0404636,30.6036401 71.9964719,31.1178437 C71.7831444,34.1631713 70.3802841,36.9070578 68.0514587,38.8370535 C67.7994849,39.0457434 67.5467382,39.2544334 67.288581,39.4631233 L66.8356465,42.3051714 C66.8031836,42.5401409 66.6810613,42.7488308 66.4994238,42.8987784 L64.1512752,44.8419138 C63.8927816,45.0610423 63.5341066,45.1187875 63.2198997,44.9918614 C62.900639,44.8794801 62.6645856,44.6066811 62.5992403,44.2745863 L62.1725853,42.1621802 C60.6591966,42.3051714 59.7015416,41.5623898 59.1519913,40.8907173 L59.0159564,40.7144902 C58.3628341,39.8148046 58.1819695,38.7976343 58.4857293,37.7093547 L56.5912882,36.9132412 C56.2806735,36.7808069 56.0605558,36.4972555 56.0092751,36.1635032 C55.9628995,35.8311451 56.0927511,35.4926036 56.3516812,35.2777302 L58.6936463,33.3284114 C58.873738,33.1784638 59.1071616,33.0996254 59.3398123,33.1065817 L62.029594,33.2039704 C62.3078473,32.9628175 62.5930569,32.728621 62.8774936,32.4928786 L62.8774936,32.4936516 Z M66.2420395,32.8236909 C65.1614893,32.843787 64.2950395,33.7512018 64.3151355,34.8518482 C64.3275023,35.9524945 65.2194587,36.8336299 66.3069653,36.8135338 C67.3882884,36.7942106 68.2547382,35.8860228 68.2346421,34.7853765 C68.215319,33.6855031 67.3225897,32.8043678 66.2420395,32.8236909 Z M59.5160394,43.3486212 C59.6327583,43.3187935 59.7260874,43.2312974 59.7633756,43.1167435 C59.7987759,43.0003464 59.7693024,42.8739051 59.686083,42.7851583 L57.5033406,40.4192325 C57.4217546,40.332361 57.3006485,40.2945336 57.1841223,40.3195251 C57.0674034,40.3493529 56.9740742,40.436849 56.936786,40.5514028 L56.0131397,43.6608832 C56.0055497,43.6936167 56.0011492,43.7270085 56,43.7605907 L56,43.7667741 C56.0061834,43.9723724 56.1499476,44.1184553 56.3385415,44.1184553 C56.3960492,44.1194437 56.4525508,44.1033004 56.5008559,44.0720798 L59.5160394,43.3493942 L59.5160394,43.3486212 Z" id="形状"></path>
                        </g>
                    </g>
                </g>
            </g>
        </g>
    </g>
</svg>