<?xml version="1.0" encoding="UTF-8"?>
<svg width="16px" height="14px" viewBox="0 0 16 14" version="1.1" xmlns="http://www.w3.org/2000/svg" xmlns:xlink="http://www.w3.org/1999/xlink">
    <title>资源 14</title>
    <desc>Created with Sketch.</desc>
    <g id="页面-1" stroke="none" stroke-width="1" fill="none" fill-rule="evenodd">
        <g id="容器分析优化2" transform="translate(-422.000000, -657.000000)">
            <g id="资源-14" transform="translate(422.000000, 656.000000)">
                <g id="资源-13" transform="translate(0.000000, 1.000000)" fill="#979797">
                    <path d="M9.80528302,10.0830189 C9.05660377,10.5237736 8.21735849,11.0913208 7.54716981,11.405283 C7.28150943,11.5290566 7.2,11.3267925 7.22113208,11.0550943 C7.23622642,10.8679245 7.22113208,10.5539623 7.22113208,10.3003774 C7.22113208,9.82339623 7.22113208,9.28301887 7.22113208,8.75773585 C7.19460921,8.44258194 7.36506647,8.14368154 7.64981132,8.00603774 C8.00301887,7.80981132 8.35018868,7.60754717 8.64301887,7.4354717 L9.63622642,6.84981132 L9.76603774,6.77433962 L10.0679245,6.59924528 L10.0679245,9.56679245 C10.0852291,9.77701674 9.97931039,9.97826223 9.79622642,10.0830189 L9.80528302,10.0830189 Z M7.02792453,7.8490566 C6.92998447,7.8482576 6.83405953,7.82114838 6.75018868,7.77056604 L4.1690566,6.26113208 L5.10188679,5.71471698 L6.73811321,4.76075472 C6.91206875,4.65341132 7.13170483,4.65341132 7.30566038,4.76075472 L9.15622642,5.84150943 L9.88679245,6.26716981 L7.31773585,7.77660377 C7.22690864,7.83226653 7.12237493,7.86153597 7.01584906,7.8611362 L7.02792453,7.8490566 Z M6.84377358,11.610566 L4.92981132,10.4935849 C4.73056604,10.3758491 4.52226415,10.2520755 4.32603774,10.1373585 C4.11673345,10.0348245 3.98513535,9.82097758 3.98792453,9.58792453 C3.98792453,9.0354717 3.98792453,8.48301887 3.98792453,7.93358491 L3.98792453,6.90716981 C3.98792453,6.68377358 4.18716981,6.72301887 4.37735849,6.81660377 C4.58348328,6.91465711 4.78048482,7.03083751 4.96603774,7.16377358 C5.44301887,7.44150943 5.98339623,7.76754717 6.50867925,8.06943396 C6.72947731,8.179825 6.86611794,8.40834466 6.85886792,8.65509434 L6.84377358,11.610566 Z M10.2641509,6.03773585 C9.10490566,5.36754717 8.1509434,4.80301887 7.21811321,4.25962264 C7.16217063,4.22056501 7.09611317,4.19854585 7.02792453,4.19622642 C6.95580964,4.20005342 6.88600667,4.22297379 6.82566038,4.26264151 C5.85660377,4.83018868 4.83018868,5.43396226 3.78566038,6.03773585 C3.65726352,6.09615589 3.5797871,6.2293185 3.59245283,6.36981132 C3.59245283,7.51396226 3.59245283,8.68226415 3.59245283,9.93811321 C3.57619929,10.0736593 3.64772666,10.2045908 3.77056604,10.2641509 C4.8090566,10.8679245 5.84754717,11.4716981 6.84981132,12.0754717 C6.95714885,12.1559748 7.10473795,12.1559748 7.21207547,12.0754717 C8.04528302,11.5622642 9.15018868,10.9132075 10.2641509,10.2641509 C10.3965589,10.1989026 10.4738347,10.0576326 10.4573585,9.9109434 C10.4573585,9.5154717 10.4573585,9.1109434 10.4573585,8.72150943 L10.4573585,7.57132075 C10.4573585,7.17886792 10.4573585,6.77735849 10.4573585,6.37886792 C10.4694664,6.23619443 10.3927392,6.10072303 10.2641509,6.03773585 Z" id="Fill-1"></path>
                    <path d="M15.7675472,1.13509434 C15.7675472,0.833207547 15.7132075,0.422641509 15.2633962,0.323018868 C15.1640185,0.303592472 15.0626244,0.296494888 14.9615094,0.301886792 L13.9381132,0.301886792 C11.0520755,0.301886792 8.16301887,0.301886792 5.2709434,0.301886792 L3.09433962,0.301886792 C2.88136442,0.278017229 2.6690129,0.351701436 2.51659704,0.502358654 C2.36418118,0.653015873 2.28803759,0.864497981 2.30943396,1.07773585 C2.30943396,1.40075472 2.30943396,1.71471698 2.30943396,2.02867925 C2.31894576,2.11146237 2.29381732,2.19449547 2.24,2.25811321 C2.17514981,2.31166472 2.09090002,2.33573609 2.00754717,2.3245283 L1.04150943,2.3245283 C0.836762692,2.29309588 0.629310237,2.36128044 0.483134926,2.50805239 C0.336959614,2.65482433 0.269620634,2.8625528 0.301886792,3.06716981 L0.301886792,13.2286792 C0.277497881,13.4334468 0.346616222,13.6383106 0.490071198,13.7864498 C0.633526175,13.934589 0.836064187,14.010252 1.04150943,13.9924528 L12.8996226,13.9924528 C13.1679748,14.0267892 13.435342,13.9221178 13.6090566,13.714717 C13.7248845,13.536042 13.7740525,13.3222682 13.7479245,13.1109434 L13.7479245,12.0241509 L14.9766038,12.0241509 C15.0777188,12.0295428 15.1791128,12.0224453 15.2784906,12.0030189 C15.7283019,11.9033962 15.7826415,11.5049057 15.7826415,11.1909434 L15.7826415,1.13509434 L15.7675472,1.13509434 Z M12.4981132,13.5275472 L11.5018868,13.5275472 L1.47320755,13.5275472 C0.969056604,13.5275472 0.748679245,13.349434 0.748679245,12.8483019 L0.748679245,3.46867925 C0.736562736,3.27722037 0.810163492,3.09027951 0.949554172,2.95847075 C1.08894485,2.82666199 1.27970581,2.76362064 1.47018868,2.78641509 L12.4981132,2.78641509 C13.1350943,2.78641509 13.2981132,3.08830189 13.2981132,3.60754717 L13.2981132,4.41962264 L13.2981132,4.41962264 L13.2981132,9.90792453 L13.2981132,9.90792453 L13.2981132,12.709434 C13.2981132,13.2377358 13.1350943,13.5275472 12.4981132,13.5275472 Z M14.6113208,11.5833962 L13.7479245,11.5833962 L13.7479245,3.1909434 C13.770463,2.9846013 13.7214382,2.77677895 13.6090566,2.60226415 C13.4359866,2.39374299 13.1685171,2.28789336 12.8996226,2.32150943 L3.50188679,2.32150943 C3.34490566,2.32150943 3.2,2.32150943 3.0309434,2.32150943 C2.95746338,2.33133973 2.8834023,2.30812655 2.82867925,2.25811321 C2.78167918,2.20408257 2.75877967,2.13320315 2.76528302,2.06188679 C2.76528302,1.94415094 2.76528302,1.82943396 2.76528302,1.71471698 C2.76528302,1.6 2.76528302,1.39169811 2.76528302,1.2890566 C2.76038278,1.15035744 2.81186583,1.01558684 2.90799119,0.915479959 C3.00411654,0.815373083 3.13668792,0.7584657 3.2754717,0.757735849 C3.32377358,0.757735849 14.5962264,0.757735849 14.5962264,0.757735849 C15.1486792,0.757735849 15.3086792,0.917735849 15.3086792,1.47622642 L15.3086792,10.8679245 C15.3086792,11.4233962 15.1486792,11.5833962 14.5962264,11.5833962 L14.6113208,11.5833962 Z" id="形状"></path>
                </g>
                <rect id="矩形" x="0" y="0" width="16" height="16"></rect>
            </g>
        </g>
    </g>
</svg>