<?xml version="1.0" encoding="UTF-8"?>
<svg width="28px" height="28px" viewBox="0 0 28 28" version="1.1" xmlns="http://www.w3.org/2000/svg" xmlns:xlink="http://www.w3.org/1999/xlink">
    <!-- Generator: Sketch 63.1 (92452) - https://sketch.com -->
    <title>4.组件/2.通用/icon/tuning/配置参数/Disabled</title>
    <desc>Created with Sketch.</desc>
    <g id="4.组件/2.通用/icon/tuning/配置参数/Disabled" stroke="none" stroke-width="1" fill="none" fill-rule="evenodd">
        <g id="4.组件/2.通用/按钮/4.图标按钮/下载/按下备份-3">
            <rect id="bgc" stroke="#616161" fill="#313131" x="0.5" y="0.5" width="27" height="27" rx="2"></rect>
            <g id="配置参数" transform="translate(7.000000, 7.000000)" fill="#616161">
                <path d="M5.08322333,8 C5.55563779,8 5.9465294,8.35585371 5.99876245,8.81522849 L6.0046875,8.92296086 L6.0046875,13.0770351 C6.0046875,13.5508431 5.64883029,13.9405437 5.189455,13.9937979 L5.08172258,14 L0.927648355,14 C0.453840344,14 0.064143208,13.6441428 0.0108895764,13.1847675 L0.00468749999,13.0770351 L0.00468749999,8.92296086 C0.00468749999,8.44915284 0.360541206,8.05945571 0.819915991,8.00620208 L0.927648355,8 L5.08322333,8 Z M5,9 L1,9 L1,13 L5,13 L5,9 Z M14,12 L14,13 L8,13 L8,12 L14,12 Z M14,9 L14,10 L8,10 L8,9 L14,9 Z M5.07853583,1.38409284e-11 C5.55095029,1.38409284e-11 5.9418419,0.355853706 5.99407495,0.815228491 L6,0.922960855 L6,5.07703508 C6,5.55084309 5.64414279,5.94054373 5.1847675,5.99379786 L5.07703508,6 L0.922960855,6 C0.449152844,6 0.059455708,5.64414279 0.00620207642,5.1847675 L-8.70858941e-12,5.07703508 L-8.70858941e-12,0.922960855 C-8.70858941e-12,0.449152844 0.355853706,0.059455708 0.815228491,0.00620207644 L0.922960855,1.38409284e-11 L5.07853583,1.38409284e-11 Z M5,1 L1,1 L1,5 L5,5 L5,1 Z M14,4 L14,5 L8,5 L8,4 L14,4 Z M14,1 L14,2 L8,2 L8,1 L14,1 Z" id="形状结合"></path>
            </g>
        </g>
    </g>
</svg>