<?xml version="1.0" encoding="UTF-8"?>
<svg width="28px" height="28px" viewBox="0 0 28 28" version="1.1" xmlns="http://www.w3.org/2000/svg" xmlns:xlink="http://www.w3.org/1999/xlink">
    <title>icon/Javaperf/28/配置参数@1x</title>
    <g id="icon/Javaperf/28/配置参数" stroke="none" stroke-width="1" fill="none" fill-rule="evenodd">
        <rect id="bgc" fill="#3C3F41" x="0" y="0" width="28" height="28" rx="1"></rect>
        <path d="M11.5,15.5 C11.7761424,15.5 12,15.7238576 12,16 L12,21 C12,21.2761424 11.7761424,21.5 11.5,21.5 L6.5,21.5 C6.22385763,21.5 6,21.2761424 6,21 L6,16 C6,15.7238576 6.22385763,15.5 6.5,15.5 L11.5,15.5 Z M21.5,19.5 C21.7761424,19.5 22,19.7238576 22,20 L22,21 C22,21.2761424 21.7761424,21.5 21.5,21.5 L14.5,21.5 C14.2238576,21.5 14,21.2761424 14,21 L14,20 C14,19.7238576 14.2238576,19.5 14.5,19.5 L21.5,19.5 Z M21.5,15.5 C21.7761424,15.5 22,15.7238576 22,16 L22,17 C22,17.2761424 21.7761424,17.5 21.5,17.5 L14.5,17.5 C14.2238576,17.5 14,17.2761424 14,17 L14,16 C14,15.7238576 14.2238576,15.5 14.5,15.5 L21.5,15.5 Z M11.5,6.5 C11.7761424,6.5 12,6.72385763 12,7 L12,12 C12,12.2761424 11.7761424,12.5 11.5,12.5 L6.5,12.5 C6.22385763,12.5 6,12.2761424 6,12 L6,7 C6,6.72385763 6.22385763,6.5 6.5,6.5 L11.5,6.5 Z M21.5,10.5 C21.7761424,10.5 22,10.7238576 22,11 L22,12 C22,12.2761424 21.7761424,12.5 21.5,12.5 L14.5,12.5 C14.2238576,12.5 14,12.2761424 14,12 L14,11 C14,10.7238576 14.2238576,10.5 14.5,10.5 L21.5,10.5 Z M21.5,6.5 C21.7761424,6.5 22,6.72385763 22,7 L22,8 C22,8.27614237 21.7761424,8.5 21.5,8.5 L14.5,8.5 C14.2238576,8.5 14,8.27614237 14,8 L14,7 C14,6.72385763 14.2238576,6.5 14.5,6.5 L21.5,6.5 Z" id="形状结合" fill="#AFB1B3"></path>
    </g>
</svg>