<?xml version="1.0" encoding="UTF-8"?>
<svg width="87px" height="11px" viewBox="0 0 87 11" version="1.1" xmlns="http://www.w3.org/2000/svg" xmlns:xlink="http://www.w3.org/1999/xlink">
    <title>直线 2 copy 14备份 2</title>
    <desc>Created with Sketch.</desc>
    <g id="页面-1" stroke="none" stroke-width="1" fill="none" fill-rule="evenodd">
        <g id="Thread-thread-Graph（clicked）" transform="translate(-1648.000000, -397.000000)">
            <g id="编组-5" transform="translate(428.000000, 319.000000)">
                <g id="编组-9" transform="translate(1220.000000, 32.000000)">
                    <g id="编组-15备份-3" transform="translate(0.000000, 46.000000)">
                        <g id="直线-2-copy-14备份-2">
                            <path d="M0,5.5 L80,5.5" stroke="#6C7280" stroke-width="2" stroke-dasharray="4"></path>
                            <path d="M83.3944272,1.78885438 L87.2722866,9.54457311 C87.4081306,9.81626129 87.2980073,10.1466315 87.0263191,10.2824755 C86.8729305,10.3591698 86.6925461,10.3599265 86.5385196,10.2845216 L82.5,8.30743501 L82.5,8.30743501 L78.4614804,10.2845216 C78.1886622,10.4180818 77.8592275,10.3051908 77.7256673,10.0323726 C77.6502625,9.87834606 77.6510192,9.69796167 77.7277134,9.54457311 L81.6055728,1.78885438 C81.8525621,1.29487588 82.4532351,1.09465154 82.9472136,1.34164079 C83.140741,1.43840449 83.2976635,1.59532698 83.3944272,1.78885438 Z" id="三角形" fill="#6C7280" fill-rule="evenodd" transform="translate(82.500000, 5.500000) rotate(90.000000) translate(-82.500000, -5.500000) "></path>
                        </g>
                    </g>
                </g>
            </g>
        </g>
    </g>
</svg>