<?xml version="1.0" encoding="UTF-8"?>
<svg width="16px" height="16px" viewBox="0 0 16 16" version="1.1" xmlns="http://www.w3.org/2000/svg" xmlns:xlink="http://www.w3.org/1999/xlink">
    <title>4.组件/2.通用/icon/选择/新增备份 4</title>
    <desc>Created with Sketch.</desc>
    <g id="页面-1备份" stroke="none" stroke-width="1" fill="none" fill-rule="evenodd">
        <g id="43监控数据库连接池" transform="translate(-414.000000, -858.000000)" fill="#AAAAAA" fill-rule="nonzero">
            <g id="编组-26" transform="translate(384.000000, 650.000000)">
                <g id="编组-20" transform="translate(0.000000, 46.000000)">
                    <g id="编组-18">
                        <g>
                            <g id="4.组件/2.通用/icon/选择/新增" transform="translate(28.000000, 160.000000)">
                                <path d="M14.5,2.5 C16.1568542,2.5 17.5,3.84314575 17.5,5.5 L17.5,14.5 C17.5,16.1568542 16.1568542,17.5 14.5,17.5 L5.5,17.5 C3.84314575,17.5 2.5,16.1568542 2.5,14.5 L2.5,5.5 C2.5,3.84314575 3.84314575,2.5 5.5,2.5 L14.5,2.5 Z M14.5,3.5 L5.5,3.5 C4.4456382,3.5 3.58183488,4.31587779 3.50548574,5.35073766 L3.5,5.5 L3.5,14.5 C3.5,15.5543618 4.31587779,16.4181651 5.35073766,16.4945143 L5.5,16.5 L14.5,16.5 C15.5543618,16.5 16.4181651,15.6841222 16.4945143,14.6492623 L16.5,14.5 L16.5,5.5 C16.5,4.4456382 15.6841222,3.58183488 14.6492623,3.50548574 L14.5,3.5 Z M9.99264069,5.25735931 C10.2381006,5.25735931 10.4422491,5.43423447 10.484585,5.66748368 L10.4926407,5.75735931 L10.492,9.49935931 L14.2352814,9.5 C14.5114237,9.5 14.7352814,9.72385763 14.7352814,10 C14.7352814,10.2454599 14.5584062,10.4496084 14.325157,10.4919443 L14.2352814,10.5 L10.492,10.4993593 L10.4926407,14.2426407 C10.4926407,14.5187831 10.2687831,14.7426407 9.99264069,14.7426407 C9.7471808,14.7426407 9.54303232,14.5657655 9.50069636,14.3325163 L9.49264069,14.2426407 L9.492,10.4993593 L5.75,10.5 C5.47385763,10.5 5.25,10.2761424 5.25,10 C5.25,9.75454011 5.42687516,9.55039163 5.66012437,9.50805567 L5.75,9.5 L9.492,9.49935931 L9.49264069,5.75735931 C9.49264069,5.48121694 9.71649831,5.25735931 9.99264069,5.25735931 Z" id="形状结合"></path>
                            </g>
                        </g>
                    </g>
                </g>
            </g>
        </g>
    </g>
</svg>