<?xml version="1.0" encoding="UTF-8"?>
<svg width="16px" height="14px" viewBox="0 0 16 14" version="1.1" xmlns="http://www.w3.org/2000/svg" xmlns:xlink="http://www.w3.org/1999/xlink">
    <title>资源 14备份 7</title>
    <desc>Created with Sketch.</desc>
    <g id="页面-1" stroke="none" stroke-width="1" fill="none" fill-rule="evenodd">
        <g id="容器分析优化2" transform="translate(-422.000000, -561.000000)">
            <g id="资源-14备份-7" transform="translate(422.000000, 560.000000)">
                <g id="资源-14" transform="translate(0.000000, 1.000000)" fill="#979797">
                    <path d="M0.660869565,0.462608696 L15.1165217,0.462608696 C15.2219231,0.468163735 15.304348,0.555322001 15.304348,0.660869565 L15.304348,3.51652174 C15.304348,3.6240972 15.2171407,3.71130435 15.1095652,3.71130435 L0.660869565,3.71130435 C0.552717198,3.71130435 0.464506104,3.62465746 0.462608696,3.51652174 L0.462608696,0.660869565 C0.464467514,0.552152366 0.552152366,0.464467514 0.660869565,0.462608696 M0.660869565,4.17391304 L15.1165217,4.17391304 C15.4801508,4.17199918 15.773913,3.87667762 15.773913,3.51304348 L15.773913,0.660869565 C15.773913,0.297235424 15.4801508,0.00191386386 15.1165217,0 L0.660869565,0 C0.295881383,0 0,0.295881383 0,0.660869565 L0,3.51652174 C0.00191386386,3.88015084 0.297235424,4.17391304 0.660869565,4.17391304" id="Fill-1"></path>
                    <path d="M2.32,1.62434783 C2.50914024,1.62294152 2.68037556,1.73598123 2.75340753,1.91045857 C2.8264395,2.0849359 2.78678467,2.2862491 2.65303863,2.41999515 C2.51929258,2.55374119 2.31797938,2.59339602 2.14350205,2.52036405 C1.96902471,2.44733208 1.855985,2.27609676 1.8573913,2.08695652 C1.8573913,1.83146479 2.06450827,1.62434783 2.32,1.62434783" id="Fill-3"></path>
                    <path d="M2.32,6.4973913 C2.50742314,6.4973966 2.67632294,6.61048765 2.74771738,6.78378008 C2.81911183,6.95707251 2.77889129,7.15631867 2.64586396,7.2883458 C2.51283663,7.42037292 2.31329259,7.45908859 2.14054391,7.38638833 C1.96779524,7.31368807 1.85598211,7.14393958 1.8573913,6.95652174 C1.85645609,6.83354597 1.9048947,6.71533547 1.99185422,6.62837596 C2.07881374,6.54141644 2.19702423,6.49297783 2.32,6.49391304" id="Fill-5"></path>
                    <path d="M0.660869565,5.3356205 L15.1130435,5.3356205 C15.1659119,5.33469936 15.2168958,5.35528138 15.2542855,5.39267105 C15.2916751,5.43006072 15.3122572,5.48104465 15.311336,5.53391304 L15.311336,8.38608696 C15.311336,8.49558341 15.2225399,8.58434783 15.1130435,8.58434783 L0.660869565,8.58434783 C0.552152366,8.58248901 0.464467514,8.49480416 0.462608696,8.38608696 L0.462608696,5.53391304 C0.462608696,5.42441659 0.55137311,5.3356205 0.660869565,5.3356205 M0.660869565,9.04347826 L15.1130435,9.04347826 C15.4780317,9.04347826 15.773913,8.74759688 15.773913,8.3826087 L15.773913,5.53043478 C15.773913,5.1654466 15.4780317,4.86956522 15.1130435,4.86956522 L0.660869565,4.86956522 C0.484991744,4.86956522 0.316367709,4.93966717 0.192330151,5.06435756 C0.0682925942,5.18904795 -0.000925672761,5.35803766 -9.16631849e-06,5.53391304 L-9.16631849e-06,8.38608696 C0.00191386386,8.74971606 0.297235424,9.04347826 0.660869565,9.04347826" id="Fill-11"></path>
                    <path d="M2.32,11.3669565 C2.50945361,11.3655637 2.68089917,11.47899 2.75371493,11.653897 C2.82653069,11.8288041 2.7862259,12.0303844 2.65175377,12.1638454 C2.51728164,12.2973065 2.31540287,12.3360888 2.14105035,12.2619551 C1.96669783,12.1878214 1.85456868,12.0155247 1.8573913,11.826087 C1.85646426,11.702794 1.90479369,11.5842321 1.99165034,11.4967224 C2.07850698,11.4092127 2.19670351,11.36 2.32,11.36" id="Fill-5-2"></path>
                    <path d="M0.660869565,10.2086646 L15.1130435,10.2086646 C15.165303,10.2077623 15.215745,10.2278712 15.2530296,10.2645017 C15.2903142,10.3011321 15.3113044,10.3512104 15.3113044,10.4034783 L15.3113044,13.2591304 C15.3113044,13.3113983 15.2903142,13.3614765 15.2530296,13.398107 C15.215745,13.4347375 15.165303,13.4548464 15.1130435,13.4539441 L0.660869565,13.4539441 C0.552717198,13.4539441 0.464506104,13.3672662 0.462608696,13.2591304 L0.462608696,10.4034783 C0.464506104,10.2953425 0.552717198,10.2086646 0.660869565,10.2086646 M0.660869565,13.9130435 L15.1130435,13.9130435 C15.4780317,13.9130435 15.773913,13.6171621 15.773913,13.2521739 L15.773913,10.4034783 C15.773913,10.0384901 15.4780317,9.7426087 15.1130435,9.7426087 L0.660869565,9.7426087 C0.485596059,9.7426087 0.317501299,9.81223582 0.193564214,9.93617291 C0.0696271293,10.06011 0,10.2282048 0,10.4034783 L0,13.2591304 C0.0038135643,13.621399 0.298580904,13.9130435 0.660869565,13.9130435" id="Fill-11-2"></path>
                </g>
                <rect id="矩形" x="0" y="0" width="16" height="16"></rect>
            </g>
        </g>
    </g>
</svg>