<?xml version="1.0" encoding="UTF-8"?>
<svg width="32px" height="32px" viewBox="0 0 32 32" version="1.1" xmlns="http://www.w3.org/2000/svg" xmlns:xlink="http://www.w3.org/1999/xlink">
    <title>编组 13备份 2</title>
    <desc>Created with Sketch.</desc>
    <g id="页面-1备份" stroke="none" stroke-width="1" fill="none" fill-rule="evenodd">
        <g id="55IO分析-Socket-IO-表单展开" transform="translate(-1828.000000, -194.000000)">
            <g id="热点快照" transform="translate(1828.000000, 190.000000)">
                <g id="编组-13备份-2" transform="translate(0.000000, 4.000000)">
                    <rect id="bgc" stroke="#DDDDDD" fill="#313131" x="0.5" y="0.5" width="31" height="31" rx="1"></rect>
                    <g id="快照" transform="translate(8.000000, 10.000000)" fill="#AAAAAA" fill-rule="nonzero">
                        <path d="M7.98003356,10.485906 C9.95587248,10.485906 11.5558725,8.8966443 11.5558725,6.94228188 C11.5558725,4.98791946 9.95587248,3.39865772 7.98003356,3.39865772 C6.00419463,3.39865772 4.40419463,4.98791946 4.40419463,6.94228188 C4.40419463,8.8966443 6.01493289,10.485906 7.98003356,10.485906 Z M5.69278523,6.94228188 C5.69278523,5.6966443 6.71291946,4.67651007 7.98003356,4.67651007 C9.2364094,4.67651007 10.2672819,5.6966443 10.2672819,6.94228188 C10.2672819,8.18791946 9.24714765,9.20805369 7.98003356,9.20805369 C6.72365772,9.20805369 5.69278523,8.18791946 5.69278523,6.94228188 Z" id="形状"></path>
                        <path d="M14.3263423,1.93825503 L12.167953,1.93825503 L10.9974832,0.00536912752 L4.96258389,0.00536912752 L3.79211409,1.93825503 L1.63372483,1.93825503 C1.06459732,1.93825503 0.0122483221,2.48590604 0.0122483221,3.53825503 L0.0122483221,11.3020134 C0.0122483221,12.2040268 0.828355705,12.9127517 1.53708054,12.9127517 L14.358557,12.9127517 C15.0780201,12.9127517 15.9478188,12.1718121 15.9478188,11.3127517 L15.9478188,3.54899329 C15.9478188,2.99060403 15.3894295,1.93825503 14.3263423,1.93825503 L14.3263423,1.93825503 Z M10.2994966,1.28322148 L11.1263423,2.66845638 L11.4377517,3.21610738 L14.3263423,3.21610738 C14.5303691,3.21610738 14.6377517,3.50604027 14.6592282,3.55973154 L14.6592282,11.3020134 C14.6592282,11.3879195 14.4444631,11.5919463 14.3478188,11.6134228 L1.54781879,11.6134228 C1.48338926,11.5919463 1.30083893,11.4416107 1.30083893,11.2912752 L1.30083893,3.53825503 C1.30083893,3.36644295 1.58003356,3.23758389 1.64446309,3.22684564 L4.52231544,3.22684564 L5.69278523,1.29395973 L10.2994966,1.29395973 L10.2994966,1.28322148 Z" id="形状"></path>
                    </g>
                </g>
            </g>
        </g>
    </g>
</svg>