<?xml version="1.0" encoding="UTF-8"?>
<svg width="224px" height="154px" viewBox="0 0 224 154" version="1.1" xmlns="http://www.w3.org/2000/svg" xmlns:xlink="http://www.w3.org/1999/xlink">
    <!-- Generator: Sketch 57.1 (83088) - https://sketch.com -->
    <title>4.很遗憾，没有发现您要的界面备份</title>
    <desc>Created with Sketch.</desc>
    <g id="Porting-advisor" stroke="none" stroke-width="1" fill="none" fill-rule="evenodd">
        <g id="打包进行中4.0-report备份-24" transform="translate(-848.000000, -389.000000)">
            <g id="弹窗-3" transform="translate(665.000000, 350.000000)">
                <g id="4.很遗憾，没有发现您要的界面备份" transform="translate(183.000000, 32.000000)">
                    <g id="Group-4">
                        <path d="M203.859718,136.873824 C197.729007,141.151691 190.630288,144.467039 183.2089,146.712919 C178.691534,148.103226 174.066611,148.9588 169.441688,149.386586 C160.729624,150.24216 152.125116,149.386586 144.488616,146.499026 C118.567537,136.552984 89.8499927,158.797895 63.9289136,160.509042 C63.6062445,160.509042 63.1760191,160.509042 62.7457938,160.615989 C56.0773004,160.936829 49.6239197,159.760415 43.493208,156.338121 C38.6531725,153.664454 33.9206933,150.135213 29.2957705,145.857346 C4.88048015,123.184648 -12.4360914,87.9991872 11.3338608,53.6693002 C39.5136232,13.0295585 52.1741814,19.6602532 67.5858293,25.0075876 C82.9974771,30.3549221 90.1188836,33.2320386 117.545752,31.8417317 C144.97262,30.4514247 147.437172,28.1090416 175.939604,19.6602532 C204.442035,11.2114648 215.368247,58.3749545 223.219861,95.4854554 C226.76922,112.596926 217.842043,127.141675 203.859718,136.873824 Z" id="Path" fill="#EDF2FF"></path>
                        <g id="空盒子" transform="translate(34.666667, 42.666667)">
                            <polygon id="Path-136" fill="#BACCFF" points="13.3333333 11.1226453 68.3333333 0 68.3333333 17"></polygon>
                            <polygon id="Path-137" fill="#CCDAFF" points="133.333333 8.11764706 68.3333333 0 68.3333333 23 90.4057554 23"></polygon>
                            <polygon id="Rectangle" fill="#D4DFFF" points="13.3333333 12 77.3333333 18.3090612 77.3333333 97 13.3333333 82.942633"></polygon>
                            <polygon id="Rectangle-Copy-6" fill="#DFE8FF" transform="translate(105.833333, 52.500000) scale(-1, 1) translate(-105.833333, -52.500000) " points="77.3333333 8 134.333333 18.593194 134.333333 97 77.3333333 78.6864773"></polygon>
                            <polygon id="Path-138" fill="#CCDAFF" points="77.3333333 18.08 63.9950898 48 0 36.4427964 13.6885662 10.6666667"></polygon>
                            <polygon id="Path-139" fill="#D4DFFF" points="77.3333333 18.6061782 97.8839326 50.6666667 154.666667 33.4688355 134.638217 8"></polygon>
                        </g>
                        <g id="Group-3" transform="translate(77.333333, 0.000000)">
                            <g id="Group" transform="translate(30.169889, 30.169889) rotate(-315.000000) translate(-30.169889, -30.169889) translate(4.836556, 12.836556)">
                                <circle id="Oval" fill="#BACCFF" cx="17.3333333" cy="17.3333333" r="17.3333333"></circle>
                                <rect id="Rectangle" fill="#BACCFF" x="19.5506012" y="14.3905243" width="30.6666667" height="4" rx="2"></rect>
                                <circle id="Oval" fill="#DFE8FF" cx="17.4280904" cy="17.3333333" r="12.6666667"></circle>
                            </g>
                            <path d="M17.6084151,19.5150818 L26.2193645,19.4860312 C26.809829,19.4840391 27.2901098,19.9610903 27.2921019,20.5515547 C27.29211,20.5539593 27.29211,20.5563639 27.2921019,20.5587685 C27.2900924,21.1544017 26.8077351,21.6367591 26.2121019,21.6387685 L17.6011525,21.6678191 C17.010688,21.6698112 16.5304072,21.1927601 16.5284151,20.6022956 C16.528407,20.599891 16.528407,20.5974864 16.5284151,20.5950818 C16.5304246,19.9994486 17.0127819,19.5170913 17.6084151,19.5150818 Z" id="Rectangle" fill="#EDF2FF" transform="translate(21.910259, 20.576925) rotate(-45.000000) translate(-21.910259, -20.576925) "></path>
                            <path d="M21.2957218,25.6157218 L32.0594085,25.5794085 C32.649873,25.5774165 33.1301538,26.0544676 33.1321459,26.644932 C33.132154,26.6473366 33.132154,26.6497413 33.1321459,26.6521459 C33.1301364,27.2477791 32.6477791,27.7301364 32.0521459,27.7321459 L21.2884591,27.7684591 C20.6979947,27.7704512 20.2177138,27.2934 20.2157218,26.7029356 C20.2157137,26.700531 20.2157137,26.6981264 20.2157218,26.6957218 C20.2177313,26.1000886 20.7000886,25.6177313 21.2957218,25.6157218 Z" id="Rectangle-Copy" fill="#EDF2FF" transform="translate(26.673934, 26.673934) rotate(-45.000000) translate(-26.673934, -26.673934) "></path>
                        </g>
                        <path d="M141.428114,30.5209166 L138.09619,38.5322248 L134.516485,32.0699579 C134.301379,32.09255 134.082765,32.1039478 133.86127,32.1035175 C130.610935,32.0972027 127.971086,29.5461756 127.964991,26.4056392 C127.959848,23.7456034 129.845836,21.5158325 132.398122,20.8996302 C132.671385,18.4057163 134.853699,16.4677826 137.509256,16.4729316 C140.353299,16.4784674 142.663167,18.710616 142.668491,21.4585855 C142.668959,21.7000203 142.651622,21.9374042 142.617676,22.1695816 C142.635049,22.1694209 142.652447,22.1693571 142.669868,22.169391 C145.107619,22.1741271 147.087506,24.0873974 147.092078,26.4427997 C147.096633,28.7982021 145.124144,30.7037936 142.686393,30.6990575 C142.249334,30.6982083 141.826993,30.6360111 141.428114,30.5209166 Z" id="Path" fill="#CCDAFF" transform="translate(137.528534, 27.502578) rotate(27.000000) translate(-137.528534, -27.502578) "></path>
                        <path d="M152.927637,42.7633958 L151.594732,45.898199 L150.162958,43.3694256 C150.076916,43.3782623 149.98947,43.3827187 149.900872,43.3825465 C148.600738,43.3800206 147.544841,42.3817481 147.542456,41.1528426 C147.540444,40.111959 148.294877,39.2394719 149.315801,38.9983924 C149.425149,38.0225177 150.298107,37.2642328 151.36033,37.2662923 C152.497947,37.2685067 153.421857,38.1419951 153.42394,39.2172875 C153.424123,39.311762 153.417184,39.4046511 153.403602,39.4955025 C153.410551,39.4954399 153.41751,39.4954153 153.424479,39.4954288 C154.399579,39.4973232 155.191502,40.2460276 155.193291,41.1677068 C155.195073,42.089386 154.406046,42.8350188 153.430945,42.8331244 C153.256122,42.8327847 153.087186,42.8084395 152.927637,42.7633958 Z" id="Path-Copy" fill="#CCDAFF" transform="translate(151.367873, 41.582246) rotate(27.000000) translate(-151.367873, -41.582246) "></path>
                    </g>
                </g>
            </g>
        </g>
    </g>
</svg>