<?xml version="1.0" encoding="UTF-8"?>
<svg width="24px" height="14px" viewBox="0 0 24 14" version="1.1" xmlns="http://www.w3.org/2000/svg" xmlns:xlink="http://www.w3.org/1999/xlink">
    <!-- Generator: Sketch 57.1 (83088) - https://sketch.com -->
    <title>形状结合</title>
    <desc>Created with Sketch.</desc>
    <defs>
        <path d="M287.21967,8.21966991 C287.512563,7.9267767 287.987437,7.9267767 288.28033,8.21966991 C288.573223,8.51256313 288.573223,8.98743687 288.28033,9.28033009 L288.28033,9.28033009 L283.56,14 L303.75,14 C304.129696,14 304.443491,14.2821539 304.493153,14.6482294 L304.5,14.75 C304.5,15.1642136 304.164214,15.5 303.75,15.5 L303.75,15.5 L283.56,15.5 L288.28033,20.2196699 C288.546597,20.4859365 288.570803,20.9026002 288.352948,21.1962117 L288.28033,21.2803301 C287.987437,21.5732233 287.512563,21.5732233 287.21967,21.2803301 L287.21967,21.2803301 L281.21967,15.2803301 C280.926777,14.9874369 280.926777,14.5125631 281.21967,14.2196699 L281.21967,14.2196699 Z" id="path-1"></path>
    </defs>
    <g id="Porting-advisor" stroke="none" stroke-width="1" fill="none" fill-rule="evenodd">
        <g id="移植4.0-report备份-40" transform="translate(-346.000000, -798.000000)">
            <g id="编组-24" transform="translate(64.000000, 628.000000)">
                <g id="编组-15备份-8" transform="translate(0.000000, 126.000000)">
                    <g id="编组-23" transform="translate(0.000000, 36.000000)">
                        <g id="编组-14">
                            <g id="蒙版" transform="translate(1.000000, 0.000000)">
                                <mask id="mask-2" fill="white">
                                    <use xlink:href="#path-1"></use>
                                </mask>
                                <use id="形状结合" fill="#282B33" fill-rule="nonzero" transform="translate(292.750000, 14.750000) rotate(-180.000000) translate(-292.750000, -14.750000) " xlink:href="#path-1"></use>
                            </g>
                        </g>
                    </g>
                </g>
            </g>
        </g>
    </g>
</svg>