<?xml version="1.0" encoding="UTF-8"?>
<svg width="12px" height="12px" viewBox="0 0 12 12" version="1.1" xmlns="http://www.w3.org/2000/svg" xmlns:xlink="http://www.w3.org/1999/xlink">
    <title>形状</title>
    <g id="8月份需求" stroke="none" stroke-width="1" fill="none" fill-rule="evenodd">
        <g id="软件包构建-提示2" transform="translate(-1256.000000, -601.000000)" fill="#979797" fill-rule="nonzero">
            <g id="4.组件/5.反馈/1.弹窗/5带图表格弹窗700" transform="translate(610.000000, 243.000000)">
                <g id="编组-2" transform="translate(32.000000, 282.000000)">
                    <g id="第二步" transform="translate(0.000000, 52.000000)">
                        <g id="复制" transform="translate(614.000000, 24.000000)">
                            <path d="M2.3726113,2.96961682 L2.3726113,3.85220153 L1.5612638,3.85220153 C1.19278467,3.85220153 0.893966705,4.15228034 0.893966705,4.52107467 L0.893966705,10.4394356 C0.893966705,10.8082299 1.19436072,11.1086239 1.56283983,11.1086239 L7.47993991,11.1086239 C7.83581067,11.1086239 8.126118,10.8312402 8.147237,10.4807279 L8.147237,9.62808807 L9.02982171,9.62808807 L9.02982171,10.4381748 C9.02982171,10.8523591 8.86906521,11.2422725 8.57592099,11.5354167 C8.28594982,11.8273586 7.89109966,11.9909524 7.4796247,11.9896405 L1.5612638,11.9896405 C1.15005279,11.990867 0.755467418,11.8274024 0.465597906,11.5357319 C0.173740129,11.2450844 0.0102949928,10.8497515 0.0116882591,10.4378595 L0.0116882591,4.51918341 C0.0125656248,3.66369034 0.705770915,2.97034403 1.5612638,2.96930161 L2.3726113,2.96930161 L2.3726113,2.96961682 Z M10.43849,0.0116972074 C11.2923907,0.0116972074 11.9867957,0.707678291 11.9896326,1.56189422 L11.9896326,7.48025512 C11.9894596,8.33629171 11.2961017,9.03049578 10.440066,9.03172071 L4.52296592,9.03172071 C4.11127847,9.03301695 3.71617773,8.86957395 3.425724,8.57781225 C3.13394404,8.28724171 2.97050535,7.89203789 2.97181538,7.48025512 L2.97181538,1.56189422 C2.97251799,0.706278051 3.66577407,0.0127399382 4.52138988,0.0116972074 L10.43849,0.0116972074 Z M10.43849,0.892702993 L4.52138988,0.892702993 C4.34393511,0.892183253 4.17370146,0.962934127 4.04889184,1.08908097 C3.92314261,1.21467581 3.85297841,1.3854314 3.85409279,1.56315504 L3.85251674,1.56315504 L3.85251674,7.483092 C3.85321215,7.85200795 4.15247327,8.15070429 4.52138988,8.15070429 L10.440066,8.15070429 C10.6191046,8.15070429 10.7858501,8.08230397 10.9122488,7.95559003 C11.0320282,7.83612588 11.1001133,7.67946709 11.1073631,7.51146079 L11.105787,7.51019997 L11.105787,1.56189422 C11.105787,1.38380123 11.0377019,1.21579493 10.910988,1.08908097 C10.7860378,0.963143154 10.6158957,0.892430325 10.43849,0.892702993 Z M7.99089342,2.26764678 L7.99089342,4.11382487 L9.83644109,4.11382487 L9.83644109,4.92800926 L7.99089342,4.92800926 L7.99089342,6.77418735 L7.17639382,6.77418735 L7.17639382,4.92800926 L5.33084614,4.92800926 L5.33084614,4.11382487 L7.17639382,4.11382487 L7.17639382,2.26764678 L7.99057821,2.26764678 L7.99089342,2.26764678 Z" id="形状"></path>
                        </g>
                    </g>
                </g>
            </g>
        </g>
    </g>
</svg>