<?xml version="1.0" encoding="UTF-8"?>
<svg width="15px" height="15px" viewBox="0 0 15 15" version="1.1" xmlns="http://www.w3.org/2000/svg" xmlns:xlink="http://www.w3.org/1999/xlink">
    <!-- Generator: Sketch 57.1 (83088) - https://sketch.com -->
    <title>编组 11备份</title>
    <desc>Created with Sketch.</desc>
    <g id="Porting-advisor" stroke="none" stroke-width="1" fill="none" fill-rule="evenodd">
        <g id="打包进行中4.0-report备份-21" transform="translate(-884.000000, -575.000000)" fill="#5B7EDE" fill-rule="nonzero">
            <g id="弹窗-3" transform="translate(665.000000, 350.000000)">
                <g id="编组-11" transform="translate(71.000000, 225.000000)">
                    <g id="编组-5">
                        <g id="编组-12" transform="translate(148.000000, 0.000000)">
                            <g id="编组-11备份">
                                <polygon id="路径" points="12.016 1.48933333 13.432 2.90533333 10.8493333 5.484 9.43466667 4.06933333"></polygon>
                                <polygon id="路径" points="-1.4261925e-12 6.41733333 3.648 6.41866667 3.648 8.41866667 -1.4261925e-12 8.41733333"></polygon>
                                <polygon id="路径" points="2.86933333 13.396 1.45466667 11.9813333 4.03466667 9.40266667 5.44933333 10.8173333"></polygon>
                                <polygon id="路径" points="4.068 5.44933333 1.48933333 2.86933333 2.90266667 1.45466667 5.48266667 4.03466667"></polygon>
                                <polygon id="路径" points="8.41866667 14.8853333 6.41733333 14.8853333 6.41866667 11.2373333 8.41866667 11.2373333"></polygon>
                                <polygon id="路径" points="8.46666667 3.64666667 6.46666667 3.64666667 6.46666667 -1.63424829e-13 8.46666667 -1.63424829e-13"></polygon>
                                <polygon id="路径" points="11.98 13.4306667 9.40133333 10.848 10.816 9.43333333 13.396 12.0146667"></polygon>
                                <polygon id="路径" points="14.8853333 8.46933333 11.236 8.46666667 11.2373333 6.46666667 14.8866667 6.468 14.8866667 8.46933333"></polygon>
                            </g>
                        </g>
                    </g>
                </g>
            </g>
        </g>
    </g>
</svg>