<?xml version="1.0" encoding="UTF-8"?>
<svg width="16px" height="16px" viewBox="0 0 16 16" version="1.1" xmlns="http://www.w3.org/2000/svg" xmlns:xlink="http://www.w3.org/1999/xlink">
    <title>安装包</title>
    <g id="安装包" stroke="none" stroke-width="1" fill="none" fill-rule="evenodd">
        <path d="M5.66666135,4.57142188 L6.83333067,4.57142188 L6.83333067,3.42859375 L5.66666135,3.42859375 L5.66666135,4.5714375 L5.66666135,4.57142188 Z M4.49999202,5.71428125 L5.66666135,5.71428125 L5.66666135,4.57142187 L4.49999202,4.57142187 L4.49999202,5.71428125 Z M13.8333307,14.2857187 C13.8333307,14.6285781 13.6000064,14.8571406 13.250004,14.8571406 L2.74999601,14.8571406 C2.39999362,14.8571406 2.16666933,14.6285781 2.16666933,14.2857187 L2.16666933,1.71428125 C2.16666933,1.37142188 2.39999362,1.14285938 2.74999601,1.14285938 L9.16666933,1.14285938 L9.16666933,4 C9.16666933,4.91428125 9.98333626,5.71428125 10.9166653,5.71428125 L13.8333307,5.71428125 L13.8333307,14.2857187 Z M10.3333387,1.94285937 L13.0166637,4.57140625 L10.9166653,4.57140625 C10.5666629,4.57140625 10.3333387,4.34284375 10.3333387,3.99998437 L10.3333387,1.94285937 Z M14.7666757,4.68571875 L10.0999984,0.11428125 C10.0999984,0.11428125 9.86669006,0 9.74999601,0 L2.74999601,0 C1.81666693,0 1,0.8 1,1.71428125 L1,14.2857188 C1,15.2 1.81666693,16 2.74999601,16 L13.250004,16 C14.1833331,16 15,15.2 15,14.2857188 L15,5.14285937 C15,5.02857812 14.8833379,4.8 14.7666757,4.68571875 Z M4.49997607,3.42857813 L5.6666454,3.42857813 L5.6666454,2.28571875 L4.49997607,2.28571875 L4.49997607,3.42857813 L4.49997607,3.42857813 Z M4.49997607,8 L5.6666454,8 L5.6666454,6.85714062 L4.49997607,6.85714062 L4.49997607,8 L4.49997607,8 Z M5.6666454,9.14285938 L6.83331472,9.14285938 L6.83331472,8 L5.6666454,8 L5.6666454,9.14285938 Z M5.6666454,6.85714063 L6.83331472,6.85714063 L6.83331472,5.71428125 L5.6666454,5.71428125 L5.6666454,6.85714063 L5.6666454,6.85714063 Z M4.49997607,10.2857188 L5.6666454,10.2857188 L5.6666454,9.14285938 L4.49997607,9.14285938 L4.49997607,10.2857188 Z M4.49997607,11.4285781 L4.49997607,13.7142813 L6.83331472,13.7142813 L6.83331472,10.2857188 L5.6666454,10.2857188 L5.6666454,11.4285781 L4.49997607,11.4285781 L4.49997607,11.4285781 Z" id="形状" fill="#979797" fill-rule="nonzero"></path>
    </g>
</svg>