<?xml version="1.0" encoding="UTF-8"?>
<svg width="16px" height="16px" viewBox="0 0 16 16" version="1.1" xmlns="http://www.w3.org/2000/svg" xmlns:xlink="http://www.w3.org/1999/xlink">
    <title>txt</title>
    <defs>
        <path d="M7,0 L9,2 L14,2 C14.5522847,2 15,2.44771525 15,3 L15,15 C15,15.5522847 14.5522847,16 14,16 L2,16 C1.44771525,16 1,15.5522847 1,15 L1,1 C1,0.44771525 1.44771525,0 2,0 L7,0 Z M8.28068933,2.89613868 L6.64395833,1.25 L2.25,1.25 L2.25,14.75 L13.75,14.75 L13.75,3.17857143 L8.95833333,3.17857143 C8.7465285,3.17857143 8.54195281,3.10801997 8.37563838,2.97985082 L8.28068933,2.89613868 Z M8.4375,6 C8.67912458,6 8.875,6.27982203 8.875,6.625 C8.875,6.97017797 8.67912458,7.25 8.4375,7.25 L4.0625,7.25 C3.82087542,7.25 3.625,6.97017797 3.625,6.625 C3.625,6.27982203 3.82087542,6 4.0625,6 L8.4375,6 Z M11.9375,10 C12.1791246,10 12.375,10.279822 12.375,10.625 C12.375,10.970178 12.1791246,11.25 11.9375,11.25 L4.0625,11.25 C3.82087542,11.25 3.625,10.970178 3.625,10.625 C3.625,10.279822 3.82087542,10 4.0625,10 L11.9375,10 Z" id="path-1"></path>
    </defs>
    <g id="txt" stroke="none" stroke-width="1" fill="none" fill-rule="evenodd">
        <mask id="mask-2" fill="white">
            <use xlink:href="#path-1"></use>
        </mask>
        <use id="蒙版" fill="#ED4B4B" fill-rule="nonzero" xlink:href="#path-1"></use>
    </g>
</svg>