<?xml version="1.0" encoding="UTF-8"?>
<svg width="67px" height="51px" viewBox="0 0 67 51" version="1.1" xmlns="http://www.w3.org/2000/svg" xmlns:xlink="http://www.w3.org/1999/xlink">
    <title>上传</title>
    <g id="web330需求" stroke="none" stroke-width="1" fill="none" fill-rule="evenodd">
        <g id="源码迁移-多文件上传1" transform="translate(-926.000000, -455.000000)" fill="#979797" fill-rule="nonzero">
            <g id="弹窗" transform="translate(610.000000, 294.000000)">
                <g id="编组-4" transform="translate(32.000000, 90.000000)">
                    <g id="编组-2" transform="translate(47.000000, 71.000000)">
                        <path d="M270.054768,0.00299783375 C260.520568,0.164576822 252.379902,6.84148959 250.258139,16.0717543 L250.17107,16.465 L249.877088,16.5428851 C241.746119,18.7642026 236.27744,26.5592391 237.077556,35.1014258 C237.916865,44.0909446 245.429801,50.973737 254.435364,51 L268.727885,51 L268.727885,35.1692308 L263.82607,35.169 L270.42407,26.343 L277.02107,35.169 L272.121503,35.1692308 L272.121503,51 L286.40874,51 C295.415192,50.9565598 302.910524,44.0690888 303.741905,35.0831126 L303.769836,34.7465467 C304.38727,26.342711 298.957166,18.7328436 290.939408,16.542663 L290.64507,16.464 L290.638954,16.4326882 C288.624524,6.9014634 280.218539,0 270.40874,0 L270.054768,0.00299783375 Z M270.40874,3 C279.096477,3 286.499096,9.33560099 287.869368,17.9477004 L288.034514,18.9856354 L289.066459,19.1848162 C296.386116,20.5976194 301.443994,27.3552606 300.754662,34.8067489 L300.720683,35.1342913 C299.882431,42.4235879 293.744983,47.9645839 286.401502,48.0000175 L275.12107,48.0000175 L275.12107,38.169 L283.009102,38.1692308 L270.424238,21.3330876 L257.839375,38.1692308 L265.72707,38.169 L265.72707,48.0000175 L254.439737,48.0000175 C246.985747,47.9782607 240.76037,42.2750334 240.064524,34.8220969 C239.366082,27.3654054 244.425418,20.5984874 251.750967,19.1848266 L252.782959,18.9856761 L252.948112,17.9477004 C254.318436,9.33527334 261.720422,3 270.40874,3 Z" id="上传"></path>
                    </g>
                </g>
            </g>
        </g>
    </g>
</svg>