<?xml version="1.0" encoding="UTF-8"?>
<svg width="16px" height="16px" viewBox="0 0 16 16" version="1.1" xmlns="http://www.w3.org/2000/svg" xmlns:xlink="http://www.w3.org/1999/xlink">
    <title>设置</title>
    <defs>
        <path d="M9.36729223,2.1377551 L9.56032172,2.16836735 L10.2037534,4.00510204 C10.2680965,4.18877551 10.4932976,4.34183673 10.6863271,4.31122449 L12.7453083,4.06632653 L12.8739946,4.18877551 C13.0991957,4.43367347 13.2922252,4.70918367 13.4530831,4.98469388 C13.6461126,5.29081633 13.8069705,5.62755102 13.9356568,5.99489796 L14,6.14795918 L12.6809651,7.70918367 C12.5522788,7.8622449 12.5522788,8.10714286 12.6809651,8.26020408 L14,9.76020408 L13.9356568,9.91326531 C13.7386059,10.502551 13.4430295,11.0449617 13.0489276,11.5404974 L12.7453083,11.9030612 L10.7184987,11.5969388 C10.5254692,11.5663265 10.3002681,11.6887755 10.2359249,11.872449 L9.52815013,13.8316327 L9.36729223,13.8622449 C8.46648794,14.0459184 7.53351206,14.0459184 6.66487936,13.8622449 L6.47184987,13.8316327 L5.82841823,11.9030612 C5.76407507,11.7193878 5.53887399,11.5969388 5.3458445,11.627551 L3.25469169,11.9336735 L3.12600536,11.8112245 C2.90080429,11.5663265 2.7077748,11.2908163 2.54691689,11.0153061 C2.3538874,10.6785714 2.19302949,10.3418367 2.06434316,9.9744898 L2,9.82142857 L3.35120643,8.29081633 C3.47989276,8.1377551 3.47989276,7.89285714 3.35120643,7.73979592 L2,6.17857143 L2.06434316,6.0255102 C2.32171582,5.35204082 2.67560322,4.70918367 3.15817694,4.15816327 L3.28686327,4.03571429 L5.31367292,4.34183673 C5.50670241,4.37244898 5.73190349,4.25 5.82841823,4.06632653 L6.53619303,2.16836735 L6.69705094,2.1377551 C7.56568365,1.95408163 8.46648794,1.95408163 9.36729223,2.1377551 Z M8.95060569,2.82424335 C8.41727173,2.73957012 7.8862541,2.72758105 7.36077613,2.7888384 L7.091,2.8265 L6.53114597,4.32838326 L6.49233841,4.41519612 C6.26580759,4.84629814 5.78469805,5.12566719 5.30446613,5.09483782 L5.20166582,5.08342585 L3.569,4.8365 L3.43990925,5.01005212 C3.26107141,5.26116028 3.10092492,5.53769292 2.95781985,5.84098369 L2.86925,6.03725 L3.92527279,7.25714924 C4.26431967,7.6604161 4.2869228,8.25541352 3.98348069,8.69538886 L3.9134634,8.78717014 L2.86625,9.97325 L2.95699296,10.1804916 L3.0686994,10.4071207 L3.19460407,10.637151 C3.28267314,10.7879917 3.37651416,10.9296628 3.4674775,11.0520014 L3.5315,11.135 L5.22837125,10.8868081 C5.74035293,10.8056138 6.27830618,11.0850211 6.49987354,11.5667114 L6.5398671,11.6656997 L7.0415,13.16975 L7.07795463,13.1765321 C7.59794032,13.2606237 8.14150343,13.2724674 8.68478078,13.2111737 L8.969,13.172 L9.52810022,11.6244889 C9.70256357,11.1264673 10.2194219,10.8108589 10.7288276,10.8440183 L10.8305058,10.8553497 L12.44075,11.09825 L12.4610697,11.0746931 C12.7044712,10.7685645 12.9045241,10.4406809 13.0669852,10.0770433 L13.13525,9.9125 L12.1068988,8.74285076 C11.7678519,8.3395839 11.7452488,7.74458648 12.0400363,7.314632 L12.1080635,7.22515509 L13.13675,6.00725 L13.0820424,5.877463 C13.0287103,5.75937493 12.9703649,5.64450753 12.906173,5.53139201 L12.8053959,5.36284903 C12.7173269,5.21200828 12.6234858,5.07033717 12.5325225,4.94799865 L12.46025,4.85525 L10.8038003,5.05196738 C10.2798296,5.13506308 9.74883672,4.81700991 9.53448187,4.3486614 L9.49592864,4.25306208 L8.9975,2.8325 L8.95060569,2.82424335 Z M8,5.75 C9.25357143,5.75 10.25,6.74642857 10.25,8 C10.25,9.25357143 9.25357143,10.25 8,10.25 C6.74642857,10.25 5.75,9.25357143 5.75,8 C5.75,6.74642857 6.74642857,5.75 8,5.75 Z M8,6.5 C7.16064213,6.5 6.5,7.16064213 6.5,8 C6.5,8.83935787 7.16064213,9.5 8,9.5 C8.83935787,9.5 9.5,8.83935787 9.5,8 C9.5,7.16064213 8.83935787,6.5 8,6.5 Z" id="path-1"></path>
    </defs>
    <g id="Porting-630需求" stroke="none" stroke-width="1" fill="none" fill-rule="evenodd">
        <g id="8获取更多资源-弹窗" transform="translate(-1004.000000, -636.000000)">
            <g id="4.组件/5.反馈/1.弹窗/5带图表格弹窗700" transform="translate(610.000000, 240.000000)">
                <g id="编组-2" transform="translate(32.000000, 82.000000)">
                    <g id="3" transform="translate(0.000000, 312.000000)">
                        <g id="设置" transform="translate(362.000000, 2.000000)">
                            <rect id="矩形" fill="#061829" x="0" y="0" width="16" height="16"></rect>
                            <mask id="mask-2" fill="white">
                                <use xlink:href="#path-1"></use>
                            </mask>
                            <use id="蒙版" fill="#FFFFFF" fill-rule="nonzero" xlink:href="#path-1"></use>
                        </g>
                    </g>
                </g>
            </g>
        </g>
    </g>
</svg>