<?xml version="1.0" encoding="UTF-8"?>
<svg width="12px" height="12px" viewBox="0 0 12 12" version="1.1" xmlns="http://www.w3.org/2000/svg" xmlns:xlink="http://www.w3.org/1999/xlink">
    <title>4.组件/2.通用/icon/12/清除</title>
    <defs>
        <path d="M6,0 C9.3137085,0 12,2.6862915 12,6 C12,9.3137085 9.3137085,12 6,12 C2.6862915,12 0,9.3137085 0,6 C0,2.6862915 2.6862915,0 6,0 Z" id="path-1"></path>
    </defs>
    <g id="dep&amp;port合入" stroke="none" stroke-width="1" fill="none" fill-rule="evenodd">
        <g id="顶部导航-运行日志下载" transform="translate(-1856.000000, -992.000000)">
            <g id="4.组件/5.反馈/1.弹窗/5.右下角弹窗/1.实例2" transform="translate(1420.000000, 924.000000)">
                <g id="源代码分析" transform="translate(16.000000, 48.000000)">
                    <g id="编组" transform="translate(420.000000, 20.000000)">
                        <mask id="mask-2" fill="white">
                            <use xlink:href="#path-1"></use>
                        </mask>
                        <use id="蒙版" fill="#3AD53E" fill-rule="nonzero" xlink:href="#path-1"></use>
                        <g mask="url(#mask-2)" fill="#979797" id="3.颜色/2.成功-安全">
                            <g>
                                <rect id="矩形备份-6" x="0" y="0" width="12" height="12"></rect>
                            </g>
                        </g>
                        <g id="编组-2" mask="url(#mask-2)" fill="#FFFFFF" fill-rule="nonzero">
                            <g transform="translate(6.000000, 6.000000) rotate(45.000000) translate(-6.000000, -6.000000) translate(2.000000, 2.000000)" id="路径">
                                <path d="M7.4627417,3.536 C7.6836556,3.536 7.8627417,3.7150861 7.8627417,3.936 C7.8627417,4.13236791 7.72124157,4.2956867 7.53464221,4.32955546 L7.4627417,4.336 L0.4,4.336 C0.1790861,4.336 -1.42108547e-15,4.1569139 -1.42108547e-15,3.936 C-1.42108547e-15,3.73963209 0.141500128,3.5763133 0.328099494,3.54244454 L0.4,3.536 L7.4627417,3.536 Z"></path>
                                <path d="M3.936,7.81597009e-15 C4.13236791,7.81597009e-15 4.2956867,0.141500128 4.32955546,0.328099494 L4.336,0.4 L4.336,7.4627417 C4.336,7.6836556 4.1569139,7.8627417 3.936,7.8627417 C3.73963209,7.8627417 3.5763133,7.72124157 3.54244454,7.53464221 L3.536,7.4627417 L3.536,0.4 C3.536,0.1790861 3.7150861,7.81597009e-15 3.936,7.81597009e-15 Z"></path>
                            </g>
                        </g>
                    </g>
                </g>
            </g>
        </g>
    </g>
</svg>