<?xml version="1.0" encoding="UTF-8"?>
<svg width="16px" height="16px" viewBox="0 0 16 16" version="1.1" xmlns="http://www.w3.org/2000/svg" xmlns:xlink="http://www.w3.org/1999/xlink">
    <title>更多</title>
    <defs>
        <path d="M12.875,11.75 C13.0821068,11.75 13.25,11.9178932 13.25,12.125 C13.25,12.3090949 13.1173436,12.4622063 12.9424067,12.4939582 L12.875,12.5 L3.125,12.5 C2.91789322,12.5 2.75,12.3321068 2.75,12.125 C2.75,11.9409051 2.88265637,11.7877937 3.05759328,11.7560418 L3.125,11.75 L12.875,11.75 Z M12.875,7.625 C13.0821068,7.625 13.25,7.79289322 13.25,8 C13.25,8.18409492 13.1173436,8.33720628 12.9424067,8.36895825 L12.875,8.375 L3.125,8.375 C2.91789322,8.375 2.75,8.20710678 2.75,8 C2.75,7.81590508 2.88265637,7.66279372 3.05759328,7.63104175 L3.125,7.625 L12.875,7.625 Z M12.875,3.5 C13.0821068,3.5 13.25,3.66789322 13.25,3.875 C13.25,4.05909492 13.1173436,4.21220628 12.9424067,4.24395825 L12.875,4.25 L3.125,4.25 C2.91789322,4.25 2.75,4.08210678 2.75,3.875 C2.75,3.69090508 2.88265637,3.53779372 3.05759328,3.50604175 L3.125,3.5 L12.875,3.5 Z" id="path-1"></path>
    </defs>
    <g id="Porting-630需求" stroke="none" stroke-width="1" fill="none" fill-rule="evenodd">
        <g id="8获取更多资源-弹窗" transform="translate(-938.000000, -727.000000)">
            <g id="4.组件/5.反馈/1.弹窗/5带图表格弹窗700" transform="translate(610.000000, 240.000000)">
                <g id="编组-2" transform="translate(32.000000, 82.000000)">
                    <g id="4" transform="translate(0.000000, 364.000000)">
                        <g id="更多" transform="translate(296.000000, 41.000000)">
                            <rect id="矩形" fill="#061829" x="0" y="0" width="16" height="16"></rect>
                            <mask id="mask-2" fill="white">
                                <use xlink:href="#path-1"></use>
                            </mask>
                            <use id="蒙版" fill="#FFFFFF" fill-rule="nonzero" xlink:href="#path-1"></use>
                        </g>
                    </g>
                </g>
            </g>
        </g>
    </g>
</svg>