<?xml version="1.0" encoding="UTF-8"?>
<svg width="16px" height="16px" viewBox="0 0 16 16" version="1.1" xmlns="http://www.w3.org/2000/svg" xmlns:xlink="http://www.w3.org/1999/xlink">
    <title>4组件 / 2通用 / Icon / 16 / 删除</title>
    <defs>
        <path d="M8,4.75 C8.24545989,4.75 8.44960837,4.92687516 8.49194433,5.16012437 L8.5,5.25 L8.499,14.749 L13.086,14.749 L13.0863179,5.5 C13.0863179,5.25454011 13.2631931,5.05039163 13.4964423,5.00805567 L13.5863179,5 C13.8317778,5 14.0359263,5.17687516 14.0782623,5.41012437 L14.0863179,5.5 L14.0863179,15.75 L8.01020327,15.749898 C8.00681036,15.7499659 8.00340917,15.75 8,15.75 L7.989,15.749 L2,15.75 L2,5.5 C2,5.22385763 2.22385763,5 2.5,5 C2.74545989,5 2.94960837,5.17687516 2.99194433,5.41012437 L3,5.5 L3,14.749 L7.499,14.749 L7.5,5.25 C7.5,4.97385763 7.72385763,4.75 8,4.75 Z M15,2.5 C15.2761424,2.5 15.5,2.72385763 15.5,3 C15.5,3.24545989 15.3231248,3.44960837 15.0898756,3.49194433 L15,3.5 L1,3.5 C0.723857625,3.5 0.5,3.27614237 0.5,3 C0.5,2.75454011 0.676875161,2.55039163 0.910124368,2.50805567 L1,2.5 L15,2.5 Z M11.25,0.25 C11.5261424,0.25 11.75,0.473857625 11.75,0.75 C11.75,0.995459889 11.5731248,1.19960837 11.3398756,1.24194433 L11.25,1.25 L4.75,1.25 C4.47385763,1.25 4.25,1.02614237 4.25,0.75 C4.25,0.504540111 4.42687516,0.30039163 4.66012437,0.258055669 L4.75,0.25 L11.25,0.25 Z" id="path-1"></path>
    </defs>
    <g id="8月份需求" stroke="none" stroke-width="1" fill="none" fill-rule="evenodd">
        <g id="分析扫描识别X86-默认" transform="translate(-1822.000000, -480.000000)">
            <g id="历史记录" transform="translate(1397.000000, 380.000000)">
                <g id="1" transform="translate(41.000000, 96.000000)">
                    <g id="编组" transform="translate(384.000000, 4.000000)">
                        <mask id="mask-2" fill="white">
                            <use xlink:href="#path-1"></use>
                        </mask>
                        <use id="蒙版" fill="#267DFF" fill-rule="nonzero" xlink:href="#path-1"></use>
                        <g mask="url(#mask-2)" fill="#267DFF" id="3.颜色/10.辅助说明文本">
                            <g>
                                <rect id="矩形备份-6" x="0" y="0" width="16" height="16"></rect>
                            </g>
                        </g>
                    </g>
                </g>
            </g>
        </g>
    </g>
</svg>