<?xml version="1.0" encoding="UTF-8"?>
<svg width="16px" height="16px" viewBox="0 0 16 16" version="1.1" xmlns="http://www.w3.org/2000/svg" xmlns:xlink="http://www.w3.org/1999/xlink">
    <title>4.组件/2.通用/icon/导航栏/菜单</title>
    <g id="4.组件/2.通用/icon/导航栏/菜单" stroke="none" stroke-width="1" fill="none" fill-rule="evenodd">
        <path d="M14.5,13 C14.7761424,13 15,13.2238576 15,13.5 C15,13.7454599 14.8231248,13.9496084 14.5898756,13.9919443 L14.5,14 L1.5,14 C1.22385763,14 1,13.7761424 1,13.5 C1,13.2545401 1.17687516,13.0503916 1.41012437,13.0080557 L1.5,13 L14.5,13 Z M14.5,7.5 C14.7761424,7.5 15,7.72385763 15,8 C15,8.24545989 14.8231248,8.44960837 14.5898756,8.49194433 L14.5,8.5 L1.5,8.5 C1.22385763,8.5 1,8.27614237 1,8 C1,7.75454011 1.17687516,7.55039163 1.41012437,7.50805567 L1.5,7.5 L14.5,7.5 Z M14.5,2 C14.7761424,2 15,2.22385763 15,2.5 C15,2.74545989 14.8231248,2.94960837 14.5898756,2.99194433 L14.5,3 L1.5,3 C1.22385763,3 1,2.77614237 1,2.5 C1,2.25454011 1.17687516,2.05039163 1.41012437,2.00805567 L1.5,2 L14.5,2 Z" id="形状" fill="#fff" fill-rule="nonzero"></path>
    </g>
</svg>