<?xml version="1.0" encoding="UTF-8"?>
<svg width="16px" height="16px" viewBox="0 0 16 16" version="1.1" xmlns="http://www.w3.org/2000/svg" xmlns:xlink="http://www.w3.org/1999/xlink">
    <title>编组 5</title>
    <g id="-" stroke="none" stroke-width="1" fill="none" fill-rule="evenodd">
        <g id="编组-5">
            <rect id="矩形" x="0" y="0" width="16" height="16"></rect>
            <g id="编组-4" transform="translate(2.000000, 0.000000)" fill="#6c92fa">
                <path d="M11,0 C11.5522847,0 12,0.44771525 12,1 L12,15 C12,15.5522847 11.5522847,16 11,16 L1,16 C0.44771525,16 0,15.5522847 0,15 L0,1 C0,0.44771525 0.44771525,0 1,0 L11,0 Z M11,1 L1,1 L1,15 L11,15 L11,1 Z" id="矩形" fill-rule="nonzero"></path>
                <polygon id="路径-5" fill-rule="nonzero" points="11.5 5 11.5 6 1 6 1 5"></polygon>
                <polygon id="路径-5备份" fill-rule="nonzero" points="11.5 10 11.5 11 1 11 1 10"></polygon>
                <path d="M6,2.5 C6.27614237,2.5 6.5,2.72385763 6.5,3 C6.5,3.24545989 6.32312484,3.44960837 6.08987563,3.49194433 L6,3.5 L3,3.5 C2.72385763,3.5 2.5,3.27614237 2.5,3 C2.5,2.75454011 2.67687516,2.55039163 2.91012437,2.50805567 L3,2.5 L6,2.5 Z" id="路径-6" fill-rule="nonzero"></path>
                <path d="M6,7.5 C6.27614237,7.5 6.5,7.72385763 6.5,8 C6.5,8.24545989 6.32312484,8.44960837 6.08987563,8.49194433 L6,8.5 L3,8.5 C2.72385763,8.5 2.5,8.27614237 2.5,8 C2.5,7.75454011 2.67687516,7.55039163 2.91012437,7.50805567 L3,7.5 L6,7.5 Z" id="路径-6备份" fill-rule="nonzero"></path>
                <circle id="椭圆形" cx="8.75" cy="13.25" r="1"></circle>
            </g>
        </g>
    </g>
</svg>