<?xml version="1.0" encoding="UTF-8"?>
<svg width="97px" height="90px" viewBox="0 0 97 90" version="1.1" xmlns="http://www.w3.org/2000/svg" xmlns:xlink="http://www.w3.org/1999/xlink">
    <title>4.组件/2.通用/icon/tuning/1.缺省页/空数据</title>
    <defs>
        <linearGradient x1="50%" y1="-95.6039501%" x2="50%" y2="132.652733%" id="linearGradient-1">
            <stop stop-color="#504F4F" offset="0.0395903716%"></stop>
            <stop stop-color="#141414" offset="100%"></stop>
        </linearGradient>
        <linearGradient x1="50%" y1="50%" x2="50%" y2="148.601538%" id="linearGradient-2">
            <stop stop-color="#313131" offset="0%"></stop>
            <stop stop-color="#424242" offset="100%"></stop>
        </linearGradient>
        <linearGradient x1="50%" y1="50%" x2="50%" y2="148.601538%" id="linearGradient-3">
            <stop stop-color="#313131" offset="0%"></stop>
            <stop stop-color="#424242" offset="100%"></stop>
        </linearGradient>
    </defs>
    <g id="4.组件/2.通用/icon/tuning/1.缺省页/空数据" stroke="none" stroke-width="1" fill="none" fill-rule="evenodd">
        <g id="空白插画深色">
            <polygon id="路径" fill="url(#linearGradient-1)" fill-rule="nonzero" points="47.4639235 23 6 34.2 6 59 47.4639235 47.8121212 89 59 90 34"></polygon>
            <g id="路径" transform="translate(7.000000, 35.000000)" fill-rule="nonzero">
                <g id="path-3-link" fill="#000000">
                    <path d="M40.9880849,55 L2.52600988,44.6882468 C0,44 0,44 0,41.4381925 L0,0 L41,11.0286769 L41,55 L40.9880849,55 Z" id="path-3"></path>
                </g>
                <g id="path-3-link" fill="url(#linearGradient-2)">
                    <path d="M40.9880849,55 L2.52600988,44.6882468 C0,44 0,44 0,41.4381925 L0,0 L41,11.0286769 L41,55 L40.9880849,55 Z" id="path-3"></path>
                </g>
            </g>
            <g id="路径" transform="translate(48.000000, 35.000000)" fill-rule="nonzero">
                <g id="path-6-link" fill="#000000">
                    <path d="M0,55 L39.4369603,44.7443429 C42,44 42,44 42,41.4893386 L42,0 L0,10.9736728 L0,55 Z" id="path-6"></path>
                </g>
                <g id="path-6-link" fill="url(#linearGradient-3)">
                    <path d="M0,55 L39.4369603,44.7443429 C42,44 42,44 42,41.4893386 L42,0 L0,10.9736728 L0,55 Z" id="path-6"></path>
                </g>
            </g>
            <g id="编组" transform="translate(60.500000, 10.000000) rotate(18.000000) translate(-60.500000, -10.000000) translate(50.000000, 3.000000)" fill="#0067FF" fill-rule="nonzero">
                <polygon id="路径" points="21 0 0 4.81250216 3.82627555 8.40000921 18.5974489 1.22499511 5.25 9.80000691 5.25 14 7.38559838 11.8999919 9.52119676 14"></polygon>
            </g>
            <polygon id="路径-2" fill="#454545" fill-rule="nonzero" points="6 34 48 46 41 70 0 58"></polygon>
            <polygon id="路径-4" fill="#454545" fill-rule="nonzero" points="48 46 55 70 97 57 90 34"></polygon>
            <path d="M48.3200722,13 C33.6534055,13 25.3200722,16.6666667 23.3200722,24 C20.3200722,35 39.3200722,37 42.3200722,32 C45.3200722,27 39.3200722,25 35.3200722,27 C31.3200722,29 33.3200722,35 37.3200722,38 C39.9867388,40 44.5467148,41.6666667 51,43" id="路径-5" stroke="#0067FF" stroke-dasharray="3"></path>
        </g>
    </g>
</svg>