<?xml version="1.0" encoding="UTF-8"?>
<svg width="12px" height="12px" viewBox="0 0 12 12" version="1.1" xmlns="http://www.w3.org/2000/svg" xmlns:xlink="http://www.w3.org/1999/xlink">
    <!-- Generator: Sketch 63.1 (92452) - https://sketch.com -->
    <title>从GC Roots到对象的共同路径备份</title>
    <desc>Created with Sketch.</desc>
    <defs>
        <path d="M0.348473058,7.18657912 L0.43004196,7.18857505 L4.43004196,7.18857505 C4.54011707,7.18761744 4.64519851,7.23443991 4.71809276,7.31692551 C4.77276345,7.37878971 4.80529919,7.45615455 4.81203789,7.53700615 L4.81004196,7.61857505 L4.81004196,11.6185751 C4.81004196,11.7193573 4.77000636,11.8160118 4.69874254,11.8872756 C4.64529467,11.9407235 4.57756455,11.9766055 4.50452247,11.991206 L4.43004196,11.9985751 L0.38004196,11.9985751 C0.298715537,11.9886984 0.223291193,11.9535817 0.163821339,11.8991819 L0.11004196,11.8385751 C0.0573972377,11.7842788 0.0220598961,11.7162723 0.00751396978,11.6431223 L1.35729583e-05,11.5685751 L1.35729583e-05,7.56857505 C-0.000915655521,7.45849995 0.0459068188,7.35341851 0.128392418,7.28052426 C0.190256618,7.22585357 0.267621454,7.19331783 0.348473058,7.18657912 Z M10.780042,7.18857505 C10.8808242,7.18857505 10.9774787,7.22861065 11.0487425,7.29987448 C11.1021904,7.35332235 11.1380724,7.42105246 11.1526729,7.49409455 L11.160042,7.56857505 L11.160042,11.5685751 C11.160042,11.6693573 11.1200064,11.7660118 11.0487425,11.8372756 C10.9952947,11.8907235 10.9275646,11.9266055 10.8545225,11.941206 L10.780042,11.9485751 L6.78004196,11.9485751 C6.67878018,11.9504066 6.58119397,11.9106493 6.51004196,11.8385751 C6.45244801,11.787063 6.41347641,11.7188954 6.39779003,11.6445676 L6.39003809,11.5685751 L6.39003809,7.56857505 C6.39003809,7.46603601 6.43141184,7.3678346 6.50485334,7.29627621 C6.55993447,7.24260742 6.62952926,7.20734206 6.70412777,7.19420207 L6.78004196,7.18857505 L10.780042,7.18857505 Z M3.80991019,8.188 L0.999910191,8.188 L0.999910191,10.998 L3.80991019,10.998 L3.80991019,8.188 Z M10.1599102,8.188 L7.38991019,8.188 L7.38991019,10.948 L10.1599102,10.948 L10.1599102,8.188 Z M8.93053664,0.0553954359 L9.00004196,0.108575054 L11.890042,2.96857505 C12.0141277,3.09791147 12.0318543,3.29140322 11.9432216,3.43906974 L11.890042,3.50857505 L9.03004196,6.36857505 C8.95867515,6.44063717 8.86146272,6.48118022 8.76004196,6.48118022 C8.68397639,6.48118022 8.61027801,6.45837475 8.54807504,6.41657082 L8.49004196,6.36857505 L5.63004196,3.53857505 C5.55325003,3.46989225 5.5095645,3.37159981 5.51003428,3.26857505 C5.51309807,3.1920627 5.53801217,3.11859913 5.58107153,3.05653293 L5.63004196,2.99857505 L8.46004196,0.108575054 C8.58937838,-0.0155107221 8.78287013,-0.0332372616 8.93053664,0.0553954359 Z M4.43004196,0.838575054 C4.61367664,0.838575054 4.76688813,0.96883221 4.80232171,1.1419918 L4.81004196,1.21857505 L4.81004196,5.21857505 C4.81187354,5.31983684 4.7721162,5.41742305 4.70004196,5.48857505 C4.64852986,5.546169 4.58036233,5.5851406 4.50603451,5.60082698 L4.43004196,5.60857893 L0.38004196,5.60857893 C0.277502913,5.60857893 0.179301503,5.56720518 0.107743114,5.49376367 C0.0540743231,5.43868255 0.0188089683,5.36908775 0.00566897874,5.29448925 L4.19602205e-05,5.21857505 L4.19602205e-05,1.21857505 C4.19602205e-05,1.03494038 0.130299116,0.881728885 0.303458706,0.846295304 L0.38004196,0.838575054 L4.43004196,0.838575054 Z M8.73591019,1.255 L6.77191019,3.261 L8.75791019,5.226 L10.7429102,3.241 L8.73591019,1.255 Z M3.80991019,1.838 L0.999910191,1.838 L0.998910191,4.608 L3.80991019,4.608 L3.80991019,1.838 Z" id="path-1"></path>
    </defs>
    <g id="Profiling分析模块" stroke="none" stroke-width="1" fill="none" fill-rule="evenodd">
        <g id="画板" transform="translate(-311.000000, -108.000000)">
            <g id="从GC-Roots到对象的共同路径备份" transform="translate(311.000000, 108.000000)">
                <mask id="mask-2" fill="white">
                    <use xlink:href="#path-1"></use>
                </mask>
                <use id="形状结合" fill="#AAAAAA" fill-rule="nonzero" xlink:href="#path-1"></use>
            </g>
        </g>
    </g>
</svg>