<?xml version="1.0" encoding="UTF-8"?>
<svg width="16px" height="16px" viewBox="0 0 16 16" version="1.1" xmlns="http://www.w3.org/2000/svg" xmlns:xlink="http://www.w3.org/1999/xlink">
    <title>4组件/3.数据录入/复选框/无文本/未选中/1.默认</title>
    <desc>Created with Sketch.</desc>
    <g id="1230-TI2需求设计" stroke="none" stroke-width="1" fill="none" fill-rule="evenodd">
        <g id="Heap-Walker3" transform="translate(-1544.000000, -155.000000)">
            <g id="编组-14" transform="translate(1436.000000, 154.000000)">
                <g id="编组-3">
                    <g id="4.组件/3.数据录入/5.复选框/有文本/选中/1.默认" transform="translate(108.000000, 1.000000)">
                        <g id="4.组件/3.数据录入/5.复选框/无文本/选中/1.默认">
                            <rect id="矩形-copy-3" fill="#0067FF" fill-rule="evenodd" x="0" y="0" width="16" height="16" rx="2"></rect>
                            <path d="M12.1507589,4.64644661 C12.3460211,4.45118446 12.6626036,4.45118446 12.8578657,4.64644661 C13.0314321,4.82001296 13.0507172,5.08943736 12.9157212,5.2843055 L12.8578657,5.35355339 L7.25939499,10.9520241 C6.89103094,11.3203882 6.31140035,11.3487239 5.91064769,11.0371451 L5.81441193,10.9521689 L2.64659147,7.78694269 C2.45124935,7.59176054 2.45111967,7.27517808 2.64630181,7.07983597 C2.81979705,6.90619853 3.08921353,6.88680301 3.28413695,7.02171923 L3.35340853,7.07954631 L6.52137385,10.2449173 L6.53683103,10.2513199 L6.55228821,10.2449173 L12.1507589,4.64644661 Z" id="路径" fill="#FFFFFF" fill-rule="nonzero"></path>
                        </g>
                    </g>
                </g>
            </g>
        </g>
    </g>
</svg>