<?xml version="1.0" encoding="UTF-8"?>
<svg width="97px" height="96px" viewBox="0 0 97 96" version="1.1" xmlns="http://www.w3.org/2000/svg" xmlns:xlink="http://www.w3.org/1999/xlink">
    <title>编组 2备份</title>
    <defs>
        <linearGradient x1="50%" y1="-95.6039501%" x2="50%" y2="132.652733%" id="linearGradient-1">
            <stop stop-color="#FFFFFF" offset="0.0395903716%"></stop>
            <stop stop-color="#B3B3B3" offset="100%"></stop>
        </linearGradient>
        <linearGradient x1="50%" y1="25.6412527%" x2="50%" y2="148.601538%" id="linearGradient-2">
            <stop stop-color="#D8D8D8" offset="0%"></stop>
            <stop stop-color="#FFFFFF" offset="100%"></stop>
        </linearGradient>
        <path d="M47.9880849,90 L9.52600988,79.6882468 C7,79 7,79 7,76.4381925 L7,35 L48,46.0286769 L48,90 L47.9880849,90 Z" id="path-3"></path>
        <filter x="-17.1%" y="-9.1%" width="134.1%" height="125.5%" filterUnits="objectBoundingBox" id="filter-4">
            <feOffset dx="0" dy="2" in="SourceAlpha" result="shadowOffsetOuter1"></feOffset>
            <feGaussianBlur stdDeviation="2" in="shadowOffsetOuter1" result="shadowBlurOuter1"></feGaussianBlur>
            <feColorMatrix values="0 0 0 0 0   0 0 0 0 0   0 0 0 0 0  0 0 0 0.135462194 0" type="matrix" in="shadowBlurOuter1"></feColorMatrix>
        </filter>
        <linearGradient x1="50%" y1="25.6412527%" x2="50%" y2="148.601538%" id="linearGradient-5">
            <stop stop-color="#D8D8D8" offset="0%"></stop>
            <stop stop-color="#FFFFFF" offset="100%"></stop>
        </linearGradient>
        <path d="M48,90 L87.4369603,79.7443429 C90,79 90,79 90,76.4893386 L90,35 L48,45.9736728 L48,90 Z" id="path-6"></path>
        <filter x="-16.7%" y="-9.1%" width="133.3%" height="125.5%" filterUnits="objectBoundingBox" id="filter-7">
            <feOffset dx="0" dy="2" in="SourceAlpha" result="shadowOffsetOuter1"></feOffset>
            <feGaussianBlur stdDeviation="2" in="shadowOffsetOuter1" result="shadowBlurOuter1"></feGaussianBlur>
            <feColorMatrix values="0 0 0 0 0   0 0 0 0 0   0 0 0 0 0  0 0 0 0.13871285 0" type="matrix" in="shadowBlurOuter1"></feColorMatrix>
        </filter>
    </defs>
    <g id="页面-1" stroke="none" stroke-width="1" fill="none" fill-rule="evenodd">
        <g id="编组-2备份">
            <polygon id="路径" fill="url(#linearGradient-1)" fill-rule="nonzero" points="47.4639235 23 6 34.2 6 59 47.4639235 47.8121212 89 59 90 34"></polygon>
            <g id="路径" fill-rule="nonzero">
                <use fill="black" fill-opacity="1" filter="url(#filter-4)" xlink:href="#path-3"></use>
                <use fill="url(#linearGradient-2)" xlink:href="#path-3"></use>
            </g>
            <g id="路径" fill-rule="nonzero">
                <use fill="black" fill-opacity="1" filter="url(#filter-7)" xlink:href="#path-6"></use>
                <use fill="url(#linearGradient-5)" xlink:href="#path-6"></use>
            </g>
            <g id="编组" transform="translate(60.500000, 10.000000) rotate(18.000000) translate(-60.500000, -10.000000) translate(50.000000, 3.000000)" fill="#0067FF" fill-rule="nonzero">
                <polygon id="路径" points="21 0 0 4.81250216 3.82627555 8.40000921 18.5974489 1.22499511 5.25 9.80000691 5.25 14 7.38559838 11.8999919 9.52119676 14"></polygon>
            </g>
            <polygon id="路径-2" fill="#E7E7E7" points="6 34 48 46 41 70 0 58"></polygon>
            <path d="" id="路径-3" stroke="#979797"></path>
            <polygon id="路径-4" fill="#E7E7E7" points="48 46 55 70 97 57 90 34"></polygon>
            <path d="M48.3200722,13 C33.6534055,13 25.3200722,16.6666667 23.3200722,24 C20.3200722,35 39.3200722,37 42.3200722,32 C45.3200722,27 39.3200722,25 35.3200722,27 C31.3200722,29 33.3200722,35 37.3200722,38 C39.9867388,40 44.5467148,41.6666667 51,43" id="路径-5" stroke="#0067FF" stroke-dasharray="3"></path>
        </g>
    </g>
</svg>