<?xml version="1.0" encoding="UTF-8"?>
<svg width="16px" height="16px" viewBox="0 0 16 16" version="1.1" xmlns="http://www.w3.org/2000/svg" xmlns:xlink="http://www.w3.org/1999/xlink">
    <title>icon/16/固定</title>
    <defs>
        <path d="M8.04368164,0 C8.31982401,-5.07265313e-17 8.54368164,0.223857625 8.54368164,0.5 L8.54333489,2.02426919 C11.4376043,2.2840563 13.7397036,4.59908005 13.9793885,7.49909633 L15.5,7.5 C15.7761424,7.5 16,7.72385763 16,8 C16,8.27614237 15.7761424,8.5 15.5,8.5 L13.9793885,8.50090367 C13.7397036,11.4009199 11.4376043,13.7159437 8.54333489,13.9757308 L8.54368164,15.5 C8.54368164,15.7761424 8.31982401,16 8.04368164,16 C7.76753926,16 7.54368164,15.7761424 7.54368164,15.5 L7.54318405,13.9828699 C4.6083853,13.7619286 2.26267995,11.4297587 2.02061151,8.50090367 L0.511747336,8.5 C0.235604961,8.5 0.0117473364,8.27614237 0.0117473364,8 C0.0117473364,7.72385763 0.235604961,7.5 0.511747336,7.5 L2.02052886,7.50009733 C2.26214551,4.57077273 4.60805097,2.2380966 7.54318405,2.01713014 L7.54368164,0.5 C7.54368164,0.223857625 7.76753926,5.07265313e-17 8.04368164,0 Z M3.02465783,7.50030016 L3.51174734,7.5 C3.78788971,7.5 4.01174734,7.72385763 4.01174734,8 C4.01174734,8.27614237 3.78788971,8.5 3.51174734,8.5 L3.02475737,8.50070198 C3.26103221,10.877044 5.16109367,12.7637868 7.54344686,12.9794355 L7.54368164,12.5 C7.54368164,12.2238576 7.76753926,12 8.04368164,12 C8.31982401,12 8.54368164,12.2238576 8.54368164,12.5 L8.54373888,12.9707761 C10.8851307,12.7175661 12.7418573,10.8479828 12.9752426,8.50070198 L12.5,8.5 C12.2238576,8.5 12,8.27614237 12,8 C12,7.72385763 12.2238576,7.5 12.5,7.5 L12.9752426,7.49929802 C12.7418573,5.15201721 10.8851307,3.28243388 8.54373888,3.0292239 L8.54368164,3.5 C8.54368164,3.77614237 8.31982401,4 8.04368164,4 C7.76753926,4 7.54368164,3.77614237 7.54368164,3.5 L7.54344686,3.02056452 C5.16075878,3.23624348 3.26049805,5.12348642 3.02465783,7.50030016 Z M8,6 C9.1045695,6 10,6.8954305 10,8 C10,9.1045695 9.1045695,10 8,10 C6.8954305,10 6,9.1045695 6,8 C6,6.8954305 6.8954305,6 8,6 Z" id="path-1"></path>
    </defs>
    <g id="icon/16/固定" stroke="none" stroke-width="1" fill="none" fill-rule="evenodd">
        <g id="3.颜色/9.辅助文字">
            <mask id="mask-2" fill="white">
                <use xlink:href="#path-1"></use>
            </mask>
            <use id="蒙版" fill="#979797" fill-rule="nonzero" xlink:href="#path-1"></use>
            <g id="编组" mask="url(#mask-2)" fill="#979797">
                <g id="3.颜色/9.辅助文字">
                    <rect id="矩形备份-6" x="0" y="0" width="16" height="16"></rect>
                </g>
            </g>
        </g>
    </g>
</svg>