<?xml version="1.0" encoding="UTF-8"?>
<svg width="16px" height="16px" viewBox="0 0 16 16" version="1.1" xmlns="http://www.w3.org/2000/svg" xmlns:xlink="http://www.w3.org/1999/xlink">
    <title>Web_SFW/icon/16/OOM/选中</title>
    <g id="Web_SFW/icon/16/OOM/选中" stroke="none" stroke-width="1" fill="none" fill-rule="evenodd">
        <g id="编组-2" fill="#2072EA">
            <path d="M8,0 C12.5,0 16,3.581722 16,8 C16,9.01114207 15.0602545,9.77375193 14.0009636,10.0221331 L14,14.5 C14,15.2796961 13.4051119,15.9204487 12.64446,15.9931334 L12.5,16 L3.5,16 C2.72030388,16 2.07955132,15.4051119 2.00686658,14.64446 L2,14.5 L2.00031231,7.58366258 C1.8389224,7.76637394 1.6893871,7.93687097 1.5,8 C0.5,8.33333333 0,8.16666667 0,7.5 C0.333333333,5.83333333 0.833333333,4.5 1.5,3.5 C3.14630334,1.03054499 5.96770554,0 8,0 Z M3,7 L3,14.5 C3,14.7454599 3.17687516,14.9496084 3.41012437,14.9919443 L3.5,15 L12.5,15 C12.7454599,15 12.9496084,14.8231248 12.9919443,14.5898756 L13,14.5 L13.0000623,10.0964326 C12.828594,10.0804689 12.6607298,10.0487059 12.5,10 C11.4399041,9.67875956 10.5,8 10,8 C8.88170634,8 8,9.5 5.5,9.5 C3.5,9.5 3.61571558,7 3,7 Z M5.19105224,10.4 C5.79105224,10.4 6.39105224,11.9442296 6.39105224,12.5333333 C6.39105224,12.7453692 6.32145077,12.9429551 6.20144835,13.1090238 C5.98804556,13.4043472 5.61525355,13.6 5.19105224,13.6 C4.52831054,13.6 3.99105224,13.1224371 3.99105224,12.5333333 C3.99105224,11.9442296 4.59105224,10.4 5.19105224,10.4 Z" id="形状结合"></path>
        </g>
    </g>
</svg>