<?xml version="1.0" encoding="UTF-8"?>
<svg width="52px" height="52px" viewBox="0 0 52 52" version="1.1" xmlns="http://www.w3.org/2000/svg" xmlns:xlink="http://www.w3.org/1999/xlink">
    <title>结果建议-已采纳-Normal</title>
    <g id="系统性能" stroke="none" stroke-width="1" fill="none" fill-rule="evenodd">
        <g id="导图图标样式" transform="translate(-83.000000, -262.000000)">
            <g id="编组" transform="translate(85.000000, 262.000000)">
                <circle id="椭圆形备份-25" stroke="#B8BECC" fill="#FFFFFF" cx="24" cy="24" r="23.5"></circle>
                <circle id="椭圆形" stroke="#91C94F" fill="#ABE666" cx="24" cy="48" r="3.5"></circle>
                <g transform="translate(12.000000, 12.000000)">
                    <rect id="矩形" opacity="0.251743862" x="1" y="1" width="22" height="22"></rect>
                    <rect id="矩形" fill="#616161" x="9" y="19" width="6" height="1" rx="0.5"></rect>
                    <rect id="矩形备份" fill="#616161" x="9" y="21" width="6" height="1" rx="0.5"></rect>
                    <path d="M12,1.5 C13.7949254,1.5 15.4199254,2.22753728 16.5961941,3.40380592 C17.7724627,4.58007456 18.5,6.20507456 18.5,8 C18.5,9.44247639 18.0300242,10.7751494 17.2350738,11.8534554 C16.4862639,12.8691745 15.4488068,13.6589226 14.2439154,14.1021336 L14.2439154,14.1021336 L13.9776494,17.2877077 L10.253164,17.5289564 L9.7746602,14.1089342 C8.5618561,13.6670278 7.51758144,12.8743905 6.76492617,11.8534554 C5.96997584,10.7751494 5.5,9.44247639 5.5,8 C5.5,6.20507456 6.22753728,4.58007456 7.40380592,3.40380592 C8.58007456,2.22753728 10.2050746,1.5 12,1.5 Z" id="形状结合" stroke="#616161"></path>
                </g>
            </g>
        </g>
    </g>
</svg>