<?xml version="1.0" encoding="UTF-8"?>
<svg width="52px" height="52px" viewBox="0 0 52 52" version="1.1" xmlns="http://www.w3.org/2000/svg" xmlns:xlink="http://www.w3.org/1999/xlink">
    <title>结果建议未采纳-已选中</title>
    <g id="调优助手" stroke="none" stroke-width="1" fill="none" fill-rule="evenodd">
        <g id="导图图标样式" transform="translate(-351.000000, -241.000000)">
            <g id="结果建议-选中备份" transform="translate(353.000000, 241.000000)">
                <circle id="椭圆形" stroke="#0067FF" stroke-width="2" fill="#515253" cx="24" cy="24" r="23"></circle>
                <circle id="椭圆形" stroke="#AAAAAA" fill="#E8E8E8" cx="24" cy="48" r="3.5"></circle>
                <g id="形状结合" transform="translate(12.000000, 12.000000)" fill="#E8E8E8">
                    <path d="M14.5,21 C14.7761424,21 15,21.2238576 15,21.5 C15,21.7761424 14.7761424,22 14.5,22 L9.5,22 C9.22385763,22 9,21.7761424 9,21.5 C9,21.2238576 9.22385763,21 9.5,21 L14.5,21 Z M14.5,19 C14.7761424,19 15,19.2238576 15,19.5 C15,19.7761424 14.7761424,20 14.5,20 L9.5,20 C9.22385763,20 9,19.7761424 9,19.5 C9,19.2238576 9.22385763,19 9.5,19 L14.5,19 Z M12,1 C15.8659932,1 19,4.13400675 19,8 C19,10.8267918 17.3095459,13.3249934 14.7959956,14.4193249 L14.7959956,14.4193249 L14.716,14.452 L14.5118283,16.8996546 C14.4634544,17.4801418 14.007322,17.935576 13.4392977,17.9937206 L13.4392977,17.9937206 L13.3159734,18 L10.6840266,18 C10.0599202,18 9.54000088,17.5216051 9.48819245,16.8999036 L9.48819245,16.8999036 L9.283,14.452 L9.20400437,14.4193249 C6.76900257,13.3591913 5.10645719,10.9815585 5.00492603,8.26401625 L5.00492603,8.26401625 L5,8 C5,4.13400675 8.13400675,1 12,1 Z"></path>
                </g>
            </g>
        </g>
    </g>
</svg>