<?xml version="1.0" encoding="UTF-8"?>
<svg width="52px" height="52px" viewBox="0 0 52 52" version="1.1" xmlns="http://www.w3.org/2000/svg" xmlns:xlink="http://www.w3.org/1999/xlink">
    <title>结果建议-已采纳-Hover</title>
    <g id="系统性能" stroke="none" stroke-width="1" fill="none" fill-rule="evenodd">
        <g id="导图图标样式" transform="translate(-167.000000, -262.000000)">
            <g id="调优助手/复用模块/图标树图/条件备份" transform="translate(169.000000, 262.000000)">
                <circle id="椭圆形备份-25" stroke="#0067FF" fill="#FFFFFF" cx="24" cy="24" r="23.5"></circle>
                <circle id="椭圆形" stroke="#91C94F" fill="#ABE666" cx="24" cy="48" r="3.5"></circle>
                <g id="编组" transform="translate(12.000000, 12.000000)">
                    <rect id="矩形" opacity="0.251743862" x="1" y="1" width="22" height="22"></rect>
                    <path d="M14.5,21 C14.7761424,21 15,21.2238576 15,21.5 C15,21.7761424 14.7761424,22 14.5,22 L9.5,22 C9.22385763,22 9,21.7761424 9,21.5 C9,21.2238576 9.22385763,21 9.5,21 L14.5,21 Z M14.5,19 C14.7761424,19 15,19.2238576 15,19.5 C15,19.7761424 14.7761424,20 14.5,20 L9.5,20 C9.22385763,20 9,19.7761424 9,19.5 C9,19.2238576 9.22385763,19 9.5,19 L14.5,19 Z M12,1 C15.8659932,1 19,4.13400675 19,8 C19,10.8267918 17.3095459,13.3249934 14.7959956,14.4193249 L14.7959956,14.4193249 L14.716,14.452 L14.5118283,16.8996546 C14.4634544,17.4801418 14.007322,17.935576 13.4392977,17.9937206 L13.4392977,17.9937206 L13.3159734,18 L10.6840266,18 C10.0599202,18 9.54000088,17.5216051 9.48819245,16.8999036 L9.48819245,16.8999036 L9.283,14.452 L9.20400437,14.4193249 C6.76900257,13.3591913 5.10645719,10.9815585 5.00492603,8.26401625 L5.00492603,8.26401625 L5,8 C5,4.13400675 8.13400675,1 12,1 Z M12,2 C8.6862915,2 6,4.6862915 6,8 C6,10.6965211 7.77882073,12.9775764 10.2270359,13.7337395 L10.2270359,13.7337395 L10.4847174,16.8166091 C10.4933556,16.9202675 10.5800088,17 10.6840266,17 L10.6840266,17 L13.3159734,17 C13.4199912,17 13.5066444,16.9202675 13.5152826,16.8166091 L13.5152826,16.8166091 L13.7729641,13.7337395 C16.2211793,12.9775764 18,10.6965211 18,8 C18,4.6862915 15.3137085,2 12,2 Z" id="形状结合" fill="#4C94FB"></path>
                </g>
            </g>
        </g>
    </g>
</svg>