<?xml version="1.0" encoding="UTF-8"?>
<svg width="14px" height="14px" viewBox="0 0 14 14" version="1.1" xmlns="http://www.w3.org/2000/svg" xmlns:xlink="http://www.w3.org/1999/xlink">
    <title>4.组件/2.通用/icon/清除</title>
    <defs>
        <path d="M8,1 C11.8659932,1 15,4.13400675 15,8 C15,11.8659932 11.8659932,15 8,15 C4.13400675,15 1,11.8659932 1,8 C1,4.13400675 4.13400675,1 8,1 Z" id="path-1"></path>
    </defs>
    <g id="控件" stroke="none" stroke-width="1" fill="none" fill-rule="evenodd">
        <g id="4.组件/5.反馈/2.Alert告警提示/卡片级提示/2.失败" transform="translate(-17.000000, -9.000000)">
            <g id="4.组件/2.通用/icon/告警/失败" transform="translate(16.000000, 8.000000)">
                <mask id="mask-2" fill="white">
                    <use xlink:href="#path-1"></use>
                </mask>
                <use id="蒙版" fill="#3AD53E" fill-rule="nonzero" xlink:href="#path-1"></use>
                <g id="3.颜色/3.紧急告警色" mask="url(#mask-2)" fill="#ED4B4B" fill-rule="evenodd">
                    <rect id="矩形" x="0" y="0" width="16" height="16"></rect>
                </g>
                <path d="M8.203125,6.625 L8.4765625,12.5 L7,12.5 L7.21875,6.625 L8.203125,6.625 Z M8.421875,4 L8.421875,5.4765625 L7.0546875,5.4765625 L7.0546875,4 L8.421875,4 Z" id="形状结合" fill="#FFFFFF" fill-rule="nonzero" transform="translate(7.738281, 8.250000) scale(1, -1) translate(-7.738281, -8.250000) "></path>
            </g>
        </g>
    </g>
</svg>