<?xml version="1.0" encoding="UTF-8"?>
<svg width="10px" height="10px" viewBox="0 0 10 10" version="1.1" xmlns="http://www.w3.org/2000/svg" xmlns:xlink="http://www.w3.org/1999/xlink">
    <!-- Generator: Sketch 57.1 (83088) - https://sketch.com -->
    <title>形状结合</title>
    <desc>Created with Sketch.</desc>
    <g id="页面-1" stroke="none" stroke-width="1" fill="none" fill-rule="evenodd">
        <g id="home（Add-Guardian）弹窗备份" transform="translate(-1279.000000, -467.000000)" fill="#6C7280" fill-rule="nonzero">
            <g id="编组-14" transform="translate(611.000000, 447.000000)">
                <path d="M668.307518,20.2051074 C668.597589,19.9210712 669.058774,19.9217835 669.337632,20.2067276 L669.337632,20.2067276 L673,23.949 L676.662368,20.2067276 C676.915875,19.9476875 677.320066,19.9235497 677.609395,20.1347024 L677.692482,20.2051074 C677.982495,20.4892021 677.991561,20.9504755 677.712703,21.2354196 L677.712703,21.2354196 L674.028,25 L677.712703,28.7645804 C677.966211,29.0236205 677.981764,29.4283873 677.764606,29.713285 L677.692482,29.7948926 C677.402411,30.0789288 676.941226,30.0782165 676.662368,29.7932724 L676.662368,29.7932724 L673,26.05 L669.337632,29.7932724 C669.084125,30.0523125 668.679934,30.0764503 668.390605,29.8652976 L668.307518,29.7948926 C668.017505,29.5107979 668.008439,29.0495245 668.287297,28.7645804 L668.287297,28.7645804 L671.971,25 L668.287297,21.2354196 C668.033789,20.9763795 668.018236,20.5716127 668.235394,20.286715 Z" id="形状结合"></path>
            </g>
        </g>
    </g>
</svg>