<?xml version="1.0" encoding="UTF-8"?>
<svg width="12px" height="12px" viewBox="0 0 12 12" version="1.1" xmlns="http://www.w3.org/2000/svg" xmlns:xlink="http://www.w3.org/1999/xlink">
    <!-- Generator: Sketch 63.1 (92452) - https://sketch.com -->
    <title>Group 7复制</title>
    <desc>Created with Sketch.</desc>
    <g id="页面-1" stroke="none" stroke-width="1" fill="none" fill-rule="evenodd">
        <g id="home（Profiling-Analysis）选中实时分析备份-10" transform="translate(-1860.000000, -1005.000000)" fill="#9EA4B3">
            <g id="编组-11" transform="translate(1432.000000, 939.000000)">
                <g id="Normal备份-4" transform="translate(17.000000, 48.000000)">
                    <g id="分组-5" transform="translate(16.000000, 16.000000)">
                        <g id="Group-7复制" transform="translate(395.000000, 2.000000)">
                            <g id="分组-4">
                                <path d="M6,0 C9.3137085,-6.08718376e-16 12,2.6862915 12,6 C12,9.3137085 9.3137085,12 6,12 C2.6862915,12 4.05812251e-16,9.3137085 0,6 C-4.05812251e-16,2.6862915 2.6862915,6.08718376e-16 6,0 Z M8.86785321,3.13214679 C8.70946605,2.97375963 8.45266973,2.97375963 8.29428257,3.13214679 L8.29428257,3.13214679 L6,5.427 L3.70571743,3.13214679 C3.54733027,2.97375963 3.29053395,2.97375963 3.13214679,3.13214679 C2.97375963,3.29053395 2.97375963,3.54733027 3.13214679,3.70571743 L3.13214679,3.70571743 L5.427,6 L3.13214679,8.29428257 C2.97375963,8.45266973 2.97375963,8.70946605 3.13214679,8.86785321 C3.29053395,9.02624037 3.54733027,9.02624037 3.70571743,8.86785321 L3.70571743,8.86785321 L6,6.573 L8.29428257,8.86785321 C8.45266973,9.02624037 8.70946605,9.02624037 8.86785321,8.86785321 C9.02624037,8.70946605 9.02624037,8.45266973 8.86785321,8.29428257 L8.86785321,8.29428257 L6.573,6 L8.86785321,3.70571743 C9.02624037,3.54733027 9.02624037,3.29053395 8.86785321,3.13214679 Z" id="形状结合"></path>
                            </g>
                        </g>
                    </g>
                </g>
            </g>
        </g>
    </g>
</svg>