<?xml version="1.0" encoding="UTF-8"?>
<svg width="32px" height="32px" viewBox="0 0 32 32" version="1.1" xmlns="http://www.w3.org/2000/svg" xmlns:xlink="http://www.w3.org/1999/xlink">
    <!-- Generator: Sketch 63.1 (92452) - https://sketch.com -->
    <title>编组 13</title>
    <desc>Created with Sketch.</desc>
    <g id="页面-1" stroke="none" stroke-width="1" fill="none" fill-rule="evenodd">
        <g id="监控数据库连接池2备份-2" transform="translate(-1824.000000, -244.000000)">
            <g id="编组-21" transform="translate(476.000000, 243.000000)">
                <g id="编组-13" transform="translate(1348.000000, 1.000000)">
                    <rect id="bgc" stroke="#B8BECC" x="0.5" y="0.5" width="31" height="31" rx="1"></rect>
                    <g id="IC/设置/Hover" transform="translate(8.000000, 8.000000)" stroke="#282B33">
                        <path d="M9.45540265,0.906128812 C9.03770439,1.2484405 8.51935872,1.42107145 8.00020596,1.42107145 C7.4268881,1.42107145 6.85442499,1.21055541 6.1602601,0.547149286 C5.39954424,0.734140563 4.68350592,1.03491853 4.02330741,1.78414936 C4.0097781,2.38858201 3.75386457,2.94244605 3.34821553,3.34796265 C2.94267746,3.75336832 2.38878431,4.00921032 1.42949125,4.03087052 C1.02869742,4.68488884 0.683429187,5.4353999 0.792679887,6.41660163 C1.21041436,6.85372292 1.42128581,7.4265696 1.42128581,8.00037373 C1.42128581,8.57381421 1.21072076,9.14635565 0.538511575,9.84901267 C0.701191623,10.6192787 1.02888763,11.3210816 1.78460773,11.9772743 C2.38859861,11.9907937 2.94263932,12.2465934 3.34829523,12.6521169 C3.75382642,13.0575157 4.00978213,13.6112323 4.03110221,14.569865 C4.68350591,14.9650815 5.39954424,15.2658594 6.41740168,15.2071015 C6.853785,14.7897231 7.42641414,14.5789285 8.00015123,14.5789285 C8.57354479,14.5789285 9.14616295,14.7894604 9.83993563,15.4528026 C10.6006757,15.265784 11.3167329,14.9649708 11.9772743,14.2153923 C11.990794,13.6113881 12.2465882,13.0575193 12.6520935,12.652014 C13.057481,12.2466265 13.6112025,11.99079 14.5701415,11.9691454 C14.9650187,11.3167244 15.2657897,10.600671 15.2073201,9.58339837 C14.7896553,9.14634993 14.5789285,8.57363557 14.5789285,7.99992015 C14.5789285,7.42644047 14.7894656,6.85383155 15.452803,6.16006397 C15.2657897,5.39932901 14.9650187,4.68327562 14.2154028,4.02272592 C13.6113881,4.009206 13.0575193,3.75341178 12.652014,3.34790647 C12.2466265,2.94251897 11.99079,2.38879753 11.9691662,1.431092 C11.30823,1.0370403 10.550269,0.770783342 9.45540265,0.906128812 Z" id="Stroke-1"></path>
                        <path d="M8,5.5 C7.30958333,5.5 6.68457656,5.77978023 6.23217839,6.23217839 C5.77978023,6.68457656 5.5,7.30958333 5.5,8 C5.5,8.69041667 5.77978023,9.31542344 6.23217839,9.76782161 C6.68457656,10.2202198 7.30958333,10.5 8,10.5 C8.69041667,10.5 9.31542344,10.2202198 9.76782161,9.76782161 C10.2202198,9.31542344 10.5,8.69041667 10.5,8 C10.5,7.30958333 10.2202198,6.68457656 9.76782161,6.23217839 C9.31542344,5.77978023 8.69041667,5.5 8,5.5 Z" id="Stroke-3"></path>
                    </g>
                </g>
            </g>
        </g>
    </g>
</svg>