<?xml version="1.0" encoding="UTF-8"?>
<svg width="36px" height="31px" viewBox="0 0 36 31" version="1.1" xmlns="http://www.w3.org/2000/svg" xmlns:xlink="http://www.w3.org/1999/xlink">
    <!-- Generator: Sketch 63.1 (92452) - https://sketch.com -->
    <title>容器-创建中</title>
    <desc>Created with Sketch.</desc>
    <g id="页面-1" stroke="none" stroke-width="1" fill="none" fill-rule="evenodd">
        <g id="分析容器环境中应用2备份-14" transform="translate(-103.000000, -733.000000)">
            <g id="编组-7" transform="translate(80.000000, 503.000000)">
                <g id="list/Java性能优化备份-3" transform="translate(0.000000, 210.000000)">
                    <g id="容器-创建中" transform="translate(23.000000, 20.000000)">
                        <g id="编组-12" transform="translate(0.000009, 0.000007)" fill="#979797">
                            <path d="M20.8643143,21.4755271 C19.2154079,22.4433596 17.374797,23.6842956 15.9150236,24.3741478 C15.330866,24.6502661 15.1535261,24.2069163 15.1999005,23.6059114 C15.231733,23.1941281 15.1999005,22.5048966 15.2014079,21.9538128 C15.2046,20.9061774 15.2082355,19.7187981 15.1866887,18.5660887 C15.1719695,17.791734 15.4605015,17.2819705 16.1222453,16.9133695 C16.8981961,16.4824335 17.6627084,16.037133 18.3081369,15.6582463 L20.4871123,14.3751035 C20.5748956,14.3237636 20.6623241,14.2745518 20.7726296,14.2129261 L21.4614177,13.8249951 L21.4592897,18.4282956 C21.4591123,19.0544828 21.4590236,19.7019508 21.4633192,20.337803 C21.4665606,20.8580296 21.2650138,21.2409064 20.8643143,21.4755271 L20.8643143,21.4755271 Z M14.764265,16.5470739 C14.5534966,16.5470739 14.348669,16.4903252 14.1554571,16.378335 L8.49077734,13.0755567 L10.5384325,11.878867 C11.7423931,11.1746503 12.9344719,10.4777931 14.1276148,9.78288674 C14.5379793,9.54409856 14.9815951,9.53966507 15.376797,9.77011827 C16.7269744,10.5550247 18.0758217,11.3421478 19.4400089,12.1384927 L21.0432502,13.0737833 L15.4044621,16.3658326 C15.1987478,16.4859803 14.9832798,16.5470739 14.764265,16.5470739 L14.764265,16.5470739 Z M14.3644522,24.8083646 L10.1619399,22.3553104 C9.72187094,22.0947094 9.26690542,21.8253301 8.81442266,21.5702266 C8.32115172,21.2916257 8.07065911,20.8859606 8.07012709,20.3644927 C8.06799901,19.1537931 8.06814089,17.943005 8.06814089,16.7320395 C8.06814089,16.7320395 8.06870837,15.0739114 8.06870837,14.498 C8.06870837,14.009872 8.5032798,14.0985419 8.91825517,14.2991133 C9.68259015,14.6686897 10.2155852,15.0614089 10.2155852,15.0614089 C11.2617133,15.6753596 12.4474966,16.3711528 13.6019793,17.0339606 C14.1166197,17.3299409 14.3665803,17.7497045 14.3659608,18.3174582 L14.3644522,24.8083646 Z M21.8768365,12.579537 C19.3313882,11.1104532 17.2078315,9.86933994 15.1936049,8.67371433 C15.032669,8.57821679 14.8979793,8.53370448 14.7696739,8.53370448 C14.6389744,8.53370448 14.4993192,8.5802562 14.3303143,8.6802759 C12.1930138,9.94790152 9.94390049,11.2617242 7.64566404,12.5849459 C7.33762463,12.7620197 7.2235064,12.9601971 7.22438798,13.3160296 C7.2314867,15.8279606 7.23166404,18.3908769 7.22492512,21.1511725 C7.22403842,21.4964532 7.33053103,21.6866503 7.617733,21.8527291 C9.89770345,23.1715173 12.1721764,24.5014779 14.3780187,25.8056355 C14.6627379,25.971005 14.8774966,25.9690542 15.1694867,25.7974779 C17.0030039,24.7185419 19.4241369,23.2968966 21.891467,21.8694877 C22.2035852,21.688867 22.3231123,21.4718917 22.3178808,21.0954877 C22.3058217,20.2246601 22.3077724,19.339202 22.3096345,18.4830936 L22.3119399,17.2196355 L22.3096345,15.9571528 C22.3077724,15.100867 22.3058217,14.2155862 22.3178808,13.3440493 C22.3231123,12.9808572 22.1994177,12.7665419 21.8768365,12.579537 L21.8768365,12.579537 Z" id="Fill-1"></path>
                            <path d="M15.5511202,23.7222875 L15.5514202,23.7251875 L15.5519202,23.7222875 C15.5516202,23.7221875 15.5514202,23.7222875 15.5511202,23.7222875" id="Fill-3"></path>
                            <path d="M25.4108571,29.0664197 L2.57320197,29.0664197 C1.46367488,29.0664197 0.982108374,28.6764493 0.982108374,27.5757892 L0.982108374,6.95213403 C0.982108374,5.85218329 1.75362562,5.45494191 2.56238424,5.45494191 L26.7728276,5.45494191 C28.1711527,5.45494191 28.5344335,6.09363157 28.5344335,7.25494191 L28.5335468,21.0884296 C28.926266,20.8487547 29.0784236,20.6491587 29.5190246,20.495405 L29.5184926,17.7359074 L29.5204433,6.34589758 C29.5204433,5.85227196 29.4976552,5.41450842 29.2146207,5.04927689 C28.8761675,4.61240004 28.4247488,4.43426211 27.6557143,4.43426211 L27.6517241,4.43426211 C22.57333,4.43772024 17.4944039,4.43772024 12.4145025,4.43674487 L7.02602956,4.43479413 C6.68110345,4.43231137 6.33662069,4.43027196 5.99373399,4.44117837 C5.85416749,4.44676457 5.67496552,4.43373009 5.54586207,4.30294191 C5.41516256,4.17055768 5.40673892,3.99091236 5.41126108,3.86757246 C5.42163547,3.61477443 5.41959606,3.3619764 5.41817734,3.10926704 C5.41666995,2.88537541 5.41516256,2.39600595 5.42110345,2.17255768 C5.43990148,1.49095177 5.84423645,1.06303058 6.52965517,0.998833539 C6.63659113,0.988902505 31.3818916,0.992892652 31.3818916,0.992892652 C32.5924138,0.992892652 32.9427488,1.34766113 32.9427488,2.57361186 L32.9436355,20.2107744 C33.3840591,20.2790503 33.543399,20.3905971 33.9507488,20.5423114 L33.9515468,1.83055768 C33.9515468,1.13742467 33.8323744,0.264823687 32.8436158,0.0438581697 C32.6526207,0.00111925342 32.4477044,0.00209462287 32.2191133,0.00209462287 L29.9381675,0.00156260317 C23.5987094,-0.000920155452 17.2543744,-0.00189552491 10.9105714,0.0100749184 L6.12806897,0.00111925342 C5.022,0.00706014011 4.42613793,0.596094623 4.4073399,1.70517837 C4.3955468,2.4097498 4.38659113,3.09889265 4.41283744,3.78794684 C4.41877833,3.94764142 4.4073399,4.14963157 4.26440394,4.29398625 C4.12279803,4.43674487 3.92533005,4.44969068 3.75065025,4.4437498 C3.48446305,4.43373009 3.21765517,4.43080398 2.95146798,4.43080398 C2.75745813,4.43080398 2.56344828,4.43231137 2.36952709,4.43373009 L1.62070936,4.43674487 C0.522975369,4.43674487 6.75015599e-13,4.96548379 6.75015599e-13,6.06942467 L0.000975369459,28.3765675 C0.00195073892,29.4422917 0.592403941,30.0542917 1.62070936,30.055267 C9.7371133,30.0608532 17.8541379,30.0599665 25.9717833,30.055267 C25.7441675,29.6602424 25.5541478,29.5074641 25.4108571,29.0664197" id="Fill-5"></path>
                        </g>
                        <path d="M31.5000439,22 C29.0186062,22 27,24.018538 27,26.5 C27,28.981462 29.0186062,31 31.5000439,31 C33.9814817,31 36,28.981462 36,26.5 C36,24.018538 33.9814817,22 31.5000439,22" id="Fill-7" fill="#95989D"></path>
                    </g>
                </g>
            </g>
        </g>
    </g>
</svg>