<?xml version="1.0" encoding="UTF-8"?>
<svg width="28px" height="28px" viewBox="0 0 28 28" version="1.1" xmlns="http://www.w3.org/2000/svg" xmlns:xlink="http://www.w3.org/1999/xlink">
    <!-- Generator: Sketch 63.1 (92452) - https://sketch.com -->
    <title>数据范围限定备份</title>
    <desc>Created with Sketch.</desc>
    <defs>
        <path d="M18.5,6 L18.5003138,8.03548933 L18.4257259,8.02563055 C20.1579336,8.23568057 21.5,9.71111208 21.5,11.5 C21.5,13.2888879 20.1579336,14.7643194 18.4257259,14.9743695 L18.5003138,14.9645107 L18.5003138,14.9645107 L18.5,22 L17.5,22 L17.4990501,14.9644196 L17.5793068,14.974976 C15.8446665,14.7671763 14.5,13.29062 14.5,11.5 C14.5,9.70938001 15.8446665,8.23282372 17.5793068,8.02502397 L17.4990501,8.03558044 L17.4990501,8.03558044 L17.5,6 L18.5,6 Z M10.5,6 L10.5003138,13.0354893 L10.4257259,13.0256305 C12.1579336,13.2356806 13.5,14.7111121 13.5,16.5 C13.5,18.2888879 12.1579336,19.7643194 10.4257259,19.9743695 L10.5003138,19.9645107 L10.5003138,19.9645107 L10.5,22 L9.5,22 L9.49905009,19.9644196 L9.57930677,19.974976 C7.84466654,19.7671763 6.5,18.29062 6.5,16.5 C6.5,14.70938 7.84466654,13.2328237 9.57930677,13.025024 L9.49905009,13.0355804 L9.49905009,13.0355804 L9.5,6 L10.5,6 Z M10,14 C8.61928813,14 7.5,15.1192881 7.5,16.5 C7.5,17.8807119 8.61928813,19 10,19 C11.3807119,19 12.5,17.8807119 12.5,16.5 C12.5,15.1192881 11.3807119,14 10,14 Z M18,9 C16.6192881,9 15.5,10.1192881 15.5,11.5 C15.5,12.8807119 16.6192881,14 18,14 C19.3807119,14 20.5,12.8807119 20.5,11.5 C20.5,10.1192881 19.3807119,9 18,9 Z" id="path-1"></path>
    </defs>
    <g id="1230-TI2需求设计-11月" stroke="none" stroke-width="1" fill="none" fill-rule="evenodd">
        <g id="Profiling数据清除与导出12" transform="translate(-1884.000000, -157.000000)">
            <g id="编组-17" transform="translate(1580.000000, 76.000000)">
                <g id="数据范围限定备份" transform="translate(304.000000, 81.000000)">
                    <g id="4.组件/3.数据录入/1.输入框/单行输入框/1.默认" fill="#F5F5F5" stroke="#CCCCCC">
                        <rect id="矩形" x="0.5" y="0.5" width="27" height="27" rx="2"></rect>
                    </g>
                    <mask id="mask-2" fill="white">
                        <use xlink:href="#path-1"></use>
                    </mask>
                    <use id="形状结合" fill="#979797" xlink:href="#path-1"></use>
                    <g id="3.颜色/11.禁用态-输入框默认文本" mask="url(#mask-2)" fill="#CCCCCC">
                        <g transform="translate(4.000000, 4.000000)" id="矩形备份-6">
                            <rect x="0" y="0" width="20" height="20"></rect>
                        </g>
                    </g>
                </g>
            </g>
        </g>
    </g>
</svg>