<?xml version="1.0" encoding="UTF-8"?>
<svg width="28px" height="28px" viewBox="0 0 28 28" version="1.1" xmlns="http://www.w3.org/2000/svg" xmlns:xlink="http://www.w3.org/1999/xlink">
    <title>配置参数-默认</title>
    <defs>
        <path d="M12.0832233,15 C12.5556378,15 12.9465294,15.3558537 12.9987625,15.8152285 L13.0046875,15.9229609 L13.0046875,21.0770351 C13.0046875,21.5508431 12.6488303,21.9405437 12.189455,21.9937979 L12.0817226,22 L6.92764836,22 C6.45384034,22 6.06414321,21.6441428 6.01088958,21.1847675 L6.0046875,21.0770351 L6.0046875,15.9229609 C6.0046875,15.4491528 6.36054121,15.0594557 6.81991599,15.0062021 L6.92764836,15 L12.0832233,15 Z M12,16 L7,16 L7,21 L12,21 L12,16 Z M22,19 L22,20 L15,20 L15,19 L22,19 Z M22,16 L22,17 L15,17 L15,16 L22,16 Z M12.0785358,6 C12.5509503,6 12.9418419,6.35585371 12.994075,6.81522849 L13,6.92296085 L13,12.0770351 C13,12.5508431 12.6441428,12.9405437 12.1847675,12.9937979 L12.0770351,13 L6.92296086,13 C6.44915284,13 6.05945571,12.6441428 6.00620208,12.1847675 L6,12.0770351 L6,6.92296085 C6,6.44915284 6.35585371,6.05945571 6.81522849,6.00620208 L6.92296086,6 L12.0785358,6 Z M12,7 L7,7 L7,12 L12,12 L12,7 Z M22,11 L22,12 L15,12 L15,11 L22,11 Z M22,8 L22,9 L15,9 L15,8 L22,8 Z" id="path-1"></path>
    </defs>
    <g id="630检视" stroke="none" stroke-width="1" fill="none" fill-rule="evenodd">
        <g id="13画板" transform="translate(-755.000000, -265.000000)">
            <g id="配置参数-默认" transform="translate(755.000000, 265.000000)">
                <rect id="矩形" stroke="#979797" x="0.5" y="0.5" width="27" height="27" rx="2"></rect>
                <mask id="mask-2" fill="white">
                    <use xlink:href="#path-1"></use>
                </mask>
                <use id="形状结合" fill="#979797" fill-rule="nonzero" xlink:href="#path-1"></use>
            </g>
        </g>
    </g>
</svg>