<?xml version="1.0" encoding="UTF-8"?>
<svg width="16px" height="16px" viewBox="0 0 16 16" version="1.1" xmlns="http://www.w3.org/2000/svg" xmlns:xlink="http://www.w3.org/1999/xlink">
    <!-- Generator: Sketch 57.1 (83088) - https://sketch.com -->
    <title>function icon/delete删除备份 2</title>
    <desc>Created with Sketch.</desc>
    <defs>
        <path d="M15.25,3 C15.6642136,3 16,3.33578644 16,3.75 C16,4.16421356 15.6642136,4.5 15.25,4.5 L13.67,4.5 L12.8468563,14.1728242 C12.7739801,15.0281371 12.09416,15.6962959 11.253167,15.7678959 L11.1031742,15.7742552 L4.92980351,15.7742552 C4.07332731,15.7742552 3.3508614,15.1563247 3.20605098,14.3266696 L3.18658292,14.1781448 L2.332,4.5 L0.75,4.5 C0.335786438,4.5 5.07265313e-17,4.16421356 0,3.75 C-5.07265313e-17,3.33578644 0.335786438,3 0.75,3 L15.25,3 Z M12.165,4.5 L3.837,4.5 L4.680772,14.0462394 C4.69026559,14.1537804 4.76690909,14.2404307 4.86716487,14.2663269 L4.92980351,14.2742552 L11.1031742,14.2742552 C11.2113774,14.2742552 11.3045712,14.2052269 11.3390094,14.1073476 L11.3522716,14.0454794 L12.165,4.5 Z M8.00107456,9 C8.38077033,9 8.69456553,9.28215388 8.74422795,9.64822944 L8.75107456,9.75 L8.75107456,12.2147063 C8.75107456,12.6289199 8.41528813,12.9647063 8.00107456,12.9647063 C7.6213788,12.9647063 7.3075836,12.6825525 7.25792118,12.3164769 L7.25107456,12.2147063 L7.25107456,9.75 C7.25107456,9.33578644 7.586861,9 8.00107456,9 Z M10.25,-5.32907052e-15 C10.6642136,-5.40516032e-15 11,0.335786438 11,0.75 C11,1.16421356 10.6642136,1.5 10.25,1.5 L5.75,1.5 C5.33578644,1.5 5,1.16421356 5,0.75 C5,0.335786438 5.33578644,-5.25298072e-15 5.75,-5.32907052e-15 L10.25,-5.32907052e-15 Z" id="path-1"></path>
    </defs>
    <g id="页面-1" stroke="none" stroke-width="1" fill="none" fill-rule="evenodd">
        <g id="home（Sampling-Analysis）备份" transform="translate(-1806.000000, -564.000000)">
            <g id="编组-9" transform="translate(1518.000000, 384.000000)">
                <g id="编组-5" transform="translate(288.000000, 180.000000)">
                    <g id="function-icon/delete删除">
                        <g id="矩形" transform="translate(0.000000, -0.000000)">
                            <mask id="mask-2" fill="white">
                                <use xlink:href="#path-1"></use>
                            </mask>
                            <use id="蒙版" fill="#D8D8D8" xlink:href="#path-1"></use>
                            <rect fill="#6C7280" mask="url(#mask-2)" x="0" y="0" width="16" height="16"></rect>
                        </g>
                    </g>
                </g>
            </g>
        </g>
    </g>
</svg>