<?xml version="1.0" encoding="UTF-8"?>
<svg width="18px" height="18px" viewBox="0 0 18 18" version="1.1" xmlns="http://www.w3.org/2000/svg" xmlns:xlink="http://www.w3.org/1999/xlink">
    <!-- Generator: Sketch 63.1 (92452) - https://sketch.com -->
    <title>下载 (2)</title>
    <desc>Created with Sketch.</desc>
    <g id="Porting-advisor" stroke="none" stroke-width="1" fill="none" fill-rule="evenodd">
        <g id="7.0-admin备份-8" transform="translate(-1791.000000, -97.000000)" fill="#6C7280" fill-rule="nonzero" stroke="#FFFFFF" stroke-width="0.5">
            <g id="G-Button/Icon-Button/Normal备份" transform="translate(1776.000000, 90.000000)">
                <g id="编组-23" transform="translate(16.000000, 8.000000)">
                    <g id="下载-(2)">
                        <path d="M6.4673913,11.3369565 C6.86490683,11.734472 7.46118012,11.9332298 7.95807453,11.9332298 C8.45496894,11.9332298 9.05124224,11.734472 9.44875776,11.3369565 L12.9270186,7.85869565 C13.3245342,7.46118012 13.3245342,6.86490683 12.9270186,6.4673913 C12.5295031,6.06987578 11.9332298,6.06987578 11.5357143,6.4673913 L8.95186335,8.95186335 L8.95186335,1.0015528 C8.95186335,0.405279503 8.55434783,0.00776397516 7.95807453,0.00776397516 C7.36180124,0.00776397516 6.96428571,0.405279503 6.96428571,1.0015528 L6.96428571,8.95186335 L4.47981366,6.4673913 C4.08229814,6.06987578 3.48602484,6.06987578 3.08850932,6.4673913 C2.69099379,6.86490683 2.69099379,7.46118012 3.08850932,7.85869565 L6.4673913,11.3369565 L6.4673913,11.3369565 Z" id="路径备份"></path>
                        <path d="M14.9145963,9.94565217 C14.318323,9.94565217 13.9208075,10.3431677 13.9208075,10.939441 L13.9208075,13.9208075 L1.99534161,13.9208075 L1.99534161,10.939441 C1.99534161,10.3431677 1.59782609,9.94565217 1.0015528,9.94565217 C0.405279503,9.94565217 0.00776397516,10.3431677 0.00776397516,10.939441 L0.00776397516,13.9208075 C0.00776397516,15.0139752 0.902173913,15.9083851 1.99534161,15.9083851 L13.9208075,15.9083851 C15.0139752,15.9083851 15.9083851,15.0139752 15.9083851,13.9208075 L15.9083851,10.939441 C15.9083851,10.3431677 15.5108696,9.94565217 14.9145963,9.94565217 Z" id="路径"></path>
                    </g>
                </g>
            </g>
        </g>
    </g>
</svg>