<?xml version="1.0" encoding="UTF-8"?>
<svg width="36px" height="31px" viewBox="0 0 36 31" version="1.1" xmlns="http://www.w3.org/2000/svg" xmlns:xlink="http://www.w3.org/1999/xlink">
    <!-- Generator: Sketch 63.1 (92452) - https://sketch.com -->
    <title>物理-创建中</title>
    <desc>Created with Sketch.</desc>
    <g id="页面-1" stroke="none" stroke-width="1" fill="none" fill-rule="evenodd">
        <g id="分析容器环境中应用2备份-14" transform="translate(-103.000000, -942.000000)">
            <g id="编组-7" transform="translate(80.000000, 503.000000)">
                <g id="list/Java性能优化备份-6" transform="translate(0.000000, 420.000000)">
                    <g id="物理-创建中" transform="translate(23.000000, 19.000000)">
                        <g id="编组-11" fill="#979797">
                            <path d="M1.42110663,0.998624079 L32.5330673,0.998624079 C32.7664039,0.998624079 32.9555145,1.1878231 32.9555145,1.42107125 L32.9555145,7.56681081 C32.9555145,7.80014742 32.7664039,7.98916953 32.5330673,7.98916953 L1.42110663,7.98916953 C1.18777002,7.98916953 0.998659459,7.80014742 0.998659459,7.56681081 L0.998659459,1.42107125 C0.998659459,1.1878231 1.18777002,0.998624079 1.42110663,0.998624079 M1.42110663,8.98788206 L32.5330673,8.98788206 C33.3179027,8.98788206 33.954227,8.35164619 33.954227,7.56681081 L33.954227,1.42107125 C33.954227,0.636235872 33.3179027,1.05249143e-12 32.5330673,1.05249143e-12 L1.42110663,1.05249143e-12 C0.636271253,1.05249143e-12 3.53808362e-05,0.636235872 3.53808362e-05,1.42107125 L3.53808362e-05,7.56681081 C3.53808362e-05,8.35164619 0.636271253,8.98788206 1.42110663,8.98788206" id="Fill-1"></path>
                            <path d="M4.99326192,3.4953258 C5.54476069,3.4953258 5.99197445,3.94245111 5.99197445,4.49394988 C5.99197445,5.04544865 5.54476069,5.49257396 4.99326192,5.49257396 C4.44176314,5.49257396 3.99454939,5.04544865 3.99454939,4.49394988 C3.99454939,3.94245111 4.44176314,3.4953258 4.99326192,3.4953258" id="Fill-3"></path>
                            <path d="M4.99326192,13.9811351 C5.54476069,13.9811351 5.99197445,14.4282604 5.99197445,14.9797592 C5.99197445,15.531258 5.54476069,15.9784717 4.99326192,15.9784717 C4.44176314,15.9784717 3.99454939,15.531258 3.99454939,14.9797592 C3.99454939,14.4282604 4.44176314,13.9811351 4.99326192,13.9811351" id="Fill-5"></path>
                            <path d="M4.99326192,24.4670241 C5.54476069,24.4670241 5.99197445,24.9141494 5.99197445,25.4656482 C5.99197445,26.0171469 5.54476069,26.4642722 4.99326192,26.4642722 C4.44176314,26.4642722 3.99454939,26.0171469 3.99454939,25.4656482 C3.99454939,24.9141494 4.44176314,24.4670241 4.99326192,24.4670241" id="Fill-7"></path>
                            <path d="M25.4030241,28.9608855 L1.43250811,28.9608855 C1.19297985,28.9608855 0.998650614,28.7666447 0.998650614,28.527028 L0.998650614,22.404286 C0.998650614,22.1645808 1.19297985,21.97034 1.43250811,21.97034 L26.2789651,21.97034 C26.4002329,21.97034 27.3078398,21.2378683 27.6627096,20.971716 L1.43250811,20.971716 C0.641392629,20.971716 2.65356257e-05,21.6130821 2.65356257e-05,22.404286 L2.65356257e-05,28.527028 C2.65356257e-05,29.3182319 0.641392629,29.959598 1.43250811,29.959598 L25.9563803,29.959598 L25.4030241,28.9608855 Z" id="Fill-9"></path>
                            <path d="M1.42248649,11.4845219 L32.5317052,11.4845219 C32.7657494,11.4845219 32.9555676,11.67434 32.9555676,11.9083843 L32.9555676,18.0512049 C32.9555676,18.2853376 32.7657494,18.4750673 32.5317052,18.4750673 L1.42248649,18.4750673 C1.18844226,18.4750673 0.998624079,18.2853376 0.998624079,18.0512049 L0.998624079,11.9083843 C0.998624079,11.67434 1.18844226,11.4845219 1.42248649,11.4845219 M1.42248649,19.4736914 L32.5317052,19.4736914 C33.3173366,19.4736914 33.9541916,18.8368364 33.9541916,18.0512049 L33.9541916,11.9083843 C33.9541916,11.1227528 33.3173366,10.4858978 32.5317052,10.4858978 L1.42248649,10.4858978 C0.636855037,10.4858978 7.10542736e-13,11.1227528 7.10542736e-13,11.9083843 L7.10542736e-13,18.0512049 C7.10542736e-13,18.8368364 0.636855037,19.4736914 1.42248649,19.4736914" id="Fill-11"></path>
                        </g>
                        <path d="M31.4999557,22 C33.9852676,22 36,24.0147324 36,26.5000443 C36,28.9852676 33.9852676,31 31.4999557,31 C29.0146438,31 27,28.9852676 27,26.5000443 C27,24.0147324 29.0146438,22 31.4999557,22" id="Fill-13" fill="#95989D"></path>
                    </g>
                </g>
            </g>
        </g>
    </g>
</svg>