<?xml version="1.0" encoding="UTF-8"?>
<svg width="16px" height="16px" viewBox="0 0 16 16" version="1.1" xmlns="http://www.w3.org/2000/svg" xmlns:xlink="http://www.w3.org/1999/xlink">
    <!-- Generator: Sketch 63.1 (92452) - https://sketch.com -->
    <title>编组 26</title>
    <desc>Created with Sketch.</desc>
    <g id="页面-1备份" stroke="none" stroke-width="1" fill="none" fill-rule="evenodd">
        <g id="数据库连接池优化建议1备份-7" transform="translate(-1530.000000, -512.000000)">
            <g id="编组-22" transform="translate(1312.000000, 244.000000)">
                <g id="env">
                    <g id="编组-23" transform="translate(32.000000, 92.000000)">
                        <g id="编组-2" transform="translate(164.000000, 0.000000)">
                            <g id="编组-26" transform="translate(22.000000, 176.000000)">
                                <rect id="矩形" x="0" y="0" width="16" height="16"></rect>
                                <path d="M6.87749358,2.99365158 C9.20554602,1.0636559 12.1488474,0.209572922 15.1555287,0.587533619 C15.6681206,0.647451462 16.0404636,1.10364011 15.9964719,1.6178437 C15.7831444,4.66317128 14.3802841,7.40705778 12.0514587,9.33705346 C11.7994849,9.54574342 11.5467382,9.75443338 11.288581,9.96312335 L10.8356465,12.8051714 C10.8031836,13.0401409 10.6810613,13.2488308 10.4994238,13.3987784 L8.15127525,15.3419138 C7.89278163,15.5610423 7.53410664,15.6187875 7.21989968,15.4918614 C6.90063901,15.3794801 6.66458559,15.1066811 6.5992403,14.7745863 L6.17258528,12.6621802 C4.65919658,12.8051714 3.70154156,12.0623898 3.15199133,11.3907173 L3.01595638,11.2144902 C2.3628341,10.3148046 2.18196947,9.29763427 2.48572928,8.20935473 L0.591288191,7.41324118 C0.280673544,7.28080693 0.0605557524,6.99725546 0.00927509785,6.66350318 C-0.0371004608,6.33114511 0.0927510827,5.9926036 0.351681202,5.77773024 L2.69364634,3.82841143 C2.87373804,3.67846382 3.10716163,3.59962541 3.33981229,3.60658174 L6.029594,3.70397039 C6.30784728,3.46281753 6.5930569,3.22862104 6.87749358,2.99287865 L6.87749358,2.99365158 Z M10.2420395,3.32369089 C9.16148927,3.34378695 8.29503946,4.25120182 8.31513552,5.35184815 C8.32750232,6.45249445 9.21945869,7.33362986 10.3069653,7.31353376 C11.3882884,7.29421063 12.2547382,6.38602283 12.2346421,5.28537653 C12.215319,4.18550313 11.3225897,3.30436776 10.2420395,3.32369089 Z M3.51603936,13.8486212 C3.63275826,13.8187935 3.72608741,13.7312974 3.76337561,13.6167435 C3.79877594,13.5003464 3.76930244,13.3739051 3.68608303,13.2851583 L1.50334063,10.9192325 C1.42175464,10.832361 1.30064855,10.7945336 1.18412228,10.8195251 C1.06740337,10.8493529 0.974074219,10.936849 0.936786029,11.0514028 L0.0131397306,14.1608832 C0.00554971616,14.1936167 0.00114924523,14.2270085 0,14.2605907 L0,14.2667741 C0.00618339857,14.4723724 0.149947606,14.6184553 0.338541471,14.6184553 C0.396049169,14.6194437 0.452550762,14.6033004 0.500855874,14.5720798 L3.51603936,13.8493942 L3.51603936,13.8486212 Z" id="形状" fill="#F45C5E" fill-rule="nonzero"></path>
                            </g>
                        </g>
                    </g>
                </g>
            </g>
        </g>
    </g>
</svg>