<?xml version="1.0" encoding="UTF-8"?>
<svg width="32px" height="32px" viewBox="0 0 32 32" version="1.1" xmlns="http://www.w3.org/2000/svg" xmlns:xlink="http://www.w3.org/1999/xlink">
    <!-- Generator: Sketch 63.1 (92452) - https://sketch.com -->
    <title>编组 13备份 2</title>
    <desc>Created with Sketch.</desc>
    <g id="1230-TI2需求设计-11月" stroke="none" stroke-width="1" fill="none" fill-rule="evenodd">
        <g id="用户体验-图标优化" transform="translate(-800.000000, -314.000000)">
            <g id="热点快照备份-4" transform="translate(800.000000, 314.000000)">
                <g id="编组-13备份-2">
                    <rect id="bgc" stroke="#CCCCCC" fill="#F5F5F5" x="0.5" y="0.5" width="31" height="31" rx="1"></rect>
                    <g id="快照" transform="translate(8.000000, 10.000000)">
                        <path d="M7.98003356,3.89865772 C8.82992007,3.89865772 9.59918762,4.24000293 10.1560306,4.7918293 C10.7117662,5.3425583 11.0558725,6.10308142 11.0558725,6.94228188 C11.0558725,7.78148233 10.7117662,8.54200546 10.1560306,9.09273446 C9.59918762,9.64456083 8.82992007,9.98590604 7.98003356,9.98590604 C7.13356689,9.98590604 6.36354718,9.64321475 5.80541587,9.09011165 C5.24995726,8.53965717 4.90419463,7.78029177 4.90419463,6.94228188 C4.90419463,6.10308142 5.2483009,5.3425583 5.80403653,4.7918293 C6.36087949,4.24000293 7.13014705,3.89865772 7.98003356,3.89865772 Z M7.98003356,4.17651007 C7.20993331,4.17651007 6.51493152,4.48623677 6.01173678,4.98470667 C5.50495537,5.48672958 5.19278523,6.18010133 5.19278523,6.94228188 C5.19278523,7.70291779 5.50644905,8.39532141 6.0131222,8.89723707 C6.51828214,9.39765372 7.21490466,9.70805369 7.98003356,9.70805369 C8.7501338,9.70805369 9.44513559,9.39832699 9.94833033,8.89985709 C10.4551117,8.39783418 10.7672819,7.70446242 10.7672819,6.94228188 C10.7672819,6.18164596 10.4536181,5.48924235 9.94694491,4.98732669 C9.44178497,4.48691004 8.74516245,4.17651007 7.98003356,4.17651007 Z" id="形状" stroke="#CCCCCC"></path>
                        <path d="M10.7157318,0.505369128 L11.8862016,2.43825503 L14.3263423,2.43825503 C14.6340996,2.43825503 14.8776115,2.57146662 15.0569585,2.74962588 C15.3032846,2.99432065 15.4478188,3.32428195 15.4478188,3.54899329 L15.4478188,3.54899329 L15.4478188,11.3127517 C15.4478188,11.5937695 15.3004311,11.8498542 15.1067756,12.0448181 C14.8949749,12.25805 14.6171479,12.4127517 14.358557,12.4127517 L14.358557,12.4127517 L1.53708054,12.4127517 C1.28837787,12.4127517 1.02829656,12.2683357 0.832054534,12.0610378 C0.6454748,11.8639465 0.512248322,11.5995588 0.512248322,11.3020134 L0.512248322,11.3020134 L0.512248322,3.53825503 C0.512248322,3.23590395 0.645036209,2.99765852 0.822531913,2.82251375 C1.06975912,2.57856108 1.40382811,2.43825503 1.63372483,2.43825503 L1.63372483,2.43825503 L4.07386551,2.43825503 L5.24433531,0.505369128 L10.7157318,0.505369128 Z M10.5822129,0.793959732 L5.41103382,0.793959732 L4.22454476,2.75329946 L0.786761183,3.08561854 L1.06323387,12.1250732 L15.1797329,11.7897919 L14.8061815,2.71610738 L11.5579552,2.41597285 L10.5822129,0.793959732 Z" id="形状" stroke="#979797"></path>
                    </g>
                </g>
            </g>
        </g>
    </g>
</svg>