<?xml version="1.0" encoding="UTF-8"?>
<svg width="28px" height="28px" viewBox="0 0 28 28" version="1.1" xmlns="http://www.w3.org/2000/svg" xmlns:xlink="http://www.w3.org/1999/xlink">
    <title>快照-按下</title>
    <defs>
        <path d="M17.0296496,7.5 L18.2048518,9.44070081 L20.3719677,9.44070081 C21.3800539,9.44070081 21.9361419,10.3831653 21.9948181,10.9601844 L22,11.0579515 L22,18.8530997 C22,19.6677149 21.2210243,20.3765432 20.52593,20.4527877 L20.4043127,20.4595687 L7.5309973,20.4595687 C6.8589398,20.4595687 6.09071246,19.8248478 6.00742811,18.9913758 L6,18.8423181 L6,11.0471698 C6,10.0492662 6.94246448,9.50336095 7.52856625,9.44578476 L7.62803235,9.44070081 L9.79514825,9.44070081 L10.9703504,7.5 L17.0296496,7.5 Z M16.4638881,8.50367251 L11.5350404,8.50367251 L10.3609294,10.4447439 L7.62803235,10.4447439 C7.40719847,10.4447439 7.0784343,10.6910739 7.01488981,10.9578114 L7.00404313,11.0471698 L7.00404313,18.8423181 C7.00404313,19.111338 7.26098055,19.3928202 7.46527395,19.4464264 L7.5309973,19.4555256 L20.4043127,19.4555256 C20.6063887,19.4555256 20.9239597,19.172446 20.9854531,18.9314333 L20.9959569,18.8530997 L20.9959569,11.0579515 C20.9959569,10.8476348 20.7376343,10.512929 20.4566929,10.4538115 L20.3719677,10.4447439 L17.6390706,10.4447439 L16.4638881,8.50367251 Z M14,10.9070081 C15.9838275,10.9070081 17.5902965,12.5026954 17.5902965,14.4649596 C17.5902965,16.4272237 15.9838275,18.0229111 14,18.0229111 C12.0269542,18.0229111 10.4097035,16.4272237 10.4097035,14.4649596 C10.4097035,12.5026954 12.0161725,10.9070081 14,10.9070081 Z M14,11.9110512 C12.5701115,11.9110512 11.4137466,13.0578197 11.4137466,14.4649596 C11.4137466,15.867943 12.5767105,17.0188679 14,17.0188679 C15.4298885,17.0188679 16.5862534,15.8720994 16.5862534,14.4649596 C16.5862534,13.0578197 15.4298885,11.9110512 14,11.9110512 Z" id="path-1"></path>
    </defs>
    <g id="630检视" stroke="none" stroke-width="1" fill="none" fill-rule="evenodd">
        <g id="13画板" transform="translate(-707.000000, -370.000000)">
            <g id="快照-按下" transform="translate(707.000000, 370.000000)">
                <rect id="矩形" stroke="#0057D9" x="0.5" y="0.5" width="27" height="27" rx="2"></rect>
                <mask id="mask-2" fill="white">
                    <use xlink:href="#path-1"></use>
                </mask>
                <use id="形状结合" fill="#0057D9" fill-rule="nonzero" xlink:href="#path-1"></use>
            </g>
        </g>
    </g>
</svg>