<?xml version="1.0" encoding="UTF-8"?>
<svg width="16px" height="16px" viewBox="0 0 16 16" version="1.1" xmlns="http://www.w3.org/2000/svg" xmlns:xlink="http://www.w3.org/1999/xlink">
    <!-- Generator: Sketch 57.1 (83088) - https://sketch.com -->
    <title>停止 (7)</title>
    <desc>Created with Sketch.</desc>
    <g id="页面-1" stroke="none" stroke-width="1" fill="none" fill-rule="evenodd">
        <g id="Overview（Profiling-Analysis）备份" transform="translate(-327.000000, -90.000000)" fill="#6c92fa" fill-rule="nonzero">
            <g id="编组-4" transform="translate(311.000000, 82.000000)">
                <g id="停止-(7)" transform="translate(16.000000, 8.000000)">
                    <path d="M13.8653533,0.000135869565 L2.06535326,0.000135869565 C0.92613587,0.000135869565 0.00448369565,0.930570652 0.00448369565,2.07839674 L0.00448369565,13.8523098 C0.00448369565,15.0001359 0.926222826,15.9304837 2.06535326,15.9304837 L13.8653533,15.9304837 C15.0045707,15.9304837 15.9262228,15.0001359 15.9262228,13.8523098 L15.9262228,2.08709239 C15.9262228,0.939266304 15.0044837,0.000135869565 13.8653533,0.000135869565 Z M15.0566576,13.8523098 C15.0566576,14.521875 14.5175272,15.0609185 13.8653533,15.0609185 L2.06535326,15.0609185 C1.40439674,15.0609185 0.874048913,14.5131793 0.874048913,13.8523098 L0.874048913,2.08709239 C0.874048913,1.41752717 1.41317935,0.878396739 2.06535326,0.878396739 L13.8653533,0.878396739 C14.5263098,0.878396739 15.0566576,1.42630978 15.0566576,2.08709239 L15.0566576,13.8523098 Z" id="形状"></path>
                    <path d="M11.1013566,10.3146361 C11.0995764,10.7383248 10.7577771,11.0801241 10.3358686,11.0801241 L5.71801782,11.0801241 C5.29432912,11.0801241 4.95252984,10.7383248 4.95252984,10.3146361 L4.95252984,5.6950051 C4.95252984,5.2713164 5.29432912,4.92951712 5.71801782,4.92951712 L10.3376488,4.92951712 C10.7613375,4.92951712 11.1031368,5.2713164 11.1031368,5.6950051 L11.1013566,10.3146361 L11.1013566,10.3146361 Z" id="路径"></path>
                </g>
            </g>
        </g>
    </g>
</svg>