<?xml version="1.0" encoding="UTF-8"?>
<svg width="12px" height="12px" viewBox="0 0 12 12" version="1.1" xmlns="http://www.w3.org/2000/svg" xmlns:xlink="http://www.w3.org/1999/xlink">
    <!-- Generator: Sketch 63.1 (92452) - https://sketch.com -->
    <title>停止 (7)</title>
    <desc>Created with Sketch.</desc>
    <g id="1230-TI2需求设计-11月" stroke="none" stroke-width="1" fill="none" fill-rule="evenodd">
        <g id="Workload-快照比对1" transform="translate(-306.000000, -90.000000)" fill="#000000" fill-rule="nonzero">
            <g id="返回停止" transform="translate(48.000000, 82.000000)">
                <g id="停止" transform="translate(238.000000, 0.000000)">
                    <g id="停止-(7)" transform="translate(20.000000, 8.000000)">
                        <path d="M10.3990149,0.000101902174 L1.54901495,0.000101902174 C0.694601902,0.000101902174 0.00336277174,0.697927989 0.00336277174,1.55879755 L0.00336277174,10.3892323 C0.00336277174,11.2501019 0.69466712,11.9478628 1.54901495,11.9478628 L10.3990149,11.9478628 C11.253428,11.9478628 11.9446671,11.2501019 11.9446671,10.3892323 L11.9446671,1.56531929 C11.9446671,0.704449728 11.2533628,0.000101902174 10.3990149,0.000101902174 Z M11.2924932,10.3892323 C11.2924932,10.8914063 10.8881454,11.2956889 10.3990149,11.2956889 L1.54901495,11.2956889 C1.05329755,11.2956889 0.655536685,10.8848845 0.655536685,10.3892323 L0.655536685,1.56531929 C0.655536685,1.06314538 1.05988451,0.658797554 1.54901495,0.658797554 L10.3990149,0.658797554 C10.8947323,0.658797554 11.2924932,1.06973234 11.2924932,1.56531929 L11.2924932,10.3892323 Z" id="形状"></path>
                        <path d="M8.32601743,7.73597705 C8.32468227,8.05374358 8.06833281,8.31009304 7.75190144,8.31009304 L4.28851336,8.31009304 C3.97074684,8.31009304 3.71439738,8.05374358 3.71439738,7.73597705 L3.71439738,4.27125382 C3.71439738,3.9534873 3.97074684,3.69713784 4.28851336,3.69713784 L7.75323659,3.69713784 C8.07100312,3.69713784 8.32735258,3.9534873 8.32735258,4.27125382 L8.32601743,7.73597705 L8.32601743,7.73597705 Z" id="路径"></path>
                    </g>
                </g>
            </g>
        </g>
    </g>
</svg>