<?xml version="1.0" encoding="UTF-8"?>
<svg width="24px" height="22px" viewBox="0 0 24 22" version="1.1" xmlns="http://www.w3.org/2000/svg" xmlns:xlink="http://www.w3.org/1999/xlink">
    <!-- Generator: Sketch 56.2 (81672) - https://sketch.com -->
    <title>icon-告警</title>
    <desc>Created with Sketch.</desc>
    <g id="页面-1" stroke="none" stroke-width="1" fill="none" fill-rule="evenodd">
        <g id="home（删除guardian）正常" transform="translate(-683.000000, -469.000000)">
            <g id="弹窗-3" transform="translate(640.000000, 437.000000)">
                <g id="编组-11" transform="translate(43.000000, 32.000000)">
                    <g id="编组-6">
                        <g id="icon-告警">
                            <g id="abnormal">
                                <path d="M13.7538982,1.40044299 L23.3772294,18.9607116 C23.9080671,19.9293628 23.5531491,21.1449387 22.5844978,21.6757763 C22.2898656,21.8372399 21.9593054,21.9218782 21.6233313,21.9218782 L2.37666874,21.9218782 C1.27209924,21.9218782 0.376668736,21.0264477 0.376668736,19.9218782 C0.376668736,19.5859041 0.461307016,19.2553438 0.622770557,18.9607116 L10.2461018,1.40044299 C10.7769395,0.431791775 11.9925154,0.0768737457 12.9611666,0.607711386 C13.2955817,0.790976648 13.5706329,1.0660279 13.7538982,1.40044299 Z" id="三角形" fill="#FA8E5A"></path>
                                <path d="M10.8695652,16.3395349 L13.6956522,16.3395349 L13.6956522,19.1738372 L10.8695652,19.1738372 L10.8695652,16.3395349 Z M10.8695652,6.70290698 L13.6956522,6.70290698 L13.1304348,14.6389535 L11.4347826,14.6389535 L10.8695652,6.70290698 Z" id="形状结合" fill="#FFFFFF"></path>
                            </g>
                        </g>
                    </g>
                </g>
            </g>
        </g>
    </g>
</svg>