<?xml version="1.0" encoding="UTF-8"?>
<svg width="20px" height="20px" viewBox="0 0 20 20" version="1.1" xmlns="http://www.w3.org/2000/svg" xmlns:xlink="http://www.w3.org/1999/xlink">
    <title>4.组件/2.通用/icon/20/关闭</title>
    <defs>
        <path d="M4.45587838,3.76016403 L4.52512627,3.81801948 L9.99957288,9.29257288 L15.4748737,3.81801948 C15.6701359,3.62275734 15.9867184,3.62275734 16.1819805,3.81801948 C16.3555469,3.99158584 16.374832,4.26101024 16.239836,4.45587838 L16.1819805,4.52512627 L10.7065729,9.99957288 L16.1819805,15.4748737 C16.3772427,15.6701359 16.3772427,15.9867184 16.1819805,16.1819805 C16.0084142,16.3555469 15.7389898,16.374832 15.5441216,16.239836 L15.4748737,16.1819805 L9.99957288,10.7065729 L4.52512627,16.1819805 C4.32986412,16.3772427 4.01328163,16.3772427 3.81801948,16.1819805 C3.64445313,16.0084142 3.62516798,15.7389898 3.76016403,15.5441216 L3.81801948,15.4748737 L9.29257288,9.99957288 L3.81801948,4.52512627 C3.62275734,4.32986412 3.62275734,4.01328163 3.81801948,3.81801948 C3.99158584,3.64445313 4.26101024,3.62516798 4.45587838,3.76016403 Z" id="path-1"></path>
    </defs>
    <g id="4.组件/2.通用/icon/20/关闭" stroke="none" stroke-width="1" fill="none" fill-rule="evenodd">
        <mask id="mask-2" fill="white">
            <use xlink:href="#path-1"></use>
        </mask>
        <use id="蒙版" fill="#979797" fill-rule="nonzero" xlink:href="#path-1"></use>
        <g id="3.颜色/1.主色调蓝" mask="url(#mask-2)" fill="#267DFF">
            <rect id="矩形" x="0" y="0" width="20" height="20"></rect>
        </g>
    </g>
</svg>