<?xml version="1.0" encoding="UTF-8"?>
<svg width="16px" height="15px" viewBox="0 0 16 15" version="1.1" xmlns="http://www.w3.org/2000/svg" xmlns:xlink="http://www.w3.org/1999/xlink">
    <title>4.组件/2.通用/icon/告警</title>
    <defs>
        <path d="M8.43574674,1.29374503 L15.9092204,14.5799204 C16.0446023,14.8205994 15.9592422,15.1254569 15.7185633,15.2608388 C15.6437224,15.3029368 15.5593011,15.3250511 15.4734326,15.3250511 L0.5264853,15.3250511 C0.250342925,15.3250511 0.0264853004,15.1011934 0.0264853004,14.8250511 C0.0264853004,14.7391826 0.04859957,14.6547613 0.0906975319,14.5799204 L7.5641712,1.29374503 C7.6995531,1.05306609 8.00441065,0.967705976 8.24508959,1.10308788 C8.32490184,1.14798227 8.39085235,1.21393278 8.43574674,1.29374503 Z" id="path-1"></path>
    </defs>
    <g id="IDE-Lignt-Components" stroke="none" stroke-width="1" fill="none" fill-rule="evenodd">
        <g id="画板" transform="translate(-119.000000, -372.000000)">
            <g id="4.组件/5.反馈/2.Alert告警提示/卡片级提示/1.成功" transform="translate(103.000000, 363.000000)">
                <g id="4.组件/2.通用/icon/告警/警告" transform="translate(16.000000, 8.000000)">
                    <mask id="mask-2" fill="white">
                        <use xlink:href="#path-1"></use>
                    </mask>
                    <use id="蒙版" fill="#D8D8D8" fill-rule="evenodd" xlink:href="#path-1"></use>
                    <g id="3.颜色/4.重要告警色" mask="url(#mask-2)" fill="#FF9B00" fill-rule="evenodd">
                        <rect id="矩形备份" x="0" y="0" width="16" height="16"></rect>
                    </g>
                    <path d="M8.703125,7.825 L8.9765625,13.7 L7.5,13.7 L7.71875,7.825 L8.703125,7.825 Z M8.921875,5.2 L8.921875,6.6765625 L7.5546875,6.6765625 L7.5546875,5.2 L8.921875,5.2 Z" id="形状结合" fill="#FFFFFF" fill-rule="nonzero" transform="translate(8.238281, 9.450000) scale(1, -1) translate(-8.238281, -9.450000) "></path>
                </g>
            </g>
        </g>
    </g>
</svg>