<?xml version="1.0" encoding="UTF-8"?>
<svg width="28px" height="28px" viewBox="0 0 28 28" version="1.1" xmlns="http://www.w3.org/2000/svg" xmlns:xlink="http://www.w3.org/1999/xlink">
    <!-- Generator: Sketch 63.1 (92452) - https://sketch.com -->
    <title>建议汇总</title>
    <desc>Created with Sketch.</desc>
    <g id="1230-TI2需求设计-11月" stroke="none" stroke-width="1" fill="none" fill-rule="evenodd">
        <g id="Workload-快照比对4备份" transform="translate(-1844.000000, -82.000000)">
            <g id="编组-17" transform="translate(1580.000000, 76.000000)">
                <g id="编组-22" transform="translate(264.000000, 0.000000)">
                    <g id="建议汇总" transform="translate(0.000000, 6.000000)">
                        <g id="编组">
                            <g>
                                <g id="4.组件/3.数据录入/1.输入框/1.单行输入框/1.默认" stroke="#979797">
                                    <rect id="矩形" x="0.5" y="0.5" width="27" height="27" rx="2"></rect>
                                </g>
                                <g id="数据汇总" transform="translate(6.000000, 6.000000)" fill="#979797" fill-rule="nonzero" stroke="#FFFFFF" stroke-width="0.15">
                                    <path d="M7.48082788,0.875513519 L7.48082788,8.43011983 L15.0354225,8.43011983 C15.0151131,10.4651252 14.182048,12.3055381 12.845309,13.6422771 C11.4921648,14.9954213 9.62290808,15.8324529 7.55815178,15.8327705 C5.49190438,15.8327705 3.62171983,14.9957812 2.26804672,13.6425244 C0.91421291,12.289107 0.0770152471,10.4193014 0.0770152471,8.35395787 C0.0770152471,6.28874079 0.914109864,4.41903763 2.26750875,3.06563875 C3.60450544,1.72864205 5.44536779,0.895511012 7.48082788,0.875513519 L7.48082788,0.875513519 Z M6.47004357,1.97713165 C4.89912123,2.24579775 3.5433116,3.06581229 2.58572181,4.21721265 C1.64627486,5.34679816 1.09010031,6.7953323 1.09010031,8.35511983 C1.08564485,10.0293535 1.72081917,11.5669355 2.77397025,12.7241144 C3.82711966,13.8812914 5.29824449,14.6580666 6.96569251,14.8108892 C8.63314196,14.963712 10.2209573,14.4672895 11.4669043,13.5208242 C12.735087,12.5574679 13.6490901,11.1278622 13.9323875,9.44206609 L6.47004357,9.44206609 L6.47004357,1.97713165 Z" id="形状"></path>
                                    <path d="M8.80439361,0.0819238895 C10.7352513,0.101907036 12.4814172,0.892635765 13.7498646,2.16108312 C15.0183119,3.42953047 15.8090407,5.17569645 15.8290238,7.10655411 L15.8290238,7.10655411 L8.80439361,7.10655411 Z M9.76056644,1.12191208 L9.76056644,6.15038127 L14.7890356,6.15038127 C14.5690912,4.86355001 13.9553896,3.71640492 13.0749662,2.83598154 C12.1945428,1.95555816 11.0473977,1.34185649 9.76056644,1.12191208 Z" id="形状"></path>
                                </g>
                            </g>
                        </g>
                    </g>
                </g>
            </g>
        </g>
    </g>
</svg>