<?xml version="1.0" encoding="UTF-8"?>
<svg width="100px" height="100px" viewBox="0 0 100 100" version="1.1" xmlns="http://www.w3.org/2000/svg" xmlns:xlink="http://www.w3.org/1999/xlink">
    <title>缺省页/插画/全局Loading</title>
    <g id="缺省页/插画/全局Loading" stroke="none" stroke-width="1" fill="none" fill-rule="evenodd">
        <g id="编组-2">
            <rect id="矩形" fill-opacity="0" fill="#D8D8D8" x="0" y="0" width="100" height="100"></rect>
            <g id="编组" transform="translate(10.714286, 14.285714)" fill="#0067FF">
                <circle id="椭圆形" cx="39.2857143" cy="67.8571429" r="12.5"></circle>
                <circle id="椭圆形" opacity="0.9" transform="translate(17.188627, 58.704230) rotate(45.000000) translate(-17.188627, -58.704230) " cx="17.1886274" cy="58.7042298" r="8.92857143"></circle>
                <circle id="椭圆形" fill-opacity="0.8" transform="translate(8.035714, 36.607143) rotate(90.000000) translate(-8.035714, -36.607143) " cx="8.03571429" cy="36.6071429" r="8.03571429"></circle>
                <circle id="椭圆形" fill-opacity="0.6" transform="translate(17.188627, 14.510056) rotate(135.000000) translate(-17.188627, -14.510056) " cx="17.1886274" cy="14.5100559" r="7.14285714"></circle>
                <circle id="椭圆形" fill-opacity="0.4" transform="translate(39.285714, 5.357143) rotate(180.000000) translate(-39.285714, -5.357143) " cx="39.2857143" cy="5.35714286" r="5.35714286"></circle>
                <circle id="椭圆形" fill-opacity="0.6" transform="translate(61.382801, 14.510056) rotate(225.000000) translate(-61.382801, -14.510056) " cx="61.3828012" cy="14.5100559" r="7.14285714"></circle>
                <circle id="椭圆形" fill-opacity="0.8" transform="translate(70.535714, 36.607143) rotate(270.000000) translate(-70.535714, -36.607143) " cx="70.5357143" cy="36.6071429" r="8.03571429"></circle>
                <circle id="椭圆形" opacity="0.9" transform="translate(61.382801, 58.704230) rotate(315.000000) translate(-61.382801, -58.704230) " cx="61.3828012" cy="58.7042298" r="8.92857143"></circle>
            </g>
        </g>
    </g>
</svg>