<?xml version="1.0" encoding="UTF-8"?>
<svg width="16px" height="16px" viewBox="0 0 16 16" version="1.1" xmlns="http://www.w3.org/2000/svg" xmlns:xlink="http://www.w3.org/1999/xlink">
    <!-- Generator: Sketch 63.1 (92452) - https://sketch.com -->
    <title>4.组件/2.通用/icon/16/暂停</title>
    <desc>Created with Sketch.</desc>
    <defs>
        <path d="M13.5,0 C14.8807119,0 16,1.11928813 16,2.5 L16,13.5 C16,14.8807119 14.8807119,16 13.5,16 L2.5,16 C1.11928813,16 0,14.8807119 0,13.5 L0,2.5 C0,1.11928813 1.11928813,0 2.5,0 L13.5,0 Z M13.5,1 L2.5,1 C1.72030388,1 1.07955132,1.59488808 1.00686658,2.35553999 L1,2.5 L1,13.5 C1,14.2796961 1.59488808,14.9204487 2.35553999,14.9931334 L2.5,15 L13.5,15 C14.2796961,15 14.9204487,14.4051119 14.9931334,13.64446 L15,13.5 L15,2.5 C15,1.72030388 14.4051119,1.07955132 13.64446,1.00686658 L13.5,1 Z M9.5,5.5 C10.0522847,5.5 10.5,5.94771525 10.5,6.5 L10.5,9.5 C10.5,10.0522847 10.0522847,10.5 9.5,10.5 L6.5,10.5 C5.94771525,10.5 5.5,10.0522847 5.5,9.5 L5.5,6.5 C5.5,5.94771525 5.94771525,5.5 6.5,5.5 L9.5,5.5 Z" id="path-1"></path>
    </defs>
    <g id="4.组件/2.通用/icon/16/暂停" stroke="none" stroke-width="1" fill="none" fill-rule="evenodd">
        <mask id="mask-2" fill="white">
            <use xlink:href="#path-1"></use>
        </mask>
        <use id="形状结合" fill="#0067FF" fill-rule="nonzero" xlink:href="#path-1"></use>
        <g id="3.颜色/10.辅助说明文本" mask="url(#mask-2)" fill="#0067FF">
            <rect id="矩形备份-6" x="0" y="0" width="16" height="16"></rect>
        </g>
    </g>
</svg>