<?xml version="1.0" encoding="UTF-8"?>
<svg width="16px" height="16px" viewBox="0 0 16 16" version="1.1" xmlns="http://www.w3.org/2000/svg" xmlns:xlink="http://www.w3.org/1999/xlink">
    <!-- Generator: Sketch 63.1 (92452) - https://sketch.com -->
    <title>对比-禁用</title>
    <desc>Created with Sketch.</desc>
    <g id="IDE-Lignt-Components" stroke="none" stroke-width="1" fill="none" fill-rule="evenodd">
        <g id="Genera通用组件-按钮" transform="translate(-683.000000, -959.000000)" fill="#CCCCCC" fill-rule="nonzero">
            <g id="下拉按钮备份" transform="translate(519.000000, 669.000000)">
                <g id="对比-禁用" transform="translate(164.000000, 290.000000)">
                    <g id="对比">
                        <path d="M3.84871762,11.7715211 L1.20778314,11.7715211 C1.00463432,11.7715211 0.821800402,11.609002 0.821800402,11.3855383 L0.821800402,1.20778314 C0.821800402,1.00463432 0.984319448,0.821800402 1.20778314,0.821800402 L11.3855383,0.821800402 C11.5886872,0.821800402 11.7715211,0.984319448 11.7715211,1.20778314 L11.7715211,3.82840274 L12.5841163,3.82840274 L12.5841163,1.20778314 C12.5841163,0.557706948 12.0559294,0.00920518506 11.3855383,0.00920518506 L1.20778314,0.00920518506 C0.557706948,0.00920518506 0.00920518506,0.537392074 0.00920518506,1.20778314 L0.00920518506,11.3855383 C0.00920518506,12.0356145 0.537392074,12.5841163 1.20778314,12.5841163 L3.82840274,12.5841163 L3.82840274,11.7715211 L3.84871762,11.7715211 Z" id="路径"></path>
                        <path d="M14.6359193,15.9970163 L4.68162772,15.9970163 C3.95029202,15.9970163 3.36116049,15.4078847 3.36116049,14.676549 L3.36116049,4.72225749 C3.36116049,3.99092179 3.95029204,3.40179024 4.68162772,3.40179024 L14.6359193,3.40179024 C15.367255,3.40179024 15.9563865,3.99092179 15.9563865,4.72225749 L15.9563865,14.676549 C15.9563865,15.4078847 15.3672549,15.9970163 14.6359193,15.9970163 Z M4.70194262,4.25501524 C4.41753429,4.25501524 4.1940706,4.47847893 4.1940706,4.76288726 L4.1940706,14.7171788 C4.1940706,15.0015871 4.41753429,15.2250508 4.70194262,15.2250508 L14.6562341,15.2250508 C14.9406425,15.2250508 15.1641061,15.0015871 15.1641061,14.7171788 L15.1641061,4.76288726 C15.1641061,4.47847893 14.9406425,4.25501524 14.6562341,4.25501524 L4.70194262,4.25501524 Z" id="形状"></path>
                        <path d="M6.2865033,6.75374555 L13.2341925,6.75374555 L13.2341925,7.60697055 L6.2865033,7.60697055 L6.2865033,6.75374555 Z M6.2865033,9.47593956 L13.2341925,9.47593956 L13.2341925,10.3291645 L6.2865033,10.3291645 L6.2865033,9.47593956 Z M6.2865033,12.116874 L13.2341925,12.116874 L13.2341925,12.970099 L6.2865033,12.970099 L6.2865033,12.116874 Z" id="形状"></path>
                    </g>
                </g>
            </g>
        </g>
    </g>
</svg>