<?xml version="1.0" encoding="UTF-8"?>
<svg width="16px" height="16px" viewBox="0 0 16 16" version="1.1" xmlns="http://www.w3.org/2000/svg" xmlns:xlink="http://www.w3.org/1999/xlink">
    <!-- Generator: Sketch 63.1 (92452) - https://sketch.com -->
    <title>4.组件/2.通用/icon/16/编辑备份</title>
    <desc>Created with Sketch.</desc>
    <defs>
        <path d="M15.5,15 C15.7761424,15 16,15.2238576 16,15.5 C16,15.7454599 15.8231248,15.9496084 15.5898756,15.9919443 L15.5,16 L0.5,16 C0.223857625,16 0,15.7761424 0,15.5 C0,15.2545401 0.176875161,15.0503916 0.410124368,15.0080557 L0.5,15 L15.5,15 Z M11.0509511,1.06512755 C11.8044638,0.311624149 13.0261468,0.311624149 13.7796595,1.06512755 L13.7796595,1.06512755 L14.9348629,2.22031668 C15.688379,2.9738235 15.688379,4.19550199 14.9348629,4.94900881 L14.9348629,4.94900881 L6.55367422,13.3300939 C6.39419874,13.4895674 6.19530485,13.6039243 5.97725088,13.661517 L5.97725088,13.661517 L2.94804163,14.4615953 C2.33211531,14.6242745 1.70092763,14.2568503 1.52899479,13.5985312 C1.50528045,13.4615465 1.5,13.4234187 1.5,13.3463657 L1.50081288,13.3033634 C1.50177555,13.2813826 1.50373776,13.2596977 1.50743364,13.2324047 L1.50743364,13.2324047 L1.53824506,13.0518049 L2.33833329,10.0226331 C2.39592725,9.8045796 2.51028639,9.60568672 2.66976244,9.44621263 L2.66976244,9.44621263 Z M5.453,8.076 L3.37686485,10.1533238 C3.34236992,10.1878183 3.3176341,10.2308387 3.30517666,10.2780032 L3.30517666,10.2780032 L2.51433869,13.2647797 C2.5019418,13.3363897 2.5,13.3504106 2.5,13.3463657 L2.5,13.3463657 L2.50508843,13.3855563 C2.52673397,13.4675073 2.61072016,13.516397 2.6926774,13.4947504 L2.6926774,13.4947504 L5.72188666,12.694672 C5.7690539,12.6822142 5.8120763,12.6574778 5.84657181,12.6229827 L5.84657181,12.6229827 L7.904,10.564 L5.453,8.076 Z M9.522,4.008 L6.16,7.369 L8.612,9.856 L11.961,6.507 L9.522,4.008 Z M13.0725571,1.7722387 C12.7095677,1.40925377 12.121043,1.40925377 11.7580535,1.7722387 L11.7580535,1.7722387 L10.229,3.3 L12.669,5.799 L14.2277605,4.24189765 C14.5604977,3.90916459 14.5882258,3.38692767 14.3109448,3.02261063 L14.2277605,2.92742783 Z" id="path-1"></path>
    </defs>
    <g id="1230-TI2需求设计-11月" stroke="none" stroke-width="1" fill="none" fill-rule="evenodd">
        <g id="用户体验-图标优化" transform="translate(-503.000000, -553.000000)">
            <g id="4.组件/2.通用/icon/16/编辑" transform="translate(503.000000, 553.000000)">
                <mask id="mask-2" fill="white">
                    <use xlink:href="#path-1"></use>
                </mask>
                <use id="蒙版" fill="#979797" fill-rule="nonzero" xlink:href="#path-1"></use>
                <g id="3.颜色/6.悬浮颜色" mask="url(#mask-2)" fill="#267DFF" fill-rule="evenodd">
                    <rect id="矩形" x="0" y="0" width="16" height="16"></rect>
                </g>
            </g>
        </g>
    </g>
</svg>