<?xml version="1.0" encoding="UTF-8"?>
<svg width="16px" height="16px" viewBox="0 0 16 16" version="1.1" xmlns="http://www.w3.org/2000/svg" xmlns:xlink="http://www.w3.org/1999/xlink">
    <!-- Generator: Sketch 63.1 (92452) - https://sketch.com -->
    <title>4.组件/2.通用/icon/16/下载备份 3</title>
    <desc>Created with Sketch.</desc>
    <defs>
        <path d="M15.5,10.5 C15.7454599,10.5 15.9496084,10.6768752 15.9919443,10.9101244 L16,11 L16,14.1428571 C16,14.858177 15.4214798,15.4291874 14.6994551,15.4938899 L14.5625,15.5 L1.4375,15.5 C0.699236538,15.5 0.0772890737,14.9710672 0.00667332861,14.2752001 L0,14.1428571 L0,11 C0,10.7238576 0.223857625,10.5 0.5,10.5 C0.745459889,10.5 0.94960837,10.6768752 0.991944331,10.9101244 L1,11 L1,14.1428571 C1,14.3062603 1.14269031,14.4571454 1.34659969,14.4923135 L1.4375,14.5 L14.5625,14.5 C14.7822379,14.5 14.9523954,14.3695403 14.9915014,14.2118198 L15,14.1428571 L15,11 C15,10.7238576 15.2238576,10.5 15.5,10.5 Z M7.79469723,-5.37234167e-06 C8.04015674,0.000428302226 8.24399683,0.177658782 8.28592645,0.410981376 L8.29382131,0.500870904 L8.278,9.438 L12.3105524,6.11419405 C12.4999522,5.95805858 12.7699848,5.96468002 12.95102,6.11772825 L13.0144052,6.1819532 C13.1705407,6.37135297 13.1639192,6.64138553 13.010871,6.82242079 L12.946646,6.88580595 L8.05437544,10.9158137 L7.99921162,10.9477629 C7.94894652,10.9735678 7.89663377,10.9894769 7.8441361,10.996582 L7.75714264,10.9996425 L7.72153772,10.9975161 L7.66409684,10.9873185 L7.58022246,10.9600511 L7.50413004,10.9195082 L7.44350711,10.8730641 L2.96092521,6.87306413 C2.75488758,6.68920792 2.73690598,6.37313651 2.92076219,6.16709888 C3.08418994,5.98395432 3.35208401,5.94939725 3.55430521,6.07310703 L3.62672744,6.12693587 L7.278,9.38399921 L7.29382131,0.499129096 C7.29430807,0.22298714 7.51855527,-0.000480228248 7.79469723,-5.37234167e-06 Z" id="path-1"></path>
    </defs>
    <g id="1230-TI2需求设计-11月" stroke="none" stroke-width="1" fill="none" fill-rule="evenodd">
        <g id="用户体验-图标优化" transform="translate(-681.000000, -654.000000)">
            <g id="4.组件/2.通用/icon/16/下载" transform="translate(681.000000, 654.000000)">
                <mask id="mask-2" fill="white">
                    <use xlink:href="#path-1"></use>
                </mask>
                <use id="蒙版" fill="#979797" fill-rule="nonzero" xlink:href="#path-1"></use>
                <g id="3.颜色/11.禁用态-输入框默认文本" mask="url(#mask-2)" fill="#CCCCCC" fill-rule="evenodd">
                    <rect id="矩形备份-6" x="0" y="0" width="16" height="16"></rect>
                </g>
            </g>
        </g>
    </g>
</svg>