<?xml version="1.0" encoding="UTF-8"?>
<svg width="14px" height="14px" viewBox="0 0 14 14" version="1.1" xmlns="http://www.w3.org/2000/svg" xmlns:xlink="http://www.w3.org/1999/xlink">
    <!-- Generator: Sketch 63.1 (92452) - https://sketch.com -->
    <title>按下-筛选用户</title>
    <desc>Created with Sketch.</desc>
    <g id="页面-1" stroke="none" stroke-width="1" fill="none" fill-rule="evenodd">
        <g id="7.9”-iPad-mini" transform="translate(-561.000000, -243.000000)" fill="#0057D9" fill-rule="nonzero">
            <g id="按下-筛选用户" transform="translate(561.000000, 243.000000)">
                <path d="M13.0133234,0 L0.986640313,0 C0.441733915,0 0,0.424425298 0,0.947980437 L0.00904946665,1.07609211 C0.0330476044,1.24514936 0.104239378,1.40570768 0.216203666,1.54017912 L4.53338105,6.7259212 L4.53338105,13.0520196 C4.53338105,13.5755747 4.97511497,14 5.52002136,14 C5.67319243,14 5.82425996,13.9657352 5.96126033,13.899919 L8.92118127,12.4779484 L9.04058508,12.4101385 C9.30492597,12.2348239 9.46658262,11.9442338 9.46658262,11.6300489 L9.46658262,6.72473622 L13.78376,1.54017912 C14.1241603,1.13135124 14.0551731,0.534794384 13.6296727,0.207732082 C13.4547285,0.0732606411 13.2373612,0 13.0133234,0 Z M12.4992683,1.18497555 L8.44948589,6.04986691 L8.37325785,6.15533697 C8.28208114,6.3017526 8.23328223,6.46985813 8.23328223,6.64206559 L8.23328223,11.482413 L5.76668144,12.6673886 L5.76668144,6.64206559 L5.75763198,6.51395392 C5.73363384,6.34489667 5.66244207,6.18433835 5.55047778,6.04986691 L1.49946209,1.18497555 L12.4992683,1.18497555 Z" id="形状结合"></path>
            </g>
        </g>
    </g>
</svg>