<?xml version="1.0" encoding="UTF-8"?>
<svg width="16px" height="16px" viewBox="0 0 16 16" version="1.1" xmlns="http://www.w3.org/2000/svg" xmlns:xlink="http://www.w3.org/1999/xlink">
    <!-- Generator: Sketch 63.1 (92452) - https://sketch.com -->
    <title>4.组件/2.通用/icon/16/导入2备份 2</title>
    <desc>Created with Sketch.</desc>
    <defs>
        <path d="M5.96,-7.26779747e-14 C6.12137261,0.00130455611 6.27308364,0.0771177596 6.3710081,0.205389423 C6.46893257,0.333661087 6.50207649,0.5 6.4608,0.656 C6.39204614,0.886704616 6.17830502,1.04357884 5.9376,1.04 L5.9376,1.04 L1.3696,1.04 C1.18846882,1.04215912 1.04215912,1.18846882 1.04,1.3696 L1.04,1.3696 L1.04,14.64 C1.04042426,14.8223796 1.187233,14.9706137 1.3696,14.9728 L1.3696,14.9728 L14.6304,14.9728 C14.8143302,14.9728005 14.9635589,14.8239297 14.964,14.64 L14.964,14.64 L14.964,10.0696 C14.9596559,9.78521815 15.180074,9.54787192 15.464,9.5312 C15.6031025,9.52557009 15.7385624,9.57647406 15.8395318,9.67231963 C15.9405012,9.7681652 15.9983845,9.90079303 16,10.04 L16,10.04 L16,14.8 C16,15.4627417 15.4627417,16 14.8,16 L14.8,16 L1.2,16 C0.5372583,16 0,15.4627417 0,14.8 L0,14.8 L0,1.2 C0,0.5372583 0.5372583,-7.26779747e-14 1.2,-7.26779747e-14 L1.2,-7.26779747e-14 Z M15.5096,-1.59816415e-13 C15.6402733,0.0044280843 15.7642643,0.0588352163 15.856,0.152 C15.9508321,0.238559173 16.0033806,0.362048164 16,0.4904 C15.9959893,0.618963818 15.9430526,0.741147556 15.852,0.832 L15.852,0.832 L7.172,9.5112 L11.3896,9.5112 C11.6767881,9.5112 11.9096,9.74401193 11.9096,10.0312 C11.9096,10.3183881 11.6767881,10.5512 11.3896,10.5512 L11.3896,10.5512 L5.9496,10.5512 C5.81310108,10.548885 5.68342167,10.4911214 5.5904,10.3912 L5.5904,10.3912 L5.5258224,10.3102754 C5.46839747,10.2245534 5.43287044,10.1254113 5.4232,10.0216 L5.4232,10.0216 L5.4232,4.588 C5.42707379,4.3033156 5.6569156,4.07347379 5.9416,4.0696 C6.2262844,4.07347379 6.45612621,4.3033156 6.46,4.588 L6.46,4.588 L6.46,8.8368 L15.172,0.144 C15.2583118,0.0492934091 15.3815044,-0.00325316498 15.5096,-1.59816415e-13 Z" id="path-1"></path>
    </defs>
    <g id="1230-TI2需求设计-11月" stroke="none" stroke-width="1" fill="none" fill-rule="evenodd">
        <g id="用户体验-图标优化" transform="translate(-650.000000, -598.000000)">
            <g id="4.组件/2.通用/icon/16/导入2" transform="translate(650.000000, 598.000000)">
                <g>
                    <mask id="mask-2" fill="white">
                        <use xlink:href="#path-1"></use>
                    </mask>
                    <use id="形状结合" fill="#979797" fill-rule="nonzero" xlink:href="#path-1"></use>
                    <g id="3.颜色/7.按下颜色" mask="url(#mask-2)" fill="#0057D9">
                        <rect id="矩形" x="0" y="0" width="16" height="16"></rect>
                    </g>
                </g>
            </g>
        </g>
    </g>
</svg>