<?xml version="1.0" encoding="UTF-8"?>
<svg width="16px" height="16px" viewBox="0 0 16 16" version="1.1" xmlns="http://www.w3.org/2000/svg" xmlns:xlink="http://www.w3.org/1999/xlink">
    <!-- Generator: Sketch 63.1 (92452) - https://sketch.com -->
    <title>加载中</title>
    <desc>Created with Sketch.</desc>
    <g id="Sampling分析模块" stroke="none" stroke-width="1" fill="none" fill-rule="evenodd">
        <g id="guardian部署过程阶段提示1" transform="translate(-1440.000000, -474.000000)" fill="#267DFF" fill-rule="nonzero">
            <g id="编组-27" transform="translate(1440.000000, 472.000000)">
                <g id="加载中" transform="translate(0.000000, 2.000000)">
                    <rect id="矩形" x="7" y="0" width="2" height="5" rx="1"></rect>
                    <rect id="矩形" opacity="0.1" transform="translate(11.889087, 4.110913) rotate(45.000000) translate(-11.889087, -4.110913) " x="10.8890874" y="1.610913" width="2" height="5" rx="1"></rect>
                    <rect id="矩形" opacity="0.3" transform="translate(13.500000, 8.000000) rotate(90.000000) translate(-13.500000, -8.000000) " x="12.5" y="5.5" width="2" height="5" rx="1"></rect>
                    <rect id="矩形" opacity="0.5" transform="translate(11.889087, 11.889087) rotate(135.000000) translate(-11.889087, -11.889087) " x="10.8890866" y="9.389087" width="2" height="5" rx="1"></rect>
                    <rect id="矩形" opacity="0.7" transform="translate(8.000000, 13.500000) rotate(180.000000) translate(-8.000000, -13.500000) " x="7" y="11" width="2" height="5" rx="1"></rect>
                    <rect id="矩形" opacity="0.9" transform="translate(4.110913, 11.889087) rotate(-135.000000) translate(-4.110913, -11.889087) " x="3.11091342" y="9.389087" width="2" height="5" rx="1"></rect>
                    <rect id="矩形" transform="translate(2.500000, 8.000000) rotate(-90.000000) translate(-2.500000, -8.000000) " x="1.5" y="5.5" width="2" height="5" rx="1"></rect>
                    <rect id="矩形" transform="translate(4.110913, 4.110913) rotate(-45.000000) translate(-4.110913, -4.110913) " x="3.11091258" y="1.610913" width="2" height="5" rx="1"></rect>
                </g>
            </g>
        </g>
    </g>
</svg>