<?xml version="1.0" encoding="UTF-8"?>
<svg width="16px" height="16px" viewBox="0 0 16 16" version="1.1" xmlns="http://www.w3.org/2000/svg" xmlns:xlink="http://www.w3.org/1999/xlink">
    <!-- Generator: Sketch 63.1 (92452) - https://sketch.com -->
    <title>默认-修改名称</title>
    <desc>Created with Sketch.</desc>
    <g id="页面-1" stroke="none" stroke-width="1" fill="none" fill-rule="evenodd">
        <g id="7.9”-iPad-mini" transform="translate(-497.000000, -94.000000)" fill="#0067FF" fill-rule="nonzero">
            <g id="默认-修改名称" transform="translate(497.000000, 94.000000)">
                <path d="M0,13.2066667 C0.00367485431,14.5626829 1.10397876,15.66 2.46,15.66 L13.1266667,15.66 C14.4826879,15.66 15.5829918,14.5626829 15.5866667,13.2066667 L15.5866667,7.87333333 C15.5866667,7.5051435 15.2881898,7.20666667 14.92,7.20666667 L14.92,7.20666667 C14.5518102,7.20666667 14.2533333,7.5051435 14.2533333,7.87333333 L14.2533333,13.2066667 C14.2533333,13.8141799 13.7608466,14.3066667 13.1533333,14.3066667 L2.48666667,14.3066667 C2.18580247,14.3212714 1.89211146,14.2118589 1.67413762,14.0039648 C1.45616377,13.7960707 1.33297907,13.5078849 1.33333333,13.2066667 L1.33333333,2.54 C1.3296238,2.24127642 1.44757523,1.95389248 1.66007463,1.74390786 C1.87257404,1.53392324 2.16134175,1.41940129 2.46,1.42666667 L7.79333333,1.42666667 C8.16152317,1.42666667 8.46,1.12818983 8.46,0.76 C8.46,0.391810167 8.16152317,0.0933333333 7.79333333,0.0933333333 L2.46,0.0933333333 C1.11172573,0.0933333333 0.0146154369,1.17847161 0,2.52666667 L0,13.2066667 Z" id="路径"></path>
                <path d="M15.6333333,1.05333333 C15.6148606,0.755195705 15.4780577,0.476789808 15.2533333,0.28 C15.0310707,0.0808109648 14.737776,-0.0201593368 14.44,-4.19803081e-16 C14.1434321,0.0172511941 13.8666516,0.154438084 13.6733333,0.38 L6.48666667,7.56666667 L8.06666667,9.14666667 L15.2466667,2 L15.3333333,1.86666667 C15.5391117,1.64722157 15.6473257,1.35384138 15.6333333,1.05333333 L15.6333333,1.05333333 Z" id="路径"></path>
                <path d="M4.76666667,9.28666667 C4.35036179,9.72804266 4.36121181,10.4206537 4.79113768,10.8487731 C5.22106355,11.2768926 5.9137141,11.2848263 6.35333333,10.8666667 L7.14,10.0733333 L5.56,8.49333333 L4.76666667,9.28666667 Z" id="路径"></path>
            </g>
        </g>
    </g>
</svg>