<?xml version="1.0" encoding="UTF-8"?>
<svg width="12px" height="12px" viewBox="0 0 12 12" version="1.1" xmlns="http://www.w3.org/2000/svg" xmlns:xlink="http://www.w3.org/1999/xlink">
    <!-- Generator: Sketch 63.1 (92452) - https://sketch.com -->
    <title>从GC Roots到对象的共同路径备份 4</title>
    <desc>Created with Sketch.</desc>
    <g id="页面-1" stroke="none" stroke-width="1" fill="none" fill-rule="evenodd">
        <g id="Heap-Walker5" transform="translate(-68.000000, -419.000000)" fill="#979797">
            <g id="编组-8" transform="translate(68.000000, 291.000000)">
                <g id="从GC-Roots到对象的共同路径" transform="translate(0.000000, 128.000000)">
                    <g id="资源-11">
                        <path d="M0.38,0.84 C0.170131795,0.84 -1.45662562e-16,1.0101318 -1.71358153e-16,1.22 L-1.71358153e-16,5.22 C-0.00269840229,5.32250354 0.0361427658,5.42174712 0.107701154,5.49518862 C0.179259543,5.56863012 0.277460953,5.61000387 0.38,5.61000387 L4.43,5.61000387 C4.53302475,5.61047746 4.6313172,5.56679193 4.7,5.49 C4.77207424,5.41884799 4.81183158,5.32126179 4.81,5.22 L4.81,1.22 C4.81,1.0101318 4.6398682,0.84 4.43,0.84 L0.38,0.84 Z M4,4.88 L0.77,4.88 L0.77,1.61 L4,1.61 L4,4.88 Z" id="形状" fill-rule="nonzero"></path>
                        <path d="M10.78,7.19 L6.78,7.19 C6.67749646,7.1873016 6.57825288,7.22614277 6.50481138,7.29770115 C6.43136988,7.36925954 6.38999613,7.46746095 6.38999613,7.57 L6.38999613,11.57 C6.38952254,11.6730248 6.43320807,11.7713172 6.51,11.84 C6.58115201,11.9120742 6.67873821,11.9518316 6.78,11.95 L10.78,11.95 C10.8807823,11.95 10.9774368,11.9099644 11.0487006,11.8387006 C11.1199644,11.7674368 11.16,11.6707823 11.16,11.57 L11.16,7.57 C11.16,7.46921773 11.1199644,7.37256325 11.0487006,7.30129942 C10.9774368,7.2300356 10.8807823,7.19 10.78,7.19 Z M10.39,11.19 L7.12,11.19 L7.12,8 L10.39,8 L10.39,11.19 Z" id="形状" fill-rule="nonzero"></path>
                        <path d="M9,0.11 C8.84910751,-0.0347667392 8.61089249,-0.0347667392 8.46,0.11 L5.63,3 C5.55700784,3.07138711 5.5140761,3.16798353 5.50999613,3.27 C5.50952254,3.37302475 5.55320807,3.4713172 5.63,3.54 L8.49,6.37 C8.56136681,6.44206212 8.65857924,6.48260516 8.76,6.48260516 C8.86142076,6.48260516 8.95863319,6.44206212 9.03,6.37 L11.89,3.51 C12.0347667,3.35910751 12.0347667,3.12089249 11.89,2.97 L9,0.11 Z M8.76,5.56 L6.44,3.24 L8.76,0.93 L11.07,3.24 L8.76,5.56 Z" id="形状" fill-rule="nonzero"></path>
                        <path d="M4.43,7.19 L0.43,7.19 C0.320878345,7.17551172 0.210836058,7.20905495 0.128350458,7.2819492 C0.0458648586,7.35484345 -0.000957615741,7.45992489 -1.44067259e-05,7.57 L-1.44067259e-05,11.57 C0.000382750489,11.6708362 0.0398070367,11.767605 0.11,11.84 C0.173622123,11.928791 0.271564769,11.9868311 0.38,12 L4.43,12 C4.53078227,12 4.62743675,11.9599644 4.69870058,11.8887006 C4.7699644,11.8174368 4.81,11.7207823 4.81,11.62 L4.81,7.62 C4.82448828,7.51087834 4.79094505,7.40083606 4.7180508,7.31835046 C4.64515655,7.23586486 4.54007511,7.18904238 4.43,7.19 L4.43,7.19 Z M4.04,11.19 L0.77,11.19 L0.77,8 L4,8 L4.04,11.19 Z" id="形状" fill-rule="nonzero"></path>
                    </g>
                </g>
            </g>
        </g>
    </g>
</svg>