<?xml version="1.0" encoding="UTF-8"?>
<svg width="32px" height="32px" viewBox="0 0 32 32" version="1.1" xmlns="http://www.w3.org/2000/svg" xmlns:xlink="http://www.w3.org/1999/xlink">
    <!-- Generator: Sketch 63.1 (92452) - https://sketch.com -->
    <title>编组</title>
    <desc>Created with Sketch.</desc>
    <defs>
        <path d="M13.4918919,-3.55271368e-15 C13.7454047,-3.55271368e-15 13.9756109,0.153710903 14.083961,0.395069286 C14.1923863,0.636320168 14.1584893,0.921577521 13.9982215,1.12759313 L13.9982215,1.12759313 L9.62994553,6.72722784 L9.60584893,14.8090035 C9.59915229,15.0440415 9.47945933,15.2591722 9.28841709,15.3800127 C9.18460042,15.4453452 9.06793599,15.4782157 8.95134679,15.4782157 C8.85204472,15.4782157 8.75197139,15.4544818 8.66013718,15.4065197 L8.66013718,15.4065197 L5.08262861,13.6457882 C4.85989023,13.5293333 4.71922325,13.2896518 4.71922325,13.0277198 L4.71922325,13.0277198 L4.71922325,6.72681939 L0.158362567,1.13950305 C-0.00871474923,0.935078277 -0.0470134808,0.647047689 0.0598317214,0.402099139 C0.166601685,0.156871113 0.399084056,-3.55271368e-15 0.654929424,-3.55271368e-15 L0.654929424,-3.55271368e-15 Z M15.9287714,13.0679426 L15.9287714,14.2850966 L11.0556519,14.2850966 L11.0556519,13.0679426 L15.9287714,13.0679426 Z M8.30724703,7.16112256 L6.02835918,7.16112256 L6.02835918,12.599823 L8.28995994,13.6925679 L8.30724703,7.16112256 Z M15.9287714,10.6336563 L15.9287714,11.8508102 L11.0556519,11.8508102 L11.0556519,10.6336563 L15.9287714,10.6336563 Z M15.9287714,7.98342218 L15.9287714,9.20055462 L11.0556519,9.20055462 L11.0556519,7.98342218 L15.9287714,7.98342218 Z M12.1059703,1.37957153 L2.08142578,1.37957153 L5.67434038,5.78144353 L8.67240181,5.78144353 L12.1059703,1.37957153 Z" id="path-1"></path>
    </defs>
    <g id="IDE-Lignt-Components" stroke="none" stroke-width="1" fill="none" fill-rule="evenodd">
        <g id="Genera通用组件-按钮" transform="translate(-197.000000, -1451.000000)">
            <g id="编组" transform="translate(197.000000, 1451.000000)">
                <rect id="bgc" stroke="#979797" fill="#FFFFFF" x="0.5" y="0.5" width="31" height="31" rx="1"></rect>
                <g id="居乐乐-筛选" transform="translate(8.000000, 8.000000)">
                    <g id="3.颜色/9.辅助文字" transform="translate(0.000000, -0.000000)">
                        <mask id="mask-2" fill="white">
                            <use xlink:href="#path-1"></use>
                        </mask>
                        <use id="蒙版" fill="#6C7280" fill-rule="nonzero" xlink:href="#path-1"></use>
                        <g mask="url(#mask-2)" fill="#888888" id="矩形">
                            <g transform="translate(-2.000000, -2.000000)">
                                <rect x="0" y="0" width="20" height="20"></rect>
                            </g>
                        </g>
                    </g>
                </g>
            </g>
        </g>
    </g>
</svg>