<?xml version="1.0" encoding="UTF-8"?>
<svg width="16px" height="16px" viewBox="0 0 16 16" version="1.1" xmlns="http://www.w3.org/2000/svg" xmlns:xlink="http://www.w3.org/1999/xlink">
    <!-- Generator: Sketch 63.1 (92452) - https://sketch.com -->
    <title>悬浮-导出</title>
    <desc>Created with Sketch.</desc>
    <g id="页面-1" stroke="none" stroke-width="1" fill="none" fill-rule="evenodd">
        <g id="7.9”-iPad-mini" transform="translate(-698.000000, -176.000000)" fill="#267DFF" fill-rule="nonzero">
            <g id="悬浮-导出" transform="translate(698.000000, 176.000000)">
                <path d="M12.3617391,4.47304348 C12.3602492,4.39428431 12.3277524,4.31929182 12.2713043,4.26434783 L8.0973913,0.0904347826 C8.04243662,0.0343468916 7.9672187,0.00274001331 7.88869565,0.00274001331 C7.8101726,0.00274001331 7.73495469,0.0343468916 7.68,0.0904347826 L3.50608696,4.26434783 C3.44682965,4.31730925 3.41377455,4.39359025 3.41557631,4.47304348 C3.41557631,4.55213892 3.44830868,4.62772275 3.50608696,4.68173913 L4.0973913,5.27304348 C4.15234599,5.32913137 4.22756391,5.36073825 4.30608696,5.36073825 C4.38461,5.36073825 4.45982792,5.32913137 4.51478261,5.27304348 L7.16521739,2.61565217 L7.16521739,10.08 C7.15886694,10.1611151 7.18833671,10.240946 7.24586925,10.2984786 C7.30340179,10.3560111 7.38323274,10.3854809 7.46434783,10.3791304 L8.30608696,10.3791304 C8.38775792,10.3852319 8.46811091,10.3559311 8.52668372,10.2986895 C8.58525652,10.2414479 8.61639657,10.1617896 8.61217391,10.08 L8.61217391,2.61565217 L11.2626087,5.27304348 C11.3801665,5.38261376 11.5624422,5.38261376 11.68,5.27304348 L12.2713043,4.68173913 C12.3265489,4.62597287 12.3588262,4.55148675 12.3617391,4.47304348 Z" id="路径"></path>
                <path d="M15.4782609,7.65217391 L12.5217391,7.65217391 C12.4399495,7.64795126 12.3602912,7.6790913 12.3030496,7.73766411 C12.245808,7.79623692 12.2165072,7.8765899 12.2226087,7.95826087 L12.2226087,8.8 C12.2162582,8.88111509 12.245728,8.96094604 12.3032606,9.01847858 C12.3607931,9.07601112 12.440624,9.10548089 12.5217391,9.09913043 L14.3304348,9.09913043 L14.3304348,13.4330435 C14.3363873,13.5786956 14.2811337,13.7201959 14.1780561,13.8232735 C14.0749785,13.9263511 13.9334782,13.9816047 13.7878261,13.9756522 L1.96173913,13.9756522 C1.816087,13.9816047 1.67458671,13.9263511 1.57150913,13.8232735 C1.46843154,13.7201959 1.4131779,13.5786956 1.41913043,13.4330435 L1.41913043,9.11304348 L3.24869565,9.11304348 C3.32922833,9.11491684 3.40711278,9.08423037 3.4647243,9.0279282 C3.52233582,8.97162604 3.55480439,8.8944675 3.55478261,8.81391304 L3.55478261,7.97217391 C3.56554255,7.88693625 3.53730672,7.8013895 3.47792094,7.73930436 C3.41853515,7.67721923 3.33432715,7.64521106 3.24869565,7.65217391 L0.299130435,7.65217391 C0.217340799,7.64795126 0.137682537,7.6790913 0.0804409307,7.73766411 C0.023199324,7.79623692 -0.00610150948,7.8765899 3.83807569e-16,7.95826087 L3.83807569e-16,15.1234783 C-0.00635045426,15.2045934 0.0231193196,15.2844243 0.0806518588,15.3419568 C0.138184398,15.3994894 0.218015345,15.4289591 0.299130435,15.4226087 L15.4782609,15.4226087 C15.559376,15.4289591 15.6392069,15.3994894 15.6967394,15.3419568 C15.754272,15.2844243 15.7837418,15.2045934 15.7773913,15.1234783 L15.7773913,7.97217391 C15.7878429,7.88822446 15.7604883,7.80396708 15.702718,7.74216628 C15.6449477,7.68036549 15.5627236,7.6473991 15.4782609,7.65217391 Z" id="路径"></path>
            </g>
        </g>
    </g>
</svg>