<?xml version="1.0" encoding="UTF-8"?>
<svg width="16px" height="16px" viewBox="0 0 16 16" version="1.1" xmlns="http://www.w3.org/2000/svg" xmlns:xlink="http://www.w3.org/1999/xlink">
    <!-- Generator: Sketch 63.1 (92452) - https://sketch.com -->
    <title>禁用-删除2</title>
    <desc>Created with Sketch.</desc>
    <g id="页面-1" stroke="none" stroke-width="1" fill="none" fill-rule="evenodd">
        <g id="7.9”-iPad-mini" transform="translate(-730.000000, -324.000000)" fill="#CCCCCC" fill-rule="nonzero">
            <g id="禁用-删除2" transform="translate(730.000000, 324.000000)">
                <path d="M14.3015385,5.30461538 L14.3015385,5.20615385 C14.2500755,4.90764564 13.9890337,4.69098097 13.6861538,4.69538462 L13.5876923,4.69538462 C13.2867337,4.74414054 13.0668455,5.00591213 13.0707692,5.31076923 L13.0707692,14.3323077 L8.78153846,14.3323077 L8.78153846,4.96 C8.75095037,4.62013247 8.45063676,4.36941195 8.11076923,4.40000003 C7.7709017,4.4305881 7.52018117,4.7309017 7.55076923,5.07076923 L7.55076923,14.3323077 L3.34769231,14.3323077 L3.34769231,5.30461538 L3.34769231,5.20615385 C3.31710422,4.86628631 3.01679061,4.61556578 2.67692308,4.64615386 C2.33705554,4.67674194 2.08633501,4.97705554 2.11692308,5.31692308 L2.11692308,15.5815385 L14.3015385,15.5815385 L14.3015385,5.30461538 Z" id="路径"></path>
                <path d="M15.0769231,2.22153846 L1.23076923,2.22153846 L1.12615385,2.22153846 C0.786286308,2.25382588 0.536943353,2.55551708 0.569230769,2.89538462 C0.601518185,3.23525215 0.903209385,3.48459511 1.24307692,3.45230769 L15.1876923,3.45230769 C15.5275598,3.42171961 15.7782804,3.121406 15.7476923,2.78153846 C15.7171042,2.44167092 15.4167906,2.19095038 15.0769231,2.22153846 Z" id="路径"></path>
                <path d="M11.3723077,0 L4.92307692,0 L4.83692308,0 C4.53106692,0.0432305092 4.30465226,0.306503368 4.30766206,0.615384615 C4.30766206,0.955252154 4.58320938,1.23076923 4.92307692,1.23076923 L11.3846154,1.23076923 L11.4830769,1.23076923 C11.7815851,1.17930623 11.9982498,0.918264458 11.9939121,0.615384615 C11.9939121,0.451102629 11.9281753,0.293637276 11.8114339,0.178051734 C11.6946925,0.0624661925 11.5365815,-0.00164282007 11.3723077,0 Z" id="路径"></path>
            </g>
        </g>
    </g>
</svg>