<?xml version="1.0" encoding="UTF-8"?>
<svg width="14px" height="16px" viewBox="0 0 14 16" version="1.1" xmlns="http://www.w3.org/2000/svg" xmlns:xlink="http://www.w3.org/1999/xlink">
    <!-- Generator: Sketch 63.1 (92452) - https://sketch.com -->
    <title>4.组件/2.通用/icon/16/重启备份 3</title>
    <desc>Created with Sketch.</desc>
    <defs>
        <path d="M8.23314188,0.0318913937 C8.3648999,-0.0250317162 8.51728686,-0.00475190954 8.62953924,0.0847160397 L8.62953924,0.0847160397 L10.6502489,1.70127164 C10.7421456,1.77504399 10.7956381,1.88650703 10.7956381,2.004391 C10.7956381,2.12227496 10.7421456,2.233738 10.6502489,2.30751035 L10.6502489,2.30751035 L8.62953924,3.91629405 C8.51289999,4.00844877 8.35392513,4.02599627 8.22004197,3.96154413 C8.0860981,3.89703127 8.00071344,3.7618275 8,3.6131747 L8,3.6131747 L8,2.5 L8,2.5 C4.6862915,2.5 2,5.1862915 2,8.5 C2,11.8137085 4.6862915,14.5 8,14.5 C11.3137085,14.5 14,11.8137085 14,8.5 C14,8.22385763 14.2238576,8 14.5,8 C14.7761424,8 15,8.22385763 15,8.5 C15,12.3659932 11.8659932,15.5 8,15.5 C4.13400675,15.5 1,12.3659932 1,8.5 C1,4.63400675 4.13400675,1.5 8,1.5 L8,0.356762967 C8.01179447,0.213681038 8.10139903,0.0888145036 8.23314188,0.0318913937 Z M7.09188205,5.53992644 C7.25683654,5.46866154 7.44761744,5.49405085 7.58815184,5.60606027 L7.58815184,5.60606027 L10.1179799,7.62990754 C10.23303,7.72226686 10.3,7.86181305 10.3,8.00939791 C10.3,8.15698278 10.23303,8.29652896 10.1179799,8.38888828 L10.1179799,8.38888828 L7.58815184,10.4030055 C7.4421253,10.5183786 7.24309667,10.5403472 7.07548162,10.4596564 C6.90779054,10.3788895 6.80089319,10.2096211 6.8,10.0235152 L6.8,10.0235152 L6.8,5.9466495 C6.81476609,5.76751804 6.92694655,5.61119134 7.09188205,5.53992644 Z" id="path-1"></path>
    </defs>
    <g id="1230-TI2需求设计-11月" stroke="none" stroke-width="1" fill="none" fill-rule="evenodd">
        <g id="用户体验-图标优化" transform="translate(-438.000000, -653.000000)">
            <g id="4.组件/2.通用/icon/16/重启" transform="translate(437.000000, 653.000000)">
                <mask id="mask-2" fill="white">
                    <use xlink:href="#path-1"></use>
                </mask>
                <use id="蒙版" fill="#979797" fill-rule="nonzero" xlink:href="#path-1"></use>
                <g id="3.颜色/11.禁用态-输入框默认文本" mask="url(#mask-2)" fill="#CCCCCC" fill-rule="evenodd">
                    <rect id="矩形备份-6" x="0" y="0" width="16" height="16"></rect>
                </g>
            </g>
        </g>
    </g>
</svg>