<?xml version="1.0" encoding="UTF-8"?>
<svg width="108px" height="28px" viewBox="0 0 108 28" version="1.1" xmlns="http://www.w3.org/2000/svg" xmlns:xlink="http://www.w3.org/1999/xlink">
    <!-- Generator: Sketch 63.1 (92452) - https://sketch.com -->
    <title>停止</title>
    <desc>Created with Sketch.</desc>
    <g id="1230-TI2需求设计-11月" stroke="none" stroke-width="1" fill="none" fill-rule="evenodd">
        <g id="Profiling重新开始2" transform="translate(-286.000000, -82.000000)">
            <g id="返回停止" transform="translate(48.000000, 82.000000)">
                <g id="停止" transform="translate(238.000000, 0.000000)">
                    <rect id="Rectangle-15" stroke="#979797" fill="#FFFFFF" x="0.5" y="0.5" width="107" height="27" rx="2"></rect>
                    <text id="重新开始" font-family="FZLTHJW--GB1-0, FZLanTingHeiS-R-GB" font-size="12" font-weight="normal" line-spacing="18" fill="#222222">
                        <tspan x="40" y="18">重新开始</tspan>
                    </text>
                    <g id="资源-3" transform="translate(20.000000, 8.000000)" fill="#282B33" fill-rule="nonzero">
                        <path d="M11.8368,7.2864 C12.3253502,4.73903523 11.0421511,2.1810977 8.70812909,1.0496871 C6.3741071,-0.0817234969 3.57116312,0.495467649 1.87404633,2.45698318 C0.176929528,4.41849871 0.00875233169,7.27530829 1.464,9.4224 L1.488,9.4608 L0.528,10.4208 L3.84,10.7856 L3.4752,7.4736 L2.2512,8.6928 L2.2176,8.64 C1.32886328,7.18994422 1.2957985,5.37212508 2.13121391,3.89070825 C2.96662932,2.40929142 4.53929118,1.49698972 6.24,1.5072 L6.24,1.5072 C8.13497871,1.5143334 9.83943799,2.6612337 10.5598465,4.4139478 C11.2802551,6.1666619 10.8750187,8.18069893 9.5328,9.5184 C8.6597209,10.3919549 7.47505653,10.882399 6.24,10.8816 L6.24,10.8816 C5.95135597,10.8867903 5.71935416,11.1209206 5.7168,11.4096 C5.71516199,11.5500557 5.77059092,11.6851637 5.8704,11.784 C5.96744272,11.8835423 6.10098962,11.9390423 6.24,11.9376274 C8.98543627,11.9271717 11.3419195,9.98051162 11.8704,7.2864 L11.8368,7.2864 Z" id="路径"></path>
                    </g>
                </g>
            </g>
        </g>
    </g>
</svg>