<?xml version="1.0" encoding="UTF-8"?>
<svg width="16px" height="16px" viewBox="0 0 16 16" version="1.1" xmlns="http://www.w3.org/2000/svg" xmlns:xlink="http://www.w3.org/1999/xlink">
    <!-- Generator: Sketch 63.1 (92452) - https://sketch.com -->
    <title>默认-重启</title>
    <desc>Created with Sketch.</desc>
    <g id="页面-1" stroke="none" stroke-width="1" fill="none" fill-rule="evenodd">
        <g id="7.9”-iPad-mini" transform="translate(-433.000000, -94.000000)" fill="#0067FF" fill-rule="nonzero">
            <g id="默认-重启" transform="translate(433.000000, 94.000000)">
                <path d="M15.7824,9.7152 C16.4338003,6.31871364 14.7228681,2.90813026 11.6108388,1.3995828 C8.49880946,-0.108964662 4.76155083,0.660623533 2.49872844,3.27597757 C0.235906037,5.89133161 0.0116697756,9.70041105 1.952,12.5632 L1.984,12.6144 L0.704,13.8944 L5.12,14.3808 L4.6336,9.9648 L3.0016,11.5904 L2.9568,11.52 C1.7718177,9.58659229 1.72773133,7.16283344 2.84161855,5.187611 C3.95550576,3.21238856 6.05238824,1.9959863 8.32,2.0096 L8.32,2.0096 C10.8466383,2.01911121 13.1192507,3.54831159 14.0797954,5.88526373 C15.0403401,8.22221586 14.5000249,10.9075986 12.7104,12.6912 C11.5462945,13.8559399 9.96674204,14.5098654 8.32,14.5088 L8.32,14.5088 C7.93514129,14.5157204 7.62580554,14.8278941 7.6224,15.2128 C7.62021599,15.4000742 7.69412122,15.5802182 7.8272,15.712 C7.9565903,15.8447231 8.13465283,15.9187231 8.32,15.9168366 C11.9805817,15.9028956 15.1225593,13.3073488 15.8272,9.7152 L15.7824,9.7152 Z" id="路径"></path>
            </g>
        </g>
    </g>
</svg>