<?xml version="1.0" encoding="UTF-8"?>
<svg width="12px" height="12px" viewBox="0 0 12 12" version="1.1" xmlns="http://www.w3.org/2000/svg" xmlns:xlink="http://www.w3.org/1999/xlink">
    <!-- Generator: Sketch 63.1 (92452) - https://sketch.com -->
    <title>编组 11</title>
    <desc>Created with Sketch.</desc>
    <g id="页面-1" stroke="none" stroke-width="1" fill="none" fill-rule="evenodd">
        <g id="Heap-Walker5" transform="translate(-80.000000, -326.000000)">
            <g id="编组-12" transform="translate(68.000000, 313.000000)">
                <g id="4.组件/3.数据录入/5.复选框/有文本/选中/1.默认" transform="translate(10.000000, 10.000000)">
                    <g id="编组-11" transform="translate(0.000000, 1.000000)">
                        <g id="编组" transform="translate(2.000000, 2.000000)">
                            <polygon id="Fill-1" fill="#979797" points="0 3.17535 3.1755 3.17535 3.1755 -0.00015 0 -0.00015"></polygon>
                            <polygon id="Fill-2" fill="#979797" points="3.18225 7.28835 6.35775 7.28835 6.35775 4.11285 3.18225 4.11285"></polygon>
                            <polygon id="Fill-3" fill="#979797" points="8.8245 7.28835 12 7.28835 12 4.11285 8.8245 4.11285"></polygon>
                            <polygon id="Fill-4" fill="#979797" points="3.18225 11.95785 6.35775 11.95785 6.35775 8.78235 3.18225 8.78235"></polygon>
                            <polygon id="Fill-5" fill="#979797" points="1.239 10.6701 1.8735 10.6701 1.8735 2.5401 1.239 2.5401"></polygon>
                            <polygon id="Fill-6" fill="#979797" points="1.239 6.0336 11.40075 6.0336 11.40075 5.39835 1.239 5.39835"></polygon>
                            <polygon id="Fill-7" fill="#979797" points="1.239 10.6701 11.40075 10.6701 11.40075 10.03485 1.239 10.03485"></polygon>
                            <polygon id="Fill-8" fill="#0067FF" points="8.8245 11.95785 12 11.95785 12 8.78235 8.8245 8.78235"></polygon>
                        </g>
                    </g>
                </g>
            </g>
        </g>
    </g>
</svg>