<?xml version="1.0" encoding="UTF-8"?>
<svg width="12px" height="12px" viewBox="0 0 12 12" version="1.1" xmlns="http://www.w3.org/2000/svg" xmlns:xlink="http://www.w3.org/1999/xlink">
    <!-- Generator: Sketch 63.1 (92452) - https://sketch.com -->
    <title>筛选表头备份</title>
    <desc>Created with Sketch.</desc>
    <defs>
        <path d="M2.5411666,6.50630939 L2.62426407,6.57573593 L7,10.9516 L11.3757359,6.57573593 C11.5840156,6.36745631 11.9073249,6.34431413 12.1411666,6.50630939 L12.2242641,6.57573593 C12.4325436,6.78401555 12.4556859,7.10732483 12.2936906,7.3411666 L12.2242641,7.42426407 L7.42426407,12.2242641 C7.21598445,12.4325436 6.89267517,12.4556859 6.6588334,12.2936906 L6.57573593,12.2242641 L1.77573593,7.42426407 C1.54142135,7.18994949 1.54142135,6.81005051 1.77573593,6.57573593 C1.98401555,6.36745631 2.30732483,6.34431413 2.5411666,6.50630939 Z M2.5411666,1.70630939 L2.62426407,1.77573593 L7,6.1516 L11.3757359,1.77573593 C11.5840156,1.56745631 11.9073249,1.54431413 12.1411666,1.70630939 L12.2242641,1.77573593 C12.4325436,1.98401555 12.4556859,2.30732483 12.2936906,2.5411666 L12.2242641,2.62426407 L7.42426407,7.42426407 C7.21598445,7.63254369 6.89267517,7.65568587 6.6588334,7.49369061 L6.57573593,7.42426407 L1.77573593,2.62426407 C1.54142135,2.38994949 1.54142135,2.01005051 1.77573593,1.77573593 C1.98401555,1.56745631 2.30732483,1.54431413 2.5411666,1.70630939 Z" id="path-1"></path>
    </defs>
    <g id="1230-TI2需求设计-11月" stroke="none" stroke-width="1" fill="none" fill-rule="evenodd">
        <g id="堆快照比对-优化8" transform="translate(-1843.000000, -256.000000)">
            <g id="编组-8备份" transform="translate(344.000000, 246.000000)">
                <g id="编组-25" transform="translate(1498.000000, 6.000000)">
                    <g id="筛选表头" transform="translate(0.000000, 3.000000)">
                        <g id="normal">
                            <g>
                                <mask id="mask-2" fill="white">
                                    <use xlink:href="#path-1"></use>
                                </mask>
                                <use id="形状结合" fill="#AAAAAA" fill-rule="nonzero" xlink:href="#path-1"></use>
                                <g id="3.颜色/10.辅助说明文本" mask="url(#mask-2)" fill="#979797">
                                    <rect id="矩形备份-6" x="0" y="0" width="14" height="14"></rect>
                                </g>
                            </g>
                        </g>
                    </g>
                </g>
            </g>
        </g>
    </g>
</svg>