<?xml version="1.0" encoding="UTF-8"?>
<svg width="16px" height="16px" viewBox="0 0 16 16" version="1.1" xmlns="http://www.w3.org/2000/svg" xmlns:xlink="http://www.w3.org/1999/xlink">
    <!-- Generator: Sketch 63.1 (92452) - https://sketch.com -->
    <title>4.组件/2.通用/icon/切换</title>
    <desc>Created with Sketch.</desc>
    <defs>
        <path d="M1.03571429,5.99588279 L14.9642857,5.99588279 C14.9696429,5.99588279 14.9739286,5.99190853 14.9792857,5.99190853 C15.1172582,5.99369875 15.2500018,5.92672101 15.3475684,5.80608605 C15.4451351,5.68545108 15.499305,5.52132205 15.4978571,5.35072784 C15.4967857,5.34542883 15.5,5.34012981 15.5,5.33350605 C15.4978812,5.1107154 15.4036826,4.90476749 15.2503571,4.78770761 L12.095,0.88630862 C11.9650446,0.725627057 11.7756306,0.662873762 11.5981083,0.721687294 C11.4205859,0.780500826 11.2819252,0.95194601 11.2343583,1.1714411 C11.1867913,1.3909362 11.2375446,1.62513467 11.3675,1.78581623 L13.7010714,4.67112931 L1.03571429,4.67112931 C0.739847455,4.67112931 0.5,4.96768547 0.5,5.33350605 C0.5,5.69932662 0.739847455,5.99588279 1.03571429,5.99588279 Z M14.9642857,9.97014322 L1.03571429,9.97014322 C1.03035714,9.97014322 1.02607143,9.97411748 1.02071429,9.97411748 C0.882564511,9.97159184 0.749473676,10.0383333 0.651776356,10.1591298 C0.554079035,10.2799264 0.5,10.4444847 0.502142857,10.6152982 C0.503214286,10.6205972 0.5,10.6258962 0.5,10.63252 C0.5,10.8656766 0.602857143,11.0604153 0.749642857,11.1783184 L3.905,15.0797174 C4.03495536,15.2403989 4.22436942,15.3031522 4.40189174,15.2443387 C4.57941406,15.1855252 4.71807478,15.01408 4.76564174,14.7945849 C4.8132087,14.5750898 4.76245536,14.3408913 4.6325,14.1802098 L2.29892857,11.2948967 L14.9642857,11.2948967 C15.2601525,11.2948967 15.5,10.9983405 15.5,10.63252 C15.5,10.2666994 15.2601525,9.97014322 14.9642857,9.97014322 Z" id="path-1"></path>
    </defs>
    <g id="1230-TI2需求设计-11月" stroke="none" stroke-width="1" fill="none" fill-rule="evenodd">
        <g id="堆快照比对-优化8" transform="translate(-573.000000, -207.000000)">
            <g id="编组-8" transform="translate(344.000000, 204.000000)">
                <g id="2.文本/1.字号/20sp/主要文本" transform="translate(30.000000, 3.000000)">
                    <g id="4.组件/2.通用/icon/切换" transform="translate(199.000000, 0.000000)">
                        <g>
                            <mask id="mask-2" fill="white">
                                <use xlink:href="#path-1"></use>
                            </mask>
                            <use id="形状" fill="#000000" fill-rule="nonzero" xlink:href="#path-1"></use>
                            <g id="3.颜色/10.辅助说明文本" mask="url(#mask-2)" fill="#979797">
                                <g transform="translate(-2.000000, -2.000000)" id="矩形备份-6">
                                    <rect x="0" y="0" width="20" height="20"></rect>
                                </g>
                            </g>
                        </g>
                    </g>
                </g>
            </g>
        </g>
    </g>
</svg>