<?xml version="1.0" encoding="UTF-8"?>
<svg width="16px" height="16px" viewBox="0 0 16 16" version="1.1" xmlns="http://www.w3.org/2000/svg" xmlns:xlink="http://www.w3.org/1999/xlink">
    <title>Web_SFW/icon/16/上一个模块</title>
    <g id="Web_SFW/icon/16/上一个模块" stroke="none" stroke-width="1" fill="none" fill-rule="evenodd">
        <path d="M1,14.3975901 C1,14.7190547 1.52502188,14.9802111 1.87503646,14.9802111 C2.22680112,14.9802111 2.74248927,14.7190547 2.74248927,14.3975901 L2.74248927,9.24769451 L13.2680112,14.8622868 C13.6291095,15.0464425 14.0613776,15.0453655 14.4230593,14.8622868 C14.784741,14.6770543 15,14.3475127 15,13.9781245 L15,2.02416368 C15,1.65585245 14.7853244,1.32415697 14.4224759,1.14000134 C14.2464145,1.0493856 14.0482825,1.00157974 13.8467019,1.00107694 C13.6483604,1.00107694 13.4500187,1.04792354 13.2691779,1.14000134 L2.74248927,6.75459368 L2.74248927,1.58262098 C2.74248927,1.26115635 2.22680112,1 1.87503646,1 C1.52327181,1 1,1.26115635 1,1.58262098 L1,14.3981285 L1,14.3975901 Z M13.6081087,2.67678532 L13.6081087,13.3572724 L3.18059087,8.00222103 L13.6081087,2.67678532 Z" id="形状" fill="#979797" fill-rule="nonzero" transform="translate(8.000000, 8.000000) rotate(-270.000000) translate(-8.000000, -8.000000) "></path>
    </g>
</svg>