<?xml version="1.0" encoding="UTF-8"?>
<svg width="18px" height="18px" viewBox="0 0 18 18" version="1.1" xmlns="http://www.w3.org/2000/svg" xmlns:xlink="http://www.w3.org/1999/xlink">
    <title>Web_SFW/icon/18/保存下载</title>
    <defs>
        <path d="M3.74625,1.14150001 L1.14075,1.14150001 L1.14075,16.884 L16.881375,16.884 L16.881375,4.12275001 L14.245125,1.14150001 L14.245125,8.24999999 C14.245125,8.66421355 13.9093386,8.99999999 13.495125,9 L4.49625001,9 C4.29733764,9 4.1065722,8.92098237 3.96591992,8.78033008 C3.82526763,8.6396778 3.74625,8.44891236 3.74625,8.24999999 L3.74625,1.14150001 Z M0.750000006,0 L14.279625,0 C14.4988589,0 14.707123,0.0958966822 14.849625,0.262499994 L17.819625,3.544875 C17.9359397,3.68067818 18,3.85356895 18,4.03237499 L18,17.25 C18,17.6642136 17.6642136,18 17.25,18 L0.750000006,18 C0.33578644,18 0,17.6642136 0,17.25 L0,0.750000006 C0,0.33578644 0.33578644,0 0.750000006,0 Z M4.87499999,1.125 L4.87499999,7.875 L13.125,7.875 L13.125,1.125 L4.87499999,1.125 Z M10.5,1.87500001 C10.5994562,1.87500001 10.6948389,1.91450881 10.765165,1.98483495 C10.8354912,2.0551611 10.875,2.15054381 10.875,2.25 L10.875,6.37500001 C10.875,6.47445619 10.8354912,6.56983891 10.765165,6.64016505 C10.6948389,6.71049119 10.5994562,6.75 10.5,6.75 L10.125,6.75 C9.91789322,6.75 9.75000001,6.58210678 9.75000001,6.37500001 L9.75000001,2.25 C9.75000001,2.04289322 9.91789322,1.87500001 10.125,1.87500001 L10.5,1.87500001 Z" id="path-1"></path>
    </defs>
    <g id="Web_SFW/icon/18/保存下载" stroke="none" stroke-width="1" fill="none" fill-rule="evenodd">
        <mask id="mask-2" fill="white">
            <use xlink:href="#path-1"></use>
        </mask>
        <use id="形状备份-2" fill="#979797" xlink:href="#path-1"></use>
    </g>
</svg>