<?xml version="1.0" encoding="UTF-8"?>
<svg width="30px" height="30px" viewBox="0 0 30 30" version="1.1" xmlns="http://www.w3.org/2000/svg" xmlns:xlink="http://www.w3.org/1999/xlink">
    <title>4.组件/2.通用/按钮/4.图标按钮/缩小/normal</title>
    <g id="4.组件/2.通用/按钮/4.图标按钮/缩小/normal" stroke="none" stroke-width="1" fill="none" fill-rule="evenodd">
        <g id="icons备份" transform="translate(9.000000, 9.000000)" fill="#AAAAAA" fill-rule="nonzero">
            <path d="M6.30423094,-6.86117829e-14 C3.37726658,-6.86117829e-14 1.05070516,2.325 1.05070516,5.25 C1.05070516,6.45 1.425957,7.575 2.17646068,8.475 L-1.36649141e-13,10.725 L1.05070516,11.775 L3.22716584,9.525 C4.12777026,10.125 5.17847542,10.5 6.30423094,10.5 C9.23119531,10.5 11.5577567,8.175 11.5577567,5.25 C11.5577567,2.325 9.23119531,-6.86117829e-14 6.30423094,-6.86117829e-14 Z M6.30423094,9 C4.20282063,9 2.55171252,7.35 2.55171252,5.25 C2.55171252,3.15 4.20282063,1.5 6.30423094,1.5 C8.40564126,1.5 10.0567494,3.15 10.0567494,5.25 C10.0567494,7.35 8.40564126,9 6.30423094,9 Z" id="形状"></path>
            <polygon id="路径" points="5.55372726 4.5 4.05271989 4.5 4.05271989 6 5.55372726 6 7.05473463 6 8.55574199 6 8.55574199 4.5 7.05473463 4.5"></polygon>
        </g>
    </g>
</svg>