<?xml version="1.0" encoding="UTF-8"?>
<svg width="12px" height="12px" viewBox="0 0 12 12" version="1.1" xmlns="http://www.w3.org/2000/svg" xmlns:xlink="http://www.w3.org/1999/xlink">
    <title>形状结合@1x</title>
    <g id="热点分析" stroke="none" stroke-width="1" fill="none" fill-rule="evenodd">
        <g id="50在线分析-热点-火焰图-Java层-地址跳转" transform="translate(-1574.000000, -887.000000)" fill="#979797" fill-rule="nonzero">
            <g id="编组-5" transform="translate(1312.000000, 181.000000)">
                <g id="编组-7" transform="translate(20.000000, 308.000000)">
                    <g id="4.组件/4.数据展示/1.表格/2小表格/单行" transform="translate(0.000000, 48.000000)">
                        <g id="编组-29" transform="translate(191.000000, 1.000000)">
                            <g id="编组-9" transform="translate(51.000000, 349.000000)">
                                <path d="M6.79441502,4.21497121 C6.93307655,4.21497121 7.09484834,4.2840691 7.18728936,4.37619962 C7.30284064,4.4452975 7.39528166,4.53742802 7.48772268,4.62955854 L7.48772268,4.62955854 L7.55705344,4.6756238 C8.66634569,5.78119002 8.57390467,7.50863724 7.46461242,8.61420345 L7.46461242,8.61420345 L4.8993741,11.1708253 C3.79008185,12.2763916 1.98748195,12.2763916 0.878189697,11.1708253 L0.878189697,11.1708253 L0.831969186,11.1247601 C-0.277323062,10.0191939 -0.277323062,8.22264875 0.831969186,7.11708253 L0.831969186,7.11708253 L2.0105922,6.01151631 C2.03370246,5.96545106 2.07992297,5.9193858 2.12614348,5.89635317 L2.12614348,5.89635317 L2.14925373,5.89635317 C2.24169475,5.82725528 2.35724603,5.78119002 2.49590756,5.78119002 C2.84256139,5.78119002 3.11988445,6.05758157 3.11988445,6.40307102 C3.11988445,6.58733205 3.02744343,6.77159309 2.8887819,6.88675624 L2.8887819,6.88675624 L1.75637939,8.01535509 C1.46792013,8.30225658 1.30581565,8.6917321 1.30581565,9.09788868 C1.30581565,9.50404525 1.46792013,9.89352078 1.75637939,10.1804223 L1.75637939,10.1804223 L1.8025999,10.2264875 C2.09046832,10.5139779 2.48125647,10.6755379 2.8887819,10.6755379 C3.29630732,10.6755379 3.68709547,10.5139779 3.97496389,10.2264875 L3.97496389,10.2264875 L6.51709196,7.66986564 C7.11795859,7.07101727 7.30284064,6.05758157 6.701974,5.45873321 L6.701974,5.45873321 L6.65575349,5.41266795 L6.65575349,5.41266795 L6.4939817,5.27447217 C6.44776119,5.25143954 6.40154068,5.20537428 6.35532017,5.15930902 C6.26287915,5.0671785 6.21665864,4.92898273 6.21665864,4.79078695 C6.21665864,4.46833013 6.47087145,4.21497121 6.79441502,4.21497121 Z M7.11795859,0.829174664 C8.22725084,-0.276391555 10.0298507,-0.276391555 11.139143,0.829174664 L11.139143,0.829174664 L11.1853635,0.875239923 C12.2715455,1.98080614 12.2715455,3.77735125 11.1853635,4.85988484 L11.1853635,4.85988484 L10.0067405,5.94241843 C9.99133365,5.96545106 9.97592682,5.98336532 9.96051998,5.99872041 L9.86807896,6.0806142 L9.8449687,6.10364683 C9.75252768,6.17274472 9.63697641,6.19577735 9.52142513,6.19577735 C9.1747713,6.19577735 8.89744824,5.9193858 8.89744824,5.57389635 C8.89744824,5.36660269 8.98988926,5.18234165 9.15166105,5.0671785 L9.15166105,5.0671785 L10.2840636,3.93857965 C10.8849302,3.33973129 10.8849302,2.37236084 10.2840636,1.77351248 L10.2840636,1.77351248 L10.237843,1.72744722 C9.63697641,1.12859885 8.66634569,1.12859885 8.06547906,1.72744722 L8.06547906,1.72744722 L5.50024073,4.2840691 C4.8993741,4.88291747 4.66827155,5.75815739 5.26913818,6.35700576 L5.26913818,6.35700576 L5.31535869,6.40307102 C5.40779971,6.49520154 5.54646124,6.58733205 5.61579201,6.74856046 C5.63890226,6.81765835 5.66201252,6.88675624 5.66201252,6.97888676 C5.66201252,7.27831094 5.40779971,7.53166987 5.10736639,7.53166987 C4.99181512,7.53166987 4.8993741,7.50863724 4.83004333,7.46257198 C4.78382282,7.41650672 4.73760231,7.39347409 4.6913818,7.34740883 C4.62205104,7.30134357 4.57583052,7.25527831 4.52961001,7.20921305 L4.52961001,7.20921305 L4.4833895,7.16314779 C3.39720751,6.0806142 3.44342802,4.49136276 4.55272027,3.38579655 L4.55272027,3.38579655 Z" id="形状结合"></path>
                            </g>
                        </g>
                    </g>
                </g>
            </g>
        </g>
    </g>
</svg>