<?xml version="1.0" encoding="UTF-8"?>
<svg width="32px" height="32px" viewBox="0 0 32 32" version="1.1" xmlns="http://www.w3.org/2000/svg" xmlns:xlink="http://www.w3.org/1999/xlink">
    <title>VSCode-退出全屏-按下</title>
    <g id="Sampling分析模块" stroke="none" stroke-width="1" fill="none" fill-rule="evenodd">
        <g id="画板" transform="translate(-969.000000, -165.000000)">
            <g id="VSCode-退出全屏-按下" transform="translate(969.000000, 165.000000)">
                <g id="编组">
                    <rect id="bgc" stroke="#004EC1" x="0.5" y="0.5" width="31" height="31" rx="1"></rect>
                    <path d="M13,19 L13,24 L11,24 L11,21 L8,21 L8,19 L13,19 Z M24,19 L24,21 L21,21 L21,24 L19,24 L19,19 L24,19 Z M16,14 C17.1045695,14 18,14.8954305 18,16 C18,17.1045695 17.1045695,18 16,18 C14.8954305,18 14,17.1045695 14,16 C14,14.8954305 14.8954305,14 16,14 Z M13,8 L13,13 L8,13 L8,11 L11,11 L11,8 L13,8 Z M21,8 L21,11 L24,11 L24,13 L19,13 L19,8 L21,8 Z" id="形状结合" fill="#004EC1"></path>
                </g>
            </g>
        </g>
    </g>
</svg>