<?xml version="1.0" encoding="UTF-8"?>
<svg width="32px" height="32px" viewBox="0 0 32 32" version="1.1" xmlns="http://www.w3.org/2000/svg" xmlns:xlink="http://www.w3.org/1999/xlink">
    <title>VSCode-全屏-悬浮</title>
    <g id="Sampling分析模块" stroke="none" stroke-width="1" fill="none" fill-rule="evenodd">
        <g id="画板" transform="translate(-1070.000000, -123.000000)">
            <g id="VSCode-全屏-悬浮" transform="translate(1070.000000, 123.000000)">
                <rect id="bgc" stroke="#267DFF" x="0.5" y="0.5" width="31" height="31" rx="1"></rect>
                <path d="M24,19 L24,24 L19,24 L19,22 L22,22 L22,19 L24,19 Z M10,19 L10,22 L13,22 L13,24 L8,24 L8,19 L10,19 Z M16,14 C17.1045695,14 18,14.8954305 18,16 C18,17.1045695 17.1045695,18 16,18 C14.8954305,18 14,17.1045695 14,16 C14,14.8954305 14.8954305,14 16,14 Z M13,8 L13,10 L10,10 L10,13 L8,13 L8,8 L13,8 Z M24,8 L24,13 L22,13 L22,10 L19,10 L19,8 L24,8 Z" id="形状结合" fill="#267DFF"></path>
            </g>
        </g>
    </g>
</svg>