<?xml version="1.0" encoding="UTF-8"?>
<svg width="32px" height="32px" viewBox="0 0 32 32" version="1.1" xmlns="http://www.w3.org/2000/svg" xmlns:xlink="http://www.w3.org/1999/xlink">
    <title>web-退出全屏-悬浮</title>
    <g id="Sampling分析模块" stroke="none" stroke-width="1" fill="none" fill-rule="evenodd">
        <g id="画板" transform="translate(-496.000000, -166.000000)">
            <g id="web-退出全屏-悬浮" transform="translate(496.000000, 166.000000)">
                <rect id="bgc" stroke="#267DFF" fill="#FFFFFF" x="0.5" y="0.5" width="31" height="31" rx="1"></rect>
                <path d="M13,19 L13,24 L11,24 L11,21 L8,21 L8,19 L13,19 Z M24,19 L24,21 L21,21 L21,24 L19,24 L19,19 L24,19 Z M16,14 C17.1045695,14 18,14.8954305 18,16 C18,17.1045695 17.1045695,18 16,18 C14.8954305,18 14,17.1045695 14,16 C14,14.8954305 14.8954305,14 16,14 Z M13,8 L13,13 L8,13 L8,11 L11,11 L11,8 L13,8 Z M19,13 L19,8 L21,8 L21,11 L24,11 L24,13 L19,13 Z" id="形状结合" fill="#267DFF"></path>
            </g>
        </g>
    </g>
</svg>