<?xml version="1.0" encoding="UTF-8"?>
<svg width="14px" height="14px" viewBox="0 0 14 14" version="1.1" xmlns="http://www.w3.org/2000/svg" xmlns:xlink="http://www.w3.org/1999/xlink">
    <title>icon/Javaperf/28/优化建议@1x</title>
    <g id="Sampling分析模块" stroke="none" stroke-width="1" fill="none" fill-rule="evenodd">
        <g id="7-环境信息-有优化建议" transform="translate(-743.000000, -237.000000)">
            <g id="编组-9" transform="translate(438.000000, 224.000000)">
                <g id="编组-2" transform="translate(305.000000, 13.000000)">
                    <path d="M11.25,0 C11.8022847,-1.01453063e-16 12.25,0.44771525 12.25,1 L12.2493552,5.53332029 C11.5732169,5.19215652 10.8090487,5 10,5 C7.23857625,5 5,7.23857625 5,10 C5,11.6361819 5.78590304,13.0888064 7.00081101,14.0009752 L1,14 C0.44771525,14 6.76353751e-17,13.5522847 0,13 L0,1 C-6.76353751e-17,0.44771525 0.44771525,1.01453063e-16 1,0 L11.25,0 Z M3.9375,6.125 L2.1875,6.125 L2.10885882,6.13305567 C1.90476577,6.17539163 1.75,6.37954011 1.75,6.625 C1.75,6.87045989 1.90476577,7.07460837 2.10885882,7.11694433 L2.1875,7.125 L3.9375,7.125 L4.01614118,7.11694433 C4.22023423,7.07460837 4.375,6.87045989 4.375,6.625 C4.375,6.34885763 4.17912458,6.125 3.9375,6.125 Z M10.0625,1.75 L2.1875,1.75 L2.10885882,1.75805567 C1.90476577,1.80039163 1.75,2.00454011 1.75,2.25 C1.75,2.49545989 1.90476577,2.69960837 2.10885882,2.74194433 L2.1875,2.75 L10.0625,2.75 L10.1411412,2.74194433 C10.3452342,2.69960837 10.5,2.49545989 10.5,2.25 C10.5,1.97385763 10.3041246,1.75 10.0625,1.75 Z" id="形状结合" fill="#42688E"></path>
                    <path d="M10.0625,6.125 C12.2371212,6.125 14,7.8878788 14,10.0625 C14,12.2371212 12.2371212,14 10.0625,14 C7.8878788,14 6.125,12.2371212 6.125,10.0625 C6.125,7.8878788 7.8878788,6.125 10.0625,6.125 Z M10.093,11.77 C9.8827402,11.769631 9.69204814,11.8960395 9.61066572,12.0907676 C9.52928331,12.2854958 9.5732716,12.5101133 9.72208368,12.6597015 C9.87089576,12.8092896 10.0951631,12.8543267 10.2901305,12.7737759 C10.4850978,12.6932251 10.6122878,12.5029833 10.61229,12.2919125 C10.6206354,12.1512543 10.5684319,12.0137455 10.4688621,11.91411 C10.3892062,11.8344016 10.2853275,11.7850277 10.1749927,11.7727421 L10.093,11.77 Z M10.0960306,7.6015625 C9.78123831,7.6015625 9.57504935,7.8630125 9.57504935,8.17565 L9.77887736,10.9893875 C9.83160507,11.1468875 9.93627351,11.25005 10.0936697,11.25005 C10.2510658,11.25005 10.3541603,11.1461 10.408462,10.9893875 L10.6170119,8.1228875 C10.6161476,7.83532665 10.3834018,7.60242735 10.0960306,7.6015625 Z" id="形状结合" fill="#42688E"></path>
                    <g id="编组" transform="translate(10.000000, 8.000000)"></g>
                </g>
            </g>
        </g>
    </g>
</svg>