<?xml version="1.0" encoding="UTF-8"?>
<svg width="16px" height="16px" viewBox="0 0 16 16" version="1.1" xmlns="http://www.w3.org/2000/svg" xmlns:xlink="http://www.w3.org/1999/xlink">
    <title>关闭16*16</title>
    <defs>
        <path d="M12.4194174,3.58058262 C12.5929837,3.75414897 12.6122689,4.02357337 12.4772728,4.21844151 L12.4194174,4.2876894 L8.70710678,8 L12.4194174,11.7123106 C12.6146795,11.9075727 12.6146795,12.2241552 12.4194174,12.4194174 C12.245851,12.5929837 11.9764266,12.6122689 11.7815585,12.4772728 L11.7123106,12.4194174 L8,8.70710678 L4.2876894,12.4194174 C4.09242725,12.6146795 3.77584476,12.6146795 3.58058262,12.4194174 C3.40701627,12.245851 3.38773112,11.9764266 3.52272717,11.7815585 L3.58058262,11.7123106 L7.29289322,8 L3.58058262,4.2876894 C3.38532047,4.09242725 3.38532047,3.77584476 3.58058262,3.58058262 C3.75414897,3.40701627 4.02357337,3.38773112 4.21844151,3.52272717 L4.2876894,3.58058262 L8,7.29289322 L11.7123106,3.58058262 C11.9075727,3.38532047 12.2241552,3.38532047 12.4194174,3.58058262 Z" id="path-1"></path>
    </defs>
    <g id="关闭16*16" stroke="none" stroke-width="1" fill="none" fill-rule="evenodd">
        <mask id="mask-2" fill="white">
            <use xlink:href="#path-1"></use>
        </mask>
        <use id="蒙版" fill="#0067FF" fill-rule="nonzero" xlink:href="#path-1"></use>
    </g>
</svg>