<?xml version="1.0" encoding="UTF-8"?>
<svg width="28px" height="28px" viewBox="0 0 28 28" version="1.1" xmlns="http://www.w3.org/2000/svg" xmlns:xlink="http://www.w3.org/1999/xlink">
    <!-- Generator: Sketch 63.1 (92452) - https://sketch.com -->
    <title>优化建议1</title>
    <desc>Created with Sketch.</desc>
    <g id="页面-1" stroke="none" stroke-width="1" fill="none" fill-rule="evenodd">
        <g id="堆内存泄漏发现2备份-5" transform="translate(-1716.000000, -251.000000)">
            <g id="优化建议1" transform="translate(1716.000000, 251.000000)">
                <g>
                    <g id="4.组件/3.数据录入/1.输入框/1.单行输入框/1.默认" stroke="#979797">
                        <rect id="矩形" x="0.5" y="0.5" width="27" height="27" rx="2"></rect>
                    </g>
                    <g id="编组" transform="translate(6.000000, 6.000000)">
                        <rect id="BOX" opacity="0.19249907" x="0" y="0" width="16" height="16"></rect>
                        <path d="M13,5 L13,2 C13,1.44771525 12.5522847,1 12,1 L2,1 C1.44771525,1 1,1.44771525 1,2 L1,14 C1,14.5522847 1.44771525,15 2,15 L5.5,15 L5.5,15" id="路径-6" stroke="#979797" stroke-width="1.4" stroke-linecap="round"></path>
                        <line x1="4" y1="5" x2="9.8" y2="5" id="路径-13" stroke="#979797" stroke-linecap="round"></line>
                        <line x1="4" y1="8" x2="8" y2="8" id="路径-13备份" stroke="#979797" stroke-linecap="round"></line>
                        <line x1="4" y1="11" x2="6" y2="11" id="路径-13备份-2" stroke="#979797" stroke-linecap="round"></line>
                        <polygon id="路径-8" stroke="#979797" stroke-linecap="round" stroke-linejoin="round" points="15 7.5 10.0909091 9.63333333 9 15.5 14.4545455 13.3666667"></polygon>
                        <line x1="10.5" y1="10" x2="14.5" y2="13.5" id="路径-9" stroke="#979797"></line>
                    </g>
                </g>
                <g id="4.组件/2.通用/按钮/4.图标按钮/集合信息对比"></g>
            </g>
        </g>
    </g>
</svg>