<?xml version="1.0" encoding="UTF-8"?>
<svg width="24px" height="24px" viewBox="0 0 24 24" version="1.1" xmlns="http://www.w3.org/2000/svg" xmlns:xlink="http://www.w3.org/1999/xlink">
    <title>4.组件/2.通用/工具栏/扫描迁移/normal</title>
    <g id="4.组件/2.通用/工具栏/扫描迁移/normal" stroke="none" stroke-width="1" fill="none" fill-rule="evenodd">
        <path d="M22.2577714,8.67437143 L15.6080571,17.9538 L18.8249143,23.1429429 L11.2374857,17.7189429 L22.2577714,8.67437143 Z M23.1432857,7.23042857 L10.7078571,17.3412857 L7.287,14.8958571 L10.1875714,15.3878571 L10.8278571,13.5964286 L23.1432857,7.23042857 Z M9.00017143,0.857314286 C13.3947429,0.857314286 16.9673143,4.34245714 17.1276,8.69845714 L17.1276,8.69845714 L15.9267429,9.31902857 C15.9318857,9.21274286 15.9430286,9.10817143 15.9430286,9.00017143 C15.9430286,5.17131429 12.8281714,2.05731429 9.00017143,2.05731429 C5.17131429,2.05731429 2.05731429,5.17131429 2.05731429,9.00017143 C2.05731429,11.7867429 3.7116,14.1893143 6.08674286,15.2933143 C6.16817143,15.7116 6.3996,16.0981714 6.76645714,16.3604571 L6.76645714,16.3604571 L7.70245714,17.0298857 C3.82302857,16.4076 0.857314286,13.0544571 0.857314286,9.00017143 C0.857314286,4.50274286 4.50274286,0.857314286 9.00017143,0.857314286 Z M8.03562857,4.33945714 L11.5336286,6.1926 L11.5336286,6.68888571 L11.2053429,6.84917143 L11.2053429,6.44631429 L8.7942,5.50174286 L8.7942,11.2514571 L11.2053429,9.97345714 L11.2053429,9.55688571 L11.5336286,9.75317143 L11.5336286,10.3668857 L8.03562857,12.5706 L8.03562857,4.33945714 Z M5.83851429,4.62471429 L7.28708571,5.385 L7.28708571,6.05014286 L6.5628,5.62242857 L6.5628,10.6581429 L7.28708571,10.3015714 L7.28708571,10.9195714 L5.83851429,12.0355714 L5.83851429,4.62471429 Z M12.7338,7.23102857 L12.7338,9.09017143 C12.0652286,8.25445714 9.74065714,8.03502857 9.74065714,8.03502857 C9.74065714,8.03502857 12.0729429,8.03502857 12.7338,7.23102857 L12.7338,7.23102857 Z" id="形状结合" fill="#838383"></path>
    </g>
</svg>