<?xml version="1.0" encoding="UTF-8"?>
<svg width="17px" height="16px" viewBox="0 0 17 16" version="1.1" xmlns="http://www.w3.org/2000/svg" xmlns:xlink="http://www.w3.org/1999/xlink">
    <title>软件包</title>
    <g id="dep-port合入" stroke="none" stroke-width="1" fill="none" fill-rule="evenodd">
        <g id="代码迁移工具-软件包重构-已上传5" transform="translate(-72.000000, -190.000000)">
            <g id="1.框架/3.内部框架/4.sidebar/2.实例" transform="translate(48.000000, 30.000000)">
                <g id="无代码，创建" transform="translate(19.500000, 147.000000)">
                    <g id="软件包" transform="translate(5.000000, 13.000000)">
                        <rect id="矩形" x="0" y="0" width="16" height="16"></rect>
                        <g id="4.组件/2.通用/icon/树/文件夹" transform="translate(3.000000, 2.000000)" fill="#979797" fill-rule="nonzero">
                            <path d="M3.49999601,3.42856641 L4.37499801,3.42856641 L4.37499801,2.57144531 L3.49999601,2.57144531 L3.49999601,3.42857812 L3.49999601,3.42856641 Z M2.62499402,4.28571094 L3.49999601,4.28571094 L3.49999601,3.42856641 L2.62499402,3.42856641 L2.62499402,4.28571094 Z M9.62499801,10.7142891 C9.62499801,10.9714336 9.45000479,11.1428555 9.18750299,11.1428555 L1.31249701,11.1428555 C1.04999521,11.1428555 0.875001994,10.9714336 0.875001994,10.7142891 L0.875001994,1.28571094 C0.875001994,1.02856641 1.04999521,0.857144531 1.31249701,0.857144531 L6.12500199,0.857144531 L6.12500199,3 C6.12500199,3.68571094 6.73750219,4.28571094 7.437499,4.28571094 L9.62499801,4.28571094 L9.62499801,10.7142891 Z M7.00000399,1.45714453 L9.01249781,3.42855469 L7.437499,3.42855469 C7.17499721,3.42855469 7.00000399,3.25713281 7.00000399,2.99998828 L7.00000399,1.45714453 Z M10.3250068,3.51428906 L6.8249988,0.0857109375 C6.8249988,0.0857109375 6.65001755,0 6.56249701,0 L1.31249701,0 C0.612500199,0 0,0.6 0,1.28571094 L0,10.7142891 C0,11.4 0.612500199,12 1.31249701,12 L9.18750299,12 C9.8874998,12 10.5,11.4 10.5,10.7142891 L10.5,3.85714453 C10.5,3.77143359 10.4125034,3.6 10.3250068,3.51428906 Z M2.62498206,2.57143359 L3.49998405,2.57143359 L3.49998405,1.71428906 L2.62498206,1.71428906 L2.62498206,2.57143359 L2.62498206,2.57143359 Z M2.62498206,6 L3.49998405,6 L3.49998405,5.14285547 L2.62498206,5.14285547 L2.62498206,6 L2.62498206,6 Z M3.49998405,6.85714453 L4.37498604,6.85714453 L4.37498604,6 L3.49998405,6 L3.49998405,6.85714453 Z M3.49998405,5.14285547 L4.37498604,5.14285547 L4.37498604,4.28571094 L3.49998405,4.28571094 L3.49998405,5.14285547 L3.49998405,5.14285547 Z M2.62498206,7.71428906 L3.49998405,7.71428906 L3.49998405,6.85714453 L2.62498206,6.85714453 L2.62498206,7.71428906 Z M2.62498206,8.57143359 L2.62498206,10.2857109 L4.37498604,10.2857109 L4.37498604,7.71428906 L3.49998405,7.71428906 L3.49998405,8.57143359 L2.62498206,8.57143359 L2.62498206,8.57143359 Z" id="形状"></path>
                        </g>
                    </g>
                </g>
            </g>
        </g>
    </g>
</svg>