<?xml version="1.0" encoding="UTF-8"?>
<svg width="20px" height="18px" viewBox="0 0 20 18" version="1.1" xmlns="http://www.w3.org/2000/svg" xmlns:xlink="http://www.w3.org/1999/xlink">
    <title>Web_SFW/icon/20/问号动画</title>
    <g id="数据库场景" stroke="none" stroke-width="1" fill="none" fill-rule="evenodd">
        <g id="5Tracing数据" transform="translate(-1701.000000, -221.000000)">
            <g id="编组" transform="translate(1685.000000, 213.000000)">
                <g transform="translate(16.000000, 6.000000)">
                    <rect id="矩形" x="0" y="0" width="20" height="20"></rect>
                    <path d="M10,2 C13.0867374,2 15.6290637,4.33090145 15.9628533,7.328579 C18.3128578,8.1418252 20,10.373886 20,13 C20,16.3137085 17.3137085,19 14,19 L11.201,19 L11.868,18 L14,18 C16.7614237,18 19,15.7614237 19,13 C19,10.8520569 17.6330856,8.96476864 15.6358207,8.27359203 C15.2711968,8.14740972 15.0116948,7.82271459 14.9689956,7.43924448 C14.6888749,4.92355373 12.5529376,3 10,3 C7.44709647,3 5.31104685,4.92354625 5.03049323,7.43941715 C4.98774081,7.82280043 4.72828355,8.14740578 4.36374329,8.27358383 C2.36685281,8.96476606 1,10.8521291 1,13 C1,15.6887547 3.12230671,17.8818181 5.78311038,17.9953805 L6,18 L8.132,18 L8.799,19 L6,19 C2.6862915,19 0,16.3137085 0,13 C0,10.373886 1.68714217,8.1418252 4.03665347,7.32859058 C4.37093634,4.33090145 6.91326257,2 10,2 Z" id="形状结合" fill="#FFFFFF" fill-rule="nonzero"></path>
                    <path d="M10.2224732,9.06629014 C10.2664142,9.09558408 10.3041193,9.13328926 10.3334133,9.17723018 L13.5860064,14.0561199 C13.7085474,14.2399314 13.6588779,14.4882791 13.4750664,14.6108201 C13.4093594,14.6546248 13.3321563,14.678 13.2531863,14.678 L11,14.6770677 L11.0005932,18.278 C11.0005932,18.4989139 10.8215071,18.678 10.6005932,18.678 L9.40059316,18.678 C9.17967926,18.678 9.00059316,18.4989139 9.00059316,18.278 L9,14.6770677 L6.748,14.678 C6.5270861,14.678 6.348,14.4989139 6.348,14.278 C6.348,14.19903 6.37137521,14.1218269 6.41517988,14.0561199 L9.66777305,9.17723018 C9.79031403,8.9934187 10.0386618,8.94374915 10.2224732,9.06629014 Z" id="形状结合" stroke="#FFFFFF" stroke-linejoin="round" fill-rule="nonzero" transform="translate(10.000614, 13.838534) scale(1, -1) translate(-10.000614, -13.838534) "></path>
                </g>
            </g>
        </g>
    </g>
</svg>