<?xml version="1.0" encoding="UTF-8"?>
<svg width="60px" height="60px" viewBox="0 0 60 60" version="1.1" xmlns="http://www.w3.org/2000/svg" xmlns:xlink="http://www.w3.org/1999/xlink">
    <title>4.组件/2.通用/Bigicon/大数据/Hover</title>
    <defs>
        <filter x="-8.3%" y="-8.0%" width="116.7%" height="116.0%" filterUnits="objectBoundingBox" id="filter-1">
            <feOffset dx="0" dy="1" in="SourceAlpha" result="shadowOffsetOuter1"></feOffset>
            <feGaussianBlur stdDeviation="0.5" in="shadowOffsetOuter1" result="shadowBlurOuter1"></feGaussianBlur>
            <feColorMatrix values="0 0 0 0 0   0 0 0 0 0   0 0 0 0 0  0 0 0 0.883987107 0" type="matrix" in="shadowBlurOuter1" result="shadowMatrixOuter1"></feColorMatrix>
            <feMerge>
                <feMergeNode in="shadowMatrixOuter1"></feMergeNode>
                <feMergeNode in="SourceGraphic"></feMergeNode>
            </feMerge>
        </filter>
        <linearGradient x1="78.8051781%" y1="15.4483408%" x2="78.8051781%" y2="93.9717074%" id="linearGradient-2">
            <stop stop-color="#B8BDCA" offset="0%"></stop>
            <stop stop-color="#868B98" offset="100%"></stop>
        </linearGradient>
    </defs>
    <g id="4.组件/2.通用/Bigicon/大数据/Hover" stroke="none" stroke-width="1" fill="none" fill-rule="evenodd">
        <rect id="BOX" stroke="#979797" fill="#D8D8D8" opacity="0" x="0.5" y="0.5" width="59" height="59"></rect>
        <g id="线条初稿备份" filter="url(#filter-1)" transform="translate(6.000000, 5.000000)" fill-rule="nonzero">
            <path d="M24.4285714,0 C26.5588126,0 28.2857143,1.7368264 28.2857143,3.87931034 C28.2857143,4.29249311 28.2214874,4.69058867 28.102527,5.06404914 L41.9275688,13.6342588 C42.5544452,13.1911617 43.3184468,12.9310345 44.1428571,12.9310345 C46.2730983,12.9310345 48,14.6678609 48,16.8103448 C48,18.7174374 46.6317167,20.3031137 44.8286343,20.6285245 L44.8286343,29.3714755 C46.6317167,29.6968863 48,31.2825626 48,33.1896552 C48,35.3321391 46.2730983,37.0689655 44.1428571,37.0689655 C43.5224725,37.0689655 42.9362965,36.9216594 42.417021,36.6599269 L28.2735018,45.8097183 C28.281592,45.9123036 28.2857143,46.0160125 28.2857143,46.1206897 C28.2857143,48.2631736 26.5588126,50 24.4285714,50 C22.2983303,50 20.5714286,48.2631736 20.5714286,46.1206897 L20.575,45.949 L6.03810245,36.3897282 C5.417753,36.8182115 4.66656397,37.0689655 3.85714286,37.0689655 C1.72690168,37.0689655 0,35.3321391 0,33.1896552 C0,31.2825626 1.36828331,29.6968863 3.17136572,29.3714755 L3.17136572,20.6285245 C1.36828331,20.3031137 0,18.7174374 0,16.8103448 C0,14.6678609 1.72690168,12.9310345 3.85714286,12.9310345 C4.90537254,12.9310345 5.85594011,13.3515788 6.55114714,14.0340627 L20.805479,5.21314734 C20.6540635,4.79723572 20.5714286,4.34797871 20.5714286,3.87931034 C20.5714286,1.7368264 22.2983303,0 24.4285714,0 Z M24.4285714,43.6206897 C23.0557493,43.6206897 21.9428571,44.7399778 21.9428571,46.1206897 C21.9428571,47.5014015 23.0557493,48.6206897 24.4285714,48.6206897 C25.8013935,48.6206897 26.9142857,47.5014015 26.9142857,46.1206897 C26.9142857,44.7399778 25.8013935,43.6206897 24.4285714,43.6206897 Z M25.115348,7.69730955 L25.1142857,12.5198278 L23.7428571,12.5198278 L23.7417948,7.69730955 C22.8500327,7.53612431 22.0646861,7.0666582 21.4987148,6.40252009 L7.34890855,15.1601346 C7.58327429,15.6608854 7.71428571,16.2202275 7.71428571,16.8103448 C7.71428571,17.0881803 7.68524496,17.359194 7.63004984,17.6204829 L12.86211,18.8394912 L12.5525832,20.183212 L7.09898495,18.9131937 C6.53033687,19.7981259 5.61323185,20.4353603 4.54292,20.6285245 L4.54292,29.3714755 C5.70869299,29.581868 6.69271136,30.3190765 7.24268384,31.3293596 L12.5212157,29.6167206 L12.94216,30.9294507 L7.67564792,32.6384534 C7.70111251,32.8185016 7.71428571,33.0025312 7.71428571,33.1896552 C7.71428571,34.0089439 7.46175956,34.7689129 7.0307193,35.395125 L20.912156,44.5242115 C21.4266329,43.3797577 22.4772178,42.5312617 23.7417948,42.3026904 L23.7428571,37.9310345 L25.1142857,37.9310345 L25.115348,42.3026904 C26.3395599,42.5239657 27.3632229,43.3262217 27.8940926,44.4155344 L41.2605118,35.7675777 C40.7368083,35.1757065 40.3906131,34.4214557 40.3059349,33.5893168 L35.017583,31.9670161 L35.4179275,30.6477838 L40.4171598,32.1818342 C40.800448,30.7449894 41.9835762,29.6374057 43.45708,29.3714755 L43.45708,20.6285245 C42.3863675,20.435288 41.4689766,19.7976488 40.9003766,18.9121998 L36.2168419,20.4818506 L35.7831581,19.1733219 L40.372963,17.6346153 C40.3158124,17.3689706 40.2857143,17.0931928 40.2857143,16.8103448 C40.2857143,16.0081927 40.5277871,15.2629046 40.9424683,14.6443442 L27.4559671,6.28336986 C26.8844457,7.01038304 26.0595459,7.52664661 25.115348,7.69730955 Z M3.85714286,30.6896552 C2.48432076,30.6896552 1.37142857,31.8089433 1.37142857,33.1896552 C1.37142857,34.570367 2.48432076,35.6896552 3.85714286,35.6896552 C5.22996495,35.6896552 6.34285714,34.570367 6.34285714,33.1896552 C6.34285714,31.8089433 5.22996495,30.6896552 3.85714286,30.6896552 Z M44.1428571,30.6896552 C42.7700351,30.6896552 41.6571429,31.8089433 41.6571429,33.1896552 C41.6571429,34.570367 42.7700351,35.6896552 44.1428571,35.6896552 C45.5156792,35.6896552 46.6285714,34.570367 46.6285714,33.1896552 C46.6285714,31.8089433 45.5156792,30.6896552 44.1428571,30.6896552 Z M3.85714286,14.3103448 C2.48432076,14.3103448 1.37142857,15.429633 1.37142857,16.8103448 C1.37142857,18.1910567 2.48432076,19.3103448 3.85714286,19.3103448 C5.22996495,19.3103448 6.34285714,18.1910567 6.34285714,16.8103448 C6.34285714,15.429633 5.22996495,14.3103448 3.85714286,14.3103448 Z M44.1428571,14.3103448 C42.7700351,14.3103448 41.6571429,15.429633 41.6571429,16.8103448 C41.6571429,18.1910567 42.7700351,19.3103448 44.1428571,19.3103448 C45.5156792,19.3103448 46.6285714,18.1910567 46.6285714,16.8103448 C46.6285714,15.429633 45.5156792,14.3103448 44.1428571,14.3103448 Z M24.4285714,1.37931034 C23.0557493,1.37931034 21.9428571,2.49859847 21.9428571,3.87931034 C21.9428571,5.26002222 23.0557493,6.37931034 24.4285714,6.37931034 C25.8013935,6.37931034 26.9142857,5.26002222 26.9142857,3.87931034 C26.9142857,2.49859847 25.8013935,1.37931034 24.4285714,1.37931034 Z" id="形状结合" fill="url(#linearGradient-2)"></path>
            <path d="M23.1428571,11.6867451 L13.2365414,17.4390294 C12.4409386,17.9010107 11.9508271,18.7547875 11.9508271,19.6787502 L11.9508271,31.1833187 C11.9508271,32.1072815 12.4409386,32.9610582 13.2365414,33.4230396 L23.1428571,39.1753239 C23.9384599,39.6373052 24.9186829,39.6373052 25.7142857,39.1753239 L35.6206014,33.4230396 C36.4162042,32.9610582 36.9063157,32.1072815 36.9063157,31.1833187 L36.9063157,19.6787502 C36.9063157,18.7547875 36.4162042,17.9010107 35.6206014,17.4390294 L25.7142857,11.6867451 C24.9186829,11.2247637 23.9384599,11.2247637 23.1428571,11.6867451 Z M24.4285714,14.9215517 L33.4774286,20.1758621 L33.4774286,30.6853448 L24.4285714,35.9405172 L15.3788571,30.6853448 L15.3788571,20.1758621 L24.4285714,14.9215517 Z" id="多边形" fill="#65D9D7"></path>
        </g>
    </g>
</svg>