<?xml version="1.0" encoding="UTF-8"?>
<svg width="15px" height="16px" viewBox="0 0 15 16" version="1.1" xmlns="http://www.w3.org/2000/svg" xmlns:xlink="http://www.w3.org/1999/xlink">
    <title>icon/12/复制Hover</title>
    <defs>
        <path d="M13.3965289,0.00260833919 C14.2286316,0.00260833919 14.9053571,0.679333883 14.9053571,1.5114366 L14.9053571,1.5114366 L14.9053571,11.4414527 C14.9053571,12.2735554 14.2286316,12.9502809 13.3965289,12.9502809 L13.3965289,12.9502809 L12.0559189,12.9502809 L12.0559189,14.4295746 C12.0559189,15.2616774 11.3791934,15.9384029 10.5470907,15.9384029 L10.5470907,15.9384029 L1.52622391,15.9384029 C0.69412119,15.9384029 0.0173956636,15.2616774 0.0173956636,14.4295746 L0.0173956636,14.4295746 L0.0173956636,4.49955858 C0.0173956636,3.66745586 0.69412119,2.99073034 1.52622391,2.99073034 L1.52622391,2.99073034 L2.86683387,2.99073034 L2.86683387,1.5114366 C2.86683387,0.679333866 3.54355939,0.00260833919 4.37566211,0.00260833919 L4.37566211,0.00260833919 Z M10.5470907,3.9538122 L1.52622391,3.9538122 C1.22574238,3.9538122 0.980477528,4.19907704 0.980477528,4.49955858 L0.980477528,4.49955858 L0.980477528,14.4308587 C0.980477528,14.5755997 1.03797564,14.7144124 1.14032294,14.8167597 C1.24267024,14.919107 1.38148297,14.9766051 1.52622391,14.9766051 L1.52622391,14.9766051 L10.5470907,14.9766051 C10.8482052,14.9758991 11.0921311,14.7319732 11.0928371,14.4308587 L11.0928371,14.4308587 L11.0928371,4.49955858 C11.0928371,4.19907705 10.8475722,3.9538122 10.5470907,3.9538122 L10.5470907,3.9538122 Z M13.3965289,0.965690204 L4.37566211,0.965690204 C4.07518058,0.965690204 3.82991573,1.21095506 3.82991573,1.5114366 L3.82991573,1.5114366 L3.82991573,2.99073034 L10.5470907,2.99073034 C11.3791934,2.99073034 12.0559189,3.66745586 12.0559189,4.49955858 L12.0559189,4.49955858 L12.0559189,11.987199 L13.3965289,11.987199 C13.6976434,11.986493 13.9415693,11.7425671 13.9422753,11.4414527 L13.9422753,11.4414527 L13.9422753,1.5114366 C13.9422753,1.21095506 13.6970104,0.965690204 13.3965289,0.965690204 L13.3965289,0.965690204 Z M8.54516452,10.7827047 C8.81111223,10.7827047 9.02670545,10.9982979 9.02670545,11.2642456 C9.02670545,11.5301933 8.81111223,11.7457865 8.54516452,11.7457865 L8.54516452,11.7457865 L3.52943418,11.7457865 C3.26348647,11.7457865 3.04789325,11.5301933 3.04789325,11.2642456 C3.04789325,10.9982979 3.26348647,10.7827047 3.52943418,10.7827047 L3.52943418,10.7827047 Z M8.54516452,6.62861155 C8.81111223,6.62861155 9.02670545,6.84420477 9.02670545,7.11015248 C9.02670545,7.3761002 8.81111223,7.59169342 8.54516452,7.59169342 L8.54516452,7.59169342 L3.52943418,7.59169342 C3.26348647,7.59169342 3.04789325,7.3761002 3.04789325,7.11015248 C3.04789325,6.84420477 3.26348647,6.62861155 3.52943418,6.62861155 L3.52943418,6.62861155 Z" id="path-1"></path>
    </defs>
    <g id="设置与节点管理" stroke="none" stroke-width="1" fill="none" fill-rule="evenodd">
        <g id="节点管理备下载" transform="translate(-917.000000, -265.000000)">
            <g id="编组-6" transform="translate(680.000000, 224.000000)">
                <g id="3.颜色/10.辅助说明文本" transform="translate(237.000000, 41.000000)">
                    <mask id="mask-2" fill="white">
                        <use xlink:href="#path-1"></use>
                    </mask>
                    <use id="蒙版" fill="#E0E0E0" fill-rule="nonzero" xlink:href="#path-1"></use>
                    <g id="编组" mask="url(#mask-2)" fill="#267DFF">
                        <g id="3.颜色/10.辅助说明文本">
                            <rect id="矩形" x="0" y="0" width="16" height="16"></rect>
                        </g>
                    </g>
                </g>
            </g>
        </g>
    </g>
</svg>