<?xml version="1.0" encoding="UTF-8"?>
<svg width="64px" height="64px" viewBox="0 0 64 64" version="1.1" xmlns="http://www.w3.org/2000/svg" xmlns:xlink="http://www.w3.org/1999/xlink">
    <title>4.组件/2.通用/icon/Bigicon/数据库/normal</title>
    <g id="4.组件/2.通用/icon/Bigicon/数据库/normal" stroke="none" stroke-width="1" fill="none" fill-rule="evenodd">
        <path d="M32,10.5 L32.4059968,10.5015854 C43.4785729,10.5881623 52.5,14.2129513 52.5,19.5 C52.5,19.6073478 52.4962809,19.7140104 52.4889011,19.8199719 C52.490669,19.8313061 52.4919736,19.8434019 52.4931334,19.85554 L52.5,20 L52.5,44.6590909 C52.5,44.953157 52.4135638,45.240737 52.2514387,45.4860742 C48.9692411,50.4528844 41.0663619,53 32,53 C23.1787548,53 15.6205369,50.5148417 11.8120596,45.5749498 C11.6434525,45.3562533 11.5391492,45.0961594 11.5090649,44.8237684 L11.5,44.6590909 L11.5,20 C11.5,19.938827 11.5036619,19.8785093 11.5107784,19.8192542 C11.5037191,19.7140104 11.5,19.6073478 11.5,19.5 C11.5,14.1484751 20.7428036,10.5 32,10.5 L32,10.5 Z M32,45 C24.6243911,45 18.1135101,43.433802 14.5003959,40.84857 L14.5,44.127 L14.5799117,44.2206624 C17.7826108,47.8906677 24.0662839,49.9146195 31.5224975,49.997358 L32,50 C39.8565988,50 46.6443017,47.9060934 49.4434496,44.2597038 L49.5,44.182 L49.5012128,40.8474188 C45.8884228,43.433337 39.3767037,45 32,45 Z M32,37 C24.6243911,37 18.1135101,35.433802 14.5003959,32.84857 L14.5,36 C14.5,38.9327463 22.2703759,42 32,42 C41.5906294,42 49.2775894,39.0197562 49.4952596,36.1257621 L49.5,36 L49.5012128,32.8474188 C45.8884228,35.433337 39.3767037,37 32,37 Z M49.5012128,24.3474188 C45.8884228,26.933337 39.3767037,28.5 32,28.5 C24.6239813,28.5 18.1127866,26.933628 14.4997937,24.3481391 L14.5,28 C14.5,30.9327463 22.2703759,34 32,34 C41.5906294,34 49.2775894,31.0197562 49.4952596,28.1257621 L49.5,28 Z M32,13.5 L31.5842326,13.5018686 C22.049951,13.5876084 14.5,16.60915 14.5,19.5 C14.5,22.4327463 22.2703759,25.5 32,25.5 C41.7296241,25.5 49.5,22.4327463 49.5,19.5 C49.5,16.5672537 41.7296241,13.5 32,13.5 L32,13.5 Z" id="形状结合" fill="#979797" fill-rule="nonzero"></path>
    </g>
</svg>