<?xml version="1.0" encoding="UTF-8"?>
<svg width="40px" height="40px" viewBox="0 0 40 40" version="1.1" xmlns="http://www.w3.org/2000/svg" xmlns:xlink="http://www.w3.org/1999/xlink">
    <title>4.组件/2.通用/Bigicon/数据库/normal</title>
    <g id="4.组件/2.通用/Bigicon/数据库/normal" stroke="none" stroke-width="1" fill="none" fill-rule="evenodd">
        <path d="M20.3333333,6 L20.6039978,6.00105695 C27.9857153,6.05877485 34,8.47530086 34,12 C34,12.0723476 33.9974661,12.1442283 33.9924385,12.2156313 C33.9939141,12.2221259 33.9947092,12.2295643 33.9954223,12.2370267 L34,12.3333333 L34,28.7727273 C34,28.9687714 33.9423759,29.1604913 33.8342924,29.3240494 C31.6461607,32.6352563 26.3775746,34.3333333 20.3333333,34.3333333 C14.4525032,34.3333333 9.41369128,32.6765611 6.8747064,29.3832999 C6.76230165,29.2375022 6.69276611,29.0641063 6.67270995,28.8825123 L6.66666667,28.7727273 L6.66666667,12.3333333 C6.66666667,12.2917711 6.66920223,12.2508011 6.6741271,12.2105695 C6.66908354,12.1408691 6.66666667,12.0706572 6.66666667,12 C6.66666667,8.43231673 12.8285357,6 20.3333333,6 L20.3333333,6 Z M20.3333333,29 C15.4159349,29 11.0750981,27.9557296 8.66645182,26.2320374 L8.66666667,28.418 L8.71994115,28.4804416 C10.8550739,30.9271118 15.0441892,32.276413 20.0149983,32.331572 L20.3333333,32.3333333 C25.5710658,32.3333333 30.0962011,30.9373956 31.9622997,28.5064692 L32,28.4546667 L31.9999066,26.232258 C29.5911981,27.9558187 25.250522,29 20.3333333,29 Z M20.3333333,23.6666667 C15.4159349,23.6666667 11.0750981,22.6223963 8.66645182,20.8987041 L8.66666667,23 C8.66666667,24.9551642 13.8469173,27 20.3333333,27 C26.7270863,27 31.8517263,25.0131708 31.9968397,23.0838414 L32,23 L31.9999066,20.8989247 C29.5911981,22.6224854 25.250522,23.6666667 20.3333333,23.6666667 Z M31.9999066,15.232258 C29.5911981,16.9558187 25.250522,18 20.3333333,18 C15.4161664,18 11.0755068,16.955828 8.66679197,15.2322808 L8.66666667,17.6666667 C8.66666667,19.6218309 13.8469173,21.6666667 20.3333333,21.6666667 C26.7270863,21.6666667 31.8517263,19.6798375 31.9968397,17.7505081 L32,17.6666667 Z M20.3333333,8 L20.0561551,8.00124572 C13.6999673,8.05840558 8.66666667,10.0727667 8.66666667,12 C8.66666667,13.9551642 13.8469173,16 20.3333333,16 C26.8197494,16 32,13.9551642 32,12 C32,10.0448358 26.8197494,8 20.3333333,8 L20.3333333,8 Z" id="形状结合" fill="#80858F" fill-rule="nonzero"></path>
    </g>
</svg>