<?xml version="1.0" encoding="UTF-8"?>
<svg width="40px" height="40px" viewBox="0 0 40 40" version="1.1" xmlns="http://www.w3.org/2000/svg" xmlns:xlink="http://www.w3.org/1999/xlink">
    <title>4.组件/2.通用/Bigicon/数据库/Hover</title>
    <defs>
        <filter x="-14.6%" y="-14.0%" width="131.7%" height="129.1%" filterUnits="objectBoundingBox" id="filter-1">
            <feOffset dx="0" dy="1" in="SourceAlpha" result="shadowOffsetOuter1"></feOffset>
            <feGaussianBlur stdDeviation="0.5" in="shadowOffsetOuter1" result="shadowBlurOuter1"></feGaussianBlur>
            <feColorMatrix values="0 0 0 0 0   0 0 0 0 0   0 0 0 0 0  0 0 0 0.883987107 0" type="matrix" in="shadowBlurOuter1" result="shadowMatrixOuter1"></feColorMatrix>
            <feMerge>
                <feMergeNode in="shadowMatrixOuter1"></feMergeNode>
                <feMergeNode in="SourceGraphic"></feMergeNode>
            </feMerge>
        </filter>
        <linearGradient x1="78.8051781%" y1="15.4483408%" x2="78.8051781%" y2="93.9717074%" id="linearGradient-2">
            <stop stop-color="#B8BDCA" offset="0%"></stop>
            <stop stop-color="#868B98" offset="100%"></stop>
        </linearGradient>
    </defs>
    <g id="4.组件/2.通用/Bigicon/数据库/Hover" stroke="none" stroke-width="1" fill="none" fill-rule="evenodd">
        <g id="编组" filter="url(#filter-1)" transform="translate(6.666667, 6.000000)" fill-rule="nonzero">
            <path d="M13.6666667,0 L13.9373312,0.00105694938 C21.3190486,0.0587748502 27.3333333,2.47530086 27.3333333,6 C27.3333333,6.0723476 27.3307994,6.14422831 27.3257718,6.21563132 C27.3272475,6.22212587 27.3280425,6.2295643 27.3287556,6.23702666 L27.3333333,6.33333333 L27.3333333,22.7727273 C27.3333333,22.9687714 27.2757092,23.1604913 27.1676258,23.3240494 C24.9794941,26.6352563 19.710908,28.3333333 13.6666667,28.3333333 C7.78583651,28.3333333 2.74702462,26.6765611 0.208039729,23.3832999 C0.0956349805,23.2375022 0.0260994455,23.0641063 0.00604328792,22.8825123 L0,22.7727273 L0,6.33333333 C0,6.29177109 0.00253555938,6.25080105 0.0074604313,6.21056948 C0.00241686927,6.14086915 0,6.07065724 0,6 C0,2.43231673 6.16186904,0 13.6666667,0 L13.6666667,0 Z M13.6666667,23 C8.74926825,23 4.40843148,21.9557296 1.99978515,20.2320374 L2,22.418 L2.05327448,22.4804416 C4.18840723,24.9271118 8.37752258,26.276413 13.3483316,26.331572 L13.6666667,26.3333333 C18.9043992,26.3333333 23.4295345,24.9373956 25.295633,22.5064692 L25.3333333,22.4546667 L25.3332399,20.232258 C22.9245315,21.9558187 18.5838553,23 13.6666667,23 Z M13.6666667,17.6666667 C8.74926825,17.6666667 4.40843148,16.6223963 1.99978515,14.8987041 L2,17 C2,18.9551642 7.18025063,21 13.6666667,21 C20.0604196,21 25.1850596,19.0131708 25.330173,17.0838414 L25.3333333,17 L25.3332399,14.8989247 C22.9245315,16.6224854 18.5838553,17.6666667 13.6666667,17.6666667 Z M25.3332399,9.23225801 C22.9245315,10.9558187 18.5838553,12 13.6666667,12 C8.74949973,12 4.40884014,10.955828 2.00012531,9.23228082 L2,11.6666667 C2,13.6218309 7.18025063,15.6666667 13.6666667,15.6666667 C20.0604196,15.6666667 25.1850596,13.6798375 25.330173,11.7505081 L25.3333333,11.6666667 Z M13.6666667,2 L13.3894884,2.00124572 C7.03330066,2.05840558 2,4.07276669 2,6 C2,7.95516423 7.18025063,10 13.6666667,10 C20.1530827,10 25.3333333,7.95516423 25.3333333,6 C25.3333333,4.04483577 20.1530827,2 13.6666667,2 L13.6666667,2 Z" id="形状结合" fill="url(#linearGradient-2)"></path>
            <path d="M13.6666667,0 C6.16186904,0 0,2.43231673 0,6 C0,9.56768327 6.16186904,12 13.6666667,12 C21.1714643,12 27.3333333,9.56768327 27.3333333,6 C27.3333333,2.47530086 21.3190486,0.0587748502 13.9373312,0.00105694938 L13.6666667,0 Z M13.6666667,2 C20.1530827,2 25.3333333,4.04483577 25.3333333,6 C25.3333333,7.95516423 20.1530827,10 13.6666667,10 C7.18025063,10 2,7.95516423 2,6 C2,4.07276669 7.03330066,2.05840558 13.3894884,2.00124572 L13.6666667,2 Z" id="椭圆形" fill="#65D9D7"></path>
        </g>
    </g>
</svg>