<?xml version="1.0" encoding="UTF-8"?>
<svg width="60px" height="60px" viewBox="0 0 60 60" version="1.1" xmlns="http://www.w3.org/2000/svg" xmlns:xlink="http://www.w3.org/1999/xlink">
    <title>4.组件/2.通用/Bigicon/HPC/Hover</title>
    <defs>
        <filter x="-9.1%" y="-9.5%" width="118.2%" height="119.0%" filterUnits="objectBoundingBox" id="filter-1">
            <feOffset dx="0" dy="1" in="SourceAlpha" result="shadowOffsetOuter1"></feOffset>
            <feGaussianBlur stdDeviation="0.5" in="shadowOffsetOuter1" result="shadowBlurOuter1"></feGaussianBlur>
            <feColorMatrix values="0 0 0 0 0   0 0 0 0 0   0 0 0 0 0  0 0 0 0.883987107 0" type="matrix" in="shadowBlurOuter1" result="shadowMatrixOuter1"></feColorMatrix>
            <feMerge>
                <feMergeNode in="shadowMatrixOuter1"></feMergeNode>
                <feMergeNode in="SourceGraphic"></feMergeNode>
            </feMerge>
        </filter>
        <linearGradient x1="78.8051781%" y1="15.4483408%" x2="78.8051781%" y2="93.9717074%" id="linearGradient-2">
            <stop stop-color="#B8BDCA" offset="0%"></stop>
            <stop stop-color="#868B98" offset="100%"></stop>
        </linearGradient>
    </defs>
    <g id="4.组件/2.通用/Bigicon/HPC/Hover" stroke="none" stroke-width="1" fill="none" fill-rule="evenodd">
        <g id="编组" filter="url(#filter-1)" transform="translate(8.000000, 9.000000)" fill-rule="nonzero">
            <path d="M3.07820498,0.00323755991 L3.19345802,0.0192230794 L43.193458,7.90654702 C43.6230773,7.99126069 43.9427805,8.34366893 43.9930809,8.76976604 L44,8.88765558 L44,35.5003316 C44,35.9615439 43.6857628,36.3574232 43.248096,36.4691305 L43.1362183,36.4910105 L3.13621834,41.9910105 C2.57298538,42.068455 2.06718482,41.6629763 2.00615988,41.1123023 L2,41.0003316 L2.00008893,30.3296574 C0.834850101,29.9178461 0,28.8065837 0,27.5003316 C0,25.8434774 1.34314575,24.5003316 3,24.5003316 C4.65685425,24.5003316 6,25.8434774 6,27.5003316 C6,28.8062139 5.16562257,29.9172168 4.00090072,30.3293074 L4,39.8533316 L12,38.753 L12,3.793 L4,2.21633163 L4.00090072,10.6713559 C5.16562257,11.0834465 6,12.1944494 6,13.5003316 C6,15.1571859 4.65685425,16.5003316 3,16.5003316 C1.34314575,16.5003316 0,15.1571859 0,13.5003316 C0,12.1940796 0.834850101,11.0828172 2.00008893,10.6710059 L2,1.00033163 C2,0.40976186 2.50573798,-0.042901836 3.07820498,0.00323755991 Z M13,3.991 L13,38.616 L42,34.6283316 L42,9.70933163 L13,3.991 Z" id="形状结合" fill="url(#linearGradient-2)"></path>
            <path d="M22,22.9088983 C22.5522847,22.8960571 23,23.3573895 23,23.9393131 L23,31.3149745 C23,31.8968982 22.5522847,32.4165258 22,32.4755953 L18,32.9034145 C17.4477153,32.962484 17,32.5136434 17,31.9009009 L17,24.1346219 C17,23.5218794 17.4477153,23.0147436 18,23.0019024 L22,22.9088983 Z M30,23.0782092 C30.5522847,23.0658232 31,23.4786715 31,24.0003316 L31,30.6719949 C31,31.1936551 30.5522847,31.662732 30,31.7197076 L26,32.1323613 C25.4477153,32.1893369 25,31.7885377 25,31.2371511 L25,24.188717 C25,23.6373305 25.4477153,23.1803026 26,23.1679166 L30,23.0782092 Z M22.0077525,23.9096489 L18.0232448,24.0016322 C18.0340866,24.0013802 18.0155905,24.0253382 18.0056648,24.075564 L18,24.1346219 L18,31.8973316 L21.8936517,31.4812663 C21.9215457,31.4782829 21.9728722,31.4245905 21.9922871,31.3624775 L22,31.3149745 L22,23.9393131 C22,23.9178493 22.0008652,23.9115862 22.0077525,23.9096489 Z M37.1666667,23.3672085 C37.626904,23.3553481 38,23.7199091 38,24.1814784 L38,30.0316935 C38,30.4932627 37.626904,30.9116663 37.1666667,30.966224 L33.8333333,31.3613659 C33.373096,31.4159236 33,31.0629002 33,30.5728661 L33,24.3618692 C33,23.8718351 33.373096,23.4649692 33.8333333,23.4531089 L37.1666667,23.3672085 Z M30,24.0773316 L26.0224212,24.1676652 L26.0077303,24.1754829 L26,24.188717 L26,31.1263316 L29.8973812,30.7249869 C29.9244283,30.7221966 29.950083,30.7080915 29.9689759,30.6951125 L30,30.6719949 L30,24.0773316 Z M37,24.3713316 L34,24.4483316 L34,30.3333316 L37,29.9783316 L37,24.3713316 Z M18,10.0972487 L22,10.525068 C22.5522847,10.5841375 23,11.1037651 23,11.6856887 L23,19.0613501 C23,19.6432738 22.5522847,20.1046062 22,20.091765 L18,19.9987608 C17.4477153,19.9859196 17,19.4787838 17,18.8660413 L17,11.0997623 C17,10.4870199 17.4477153,10.0381792 18,10.0972487 Z M26,11.0057266 L30,11.4183803 C30.5522847,11.4753559 31,11.9444328 31,12.466093 L31,19.0782092 C31,19.5998694 30.5522847,20.0127176 30,20.0003316 L26,19.9106243 C25.4477153,19.8982383 25,19.4412104 25,18.8898238 L25,11.9009368 C25,11.3495502 25.4477153,10.948751 26,11.0057266 Z M33.6666667,12.1051897 L37,12.5003316 C37.4602373,12.5548893 37.8333333,12.9732929 37.8333333,13.4348621 L37.8333333,19.1860617 C37.8333333,19.6476309 37.4602373,20.012192 37,20.0003316 L33.6666667,19.9144312 C33.2064294,19.9025708 32.8333333,19.495705 32.8333333,19.0056708 L32.8333333,12.8936895 C32.8333333,12.4036554 33.2064294,12.050632 33.6666667,12.1051897 Z M18,11.1023316 L18,18.8660413 C18,18.9340076 18.0212066,18.9750202 18.0257113,18.9911368 L18.0232448,18.999031 L22.0232448,19.0920352 C22.009046,19.0917051 22.0034479,19.0924865 22.0012935,19.0835047 L22,11.6856887 C22,11.6220084 21.9542523,11.5561765 21.9181011,11.5304817 L21.8936517,11.5193969 L18,11.1023316 Z M26,12.0113316 L26,18.8898238 L26.0077303,18.9030579 L26.0224212,18.9108757 L30,19.0003316 L30,12.466093 L29.9689759,12.4429754 C29.9595295,12.4364859 29.9483926,12.4297149 29.9362364,12.4242175 L29.8973812,12.413101 L26,12.0113316 Z M33.833,13.1313316 L33.833,18.9183316 L36.833,18.9953316 L36.833,13.4873316 L33.833,13.1313316 Z" id="形状结合" fill="#65D9D7"></path>
        </g>
    </g>
</svg>