<?xml version="1.0" encoding="UTF-8"?>
<svg width="60px" height="60px" viewBox="0 0 60 60" version="1.1" xmlns="http://www.w3.org/2000/svg" xmlns:xlink="http://www.w3.org/1999/xlink">
    <title>4.组件/2.通用/Bigicon/HPC/Normal</title>
    <g id="4.组件/2.通用/Bigicon/HPC/Normal" stroke="none" stroke-width="1" fill="none" fill-rule="evenodd">
        <path d="M11.078205,9.00323756 L11.193458,9.01922308 L51.193458,16.906547 C51.6230773,16.9912607 51.9427805,17.3436689 51.9930809,17.769766 L52,17.8876556 L52,44.5003316 C52,44.9615439 51.6857628,45.3574232 51.248096,45.4691305 L51.1362183,45.4910105 L11.1362183,50.9910105 C10.5729854,51.068455 10.0671848,50.6629763 10.0061599,50.1123023 L10,50.0003316 L10.0000889,39.3296574 C8.8348501,38.9178461 8,37.8065837 8,36.5003316 C8,34.8434774 9.34314575,33.5003316 11,33.5003316 C12.6568542,33.5003316 14,34.8434774 14,36.5003316 C14,37.8062139 13.1656226,38.9172168 12.0009007,39.3293074 L12,48.8533316 L20,47.753 L20,12.793 L12,11.2163316 L12.0009007,19.6713559 C13.1656226,20.0834465 14,21.1944494 14,22.5003316 C14,24.1571859 12.6568542,25.5003316 11,25.5003316 C9.34314575,25.5003316 8,24.1571859 8,22.5003316 C8,21.1940796 8.8348501,20.0828172 10.0000889,19.6710059 L10,10.0003316 C10,9.40976186 10.505738,8.95709816 11.078205,9.00323756 Z M21,12.991 L21,47.616 L50,43.6283316 L50,18.7093316 L21,12.991 Z M30,31.9088983 C30.5522847,31.8960571 31,32.3573895 31,32.9393131 L31,40.3149745 C31,40.8968982 30.5522847,41.4165258 30,41.4755953 L26,41.9034145 C25.4477153,41.962484 25,41.5136434 25,40.9009009 L25,33.1346219 C25,32.5218794 25.4477153,32.0147436 26,32.0019024 L30,31.9088983 Z M38,32.0782092 C38.5522847,32.0658232 39,32.4786715 39,33.0003316 L39,39.6719949 C39,40.1936551 38.5522847,40.662732 38,40.7197076 L34,41.1323613 C33.4477153,41.1893369 33,40.7885377 33,40.2371511 L33,33.188717 C33,32.6373305 33.4477153,32.1803026 34,32.1679166 L38,32.0782092 Z M30.0077525,32.9096489 L26.0232448,33.0016322 C26.0340866,33.0013802 26.0155905,33.0253382 26.0056648,33.075564 L26,33.1346219 L26,40.8973316 L29.8936517,40.4812663 C29.9215457,40.4782829 29.9728722,40.4245905 29.9922871,40.3624775 L30,40.3149745 L30,32.9393131 C30,32.9178493 30.0008652,32.9115862 30.0077525,32.9096489 Z M45.1666667,32.3672085 C45.626904,32.3553481 46,32.7199091 46,33.1814784 L46,39.0316935 C46,39.4932627 45.626904,39.9116663 45.1666667,39.966224 L41.8333333,40.3613659 C41.373096,40.4159236 41,40.0629002 41,39.5728661 L41,33.3618692 C41,32.8718351 41.373096,32.4649692 41.8333333,32.4531089 L45.1666667,32.3672085 Z M38,33.0773316 L34.0224212,33.1676652 L34.0077303,33.1754829 L34,33.188717 L34,40.1263316 L37.8973812,39.7249869 C37.9244283,39.7221966 37.950083,39.7080915 37.9689759,39.6951125 L38,39.6719949 L38,33.0773316 Z M45,33.3713316 L42,33.4483316 L42,39.3333316 L45,38.9783316 L45,33.3713316 Z M26,19.0972487 L30,19.525068 C30.5522847,19.5841375 31,20.1037651 31,20.6856887 L31,28.0613501 C31,28.6432738 30.5522847,29.1046062 30,29.091765 L26,28.9987608 C25.4477153,28.9859196 25,28.4787838 25,27.8660413 L25,20.0997623 C25,19.4870199 25.4477153,19.0381792 26,19.0972487 Z M34,20.0057266 L38,20.4183803 C38.5522847,20.4753559 39,20.9444328 39,21.466093 L39,28.0782092 C39,28.5998694 38.5522847,29.0127176 38,29.0003316 L34,28.9106243 C33.4477153,28.8982383 33,28.4412104 33,27.8898238 L33,20.9009368 C33,20.3495502 33.4477153,19.948751 34,20.0057266 Z M41.6666667,21.1051897 L45,21.5003316 C45.4602373,21.5548893 45.8333333,21.9732929 45.8333333,22.4348621 L45.8333333,28.1860617 C45.8333333,28.6476309 45.4602373,29.012192 45,29.0003316 L41.6666667,28.9144312 C41.2064294,28.9025708 40.8333333,28.495705 40.8333333,28.0056708 L40.8333333,21.8936895 C40.8333333,21.4036554 41.2064294,21.050632 41.6666667,21.1051897 Z M26,20.1023316 L26,27.8660413 C26,27.9340076 26.0212066,27.9750202 26.0257113,27.9911368 L26.0232448,27.999031 L30.0232448,28.0920352 C30.009046,28.0917051 30.0034479,28.0924865 30.0012935,28.0835047 L30,20.6856887 C30,20.6220084 29.9542523,20.5561765 29.9181011,20.5304817 L29.8936517,20.5193969 L26,20.1023316 Z M34,21.0113316 L34,27.8898238 L34.0077303,27.9030579 L34.0224212,27.9108757 L38,28.0003316 L38,21.466093 L37.9689759,21.4429754 C37.9595295,21.4364859 37.9483926,21.4297149 37.9362364,21.4242175 L37.8973812,21.413101 L34,21.0113316 Z M41.833,22.1313316 L41.833,27.9183316 L44.833,27.9953316 L44.833,22.4873316 L41.833,22.1313316 Z" id="形状结合" fill="#80858F" fill-rule="nonzero"></path>
    </g>
</svg>