<?xml version="1.0" encoding="UTF-8"?>
<svg width="32px" height="32px" viewBox="0 0 32 32" version="1.1" xmlns="http://www.w3.org/2000/svg" xmlns:xlink="http://www.w3.org/1999/xlink">
    <title>4.组件/2.通用/按钮/4.图标按钮/方向选择/下/normal</title>
    <g id="4.组件/2.通用/按钮/4.图标按钮/方向选择/下/normal" stroke="none" stroke-width="1" fill="none" fill-rule="evenodd">
        <rect class="rect" id="bgc" stroke="#DDDDDD" fill="#313131" x="0.5" y="0.5" width="31.0214905" height="31" rx="2"></rect>
        <path class="direction" d="M15.4381684,9.58143395 L15.3352868,9.64193425 C15.0674971,9.82460705 14.8584582,10.1696998 14.8584582,10.4782718 L14.858,13.045 L10.679219,13.0457686 C10.026685,13.0457686 9.5,13.567911 9.5,14.2190879 L9.5,17.8102643 L9.50607405,17.9307597 C9.56632533,18.5247152 10.0674532,18.9836436 10.679219,18.9836436 L14.933,18.983 L14.9339337,21.5511405 C14.9339337,21.9609637 15.1756121,22.2803705 15.5137868,22.4479891 L15.61872,22.5 L15.8867867,22.5 C16.0383509,22.5 16.1679164,22.4654308 16.297362,22.4012959 L16.4877711,22.2975737 L16.6161721,22.2054523 L22.2010569,16.669078 C22.3790383,16.4926425 22.5,16.212818 22.5,15.9398862 C22.5,15.7343435 22.4266964,15.5882912 22.3046531,15.4679078 L22.1842639,15.3659715 L22.2065993,15.3925072 C22.2110714,15.3991559 22.2156654,15.4068386 22.220002,15.4154364 L22.1231597,15.28313 L16.582,9.864 L16.5121508,9.77633013 C16.2718561,9.51590739 15.8682791,9.43405763 15.503484,9.55459981 L15.4381684,9.58143395 Z M15.858,10.555 L21.382,15.958 L21.432,16.022 L15.965,21.442 L15.933,21.46 L15.9339337,17.9836436 L10.679219,17.9836436 C10.5770375,17.9836436 10.5,17.9072659 10.5,17.8102643 L10.5,14.2190879 C10.5,14.1221441 10.5770399,14.0457686 10.679219,14.0457686 L15.8584582,14.0457686 L15.858,10.555 Z" id="Fill-1" fill="#AAAAAA" fill-rule="nonzero" transform="translate(16.000000, 16.000054) rotate(-270.000000) translate(-16.000000, -16.000054) "></path>
    </g>
</svg>