<?xml version="1.0" encoding="UTF-8"?>
<svg width="60px" height="60px" viewBox="0 0 60 60" version="1.1" xmlns="http://www.w3.org/2000/svg" xmlns:xlink="http://www.w3.org/1999/xlink">
    <title>4.组件/2.通用/Bigicon/通用/normal</title>
    <g id="4.组件/2.通用/Bigicon/通用/normal" stroke="none" stroke-width="1" fill="none" fill-rule="evenodd">
        <rect id="BOX" stroke="#979797" fill="#D8D8D8" opacity="0" x="0.5" y="0.5" width="59" height="59"></rect>
        <g id="编组" transform="translate(4.000000, 4.000000)" fill="#80858F" fill-rule="nonzero">
            <path d="M39.4429125,27.7381198 C40.432996,27.1664948 41.6528291,27.1664948 42.6429125,27.7381198 L42.6429125,27.7381198 L50.169192,32.0834192 C51.1592754,32.6550442 51.769192,33.7114507 51.769192,34.8547005 L51.769192,34.8547005 L51.769192,43.5452995 C51.769192,44.6885493 51.1592754,45.7449558 50.169192,46.3165808 L50.169192,46.3165808 L42.6429125,50.6618802 C41.6528291,51.2335052 40.432996,51.2335052 39.4429125,50.6618802 L39.4429125,50.6618802 L31.9166331,46.3165808 C30.9265496,45.7449558 30.3166331,44.6885493 30.3166331,43.5452995 L30.3166331,43.5452995 L30.3166331,34.8547005 C30.3166331,33.7114507 30.9265496,32.6550442 31.9166331,32.0834192 L31.9166331,32.0834192 Z M9.61183172,30.0357141 C10.3790596,28.6930652 12.0894527,28.2265944 13.4321015,28.9938223 C13.8661891,29.2418723 14.2259433,29.6016265 14.4739933,30.0357141 L14.4739933,30.0357141 L23.7169058,46.210811 C24.4841337,47.5534598 24.0176629,49.2638529 22.6750141,50.0310808 C22.2519405,50.2728371 21.7731005,50.4 21.285825,50.4 L21.285825,50.4 L2.8,50.4 C1.2536027,50.4 2.00728323e-13,49.1463973 2.00728323e-13,47.6 C2.00728323e-13,47.1127246 0.127162889,46.6338845 0.368919202,46.210811 L0.368919202,46.210811 Z M41.4429125,29.8165808 C41.1953917,29.6736745 40.8904334,29.6736745 40.6429125,29.8165808 L40.6429125,29.8165808 L33.1166331,34.1618802 C32.8691122,34.3047865 32.7166331,34.5688881 32.7166331,34.8547005 L32.7166331,34.8547005 L32.7166331,43.5452995 C32.7166331,43.8311119 32.8691122,44.0952135 33.1166331,44.2381198 L33.1166331,44.2381198 L40.6429125,48.5834192 C40.8904334,48.7263255 41.1953917,48.7263255 41.4429125,48.5834192 L41.4429125,48.5834192 L48.969192,44.2381198 C49.2167128,44.0952135 49.369192,43.8311119 49.369192,43.5452995 L49.369192,43.5452995 L49.369192,34.8547005 C49.369192,34.5688881 49.2167128,34.3047865 48.969192,34.1618802 L48.969192,34.1618802 Z M12.1673437,31.044666 C11.9905809,30.9866173 11.7915187,31.0586164 11.6956153,31.2264475 L11.6956153,31.2264475 L2.45270274,47.4015444 C2.41816613,47.4619835 2.4,47.5303892 2.4,47.6 C2.4,47.8209139 2.5790861,48 2.8,48 L2.8,48 L21.285825,48 C21.3554358,48 21.4238415,47.9818339 21.4842806,47.9472973 C21.6760876,47.8376933 21.7427263,47.5933514 21.6331223,47.4015444 L21.6331223,47.4015444 L12.3902098,31.2264475 C12.3547741,31.164435 12.3033806,31.1130416 12.2413681,31.0776058 L12.2413681,31.0776058 Z M20.0429125,1 C21.257939,1 22.2429125,1.98497355 22.2429125,3.2 L22.2429125,3.2 L22.2429125,19.2 C22.2429125,20.4150264 21.257939,21.4 20.0429125,21.4 L20.0429125,21.4 L4.04291251,21.4 C2.82788607,21.4 1.84291251,20.4150264 1.84291251,19.2 L1.84291251,19.2 L1.84291251,3.2 C1.84291251,1.98497355 2.82788607,1 4.04291251,1 L4.04291251,1 Z M19.8429125,3.4 L4.24291251,3.4 L4.24291251,19 L19.8429125,19 L19.8429125,3.4 Z" id="形状结合"></path>
            <path d="M41.0429125,4.61852778e-14 L40.0429125,4.61852778e-14 C34.4096081,4.61852778e-14 29.8429125,4.56669555 29.8429125,10.2 L29.8429125,11.2 C29.8429125,16.8333044 34.4096081,21.4 40.0429125,21.4 L41.0429125,21.4 C46.676217,21.4 51.2429125,16.8333044 51.2429125,11.2 L51.2429125,10.2 C51.2429125,4.56669555 46.676217,4.61852778e-14 41.0429125,4.61852778e-14 Z M40.0429125,2.4 L41.0429125,2.4 C45.3507336,2.4 48.8429125,5.89217895 48.8429125,10.2 L48.8429125,11.2 C48.8429125,15.507821 45.3507336,19 41.0429125,19 L40.0429125,19 C35.7350915,19 32.2429125,15.507821 32.2429125,11.2 L32.2429125,10.2 C32.2429125,5.89217895 35.7350915,2.4 40.0429125,2.4 Z" id="矩形备份"></path>
        </g>
    </g>
</svg>