<?xml version="1.0" encoding="UTF-8"?>
<svg width="60px" height="60px" viewBox="0 0 60 60" version="1.1" xmlns="http://www.w3.org/2000/svg" xmlns:xlink="http://www.w3.org/1999/xlink">
    <title>4.组件/2.通用/Bigicon/浅色/分布式存储/选中</title>
    <g id="4.组件/2.通用/Bigicon/浅色/分布式存储/选中" stroke="none" stroke-width="1" fill="none" fill-rule="evenodd">
        <rect id="BOX" stroke="#979797" fill="#D8D8D8" opacity="0" x="0.5" y="0.5" width="59" height="59"></rect>
        <g id="编组" transform="translate(6.000000, 7.000000)" fill="#0067FF" fill-rule="nonzero">
            <path d="M16.465247,29.5 C16.7359728,29.5 16.9597109,29.691318 16.9951206,29.9395402 L17.0000023,30.008547 L17.0000023,42.5791016 C17.0000023,43.0610434 16.8134353,43.5261145 16.4759042,43.8855645 C14.8335032,45.6347865 12.3288605,46.5 9.00032652,46.5 C5.66809368,46.5 3.17190535,45.6327644 1.55118843,43.8786852 C1.25838162,43.5617845 1.08179199,43.1646997 1.04515838,42.7470639 L1.03802759,42.5896037 L1.031,40.262 L1.00000228,40.242536 L1.031,40.207 L1.016,35.381 L1.00000228,35.3630071 L1.016,35.345 L1.00000228,30.102435 C0.999149355,29.8215734 1.23787316,29.5932308 1.53320911,29.5924175 C1.80393373,29.591672 2.02825353,29.782373 2.06441887,30.0304967 L2.06951065,30.0994897 L2.0829366,34.8293641 C3.69905625,36.454318 5.99603033,37.2744539 9.00030857,37.2744539 C12.0130821,37.2744539 14.3143401,36.4496749 15.9307697,34.8155792 L15.9304917,30.008547 C15.9304917,29.7276843 16.1699098,29.5 16.465247,29.5 Z M48.465247,29.5 C48.7359728,29.5 48.9597109,29.691318 48.9951206,29.9395402 L49.0000023,30.008547 L49.0000023,42.5791016 C49.0000023,43.0610434 48.8134353,43.5261145 48.4759042,43.8855645 C46.8335032,45.6347865 44.3288605,46.5 41.0003265,46.5 C37.6680937,46.5 35.1719054,45.6327644 33.5511884,43.8786852 C33.2583816,43.5617845 33.081792,43.1646997 33.0451584,42.7470639 L33.0380276,42.5896037 L33.031,40.262 L33.0000023,40.242536 L33.031,40.207 L33.016,35.381 L33.0000023,35.3630071 L33.016,35.345 L33.0000023,30.102435 C32.9991494,29.8215734 33.2378732,29.5932308 33.5332091,29.5924175 C33.8039337,29.591672 34.0282535,29.782373 34.0644189,30.0304967 L34.0695107,30.0994897 L34.0829366,34.8293641 C35.6990563,36.454318 37.9960303,37.2744539 41.0003086,37.2744539 C44.0130821,37.2744539 46.3143401,36.4496749 47.9307697,34.8155792 L47.9304917,30.008547 C47.9304917,29.7276843 48.1699098,29.5 48.465247,29.5 Z M41.0000023,42.5 C38.4580797,42.5 36.155284,41.9616441 34.1022466,40.8867382 L34.1075337,42.5866708 C34.1082236,42.8151659 34.1960053,43.0356772 34.3546076,43.2073302 C35.7502779,44.7178447 37.9523752,45.482906 41.0003265,45.482906 C44.0469661,45.482906 46.2601201,44.7183854 47.6781558,43.2081214 C47.8174514,43.0597801 47.9033442,42.8740812 47.9250422,42.677926 L47.9304917,42.5791016 L47.9301878,40.8697033 C45.8689795,41.9559563 43.5553176,42.5 41.0000023,42.5 Z M9.00000228,42.5 C6.45807969,42.5 4.15528399,41.9616441 2.10224656,40.8867382 L2.10753371,42.5866708 C2.10822361,42.8151659 2.19600529,43.0356772 2.3546076,43.2073302 C3.75027787,44.7178447 5.95237521,45.482906 9.00032652,45.482906 C12.0469661,45.482906 14.2601201,44.7183854 15.6781558,43.2081214 C15.8174514,43.0597801 15.9033442,42.8740812 15.9250422,42.677926 L15.9304917,42.5791016 L15.9301878,40.8697033 C13.8689795,41.9559563 11.5553176,42.5 9.00000228,42.5 Z M41.0003086,38.5 C38.157999,38.5 35.8480357,37.8032058 34.0879752,36.3994499 L34.0978925,39.7802694 C36.1216468,40.9753081 38.4176311,41.5716251 41.0000023,41.5716251 C43.5948452,41.5716251 45.9005282,40.9695343 47.9314145,39.762913 L47.9312922,36.3841731 C46.1691482,37.7981535 43.8529018,38.5 41.0003086,38.5 Z M9.00030857,38.5 C6.15799902,38.5 3.84803571,37.8032058 2.08797523,36.3994499 L2.09789253,39.7802694 C4.12164679,40.9753081 6.41763106,41.5716251 9.00000228,41.5716251 C11.5948452,41.5716251 13.9005282,40.9695343 15.9314145,39.762913 L15.9312922,36.3841731 C14.1691482,37.7981535 11.8529018,38.5 9.00030857,38.5 Z M32.465247,3.5 C32.7359728,3.5 32.9597109,3.69131802 32.9951206,3.93954019 L33.0000023,4.00854701 L33.0000023,16.5791016 C33.0000023,17.0610434 32.8134353,17.5261145 32.4759042,17.8855645 C30.8335032,19.6347865 28.3288605,20.5 25.0003265,20.5 C21.6680937,20.5 19.1719054,19.6327644 17.5511884,17.8786852 C17.2583816,17.5617845 17.081792,17.1646997 17.0451584,16.7470639 L17.0380276,16.5896037 L17.031,14.262 L17.0000023,14.242536 L17.031,14.207 L17.016,9.381 L17.0000023,9.36300714 L17.016,9.345 L17.0000023,4.10243497 C16.9991494,3.82157339 17.2378732,3.59323078 17.5332091,3.59241748 C17.8039337,3.59167196 18.0282535,3.78237304 18.0644189,4.03049666 L18.0695107,4.09948975 L18.0829366,8.82936408 C19.6990563,10.454318 21.9960303,11.2744539 25.0003086,11.2744539 C28.0130821,11.2744539 30.3143401,10.4496749 31.9307697,8.81557918 L31.9304917,4.00854701 C31.9304917,3.72768425 32.1699098,3.5 32.465247,3.5 Z M31.9301878,14.8697033 C29.8689795,15.9559563 27.5553176,16.5 25.0000023,16.5 C22.4580797,16.5 20.155284,15.9616441 18.1022466,14.8867382 L18.1075337,16.5866708 C18.1082236,16.8151659 18.1960053,17.0356772 18.3546076,17.2073302 C19.7502779,18.7178447 21.9523752,19.482906 25.0003265,19.482906 C28.0469661,19.482906 30.2601201,18.7183854 31.6781558,17.2081214 C31.8174514,17.0597801 31.9033442,16.8740812 31.9250422,16.677926 L31.9304917,16.5791016 L31.9301878,14.8697033 Z M31.9312922,10.3841731 C30.1691482,11.7981535 27.8529018,12.5 25.0003086,12.5 C22.157999,12.5 19.8480357,11.8032058 18.0879752,10.3994499 L18.0978925,13.7802694 C20.1216468,14.9753081 22.4176311,15.5716251 25.0000023,15.5716251 C27.5948452,15.5716251 29.9005282,14.9695343 31.9314145,13.762913 L31.9312922,10.3841731 Z" id="形状结合"></path>
            <path d="M30.9994824,40.0129381 L31.000044,41.7312086 C29.1308073,42.4224396 27.1094968,42.8 25.0000023,42.8 C22.890346,42.8 20.8688872,42.4223817 18.9995306,41.7310496 L18.9995187,40.0125228 C20.8481712,40.7777328 22.8747738,41.2 25.0000023,41.2 C27.1248462,41.2 29.1511,40.7778856 30.9994824,40.0129381 Z M35.8706263,12.0411845 C39.3077448,14.8208016 41.6586749,18.8903302 42.1871957,23.5135495 C41.9168856,23.5043272 41.6590261,23.5 41.4121812,23.5 C41.1332238,23.5 40.8543964,23.5055263 40.5756989,23.5165788 C40.1178528,19.8800945 38.4147431,16.6297144 35.9068795,14.20706 Z M14.341881,11.8720611 L14.3416488,13.9721272 C11.7178682,16.3991802 9.92432018,19.7108234 9.43482456,23.433237 C9.17546732,23.4239686 8.91000097,23.4200277 8.64048768,23.4200277 C8.3681245,23.4200277 8.09565097,23.4240524 7.82306711,23.4321017 C8.3798305,18.7487344 10.8094495,14.6385939 14.341881,11.8720611 Z" id="形状结合"></path>
            <path d="M25.0000023,0.5 C20.6277187,0.5 17.0000023,1.79615286 17.0000023,4 C17.0000023,6.20384714 20.6277187,7.5 25.0000023,7.5 C29.3722858,7.5 33.0000023,6.20384714 33.0000023,4 C33.0000023,1.83696484 29.5054016,0.548316942 25.2421226,0.501331024 L25.0000023,0.5 Z M25.0000023,2.5 C28.362005,2.5 31.0000023,3.46176986 31.0000023,4 C31.0000023,4.53823014 28.362005,5.5 25.0000023,5.5 C21.6379996,5.5 19.0000023,4.53823014 19.0000023,4 C19.0000023,3.46176986 21.6379996,2.5 25.0000023,2.5 Z" id="椭圆形"></path>
            <path d="M9.00000228,26.5 C4.62771873,26.5 1.00000228,27.7961529 1.00000228,30 C1.00000228,32.2038471 4.62771873,33.5 9.00000228,33.5 C13.3722858,33.5 17.0000023,32.2038471 17.0000023,30 C17.0000023,27.8369648 13.5054016,26.5483169 9.24212259,26.501331 L9.00000228,26.5 Z M9.00000228,28.5 C12.362005,28.5 15.0000023,29.4617699 15.0000023,30 C15.0000023,30.5382301 12.362005,31.5 9.00000228,31.5 C5.6379996,31.5 3.00000228,30.5382301 3.00000228,30 C3.00000228,29.4617699 5.6379996,28.5 9.00000228,28.5 Z" id="椭圆形备份-2"></path>
            <path d="M41.0000023,26.5 C36.6277187,26.5 33.0000023,27.7961529 33.0000023,30 C33.0000023,32.2038471 36.6277187,33.5 41.0000023,33.5 C45.3722858,33.5 49.0000023,32.2038471 49.0000023,30 C49.0000023,27.8369648 45.5054016,26.5483169 41.2421226,26.501331 L41.0000023,26.5 Z M41.0000023,28.5 C44.362005,28.5 47.0000023,29.4617699 47.0000023,30 C47.0000023,30.5382301 44.362005,31.5 41.0000023,31.5 C37.6379996,31.5 35.0000023,30.5382301 35.0000023,30 C35.0000023,29.4617699 37.6379996,28.5 41.0000023,28.5 Z" id="椭圆形备份-3"></path>
        </g>
    </g>
</svg>