<?xml version="1.0" encoding="UTF-8"?>
<svg width="22px" height="22px" viewBox="0 0 22 22" version="1.1" xmlns="http://www.w3.org/2000/svg" xmlns:xlink="http://www.w3.org/1999/xlink">
    <title>icon/28/导出/按下</title>
    <g id="联动分析" stroke="none" stroke-width="1" fill="none" fill-rule="evenodd">
        <g id="热点函数备份-3" transform="translate(-1849.000000, -553.000000)" fill="#888888">
            <g id="形状结合备份" transform="translate(1848.000000, 552.000000)">
                <path d="M12,1 C18.0751322,1 23,5.92486775 23,12 C23,18.0751322 18.0751322,23 12,23 C5.92486775,23 1,18.0751322 1,12 C1,5.92486775 5.92486775,1 12,1 Z M12,2 C6.4771525,2 2,6.4771525 2,12 C2,17.5228475 6.4771525,22 12,22 C17.5228475,22 22,17.5228475 22,12 C22,6.4771525 17.5228475,2 12,2 Z M12,16.5 C12.2761424,16.5 12.5,16.7238576 12.5,17 L12.5,18 C12.5,18.2761424 12.2761424,18.5 12,18.5 C11.7238576,18.5 11.5,18.2761424 11.5,18 L11.5,17 C11.5,16.7238576 11.7238576,16.5 12,16.5 Z M12,6.5 C13.9368566,6.5 15.5,8.11698709 15.5,10.1033373 C15.5,11.0127548 15.1705873,11.8699665 14.5903635,12.5267219 L14.4401278,12.6866488 L14.3555881,12.7546452 L12.5,13.939 L12.5,15 C12.5,15.2454599 12.3231248,15.4496084 12.0898756,15.4919443 L12,15.5 C11.7545401,15.5 11.5503916,15.3231248 11.5080557,15.0898756 L11.5,15 L11.5,13.6666667 C11.5,13.5244938 11.5604102,13.3904985 11.6637402,13.2966156 L11.7307486,13.2453548 L13.763,11.946 L13.8601903,11.8425917 C14.2274267,11.4173392 14.4518834,10.8780372 14.4931024,10.2980665 L14.5,10.1033373 C14.5,8.6618358 13.3768519,7.5 12,7.5 C10.6231481,7.5 9.5,8.6618358 9.5,10.1033373 C9.5,10.4227957 9.5550739,10.733571 9.66116012,11.0252025 C9.75556004,11.2847084 9.62171527,11.5716056 9.36220946,11.6660056 C9.10270365,11.7604055 8.81580636,11.6265607 8.72140644,11.3670549 C8.57557243,10.9661565 8.5,10.5397105 8.5,10.1033373 C8.5,8.11698709 10.0631434,6.5 12,6.5 Z"></path>
            </g>
        </g>
    </g>
</svg>