<?xml version="1.0" encoding="UTF-8"?>
<svg width="28px" height="28px" viewBox="0 0 28 28" version="1.1" xmlns="http://www.w3.org/2000/svg" xmlns:xlink="http://www.w3.org/1999/xlink">
    <title>icon/28/下Hover</title>
    <g id="icon/28/下Hover" stroke="none" stroke-width="1" fill="none" fill-rule="evenodd">
        <rect id="矩形备份" stroke="#267DFF" fill="#FFFFFF" x="0.5" y="0.5" width="27" height="27" rx="2"></rect>
        <g id="编组" transform="translate(14.000000, 13.000000) scale(1, -1) translate(-14.000000, -13.000000) translate(7.000000, 5.000000)" fill="#267DFF">
            <path d="M8.02,1.30666667 C8.10591309,1.37110148 8.18542996,1.44345893 8.257533,1.5227214 L8.36,1.64666667 L13.56,8.58 C13.7919596,8.88927946 13.7292795,9.32804041 13.42,9.56 C13.1388369,9.77087236 12.7506642,9.73824081 12.5081364,9.49819882 L12.44,9.42 L7.6999588,3.09956662 L7.7,15 C7.7,15.3865993 7.38659932,15.7 7,15.7 C6.64561729,15.7 6.35274177,15.4366564 6.30639017,15.0949859 L6.3,15 L6.2999588,3.09956662 L1.56,9.42 C1.32804041,9.72927946 0.88927946,9.79195959 0.58,9.56 C0.298836855,9.34912764 0.221474804,8.96734508 0.384007316,8.66730657 L0.44,8.58 L5.64,1.64666667 C6.20333044,0.895559407 7.26889274,0.743336222 8.02,1.30666667 Z" id="形状结合"></path>
        </g>
    </g>
</svg>