<?xml version="1.0" encoding="UTF-8"?>
<svg width="12px" height="12px" viewBox="0 0 12 12" version="1.1" xmlns="http://www.w3.org/2000/svg" xmlns:xlink="http://www.w3.org/1999/xlink">
    <desc>Created with Sketch.</desc>
    <defs>
        <path d="M0.743602308,0.083993533 L0.80925643,0.138846453 L5.99959504,5.3292863 L11.1907436,0.138846453 C11.3758722,-0.0462821508 11.6760249,-0.0462821508 11.8611535,0.138846453 C12.0257123,0.303405211 12.0439966,0.558847262 11.9160065,0.743602308 L11.8611535,0.80925643 L6.66990378,5.99959504 L11.8611535,11.1907436 C12.0462822,11.3758722 12.0462822,11.6760249 11.8611535,11.8611535 C11.6965948,12.0257123 11.4411527,12.0439966 11.2563977,11.9160065 L11.1907436,11.8611535 L5.99959504,6.66990378 L0.80925643,11.8611535 C0.624127827,12.0462822 0.323975056,12.0462822 0.138846453,11.8611535 C-0.025712306,11.6965948 -0.0439966125,11.4411527 0.083993533,11.2563977 L0.138846453,11.1907436 L5.3292863,5.99959504 L0.138846453,0.80925643 C-0.0462821508,0.624127827 -0.0462821508,0.323975056 0.138846453,0.138846453 C0.303405211,-0.025712306 0.558847262,-0.0439966125 0.743602308,0.083993533 Z" id="path-1"></path>
    </defs>
    <g id="Profiling分析模块" stroke="none" stroke-width="1" fill="none" fill-rule="evenodd">
        <g id="内存转储-支配树备份" transform="translate(-1807.000000, -160.000000)">
            <g id="4.组件/3.数据录入/8.搜索/3.输入" transform="translate(1464.000000, 152.000000)">
                <g id="4.组件/2.通用/icon/搜索备份" transform="translate(343.000000, 8.000000)">
                    <mask id="mask-2" fill="white">
                        <use xlink:href="#path-1"></use>
                    </mask>
                    <use id="蒙版" fill="#888888" fill-rule="nonzero" xlink:href="#path-1"></use>
                </g>
            </g>
        </g>
    </g>
</svg>