<?xml version="1.0" encoding="UTF-8"?>
<svg width="28px" height="28px" viewBox="0 0 28 28" version="1.1" xmlns="http://www.w3.org/2000/svg" xmlns:xlink="http://www.w3.org/1999/xlink">
    <title>4.组件/2.通用/icon/tuning/配置参数/Hover</title>
    <defs>
        <path d="M12.0832233,15 C12.5556378,15 12.9465294,15.3558537 12.9987624,15.8152285 L13.0046875,15.9229609 L13.0046875,20.0770351 C13.0046875,20.5508431 12.6488303,20.9405437 12.189455,20.9937979 L12.0817226,21 L7.92764836,21 C7.45384034,21 7.06414321,20.6441428 7.01088958,20.1847675 L7.0046875,20.0770351 L7.0046875,15.9229609 C7.0046875,15.4491528 7.36054121,15.0594557 7.81991599,15.0062021 L7.92764836,15 L12.0832233,15 Z M12,16 L8,16 L8,20 L12,20 L12,16 Z M21,19 L21,20 L15,20 L15,19 L21,19 Z M21,16 L21,17 L15,17 L15,16 L21,16 Z M12.0785358,7 C12.5509503,7 12.9418419,7.35585371 12.9940749,7.81522849 L13,7.92296086 L13,12.0770351 C13,12.5508431 12.6441428,12.9405437 12.1847675,12.9937979 L12.0770351,13 L7.92296086,13 C7.44915284,13 7.05945571,12.6441428 7.00620208,12.1847675 L7,12.0770351 L7,7.92296086 C7,7.44915284 7.35585371,7.05945571 7.81522849,7.00620208 L7.92296086,7 L12.0785358,7 Z M12,8 L8,8 L8,12 L12,12 L12,8 Z M21,11 L21,12 L15,12 L15,11 L21,11 Z M21,8 L21,9 L15,9 L15,8 L21,8 Z" id="path-1"></path>
    </defs>
    <g id="Profiling分析模块" stroke="none" stroke-width="1" fill="none" fill-rule="evenodd">
        <g id="12.9″-iPad-Pro" transform="translate(-676.000000, -557.000000)">
            <g id="4.组件/2.通用/icon/tuning/配置参数/Hover" transform="translate(676.000000, 557.000000)">
                <rect id="bgc" stroke="#0067FF" x="0.5" y="0.5" width="27" height="27" rx="2"></rect>
                <mask id="mask-2" fill="white">
                    <use xlink:href="#path-1"></use>
                </mask>
                <use id="形状结合" fill="#CCCCCC" fill-rule="nonzero" xlink:href="#path-1"></use>
                <g id="3.颜色/1.主色调蓝" mask="url(#mask-2)" fill="#0067FF">
                    <g transform="translate(4.000000, 4.000000)" id="矩形">
                        <rect x="0" y="0" width="20" height="20"></rect>
                    </g>
                </g>
            </g>
        </g>
    </g>
</svg>