<?xml version="1.0" encoding="UTF-8"?>
<svg width="16px" height="16px" viewBox="0 0 16 16" version="1.1" xmlns="http://www.w3.org/2000/svg" xmlns:xlink="http://www.w3.org/1999/xlink">
    <title>进行中 (2)</title>
    <desc>Created with Sketch.</desc>
    <g id="页面-1" stroke="none" stroke-width="1" fill="none" fill-rule="evenodd">
        <g id="内存转储优化3" transform="translate(-901.000000, -746.000000)" fill="#61D274" fill-rule="nonzero">
            <g id="编组-11" transform="translate(760.000000, 416.000000)">
                <g id="编组-20" transform="translate(141.000000, 248.000000)">
                    <g id="编组-8" transform="translate(0.000000, 80.000000)">
                        <g id="进行中-(2)" transform="translate(0.000000, 2.000000)">
                            <path d="M8,0 C12.418278,0 16,3.581722 16,8 C16,12.418278 12.418278,16 8,16 C3.581722,16 0,12.418278 0,8 C0,3.581722 3.581722,0 8,0 Z M8,4 C7.44771525,4 7,4.44771525 7,5 L7,11 C7,11.5522847 7.44771525,12 8,12 C8.55228475,12 9,11.5522847 9,11 L9,5 C9,4.44771525 8.55228475,4 8,4 Z M4,6 C3.44771525,6 3,6.44771525 3,7 L3,9 C3,9.55228475 3.44771525,10 4,10 C4.55228475,10 5,9.55228475 5,9 L5,7 C5,6.44771525 4.55228475,6 4,6 Z M12,6 C11.4477153,6 11,6.44771525 11,7 L11,9 C11,9.55228475 11.4477153,10 12,10 C12.5522847,10 13,9.55228475 13,9 L13,7 C13,6.44771525 12.5522847,6 12,6 Z" id="形状"></path>
                        </g>
                    </g>
                </g>
            </g>
        </g>
    </g>
</svg>