<?xml version="1.0" encoding="UTF-8"?>
<svg width="12px" height="12px" viewBox="0 0 12 12" version="1.1" xmlns="http://www.w3.org/2000/svg" xmlns:xlink="http://www.w3.org/1999/xlink">
    <!-- Generator: Sketch 63.1 (92452) - https://sketch.com -->
    <title>4.组件/2.通用/icon/tuning/加载运行备份 2</title>
    <desc>Created with Sketch.</desc>
    <g id="330-TI4需求设计" stroke="none" stroke-width="1" fill="none" fill-rule="evenodd">
        <g id="导入导出功能-Profiling导出" transform="translate(-258.000000, -271.000000)" fill="#AAAAAA" fill-rule="nonzero">
            <g id="编组-20">
                <g id="编组" transform="translate(47.000000, 30.000000)">
                    <g id="性能优化工具" transform="translate(0.000000, 35.000000)">
                        <g id="编组-16" transform="translate(0.000000, 201.000000)">
                            <g id="icon/14/导出" transform="translate(210.000000, 4.000000)">
                                <path d="M4.16363636,1 C4.46488259,1 4.70909091,1.24420832 4.70909091,1.54545455 C4.70909091,1.81322897 4.51613619,2.0359364 4.26168251,2.08212109 L4.16363636,2.09090909 L2.63636364,2.09090909 C2.36858921,2.09090909 2.14588178,2.28386381 2.09969709,2.53831749 L2.09090909,2.63636364 L2.09090909,11.3636364 C2.09090909,11.6314108 2.28386381,11.8541182 2.53831749,11.9003029 L2.63636364,11.9090909 L11.3636364,11.9090909 C11.6314108,11.9090909 11.8541182,11.7161362 11.9003029,11.4616825 L11.9090909,11.3636364 L11.9090909,9.93706294 C11.9090909,9.63581671 12.1532992,9.39160839 12.4545455,9.39160839 C12.7223199,9.39160839 12.9450273,9.58456311 12.991212,9.83901679 L13,9.93706294 L13,11.3636364 C13,12.2142139 12.3510312,12.9132167 11.5212291,12.9925092 L11.3636364,13 L2.63636364,13 C1.78578605,13 1.08678326,12.3510312 1.00749081,11.5212291 L1,11.3636364 L1,2.63636364 C1,1.78578605 1.64896882,1.08678326 2.4787709,1.00749081 L2.63636364,1 L4.16363636,1 Z M12.4545455,1 C12.7223199,1 12.9450273,1.19295472 12.991212,1.4474084 L13,1.54545455 L13,5.90909091 C13,6.21033714 12.7557917,6.45454545 12.4545455,6.45454545 C12.186771,6.45454545 11.9640636,6.26159073 11.9178789,6.00713705 L11.9090909,5.90909091 L11.909,2.861 L6.84024006,7.93114915 C6.62722681,8.1441624 6.2818641,8.1441624 6.06885085,7.93114915 C5.87950574,7.74180404 5.85846739,7.44788651 6.00573581,7.23530309 L6.06885085,7.15975994 L11.138,2.09 L8.09090909,2.09090909 C7.82313467,2.09090909 7.60042723,1.89795437 7.55424255,1.64350069 L7.54545455,1.54545455 C7.54545455,1.27768012 7.73840927,1.05497269 7.99286295,1.008788 L8.09090909,1 L12.4545455,1 Z" id="形状结合"></path>
                            </g>
                        </g>
                    </g>
                </g>
            </g>
        </g>
    </g>
</svg>