<?xml version="1.0" encoding="UTF-8"?>
<svg width="28px" height="28px" viewBox="0 0 28 28" version="1.1" xmlns="http://www.w3.org/2000/svg" xmlns:xlink="http://www.w3.org/1999/xlink">
    <title>icon/Javaperf/28/导出-Hover@1x</title>
    <g id="icon/Javaperf/28/导出-Hover" stroke="none" stroke-width="1" fill="none" fill-rule="evenodd">
        <rect id="bgc" fill="#2F65CA" x="0" y="0" width="28" height="28" rx="1"></rect>
        <path d="M21.5,10 C21.7761424,10 22,10.2238576 22,10.5 L22,21.5 C22,21.7761424 21.7761424,22 21.5,22 L6.5,22 C6.22385763,22 6,21.7761424 6,21.5 L6,10 L21.5,10 Z M13.9662401,12.036456 L13.9356808,12.0540281 L9.21020296,16.0234295 C9.18758341,16.0424299 9.17452217,16.0704592 9.17452217,16.1 C9.17452217,16.1414214 9.19970615,16.1769607 9.23559766,16.1921415 L9.27452217,16.2 L12.125,16.2 L12.125,18.9 C12.125,18.9552285 12.1697715,19 12.225,19 L15.775,19 C15.8302285,19 15.875,18.9552285 15.875,18.9 L15.875,16.2 L18.7254778,16.2 C18.7550187,16.2 18.7830479,16.1869388 18.8020483,16.1643192 C18.8286902,16.1326027 18.8322653,16.0891919 18.8145472,16.0544827 L18.789797,16.0234295 L14.0643192,12.0540281 C14.0364269,12.0305986 13.9989332,12.0247412 13.9662401,12.036456 Z M12.198604,6 C12.3445664,6 12.4832412,6.06378136 12.5782323,6.17460431 L15,9 L6,9 L6,6.5 C6,6.22385763 6.22385763,6 6.5,6 L12.198604,6 Z" id="形状结合" fill="#DCDCDC"></path>
    </g>
</svg>