<?xml version="1.0" encoding="UTF-8"?>
<svg width="28px" height="28px" viewBox="0 0 28 28" version="1.1" xmlns="http://www.w3.org/2000/svg" xmlns:xlink="http://www.w3.org/1999/xlink">
    <!-- Generator: Sketch 63.1 (92452) - https://sketch.com -->
    <title>4.组件/2.通用/icon/tuning/导出记录/Click</title>
    <desc>Created with Sketch.</desc>
    <g id="4.组件/2.通用/icon/tuning/导出记录/Click" stroke="none" stroke-width="1" fill="none" fill-rule="evenodd">
        <rect id="bgc备份-2" stroke="#0057D9" fill="#262626" x="0.5" y="0.5" width="27" height="27" rx="2"></rect>
        <path d="M11.5,7 C11.7761424,7 12,7.22385763 12,7.5 C12,7.74545989 11.8231248,7.94960837 11.5898756,7.99194433 L11.5,8 L8.5,8 C8.25454011,8 8.05039163,8.17687516 8.00805567,8.41012437 L8,8.5 L8,19.5 C8,19.7454599 8.17687516,19.9496084 8.41012437,19.9919443 L8.5,20 L19.5,20 C19.7454599,20 19.9496084,19.8231248 19.9919443,19.5898756 L20,19.5 L20,17.5 C20,17.2238576 20.2238576,17 20.5,17 C20.7454599,17 20.9496084,17.1768752 20.9919443,17.4101244 L21,17.5 L21,19.5 C21,20.2796961 20.4051119,20.9204487 19.64446,20.9931334 L19.5,21 L8.5,21 C7.72030388,21 7.07955132,20.4051119 7.00686658,19.64446 L7,19.5 L7,8.5 C7,7.72030388 7.59488808,7.07955132 8.35553999,7.00686658 L8.5,7 L11.5,7 Z M20.5,7 L20.5115408,7.00013238 C20.5324012,7.000611 20.5532373,7.0023875 20.5739178,7.00546187 L20.5,7 C20.536097,7 20.5713007,7.00382515 20.6052277,7.01109223 C20.6204743,7.01439613 20.6358347,7.01844802 20.6510116,7.02324135 C20.6647369,7.0275581 20.6780251,7.03240845 20.6910366,7.03779224 C20.7045389,7.04335147 20.7182757,7.04974961 20.7317582,7.05680497 C20.7440467,7.06329334 20.7556825,7.07001934 20.7670103,7.07718801 C20.7788346,7.08460935 20.7906092,7.09277454 20.8020925,7.10150261 C20.8157542,7.11192025 20.8288187,7.1229392 20.8412864,7.13458875 C20.845325,7.13835695 20.8494658,7.142359 20.8535534,7.14644661 L20.8654113,7.15871357 C20.8770608,7.17118132 20.8880797,7.18424576 20.8984173,7.19785608 L20.8535534,7.14644661 C20.8789603,7.17185353 20.9010614,7.19931445 20.9198565,7.22829485 C20.9279221,7.24078159 20.9357539,7.2541389 20.9429657,7.26787276 C20.9495913,7.28046473 20.9554473,7.29289667 20.9607632,7.30550233 C20.9665648,7.3191819 20.9719906,7.33383901 20.9767316,7.34880083 C20.9812433,7.36318793 20.9850789,7.37754815 20.9882655,7.39202251 C20.9895896,7.39781538 20.9908237,7.40395012 20.9919443,7.41012437 L20.9948333,7.42809589 C20.9973429,7.44546098 20.9989382,7.46293275 20.9996194,7.48043349 L21,7.5 L21,11.5 C21,11.7761424 20.7761424,12 20.5,12 C20.2545401,12 20.0503916,11.8231248 20.0080557,11.5898756 L20,11.5 L20,8.706 L13.8535534,14.8535534 C13.6582912,15.0488155 13.3417088,15.0488155 13.1464466,14.8535534 C12.9728803,14.679987 12.9535951,14.4105626 13.0885912,14.2156945 L13.1464466,14.1464466 L19.292,8 L16.5,8 C16.2545401,8 16.0503916,7.82312484 16.0080557,7.58987563 L16,7.5 C16,7.25454011 16.1768752,7.05039163 16.4101244,7.00805567 L16.5,7 L20.5,7 Z" id="形状结合" fill="#0057D9"></path>
    </g>
</svg>