<?xml version="1.0" encoding="UTF-8"?>
<svg width="16px" height="15px" viewBox="0 0 16 15" version="1.1" xmlns="http://www.w3.org/2000/svg" xmlns:xlink="http://www.w3.org/1999/xlink">
    <title>4.组件/2.通用/icon/16/全部展开</title>
    <defs>
        <path d="M8.12039536,8.70422969 C8.17444939,8.70422969 8.22034432,8.63283758 8.22034432,8.54614716 L8.22034432,7.44466887 C8.22034432,7.36001822 8.17648917,7.289646 8.11937548,7.28760622 L2.10306027,7.28760622 C2.04594658,7.289646 2.00107154,7.35899833 2.00207439,7.44466887 L2.00207439,8.54614716 C2.00207439,8.63385746 2.04696647,8.70422969 2.10204039,8.70422969 L8.12039536,8.70422969 Z M2.00107154,12.8337534 C2.00107154,12.9194239 2.04594658,12.990816 2.1010205,12.990816 L8.12039536,12.990816 C8.17648917,12.990816 8.22136421,12.9194239 8.22136421,12.8337534 L8.22136421,11.7322751 C8.22136421,11.6466046 8.17750905,11.5762323 8.12039536,11.5741926 L2.10306027,11.5741926 C2.04594658,11.5762323 2.00107154,11.6466046 2.00209143,11.7322751 L2.00209143,12.8337534 L2.00107154,12.8337534 Z M8.15813119,3 L2.06226478,3 C2.02758861,3.00203977 1.99903177,3.07139211 2.00002516,3.15706264 L2.00002516,4.25854093 C2.00002516,4.34625124 2.02758861,4.41662346 2.06226478,4.41662346 L8.15711131,4.41662346 C8.19076759,4.41662346 8.21833199,4.34523135 8.21833199,4.25956082 L8.21833199,3.15808253 C8.21932443,3.072412 8.19178748,3.00203977 8.15711131,3 L8.15813119,3 Z M2.06226478,15.8617988 C2.02758861,15.8638386 1.99903177,15.9342108 2.00002516,16.0188614 L2.00002516,17.1203397 C2.00002516,17.20805 2.02758861,17.2784222 2.06226478,17.2784222 L8.15711131,17.2784222 C8.19076759,17.2784222 8.21833199,17.2070301 8.21833199,17.1213596 L8.21833199,16.0198813 C8.21932443,15.9342108 8.19178748,15.8638386 8.15711131,15.8617988 L2.06226478,15.8617988 Z M17.7970861,13.8628197 C17.9279479,13.7307265 18.0009381,13.5520345 17.9999909,13.3660976 C17.9990251,13.1801608 17.9242005,13.0022291 17.7919867,12.8714892 C17.661111,12.7394114 17.4831034,12.6647708 17.2971669,12.6640056 C17.1112303,12.6632404 16.9326145,12.7364135 16.8006562,12.8674097 L14.5385462,15.1346191 L14.485512,3.86996387 C14.4829039,3.62003999 14.348865,3.38996195 14.1327394,3.26442918 C13.9166138,3.1388964 13.6503499,3.13646555 13.4319684,3.25803149 C13.215773,3.38284263 13.0833375,3.61421526 13.0852068,3.86384455 L13.137221,15.1305396 L10.8465541,12.8388528 C10.7156785,12.706775 10.5376709,12.6321344 10.3517343,12.6313692 C10.1657978,12.630604 9.98718193,12.7037771 9.85522367,12.8347733 C9.58310529,13.1094573 9.58493101,13.5526511 9.85930322,13.8250838 L12.8547122,16.8204928 C13.4034116,17.3671524 14.286634,17.371232 14.829214,16.8306917 L17.7970861,13.8628197 L17.7970861,13.8628197 Z" id="path-1"></path>
    </defs>
    <g id="Sampling分析模块" stroke="none" stroke-width="1" fill="none" fill-rule="evenodd">
        <g id="3锁-栈跟踪滚动到顶-VSCode" transform="translate(-462.000000, -945.000000)">
            <g id="编组-21" transform="translate(384.000000, 676.000000)">
                <g id="编组-20" transform="translate(0.000000, 46.000000)">
                    <g transform="translate(20.000000, 20.000000)" id="编组-18">
                        <g>
                            <g id="编组-24" transform="translate(28.000000, 200.000000)">
                                <g id="4.组件/2.通用/icon/tuning/全部展开" transform="translate(28.000000, 0.000000)">
                                    <rect id="矩形" x="2" y="2" width="16" height="16"></rect>
                                    <mask id="mask-2" fill="white">
                                        <use xlink:href="#path-1"></use>
                                    </mask>
                                    <use id="形状" fill="#19AA8D" fill-rule="nonzero" xlink:href="#path-1"></use>
                                    <g id="3.颜色/1.主色调蓝" mask="url(#mask-2)" fill="#335FAD" fill-rule="evenodd">
                                        <rect id="矩形" x="0" y="0" width="20" height="20"></rect>
                                    </g>
                                </g>
                            </g>
                        </g>
                    </g>
                </g>
            </g>
        </g>
    </g>
</svg>