<?xml version="1.0" encoding="UTF-8"?>
<svg width="28px" height="28px" viewBox="0 0 28 28" version="1.1" xmlns="http://www.w3.org/2000/svg" xmlns:xlink="http://www.w3.org/1999/xlink">
    <title>4.组件/2.通用/icon/tuning/快照/Hover</title>
    <defs>
        <path d="M17.0296496,7.5 L18.2048518,9.44675541 L20.3719677,9.44675541 C21.3800539,9.44675541 21.9361419,10.3921602 21.9948181,10.9709794 L22,11.0690516 L22,18.8885191 C22,19.7056757 21.2210243,20.4167155 20.52593,20.4931978 L20.4043127,20.5 L7.5309973,20.5 C6.8589398,20.5 6.09071246,19.8632988 6.00742811,19.0272266 L6,18.8777038 L6,11.0582363 C6,10.0572194 6.94246448,9.50961104 7.52856625,9.45185522 L7.62803235,9.44675541 L9.79514825,9.44675541 L10.9703504,7.5 L17.0296496,7.5 Z M16.4638881,8.50680376 L11.5350404,8.50680376 L10.3609294,10.4539309 L7.62803235,10.4539309 C7.40719847,10.4539309 7.0784343,10.7010294 7.01488981,10.9685991 L7.00404313,11.0582363 L7.00404313,18.8777038 C7.00404313,19.147563 7.26098055,19.4299234 7.46527395,19.4836969 L7.5309973,19.4928245 L20.4043127,19.4928245 C20.6063887,19.4928245 20.9239597,19.2088617 20.9854531,18.9670971 L20.9959569,18.8885191 L20.9959569,11.0690516 C20.9959569,10.8580788 20.7376343,10.5223287 20.4566929,10.4630268 L20.3719677,10.4539309 L17.6390706,10.4539309 L16.4638881,8.50680376 Z M14,10.9070081 C15.9670871,10.9070081 17.56,12.5026954 17.56,14.4649596 C17.56,16.4272237 15.9670871,18.0229111 14,18.0229111 C12.0436036,18.0229111 10.44,16.4272237 10.44,14.4649596 C10.44,12.5026954 12.0329129,10.9070081 14,10.9070081 Z M14,11.9110512 C12.5821776,11.9110512 11.4355706,13.0578197 11.4355706,14.4649596 C11.4355706,15.867943 12.5887209,17.0188679 14,17.0188679 C15.4178224,17.0188679 16.5644294,15.8720994 16.5644294,14.4649596 C16.5644294,13.0578197 15.4178224,11.9110512 14,11.9110512 Z" id="path-1"></path>
    </defs>
    <g id="Profiling分析模块" stroke="none" stroke-width="1" fill="none" fill-rule="evenodd">
        <g id="12.9″-iPad-Pro" transform="translate(-714.000000, -557.000000)">
            <g id="4.组件/2.通用/icon/tuning/快照/Hover" transform="translate(714.000000, 557.000000)">
                <rect id="bgc" stroke="#0067FF" x="0.5" y="0.5" width="27" height="27" rx="2"></rect>
                <mask id="mask-2" fill="white">
                    <use xlink:href="#path-1"></use>
                </mask>
                <use id="形状结合" fill="#CCCCCC" fill-rule="nonzero" xlink:href="#path-1"></use>
                <g id="3.颜色/1.主色调蓝" mask="url(#mask-2)" fill="#0067FF">
                    <g transform="translate(4.000000, 4.000000)" id="矩形">
                        <rect x="0" y="0" width="20" height="20"></rect>
                    </g>
                </g>
            </g>
        </g>
    </g>
</svg>