<?xml version="1.0" encoding="UTF-8"?>
<svg width="16px" height="17px" viewBox="0 0 16 17" version="1.1" xmlns="http://www.w3.org/2000/svg" xmlns:xlink="http://www.w3.org/1999/xlink">
    <title>4.组件/2.通用/icon/树/文件夹</title>
    <defs>
        <path d="M13.0949367,8.5 C13.462999,8.5 13.8148828,8.90446409 13.896709,9.38484297 L13.9113924,9.50632911 L15.0126582,9.50632911 C15.5265823,9.50632911 15.9412658,9.93637131 15.9942729,10.47227 L16,10.5886076 L16,14.9936709 C16,15.5607595 15.6195781,16.0120675 15.1211702,16.0697215 L15.0126582,16.0759494 L7.98734177,16.0759494 C7.47341772,16.0759494 7.05873418,15.6459072 7.00572714,15.1100084 L7,14.9936709 L7,10.5886076 C7,10.021519 7.38042194,9.57021097 7.87882982,9.51255696 L7.98734177,9.50632911 L9.08860759,9.50632911 C9.12366115,9.01557936 9.43375028,8.57336529 9.80979817,8.5082362 L9.90506329,8.5 L13.0949367,8.5 Z M14.8571429,-2.91322522e-12 C15.4875,-2.91322522e-12 16,0.504492187 16,1.125 L16,8.41464844 C16,8.72578125 15.7446429,8.97714844 15.4285714,8.97714844 C15.1125,8.97714844 14.8571429,8.72578125 14.8571429,8.41464844 L14.8571429,1.125 L1.14285714,1.125 L1.14285714,14.875 L2.87857143,14.875 C3.19464286,14.875 3.37857143,15.1263672 3.37857143,15.4375 C3.37857143,15.7486328 3.19285714,15.9982422 2.87857143,15.9982422 L1.14285714,15.9982422 C0.5125,15.9982422 0,15.49375 0,14.8732422 L0,1.125 C0,0.504492187 0.5125,-2.91322522e-12 1.14285714,-2.91322522e-12 L14.8571429,-2.91322522e-12 Z M12.9050633,9.44936709 L10.0379747,9.44936709 C10.0379747,9.47468354 10.0295359,9.5 10.02391,9.53094233 L10.0189873,9.58227848 L10.0189873,9.98101266 C10.0189873,10.2172996 9.85396156,10.4085795 9.63059332,10.448169 L9.5443038,10.4556962 L7.96835443,10.4556962 C7.96835443,10.4556962 7.94699367,10.4877373 7.93631329,10.5357991 L7.93037975,10.5886076 L7.93037975,15.0126582 C7.93037975,15.0696203 7.95174051,15.1159019 7.97043117,15.1354826 L7.98734177,15.1455696 L15.0126582,15.1455696 C15.0126582,15.1455696 15.034019,15.1135285 15.0446994,15.0654668 L15.0506329,15.0126582 L15.0126582,15.0126582 L15.0126582,10.5886076 C15.0126582,10.5316456 15.0019778,10.4960443 14.9886274,10.4737935 L14.9746835,10.4556962 L13.3987342,10.4556962 C13.1624473,10.4556962 12.9711674,10.2906704 12.9315779,10.0673022 L12.9240506,9.98101266 L12.9240506,9.58227848 C12.9240506,9.52531646 12.9240506,9.48734177 12.9050633,9.44936709 Z M11.5,10.3987342 C12.6392405,10.3987342 13.5696203,11.3291139 13.5696203,12.4683544 C13.5696203,13.6075949 12.6392405,14.5379747 11.5,14.5379747 C10.3607595,14.5379747 9.43037975,13.6075949 9.43037975,12.4683544 C9.43037975,11.3291139 10.3607595,10.3987342 11.5,10.3987342 Z M11.5,11.3291139 C10.8734177,11.3291139 10.3797468,11.8227848 10.3797468,12.4493671 C10.3797468,13.0759494 10.8924051,13.5696203 11.5,13.5696203 C12.1075949,13.5696203 12.6202532,13.0759494 12.6202532,12.4493671 C12.6202532,11.8227848 12.1075949,11.3291139 11.5,11.3291139 Z M12.0017857,5.73417969 C12.3178571,5.73417969 12.5732143,5.98554687 12.5732143,6.29667969 C12.5732143,6.60605469 12.3178571,6.85917969 12.0017857,6.85917969 L4.025,6.85917969 C3.70892857,6.85917969 3.45357143,6.6078125 3.45357143,6.29667969 C3.45357143,5.98554687 3.70892857,5.73417969 4.025,5.73417969 L12.0017857,5.73417969 Z M12.0017857,2.37851562 C12.3178571,2.37851562 12.5732143,2.62988281 12.5732143,2.94101562 C12.5732143,3.25214844 12.3178571,3.50351562 12.0017857,3.50351562 L4.025,3.50351562 C3.70892857,3.50351562 3.45357143,3.25214844 3.45357143,2.94101562 C3.45357143,2.62988281 3.70892857,2.37851562 4.025,2.37851562 L12.0017857,2.37851562 Z" id="path-1"></path>
    </defs>
    <g id="Sampling分析模块" stroke="none" stroke-width="1" fill="none" fill-rule="evenodd">
        <g id="68页签整理-在线分析-快照-内存转储-默认" transform="translate(-643.000000, -155.000000)">
            <g id="编组-24" transform="translate(48.000000, 141.000000)">
                <g id="4.组件/1.导航/页签/1.基础页签/1.页面一级标签/2.选中标签" transform="translate(570.000000, 0.000000)">
                    <g id="4.组件/2.通用/icon/树/文件夹备份" transform="translate(25.000000, 14.000000)">
                        <mask id="mask-2" fill="white">
                            <use xlink:href="#path-1"></use>
                        </mask>
                        <use id="形状结合" fill="#000000" fill-rule="nonzero" xlink:href="#path-1"></use>
                        <g id="3.颜色/1.主色调蓝" mask="url(#mask-2)" fill="#0067FF" fill-rule="evenodd">
                            <rect id="矩形" x="0" y="0" width="16" height="16"></rect>
                        </g>
                        <g id="快照记录" stroke-width="1" fill-rule="evenodd" mask="url(#mask-2)"></g>
                    </g>
                </g>
            </g>
        </g>
    </g>
</svg>