<?xml version="1.0" encoding="UTF-8"?>
<svg width="28px" height="28px" viewBox="0 0 28 28" version="1.1" xmlns="http://www.w3.org/2000/svg" xmlns:xlink="http://www.w3.org/1999/xlink">
    <title>icon/Javaperf/28/快照-Click@1x</title>
    <g id="icon/Javaperf/28/快照-Click" stroke="none" stroke-width="1" fill="none" fill-rule="evenodd">
        <rect id="bgc" fill="#0D293E" x="0" y="0" width="28" height="28" rx="1"></rect>
        <path d="M17.381966,7 C17.7607381,7 18.1070012,7.21400238 18.2763932,7.5527864 L19,9 L21,9 C21.5522847,9 22,9.44771525 22,10 L22,20 C22,20.5522847 21.5522847,21 21,21 L7,21 C6.44771525,21 6,20.5522847 6,20 L6,10 C6,9.44771525 6.44771525,9 7,9 L9,9 L9.7236068,7.5527864 C9.89299881,7.21400238 10.2392619,7 10.618034,7 L17.381966,7 Z M14,11 C11.790861,11 10,12.790861 10,15 C10,17.209139 11.790861,19 14,19 C16.209139,19 18,17.209139 18,15 C18,12.790861 16.209139,11 14,11 Z M14,12 C15.6568542,12 17,13.3431458 17,15 C17,16.6568542 15.6568542,18 14,18 C12.3431458,18 11,16.6568542 11,15 C11,13.3431458 12.3431458,12 14,12 Z" id="形状结合" fill="#DCDCDC"></path>
    </g>
</svg>