<?xml version="1.0" encoding="UTF-8"?>
<svg width="28px" height="28px" viewBox="0 0 28 28" version="1.1" xmlns="http://www.w3.org/2000/svg" xmlns:xlink="http://www.w3.org/1999/xlink">
    <title>icon/Javaperf/28/保存-Disabled@1x</title>
    <g id="icon/Javaperf/28/保存-Disabled" stroke="none" stroke-width="1" fill="none" fill-rule="evenodd">
        <rect id="bgc" fill="#3C3F41" x="0" y="0" width="28" height="28" rx="1"></rect>
        <path d="M17.1153846,6 L17.1153846,12.9230769 L9.73076923,12.9230769 L9.73076923,6 L17.1153846,6 Z M15.2692308,7.23076923 C14.9293654,7.23076923 14.6538462,7.50628846 14.6538462,7.84615385 L14.6538462,7.84615385 L14.6538462,11.0769231 L14.6605186,11.1678596 C14.7044723,11.4646058 14.9602622,11.6923077 15.2692308,11.6923077 C15.6090962,11.6923077 15.8846154,11.4167885 15.8846154,11.0769231 L15.8846154,11.0769231 L15.8846154,7.84615385 L15.877943,7.7552173 C15.8339892,7.45847107 15.5781993,7.23076923 15.2692308,7.23076923 Z M8.5,6 L8.5,12.9230769 L8.50635437,13.0489152 C8.56938251,13.669535 9.09352163,14.1538462 9.73076923,14.1538462 L9.73076923,14.1538462 L17.1153846,14.1538462 L17.2412229,14.1474918 C17.8618427,14.0844636 18.3461538,13.5603245 18.3461538,12.9230769 L18.3461538,12.9230769 L18.3464519,6.0273088 C18.5552955,6.07381819 18.7486181,6.17844533 18.9028571,6.33142858 L18.9028571,6.33142858 L21.6685714,9.09714286 C21.8797076,9.31001216 21.9987376,9.59732586 22,9.89714286 L22,9.89714286 L22,20.8571429 C22,21.4883254 21.4883254,22 20.8571429,22 L20.8571429,22 L7.14285714,22 C6.51167457,22 6,21.4883254 6,20.8571429 L6,20.8571429 L6,7.14285714 C6,6.51167457 6.51167457,6 7.14285714,6 L7.14285714,6 L8.5,6 Z" id="形状结合" fill="#585858" fill-rule="nonzero"></path>
    </g>
</svg>