<?xml version="1.0" encoding="UTF-8"?>
<svg width="28px" height="28px" viewBox="0 0 28 28" version="1.1" xmlns="http://www.w3.org/2000/svg" xmlns:xlink="http://www.w3.org/1999/xlink">
    <title>4.组件/2.通用/icon/tuning/保存报告/禁用</title>
    <defs>
        <path d="M9.33,7.01466667 L7.014,7.01466667 L7.014,21.008 L21.0056667,21.008 L21.0056667,9.66466667 L18.6623333,7.01466667 L18.6623333,13.3333333 C18.6623333,13.7015232 18.3638565,14 17.9956667,14 L9.99666667,14 C9.81985568,14 9.6502864,13.9297621 9.52526215,13.8047379 C9.40023789,13.6797136 9.33,13.5101443 9.33,13.3333333 L9.33,7.01466667 Z M6.66666667,6 L18.693,6 C18.8878745,6 19.0729982,6.0852415 19.1996667,6.23333333 L21.8396667,9.151 C21.9430575,9.27171394 22,9.42539463 22,9.58433333 L22,21.3333333 C22,21.7015232 21.7015232,22 21.3333333,22 L6.66666667,22 C6.29847684,22 6,21.7015232 6,21.3333333 L6,6.66666667 C6,6.29847684 6.29847684,6 6.66666667,6 Z M10.3333333,7 L10.3333333,13 L17.6666667,13 L17.6666667,7 L10.3333333,7 Z M15.3333333,7.66666667 C15.4217388,7.66666667 15.5065235,7.70178561 15.5690356,7.76429774 C15.6315477,7.82680986 15.6666667,7.9115945 15.6666667,8 L15.6666667,11.6666667 C15.6666667,11.7550722 15.6315477,11.8398568 15.5690356,11.9023689 C15.5065235,11.9648811 15.4217388,12 15.3333333,12 L15,12 C14.8159051,12 14.6666667,11.8507616 14.6666667,11.6666667 L14.6666667,8 C14.6666667,7.81590509 14.8159051,7.66666667 15,7.66666667 L15.3333333,7.66666667 Z" id="path-1"></path>
    </defs>
    <g id="4.组件/2.通用/icon/tuning/保存报告/禁用" stroke="none" stroke-width="1" fill="none" fill-rule="evenodd">
        <g id="编组-3">
            <g id="4.组件/2.通用/icon/28/快照">
                <rect id="bgc" stroke="#616161" fill="#313131" x="0.5" y="0.5" width="27" height="27" rx="2"></rect>
                <mask id="mask-2" fill="white">
                    <use xlink:href="#path-1"></use>
                </mask>
                <use id="形状备份-2" fill="#616161" xlink:href="#path-1"></use>
            </g>
        </g>
    </g>
</svg>