<?xml version="1.0" encoding="UTF-8"?>
<svg width="28px" height="28px" viewBox="0 0 28 28" version="1.1" xmlns="http://www.w3.org/2000/svg" xmlns:xlink="http://www.w3.org/1999/xlink">
    <title>icon/Javaperf/28/数据范围限定@1x</title>
    <g id="icon/Javaperf/28/数据范围限定" stroke="none" stroke-width="1" fill="none" fill-rule="evenodd">
        <rect id="bgc" fill="#3C3F41" x="0" y="0" width="28" height="28" rx="1"></rect>
        <path d="M10.0007613,19.8737865 L10,21 C10,21.5522847 9.55228475,22 9,22 C8.44771525,22 8,21.5522847 8,21 L8.0000851,19.8740044 C8.3196794,19.9562548 8.65473108,20 9,20 C9.34557375,20 9.6809122,19.9561775 10.0007613,19.8737865 Z M20.0007613,15.8737865 L20,21 C20,21.5522847 19.5522847,22 19,22 C18.4477153,22 18,21.5522847 18,21 L18,21 L18.0000851,15.8740044 C18.3196794,15.9562548 18.6547311,16 19,16 C19.3455738,16 19.6809122,15.9561775 20.0007613,15.8737865 L20.0007613,15.8737865 Z M9,13 C10.6568542,13 12,14.3431458 12,16 C12,17.6568542 10.6568542,19 9,19 C7.34314575,19 6,17.6568542 6,16 C6,14.3431458 7.34314575,13 9,13 Z M19,9 C20.6568542,9 22,10.3431458 22,12 C22,13.6568542 20.6568542,15 19,15 C17.3431458,15 16,13.6568542 16,12 C16,10.3431458 17.3431458,9 19,9 Z M9,6 C9.55228475,6 10,6.44771525 10,7 L10.0007613,12.1262135 C9.6809122,12.0438225 9.34557375,12 9,12 C8.65473108,12 8.3196794,12.0437452 8.0000851,12.1259956 L8,7 C8,6.44771525 8.44771525,6 9,6 Z M19,6 C19.5522847,6 20,6.44771525 20,7 L20,7 L20.0007613,8.12621352 C19.6809122,8.04382251 19.3455738,8 19,8 C18.6547311,8 18.3196794,8.04374524 18.0000851,8.12599558 L18.0000851,8.12599558 L18,7 C18,6.44771525 18.4477153,6 19,6 Z" id="形状结合" fill="#AFB1B3"></path>
    </g>
</svg>