<?xml version="1.0" encoding="UTF-8"?>
<svg width="28px" height="28px" viewBox="0 0 28 28" version="1.1" xmlns="http://www.w3.org/2000/svg" xmlns:xlink="http://www.w3.org/1999/xlink">
    <!-- Generator: Sketch 63.1 (92452) - https://sketch.com -->
    <title>4.组件/2.通用/icon/tuning/数据限定/Click</title>
    <desc>Created with Sketch.</desc>
    <g id="4.组件/2.通用/icon/tuning/数据限定/Click" stroke="none" stroke-width="1" fill="none" fill-rule="evenodd">
        <g id="4.组件/2.通用/按钮/4.图标按钮/下载/按下">
            <rect id="bgc" stroke="#0057D9" fill="#262626" x="0.5" y="0.5" width="27" height="27" rx="2"></rect>
            <path d="M15.5,15 C16.7096818,15 17.7186941,15.8591679 17.9501074,17.000574 L20.5,17 C20.7761424,17 21,17.2238576 21,17.5 C21,17.7761424 20.7761424,18 20.5,18 L17.9499027,18.0004345 C17.7180997,19.1413382 16.7093254,20 15.5,20 C14.2906746,20 13.2819003,19.1413382 13.0500973,18.0004345 L7.5,18 C7.22385763,18 7,17.7761424 7,17.5 C7,17.2238576 7.22385763,17 7.5,17 L13.0498926,17.000574 C13.2813059,15.8591679 14.2903182,15 15.5,15 Z M15.5,16 C14.6715729,16 14,16.6715729 14,17.5 C14,18.3284271 14.6715729,19 15.5,19 C16.3284271,19 17,18.3284271 17,17.5 C17,16.6715729 16.3284271,16 15.5,16 Z M12.5,8 C13.7096818,8 14.7186941,8.85916789 14.9501074,10.000574 L20.5,10 C20.7761424,10 21,10.2238576 21,10.5 C21,10.7761424 20.7761424,11 20.5,11 L14.9499027,11.0004345 C14.7180997,12.1413382 13.7093254,13 12.5,13 C11.2906746,13 10.2819003,12.1413382 10.0500973,11.0004345 L7.5,11 C7.22385763,11 7,10.7761424 7,10.5 C7,10.2238576 7.22385763,10 7.5,10 L10.0498926,10.000574 C10.2813059,8.85916789 11.2903182,8 12.5,8 Z M12.5,9 C11.6715729,9 11,9.67157288 11,10.5 C11,11.3284271 11.6715729,12 12.5,12 C13.3284271,12 14,11.3284271 14,10.5 C14,9.67157288 13.3284271,9 12.5,9 Z" id="形状结合" fill="#0057D9" transform="translate(14.000000, 14.000000) rotate(90.000000) translate(-14.000000, -14.000000) "></path>
        </g>
    </g>
</svg>