<?xml version="1.0" encoding="UTF-8"?>
<svg width="24px" height="24px" viewBox="0 0 24 24" version="1.1" xmlns="http://www.w3.org/2000/svg" xmlns:xlink="http://www.w3.org/1999/xlink">
    <title>4.组件/2.通用/工具栏/性能优化/normal</title>
    <g id="4.组件/2.通用/工具栏/性能优化/normal" stroke="none" stroke-width="1" fill="none" fill-rule="evenodd">
        <path d="M22.2569143,8.67437143 L15.6080571,17.9538 L18.8249143,23.1429429 L11.2366286,17.7189429 L22.2569143,8.67437143 Z M23.1432,7.23042857 L10.7077714,17.3412857 L7.28691429,14.8958571 L10.1883429,15.3878571 L10.8277714,13.5964286 L23.1432,7.23042857 Z M9,0.857314286 C13.3954286,0.857314286 16.9671429,4.34245714 17.1274286,8.69845714 L17.1274286,8.69845714 L15.9265714,9.31902857 C15.9317143,9.21274286 15.9428571,9.10817143 15.9428571,9.00017143 C15.9428571,5.17131429 12.828,2.05731429 9,2.05731429 C5.172,2.05731429 2.05714286,5.17131429 2.05714286,9.00017143 C2.05714286,11.7867429 3.71142857,14.1893143 6.08657143,15.2933143 C6.168,15.7116 6.39942857,16.0981714 6.76628571,16.3604571 L6.76628571,16.3604571 L7.70228571,17.0298857 C3.82371429,16.4076 0.857142857,13.0544571 0.857142857,9.00017143 C0.857142857,4.50274286 4.50257143,0.857314286 9,0.857314286 Z M12.3612,6.15 C12.7143429,5.95371429 12.9269143,6.23828571 12.6380571,6.52028571 L12.6380571,6.52028571 L9.75462857,9.34628571 C9.18377143,9.906 8.36005714,10.0525714 8.05834286,9.64885714 C7.75748571,9.24514286 8.13291429,8.49771429 8.83062857,8.11028571 L8.83062857,8.11028571 Z M11.6810571,4.85974286 C11.2370571,4.99345714 10.0696286,5.3466 10.0696286,5.3466 L10.0541108,5.33849682 C9.7520052,5.18287351 5.1300267,2.89726511 4.22305714,8.24374286 C5.21391429,1.26145714 11.8413429,4.41402857 11.6810571,4.85974286 Z" id="形状结合" fill="#838383"></path>
    </g>
</svg>