<?xml version="1.0" encoding="UTF-8"?>
<svg width="32px" height="32px" viewBox="0 0 32 32" version="1.1" xmlns="http://www.w3.org/2000/svg" xmlns:xlink="http://www.w3.org/1999/xlink">
    <g id="4.组件/2.通用/按钮/4.图标按钮/视图切换/图表/未选中/normal" stroke="none" stroke-width="1" fill="none" fill-rule="evenodd">
        <g id="图表normal">
            <path d="M1,0 L32,0 L32,0 L32,32 L1,32 C0.44771525,32 6.76353751e-17,31.5522847 0,31 L0,1 C-6.76353751e-17,0.44771525 0.44771525,1.01453063e-16 1,0 Z" id="bgc" fill="#fff"></path>
            <g id="编组-8" transform="translate(8.000000, 8.000000)" fill="#AAAAAA" fill-rule="nonzero">
                <path d="M7,0 L7,16 L0,16 L0,0 L7,0 Z M16,8 L16,16 L8,16 L8,8 L16,8 Z M5.5,1.5 L1.5,1.5 L1.5,14.5 L5.5,14.5 L5.5,1.5 Z M14.5,9.5 L9.5,9.5 L9.5,14.5 L14.5,14.5 L14.5,9.5 Z M16,0 L16,7 L8,7 L8,0 L16,0 Z M14.5,1.5 L9.5,1.5 L9.5,5.5 L14.5,5.5 L14.5,1.5 Z" id="形状结合"></path>
            </g>
        </g>
    </g>
</svg>