<?xml version="1.0" encoding="UTF-8"?>
<svg width="32px" height="32px" viewBox="0 0 32 32" version="1.1" xmlns="http://www.w3.org/2000/svg" xmlns:xlink="http://www.w3.org/1999/xlink">
    <title>代码视图_未选中</title>
    <g id="内存诊断" stroke="none" stroke-width="1" fill="none" fill-rule="evenodd">
        <g id="编组">
            <g id="Button按钮/带描边图标按钮/a.默认备份-2" fill="#FFFFFF" stroke="#979797">
                <path d="M30,0.5 C30.4142136,0.5 30.7892136,0.667893219 31.0606602,0.939339828 C31.3321068,1.21078644 31.5,1.58578644 31.5,2 L31.5,2 L31.5,30 C31.5,30.4142136 31.3321068,30.7892136 31.0606602,31.0606602 C30.7892136,31.3321068 30.4142136,31.5 30,31.5 L30,31.5 L0.5,31.5 L0.5,0.5 Z" id="bgc"></path>
            </g>
            <rect id="矩形" opacity="0.15718006" x="6" y="6" width="20" height="20" rx="1"></rect>
            <path d="M17.7539497,11.136571 C18.1941269,11.2660349 18.460494,11.7022571 18.3885565,12.1436644 L18.363429,12.2539497 L15.863429,20.7539497 C15.7231764,21.2308083 15.222909,21.5036815 14.7460503,21.363429 C14.3058731,21.2339651 14.039506,20.7977429 14.1114435,20.3563356 L14.136571,20.2460503 L16.636571,11.7460503 C16.7768236,11.2691917 17.277091,10.9963185 17.7539497,11.136571 Z M11.6363961,11.3636039 C11.9585786,11.6857864 11.9854272,12.191466 11.7169417,12.5442314 L11.6363961,12.6363961 L8.273,16 L11.6363961,19.3636039 C11.9585786,19.6857864 11.9854272,20.191466 11.7169417,20.5442314 L11.6363961,20.6363961 C11.3142136,20.9585786 10.808534,20.9854272 10.4557686,20.7169417 L10.3636039,20.6363961 L6.3636039,16.6363961 C6.04142136,16.3142136 6.01457281,15.808534 6.28305826,15.4557686 L6.3636039,15.3636039 L10.3636039,11.3636039 C10.7150758,11.012132 11.2849242,11.012132 11.6363961,11.3636039 Z M20.3636039,11.3636039 C20.7150758,11.012132 21.2849242,11.012132 21.6363961,11.3636039 L21.6363961,11.3636039 L25.6363961,15.3636039 L25.7169417,15.4557686 C25.9854272,15.808534 25.9585786,16.3142136 25.6363961,16.6363961 L25.6363961,16.6363961 L21.6363961,20.6363961 L21.5442314,20.7169417 C21.191466,20.9854272 20.6857864,20.9585786 20.3636039,20.6363961 L20.3636039,20.6363961 L20.2830583,20.5442314 C20.0145728,20.191466 20.0414214,19.6857864 20.3636039,19.3636039 L20.3636039,19.3636039 L23.727,16 L20.3636039,12.6363961 L20.2830583,12.5442314 C20.0145728,12.191466 20.0414214,11.6857864 20.3636039,11.3636039 Z" id="形状结合" fill="#979797"></path>
        </g>
    </g>
</svg>