<?xml version="1.0" encoding="UTF-8"?>
<svg width="32px" height="32px" viewBox="0 0 32 32" version="1.1" xmlns="http://www.w3.org/2000/svg" xmlns:xlink="http://www.w3.org/1999/xlink">
    <title>4.组件/2.通用/按钮/4.图标按钮/视图切换/代码视图/未选/normal</title>
    <g id="4.组件/2.通用/按钮/4.图标按钮/视图切换/代码视图/未选/normal" stroke="none" stroke-width="1" fill="none" fill-rule="evenodd">
        <g id="图表已选中-normal">
            <path d="M0,0 L31,0 C31.5522847,-1.01453063e-16 32,0.44771525 32,1 L32,31 C32,31.5522847 31.5522847,32 31,32 L0,32 L0,32 L0,0 Z" id="bgc" fill="#313131"></path>
            <g id="编组" transform="translate(6.000000, 6.000000)">
                <rect id="BOX" x="0" y="0" width="20" height="20"></rect>
                <g id="编组-2" transform="translate(0.300000, 5.299817)" fill="#888888">
                    <path d="M4.20502525,0.205207999 C4.47839226,-0.0681590055 4.92160774,-0.0681590055 5.19497475,0.205207999 C5.44100505,0.451238303 5.46560808,0.834845876 5.26878384,1.10839163 L5.19497475,1.19515749 L1.689,4.70018275 L5.19497475,8.205208 C5.44100505,8.4512383 5.46560808,8.83484588 5.26878384,9.10839163 L5.19497475,9.19515749 C4.94894444,9.4411878 4.56533687,9.46579083 4.29179111,9.26896658 L4.20502525,9.19515749 L0.205025253,5.19515749 C-0.0410050506,4.94912719 -0.065608081,4.56551962 0.131216162,4.29197386 L0.205025253,4.205208 L4.20502525,0.205207999 Z" id="路径-65"></path>
                    <path d="M18.2050253,0.205207999 C18.4783923,-0.0681590055 18.9216077,-0.0681590055 19.1949747,0.205207999 C19.4410051,0.451238303 19.4656081,0.834845876 19.2687838,1.10839163 L19.1949747,1.19515749 L15.689,4.70018275 L19.1949747,8.205208 C19.4410051,8.4512383 19.4656081,8.83484588 19.2687838,9.10839163 L19.1949747,9.19515749 C18.9489444,9.4411878 18.5653369,9.46579083 18.2917911,9.26896658 L18.2050253,9.19515749 L14.2050253,5.19515749 C13.9589949,4.94912719 13.9343919,4.56551962 14.1312162,4.29197386 L14.2050253,4.205208 L18.2050253,0.205207999 Z" id="路径-65备份" transform="translate(16.700000, 4.700183) scale(-1, 1) translate(-16.700000, -4.700183) "></path>
                    <path d="M10.5284441,0.502666319 C10.6375295,0.131776264 11.0266264,-0.0804584159 11.3975164,0.0286268944 C11.7346892,0.127795358 11.9407418,0.458378369 11.893462,0.796319985 L11.8715559,0.897699172 L9.37155585,9.39769917 C9.26247054,9.76858923 8.87337363,9.98082391 8.50248357,9.8717386 C8.1653108,9.77257013 7.95925816,9.44198712 8.00653801,9.10404551 L8.02844415,9.00266632 L10.5284441,0.502666319 Z" id="路径-67"></path>
                </g>
            </g>
        </g>
    </g>
</svg>