<?xml version="1.0" encoding="UTF-8"?>
<svg width="12px" height="11px" viewBox="0 0 12 11" version="1.1" xmlns="http://www.w3.org/2000/svg" xmlns:xlink="http://www.w3.org/1999/xlink">
    <title>icon/16/定位</title>
    <g id="IO分析" stroke="none" stroke-width="1" fill="none" fill-rule="evenodd">
        <g id="17磁盘IO所有弹窗" transform="translate(-1334.000000, -1401.000000)" fill="#BBBBBB">
            <g id="编组-2" transform="translate(152.000000, 1154.000000)">
                <g id="编组-14" transform="translate(1087.000000, 108.000000)">
                    <g id="分组-19" transform="translate(16.201742, 0.000000)">
                        <g id="形状结合" transform="translate(76.798258, 137.000000)">
                            <path d="M9.04166482,2.84595047 L9.1109127,2.90380592 L13.3535534,7.14644661 L13.3654113,7.15871357 C13.3770608,7.17118132 13.3880797,7.18424576 13.3984173,7.19785608 L13.3535534,7.14644661 C13.3803877,7.17328088 13.4035342,7.20240643 13.422993,7.23319348 C13.4299807,7.24431753 13.4367067,7.25595333 13.4429657,7.26787276 C13.450287,7.28179429 13.4567149,7.29560374 13.4624788,7.30962203 C13.4673657,7.32142914 13.4720341,7.33414885 13.4761888,7.34709857 C13.4812913,7.3631971 13.4854633,7.37890945 13.4888591,7.39475482 C13.49128,7.40582673 13.4933135,7.417203 13.4949557,7.42870549 C13.4973162,7.44535968 13.4988817,7.46238065 13.4995793,7.47943052 C13.4998635,7.48639522 13.5,7.49318167 13.5,7.5 L13.4996194,7.51956651 C13.4989382,7.53706725 13.4973429,7.55453902 13.4948333,7.57190411 L13.5,7.5 C13.5,7.53609704 13.4961748,7.57130067 13.4889078,7.60522765 C13.485656,7.6202304 13.4816794,7.63535096 13.4769845,7.65029459 C13.4723394,7.66516435 13.4669546,7.6798074 13.4609235,7.69411114 C13.4562376,7.70524042 13.4512364,7.71602157 13.4458306,7.72664984 C13.4382966,7.74141057 13.4298361,7.75613276 13.4206735,7.77036006 C13.417544,7.77529178 13.4145173,7.77981841 13.4114088,7.7843055 L13.3986419,7.80184796 C13.3888884,7.81470907 13.3785268,7.82708366 13.3676,7.8389289 L13.3535534,7.85355339 L9.1109127,12.0961941 C8.91565056,12.2914562 8.59906807,12.2914562 8.40380592,12.0961941 C8.23023957,11.9226277 8.21095442,11.6532033 8.34595047,11.4583352 L8.40380592,11.3890873 L11.793,7.99935931 L3,8 C2.72385763,8 2.5,7.77614237 2.5,7.5 C2.5,7.25454011 2.67687516,7.05039163 2.91012437,7.00805567 L3,7 L11.793,6.99935931 L8.40380592,3.6109127 C8.23023957,3.43734635 8.21095442,3.16792195 8.34595047,2.97305381 L8.40380592,2.90380592 C8.57737227,2.73023957 8.84679668,2.71095442 9.04166482,2.84595047 Z"></path>
                        </g>
                    </g>
                </g>
            </g>
        </g>
    </g>
</svg>