<?xml version="1.0" encoding="UTF-8"?>
<svg width="32px" height="32px" viewBox="0 0 32 32" version="1.1" xmlns="http://www.w3.org/2000/svg" xmlns:xlink="http://www.w3.org/1999/xlink">
    <title>列表视图_选中</title>
    <g id="内存诊断" stroke="none" stroke-width="1" fill="none" fill-rule="evenodd">
        <g id="编组">
            <g id="Button按钮/带描边图标按钮/a.默认备份-2" fill="#2072EA">
                <path d="M0,0 L30,0 C31.1045695,-2.02906125e-16 32,0.8954305 32,2 L32,30 C32,31.1045695 31.1045695,32 30,32 L0,32 L0,32 L0,0 Z" id="bgc" transform="translate(16.000000, 16.000000) scale(-1, 1) translate(-16.000000, -16.000000) "></path>
            </g>
            <path d="M21,21 L21,23 L8,23 L8,21 L21,21 Z M24,21 L24,23 L22,23 L22,21 L24,21 Z M21,15 L21,17 L8,17 L8,15 L21,15 Z M24,15 L24,17 L22,17 L22,15 L24,15 Z M21,9 L21,11 L8,11 L8,9 L21,9 Z M24,9 L24,11 L22,11 L22,9 L24,9 Z" id="形状结合" fill="#FFFFFF" fill-rule="nonzero"></path>
        </g>
    </g>
</svg>