<?xml version="1.0" encoding="UTF-8"?>
<svg width="32px" height="32px" viewBox="0 0 32 32" version="1.1" xmlns="http://www.w3.org/2000/svg" xmlns:xlink="http://www.w3.org/1999/xlink">
    <title>列表视图_未选中</title>
    <g id="内存诊断" stroke="none" stroke-width="1" fill="none" fill-rule="evenodd">
        <g id="编组">
            <g id="Button按钮/带描边图标按钮/a.默认备份-2" fill="#FFFFFF" stroke="#979797">
                <path d="M30,0.5 C30.4142136,0.5 30.7892136,0.667893219 31.0606602,0.939339828 C31.3321068,1.21078644 31.5,1.58578644 31.5,2 L31.5,2 L31.5,30 C31.5,30.4142136 31.3321068,30.7892136 31.0606602,31.0606602 C30.7892136,31.3321068 30.4142136,31.5 30,31.5 L30,31.5 L0.5,31.5 L0.5,0.5 Z" id="bgc" transform="translate(16.000000, 16.000000) scale(-1, 1) translate(-16.000000, -16.000000) "></path>
            </g>
            <path d="M21,21 L21,23 L8,23 L8,21 L21,21 Z M24,21 L24,23 L22,23 L22,21 L24,21 Z M21,15 L21,17 L8,17 L8,15 L21,15 Z M24,15 L24,17 L22,17 L22,15 L24,15 Z M21,9 L21,11 L8,11 L8,9 L21,9 Z M24,9 L24,11 L22,11 L22,9 L24,9 Z" id="形状结合" fill="#979797" fill-rule="nonzero"></path>
        </g>
    </g>
</svg>