<?xml version="1.0" encoding="UTF-8"?>
<svg width="9px" height="9px" viewBox="0 0 9 9" version="1.1" xmlns="http://www.w3.org/2000/svg" xmlns:xlink="http://www.w3.org/1999/xlink">
    <title>4.组件/2.通用/icon/筛选备份 2</title>
    <defs>
        <path d="M4.7843055,7.08859116 L4.85355339,7.14644661 L8.5,10.793 L12.1464466,7.14644661 C12.320013,6.97288026 12.5894374,6.95359511 12.7843055,7.08859116 L12.8535534,7.14644661 C13.0271197,7.32001296 13.0464049,7.58943736 12.9114088,7.7843055 L12.8535534,7.85355339 L8.85355339,11.8535534 C8.67998704,12.0271197 8.41056264,12.0464049 8.2156945,11.9114088 L8.14644661,11.8535534 L4.14644661,7.85355339 C3.95118446,7.65829124 3.95118446,7.34170876 4.14644661,7.14644661 C4.32001296,6.97288026 4.58943736,6.95359511 4.7843055,7.08859116 Z M4.7843055,3.08859116 L4.85355339,3.14644661 L8.5,6.793 L12.1464466,3.14644661 C12.320013,2.97288026 12.5894374,2.95359511 12.7843055,3.08859116 L12.8535534,3.14644661 C13.0271197,3.32001296 13.0464049,3.58943736 12.9114088,3.7843055 L12.8535534,3.85355339 L8.85355339,7.85355339 C8.67998704,8.02711974 8.41056264,8.04640489 8.2156945,7.91140884 L8.14644661,7.85355339 L4.14644661,3.85355339 C3.95118446,3.65829124 3.95118446,3.34170876 4.14644661,3.14644661 C4.32001296,2.97288026 4.58943736,2.95359511 4.7843055,3.08859116 Z" id="path-1"></path>
    </defs>
    <g id="性能全景分析" stroke="none" stroke-width="1" fill="none" fill-rule="evenodd">
        <g id="全景分析-性能侧滑窗2" transform="translate(-1856.000000, -428.000000)">
            <g id="4.组件/4.数据展示/表格/2小表格/单行" transform="translate(1278.000000, 417.000000)">
                <g id="4.组件/2.通用/icon/筛选备份-2" transform="translate(574.000000, 8.000000)">
                    <mask id="mask-2" fill="white">
                        <use xlink:href="#path-1"></use>
                    </mask>
                    <use id="蒙版" fill="#AAAAAA" fill-rule="nonzero" xlink:href="#path-1"></use>
                    <g id="编组" mask="url(#mask-2)" fill="#979797">
                        <g id="3.颜色/10.辅助说明文本">
                            <rect id="矩形备份-6" x="0" y="0" width="16" height="16"></rect>
                        </g>
                    </g>
                </g>
            </g>
        </g>
    </g>
</svg>