<?xml version="1.0" encoding="UTF-8"?>
<svg width="32px" height="32px" viewBox="0 0 32 32" version="1.1" xmlns="http://www.w3.org/2000/svg" xmlns:xlink="http://www.w3.org/1999/xlink">
    <g id="4.组件/2.通用/按钮/4.图标按钮/视图切换/列表/未选中/normal" stroke="none" stroke-width="1" fill="none" fill-rule="evenodd">
        <g id="列表normal">
            <g id="Button按钮/带描边图标按钮/a.默认备份-2" fill="#fff">
                <path d="M0,0 L31,0 C31.5522847,-1.01453063e-16 32,0.44771525 32,1 L32,31 C32,31.5522847 31.5522847,32 31,32 L0,32 L0,32 L0,0 Z" id="bgc"></path>
            </g>
            <g id="编组-10备份-2" transform="translate(8.000000, 9.000000)" fill="#AAAAAA" fill-rule="nonzero">
                <path d="M13,12 L13,14 L0,14 L0,12 L13,12 Z M16,12 L16,14 L14,14 L14,12 L16,12 Z M13,6 L13,8 L0,8 L0,6 L13,6 Z M16,6 L16,8 L14,8 L14,6 L16,6 Z M13,0 L13,2 L0,2 L0,0 L13,0 Z M16,0 L16,2 L14,2 L14,0 L16,0 Z" id="形状结合"></path>
            </g>
        </g>
    </g>
</svg>