<?xml version="1.0" encoding="UTF-8"?>
<svg width="32px" height="32px" viewBox="0 0 32 32" version="1.1" xmlns="http://www.w3.org/2000/svg" xmlns:xlink="http://www.w3.org/1999/xlink">
    <title>列表Hover</title>
    <desc>Created with Sketch.</desc>
    <g id="symbols-" stroke="none" stroke-width="1" fill="none" fill-rule="evenodd">
        <g id="4.组件/2.通用/按钮/4.图标按钮/视图切换/图表/hover" transform="translate(-32.000000, 0.000000)">
            <g id="编组-5">
                <g id="列表Hover" transform="translate(32.000000, 0.000000)">
                    <g id="Button按钮/带描边图标按钮/a.默认备份-2" fill="#313131" stroke="#267DFF">
                        <rect id="bgc" x="0.5" y="0.5" width="31" height="31" rx="1"></rect>
                    </g>
                    <path d="M21,21 L21,23 L8,23 L8,21 L21,21 Z M24,21 L24,23 L22,23 L22,21 L24,21 Z M21,15 L21,17 L8,17 L8,15 L21,15 Z M24,15 L24,17 L22,17 L22,15 L24,15 Z M21,9 L21,11 L8,11 L8,9 L21,9 Z M24,9 L24,11 L22,11 L22,9 L24,9 Z" id="形状结合" fill="#267DFF"></path>
                </g>
            </g>
        </g>
    </g>
</svg>