<?xml version="1.0" encoding="UTF-8"?>
<svg width="10px" height="10px" viewBox="0 0 10 10" version="1.1" xmlns="http://www.w3.org/2000/svg" xmlns:xlink="http://www.w3.org/1999/xlink">
    <title>icon/问号备份 3</title>
    <g id="访存分析" stroke="none" stroke-width="1" fill="none" fill-rule="evenodd">
        <g id="访存统计分析-DDR访问_2" transform="translate(-1651.000000, -243.000000)" fill="#4C94FB">
            <g id="编组-8" transform="translate(336.000000, 198.000000)">
                <g id="编组-29" transform="translate(0.000000, 34.000000)">
                    <g id="编组-18" transform="translate(32.000000, 0.000000)">
                        <g id="编组-7备份-4" transform="translate(1162.000000, 0.000000)">
                            <g id="形状结合" transform="translate(120.000000, 10.000000)">
                                <path d="M10.4,6.7 C10.5472759,6.89636791 10.5282649,7.16581179 10.3670671,7.33963009 L10.3,7.4 L6.3,10.4 C6.14761905,10.5142857 5.9462585,10.5306122 5.77988338,10.4489796 L5.7,10.4 L1.7,7.4 C1.4790861,7.23431458 1.43431458,6.9209139 1.6,6.7 C1.74727593,6.50363209 2.01126515,6.4464384 2.22326609,6.55251916 L2.3,6.6 L6,9.375 L9.7,6.6 C9.9209139,6.43431458 10.2343146,6.4790861 10.4,6.7 Z M10.4,1.7 C10.5472759,1.89636791 10.5282649,2.16581179 10.3670671,2.33963009 L10.3,2.4 L6.3,5.4 C6.14761905,5.51428571 5.9462585,5.53061224 5.77988338,5.44897959 L5.7,5.4 L1.7,2.4 C1.4790861,2.23431458 1.43431458,1.9209139 1.6,1.7 C1.74727593,1.50363209 2.01126515,1.4464384 2.22326609,1.55251916 L2.3,1.6 L6,4.375 L9.7,1.6 C9.9209139,1.43431458 10.2343146,1.4790861 10.4,1.7 Z"></path>
                            </g>
                        </g>
                    </g>
                </g>
            </g>
        </g>
    </g>
</svg>