<?xml version="1.0" encoding="UTF-8"?>
<svg width="16px" height="16px" viewBox="0 0 16 16" version="1.1" xmlns="http://www.w3.org/2000/svg" xmlns:xlink="http://www.w3.org/1999/xlink">
    <title>形状</title>
    <desc>Created with Sketch.</desc>
    <g id="Porting-advisor" stroke="none" stroke-width="1" fill="none" fill-rule="evenodd">
        <g id="7.1-admin-user-management备份-2" transform="translate(-1458.000000, -180.000000)" fill="#6C7280" fill-rule="nonzero">
            <path d="M1473.41421,194.786987 C1473.73773,194.786987 1474,195.058529 1474,195.393494 C1474,195.728458 1473.73773,196 1473.41421,196 L1458.58579,196 C1458.26227,196 1458,195.728458 1458,195.393494 C1458,195.058529 1458.26227,194.786987 1458.58579,194.786987 L1473.41421,194.786987 L1473.41421,194.786987 Z M1473.41421,183.788402 L1464.12022,193.411033 L1460.4918,193.791231 L1460.85902,190.043564 L1468.9377,181.679208 L1470.15301,180.420934 C1470.69508,179.859689 1471.64809,179.859689 1472.19016,180.420934 L1473.40546,181.679208 C1473.6765,181.95983 1473.82514,182.340028 1473.82514,182.738331 C1473.83388,183.127581 1473.68525,183.507779 1473.41421,183.788402 Z M1461.80328,192.43338 L1463.57814,192.243281 L1470.94863,184.612164 L1469.34863,182.955587 L1461.97814,190.586704 L1461.80328,192.43338 Z M1471.17596,181.199434 C1471.10601,181.199434 1471.03607,181.226591 1470.98361,181.280905 L1470.18798,182.104668 L1471.78798,183.761245 L1472.58361,182.937482 C1472.68852,182.828854 1472.68852,182.647808 1472.58361,182.53918 L1471.36831,181.280905 C1471.31585,181.226591 1471.2459,181.199434 1471.17596,181.199434 Z" id="形状"></path>
        </g>
    </g>
</svg>