<?xml version="1.0" encoding="UTF-8"?>
<svg width="16px" height="16px" viewBox="0 0 16 16" version="1.1" xmlns="http://www.w3.org/2000/svg" xmlns:xlink="http://www.w3.org/1999/xlink">
    <title>上一个</title>
    <g id="上一个" stroke="none" stroke-width="1" fill="none" fill-rule="evenodd">
        <path d="M1.01978894,1.87503646 C1.01978894,2.22680112 1.28094529,2.74248927 1.60240992,2.74248927 L6.75230549,2.74248927 L1.13771315,13.2680112 C0.953557543,13.6291095 0.954634479,14.0613776 1.13771315,14.4230593 C1.3229457,14.784741 1.65248732,15 2.02187547,15 L13.9758363,15 C14.3441476,15 14.675843,14.7853244 14.8599987,14.4224759 C14.9506144,14.2464145 14.9984203,14.0482825 14.9989231,13.8467019 C14.9989231,13.6483604 14.9520765,13.4500187 14.8599987,13.2691779 L9.24540632,2.74248927 L14.417379,2.74248927 C14.7388436,2.74248927 15,2.22680112 15,1.87503646 C15,1.52327181 14.7388436,1 14.417379,1 L1.60187145,1 C1.28094529,1 1.01978894,1.52502188 1.01978894,1.87503646 Z M13.3232147,13.6081087 L2.64272758,13.6081087 L7.99777897,3.18059087 L13.3232147,13.6081087 Z" id="形状" fill="#979797" fill-rule="nonzero"></path>
    </g>
</svg>