<?xml version="1.0" encoding="UTF-8"?>
<svg width="16px" height="16px" viewBox="0 0 16 16" version="1.1" xmlns="http://www.w3.org/2000/svg" xmlns:xlink="http://www.w3.org/1999/xlink">
    <title>保存 (3)</title>
    <desc>Created with Sketch.</desc>
    <g id="Porting-advisor" stroke="none" stroke-width="1" fill="none" fill-rule="evenodd">
        <g id="编辑修改操作2" transform="translate(-859.000000, -228.000000)" fill="#6C7280" fill-rule="nonzero">
            <g id="编组-12" transform="translate(851.000000, 172.000000)">
                <g id="Button按钮/描边小按钮/a默认备份-3" transform="translate(0.000000, 48.000000)">
                    <g id="编组">
                        <g id="保存-(3)" transform="translate(8.000000, 8.000000)">
                            <path d="M15.8214286,2.65535714 L13.3428571,0.180357143 C13.2303571,0.0660714286 13.0767857,-1.26882631e-16 12.9053571,-1.26882631e-16 L0.610714286,-1.26882631e-16 C0.271428571,-1.26882631e-16 0,0.271428571 0,0.6125 L0,15.3857143 C0,15.725 0.271428571,16 0.610714286,16 L15.3839286,16 C15.7285714,16 15.9982588,15.725 15.9982588,15.3857143 L15.9982588,3.1 C16,2.9375 15.9482143,2.78571429 15.8214286,2.65535714 Z M4.26607143,1.06785714 L10.6660714,1.06785714 L10.6660714,5.33392857 L4.26607143,5.33392857 L4.26607143,1.06785714 Z M11.7339286,14.9357143 L4.26607143,14.9357143 L4.26607143,9.60178571 L11.7321429,9.60178571 L11.7321429,14.9357143 L11.7339286,14.9357143 Z M14.9339286,14.9357143 L12.8,14.9357143 L12.8,9.32142857 C12.8,8.875 12.4482143,8.53392857 12.0142857,8.53392857 L3.9875,8.53392857 C3.55535714,8.53392857 3.2,8.87321429 3.2,9.32142857 L3.2,14.9339286 L1.06607143,14.9339286 L1.06607143,1.06607143 L3.2,1.06607143 L3.2,5.6125 C3.2,6.05892857 3.55714286,6.4 3.9875,6.4 L10.9464286,6.4 C11.3839286,6.4 11.7339286,6.06071429 11.7339286,5.6125 L11.7339286,1.06785714 L12.7214286,1.06785714 L14.9357143,3.275 L14.9357143,14.9357143 L14.9339286,14.9357143 Z M5.86607143,11.7357143 L10.1321429,11.7357143 C10.4267857,11.7357143 10.6660714,11.4964286 10.6660714,11.2017857 C10.6660714,10.9071429 10.4285714,10.6678571 10.1321429,10.6678571 L5.86607143,10.6678571 C5.57142857,10.6678571 5.33214286,10.9071429 5.33214286,11.2017857 C5.33392857,11.4964286 5.57142857,11.7357143 5.86607143,11.7357143 Z M5.86607143,13.8678571 L10.1321429,13.8678571 C10.4267857,13.8678571 10.6660714,13.6285714 10.6660714,13.3339286 C10.6660714,13.0392857 10.4285714,12.8 10.1321429,12.8 L5.86607143,12.8 C5.57142857,12.8 5.33214286,13.0392857 5.33214286,13.3339286 C5.33392857,13.6303571 5.57142857,13.8678571 5.86607143,13.8678571 Z" id="形状"></path>
                        </g>
                    </g>
                </g>
            </g>
        </g>
    </g>
</svg>