<?xml version="1.0" encoding="UTF-8"?>
<svg width="16px" height="16px" viewBox="0 0 16 16" version="1.1" xmlns="http://www.w3.org/2000/svg" xmlns:xlink="http://www.w3.org/1999/xlink">
    <title>回退</title>
    <desc>Created with Sketch.</desc>
    <g id="Porting" stroke="none" stroke-width="1" fill="none" fill-rule="evenodd">
        <g id="72源码编辑-折叠文件列表备份" transform="translate(-775.000000, -228.000000)" fill="#B8BECC" fill-rule="nonzero">
            <g id="编组-12" transform="translate(699.000000, 220.000000)">
                <g id="Button按钮/描边小按钮/a默认备份-4" transform="translate(68.000000, 0.000000)">
                    <g id="编组">
                        <g id="回退" transform="translate(8.000000, 8.000000)">
                            <path d="M15.8647929,15.9945714 C15.7967456,16.0134286 15.7346154,15.982 15.685503,15.9128571 C13.7931953,13.6157143 12.5011834,13.6642857 12.1050296,13.6262857 C11.7085799,13.5885714 11.1707101,13.7114286 10.6198225,13.7114286 L10.6198225,15.9885714 L6.50887574,11.9942857 L10.6195266,8 L10.6195266,10.2771429 C11.5420118,10.2771429 12.0292899,10.296 12.8863905,10.624 C13.7431953,10.952 15.1434911,12 15.9763314,15.8311429 C15.9763314,15.9254286 15.9390533,15.9757143 15.8647929,15.9945714 Z M3.38550296,3.71457143 L10.0434911,3.71457143 C10.2746549,3.72045172 10.4588845,3.90311295 10.4588845,4.12642857 C10.4588845,4.34974419 10.2746549,4.53240542 10.0434911,4.53828571 L3.3852071,4.53828571 C3.14958739,4.53828571 2.95857988,4.35382703 2.95857988,4.12628571 C2.95857988,3.8987444 3.14958739,3.71428571 3.3852071,3.71428571 L3.38550296,3.71457143 Z M3.40236686,6.28571429 L8.43195266,6.28571429 C8.67704945,6.28571429 8.87573964,6.47759225 8.87573964,6.71428571 C8.87573964,6.95097918 8.67704945,7.14285714 8.43195266,7.14285714 L3.40236686,7.14285714 C3.15727008,7.14285714 2.95857988,6.95097918 2.95857988,6.71428571 C2.95857988,6.47759225 3.15727008,6.28571429 3.40236686,6.28571429 Z M3.40236686,9.14285714 L6.65680473,9.14285714 C6.90190152,9.14285714 7.10059172,9.33473511 7.10059172,9.57142857 C7.10059172,9.80812204 6.90190152,10 6.65680473,10 L3.40236686,10 C3.15727008,10 2.95857988,9.80812204 2.95857988,9.57142857 C2.95857988,9.33473511 3.15727008,9.14285714 3.40236686,9.14285714 Z M12.8254438,-1.67789958e-05 C13.5857988,0.006 14.1997041,0.604571429 14.2017751,1.34171429 L14.2017751,7.59714286 C14.195571,7.82882338 13.9993056,8.01352145 13.7593195,8.01352145 C13.5193335,8.01352145 13.3230681,7.82882338 13.3168639,7.59714286 L13.3168639,1.71657143 C13.3140066,1.4776235 13.2131428,1.24952179 13.0363905,1.08228571 C12.8601844,0.915265956 12.622328,0.822933045 12.3754438,0.825714286 L1.82988166,0.825714286 C1.58305185,0.824909011 1.34605718,0.919088764 1.17130178,1.08742857 C0.996109803,1.2560697 0.897184514,1.48483663 0.896153846,1.72371429 L0.896153846,14.3094286 C0.89704142,14.5485714 0.996153846,14.7774286 1.17130178,14.9462857 C1.34585799,15.1145714 1.58313609,15.2085714 1.82988166,15.2077143 L5.19142012,15.2077143 C5.41805294,15.2077143 5.60177515,15.3851374 5.60177515,15.604 C5.60177515,15.8228626 5.41805294,16.0003087 5.19142012,16.0003087 L1.39497041,16.0003087 C0.630177515,16.0045714 0.00591715976,15.4077143 0,14.6657143 L0,1.34171429 C0.000947746073,0.984611785 0.148523012,0.642451182 0.41035503,0.390285714 C0.671608192,0.138703147 1.02602922,-0.00178365232 1.39497041,-1.67789958e-05 L12.8254438,-1.67789958e-05 Z" id="形状"></path>
                        </g>
                    </g>
                </g>
            </g>
        </g>
    </g>
</svg>