<?xml version="1.0" encoding="UTF-8"?>
<svg width="17px" height="17px" viewBox="0 0 17 17" version="1.1" xmlns="http://www.w3.org/2000/svg" xmlns:xlink="http://www.w3.org/1999/xlink">
    <!-- Generator: Sketch 57.1 (83088) - https://sketch.com -->
    <title>映射虚拟机-vm_Mapping</title>
    <desc>Created with Sketch.</desc>
    <g id="tuning-kit" stroke="none" stroke-width="1" fill="none" fill-rule="evenodd">
        <g id="虚拟机-系统配置1-15Analysis-Task-概要备份-27" transform="translate(-564.000000, -366.000000)" fill="#5B7EDE" fill-rule="nonzero">
            <g id="编组-3" transform="translate(564.000000, 366.000000)">
                <g id="映射虚拟机-vm_Mapping">
                    <path d="M3.34736842,5.25263158 L14.5473684,5.25263158 C15.8727018,5.25263158 16.9473684,4.12140351 16.9473684,2.72631579 C16.9473684,1.33122807 15.8727018,0.2 14.5473684,0.2 L3.34736842,0.2 C2.02203509,0.2 0.947368421,1.33122807 0.947368421,2.72631579 C0.947368421,4.12140351 2.02203509,5.25263158 3.34736842,5.25263158 Z M3.34736842,1.04210526 L14.5473684,1.04210526 C15.4293684,1.04210526 16.1473684,1.79789474 16.1473684,2.72631579 C16.1473684,3.65473684 15.4293684,4.41052632 14.5473684,4.41052632 L3.34736842,4.41052632 C2.46536842,4.41052632 1.74736842,3.65473684 1.74736842,2.72631579 C1.74736842,1.79789474 2.46536842,1.04210526 3.34736842,1.04210526 Z M14.5473684,11.1473684 C15.8727018,11.1473684 16.9473684,10.0161404 16.9473684,8.62105263 C16.9473684,7.22596491 15.8727018,6.09473684 14.5473684,6.09473684 L3.34736842,6.09473684 C2.02203509,6.09473684 0.947368421,7.22596491 0.947368421,8.62105263 C0.947368421,10.0161404 2.02203509,11.1473684 3.34736842,11.1473684 L8.54736842,11.1473684 L8.54736842,12.8912281 L8.54736842,12.8912281 C7.85870175,13.0792982 7.34736842,13.7319298 7.34736842,14.5157895 C7.34736842,14.6140351 7.35936842,14.7080702 7.37470175,14.8014035 C7.35870175,14.7087719 7.34736842,14.6140351 7.34736842,14.5157895 L1.34736842,14.5157895 C1.12670175,14.5157895 0.947368421,14.7045614 0.947368421,14.9368421 C0.947368421,15.1691228 1.12670175,15.3578947 1.34736842,15.3578947 L7.56936842,15.3578947 L7.56936842,15.3578947 C7.84670175,15.8596491 8.35670175,16.2 8.94736842,16.2 C9.53803509,16.2 10.0480351,15.8589474 10.3253684,15.3578947 L16.5473684,15.3578947 C16.7680351,15.3578947 16.9473684,15.1691228 16.9473684,14.9368421 C16.9473684,14.7045614 16.7680351,14.5157895 16.5473684,14.5157895 L10.5473684,14.5157895 C10.5473684,14.6140351 10.5360351,14.7087719 10.5200351,14.8014035 C10.5353684,14.7080702 10.5473684,14.6140351 10.5473684,14.5157895 C10.5473684,13.7319298 10.0360351,13.0792982 9.34736842,12.8912281 L9.34736842,11.1473684 L14.5473684,11.1473684 Z M7.39870175,14.9185965 C7.40870175,14.9614035 7.42270175,15.0021053 7.43536842,15.042807 C7.42203509,15.0021053 7.40870175,14.9607018 7.39870175,14.9185965 Z M10.4593684,15.042807 C10.4727018,15.0014035 10.4860351,14.9607018 10.4960351,14.9185965 C10.4860351,14.9607018 10.4727018,15.0021053 10.4593684,15.042807 Z M9.74736842,14.5157895 C9.74736842,14.9803509 9.38870175,15.3578947 8.94736842,15.3578947 C8.50603509,15.3578947 8.14736842,14.9803509 8.14736842,14.5157895 C8.14736842,14.0512281 8.50603509,13.6736842 8.94736842,13.6736842 C9.38870175,13.6736842 9.74736842,14.0512281 9.74736842,14.5157895 Z M8.94736842,12.8315789 C8.86203509,12.8315789 8.78070175,12.8442105 8.69936842,12.8582456 C8.78003509,12.842807 8.86203509,12.8315789 8.94736842,12.8315789 C9.03270175,12.8315789 9.11470175,12.842807 9.19536842,12.8582456 C9.11403509,12.8442105 9.03270175,12.8315789 8.94736842,12.8315789 Z M3.34736842,10.3052632 C2.46536842,10.3052632 1.74736842,9.54947368 1.74736842,8.62105263 C1.74736842,7.69263158 2.46536842,6.93684211 3.34736842,6.93684211 L14.5473684,6.93684211 C15.4293684,6.93684211 16.1473684,7.69263158 16.1473684,8.62105263 C16.1473684,9.54947368 15.4293684,10.3052632 14.5473684,10.3052632 L3.34736842,10.3052632 Z M13.7473684,2.72631579 C13.7473684,2.26105263 14.1053684,1.88421053 14.5473684,1.88421053 C14.9893684,1.88421053 15.3473684,2.26105263 15.3473684,2.72631579 C15.3473684,3.19157895 14.9893684,3.56842105 14.5473684,3.56842105 C14.1053684,3.56842105 13.7473684,3.19157895 13.7473684,2.72631579 Z M14.5473684,9.46315789 C14.1053684,9.46315789 13.7473684,9.08631579 13.7473684,8.62105263 C13.7473684,8.15578947 14.1053684,7.77894737 14.5473684,7.77894737 C14.9893684,7.77894737 15.3473684,8.15578947 15.3473684,8.62105263 C15.3473684,9.08631579 14.9893684,9.46315789 14.5473684,9.46315789 Z" id="形状"></path>
                </g>
            </g>
        </g>
    </g>
</svg>