<?xml version="1.0" encoding="UTF-8"?>
<svg width="68px" height="68px" viewBox="0 0 68 68" version="1.1" xmlns="http://www.w3.org/2000/svg" xmlns:xlink="http://www.w3.org/1999/xlink">
    <g stroke="none" fill="none">
        <circle cx="34" cy="34" r="34" stroke="none" fill="#ffffff"/>
    </g>
    <g id="Web_SFW/icon/48/PCIE拓扑图/桥" stroke="none" stroke-width="1" fill="none" fill-rule="evenodd" transform="translate(18, 18)">
        <rect id="矩形" fill="#2072EA" x="0" y="0" width="32" height="32" rx="16"></rect>
        <rect id="BOX" opacity="0.150646391" x="6" y="6" width="20" height="20"></rect>
        <g id="编组-2" transform="translate(4.591806, 6.000000)">
            <g id="编组" transform="translate(2.245930, 0.000000)">
                <g id="编组-3" transform="translate(0.851604, 0.000000)">
                    <line x1="8.3106595" y1="10" x2="8.3106595" y2="1" id="路径-55" stroke="#FFFFFF" stroke-linecap="round" stroke-linejoin="round"></line>
                    <polyline id="路径" stroke="#FFFFFF" stroke-linecap="round" stroke-linejoin="round" transform="translate(8.310659, 3.328427) rotate(-315.000000) translate(-8.310659, -3.328427) " points="6.3106595 5.32842712 6.3106595 1.32842712 10.3106595 1.32842712"></polyline>
                    <line x1="11.7219004" y1="18.200782" x2="12.3994186" y2="8.29921801" id="路径-55" stroke="#FFFFFF" stroke-linecap="round" stroke-linejoin="round" transform="translate(12.060659, 13.250000) rotate(127.000000) translate(-12.060659, -13.250000) "></line>
                    <polyline id="路径" stroke="#FFFFFF" stroke-linecap="round" stroke-linejoin="round" transform="translate(14.310659, 15.000000) rotate(-188.000000) translate(-14.310659, -15.000000) " points="12.3106595 17 12.3106595 13 16.3106595 13"></polyline>
                    <line x1="4.72643241" y1="18.2095886" x2="4.39488659" y2="8.29041137" id="路径-55" stroke="#FFFFFF" stroke-linecap="round" stroke-linejoin="round" transform="translate(4.560659, 13.250000) rotate(231.000000) translate(-4.560659, -13.250000) "></line>
                    <polyline id="路径" stroke="#FFFFFF" stroke-linecap="round" stroke-linejoin="round" transform="translate(2.310659, 15.000000) rotate(-84.000000) translate(-2.310659, -15.000000) " points="0.310659498 17 0.310659498 13 4.3106595 13"></polyline>
                    <circle id="椭圆形" fill="#FFFFFF" cx="8.3106595" cy="10" r="3"></circle>
                </g>
            </g>
            <g id="编组" transform="translate(15.447294, 13.708168) rotate(127.000000) translate(-15.447294, -13.708168) translate(12.447294, 8.208168)"></g>
            <g id="编组" transform="translate(7.277146, 13.591194) rotate(231.000000) translate(-7.277146, -13.591194) translate(3.777146, 8.091194)"></g>
        </g>
    </g>
</svg>