<?xml version="1.0" encoding="UTF-8"?>
<svg width="18px" height="19px" viewBox="0 0 18 19" version="1.1" xmlns="http://www.w3.org/2000/svg" xmlns:xlink="http://www.w3.org/1999/xlink">
    <title>编组 15</title>
    <g id="全景分析" stroke="none" stroke-width="1" fill="none" fill-rule="evenodd">
        <g id="PCIe信息_NUMA_视图2_弹窗" transform="translate(-1315.000000, -353.000000)">
            <g id="编组-5备份-5" transform="translate(801.000000, 256.000000)">
                <g id="编组-5" transform="translate(514.000000, 97.000000)">
                    <rect id="矩形备份-16" fill-opacity="0" fill="#E1E4E8" x="0" y="0" width="18" height="18"></rect>
                    <g id="编组" transform="translate(1.000000, 1.000000)" fill="#222222">
                        <g id="编组-2" transform="translate(-1.000000, -1.000000)">
                            <g transform="translate(9.000000, 9.500000) rotate(-315.000000) translate(-9.000000, -9.500000) translate(5.000000, 1.000000)">
                                <path d="M4.01231963,6.23959236 C4.28846201,6.23959236 4.51231963,6.46344998 4.51231963,6.73959236 C4.51231963,6.98505225 4.33544447,7.18920073 4.10219526,7.23153669 L4.01231963,7.23959236 L3.73959236,7.23959236 C2.40581183,7.23959236 1.33243704,8.1556129 1.24530473,9.29039412 L1.23959236,9.43959236 L1.23959236,13.0395924 C1.23959236,14.1920782 2.25739296,15.156119 3.56715742,15.2344548 L3.73959236,15.2395924 L4.01231963,15.2395924 C5.25346751,15.2395924 6.23959236,14.35208 6.23959236,13.2850469 C6.23959236,13.0089045 6.46344998,12.7850469 6.73959236,12.7850469 C7.01573473,12.7850469 7.23959236,13.0089045 7.23959236,13.2850469 C7.23959236,14.8725339 5.88231373,16.1488256 4.19438735,16.2349581 L4.01231963,16.2395924 L3.73959236,16.2395924 C1.88171943,16.2395924 0.345178609,14.9124418 0.244806858,13.2163292 L0.23959236,13.0395924 L0.23959236,9.43959236 C0.23959236,7.71917339 1.71420408,6.33467554 3.54859057,6.24428726 L3.73959236,6.23959236 L4.01231963,6.23959236 Z M3.73959236,0.23959236 C5.59746529,0.23959236 7.13400611,1.56674291 7.23437786,3.26285556 L7.23959236,3.43959236 L7.23959236,7.03959236 C7.23959236,8.81933612 5.66152987,10.2395924 3.73959236,10.2395924 C3.46344998,10.2395924 3.23959236,10.0157347 3.23959236,9.73959236 C3.23959236,9.46344998 3.46344998,9.23959236 3.73959236,9.23959236 C5.07337289,9.23959236 6.14674768,8.32357182 6.23387999,7.1887906 L6.23959236,7.03959236 L6.23959236,3.43959236 C6.23959236,2.23699847 5.13136335,1.23959236 3.73959236,1.23959236 C2.34782137,1.23959236 1.23959236,2.23699847 1.23959236,3.43959236 C1.23959236,3.71573473 1.01573473,3.93959236 0.73959236,3.93959236 C0.463449985,3.93959236 0.23959236,3.71573473 0.23959236,3.43959236 C0.23959236,1.6598486 1.81765485,0.23959236 3.73959236,0.23959236 Z" id="形状结合"></path>
                            </g>
                        </g>
                    </g>
                </g>
            </g>
        </g>
    </g>
</svg>