<?xml version="1.0" encoding="UTF-8"?>
<svg width="32px" height="32px" viewBox="0 0 32 32" version="1.1" xmlns="http://www.w3.org/2000/svg" xmlns:xlink="http://www.w3.org/1999/xlink">
    <title>icon/32/返回顶部/Hover</title>
    <g id="icon/32/返回顶部/Hover" stroke="none" stroke-width="1" fill="none" fill-rule="evenodd">
        <g id="筛选">
            <rect id="bgc" fill="#464646" x="0" y="0" width="32" height="32" rx="2"></rect>
            <path d="M22.5,20 C22.7761424,20 23,20.2238576 23,20.5 C23,20.7761424 22.7761424,21 22.5,21 L9.5,21 C9.22385763,21 9,20.7761424 9,20.5 C9,20.2238576 9.22385763,20 9.5,20 L22.5,20 Z M16.2617838,9.5739254 L16.3378623,9.63142293 L22.3378623,15.1314229 C22.5414218,15.3180191 22.5551733,15.6343028 22.3685771,15.8378623 C22.2027138,16.0188041 21.9343814,16.0497741 21.7338333,15.92337 L21.6621377,15.8685771 L15.9999971,10.677 L10.3378623,15.8685771 C10.1569205,16.0344404 9.88691274,16.0420043 9.69809238,15.8986711 L9.63142293,15.8378623 C9.46555964,15.6569205 9.45799574,15.3869127 9.60132891,15.1980924 L9.66213769,15.1314229 L15.6621377,9.63142293 C15.8294032,9.47809618 16.0749484,9.45893033 16.2617838,9.5739254 Z" id="形状结合" fill="#E8E8E8"></path>
        </g>
    </g>
</svg>