<?xml version="1.0" encoding="UTF-8"?>
<svg width="13px" height="8px" viewBox="0 0 13 8" version="1.1" xmlns="http://www.w3.org/2000/svg" xmlns:xlink="http://www.w3.org/1999/xlink">
    <title>4.组件/2.通用/icon/箭头/下-big备份</title>
    <g id="sys-perf-ALL" stroke="none" stroke-width="1" fill="none" fill-rule="evenodd">
        <g id="资源调度分析-NUMA节点切换" transform="translate(-1802.000000, -207.000000)" fill="#AAAAAA" fill-rule="nonzero">
            <g id="编组-3" transform="translate(384.000000, 152.000000)">
                <g id="优化建议/内容/展开" transform="translate(0.000000, 36.000000)">
                    <g id="编组" transform="translate(1416.648649, 14.000000)">
                        <g id="4.组件/2.通用/icon/箭头/下-big备份" transform="translate(7.870270, 8.000000) rotate(-360.000000) translate(-7.870270, -8.000000) ">
                            <path d="M1.61974748,5.64644661 C1.79049924,5.47288026 2.05555459,5.45359511 2.24726271,5.58859116 L2.31538766,5.64644661 L7.87027027,11.293 L13.4251529,5.64644661 C13.5959046,5.47288026 13.86096,5.45359511 14.0526681,5.58859116 L14.1207931,5.64644661 C14.2915448,5.82001296 14.3105172,6.08943736 14.1777103,6.2843055 L14.1207931,6.35355339 L8.21809036,12.3535534 C8.0473386,12.5271197 7.78228324,12.5464049 7.59057513,12.4114088 L7.52245018,12.3535534 L1.61974748,6.35355339 C1.42765174,6.15829124 1.42765174,5.84170876 1.61974748,5.64644661 Z" id="路径-16"></path>
                        </g>
                    </g>
                </g>
            </g>
        </g>
    </g>
</svg>