<?xml version="1.0" encoding="UTF-8"?>
<svg width="16px" height="16px" viewBox="0 0 16 16" version="1.1" xmlns="http://www.w3.org/2000/svg" xmlns:xlink="http://www.w3.org/1999/xlink">
    <title>4.组件/2.通用/icon/16/告警/成功</title>
    <defs>
        <path d="M8,0 C12.418278,0 16,3.581722 16,8 C16,12.418278 12.418278,16 8,16 C3.581722,16 0,12.418278 0,8 C0,3.581722 3.581722,0 8,0 Z" id="path-1"></path>
    </defs>
    <g id="VS-Code补全web需求-0130" stroke="none" stroke-width="1" fill="none" fill-rule="evenodd">
        <g id="19代码迁移工具-软件包重构-失败报告" transform="translate(-526.000000, -231.000000)">
            <g id="中心内容" transform="translate(304.000000, 104.000000)">
                <g id="配置信息" transform="translate(80.000000, 38.000000)">
                    <g id="编组" transform="translate(142.000000, 89.000000)">
                        <mask id="mask-2" fill="white">
                            <use xlink:href="#path-1"></use>
                        </mask>
                        <use id="蒙版" fill="#3AD53E" fill-rule="nonzero" xlink:href="#path-1"></use>
                        <g mask="url(#mask-2)" fill="#ED4B4B" id="3.颜色/2.成功-安全">
                            <g>
                                <rect id="矩形" x="0" y="0" width="16" height="16"></rect>
                            </g>
                        </g>
                        <path d="M8.203125,6.625 L8.4765625,12.5 L7,12.5 L7.21875,6.625 L8.203125,6.625 Z M8.421875,4 L8.421875,5.4765625 L7.0546875,5.4765625 L7.0546875,4 L8.421875,4 Z" id="形状结合" fill="#FFFFFF" fill-rule="nonzero" transform="translate(7.738281, 8.250000) scale(1, -1) translate(-7.738281, -8.250000) "></path>
                    </g>
                </g>
            </g>
        </g>
    </g>
</svg>