<?xml version="1.0" encoding="UTF-8"?>
<svg width="14px" height="14px" viewBox="0 0 14 14" version="1.1" xmlns="http://www.w3.org/2000/svg" xmlns:xlink="http://www.w3.org/1999/xlink">
    <title>icon/14/指南针</title>
    <g id="icon/14/指南针" stroke="none" stroke-width="1" fill="none" fill-rule="evenodd">
        <path d="M10,4 L5.90984261,4.91194527 C5.54558062,4.99316146 5.25685507,5.27046036 5.16100392,5.63114779 L4,10 L4,10 L8.38997658,8.87011852 C8.75697789,8.77566062 9.03905348,8.48186439 9.1185003,8.11132362 L10,4 L10,4 Z" id="路径-26" stroke="#979797" stroke-width="0.8" stroke-linejoin="round"></path>
        <path d="M7,0 C10.8659932,0 14,3.13400675 14,7 C14,10.8659932 10.8659932,14 7,14 C3.13400675,14 0,10.8659932 0,7 C0,3.13400675 3.13400675,0 7,0 Z M7,0.875 C3.61725591,0.875 0.875,3.61725591 0.875,7 C0.875,10.3827441 3.61725591,13.125 7,13.125 C10.3827441,13.125 13.125,10.3827441 13.125,7 C13.125,3.61725591 10.3827441,0.875 7,0.875 Z" id="椭圆形" fill="#979797" fill-rule="nonzero"></path>
        <line x1="5.35557869" y1="5.30330685" x2="8.74524025" y2="8.49158041" id="路径-6" stroke="#979797" stroke-width="0.8"></line>
    </g>
</svg>