<?xml version="1.0" encoding="UTF-8"?>
<svg width="12px" height="13px" viewBox="0 0 12 13" version="1.1" xmlns="http://www.w3.org/2000/svg" xmlns:xlink="http://www.w3.org/1999/xlink">
    <title>4.组件/2.通用/icon/问号备份 2</title>
    <defs>
        <path d="M13.1542772,2 L2.8456917,2 C2.37862907,2 2,2.36379311 2,2.81255466 L2.00775669,2.92236467 C2.02832652,3.06727088 2.08934804,3.2048923 2.18531743,3.32015353 L5.88575519,7.76507531 L5.88575519,13.1874453 C5.88575519,13.6362069 6.26438426,14 6.73144688,14 C6.86273637,14 6.99222282,13.9706301 7.10965171,13.9142163 L9.6467268,12.6953843 L9.74907293,12.6372616 C9.97565083,12.4869919 10.1142137,12.2379147 10.1142137,11.9686134 L10.1142137,7.76405962 L13.8146514,3.32015353 C14.1064231,2.96972964 14.0472912,2.45839519 13.6825766,2.17805607 C13.5326244,2.06279484 13.3463096,2 13.1542772,2 Z M12.7136585,3.01569332 L9.24241648,7.18560021 L9.17707816,7.27600312 C9.09892669,7.40150223 9.05709905,7.54559268 9.05709905,7.69319908 L9.05709905,11.8420683 L6.94286981,12.8577616 L6.94286981,7.69319908 L6.93511312,7.58338907 C6.91454329,7.43848286 6.85352177,7.30086144 6.75755238,7.18560021 L3.28525322,3.01569332 L12.7136585,3.01569332 Z" id="path-1"></path>
    </defs>
    <g id="页面-1" stroke="none" stroke-width="1" fill="none" fill-rule="evenodd">
        <g id="14" transform="translate(-1656.000000, -359.000000)">
            <g id="编组-7" transform="translate(394.000000, 254.000000)">
                <g id="编组-16" transform="translate(1162.000000, 94.500000)">
                    <g id="编组" transform="translate(98.000000, 9.000000)">
                        <mask id="mask-2" fill="white">
                            <use xlink:href="#path-1"></use>
                        </mask>
                        <use id="蒙版" fill="#AAAAAA" fill-rule="nonzero" xlink:href="#path-1"></use>
                        <g mask="url(#mask-2)" fill="#979797" id="3.颜色/9.辅助文字">
                            <g>
                                <rect id="矩形备份-6" x="0" y="0" width="16" height="16"></rect>
                            </g>
                        </g>
                    </g>
                </g>
            </g>
        </g>
    </g>
</svg>
