<?xml version="1.0" encoding="UTF-8"?>
<svg width="12px" height="12px" viewBox="0 0 12 12" version="1.1"
    xmlns="http://www.w3.org/2000/svg"
    xmlns:xlink="http://www.w3.org/1999/xlink">
    <title>4.组件/2.通用/icon/问号备份</title>
    <defs>
        <path d="M6,0 C9.3137085,0 12,2.6862915 12,6 C12,9.3137085 9.3137085,12 6,12 C2.6862915,12 0,9.3137085 0,6 C0,2.6862915 2.6862915,0 6,0 Z M6,1.125 C3.30761184,1.125 1.125,3.30761184 1.125,6 C1.125,8.69238816 3.30761184,10.875 6,10.875 C8.69238816,10.875 10.875,8.69238816 10.875,6 C10.875,3.30761184 8.69238816,1.125 6,1.125 Z M6.55,8.3625 C6.66045695,8.3625 6.75,8.45204305 6.75,8.5625 L6.75,9.6625 C6.75,9.77295695 6.66045695,9.8625 6.55,9.8625 L5.45,9.8625 C5.33954305,9.8625 5.25,9.77295695 5.25,9.6625 L5.25,8.5625 C5.25,8.45204305 5.33954305,8.3625 5.45,8.3625 L6.55,8.3625 Z M6.00844422,2.1 C6.75057232,2.1 7.35421468,2.30187352 7.81513507,2.70782643 C8.27635134,3.11888619 8.5125,3.63018324 8.5125,4.21985736 C8.5125,4.56012494 8.42861605,4.88057114 8.26363222,5.17100033 C8.1059667,5.45021539 7.81317377,5.77249204 7.3718964,6.15610041 C7.10196637,6.3903514 6.93256746,6.55489278 6.86525582,6.6464533 C6.79805011,6.73846929 6.74804132,6.84257296 6.71506337,6.96020063 C6.68135986,7.07674236 6.6539485,7.54447805 6.6539485,7.61792737 C6.6539485,7.6913767 6.62803629,7.68854308 6.57896183,7.6913767 C6.54624552,7.69326577 6.0587801,7.69261694 5.7152225,7.69197449 L5.38264908,7.69133363 C5.33266352,7.69133363 5.30767075,7.66689592 5.30767075,7.61802049 C5.30538654,7.51648728 5.30416431,7.45933193 5.303552,7.42081341 L5.30300666,7.3609985 C5.30300666,7.0009556 5.35642623,6.68343149 5.46290801,6.41591345 C5.5427012,6.2109618 5.66895437,6.00623581 5.84376544,5.79682533 C5.96501003,5.65421542 6.17202875,5.4571308 6.48713805,5.18338872 C6.75326931,4.95548345 6.9360589,4.76418558 7.00784885,4.64321097 C7.07288675,4.52906159 7.10546316,4.40681226 7.10546316,4.27616367 C7.10546316,4.02412414 7.00528214,3.80557258 6.79787508,3.61051118 C6.58594599,3.41060761 6.33198519,3.3126877 6.02226202,3.3126877 C5.72197233,3.3126877 5.48054784,3.40044533 5.28703857,3.57834647 C5.08909388,3.75862302 4.95568135,4.05285154 4.88810703,4.47117719 L4.88810703,4.47117719 L4.85953294,4.64806797 L4.77690157,4.71061419 L3.53197122,4.56706443 L3.46613686,4.48329281 L3.48951077,4.29553692 C3.57612715,3.59977234 3.8412487,3.05501957 4.28461305,2.66922701 C4.72713371,2.28980743 5.30515583,2.1 6.00844422,2.1 Z" id="path-1"></path>
    </defs>
    <g id="页面-1" stroke="none" stroke-width="1" fill="none" fill-rule="evenodd">
        <g id="无topo总览" transform="translate(-512.000000, -1483.000000)">
            <g id="运行时环境信息" transform="translate(384.000000, 1052.000000)">
                <g id="4.组件/4.数据展示/折叠面板/展开单层" transform="translate(0.000000, 0.000000)">
                    <g id="编组-8" transform="translate(64.000000, 80.000000)">
                        <g id="编组-6" transform="translate(0.000000, 350.000000)">
                            <g id="icon-help" transform="translate(64.000000, 1.000000)">
                                <mask id="mask-2" fill="white">
                                    <use xlink:href="#path-1"></use>
                                </mask>
                                <use id="形状结合" fill="#979797" fill-rule="nonzero" xlink:href="#path-1"></use>
                                <g id="编组" mask="url(#mask-2)">
                                    <g transform="translate(-2.000000, -5.103687)">
                                        <rect id="矩形" fill="#888888" x="0" y="0" width="20" height="20"></rect>
                                    </g>
                                </g>
                            </g>
                        </g>
                    </g>
                </g>
            </g>
        </g>
    </g>
</svg>