<?xml version="1.0" encoding="UTF-8"?>
<svg width="16px" height="16px" viewBox="0 0 16 16" version="1.1" xmlns="http://www.w3.org/2000/svg" xmlns:xlink="http://www.w3.org/1999/xlink">
    <!-- Generator: Sketch 63.1 (92452) - https://sketch.com -->
    <title>节点管理</title>
    <desc>Created with Sketch.</desc>
    <g id="页面-1" stroke="none" stroke-width="1" fill="none" fill-rule="evenodd">
        <g id="主页-节点异常" transform="translate(-1305.000000, -583.000000)" fill="#F45C5E" fill-rule="nonzero">
            <g id="首页内容" transform="translate(0.000000, 64.000000)">
                <g id="编组-2" transform="translate(32.000000, 400.000000)">
                    <g id="卡片备份" transform="translate(936.000000, 84.000000)">
                        <g id="节点管理" transform="translate(337.000000, 35.000000)">
                            <path d="M4.57142857,8 C4.57142857,9.89354771 6.10645229,11.4285714 8,11.4285714 C9.89354771,11.4285714 11.4285714,9.89354771 11.4285714,8 C11.4285714,6.10645229 9.89354771,4.57142857 8,4.57142857 C6.10645229,4.57142857 4.57142857,6.10645229 4.57142857,8 Z" id="路径"></path>
                            <path d="M16,8 C16,7.04285714 15.832,6.10857143 15.5068571,5.22857143 C15.3931599,4.93918548 15.0689548,4.79381144 14.7772475,4.90141346 C14.4855403,5.00901548 14.3333977,5.33009989 14.4348571,5.624 C14.7131429,6.37828571 14.8571429,7.17885714 14.8571429,8 C14.8571429,8.39371429 14.8165714,8.77771429 14.7525714,9.15314286 C14.1657086,9.20544168 13.7155058,9.69652702 13.7142857,10.2857143 C13.7142857,10.6228571 13.8628571,10.9228571 14.0954286,11.132 C12.9571429,13.3422857 10.6577143,14.8571429 8,14.8571429 C4.21314286,14.8571429 1.14285714,11.7868571 1.14285714,8 C1.14285714,7.60628571 1.18342857,7.22228571 1.24742857,6.84685714 C1.83429138,6.79455832 2.28449424,6.30347298 2.28571429,5.71428571 C2.28571429,5.37714286 2.13714286,5.07714286 1.90457143,4.868 C3.04285714,2.65771429 5.34228571,1.14285714 8,1.14285714 C8.59485714,1.14285714 9.17542857,1.22742857 9.73771429,1.37428571 C9.8605497,1.94427394 10.3924154,2.33067925 10.972462,2.27134131 C11.5525087,2.21200337 11.9951191,1.72591057 12,1.14285714 C12,0.511674572 11.4883254,0 10.8571429,0 C10.5668571,0 10.3045714,0.112 10.1028571,0.290285714 C9.41787462,0.100721457 8.71072219,0.00310367507 8,0 C4.78057143,0 2.01314286,1.90571429 0.744,4.64685714 C0.297469711,4.81244429 0.00082693311,5.23804237 0,5.71428571 C0,5.93885714 0.0668571429,6.14685714 0.178857143,6.32342857 C0.0605242192,6.87445362 0.000574285159,7.43641243 0,8 C0,12.4182857 3.58171429,16 8,16 C11.2194286,16 13.9868571,14.0942857 15.256,11.3531429 C15.7025303,11.1875557 15.9991731,10.7619576 16,10.2857143 C16,10.0611429 15.9331429,9.85314286 15.8211429,9.67657143 C15.9365714,9.13542857 16,8.57542857 16,8 Z" id="路径"></path>
                        </g>
                    </g>
                </g>
            </g>
        </g>
    </g>
</svg>