<?xml version="1.0" encoding="UTF-8"?>
<svg width="16px" height="16px" viewBox="0 0 16 16" version="1.1" xmlns="http://www.w3.org/2000/svg" xmlns:xlink="http://www.w3.org/1999/xlink">
    <title>icon/16/跳转箭头/Hover</title>
    <g id="icon/16/跳转箭头/Hover" stroke="none" stroke-width="1" fill="none" fill-rule="evenodd">
        <g id="编组" transform="translate(2.000000, 4.000000)" fill="#267DFF">
            <path d="M7.4156895,0.553057253 L7.48493738,0.610912703 L11.0204713,4.14644661 C11.1940376,4.32001296 11.2133228,4.58943736 11.0783267,4.7843055 L11.0204713,4.85355339 L7.48493738,8.3890873 C7.28967524,8.58434944 6.97309275,8.58434944 6.7778306,8.3890873 C6.60426425,8.21552094 6.5849791,7.94609654 6.71997515,7.7512284 L6.7778306,7.68198052 L9.46,4.99946609 L1,5 C0.723857625,5 0.5,4.77614237 0.5,4.5 C0.5,4.25454011 0.676875161,4.05039163 0.910124368,4.00805567 L1,4 L9.46,3.99946609 L6.7778306,1.31801948 C6.60426425,1.14445313 6.5849791,0.875028732 6.71997515,0.680160591 L6.7778306,0.610912703 C6.95139696,0.437346352 7.22082136,0.418061201 7.4156895,0.553057253 Z" id="形状结合"></path>
        </g>
    </g>
</svg>