<?xml version="1.0" encoding="UTF-8"?>
<svg width="64px" height="64px" viewBox="0 0 64 64" version="1.1" xmlns="http://www.w3.org/2000/svg" xmlns:xlink="http://www.w3.org/1999/xlink">
    <title>4.组件/2.通用/icon/Bigicon/分布式存储备Hover</title>
    <defs>
        <linearGradient x1="78.8051781%" y1="15.4483408%" x2="78.8051781%" y2="93.9717074%" id="linearGradient-1">
            <stop stop-color="#B8BDCA" offset="0%"></stop>
            <stop stop-color="#868B98" offset="100%"></stop>
        </linearGradient>
        <path d="M8.00000228,26.5 L8.24212259,26.501331 C12.5054016,26.5483169 16.0000023,27.8369648 16.0000023,30 L16.0000023,30 L16.0000023,42.5791016 C16.0000023,43.0610434 15.8134353,43.5261145 15.4759042,43.8855645 C13.8335032,45.6347865 11.3288605,46.5 8.00032652,46.5 C4.66809368,46.5 2.17190535,45.6327644 0.55118843,43.8786852 C0.258381622,43.5617845 0.0817919862,43.1646997 0.045158384,42.7470639 L0.0380275873,42.5896037 L0.031,40.262 L2.27842619e-06,40.242536 L0.031,40.207 L0.016,35.381 L2.27842619e-06,35.3630071 L0.016,35.345 L2.27842619e-06,30.102435 L0.00300227842,30.073 L2.27842429e-06,30 C2.27842429e-06,27.8451272 3.46827836,26.558055 7.70965141,26.501916 L8.00000228,26.5 Z M40.0000023,26.5 L40.2421226,26.501331 C44.5054016,26.5483169 48.0000023,27.8369648 48.0000023,30 L47.9990023,29.989 L48.0000023,30.008547 L48.0000023,42.5791016 C48.0000023,43.0610434 47.8134353,43.5261145 47.4759042,43.8855645 C45.8335032,45.6347865 43.3288605,46.5 40.0003265,46.5 C36.6680937,46.5 34.1719054,45.6327644 32.5511884,43.8786852 C32.2583816,43.5617845 32.081792,43.1646997 32.0451584,42.7470639 L32.0380276,42.5896037 L32.031,40.262 L32.0000023,40.242536 L32.031,40.207 L32.016,35.381 L32.0000023,35.3630071 L32.016,35.345 L32.0000023,30.102435 L32.0020023,30.077 L32.0000023,30 C32.0000023,27.8451272 35.4682784,26.558055 39.7096514,26.501916 L40.0000023,26.5 Z M46.9301878,40.8697033 C44.8689795,41.9559563 42.5553176,42.5 40.0000023,42.5 C37.4580797,42.5 35.155284,41.9616441 33.1022466,40.8867382 L33.1075337,42.5866708 C33.1082236,42.8151659 33.1960053,43.0356772 33.3546076,43.2073302 C34.7502779,44.7178447 36.9523752,45.482906 40.0003265,45.482906 C43.0469661,45.482906 45.2601201,44.7183854 46.6781558,43.2081214 C46.8174514,43.0597801 46.9033442,42.8740812 46.9250422,42.677926 L46.9304917,42.5791016 L46.9301878,40.8697033 Z M14.9301878,40.8697033 C12.8689795,41.9559563 10.5553176,42.5 8.00000228,42.5 C5.45807969,42.5 3.15528399,41.9616441 1.10224656,40.8867382 L1.10753371,42.5866708 C1.10822361,42.8151659 1.19600529,43.0356772 1.3546076,43.2073302 C2.75027787,44.7178447 4.95237521,45.482906 8.00032652,45.482906 C11.0469661,45.482906 13.2601201,44.7183854 14.6781558,43.2081214 C14.8174514,43.0597801 14.9033442,42.8740812 14.9250422,42.677926 L14.9304917,42.5791016 L14.9301878,40.8697033 Z M29.9994824,40.0129381 L30.000044,41.7312086 C28.1308073,42.4224396 26.1094968,42.8 24.0000023,42.8 C21.890346,42.8 19.8688872,42.4223817 17.9995306,41.7310496 L17.9995187,40.0125228 C19.8481712,40.7777328 21.8747738,41.2 24.0000023,41.2 C26.1248462,41.2 28.1511,40.7778856 29.9994824,40.0129381 Z M46.9312922,36.3841731 C45.1691482,37.7981535 42.8529018,38.5 40.0003086,38.5 C37.157999,38.5 34.8480357,37.8032058 33.0879752,36.3994499 L33.0978925,39.7802694 C35.1216468,40.9753081 37.4176311,41.5716251 40.0000023,41.5716251 C42.5948452,41.5716251 44.9005282,40.9695343 46.9314145,39.762913 L46.9312922,36.3841731 Z M14.9312922,36.3841731 C13.1691482,37.7981535 10.8529018,38.5 8.00030857,38.5 C5.15799902,38.5 2.84803571,37.8032058 1.08797523,36.3994499 L1.09789253,39.7802694 C3.12164679,40.9753081 5.41763106,41.5716251 8.00000228,41.5716251 C10.5948452,41.5716251 12.9005282,40.9695343 14.9314145,39.762913 L14.9312922,36.3841731 Z M46.931254,31.8616412 C45.5405723,32.9145756 42.938434,33.5 40.0000023,33.5 C37.0651427,33.5 34.4657594,32.9159981 33.0738277,31.8654792 L33.0829366,34.8293641 C34.6990563,36.454318 36.9960303,37.2744539 40.0003086,37.2744539 C43.0130821,37.2744539 45.3143401,36.4496749 46.9307697,34.8155792 Z M14.931254,31.8616412 C13.5405723,32.9145756 10.938434,33.5 8.00000228,33.5 C5.06514267,33.5 2.46575938,32.9159981 1.07382769,31.8654792 L1.0829366,34.8293641 C2.69905625,36.454318 4.99603033,37.2744539 8.00030857,37.2744539 C11.0130821,37.2744539 13.3143401,36.4496749 14.9307697,34.8155792 Z M8.00000228,28.5 C4.6379996,28.5 2.00000228,29.4617699 2.00000228,30 C2.00000228,30.5382301 4.6379996,31.5 8.00000228,31.5 C11.362005,31.5 14.0000023,30.5382301 14.0000023,30 C14.0000023,29.4617699 11.362005,28.5 8.00000228,28.5 Z M40.0000023,28.5 C36.6379996,28.5 34.0000023,29.4617699 34.0000023,30 C34.0000023,30.5382301 36.6379996,31.5 40.0000023,31.5 C43.362005,31.5 46.0000023,30.5382301 46.0000023,30 C46.0000023,29.4617699 43.362005,28.5 40.0000023,28.5 Z M34.8706263,12.0411845 C38.3077448,14.8208016 40.6586749,18.8903302 41.1871957,23.5135495 C40.9168856,23.5043272 40.6590261,23.5 40.4121812,23.5 C40.1332238,23.5 39.8543964,23.5055263 39.5756989,23.5165788 C39.1178528,19.8800945 37.4147431,16.6297144 34.9068795,14.20706 L34.8706263,12.0411845 Z M13.341881,11.8720611 L13.3416488,13.9721272 C10.7178682,16.3991802 8.92432018,19.7108234 8.43482456,23.433237 C8.17546732,23.4239686 7.91000097,23.4200277 7.64048768,23.4200277 C7.3681245,23.4200277 7.09565097,23.4240524 6.82306711,23.4321017 C7.3798305,18.7487344 9.80944949,14.6385939 13.341881,11.8720611 Z M24.0000023,0.5 L24.2421226,0.501331024 C28.5054016,0.548316942 32.0000023,1.83696484 32.0000023,4 L31.9990023,3.989 L32.0000023,4.00854701 L32.0000023,16.5791016 C32.0000023,17.0610434 31.8134353,17.5261145 31.4759042,17.8855645 C29.8335032,19.6347865 27.3288605,20.5 24.0003265,20.5 C20.6680937,20.5 18.1719054,19.6327644 16.5511884,17.8786852 C16.2583816,17.5617845 16.081792,17.1646997 16.0451584,16.7470639 L16.0380276,16.5896037 L16.031,14.262 L16.0000023,14.242536 L16.031,14.207 L16.016,9.381 L16.0000023,9.36300714 L16.016,9.345 L16.0000023,4.10243497 L16.0020023,4.077 L16.0000023,4 C16.0000023,1.84512724 19.4682784,0.558055038 23.7096514,0.501915964 L24.0000023,0.5 Z M30.9301878,14.8697033 C28.8689795,15.9559563 26.5553176,16.5 24.0000023,16.5 C21.4580797,16.5 19.155284,15.9616441 17.1022466,14.8867382 L17.1075337,16.5866708 C17.1082236,16.8151659 17.1960053,17.0356772 17.3546076,17.2073302 C18.7502779,18.7178447 20.9523752,19.482906 24.0003265,19.482906 C27.0469661,19.482906 29.2601201,18.7183854 30.6781558,17.2081214 C30.8174514,17.0597801 30.9033442,16.8740812 30.9250422,16.677926 L30.9304917,16.5791016 L30.9301878,14.8697033 Z M30.9312922,10.3841731 C29.1691482,11.7981535 26.8529018,12.5 24.0003086,12.5 C21.157999,12.5 18.8480357,11.8032058 17.0879752,10.3994499 L17.0978925,13.7802694 C19.1216468,14.9753081 21.4176311,15.5716251 24.0000023,15.5716251 C26.5948452,15.5716251 28.9005282,14.9695343 30.9314145,13.762913 L30.9312922,10.3841731 Z M30.931254,5.86164122 C29.5405723,6.91457563 26.938434,7.5 24.0000023,7.5 C21.0651427,7.5 18.4657594,6.91599812 17.0738277,5.86547917 L17.0829366,8.82936408 C18.6990563,10.454318 20.9960303,11.2744539 24.0003086,11.2744539 C27.0130821,11.2744539 29.3143401,10.4496749 30.9307697,8.81557918 Z M24.0000023,2.5 C20.6379996,2.5 18.0000023,3.46176986 18.0000023,4 C18.0000023,4.53823014 20.6379996,5.5 24.0000023,5.5 C27.362005,5.5 30.0000023,4.53823014 30.0000023,4 C30.0000023,3.46176986 27.362005,2.5 24.0000023,2.5 Z" id="path-2"></path>
    </defs>
    <g id="4.组件/2.通用/icon/Bigicon/分布式存储备Hover" stroke="none" stroke-width="1" fill="none" fill-rule="evenodd">
        <g id="3.颜色/10.辅助说明文本" transform="translate(8.000000, 8.000000)">
            <mask id="mask-3" fill="white">
                <use xlink:href="#path-2"></use>
            </mask>
            <use id="蒙版" fill="url(#linearGradient-1)" fill-rule="nonzero" xlink:href="#path-2"></use>
            <g id="编组" mask="url(#mask-3)">
                <g transform="translate(-8.000000, -9.000000)" id="3.颜色/10.辅助说明文本">
                    <rect id="矩形" fill="#0067FF" x="0" y="0" width="64" height="64"></rect>
                </g>
            </g>
        </g>
    </g>
</svg>