<?xml version="1.0" encoding="UTF-8"?>
<svg width="64px" height="64px" viewBox="0 0 64 64" version="1.1" xmlns="http://www.w3.org/2000/svg" xmlns:xlink="http://www.w3.org/1999/xlink">
    <title>上传</title>
    <g id="VS-Code补全web需求-0130" stroke="none" stroke-width="1" fill="none" fill-rule="evenodd">
        <g id="代码迁移工具-软件包重构-上传1" transform="translate(-1081.000000, -436.000000)">
            <g id="4.组件/5.反馈/0.弹窗样例/2删除用户" transform="translate(783.000000, 282.000000)">
                <g id="编组-9" transform="translate(40.000000, 90.000000)">
                    <g id="编组-2" transform="translate(54.000000, 64.000000)">
                        <g id="上传" transform="translate(204.000000, 0.000000)">
                            <rect id="矩形" x="0" y="0" width="64" height="64"></rect>
                            <path d="M31.9086702,8 C41.3345391,8 49.3646246,14.8723077 50.8506645,24.212 C58.9281573,25.7710769 64.5085562,33.2258461 63.7482143,41.4449231 C62.9981473,49.5520208 56.3188734,55.7897615 48.2413967,55.9949734 L47.9086702,56 L35.1214337,56 L35.1214337,43.1692308 L41.5150519,43.1692308 L31.9241687,30.3384615 L22.3332856,43.1692308 L28.7278155,43.1692308 L28.7278155,56 L15.9396673,56 C7.70810039,55.976 0.838584699,49.6833846 0.0709493744,41.4615385 C-0.699420996,33.2369231 4.88280123,25.772 12.9666759,24.212 C14.4527158,14.8723077 22.4818896,8 31.9086702,8 Z M31.9086702,10 C23.5821084,10 16.4708761,15.9887959 14.9998476,24.1835525 L14.9418306,24.5262672 L14.7216273,25.9102348 L13.3456376,26.1757688 C6.27306223,27.5406116 1.38780462,34.0746979 2.06228887,41.2756164 C2.72418839,48.3649671 8.56676447,53.8142611 15.6183231,53.9954069 L15.9396673,54.0000233 L26.727,54.0000233 L26.727,45.169 L18.3413115,45.1692308 L31.9241687,26.9979629 L45.507026,45.1692308 L37.121,45.169 L37.121,54.0000233 L47.8990199,54.0000233 C54.9853959,53.9658303 60.9091145,48.6206607 61.7228056,41.5865292 L61.7567178,41.2606909 C62.4123084,34.1739452 57.685253,27.737658 50.791338,26.2412945 L50.4716304,26.1757549 L49.0957044,25.9101806 L48.8755098,24.5262672 C47.5438167,16.1566377 40.3503013,10 31.9086702,10 Z" id="路径" fill="#888888" fill-rule="nonzero"></path>
                        </g>
                    </g>
                </g>
            </g>
        </g>
    </g>
</svg>