<?xml version="1.0" encoding="UTF-8"?>
<svg width="65px" height="64px" viewBox="0 0 65 64" version="1.1" xmlns="http://www.w3.org/2000/svg" xmlns:xlink="http://www.w3.org/1999/xlink">
    <title>上传-深色</title>
    <g id="port-intelij-330-新增" stroke="none" stroke-width="1" fill="none" fill-rule="evenodd">
        <g id="9软件包重构-依赖文件-多文件上传1" transform="translate(-1130.000000, -470.000000)">
            <g id="4.组件/5.反馈/0.弹窗样例/2删除用户" transform="translate(813.000000, 340.000000)">
                <g id="编组-9" transform="translate(18.000000, 46.000000)">
                    <g id="编组-2" transform="translate(79.871795, 84.000000)">
                        <g id="上传-深色" transform="translate(220.000000, 0.000000)">
                            <rect id="矩形" x="0" y="0" width="64" height="64"></rect>
                            <path d="M50.8506645,24.212 C49.3646246,14.8723077 41.3345391,8 31.9086702,8 C22.4818896,8 14.4527158,14.8723077 12.9666759,24.212 C4.88280123,25.772 -0.699420996,33.2369231 0.0709493744,41.4615385 C0.838584699,49.6833846 7.70810039,55.976 15.9396673,56 L28.7278155,56 L28.7278155,43.1692308 L22.3332856,43.1692308 L31.9241687,30.3384615 L41.5150519,43.1692308 L35.1214337,43.1692308 L35.1214337,56 L47.9086702,56 C56.134767,55.9603077 62.9878724,49.6630769 63.7482143,41.4449231 C64.5085562,33.2258461 58.9281573,25.7710769 50.8506645,24.212 Z" id="路径" fill="#AFB1B3" fill-rule="nonzero"></path>
                        </g>
                    </g>
                </g>
            </g>
        </g>
    </g>
</svg>