<?xml version="1.0" encoding="UTF-8"?>
<svg width="16px" height="16px" viewBox="0 0 16 16" version="1.1" xmlns="http://www.w3.org/2000/svg" xmlns:xlink="http://www.w3.org/1999/xlink">
    <title>4.组件/2.通用/icon/树-展开</title>
    <defs>
        <path d="M6.85714286,0 L9.14285714,2 L14.8571429,2 C15.4883254,2 16,2.44771525 16,3 L16,15 C16,15.5522847 15.4883254,16 14.8571429,16 L1.14285714,16 C0.511674572,16 0,15.5522847 0,15 L0,1 C0,0.44771525 0.511674572,0 1.14285714,0 L6.85714286,0 Z M8.33473511,2.70710678 L6.38285714,1 L1.14285714,1 L1.14285714,15 L14.8571429,15 L14.8571429,3 L9.14285714,3 C8.89027001,3 8.64630397,2.92683553 8.44796627,2.79391937 L8.33473511,2.70710678 Z M8.5,6 C8.77614237,6 9,6.22385763 9,6.5 C9,6.77614237 8.77614237,7 8.5,7 L3.5,7 C3.22385763,7 3,6.77614237 3,6.5 C3,6.22385763 3.22385763,6 3.5,6 L8.5,6 Z M12.5,10 C12.7761424,10 13,10.2238576 13,10.5 C13,10.7761424 12.7761424,11 12.5,11 L3.5,11 C3.22385763,11 3,10.7761424 3,10.5 C3,10.2238576 3.22385763,10 3.5,10 L12.5,10 Z" id="path-1"></path>
    </defs>
    <g id="各类分析" stroke="none" stroke-width="1" fill="none" fill-rule="evenodd">
        <g id="4-Top数据" transform="translate(-418.000000, -251.000000)">
            <g id="编组备份" transform="translate(394.000000, 240.000000)">
                <g id="编组" transform="translate(24.000000, 11.000000)">
                    <mask id="mask-2" fill="white">
                        <use xlink:href="#path-1"></use>
                    </mask>
                    <use id="蒙版" fill="#979797" fill-rule="nonzero" xlink:href="#path-1"></use>
                    <g mask="url(#mask-2)" fill="#979797" id="3.颜色/9.辅助文字">
                        <g>
                            <rect id="矩形备份-6" x="0" y="0" width="16" height="16"></rect>
                        </g>
                    </g>
                </g>
            </g>
        </g>
    </g>
</svg>