<?xml version="1.0" encoding="UTF-8"?>
<svg width="64px" height="64px" viewBox="0 0 64 64" version="1.1" xmlns="http://www.w3.org/2000/svg" xmlns:xlink="http://www.w3.org/1999/xlink">
    <title>4.组件/2.通用/icon/Bigicon/通用Normal</title>
    <defs>
        <linearGradient x1="78.8051781%" y1="15.4483408%" x2="78.8051781%" y2="93.9717074%" id="linearGradient-1">
            <stop stop-color="#B8BDCA" offset="0%"></stop>
            <stop stop-color="#868B98" offset="100%"></stop>
        </linearGradient>
        <path d="M42.4546917,27.6376388 L42.6429125,27.7381198 L50.169192,32.0834192 C51.1010352,32.6214192 51.6961216,33.588845 51.7629074,34.653933 L51.769192,34.8547005 L51.769192,43.5452995 C51.769192,44.6212994 51.2289199,45.6203722 50.3399194,46.2107544 L50.169192,46.3165808 L42.6429125,50.6618802 C41.7147093,51.1977786 40.5845776,51.2312722 39.6311334,50.7623612 L39.4429125,50.6618802 L31.9166331,46.3165808 C30.9847898,45.7785808 30.3897034,44.811155 30.3229176,43.746067 L30.3166331,43.5452995 L30.3166331,34.8547005 C30.3166331,33.7787006 30.8569052,32.7796278 31.7459056,32.1892456 L31.9166331,32.0834192 L39.4429125,27.7381198 C40.3711157,27.2022214 41.5012474,27.1687278 42.4546917,27.6376388 Z M13.4321015,28.9938223 C13.8041766,29.2064366 14.1216394,29.5011193 14.3609561,29.8543365 L14.4739933,30.0357141 L23.7169058,46.210811 C24.4841337,47.5534598 24.0176629,49.2638529 22.6750141,50.0310808 C22.3123796,50.2383005 21.9087738,50.3613291 21.4940029,50.3922512 L21.285825,50.4 L2.8,50.4 C1.2536027,50.4 2.43360887e-13,49.1463973 2.43360887e-13,47.6 C2.43360887e-13,47.1823353 0.0934257957,46.7708681 0.272361923,46.3954045 L0.368919202,46.210811 L9.61183172,30.0357141 C10.3790596,28.6930652 12.0894527,28.2265944 13.4321015,28.9938223 Z M40.7521745,29.7640846 L40.6429125,29.8165808 L33.1166331,34.1618802 C32.9000523,34.2869232 32.7562379,34.5047563 32.7236684,34.7487329 L32.7166331,34.8547005 L32.7166331,43.5452995 C32.7166331,43.7953854 32.8333749,44.0288489 33.02838,44.1790432 L33.1166331,44.2381198 L40.6429125,48.5834192 C40.8550733,48.7059103 41.1094329,48.723409 41.3336505,48.6359154 L41.4429125,48.5834192 L48.969192,44.2381198 C49.1857727,44.1130768 49.3295871,43.8952437 49.3621567,43.6512671 L49.369192,43.5452995 L49.369192,34.8547005 C49.369192,34.6046146 49.2524501,34.3711511 49.057445,34.2209568 L48.969192,34.1618802 L41.4429125,29.8165808 C41.2307518,29.6940897 40.9763921,29.676591 40.7521745,29.7640846 Z M11.7426668,31.1604869 L11.6956153,31.2264475 L2.45270274,47.4015444 C2.41816613,47.4619835 2.4,47.5303892 2.4,47.6 C2.4,47.7932997 2.5371128,47.9545749 2.71938605,47.9918734 L2.8,48 L21.285825,48 C21.3554358,48 21.4238415,47.9818339 21.4842806,47.9472973 C21.6521117,47.8513938 21.7241108,47.6523316 21.6660622,47.4755688 L21.6331223,47.4015444 L12.3902098,31.2264475 C12.366586,31.1851059 12.3358698,31.1484838 12.2996432,31.1181631 L12.2413681,31.0776058 L12.1673437,31.044666 C12.0158327,30.99491 11.8479386,31.0406993 11.7426668,31.1604869 Z M20.0429125,1 C21.2051117,1 22.1568278,1.90118563 22.2373887,3.04288498 L22.2429125,3.2 L22.2429125,19.2 C22.2429125,20.3621992 21.3417269,21.3139152 20.2000275,21.3944762 L20.0429125,21.4 L4.04291251,21.4 C2.8807133,21.4 1.92899727,20.4988144 1.84843633,19.357115 L1.84291251,19.2 L1.84291251,3.2 C1.84291251,2.03780079 2.74409814,1.08608476 3.8857975,1.00552381 L4.04291251,1 L20.0429125,1 Z M41.0429125,3.55271368e-15 C46.676217,3.55271368e-15 51.2429125,4.56669555 51.2429125,10.2 L51.2429125,10.2 L51.2429125,11.2 C51.2429125,16.8333044 46.676217,21.4 41.0429125,21.4 L41.0429125,21.4 L40.0429125,21.4 C34.4096081,21.4 29.8429125,16.8333044 29.8429125,11.2 L29.8429125,11.2 L29.8429125,10.2 C29.8429125,4.56669555 34.4096081,3.55271368e-15 40.0429125,3.55271368e-15 L40.0429125,3.55271368e-15 Z M19.8429125,3.4 L4.24291251,3.4 L4.24291251,19 L19.8429125,19 L19.8429125,3.4 Z M41.0429125,2.4 L40.0429125,2.4 C35.7350915,2.4 32.2429125,5.89217895 32.2429125,10.2 L32.2429125,10.2 L32.2429125,11.2 C32.2429125,15.507821 35.7350915,19 40.0429125,19 L40.0429125,19 L41.0429125,19 C45.3507336,19 48.8429125,15.507821 48.8429125,11.2 L48.8429125,11.2 L48.8429125,10.2 C48.8429125,5.89217895 45.3507336,2.4 41.0429125,2.4 L41.0429125,2.4 Z" id="path-2"></path>
    </defs>
    <g id="4.组件/2.通用/icon/Bigicon/通用Normal" stroke="none" stroke-width="1" fill="none" fill-rule="evenodd">
        <g id="3.颜色/10.辅助说明文本" transform="translate(6.000000, 6.000000)">
            <mask id="mask-3" fill="white">
                <use xlink:href="#path-2"></use>
            </mask>
            <use id="蒙版" fill="url(#linearGradient-1)" fill-rule="nonzero" xlink:href="#path-2"></use>
            <g id="编组" mask="url(#mask-3)">
                <g transform="translate(-6.000000, -6.000000)" id="3.颜色/10.辅助说明文本">
                    <rect id="矩形备份-6" fill="#979797" x="0" y="0" width="64" height="64"></rect>
                </g>
            </g>
        </g>
    </g>
</svg>