<?xml version="1.0" encoding="UTF-8"?>
<svg width="12px" height="12px" viewBox="0 0 12 12" version="1.1" xmlns="http://www.w3.org/2000/svg" xmlns:xlink="http://www.w3.org/1999/xlink">
    <title>icon-close</title>
    <defs>
        <path d="M10.3948412,0.925156494 C10.729471,0.583223557 11.2828928,0.582368782 11.6309785,0.923212161 C11.978994,1.26412582 11.9898736,1.81765388 11.6552438,2.15958681 L11.6552438,2.15958681 L7.23372725,6.67714213 L11.6552438,11.1945799 C11.9619878,11.5080184 11.9784079,11.9992556 11.7109539,12.3415421 L11.6309785,12.4309545 C11.2828928,12.7717979 10.729471,12.7709431 10.3948412,12.4290102 L10.3948412,12.4290102 L5.99972725,7.93714213 L1.60515876,12.4290102 C1.29841477,12.7424487 0.80782475,12.7692868 0.460075287,12.509047 L0.36902147,12.4309545 C0.021006048,12.0900408 0.0101263718,11.5365128 0.344756174,11.1945799 L0.344756174,11.1945799 L4.76572725,6.67714213 L0.344756174,2.15958681 C0.0380121887,1.84614829 0.02159214,1.35491109 0.289046122,1.01262455 L0.36902147,0.923212161 C0.717107175,0.582368782 1.27052896,0.583223557 1.60515876,0.925156494 L1.60515876,0.925156494 L5.99972725,5.41614213 Z" id="path-1"></path>
    </defs>
    <g id="页面-1" stroke="none" stroke-width="1" fill="none" fill-rule="evenodd">
        <g id="-修改任务" transform="translate(-592.000000, -106.000000)">
            <g id="编组-6备份-3" transform="translate(394.000000, 92.000000)">
                <g id="icon-close" transform="translate(196.000000, 12.000000)">
                    <g id="编组" transform="translate(2.000000, 1.322917)">
                        <mask id="mask-2" fill="white">
                            <use xlink:href="#path-1"></use>
                        </mask>
                        <use id="形状结合" fill="#6C7280" fill-rule="nonzero" xlink:href="#path-1"></use>
                        <rect id="换色" fill="#6C7280" mask="url(#mask-2)" x="-2" y="-1.32291667" width="16" height="16"></rect>
                    </g>
                </g>
            </g>
        </g>
    </g>
</svg>