<?xml version="1.0" encoding="UTF-8"?>
<svg width="13px" height="16px" viewBox="0 0 13 16" version="1.1" xmlns="http://www.w3.org/2000/svg" xmlns:xlink="http://www.w3.org/1999/xlink">
    <title>4.组件/3.数据录入/5.复选框/无文本/未选中/1.默认</title>
    <g id="导入导出任务" stroke="none" stroke-width="1" fill="none" fill-rule="evenodd">
        <g id="导出导入-执行导出成功" transform="translate(-82.000000, -528.000000)" fill="#979797">
            <g id="1" transform="translate(56.000000, 527.000000)">
                <g id="编组" transform="translate(24.000000, 1.000000)">
                    <g id="使用文档备份-5" transform="translate(2.000000, 0.000000)">
                        <path d="M13,1.68213333 C13,0.754666667 12.247625,0 11.323,0 L1.67645833,0 C0.752375,0 0,0.754666667 0,1.68213333 L0,14.3178667 C0,15.2453333 0.752375,16 1.67645833,16 L9.039875,16 C9.06641667,16 9.08916667,15.9888 9.114625,15.9850667 C9.26629167,16.0117333 9.42716667,15.9808 9.55445833,15.8762667 L12.8044583,13.2096 C12.9376043,13.0974103 13.0060842,12.9278469 12.9875417,12.7562667 C12.99025,12.7365333 13,12.7194667 13,12.6992 L13,1.68213333 Z M1.08333333,14.3178667 L1.08333333,1.68213333 C1.08333333,1.34293333 1.34929167,1.06666667 1.67645833,1.06666667 L11.323,1.06666667 C11.6507083,1.06666667 11.9166667,1.34293333 11.9166667,1.68213333 L11.9166667,11.7333333 L10.2916667,11.7333333 C9.39420395,11.7333333 8.66666667,12.4496777 8.66666667,13.3333333 L8.66666667,14.9333333 L1.67645833,14.9333333 C1.34929167,14.9333333 1.08333333,14.6570667 1.08333333,14.3178667 Z M11.61225,12.8 L9.75,14.328 L9.75,13.3333333 C9.75,13.0387815 9.99251243,12.8 10.2916667,12.8 L11.61225,12.8 Z" id="形状"></path>
                    </g>
                    <path d="M8.5,12.5 C8.77614237,12.5 9,12.7238576 9,13 C9,13.2454599 8.82312484,13.4496084 8.58987563,13.4919443 L8.5,13.5 L4.5,13.5 C4.22385763,13.5 4,13.2761424 4,13 C4,12.7545401 4.17687516,12.5503916 4.41012437,12.5080557 L4.5,12.5 L8.5,12.5 Z M10.6415205,3.80489708 C10.7492729,4.1182596 10.5825929,4.45964066 10.2692304,4.56739303 C9.24123188,4.92087905 8.73532624,5.55910577 8.67936502,6.57695267 L8.67412746,6.7722708 L8.67391422,8.80183664 L10.4227416,7.35983774 C10.6783414,7.14894593 11.0565076,7.18518897 11.2673994,7.44078882 C11.4548588,7.6679887 11.4470512,7.99203112 11.2634859,8.20935167 L11.1864484,8.2854467 L8.44272001,10.5492579 C8.24484532,10.7125215 7.96908699,10.7297406 7.75496563,10.6026875 L7.66737979,10.5394083 L5.06143651,8.27559709 C4.81127644,8.05828032 4.78465168,7.67931547 5.00196845,7.4291554 C5.19513892,7.20679089 5.51603132,7.16104688 5.76065134,7.3062553 L5.84841015,7.36968734 L7.47391422,8.78083664 L7.47412746,6.7722708 C7.47412746,5.12514016 8.30460628,3.97398408 9.87902454,3.43260697 C10.1923871,3.3248546 10.5337681,3.49153456 10.6415205,3.80489708 Z" id="形状结合"></path>
                </g>
            </g>
        </g>
    </g>
</svg>