<?xml version="1.0" encoding="UTF-8"?>
<svg width="16px" height="16px" viewBox="0 0 16 16" version="1.1" xmlns="http://www.w3.org/2000/svg" xmlns:xlink="http://www.w3.org/1999/xlink">
    <title>4.组件/2.通用/icon/树-展开备份 4</title>
    <g id="控件" stroke="none" stroke-width="1" fill="none" fill-rule="evenodd">
        <g id="Web_SFW/1.组件/导航/工程管理样式/联动分析" transform="translate(-56.000000, -378.000000)" fill="#267DFF" fill-rule="nonzero">
            <g id="编组" transform="translate(0.000000, 139.000000)">
                <g id="1" transform="translate(56.000000, 124.000000)">
                    <g id="矩形" transform="translate(0.000000, 115.000000)">
                        <rect x="7" y="0" width="2" height="5" rx="1"></rect>
                        <rect opacity="0.1" transform="translate(11.889087, 4.110913) rotate(45.000000) translate(-11.889087, -4.110913) " x="10.8890873" y="1.6109127" width="2" height="5" rx="1"></rect>
                        <rect opacity="0.3" transform="translate(13.500000, 8.000000) rotate(90.000000) translate(-13.500000, -8.000000) " x="12.5" y="5.5" width="2" height="5" rx="1"></rect>
                        <rect opacity="0.5" transform="translate(11.889087, 11.889087) rotate(135.000000) translate(-11.889087, -11.889087) " x="10.8890873" y="9.3890873" width="2" height="5" rx="1"></rect>
                        <rect opacity="0.7" transform="translate(8.000000, 13.500000) rotate(180.000000) translate(-8.000000, -13.500000) " x="7" y="11" width="2" height="5" rx="1"></rect>
                        <rect opacity="0.9" transform="translate(4.110913, 11.889087) rotate(225.000000) translate(-4.110913, -11.889087) " x="3.1109127" y="9.3890873" width="2" height="5" rx="1"></rect>
                        <rect transform="translate(2.500000, 8.000000) rotate(270.000000) translate(-2.500000, -8.000000) " x="1.5" y="5.5" width="2" height="5" rx="1"></rect>
                        <rect transform="translate(4.110913, 4.110913) rotate(315.000000) translate(-4.110913, -4.110913) " x="3.1109127" y="1.6109127" width="2" height="5" rx="1"></rect>
                    </g>
                </g>
            </g>
        </g>
    </g>
</svg>