<?xml version="1.0" encoding="UTF-8"?>
<svg width="224px" height="142px" viewBox="0 0 224 142" version="1.1" xmlns="http://www.w3.org/2000/svg" xmlns:xlink="http://www.w3.org/1999/xlink">
    <title>10.很遗憾，您的请求被拒绝</title>
    <g id="-" stroke="none" stroke-width="1" fill="none" fill-rule="evenodd">
        <g id="手动启动创建失败" transform="translate(-960.000000, -426.000000)">
            <g id="10.很遗憾，您的请求被拒绝" transform="translate(952.000000, 370.000000)">
                <rect id="Rectangle" x="0" y="0" width="240" height="240"></rect>
                <path d="M211.859718,174.207157 C205.729007,178.485025 198.630288,181.800372 191.2089,184.046253 C186.691534,185.43656 182.066611,186.292133 177.441688,186.71992 C168.729624,187.575493 160.125116,186.71992 152.488616,183.832359 C126.567537,173.886317 97.8499927,196.131228 71.9289136,197.842375 C71.6062445,197.842375 71.1760191,197.842375 70.7457938,197.949322 C64.0773004,198.270162 57.6239197,197.093749 51.493208,193.671455 C46.6531725,190.997787 41.9206933,187.468547 37.2957705,183.190679 C12.8804801,160.517981 -4.4360914,125.332521 19.3338608,91.0026335 C47.5136232,50.3628919 60.1741814,56.9935865 75.5858293,62.340921 C90.9974771,67.6882554 98.1188836,70.565372 125.545752,69.175065 C152.97262,67.7847581 155.437172,65.4423749 183.939604,56.9935865 C212.442035,48.5447982 223.368247,95.7082878 231.219861,132.818789 C234.76922,149.930259 225.842043,164.475009 211.859718,174.207157 Z" id="Path" fill="#EDF2FF" fill-rule="evenodd"></path>
                <g id="编组-6" stroke-width="1" fill-rule="evenodd" transform="translate(70.000000, 59.000000)">
                    <path d="M16,0 L102,0 L102,113 L16,113 L16,14.7919149 L16,0 Z M16,104 C16,108.970563 20.0294373,113 25,113 L16,113 L16,104 Z M102,0 L102,9 C102,4.02943725 97.9705627,0 93,0 L102,0 Z" id="矩形-2" fill="#CCDAFF"></path>
                    <path d="M16,0 L16,8 C16,3.581722 12.418278,0 8,0 L16,0 Z" id="形状结合" fill="#CCDAFF"></path>
                    <path d="M8,0 C12.418278,-8.11624501e-16 16,3.581722 16,8 L16,20 L16,20 L0,20 L0,8 C-5.41083001e-16,3.581722 3.581722,8.11624501e-16 8,0 Z" id="矩形" fill="#BACCFF"></path>
                    <path d="M118,105 C118,109.418278 114.418278,113 110,113 L24,113 L24,93 L118,93 L118,105 Z" id="形状结合" fill="#DFE8FF"></path>
                    <path d="M24,93 C28.418278,93 32,96.581722 32,101 L32,113 L32,113 L16,113 L16,101 C16,96.581722 19.581722,93 24,93 Z" id="矩形复制-5" fill="#CCDAFF" transform="translate(24.000000, 103.000000) scale(1, -1) translate(-24.000000, -103.000000) "></path>
                    <g id="编组" transform="translate(42.000000, 15.000000)">
                        <circle id="椭圆形" stroke="#EDF2FF" stroke-width="4" cx="17.5" cy="17.5" r="15.5"></circle>
                        <path d="M19.1421356,7.14213562 L19.1421356,15.1421356 L27.1421356,15.1421356 L27.1421356,19.1421356 L19.1411356,19.1421356 L19.1421356,27.1421356 L15.1421356,27.1421356 L15.1411356,19.1421356 L7.14213562,19.1421356 L7.14213562,15.1421356 L15.1421356,15.1421356 L15.1421356,7.14213562 L19.1421356,7.14213562 Z" id="形状结合" fill="#EDF2FF" transform="translate(17.142136, 17.142136) rotate(-315.000000) translate(-17.142136, -17.142136) "></path>
                    </g>
                    <rect id="矩形复制" fill="#DFE8FF" x="29" y="61" width="60" height="4"></rect>
                    <rect id="矩形复制-2" fill="#DFE8FF" x="29" y="75" width="60" height="4"></rect>
                </g>
            </g>
        </g>
    </g>
</svg>