<?xml version="1.0" encoding="UTF-8"?>
<svg width="52px" height="52px" viewBox="0 0 52 52" version="1.1" xmlns="http://www.w3.org/2000/svg" xmlns:xlink="http://www.w3.org/1999/xlink">
    <title>现象-Normal</title>
    <defs>
        <filter id="filter-1">
            <feColorMatrix in="SourceGraphic" type="matrix" values="0 0 0 0 0.380392 0 0 0 0 0.380392 0 0 0 0 0.380392 0 0 0 1.000000 0"></feColorMatrix>
        </filter>
    </defs>
    <g id="系统性能" stroke="none" stroke-width="1" fill="none" fill-rule="evenodd">
        <g id="导图图标样式" transform="translate(-83.000000, -90.000000)">
            <g id="现象未选中" transform="translate(85.000000, 92.000000)">
                <circle id="椭圆形" stroke="#B8BECC" fill="#FFFFFF" cx="24" cy="24" r="23.5"></circle>
                <g id="icon/24/现象" transform="translate(12.000000, 12.000000)" filter="url(#filter-1)">
                    <g>
                        <path d="M12,1 C12.2761424,1 12.5,1.22385763 12.5,1.5 L12.5003924,5.01760973 C15.968571,5.26257058 18.7391074,8.03404199 18.9826027,11.502625 L19,11.5 L19,11.5 L23,11.5 C23.2761424,11.5 23.5,11.7238576 23.5,12 C23.5,12.2761424 23.2761424,12.5 23,12.5 L19,12.5 L18.9825321,12.4983808 C18.7385718,15.9664938 15.9682357,18.7374531 12.5003924,18.9823903 L12.5,22.5 C12.5,22.7761424 12.2761424,23 12,23 C11.7238576,23 11.5,22.7761424 11.5,22.5 L11.5006133,18.9824612 C8.03297047,18.7380361 5.26252322,15.9679005 5.01760973,12.5003924 L1.5,12.5 C1.22385763,12.5 1,12.2761424 1,12 C1,11.7238576 1.22385763,11.5 1.5,11.5 L5.01753877,11.5006133 C5.26198751,8.0326352 8.0326352,5.26198751 11.5006133,5.01753877 L11.5,1.5 C11.5,1.22385763 11.7238576,1 12,1 Z M12,6 C8.6862915,6 6,8.6862915 6,12 C6,15.3137085 8.6862915,18 12,18 C15.3137085,18 18,15.3137085 18,12 C18,8.6862915 15.3137085,6 12,6 Z M12,9 C13.6568542,9 15,10.3431458 15,12 C15,13.6568542 13.6568542,15 12,15 C10.3431458,15 9,13.6568542 9,12 C9,10.3431458 10.3431458,9 12,9 Z M12,10 C10.8954305,10 10,10.8954305 10,12 C10,13.1045695 10.8954305,14 12,14 C13.1045695,14 14,13.1045695 14,12 C14,10.8954305 13.1045695,10 12,10 Z" id="形状结合备份-2" fill="#616161"></path>
                    </g>
                </g>
            </g>
        </g>
    </g>
</svg>