<?xml version="1.0" encoding="UTF-8"?>
<svg width="52px" height="52px" viewBox="0 0 52 52" version="1.1" xmlns="http://www.w3.org/2000/svg" xmlns:xlink="http://www.w3.org/1999/xlink">
    <title>现象-Normal</title>
    <g id="调优助手" stroke="none" stroke-width="1" fill="none" fill-rule="evenodd">
        <g id="导图图标样式" transform="translate(-100.000000, -46.000000)">
            <g id="现象-未选中" transform="translate(102.000000, 48.000000)">
                <circle id="椭圆形" fill="#575859" cx="24" cy="24" r="24"></circle>
                <g id="形状结合备份-3" transform="translate(12.000000, 12.000000)" fill="#E8E8E8">
                    <path d="M12,1 C12.2761424,1 12.5,1.22385763 12.5,1.5 L12.5003924,5.01760973 C15.9679005,5.26252322 18.7380361,8.03297047 18.9824612,11.5006133 L22.5,11.5 C22.7761424,11.5 23,11.7238576 23,12 C23,12.2761424 22.7761424,12.5 22.5,12.5 L18.9823903,12.5003924 C18.7375005,15.9675652 15.9675652,18.7375005 12.5003924,18.9823903 L12.5,22.5 C12.5,22.7761424 12.2761424,23 12,23 C11.7238576,23 11.5,22.7761424 11.5,22.5 L11.5006133,18.9824612 C8.03297047,18.7380361 5.26252322,15.9679005 5.01760973,12.5003924 L1.5,12.5 C1.22385763,12.5 1,12.2761424 1,12 C1,11.7238576 1.22385763,11.5 1.5,11.5 L5.01753877,11.5006133 C5.26198751,8.0326352 8.0326352,5.26198751 11.5006133,5.01753877 L11.5,1.5 C11.5,1.22385763 11.7238576,1 12,1 Z M12,6 C8.6862915,6 6,8.6862915 6,12 C6,15.3137085 8.6862915,18 12,18 C15.3137085,18 18,15.3137085 18,12 C18,8.6862915 15.3137085,6 12,6 Z M12,9 C13.6568542,9 15,10.3431458 15,12 C15,13.6568542 13.6568542,15 12,15 C10.3431458,15 9,13.6568542 9,12 C9,10.3431458 10.3431458,9 12,9 Z M12,10 C10.8954305,10 10,10.8954305 10,12 C10,13.1045695 10.8954305,14 12,14 C13.1045695,14 14,13.1045695 14,12 C14,10.8954305 13.1045695,10 12,10 Z"></path>
                </g>
            </g>
        </g>
    </g>
</svg>