<?xml version="1.0" encoding="UTF-8"?>
<svg width="16px" height="16px" viewBox="0 0 16 16" version="1.1" xmlns="http://www.w3.org/2000/svg" xmlns:xlink="http://www.w3.org/1999/xlink">
    <title>信息提示</title>
    <defs>
        <path d="M8,0 C12.418278,0 16,3.581722 16,8 C16,12.418278 12.418278,16 8,16 C3.581722,16 0,12.418278 0,8 C0,3.581722 3.581722,0 8,0 Z" id="path-1"></path>
    </defs>
    <g id="dep-port合入" stroke="none" stroke-width="1" fill="none" fill-rule="evenodd">
        <g id="代码迁移工具-增强功能-弱内存序检查-编译器自动修复-展开" transform="translate(-394.000000, -672.000000)">
            <g id="安装" transform="translate(384.000000, 585.000000)">
                <g id="工具支持的操作系统和GCC版本" transform="translate(0.000000, 40.000000)">
                    <g id="编组-7" transform="translate(0.000000, 34.000000)">
                        <g id="信息提示" transform="translate(10.000000, 13.000000)">
                            <mask id="mask-2" fill="white">
                                <use xlink:href="#path-1"></use>
                            </mask>
                            <use id="蒙版" fill="#0067FF" fill-rule="nonzero" xlink:href="#path-1"></use>
                            <path d="M8.203125,5.625 L8.4765625,13.71875 L7,13.71875 L7.21875,5.625 L8.203125,5.625 Z M8.421875,3 L8.421875,4.4765625 L7.0546875,4.4765625 L7.0546875,3 L8.421875,3 Z" id="形状结合" fill="#FFFFFF" fill-rule="nonzero" transform="translate(7.738281, 8.359375) rotate(180.000000) translate(-7.738281, -8.359375) "></path>
                        </g>
                    </g>
                </g>
            </g>
        </g>
    </g>
</svg>