<?xml version="1.0" encoding="UTF-8"?>
<svg width="16px" height="16px" viewBox="0 0 16 16" version="1.1" xmlns="http://www.w3.org/2000/svg" xmlns:xlink="http://www.w3.org/1999/xlink">
    <title>容器进程2@1x</title>
    <g id="容器进程2" stroke="none" stroke-width="1" fill="none" fill-rule="evenodd">
        <path d="M7.99855199,1 C8.09322974,1 8.19778767,1.02996937 8.33020404,1.09815139 L8.33020404,1.09815139 L9.38505208,1.63988196 L11.0284132,2.47780137 L14.6664388,4.31141642 C14.9215223,4.43973405 15.0037956,4.56347303 14.9998591,4.80061625 L14.9998591,4.80061625 L14.9924888,5.49613479 L14.9942072,7.99110104 L14.9916878,10.3316495 L14.9998575,11.1810612 C15.0038532,11.43053 14.9244805,11.5555495 14.6801589,11.6782367 L14.6801589,11.6782367 L11.1470327,13.4630103 L8.30780625,14.909423 C8.07448783,15.0283902 7.92240013,15.029716 7.69630961,14.9157672 C6.65064885,14.3793071 5.5887443,13.8375561 4.5182115,13.2943797 L4.5182115,13.2943797 L1.28834385,11.6644401 C1.06696734,11.5533571 1.00000404,11.449384 1.00054314,11.2248689 C1.00115244,11.0083068 1.0017018,10.7933265 1.00219139,10.5798189 L1.00219139,10.5798189 L1.00419546,6.56406319 L1.00000404,4.77961535 C0.999370679,4.547331 1.07301137,4.43642093 1.31447756,4.31597456 C3.49095528,3.22859483 5.62348931,2.14766944 7.65224868,1.10356225 C7.79221481,1.03168393 7.90168736,1 7.99855199,1 Z M1.99691027,5.30537304 L1.89077608,5.30520052 C1.64606609,5.32342619 1.49375558,5.48349775 1.49375558,5.75226951 L1.49375558,5.75226951 L1.49510042,10.5775558 L1.50343309,10.7216928 C1.55282144,11.1443523 1.82093182,11.478594 2.28640663,11.706724 C2.3259427,11.7260658 2.36466395,11.7450749 2.40312617,11.7640297 L2.40312617,11.7640297 L7.76767992,14.4818386 L7.76917659,8.89376405 L7.76260124,8.75302124 C7.71818001,8.29472382 7.44890534,7.94480091 6.96019936,7.70090995 L6.96019936,7.70090995 L6.42612139,7.4340484 L3.75151824,6.07907379 C3.73314874,6.06698099 3.70486891,6.04937915 3.66798792,6.0273201 L3.66798792,6.0273201 L3.53285063,5.94882318 L3.19186468,5.76463629 C3.01533459,5.67384678 2.82813359,5.58443186 2.63244203,5.4990581 L2.63244203,5.4990581 L2.58816348,5.47988583 L2.36998236,5.39223545 C2.18674498,5.32695917 2.02594875,5.29513305 1.89077608,5.30520052 Z M14.4947385,4.95314471 L13.5364178,5.42126621 L10.6247005,6.90371018 L9.75583361,7.33692824 L9.21404188,7.60079265 C8.53410284,7.92943653 8.22526651,8.40286818 8.24057212,9.10157528 L8.24057212,9.10157528 L8.25485419,10.167018 L8.25501718,12.0407206 L8.26653198,12.8124394 L8.26268559,13.0894248 L8.24693201,13.3517207 C8.23530693,13.9433198 8.55284723,14.2588752 9.14234049,14.0170881 L9.14234049,14.0170881 L9.41498163,13.9022944 L9.83459267,13.7135522 L10.1350731,13.5701937 L10.8278994,13.2213589 L11.4647299,12.8878405 L12.9836162,12.0770237 L13.8449264,11.6277811 C14.27645,11.4085304 14.499895,11.0402439 14.496406,10.5543291 C14.4957762,10.4734344 14.4952403,10.3947281 14.4947868,10.3153502 L14.4947868,10.3153502 L14.4947385,4.95314471 Z M8.64322064,1.72687807 C8.22462081,1.51506545 7.75281665,1.51922574 7.32088603,1.73732095 L7.32088603,1.73732095 L1.70787351,4.58248947 L7.34716723,7.43559543 L7.50300428,7.50328754 C7.66107266,7.56143985 7.82551281,7.59088974 7.99342519,7.59088974 C8.22532555,7.59088974 8.45324924,7.53487647 8.66953022,7.42526431 L8.66953022,7.42526431 L14.2842502,4.58081778 Z" id="3" fill="#979797" fill-rule="nonzero"></path>
    </g>
</svg>