<?xml version="1.0" encoding="UTF-8"?>
<svg width="12px" height="12px" viewBox="0 0 12 12" version="1.1" xmlns="http://www.w3.org/2000/svg" xmlns:xlink="http://www.w3.org/1999/xlink">
    <title>4.组件/2.通用/icon/问号</title>
    <defs>
        <path d="M6,0 C7.05423724,0.000413307302 8.08947814,0.280618511 9,0.812 C10.7905,1.8515 12,3.785 12,6 C12,9.3085 9.3085,12 6,12 C2.6915,12 0,9.3085 0,6 C0,3.785 1.2095,1.8515 3,0.812 C3.884,0.299 4.9065,0 6,0 Z M6,1 C4.91669337,1.00048398 3.86322248,1.35497693 3,2.0095 C1.7885,2.923 1,4.369 1,6 C1,8.757 3.243,11 6,11 C8.757,11 11,8.757 11,6 C11,4.369 10.2115,2.923 9,2.0095 C8.163,1.379 7.1265,1 6,1 Z M6,4.5 C6.27614237,4.5 6.5,4.72385763 6.5,5 L6.5,5 L6.5,9 C6.5,9.27614237 6.27614237,9.5 6,9.5 C5.72385763,9.5 5.5,9.27614237 5.5,9 L5.5,9 L5.5,5 C5.5,4.72385763 5.72385763,4.5 6,4.5 Z M6,2.5 C6.27614237,2.5 6.5,2.72385763 6.5,3 C6.5,3.27614237 6.27614237,3.5 6,3.5 C5.72385763,3.5 5.5,3.27614237 5.5,3 C5.5,2.72385763 5.72385763,2.5 6,2.5 Z" id="path-1"></path>
    </defs>
    <g id="页面-1" stroke="none" stroke-width="1" fill="none" fill-rule="evenodd">
        <g id="83-GC日志-GC活动细化分析-Eden区使用情况" transform="translate(-1633.000000, -322.000000)">
            <g id="编组-11" transform="translate(384.000000, 296.000000)">
                <g id="编组-3备份-4" transform="translate(1182.010724, 0.000000)">
                    <g id="4.组件/2.通用/icon/详细信息" transform="translate(67.000000, 26.000000)">
                        <mask id="mask-2" fill="white">
                            <use xlink:href="#path-1"></use>
                        </mask>
                        <use id="形状结合" fill="#000000" fill-rule="nonzero" xlink:href="#path-1"></use>
                        <g id="3.颜色/1.主色调蓝" mask="url(#mask-2)" fill="#0067FF" fill-rule="evenodd">
                            <g transform="translate(-4.000000, -4.000000)" id="矩形">
                                <rect x="0" y="0" width="20" height="20"></rect>
                            </g>
                        </g>
                    </g>
                </g>
            </g>
        </g>
    </g>
</svg>