<?xml version="1.0" encoding="UTF-8"?>
<svg width="16px" height="16px" viewBox="0 0 16 16" version="1.1" xmlns="http://www.w3.org/2000/svg" xmlns:xlink="http://www.w3.org/1999/xlink">
    <title>4.组件/2.通用/icon/快照</title>
    <defs>
        <path d="M13.0949367,8.45984252 C13.462999,8.45984252 13.8148828,8.86239575 13.896709,9.34050513 L13.9113924,9.46141732 L15.0126582,9.46141732 C15.5265823,9.46141732 15.9412658,9.88942782 15.9942729,10.4227948 L16,10.5385827 L16,14.9228346 C16,15.4872441 15.6195781,15.9364199 15.1211702,15.9938016 L15.0126582,16 L7.98734177,16 C7.47341772,16 7.05873418,15.5719895 7.00572714,15.0386226 L7,14.9228346 L7,10.5385827 C7,9.97417323 7.38042194,9.52499738 7.87882982,9.46761575 L7.98734177,9.46141732 L9.08860759,9.46141732 C9.12366115,8.97298607 9.43375028,8.5328612 9.80979817,8.46803981 L9.90506329,8.45984252 L13.0949367,8.45984252 Z M14.8571429,-2.91144886e-12 C15.4875,-2.91144886e-12 16,0.50210876 16,1.11968504 L16,8.37489419 C16,8.68455709 15.7446429,8.93473671 15.4285714,8.93473671 C15.1125,8.93473671 14.8571429,8.68455709 14.8571429,8.37489419 L14.8571429,1.11968504 L1.14285714,1.11968504 L1.14285714,14.8047244 L2.87857143,14.8047244 C3.19464286,14.8047244 3.37857143,15.054904 3.37857143,15.3645669 C3.37857143,15.6742298 3.19285714,15.9226599 2.87857143,15.9226599 L1.14285714,15.9226599 C0.5125,15.9226599 0,15.4205512 0,14.8029749 L0,1.11968504 C0,0.50210876 0.5125,-2.91144886e-12 1.14285714,-2.91144886e-12 L14.8571429,-2.91144886e-12 Z M12.9050633,9.40472441 L10.0379747,9.40472441 C10.0379747,9.42992126 10.0295359,9.45511811 10.02391,9.48591426 L10.0189873,9.53700787 L10.0189873,9.93385827 C10.0189873,10.1690289 9.85396156,10.3594051 9.63059332,10.3988076 L9.5443038,10.4062992 L7.96835443,10.4062992 C7.96835443,10.4062992 7.94699367,10.438189 7.93631329,10.4860236 L7.93037975,10.5385827 L7.93037975,14.9417323 C7.93037975,14.9984252 7.95174051,15.0444882 7.97043117,15.0639764 L7.98734177,15.0740157 L15.0126582,15.0740157 C15.0126582,15.0740157 15.034019,15.042126 15.0446994,14.9942913 L15.0506329,14.9417323 L15.0126582,14.9417323 L15.0126582,10.5385827 C15.0126582,10.4818898 15.0019778,10.4464567 14.9886274,10.424311 L14.9746835,10.4062992 L13.3987342,10.4062992 C13.1624473,10.4062992 12.9711674,10.2420531 12.9315779,10.0197401 L12.9240506,9.93385827 L12.9240506,9.53700787 C12.9240506,9.48031496 12.9240506,9.44251969 12.9050633,9.40472441 Z M11.5,10.3496063 C12.6392405,10.3496063 13.5696203,11.2755906 13.5696203,12.4094488 C13.5696203,13.5433071 12.6392405,14.4692913 11.5,14.4692913 C10.3607595,14.4692913 9.43037975,13.5433071 9.43037975,12.4094488 C9.43037975,11.2755906 10.3607595,10.3496063 11.5,10.3496063 Z M11.5,11.2755906 C10.8734177,11.2755906 10.3797468,11.7669291 10.3797468,12.3905512 C10.3797468,13.0141732 10.8924051,13.5055118 11.5,13.5055118 C12.1075949,13.5055118 12.6202532,13.0141732 12.6202532,12.3905512 C12.6202532,11.7669291 12.1075949,11.2755906 11.5,11.2755906 Z M12.0017857,5.70708907 C12.3178571,5.70708907 12.5732143,5.9572687 12.5732143,6.26693159 C12.5732143,6.57484498 12.3178571,6.82677411 12.0017857,6.82677411 L4.025,6.82677411 C3.70892857,6.82677411 3.45357143,6.57659449 3.45357143,6.26693159 C3.45357143,5.9572687 3.70892857,5.70708907 4.025,5.70708907 L12.0017857,5.70708907 Z M12.0017857,2.36727854 C12.3178571,2.36727854 12.5732143,2.61745817 12.5732143,2.92712106 C12.5732143,3.23678396 12.3178571,3.48696358 12.0017857,3.48696358 L4.025,3.48696358 C3.70892857,3.48696358 3.45357143,3.23678396 3.45357143,2.92712106 C3.45357143,2.61745817 3.70892857,2.36727854 4.025,2.36727854 L12.0017857,2.36727854 Z" id="path-1"></path>
    </defs>
    <g id="4.组件/2.通用/icon/快照" stroke="none" stroke-width="1" fill="none" fill-rule="evenodd">
        <mask id="mask-2" fill="white">
            <use xlink:href="#path-1"></use>
        </mask>
        <use id="形状结合" fill="#000000" fill-rule="nonzero" xlink:href="#path-1"></use>
        <g id="编组" mask="url(#mask-2)" fill="#0067ff">
            <g id="3.颜色/9.辅助文字">
                <rect id="矩形备份-6" x="0" y="0" width="16" height="16"></rect>
            </g>
        </g>
    </g>
</svg>