<?xml version="1.0" encoding="UTF-8"?>
<svg width="32px" height="32px" viewBox="0 0 32 32" version="1.1" xmlns="http://www.w3.org/2000/svg" xmlns:xlink="http://www.w3.org/1999/xlink">
    <title>4.组件/2.通用/按钮/4.图标按钮/视图切换/占比直角/未选/按下</title>
    <g id="4.组件/2.通用/按钮/4.图标按钮/视图切换/占比直角/未选/按下" stroke="none" stroke-width="1" fill="none" fill-rule="evenodd">
        <g id="图表已选中-normal">
            <rect id="bgc" fill="#313131" x="0" y="0" width="32" height="32" rx="1"></rect>
            <g id="编组" transform="translate(6.000000, 6.000000)">
                <rect id="BOX" x="0" y="0" width="20" height="20"></rect>
                <path d="M15,11 C16.6568542,11 18,12.5670034 18,14.5 C18,16.4329966 16.6568542,18 15,18 C13.3431458,18 12,16.4329966 12,14.5 C12,12.5670034 13.3431458,11 15,11 Z M17.0961941,2.92893219 C17.4867184,3.31945648 17.4867184,3.95262146 17.0961941,4.34314575 L4.36827202,17.0710678 C3.97774772,17.4615921 3.34458275,17.4615921 2.95405845,17.0710678 C2.56353416,16.6805435 2.56353416,16.0473785 2.95405845,15.6568542 L15.6819805,2.92893219 C16.0725048,2.5384079 16.7056698,2.5384079 17.0961941,2.92893219 Z M15,12 C13.9325828,12 13,13.0880133 13,14.5 C13,15.9119867 13.9325828,17 15,17 C16.0674172,17 17,15.9119867 17,14.5 C17,13.0880133 16.0674172,12 15,12 Z M5,2 C6.65685425,2 8,3.56700338 8,5.5 C8,7.43299662 6.65685425,9 5,9 C3.34314575,9 2,7.43299662 2,5.5 C2,3.56700338 3.34314575,2 5,2 Z M5,3 C3.93258279,3 3,4.08801326 3,5.5 C3,6.91198674 3.93258279,8 5,8 C6.06741721,8 7,6.91198674 7,5.5 C7,4.08801326 6.06741721,3 5,3 Z" id="形状结合" fill="#E8E8E8"></path>
            </g>
        </g>
    </g>
</svg>