<?xml version="1.0" encoding="UTF-8"?>
<svg width="32px" height="32px" viewBox="0 0 32 32" version="1.1" xmlns="http://www.w3.org/2000/svg" xmlns:xlink="http://www.w3.org/1999/xlink">
    <title>4.组件/2.通用/按钮/4.图标按钮/视图切换/占比直角/未选/Hover</title>
    <g id="4.组件/2.通用/按钮/4.图标按钮/视图切换/占比直角/未选/Hover" stroke="none" stroke-width="1" fill="none" fill-rule="evenodd">
        <g id="图表已选中-normal">
            <rect id="bgc" fill="#464646" x="0" y="0" width="32" height="32" rx="1"></rect>
            <rect id="BOX" x="6" y="6" width="20" height="20"></rect>
            <path d="M21,17 C22.6568542,17 24,18.5670034 24,20.5 C24,22.4329966 22.6568542,24 21,24 C19.3431458,24 18,22.4329966 18,20.5 C18,18.5670034 19.3431458,17 21,17 Z M23.0961941,8.92893219 C23.4867184,9.31945648 23.4867184,9.95262146 23.0961941,10.3431458 L10.368272,23.0710678 C9.97774772,23.4615921 9.34458275,23.4615921 8.95405845,23.0710678 C8.56353416,22.6805435 8.56353416,22.0473785 8.95405845,21.6568542 L21.6819805,8.92893219 C22.0725048,8.5384079 22.7056698,8.5384079 23.0961941,8.92893219 Z M21,18 C19.9325828,18 19,19.0880133 19,20.5 C19,21.9119867 19.9325828,23 21,23 C22.0674172,23 23,21.9119867 23,20.5 C23,19.0880133 22.0674172,18 21,18 Z M11,8 C12.6568542,8 14,9.56700338 14,11.5 C14,13.4329966 12.6568542,15 11,15 C9.34314575,15 8,13.4329966 8,11.5 C8,9.56700338 9.34314575,8 11,8 Z M11,9 C9.93258279,9 9,10.0880133 9,11.5 C9,12.9119867 9.93258279,14 11,14 C12.0674172,14 13,12.9119867 13,11.5 C13,10.0880133 12.0674172,9 11,9 Z" id="形状结合" fill="#E8E8E8"></path>
        </g>
    </g>
</svg>