<?xml version="1.0" encoding="UTF-8"?>
<svg width="16px" height="16px" viewBox="0 0 16 16" version="1.1" xmlns="http://www.w3.org/2000/svg" xmlns:xlink="http://www.w3.org/1999/xlink">
    <title>icon/16/定位</title>
    <g id="icon/16/定位" stroke="none" stroke-width="1" fill="none" fill-rule="evenodd">
        <g id="图表已选中-normal" fill="#888888">
            <path d="M8.03351374,1.13686838e-13 C8.47534154,1.13605675e-13 8.83351374,0.3581722 8.83351374,0.8 L8.83353696,1.6078484 C11.6501173,1.96400545 13.8915896,4.10052711 14.3243387,6.81806549 L15.2448195,6.81801263 C15.6314188,6.81801263 15.9448195,7.1314133 15.9448195,7.51801263 C15.9448195,7.90461195 15.6314188,8.21801263 15.2448195,8.21801263 L14.3841593,8.21898262 C14.1711064,11.1757401 11.8332288,13.5628107 8.84551111,13.9461819 L8.84588172,15.3111111 C8.84588172,15.7529389 8.48770952,16.1111111 8.04588172,16.1111111 C7.60405392,16.1111111 7.24588172,15.7529389 7.24588172,15.3111111 L7.2454649,13.957212 C4.21434451,13.6111041 1.83105138,11.2056857 1.61584069,8.21898262 L0.7,8.21801263 C0.313400675,8.21801263 1.51976209e-11,7.90461195 1.51976209e-11,7.51801263 C1.51976209e-11,7.1314133 0.313400675,6.81801263 0.7,6.81801263 L1.67566126,6.81806549 C2.11183537,4.0790193 4.38547596,1.93022308 7.2334455,1.5997272 L7.23351374,0.8 C7.23351374,0.3581722 7.59168594,1.13768e-13 8.03351374,1.13686838e-13 Z M2.68544803,6.81832778 L3.78963894,6.81801263 C4.17623827,6.81801263 4.48963894,7.1314133 4.48963894,7.51801263 C4.48963894,7.90461195 4.17623827,8.21801263 3.78963894,8.21801263 L2.61432044,8.21876689 C2.82387092,10.6704991 4.76484272,12.6442922 7.2452466,12.9812678 L7.24588172,12.9111111 C7.24588172,12.4692833 7.60405392,12.1111111 8.04588172,12.1111111 C8.48770952,12.1111111 8.84588172,12.4692833 8.84588172,12.9111111 L8.84574521,12.9681367 C11.2824938,12.5958186 13.1786984,10.6404382 13.3856796,8.21876689 L12.1551805,8.21801263 C11.7685812,8.21801263 11.4551805,7.90461195 11.4551805,7.51801263 C11.4551805,7.1314133 11.7685812,6.81801263 12.1551805,6.81801263 L13.314552,6.81832778 C12.9004385,4.63631209 11.0996532,2.92674419 8.83377461,2.58560325 L8.83351374,3.11810719 C8.83351374,3.55993499 8.47534154,3.91810719 8.03351374,3.91810719 C7.59168594,3.91810719 7.23351374,3.55993499 7.23351374,3.11810719 L7.23321954,2.57593509 C4.93590517,2.89316003 3.10363458,4.61485027 2.68544803,6.81832778 Z M8,5.96678456 C8.8836556,5.96678456 9.6,6.66323051 9.6,7.52234012 C9.6,8.38144973 8.8836556,9.07789567 8,9.07789567 C7.1163444,9.07789567 6.4,8.38144973 6.4,7.52234012 C6.4,6.66323051 7.1163444,5.96678456 8,5.96678456 Z" id="形状结合"></path>
        </g>
    </g>
</svg>