<?xml version="1.0" encoding="UTF-8"?>
<svg width="32px" height="32px" viewBox="0 0 32 32" version="1.1" xmlns="http://www.w3.org/2000/svg" xmlns:xlink="http://www.w3.org/1999/xlink">
    <title>4.组件/2.通用/按钮/4.图标按钮/视图切换/定位/未选/Normal</title>
    <g id="4.组件/2.通用/按钮/4.图标按钮/视图切换/定位/未选/Normal" stroke="none" stroke-width="1" fill="none" fill-rule="evenodd">
        <g id="图表已选中-normal">
            <path d="M0,0 L31,0 C31.5522847,-1.01453063e-16 32,0.44771525 32,1 L32,31 C32,31.5522847 31.5522847,32 31,32 L0,32 L0,32 L0,0 Z" id="bgc" fill="#313131"></path>
            <rect id="BOX" x="6" y="6" width="20" height="20"></rect>
            <path d="M16,6 C16.5522847,6 17,6.44771525 17,7 L17.0006955,7.05500569 C21.1720858,7.51645693 24.4841085,10.8287757 24.9451047,15.0003032 L26,15 C26.5522847,15 27,15.4477153 27,16 C27,16.5522847 26.5522847,17 26,17 L24.9449943,17.0006955 C24.4835799,21.1717529 21.1717529,24.4835799 17.0006955,24.9449943 L17,25 C17,25.5522847 16.5522847,26 16,26 C15.4477153,26 15,25.5522847 15,25 L15.0003032,24.9451047 C10.8287757,24.4841085 7.51645693,21.1720858 7.05500569,17.0006955 L6,17 C5.44771525,17 5,16.5522847 5,16 C5,15.4477153 5.44771525,15 6,15 L7.05500569,14.9993045 C7.51645693,10.8279142 10.8287757,7.51589149 15.0003032,7.05489527 L15,7 C15,6.44771525 15.4477153,6 16,6 Z M17.0007498,8.46530092 L17,10 C17,10.5522847 16.5522847,11 16,11 C15.4477153,11 15,10.5522847 15,10 L15.0002516,8.46516926 C11.6025251,8.91163715 8.91163715,11.6025251 8.46516926,15.0002516 L10,15 C10.5522847,15 11,15.4477153 11,16 C11,16.5522847 10.5522847,17 10,17 L8.46530092,17.0007498 C8.91216592,20.3980036 11.602859,23.0884067 15.0002516,23.5348307 L15,22 C15,21.4477153 15.4477153,21 16,21 C16.5522847,21 17,21.4477153 17,22 L17.0007498,23.5346991 C20.3976698,23.087878 23.087878,20.3976698 23.5346991,17.0007498 L22,17 C21.4477153,17 21,16.5522847 21,16 C21,15.4477153 21.4477153,15 22,15 L23.5346991,14.9992502 C23.087878,11.6023302 20.3976698,8.91212201 17.0007498,8.46530092 Z M16,14 C17.1045695,14 18,14.8954305 18,16 C18,17.1045695 17.1045695,18 16,18 C14.8954305,18 14,17.1045695 14,16 C14,14.8954305 14.8954305,14 16,14 Z" id="形状结合" fill="#888888"></path>
        </g>
    </g>
</svg>