<?xml version="1.0" encoding="UTF-8"?>
<svg width="44px" height="46px" viewBox="0 0 44 46" version="1.1" xmlns="http://www.w3.org/2000/svg" xmlns:xlink="http://www.w3.org/1999/xlink">
    <title>系统诊断_normal</title>
    <g id="设置" stroke="none" stroke-width="1" fill="none" fill-rule="evenodd">
        <g id="1首次登陆成功" transform="translate(-1585.000000, -528.000000)">
            <g id="2.文本/2.标题/带选择-大备份-2" transform="translate(438.000000, 386.000000)">
                <g id="编组-2" transform="translate(30.000000, 79.000000)">
                    <g id="编组" transform="translate(1115.000000, 62.000000)">
                        <rect id="矩形" fill="#D8D8D8" opacity="0" x="1" y="1" width="46" height="46"></rect>
                        <g id="编组-4备份-3" transform="translate(2.000000, 1.000000)" fill="#616161">
                            <path d="M20.0890901,0 C30.9912895,0 39.8292683,8.79050674 39.8292683,19.6341463 C39.8292683,30.4777859 30.9912895,39.2682927 20.0890901,39.2682927 C10.3029076,39.2682927 2.03432796,32.1413041 0.575018032,22.614355 C0.469096897,21.9228602 0.975206749,21.2965718 1.66076706,21.236 L1.77044163,21.2312102 L11.975474,21.2361324 L15.7236428,10.426945 C16.100164,9.34089853 17.623421,9.36121799 17.9998141,10.4001711 L18.035649,10.5153813 L21.9422497,25.4113937 L23.8012789,20.7904886 C23.9706999,20.3692112 24.362398,20.0818132 24.8103544,20.0400908 L24.9234194,20.0348432 L32.5777743,20.0348432 C33.2452559,20.0348432 33.7863566,20.5730375 33.7863566,21.2369338 C33.7863566,21.8617774 33.3070424,22.3752725 32.6941688,22.4335216 L32.5777743,22.4390244 L25.7412268,22.4390244 L22.8226737,29.6973163 C22.4044745,30.7371987 20.9319972,30.6820636 20.5659727,29.666756 L20.5310881,29.5543051 L16.7050595,14.9692334 L13.9801571,22.8308947 C13.8240036,23.2813077 13.4169373,23.5940776 12.9465558,23.6362474 L12.8369677,23.6411148 L3.23420079,23.6355052 L3.23983592,23.6555842 C5.05153782,31.2075608 11.8236784,36.7297264 19.7968593,36.8616944 L20.0890901,36.8641115 C29.6563263,36.8641115 37.4121036,29.1499933 37.4121036,19.6341463 C37.4121036,10.1182993 29.6563263,2.40418118 20.0890901,2.40418118 C14.9015656,2.40418118 10.0903254,4.68410865 6.81755016,8.55986382 C6.38826519,9.06824077 5.6259144,9.13422675 5.11479202,8.70724762 C4.60366964,8.28026849 4.53732731,7.52201257 4.96661229,7.01363562 C8.69390314,2.59962428 14.1797869,0 20.0890901,0 Z" id="路径" fill-rule="nonzero"></path>
                            <path d="M36.7032034,30.762112 L37.9600133,30.7648264 C38.5106106,30.7660156 38.956662,31.212067 38.9578512,31.7626643 L38.9887024,46.0467699 C38.9898952,46.5990533 38.543148,47.0477345 37.9908645,47.0489274 C37.9894246,47.0489305 37.9879848,47.0489305 37.9865449,47.0489274 L36.729735,47.0462129 C36.1791377,47.0450237 35.7330863,46.5989723 35.7318971,46.048375 L35.7010459,31.7642694 C35.6998531,31.211986 36.1466003,30.7633048 36.6988838,30.762112 C36.7003236,30.7621088 36.7017635,30.7621088 36.7032034,30.762112 Z" id="矩形备份-3" transform="translate(37.344874, 38.905520) rotate(-45.000000) translate(-37.344874, -38.905520) "></path>
                        </g>
                    </g>
                </g>
            </g>
        </g>
    </g>
</svg>