<?xml version="1.0" encoding="UTF-8"?>
<svg width="48px" height="48px" viewBox="0 0 48 48" version="1.1" xmlns="http://www.w3.org/2000/svg" xmlns:xlink="http://www.w3.org/1999/xlink">
    <title>系统诊断</title>
    <g id="调优助手" stroke="none" stroke-width="1" fill="none">
        <g id="切图" transform="translate(-208.000000, -16.000000)">
            <g id="icon/72/调优助手备份-4" transform="translate(208.000000, 16.000000)">
                <g id="编组-4备份-2" transform="translate(5.333333, 4.000000)" fill="#e8e8e8">
                    <path d="M16.6666667,0.333333333 C25.6873176,0.333333333 33,7.64601575 33,16.6666667 C33,25.6873176 25.6873176,33 16.6666667,33 C8.56942562,33 1.72787305,27.0711718 0.520417109,19.1458548 C0.432776299,18.5706112 0.851539536,18.0496119 1.4187829,17.9992232 L1.50952936,17.9952386 L9.95333333,17.9993333 L13.054627,9.00734265 C13.3661666,8.10387791 14.6265333,8.12078134 14.937967,8.98506987 L14.9676173,9.08091144 L18.2,21.4726667 L19.73819,17.6286093 C19.8783715,17.2781554 20.2024687,17.0390736 20.5731149,17.0043654 L20.6666667,17 L27,17 C27.5522847,17 28,17.4477153 28,18 C28,18.5197974 27.6034079,18.9469658 27.0963067,18.9954223 L27,19 L21.3433333,19 L18.9284767,25.0380573 C18.5824521,25.9031189 17.3641012,25.8572529 17.0612468,25.0126347 L17.0323827,24.9190886 L13.8666667,12.786 L11.6120396,19.3259907 C11.4828357,19.700682 11.1460227,19.9608704 10.7568217,19.9959507 L10.6661467,19.9999999 L2.72066667,19.9953333 L2.72532926,20.0120367 C4.22435985,26.2944057 9.82773531,30.8882072 16.4248703,30.9979893 L16.6666667,31 C24.5827481,31 31,24.5827481 31,16.6666667 C31,8.75058525 24.5827481,2.33333333 16.6666667,2.33333333 C12.3744275,2.33333333 8.39353176,4.22996864 5.68558619,7.45414759 C5.33038906,7.87705827 4.69960805,7.93195095 4.27669737,7.57675382 C3.85378669,7.22155669 3.79889401,6.59077568 4.15409114,6.167865 C7.2381101,2.49591933 11.7772164,0.333333333 16.6666667,0.333333333 Z" id="路径" fill-rule="nonzero"></path>
                    <path d="M30.1785113,26.1785113 L30.845178,26.1785113 C31.3974627,26.1785113 31.845178,26.6262266 31.845178,27.1785113 L31.845178,38.5118446 C31.845178,39.0641294 31.3974627,39.5118446 30.845178,39.5118446 L30.1785113,39.5118446 C29.6262266,39.5118446 29.1785113,39.0641294 29.1785113,38.5118446 L29.1785113,27.1785113 C29.1785113,26.6262266 29.6262266,26.1785113 30.1785113,26.1785113 Z" id="矩形备份-3" transform="translate(30.511845, 32.845178) rotate(-45.000000) translate(-30.511845, -32.845178) "></path>
                </g>
            </g>
        </g>
    </g>
</svg>