<?xml version="1.0" encoding="UTF-8"?>
<svg width="48px" height="48px" viewBox="0 0 48 48" version="1.1" xmlns="http://www.w3.org/2000/svg" xmlns:xlink="http://www.w3.org/1999/xlink">
    <title>调优助手</title>
    <defs>
        <filter id="filter-1" >
            <feColorMatrix in="SourceGraphic" type="matrix" values="0 0 0 0 0.133333 0 0 0 0 0.133333 0 0 0 0 0.133333 0 0 0 1.000000 0"></feColorMatrix>
        </filter>
    </defs>
    <g id="调优助手" stroke="none" stroke-width="1" fill="none" fill-rule="evenodd">
        <g id="切图" transform="translate(-16.000000, -16.000000)">
            <g id="icon/72/调优助手备份" transform="translate(16.000000, 16.000000)" >
                <g id="路径" transform="translate(4.000000, 1.333333)" fill="#616161">
                    <path d="M6.03497478,24.2083873 C6.43771691,24.5862989 6.45784598,25.2191439 6.07993432,25.621886 C3.08299298,28.8157396 1.92292924,31.5013316 2.69196081,32.8333333 C3.61157785,34.4261568 7.48543568,34.5522701 12.8450198,32.9019503 C12.67008,31.940096 12.5181545,30.9346334 12.3915399,29.8913779 C12.3250002,29.3431162 12.715513,28.8447212 13.2637747,28.7781814 C13.8120364,28.7116417 14.3104315,29.1021545 14.3769712,29.6504162 L14.4566595,30.2744428 C15.4796881,37.9029753 17.9755434,42.9999998 20.3011438,42.9999998 C21.7949078,42.9999998 23.491961,40.7817838 24.7530356,36.7822013 C24.9191122,36.2554784 25.4807371,35.9631168 26.00746,36.1291933 C26.5341829,36.2952699 26.8265445,36.8568948 26.660468,37.3836177 C25.160743,42.1400959 22.9727644,44.9999998 20.3011438,44.9999998 C17.1933115,44.9999998 14.6849419,41.042266 13.2522,34.8695366 C7.14122091,36.7235218 2.51536608,36.5274623 0.959910006,33.8333333 C-0.40771209,31.4645424 1.07433174,28.0335542 4.62147606,24.2533468 C4.99938772,23.8506047 5.63223265,23.8304756 6.03497478,24.2083873 Z M20.3011438,0.333333105 C23.1478299,0.333333105 25.4517439,3.58499529 26.9472822,8.91358707 C27.0965216,9.44532578 26.7864446,9.99736758 26.2547059,10.1466069 C25.7229671,10.2958463 25.1709253,9.9857693 25.021686,9.45403059 C23.7483417,4.91711456 21.9176441,2.3333331 20.3011438,2.3333331 C17.2155845,2.3333331 14.1570904,10.8324375 13.9764698,21.6290837 C13.9672317,22.1812912 13.5120902,22.6214548 12.9598827,22.6123596 C12.4076752,22.6029787 11.9675115,22.1478372 11.9766068,21.5956297 C12.0317679,18.3007289 12.3322984,15.1963028 12.839256,12.4306063 L12.3653704,12.2871227 C7.2400161,10.7847607 3.57977282,10.9621556 2.69190634,12.4999854 C1.1040027,15.2503152 7.27388883,22.386309 16.8434015,27.9823792 L17.1344229,28.1514796 C26.8695212,33.7720413 36.3063297,35.6114296 37.9102728,32.8333187 C38.7156491,31.4383659 37.4055718,28.5752053 34.1350365,25.2168502 C33.7497198,24.821187 33.7581072,24.1880776 34.1537705,23.8027608 C34.5494337,23.417444 35.1825431,23.4258314 35.5678599,23.8214947 C39.4111508,27.767985 41.061609,31.3750443 39.6423236,33.8333187 C37.2206399,38.0277979 27.0134761,36.0849197 16.4544921,30.0671328 L16.1344229,29.8835304 C5.46236931,23.7220174 -1.48628956,15.736833 0.959855533,11.4999854 C2.5151605,8.80611817 7.13175561,8.6104462 13.2477507,10.4631053 C14.6751913,4.35704576 17.1962217,0.333333105 20.3011438,0.333333105 Z M39.642378,11.5 C42.0885231,15.7368476 35.1398643,23.722032 24.4678107,29.883545 C23.9895181,30.1596874 23.3779277,29.9958123 23.1017853,29.5175196 C22.8256429,29.039227 22.9895181,28.4276366 23.4678107,28.1514942 L24.0477722,27.8123507 C33.4521974,22.2426096 39.4821914,15.2225487 37.9103272,12.5 C36.3063842,9.72188911 26.8695757,11.5612775 17.1344774,17.1818391 C16.6561847,17.4579815 16.0445943,17.2941063 15.768452,16.8158137 C15.4923096,16.3375211 15.6561847,15.7259307 16.1344774,15.4497883 C26.8065309,9.2882753 37.1962329,7.26315241 39.642378,11.5 Z M20,21.3333333 C21.1045695,21.3333333 22,22.2287638 22,23.3333333 C22,24.4379028 21.1045695,25.3333333 20,25.3333333 C18.8954305,25.3333333 18,24.4379028 18,23.3333333 C18,22.2287638 18.8954305,21.3333333 20,21.3333333 Z M28.2417636,15.7028199 C28.4589533,17.5680864 28.5880899,19.5176967 28.6240807,21.5118212 C28.6340469,22.0640161 28.1944838,22.5197376 27.642289,22.5297039 C27.0900941,22.5396701 26.6343726,22.100107 26.6244063,21.5479122 C26.5895833,19.6184854 26.4647612,17.7340123 26.2551853,15.934135 C26.1913094,15.3855565 26.5842385,14.8890642 27.1328169,14.8251883 C27.6813954,14.7613124 28.1778877,15.1542414 28.2417636,15.7028199 Z" id="形状结合"></path>
                </g>
            </g>
        </g>
    </g>
</svg>