<?xml version="1.0" encoding="UTF-8"?>
<svg width="40px" height="44px" viewBox="0 0 40 44" version="1.1" xmlns="http://www.w3.org/2000/svg" xmlns:xlink="http://www.w3.org/1999/xlink">
    <title>调优助手_normal</title>
    <g id="设置" stroke="none" stroke-width="1" fill="none" fill-rule="evenodd">
        <g id="1首次登陆成功" transform="translate(-684.000000, -529.000000)">
            <g id="2.文本/2.标题/带选择-大备份-2" transform="translate(438.000000, 386.000000)">
                <g id="编组-2" transform="translate(30.000000, 79.000000)">
                    <g id="编组" transform="translate(212.000000, 62.000000)">
                        <rect id="矩形" fill="#D8D8D8" opacity="0" x="0.96" y="0.96" width="46.08" height="46.08"></rect>
                        <g transform="translate(3.600949, 1.104000)" fill="#80858F" id="形状结合">
                            <path d="M26.5761596,8.63424449 C26.7649059,9.12970368 26.5162661,9.68436187 26.0208069,9.87310823 C25.5253477,10.0618546 24.9706895,9.81321471 24.7819431,9.31775551 L24.540886,8.69741905 C22.306866,3.0652984 20.5113251,1.83468334 18.7165643,3.85378929 C16.3408735,6.52644141 14.7835934,12.5998339 14.1569251,21.9998583 C14.1216572,22.5288773 13.6642122,22.9291417 13.1351931,22.8938738 C12.606174,22.8586058 12.2059097,22.4011608 12.2411776,21.8721417 C12.4855727,18.2062149 12.8684151,15.0151294 13.3955779,12.2950061 L13.4566956,12.309894 C7.17607586,10.8145083 3.73258633,11.1014658 3.04143058,12.7141625 C2.03392689,15.0650045 5.70392074,19.5378095 12.8243737,25.015081 C20.0660806,30.5856248 29.0374495,34.2797178 35.1521742,33.4644212 L35.4921817,33.4119548 C38.8882017,32.8113147 38.6378311,30.38492 34.0647366,24.9543703 C33.7232201,24.5488195 33.7751302,23.9432017 34.180681,23.6016852 C34.5862319,23.2601688 35.1918496,23.3120788 35.5333661,23.7176297 L35.9580536,24.2303971 C41.0593727,30.4965775 41.1042378,34.6078042 35.4059285,35.3675788 C29.4684375,36.1592443 21.4444982,33.2369529 14.4132962,28.5203465 C14.5189205,28.6427519 14.5934451,28.7955633 14.6241018,28.967241 L14.78572,29.847967 C16.281904,37.7815015 18.1766612,41.8707303 20.0381247,42.1034132 C21.9818921,42.3463842 23.5798899,40.4820533 24.7514658,36.0886439 C24.8880768,35.5763525 25.4141161,35.2718034 25.9264075,35.4084145 C26.4386988,35.5450255 26.7432479,36.0710648 26.6066369,36.5833561 C25.2182128,41.7899467 22.9762106,44.4056158 19.799978,44.0085868 C17.2090913,43.6847259 15.2747114,40.3954014 13.7394943,34.1333193 C7.35893439,36.2618446 3.35440351,36.1628081 1.80553793,33.4522934 C0.244085262,30.7197512 1.54016388,27.5721317 5.35328547,24.1056575 C5.74559678,23.7490109 6.35274717,23.7779228 6.70939382,24.1702341 C7.06604047,24.5625454 7.03712855,25.1696958 6.64481723,25.5263425 C3.41793882,28.4598683 2.47401744,30.7522488 3.47256477,32.4997066 C4.39636271,34.116353 7.64833106,34.1648968 13.3092512,32.2530947 C13.1109024,31.3254214 12.9193183,30.3425365 12.7340009,29.304759 C12.6407978,28.782822 12.9883554,28.2841526 13.5102923,28.1909495 C13.6730747,28.1618813 13.8335938,28.1756857 13.980255,28.2242818 C13.1891109,27.6845172 12.4124439,27.1205458 11.653729,26.536919 L10.9219622,25.9687228 C3.48046849,20.1346098 -0.222308679,15.4554593 1.27667212,11.9578375 C2.49969765,9.10411125 6.70197355,8.74089146 13.7999022,10.4180299 C14.6555603,6.84272482 15.8102314,4.23343111 17.2815384,2.57821071 C20.542679,-1.09057241 23.8029828,1.35465547 26.5761596,8.63424449 Z M39.5497873,12.5124213 C40.7967255,16.2532358 36.872036,20.602216 24.311525,29.4410942 C23.8779295,29.7462169 23.27908,29.6420692 22.9739572,29.2084737 C22.6688344,28.7748781 22.7729821,28.1760286 23.2065777,27.8709058 L24.3937174,27.0303151 C35.2049213,19.3253724 38.5306183,15.5264873 37.7283154,13.1195787 C37.0788449,11.1711674 34.7950436,10.8198133 29.7073228,11.8373574 C26.615847,12.4556526 22.3733337,14.184084 17.0082236,17.0244364 C16.5396451,17.2725074 15.9586859,17.0937507 15.710615,16.6251722 C15.462544,16.1565937 15.6413007,15.5756346 16.1098791,15.3275636 C21.624769,12.407916 26.0222557,10.6163474 29.3307799,9.95464255 L30.007534,9.8243203 C35.5437118,8.80148712 38.5027604,9.37134074 39.5497873,12.5124213 Z M19.9190514,20.976 C20.9794381,20.976 21.8390514,21.8356133 21.8390514,22.896 C21.8390514,23.9563867 20.9794381,24.816 19.9190514,24.816 C18.8586646,24.816 17.9990514,23.9563867 17.9990514,22.896 C17.9990514,21.8356133 18.8586646,20.976 19.9190514,20.976 Z M27.9777015,15.2666749 C28.7182947,16.7478614 28.8929927,18.844237 28.5516381,21.5750733 C28.4858757,22.1011725 28.0060771,22.4743492 27.479978,22.4085868 C26.9538789,22.3428244 26.5807022,21.8630258 26.6464646,21.3369267 C26.94511,18.947763 26.799808,17.2041386 26.2604012,16.1253251 C26.0232916,15.6511057 26.2155069,15.0744596 26.6897263,14.8373499 C27.1639457,14.6002402 27.7405918,14.7924556 27.9777015,15.2666749 Z"></path>
                        </g>
                    </g>
                </g>
            </g>
        </g>
    </g>
</svg>