<?xml version="1.0" encoding="UTF-8"?>
<svg width="36px" height="46px" viewBox="0 0 36 46" version="1.1" xmlns="http://www.w3.org/2000/svg" xmlns:xlink="http://www.w3.org/1999/xlink">
    <title>Java性能分析_normal</title>
    <defs>
        <filter id="filter-1">
            <feColorMatrix in="SourceGraphic" type="matrix" values="0 0 0 0 0.909804 0 0 0 0 0.909804 0 0 0 0 0.909804 0 0 0 1.000000 0"></feColorMatrix>
        </filter>
    </defs>
    <g id="设置" stroke="none" stroke-width="1" fill="none" fill-rule="evenodd">
        <g id="1首次登陆成功" transform="translate(-1359.000000, -528.000000)">
            <g id="2.文本/2.标题/带选择-大备份-2" transform="translate(438.000000, 386.000000)">
                <g id="编组-2" transform="translate(30.000000, 79.000000)">
                    <g id="Java性能分析_normal" transform="translate(885.000000, 62.000000)" filter="url(#filter-1)">
                        <g>
                            <rect id="矩形" fill="#D8D8D8" opacity="0" x="1" y="1" width="38" height="38"></rect>
                            <g id="编组备份" transform="translate(6.000000, 1.000000)" fill="#616161">
                                <path d="M27.6,7.66666667 C26.539967,8.6018681 25.5074376,9.39915964 24.3740619,10.554155 C23.5168677,11.4333305 21.9686466,12.6342958 21.8861359,14.2518638 C21.75664,16.7126934 24.7797394,18.9882066 23.1765111,22.1084178 C22.5668489,23.2978906 21.5354655,23.8049967 20.2267546,24.5333333 C20.0709011,24.1756296 20.5671111,23.8753882 20.7802637,23.4946995 C22.7891694,19.8443971 18.6877013,18.6305028 19.2137069,14.1355024 C19.7202307,9.79134089 23.8033631,8.2786418 27.6,7.66666667" id="Fill-3"></path>
                                <path d="M35.2666667,40.6374355 C33.9429798,44.3859338 29.3638803,45.1142892 24.8835779,45.7169746 L23.9898286,45.8366937 C23.5940755,45.8899198 23.2008699,45.9436776 22.8125676,46 L18.1151118,46 C14.0180826,45.5768421 10.0745563,45.010067 6.75319149,43.6277512 C15.4376435,45.5973589 28.100941,45.4537416 34.1744878,41.2555025 C34.5032282,41.028536 34.8075169,40.5861437 35.2666667,40.6374355 Z M7.98898636,37.0051658 C6.93531509,37.2987054 4.20597549,36.8813288 4.10667662,38.4805082 C4.073577,39.0951067 5.03898262,39.8197827 5.65960052,40.0781587 C9.27573414,41.5901935 16.5397218,41.8241079 22.5183409,41.0612107 C25.2918134,40.7049881 30.5036246,39.6730129 29.8388738,36.5128754 C30.6705018,36.6229527 31.4138641,37.2146185 31.5035089,38.1120548 C31.8358843,41.5045778 24.8022148,42.9309969 21.9639223,43.2765175 C15.7853263,44.0256551 8.06621881,43.8773564 3.33021467,42.0457915 C1.78832399,41.4556545 -0.0749088601,40.3609964 0.0023235895,38.7251245 C0.136101225,35.9716617 6.12575352,35.2087645 7.98898636,37.0051658 Z M13.2814851,34.5 C13.6120768,34.5997886 13.1651168,34.7706765 13.1743733,34.9004016 C14.1423459,36.4870399 18.9293142,35.9244819 21.3637917,35.4030866 C21.8530675,35.2933192 22.3423432,34.971501 22.7456651,35.0014376 C23.9807558,35.0825158 24.4475514,36.2949469 25.5120567,36.5057503 C22.1188632,38.4628537 13.897708,39.2549255 10.5164158,36.8076107 C10.3577318,35.0213953 11.8771314,34.8218181 13.2814851,34.5 Z M11.2213056,29.1333333 C11.7188559,29.2141941 10.8711776,29.5949136 11.009386,30.0817629 C12.8297884,32.3846106 18.492385,31.7343551 21.2776139,31.0285079 C21.8594055,30.8802631 22.4411972,30.4338442 22.8650363,30.4877514 C23.923318,30.6090426 24.6011974,32.180774 25.5120567,32.3846106 C22.2937748,34.2393547 16.0796608,35.1220849 11.5385268,34.0102492 C10.3630971,33.7255518 8.32024494,32.9118902 8.25706395,31.7057169 C8.16097618,30.0682861 10.2788558,29.3776003 11.2213056,29.1333333 Z M33.0091404,27.6403461 C33.2086936,31.4268184 28.7442364,33.5493533 25.5120567,33.7333333 C27.0108908,32.4062417 30.9713669,30.2742373 30.1964595,27.2047462 C29.8818354,25.9655862 28.2184063,25.2134324 26.3321185,25.5732758 C28.7442364,23.6590713 32.8328926,24.4098723 33.0091404,27.6403461 Z M12.531567,23.0279108 C11.4005518,23.6254232 9.51370733,23.7365883 8.69102679,25.0149868 C9.52462183,25.7236642 10.7429531,25.6989608 11.872604,25.7607192 C16.5030812,25.996945 22.2959528,25.5491968 26.245638,24.7679532 C26.3779764,25.0906408 25.6971843,25.6480102 25.25924,26.0092967 C22.7666407,28.0704827 15.0214376,28.6540994 9.67742485,28.2434062 C7.89017524,28.1075377 3.7972372,27.5733277 3.75221488,25.7607192 C3.69764238,23.5636648 8.71285579,23.325895 10.7743322,23.1529716 C11.1808974,23.1159165 11.938091,22.9306414 12.531567,23.0279108 Z" id="形状结合"></path>
                                <path d="M20.2865274,0 C20.9738209,0.691381088 21.4666667,1.97909464 21.4666667,3.35144053 C21.4666667,7.4033764 17.433403,9.74964517 15.4669118,12.4617861 C15.0339902,13.0685348 14.4738827,14.0007925 14.4836662,14.9747154 C14.5032333,17.1842704 16.6470511,19.6555347 17.433403,21.4666667 C16.0575929,20.5031601 14.3858308,19.2154465 13.2044686,17.6972726 C12.0255522,16.189515 10.8441899,13.7390833 11.9264939,11.6232749 C13.5493383,8.43979701 18.3775144,6.54533471 20.0896336,3.14181274 C20.5029881,2.31501991 20.8270678,1.04813894 20.2865274,0 L20.2865274,0 Z" id="Fill-9-path"></path>
                            </g>
                        </g>
                    </g>
                </g>
            </g>
        </g>
    </g>
</svg>