<?xml version="1.0" encoding="UTF-8"?>
<svg width="46px" height="39px" viewBox="0 0 46 39" version="1.1" xmlns="http://www.w3.org/2000/svg" xmlns:xlink="http://www.w3.org/1999/xlink">
    <title>系统性能分析_normal</title>
    <defs>
        <filter id="filter-1">
            <feColorMatrix in="SourceGraphic" type="matrix" values="0 0 0 0 0.909804 0 0 0 0 0.909804 0 0 0 0 0.909804 0 0 0 1.000000 0"></feColorMatrix>
        </filter>
    </defs>
    <g id="设置" stroke="none" stroke-width="1" fill="none" fill-rule="evenodd">
        <g id="1首次登陆成功" transform="translate(-1124.000000, -532.000000)">
            <g id="2.文本/2.标题/带选择-大备份-2" transform="translate(438.000000, 386.000000)">
                <g id="编组-2" transform="translate(30.000000, 79.000000)">
                    <g id="系统性能分析_normal" transform="translate(655.000000, 62.000000)" filter="url(#filter-1)">
                        <g>
                            <rect id="矩形" fill="#D8D8D8" opacity="0" x="1" y="1" width="46" height="46"></rect>
                            <path d="M45.5625,5 C46.3564093,5 47,5.65122218 47,6.45454545 L47,35.5454545 C47,36.3487778 46.3564093,37 45.5625,37 L25.443,37 L25.443,42 L33,42 C33.5522847,42 34,42.4477153 34,43 C34,43.5522847 33.5522847,44 33,44 L15,44 C14.4477153,44 14,43.5522847 14,43 C14,42.4477153 14.4477153,42 15,42 L22.569,42 L22.569,37 L2.4375,37 C1.64359067,37 1,36.3487778 1,35.5454545 L1,6.45454545 C1,5.65122218 1.64359067,5 2.4375,5 L45.5625,5 Z M24.006,14.342 L24.1962238,14.3409394 C16.3017715,14.3409394 9.22868266,18.4484968 5.21110053,24.7893111 L7.41961126,26.0652463 L7.06034436,26.6875148 L4.83583495,25.4031952 C4.10400595,26.6448149 3.48692187,27.9661935 3.00028846,29.3541548 L3,35 L45,35 L45.0013895,28.3241717 C44.5638962,27.2496241 44.0473516,26.2198803 43.4596115,25.2412283 L40.9534924,26.6875148 L40.5942255,26.0652463 L43.0790998,24.6301171 C39.1255821,18.5024595 32.320166,14.5243364 24.7259397,14.3471159 L24.7254522,17.2150746 L24.0069184,17.2150746 L24.006,14.342 Z M32.8908423,21.2647591 C33.1714472,21.545364 33.1714472,22.0003144 32.8908423,22.2809193 L25.952554,29.2195558 C26.0871502,29.5008993 26.1625198,29.8159894 26.1625198,30.148683 C26.1625198,31.3391888 25.1974242,32.3042844 24.0069184,32.3042844 C22.8164126,32.3042844 21.851317,31.3391888 21.851317,30.148683 C21.851317,28.9581772 22.8164126,27.9930816 24.0069184,27.9930816 C24.339612,27.9930816 24.6547021,28.0684512 24.9360456,28.2030474 L31.8746821,21.2647591 C32.155287,20.9841542 32.6102374,20.9841542 32.8908423,21.2647591 Z M45,7 L3,7 L3.00022154,25.7499723 C7.02742392,18.0298902 15.0990302,12.9038718 24.1962238,12.9038718 C32.9825678,12.9038718 40.845077,17.688944 45.0011625,25.032154 L45,7 Z" id="形状结合" fill="#616161"></path>
                        </g>
                    </g>
                </g>
            </g>
        </g>
    </g>
</svg>