<?xml version="1.0" encoding="UTF-8"?>
<svg width="48px" height="48px" viewBox="0 0 48 48" version="1.1" xmlns="http://www.w3.org/2000/svg" xmlns:xlink="http://www.w3.org/1999/xlink">
    <title>系统性能分析</title>
    <defs>
        <filter id="filter-1">
            <feColorMatrix in="SourceGraphic" type="matrix" values="0 0 0 0 0.133333 0 0 0 0 0.133333 0 0 0 0 0.133333 0 0 0 1.000000 0"></feColorMatrix>
        </filter>
    </defs>
    <g id="调优助手" stroke="none" stroke-width="1" fill="none" fill-rule="evenodd">
        <g id="切图" transform="translate(-80.000000, -16.000000)">
            <g id="icon/72/调优助手备份-2" transform="translate(80.000000, 16.000000)" >
                <g id="编组" transform="translate(2.000000, 6.000000)" fill="#CCCCCC">
                    <path d="M42,0 C42.7363797,0 43.3333333,0.596953667 43.3333333,1.33333333 L43.3333333,28 C43.3333333,28.7363797 42.7363797,29.3333333 42,29.3333333 L23.3328287,29.333 L23.3328287,34.666 L30.6666667,34.6666667 C31.0348565,34.6666667 31.3333333,34.9651435 31.3333333,35.3333333 C31.3333333,35.7015232 31.0348565,36 30.6666667,36 L22.3504948,35.9998557 C22.3447859,35.9999518 22.3390652,36 22.3333333,36 L21.6666667,36 L21.6488287,35.999 L13.3333333,36 C12.9651435,36 12.6666667,35.7015232 12.6666667,35.3333333 C12.6666667,34.9651435 12.9651435,34.6666667 13.3333333,34.6666667 L20.6658287,34.666 L20.6658287,29.333 L2,29.3333333 C1.26362033,29.3333333 0.666666667,28.7363797 0.666666667,28 L0.666436835,24.3686575 C0.650744,24.2893862 0.64932267,24.2061924 0.664301475,24.1226361 L0.666666667,1.33333333 C0.666666667,0.596953667 1.26362033,0 2,0 L42,0 Z M21.9998287,8.668 L22.1756404,8.66666667 C14.8506079,8.66666667 8.28774014,12.478178 4.56028229,18.3618835 L6.61004234,19.5446582 L6.27670901,20.1220085 L4.2128617,18.9302501 C3.60963749,19.95366 3.09043588,21.0354744 2.66547392,22.167122 L2.66666667,27.3333333 L41.3333333,27.3333333 L41.3339995,21.2934281 C40.9603418,20.421214 40.5300942,19.5819803 40.0482838,18.7797507 L37.723291,20.1220085 L37.3899577,19.5446582 L39.695499,18.2131807 C36.0273218,12.5277384 29.7130153,8.83672823 22.6668397,8.67239083 L22.6666667,11.3333333 L22,11.3333333 L21.9998287,8.668 Z M30.2426407,15.0906926 C30.5029902,15.3510422 30.5029902,15.7731522 30.2426407,16.0335017 L23.8050218,22.4709222 C23.9300079,22.7320464 24,23.0245161 24,23.3333333 C24,24.4379028 23.1045695,25.3333333 22,25.3333333 C20.8954305,25.3333333 20,24.4379028 20,23.3333333 C20,22.2287638 20.8954305,21.3333333 22,21.3333333 C22.3088778,21.3333333 22.6014017,21.4033529 22.8625647,21.5283851 L29.2998316,15.0906926 C29.5601812,14.8303431 29.9822912,14.8303431 30.2426407,15.0906926 Z M41.3333333,2 L2.66666667,2 L2.66634057,18.9572638 C6.45284357,11.9590956 13.8514927,7.33333333 22.1756404,7.33333333 C30.2266406,7.33333333 37.4416219,11.6635559 41.3337271,18.3337436 L41.3333333,2 Z" id="形状结合"></path>
                </g>
            </g>
        </g>
    </g>
</svg>