<?xml version="1.0" encoding="UTF-8"?>
<svg width="16px" height="16px" viewBox="0 0 16 16" version="1.1" xmlns="http://www.w3.org/2000/svg" xmlns:xlink="http://www.w3.org/1999/xlink">
    <title>成功16*16</title>
    <defs>
        <path d="M8,1 C11.8659932,1 15,4.13400675 15,8 C15,11.8659932 11.8659932,15 8,15 C4.13400675,15 1,11.8659932 1,8 C1,4.13400675 4.13400675,1 8,1 Z" id="path-1"></path>
    </defs>
    <g id="成功16*16" stroke="none" stroke-width="1" fill="none" fill-rule="evenodd">
        <mask id="mask-2" fill="white">
            <use xlink:href="#path-1"></use>
        </mask>
        <use id="蒙版" fill="#61D274" fill-rule="nonzero" xlink:href="#path-1"></use>
        <path d="M5.07067608,4.08190397 C5.28676075,4.08181549 5.46654171,4.23744964 5.50389526,4.44276966 L5.51101928,4.52188659 L5.51256655,8.29915708 L12.1905305,8.29915708 C12.4336258,8.29915708 12.6306935,8.49622474 12.6306935,8.73932001 C12.6306935,8.9554047 12.4749857,9.13512189 12.2696504,9.17239133 L12.1905305,9.17948294 L5.51256655,9.17948294 C5.0611039,9.17948294 4.6890154,8.83964178 4.63816332,8.40196604 L4.63224073,8.29933739 L4.63069346,4.52224721 C4.63059391,4.27915195 4.82758083,4.08200359 5.07067608,4.08190397 Z" id="路径" fill="#FFFFFF" fill-rule="nonzero" transform="translate(8.630693, 6.630693) rotate(-45.000000) translate(-8.630693, -6.630693) "></path>
    </g>
</svg>