<svg xmlns="http://www.w3.org/2000/svg" viewBox="0 0 16.03 16.12"><defs><style>.cls-1{fill:#666;}</style></defs><title>资源 4</title><g id="图层_2" data-name="图层 2"><g id="图层_1-2" data-name="图层 1"><g id="图层_1-2-2" data-name="图层 1-2"><path class="cls-1" d="M8.08,0h6.38a1.82,1.82,0,0,1,1,.2,1.06,1.06,0,0,1,.56.94,2.59,2.59,0,0,1-1,2.31c-1.2,1.07-2.3,2.26-3.45,3.39a1.06,1.06,0,0,0-.37.87v4.85a1.15,1.15,0,0,1-.75,1.19c-1.38.66-2.77,1.33-4.11,2.07a1,1,0,0,1-1.41,0,1,1,0,0,1-.25-1c.11-2.36.09-4.73.14-7.09a1.24,1.24,0,0,0-.4-1q-2-2-3.88-4A1.65,1.65,0,0,1,.17.79,1.46,1.46,0,0,1,1.59,0ZM6.5,13.71c.9-.46,1.71-.9,2.54-1.3a.68.68,0,0,0,.42-.73V7.37A1.6,1.6,0,0,1,10,6.11c1.22-1.2,2.4-2.44,3.6-3.66L14,1.94H2.06c.18.19.3.34.44.47C3.67,3.63,4.84,4.84,6,6.06a1.5,1.5,0,0,1,.5,1.16v6.49Z"/></g></g></g></svg>