<?xml version="1.0" encoding="UTF-8"?>
<svg width="11px" height="11px" viewBox="0 0 11 11" version="1.1" xmlns="http://www.w3.org/2000/svg" xmlns:xlink="http://www.w3.org/1999/xlink">
    <!-- Generator: Sketch 63.1 (92452) - https://sketch.com -->
    <title>?</title>
    <desc>Created with Sketch.</desc>
    <g id="页面-1" stroke="none" stroke-width="1" fill="none" fill-rule="evenodd">
        <g id="JDBC-Hot-Spots（Stop--Instrument）备份" transform="translate(-441.000000, -254.000000)" fill="#9EA4B3">
            <path d="M446.5,254 C449.537566,254 452,256.462434 452,259.5 C452,262.537566 449.537566,265 446.5,265 C443.462434,265 441,262.537566 441,259.5 C441,256.462434 443.462434,254 446.5,254 Z M446.43,261.57 C446.23,261.57 446.05,261.63 445.91,261.77 C445.77,261.9 445.7,262.07 445.7,262.28 C445.7,262.48 445.77,262.65 445.91,262.79 C446.05,262.93 446.23,263 446.43,263 C446.63,263 446.81,262.93 446.95,262.8 C447.09,262.66 447.17,262.49 447.17,262.28 C447.17,262.07 447.1,261.9 446.96,261.77 C446.82,261.63 446.64,261.57 446.43,261.57 Z M446.61,255.72 C445.87,255.72 445.29,255.93 444.87,256.36 C444.45,256.78 444.24,257.35 444.24,258.08 L444.24,258.08 L445.29,258.08 C445.29,257.64 445.38,257.3 445.56,257.06 C445.76,256.77 446.09,256.63 446.54,256.63 C446.9,256.63 447.19,256.73 447.39,256.93 C447.58,257.13 447.68,257.4 447.68,257.75 C447.68,258.01 447.58,258.25 447.4,258.48 L447.4,258.48 L447.23,258.67 C446.61,259.22 446.23,259.63 446.1,259.91 C445.96,260.17 445.9,260.49 445.9,260.86 L445.9,260.86 L445.9,261.03 L446.97,261.03 L446.97,260.86 C446.97,260.62 447.02,260.4 447.13,260.2 C447.22,260.02 447.36,259.84 447.55,259.68 C448.02,259.27 448.3,259.01 448.39,258.9 C448.64,258.58 448.77,258.17 448.77,257.68 C448.77,257.08 448.57,256.6 448.17,256.25 C447.77,255.89 447.25,255.72 446.61,255.72 Z" id="？备份-2"></path>
        </g>
    </g>
</svg>