<?xml version="1.0" encoding="UTF-8"?>
<svg width="320px" height="130px" viewBox="0 0 320 130" version="1.1" xmlns="http://www.w3.org/2000/svg" xmlns:xlink="http://www.w3.org/1999/xlink">
    <title>Web_SFW/缺省页/插画/空项目</title>
    <defs>
        <linearGradient x1="50%" y1="3.28731665%" x2="50%" y2="106.790336%" id="linearGradient-1">
            <stop stop-color="#B8BDC6" offset="0%"></stop>
            <stop stop-color="#BABFC8" stop-opacity="0.97" offset="11%"></stop>
            <stop stop-color="#BFC4CC" stop-opacity="0.88" offset="26%"></stop>
            <stop stop-color="#C8CCD3" stop-opacity="0.74" offset="42%"></stop>
            <stop stop-color="#D4D7DE" stop-opacity="0.55" offset="61%"></stop>
            <stop stop-color="#E3E5EB" stop-opacity="0.3" offset="80%"></stop>
            <stop stop-color="#F5F6FA" stop-opacity="0" offset="100%"></stop>
        </linearGradient>
    </defs>
    <g id="Web_SFW/缺省页/插画/空项目" stroke="none" stroke-width="1" fill="none" fill-rule="evenodd">
        <g id="浅色-无项目" transform="translate(61.000000, 7.000000)">
            <polyline id="路径" stroke="#B8BCC1" stroke-linejoin="round" points="131.470939 71.0612155 198.763757 71.0612155 198.763757 115.923094 126.343867 115.923094"></polyline>
            <path d="M122.255028,21.0754696 C124.498122,22.6776796 130.586519,57.6058564 158.548287,56.7598895 C194.117348,55.6864088 195.101105,63.3994475 190.880884,75.8838674" id="路径" stroke="#0077FF" stroke-width="0.75" stroke-dasharray="4"></path>
            <g id="编组" opacity="0.5" fill-rule="nonzero">
                <rect id="矩形" fill="url(#linearGradient-1)" opacity="0.17" x="0" y="0" width="89.0828729" height="74.278453"></rect>
                <rect id="矩形" fill="#FFFFFF" x="0" y="0" width="89.0828729" height="3.84530387"></rect>
                <rect id="矩形" fill="#E1E4EA" x="80.1104972" y="1.05745856" width="1.60220994" height="1.60220994"></rect>
                <rect id="矩形" fill="#E1E4EA" x="83.0489503" y="1.05745856" width="1.60220994" height="1.60220994"></rect>
                <rect id="矩形" fill="#E1E4EA" x="85.9841989" y="1.05745856" width="1.60220994" height="1.60220994"></rect>
            </g>
            <path d="M166.081878,99.1447514 L166.081878,20.5916022 L41.1095028,20.5916022 L41.1095028,99.1447514 L100.480994,99.1447514 L100.480994,112.975028 L81.2897238,112.975028 C80.4756377,112.975028 79.8156906,113.634975 79.8156906,114.449061 C79.8156906,115.263147 80.4756377,115.923094 81.2897238,115.923094 L126.228508,115.923094 C127.042594,115.923094 127.702541,115.263147 127.702541,114.449061 C127.702541,113.634975 127.042594,112.975028 126.228508,112.975028 L107.027624,112.975028 L107.027624,99.1447514 L166.081878,99.1447514 Z" id="路径" stroke="#B8BCC1" stroke-linejoin="round"></path>
            <rect id="矩形" stroke="#B8BCC1" fill="#FBFDFF" fill-rule="nonzero" x="41.1095028" y="20.5275138" width="124.972376" height="70.1767956"></rect>
            <line x1="46.8390055" y1="28.6026519" x2="161.557238" y2="28.6026519" id="路径" stroke="#B8BCC1" stroke-linecap="round" stroke-linejoin="round"></line>
            <rect id="矩形" fill="#B8BCC1" fill-rule="nonzero" x="156.180221" y="23.5749171" width="1.90342541" height="1.90342541"></rect>
            <rect id="矩形" fill="#B8BCC1" fill-rule="nonzero" x="152.700221" y="23.5749171" width="1.90342541" height="1.90342541"></rect>
            <rect id="矩形" fill="#B8BCC1" fill-rule="nonzero" x="159.669834" y="23.5749171" width="1.90342541" height="1.90342541"></rect>
            <path d="M183.453039,38.4338122 C185.439779,41.0454144 182.491713,43.9934807 179.88011,42.0067403 L179.88011,42.0067403 C177.89337,39.4143646 180.844641,36.4470718 183.453039,38.4338122 Z" id="路径" stroke="#B8BCC1" stroke-linejoin="round"></path>
            <path d="M113.263425,20.8575691 C106.175249,12.0678453 91.9283978,13.3752486 80.4533702,28.4872928 C41.1351381,80.2707182 17.6948066,39.2156906 39.8533702,34.6077348 C47.6465193,32.9830939 61.4062983,43.8620994 32.3838674,54.9429834 C2.51546961,66.3314917 18.0889503,85.9906077 34.7903867,80.0752486" id="路径" stroke="#0077FF" stroke-width="0.75" stroke-dasharray="4"></path>
            <circle id="椭圆形" stroke="#0077FF" stroke-width="0.75" cx="36.1362431" cy="79.1683978" r="2.24309392"></circle>
            <path d="M95.2198677,41.8827508 L121.361525,41.8827508 L121.361525,78.2240767 L95.2198677,78.2240767 L95.2198677,41.8827508 Z" id="矩形" stroke="#91969B" fill="#F0F6FF" fill-rule="nonzero" stroke-linecap="round" stroke-linejoin="round" stroke-dasharray="4" transform="translate(108.290696, 60.053414) rotate(8.450000) translate(-108.290696, -60.053414) "></path>
            <path d="M85.7052477,40.2851222 L111.846905,40.2851222 L111.846905,76.6264481 L85.7052477,76.6264481 L85.7052477,40.2851222 Z" id="矩形" stroke="#91969B" fill="#F0F6FF" fill-rule="nonzero" stroke-linecap="round" stroke-linejoin="round" stroke-dasharray="4" transform="translate(98.776076, 58.455785) rotate(-9.290000) translate(-98.776076, -58.455785) "></path>
            <path d="M90.7523757,44.118453 L116.894033,44.118453 L116.894033,78.4377901 L90.7523757,78.4377901 L90.7523757,44.118453 Z" id="矩形" stroke="#91969B" fill="#F0F6FF" fill-rule="nonzero" stroke-linecap="round" stroke-linejoin="round" stroke-dasharray="4"></path>
            <path d="M104.553812,50.725965 C102.32947,50.7246707 100.323431,52.0635843 99.4713135,54.1182362 C98.6191964,56.1728885 99.0888576,58.538539 100.661247,60.1118447 C102.233636,61.6851508 104.599012,62.1561909 106.654161,61.3052716 C108.709309,60.4543524 110.049392,58.4490937 110.049392,56.2247514 C110.049392,53.1891076 107.589456,50.727736 104.553812,50.725965 Z M108.434365,56.8688398 L105.197901,56.8688398 L105.197901,60.1020994 L103.916133,60.1020994 L103.916133,56.8688398 L100.67326,56.8688398 L100.67326,55.5870718 L103.906519,55.5870718 L103.906519,52.3441989 L105.188287,52.3441989 L105.188287,55.5774586 L108.424751,55.5774586 L108.434365,56.8688398 Z" id="形状" fill="#0077FF" fill-rule="nonzero"></path>
            <polygon id="路径" stroke="#91969B" fill="#E8EBF2" fill-rule="nonzero" points="83.8853039 79.7131492 122.979227 56.000442 122.979227 80.0335912"></polygon>
            <polygon id="路径" stroke="#91969B" fill="#E8EBF2" fill-rule="nonzero" points="122.979227 79.7131492 83.8853039 56.000442 83.8853039 80.0335912"></polygon>
        </g>
    </g>
</svg>