<?xml version="1.0" encoding="UTF-8"?>
<svg width="20px" height="20px" viewBox="0 0 20 20" version="1.1" xmlns="http://www.w3.org/2000/svg" xmlns:xlink="http://www.w3.org/1999/xlink">
    <!-- Generator: Sketch 63.1 (92452) - https://sketch.com -->
    <title>关于备份</title>
    <desc>Created with Sketch.</desc>
    <g id="页面-1" stroke="none" stroke-width="1" fill="none" fill-rule="evenodd">
        <g id="系统性能优化工具-任务列表备份" transform="translate(-1362.000000, -665.000000)" fill="#6C92FA" fill-rule="nonzero">
            <g id="关于备份" transform="translate(1362.000000, 665.000000)">
                <path d="M9.82836372,0.0187065972 C4.33782552,0.0921006944 -0.0546875,4.60347222 0.0187065972,10.0953993 C0.0921006944,15.5835503 4.60347222,19.9774957 10.0939887,19.9036458 C15.5845269,19.8302517 19.9770399,15.3188802 19.9036458,9.82695312 C19.8312066,4.33784722 15.3188802,-0.0546875 9.82836372,0.0187065972 L9.82836372,0.0187065972 Z M10.9306424,3.33261719 C11.941059,3.33261719 12.2393663,3.91831597 12.2393663,4.58925781 C12.2393663,5.42732205 11.5679687,6.20195312 10.423546,6.20195312 C9.46616753,6.20195312 9.01065538,5.71994358 9.03765191,4.92447917 C9.03812934,4.25355903 9.60015191,3.33261719 10.9306424,3.33261719 Z M8.33878038,16.1759115 C7.64796007,16.1759115 7.14229601,15.7564019 7.62523872,13.9126519 L8.41738281,10.644184 C8.5546875,10.1200304 8.57740885,9.91028646 8.41738281,9.91028646 C8.2109375,9.91028646 7.31369358,10.2725043 6.78339844,10.6290365 L6.43869358,10.0636936 C8.11955295,8.66076389 10.0518446,7.83736979 10.8799696,7.83736979 C11.5703125,7.83736979 11.6848958,8.65460069 11.340191,9.91124132 L10.4325087,13.3482639 C10.2724826,13.9557509 10.3416016,14.1654948 10.5016493,14.1654948 C10.7080946,14.1654948 11.3880208,13.9145399 12.0556207,13.3894531 L12.4457682,13.9136068 C10.812717,15.546658 9.03053385,16.1759115 8.33875868,16.1759115 L8.33875868,16.1759115 L8.33878038,16.1759115 Z" id="形状"></path>
            </g>
        </g>
    </g>
</svg>