<?xml version="1.0" encoding="UTF-8"?>
<svg width="19px" height="22px" viewBox="0 0 19 22" version="1.1" xmlns="http://www.w3.org/2000/svg" xmlns:xlink="http://www.w3.org/1999/xlink">
    <!-- Generator: Sketch 63.1 (92452) - https://sketch.com -->
    <title>证书 (5)备份</title>
    <desc>Created with Sketch.</desc>
    <g id="页面-1" stroke="none" stroke-width="1" fill="none" fill-rule="evenodd">
        <g id="系统性能优化工具-任务列表备份" transform="translate(-1297.000000, -576.000000)" fill="#9EA4B3" fill-rule="nonzero">
            <g id="证书-(5)备份" transform="translate(1297.000000, 576.000000)">
                <path d="M4.09799107,14.3982143 L6.87254464,14.3982143 C7.33415179,14.3982143 7.66071429,14.0863839 7.66071429,13.6493304 C7.66071429,13.2122768 7.32433036,12.9004464 6.87254464,12.9004464 L4.09799107,12.9004464 C3.87209821,12.9004464 3.67321429,12.9765625 3.5234375,13.1140625 C3.3859375,13.2515625 3.29754464,13.4381696 3.30982143,13.6517857 C3.31227679,14.0839286 3.63638393,14.3982143 4.09799107,14.3982143 L4.09799107,14.3982143 Z M4.09799107,5.83638393 L15.0955357,5.83638393 C15.5571429,5.83638393 15.8837054,5.52455357 15.8837054,5.0875 C15.8837054,4.65044643 15.5473214,4.33861607 15.0955357,4.33861607 L4.09799107,4.33861607 C3.63638393,4.33861607 3.30982143,4.65044643 3.30982143,5.0875 C3.31227679,5.52455357 3.63638393,5.83638393 4.09799107,5.83638393 Z M4.09799107,10.1234375 L7.9234375,10.1234375 C8.38504464,10.1234375 8.71160714,9.81160714 8.71160714,9.37455357 C8.71160714,8.9375 8.37522321,8.62566964 7.9234375,8.62566964 L4.09799107,8.62566964 C3.63638393,8.62566964 3.30982143,8.9375 3.30982143,9.37455357 C3.31227679,9.81160714 3.63638393,10.1234375 4.09799107,10.1234375 Z M16.0850446,13.234375 C16.0850446,11.2357143 14.4595982,9.62254464 12.4732143,9.62254464 C10.4868304,9.62254464 8.86138393,11.2479911 8.86138393,13.234375 C8.86138393,13.8727679 9.0234375,14.471875 9.31071429,14.9973214 L7.04933036,20.0209821 L9.41138393,19.7091518 L10.6488839,21.9337054 L12.546875,17.8970982 L14.6339286,21.9828125 L15.6087054,19.6084821 L17.9462054,19.7091518 L15.5473214,15.1225446 C15.8837054,14.5725446 16.0850446,13.921875 16.0850446,13.234375 L16.0850446,13.234375 Z M12.4609375,15.2723214 C11.3363839,15.2723214 10.4229911,14.3589286 10.4229911,13.234375 C10.4229911,12.1098214 11.3363839,11.1964286 12.4609375,11.1964286 C13.5854911,11.1964286 14.4988839,12.1098214 14.4988839,13.234375 C14.4964286,14.3589286 13.5854911,15.2723214 12.4609375,15.2723214 Z M10.5973214,19.1345982 L10.0964286,18.2212054 L9.15848214,18.3587054 L10.2462054,16.0850446 C10.6709821,16.4091518 11.1595982,16.6473214 11.7095982,16.7725446 L10.5973214,19.1345982 L10.5973214,19.1345982 Z M14.9457589,18.2334821 L14.5209821,19.1198661 L13.2982143,16.7455357 C13.8482143,16.6203125 14.3491071,16.3575893 14.7738839,16.0212054 L15.9229911,18.2948661 L14.9457589,18.2334821 L14.9457589,18.2334821 Z" id="形状"></path>
                <path d="M5.74799107,20.4948661 L2.24910714,20.4948661 C1.83660714,20.4948661 1.50022321,20.1584821 1.50022321,19.7459821 L1.50022321,2.24910714 C1.50022321,1.83660714 1.83660714,1.50022321 2.24910714,1.50022321 L16.3723214,1.50022321 C16.7848214,1.50022321 17.1212054,1.83660714 17.1212054,2.24910714 L17.1212054,14.2459821 C17.1212054,14.6584821 17.4575893,14.9948661 17.8700893,14.9948661 C18.2825893,14.9948661 18.6189732,14.6584821 18.6189732,14.2459821 L18.6189732,1.99866071 C18.6189732,0.898660714 17.7203125,0 16.6203125,0 L1.99866071,0 C0.898660714,0 0,0.898660714 0,1.99866071 L0,19.9939732 C0,21.0939732 0.898660714,21.9926339 1.99866071,21.9926339 L5.74799107,21.9926339 C6.16049107,21.9926339 6.496875,21.65625 6.496875,21.24375 C6.49933036,20.8337054 6.16049107,20.4948661 5.74799107,20.4948661 Z" id="路径"></path>
            </g>
        </g>
    </g>
</svg>