<?xml version="1.0" encoding="UTF-8"?>
<svg width="16px" height="16px" viewBox="0 0 16 16" version="1.1" xmlns="http://www.w3.org/2000/svg" xmlns:xlink="http://www.w3.org/1999/xlink">
    <!-- Generator: Sketch 56.2 (81672) - https://sketch.com -->
    <title>编组 15</title>
    <desc>Created with Sketch.</desc>
    <g id="tuning-kit" stroke="none" stroke-width="1" fill="none" fill-rule="evenodd">
        <g id="2.1锁与等待分析1-0Analysis-Task-没任务备份-9" transform="translate(-1707.000000, -221.000000)" fill="#6C7280" fill-rule="nonzero">
            <g id="编组-7" transform="translate(1220.000000, 64.000000)">
                <g id="4-project-c语言任务侧滑窗口">
                    <g id="编组-14" transform="translate(32.000000, 108.000000)">
                        <g id="编组-9" transform="translate(0.000000, 32.000000)">
                            <g id="编组-5" transform="translate(455.000000, 17.000000)">
                                <path d="M14.1637333,13.1968 C14.440023,13.1968 14.664,13.420777 14.664,13.6970667 C14.664,13.9733563 14.440023,14.1973333 14.1637333,14.1973333 L1.50026667,14.1973333 C1.22397702,14.1973333 1,13.9733563 1,13.6970667 C1,13.420777 1.22397702,13.1968 1.50026667,13.1968 L14.1637333,13.1968 L14.1637333,13.1968 Z M14.1637333,4.1248 L6.22666667,12.0618667 L3.128,12.3754667 L3.4416,9.28426667 L10.3408,2.38506667 L11.3786667,1.3472 C11.8416,0.884266667 12.6554667,0.884266667 13.1184,1.3472 L14.1562667,2.38506667 C14.3877333,2.61653333 14.5146667,2.93013333 14.5146667,3.25866667 C14.5221333,3.57973333 14.3952,3.89333333 14.1637333,4.1248 Z M4.248,11.2554667 L5.76373333,11.0986667 L12.0581333,4.80426667 L10.6917333,3.43786667 L4.39733333,9.73226667 L4.248,11.2554667 Z M12.2522667,1.98933333 C12.1925333,1.98933333 12.1328,2.01173333 12.088,2.05653333 L11.4085333,2.736 L12.7749333,4.1024 L13.4544,3.42293333 C13.544,3.33333333 13.544,3.184 13.4544,3.0944 L12.4165333,2.05653333 C12.3717333,2.01173333 12.312,1.98933333 12.2522667,1.98933333 Z" id="形状"></path>
                            </g>
                        </g>
                    </g>
                </g>
            </g>
        </g>
    </g>
</svg>