<?xml version="1.0" encoding="UTF-8"?>
<svg width="14px" height="12px" viewBox="0 0 14 12" version="1.1" xmlns="http://www.w3.org/2000/svg" xmlns:xlink="http://www.w3.org/1999/xlink">
    <title>4.组件/2.通用/icon/状态栏/菜单</title>
    <defs>
        <path d="M14.5,13 C14.7761424,13 15,13.2238576 15,13.5 C15,13.7454599 14.8231248,13.9496084 14.5898756,13.9919443 L14.5,14 L1.5,14 C1.22385763,14 1,13.7761424 1,13.5 C1,13.2545401 1.17687516,13.0503916 1.41012437,13.0080557 L1.5,13 L14.5,13 Z M14.5,7.5 C14.7761424,7.5 15,7.72385763 15,8 C15,8.24545989 14.8231248,8.44960837 14.5898756,8.49194433 L14.5,8.5 L1.5,8.5 C1.22385763,8.5 1,8.27614237 1,8 C1,7.75454011 1.17687516,7.55039163 1.41012437,7.50805567 L1.5,7.5 L14.5,7.5 Z M14.5,2 C14.7761424,2 15,2.22385763 15,2.5 C15,2.74545989 14.8231248,2.94960837 14.5898756,2.99194433 L14.5,3 L1.5,3 C1.22385763,3 1,2.77614237 1,2.5 C1,2.25454011 1.17687516,2.05039163 1.41012437,2.00805567 L1.5,2 L14.5,2 Z" id="path-1"></path>
    </defs>
    <g id="控件" stroke="none" stroke-width="1" fill="none" fill-rule="evenodd">
        <g id="Web_SFW/1.组件/导航/顶部导航/公共入口_浅色主题" transform="translate(-1873.000000, -24.000000)">
            <g id="4.组件/2.通用/icon/状态栏/菜单" transform="translate(1872.000000, 22.000000)">
                <mask id="mask-2" fill="white">
                    <use xlink:href="#path-1"></use>
                </mask>
                <use id="蒙版" fill="#979797" fill-rule="nonzero" xlink:href="#path-1"></use>
                <g id="编组" mask="url(#mask-2)" fill="#2072ea">
                    <g id="3.颜色/10.辅助说明文本">
                        <rect id="矩形备份-6" x="0" y="0" width="16" height="16"></rect>
                    </g>
                </g>
            </g>
        </g>
    </g>
</svg>