<?xml version="1.0" encoding="UTF-8"?>
<svg width="20px" height="20px" viewBox="0 0 20 20" version="1.1" xmlns="http://www.w3.org/2000/svg" xmlns:xlink="http://www.w3.org/1999/xlink">
    <!-- Generator: Sketch 63.1 (92452) - https://sketch.com -->
    <title>Group 2</title>
    <desc>Created with Sketch.</desc>
    <g id="页面-1" stroke="none" stroke-width="1" fill="none" fill-rule="evenodd">
        <g id="系统性能优化工具-任务列表备份" transform="translate(-1607.000000, -376.000000)" fill="#9EA4B3">
            <g id="Group-2" transform="translate(1607.000000, 376.000000)">
                <g id="Group">
                    <path d="M9.99932387,18.5578093 C8.16227181,18.5564571 6.37457742,17.9607843 4.90398918,16.8586883 L5.18187965,14.0074375 L3.56389452,12.2068966 L1.74171738,12.2068966 C1.54563895,11.4881677 1.44557133,10.7457742 1.44219067,10.0006761 C1.44219067,9.36849222 1.51588911,8.75388776 1.64638269,8.16024341 L4.26910074,7.84922245 L5.20351589,5.80054091 L6.92494929,4.45436105 L7.33130494,1.87491548 C9.03853955,1.30899256 10.8816768,1.29952671 12.5949966,1.84854632 L12.3049358,3.73089926 L9.45638945,6.07369844 L6.21906694,11.1771467 L10.617309,15.0020284 L13.7964841,12.9202164 L13.7964841,10.3394185 L16.2008114,9.94252874 L17.1805274,12.2062204 L18.4063556,11.5632184 C17.6693712,15.5368492 14.1832319,18.5578093 9.99932387,18.5578093 L9.99932387,18.5578093 Z M2.16970926,13.4408384 L2.99323867,13.4408384 L3.88235294,14.4252874 L3.74306964,15.8194726 C3.08992563,15.1196755 2.55848546,14.3157539 2.16970926,13.4408384 L2.16970926,13.4408384 Z M5.98106829,2.45098039 L5.77417174,3.775524 L4.18999324,5.02096011 L3.42663962,6.69506423 L2.04665314,6.8607167 C2.79648411,4.97227857 4.18999324,3.40973631 5.98106829,2.45098039 L5.98106829,2.45098039 Z M18.5564571,10.0006761 C18.5564571,10.0283976 18.5530764,10.0547667 18.5530764,10.0824882 L17.7964841,10.4753212 L16.9655172,8.56254226 L12.5442867,9.28803245 L12.5442867,12.2535497 L10.719405,13.4408384 L7.84787018,10.9391481 L10.4009466,6.89925625 L13.4658553,4.38742394 L13.7789047,2.33536173 C16.6051386,3.73292765 18.5564571,6.63962137 18.5564571,10.0006761 L18.5564571,10.0006761 Z M9.99932387,0.000676132522 C4.47734956,0.000676132522 0,4.47802569 0,10.0006761 C0,15.5233266 4.47734956,20 9.99932387,20 C15.5226504,20 19.9993239,15.5226504 19.9993239,9.99932387 C19.9986477,4.4759973 15.5212982,-0.000676132522 9.99864773,0 L9.99932387,0.000676132522 Z" id="Fill-1"></path>
                </g>
            </g>
        </g>
    </g>
</svg>