<?xml version="1.0" encoding="UTF-8"?>
<svg width="24px" height="24px" viewBox="0 0 24 24" version="1.1" xmlns="http://www.w3.org/2000/svg" xmlns:xlink="http://www.w3.org/1999/xlink">
    <!-- Generator: Sketch 63.1 (92452) - https://sketch.com -->
    <title>Group 3备份 2</title>
    <desc>Created with Sketch.</desc>
    <g id="页面-1" stroke="none" stroke-width="1" fill="none" fill-rule="evenodd">
        <g id="系统性能优化工具-任务列表备份" transform="translate(-1731.000000, -466.000000)">
            <g id="Group-3备份-2" transform="translate(1731.000000, 466.000000)">
                <g id="形状">
                    <path d="M12.0014749,0 C5.40317199,0 9.09494702e-13,5.40022132 9.09494702e-13,12.0014755 C9.09494702e-13,18.6027296 5.40022105,24 12.0014749,24 C18.6027287,24 24,18.5997787 24,11.9985245 C24.0029497,5.40022132 18.6027287,0 12.0014749,0 Z M12,3.78947368 C16.4210526,3.78947368 16.4210526,7.34666967 16.4210526,9.35805252 C16.4210526,11.3694354 14.6811545,15.0818213 12,15.1578947 C9.3901528,15.1578947 7.57894737,11.4455088 7.57894737,9.35805252 C7.57894737,7.34666967 7.57894737,3.78947368 12,3.78947368 Z M11.9162776,24 C8.44009762,24 5.26425487,22.3553869 3.15,19.7745147 C3.45331082,18.9922455 3.83096254,18.1299016 4.36026966,17.661772 C5.4932248,16.722433 8.89506385,15.1578947 8.89506385,15.1578947 L11.0122924,19.3833801 L11.3899441,18.3670461 L10.7833224,17.1135676 L11.9935921,15.8600891 L13.2038617,17.1135676 L12.671581,18.4440411 L12.9748918,19.4634549 L15.1664612,15.3149645 C15.1664612,15.3149645 18.5683002,16.8795028 19.7012554,17.8188418 C20.2305625,18.2099764 20.6082142,18.9152505 20.8342105,19.5404499 C18.7942965,22.2783919 15.5441129,24 11.9162776,24 L11.9162776,24 Z" fill="#6C92FA" fill-rule="nonzero"></path>
                    <circle id="椭圆形" stroke="#6C92FA" cx="12" cy="12" r="11.5"></circle>
                </g>
            </g>
        </g>
    </g>
</svg>