<?xml version="1.0" encoding="UTF-8"?>
<svg width="16px" height="16px" viewBox="0 0 16 16" version="1.1" xmlns="http://www.w3.org/2000/svg" xmlns:xlink="http://www.w3.org/1999/xlink">
    <title>新建任务-浅色</title>
    <g id="新建任务-浅色" stroke="none" stroke-width="1" fill="none" fill-rule="evenodd">
        <path d="M11.5,8 C11.7761424,8 12,8.22385763 12,8.5 L12,11 L14.5,11 C14.7761424,11 15,11.2238576 15,11.5 C15,11.7761424 14.7761424,12 14.5,12 L11.999,12 L12,14.5 C12,14.7761424 11.7761424,15 11.5,15 C11.2238576,15 11,14.7761424 11,14.5 L10.999,12 L8.5,12 C8.22385763,12 8,11.7761424 8,11.5 C8,11.2238576 8.22385763,11 8.5,11 L11,11 L11,8.5 C11,8.22385763 11.2238576,8 11.5,8 Z M9.5,1 C9.58113883,1 9.66063612,1.01973753 9.73182606,1.05699064 L9.8,1.1 L13.8,4.1 C13.9007223,4.17554175 13.9682889,4.28549436 13.9912867,4.40703161 L14,4.5 L14,6.5 C14,6.77614237 13.7761424,7 13.5,7 C13.2545401,7 13.0503916,6.82312484 13.0080557,6.58987563 L13,6.5 L13,5 L10,5 C9.22030388,5 8.57955132,4.40511192 8.50686658,3.64446001 L8.5,3.5 L8.5,2 L3.5,2 C3.25454011,2 3.05039163,2.17687516 3.00805567,2.41012437 L3,2.5 L3,13.5 C3,13.7454599 3.17687516,13.9496084 3.41012437,13.9919443 L3.5,14 L7.5,14 C7.77614237,14 8,14.2238576 8,14.5 C8,14.7454599 7.82312484,14.9496084 7.58987563,14.9919443 L7.5,15 L3.5,15 C2.72030388,15 2.07955132,14.4051119 2.00686658,13.64446 L2,13.5 L2,2.5 C2,1.72030388 2.59488808,1.07955132 3.35553999,1.00686658 L3.5,1 L9.5,1 Z M12.001,4 L9.5,2.125 L9.5,3.5 C9.5,3.74545989 9.67687516,3.94960837 9.91012437,3.99194433 L10,4 L12.001,4 Z" id="形状结合" fill="#979797"></path>
    </g>
</svg>