<?xml version="1.0" encoding="UTF-8"?>
<svg width="16px" height="16px" viewBox="0 0 16 16" version="1.1" xmlns="http://www.w3.org/2000/svg" xmlns:xlink="http://www.w3.org/1999/xlink">
    <title>下载csv-浅色</title>
    <g id="下载csv-浅色" stroke="none" stroke-width="1" fill="none" fill-rule="evenodd">
        <path d="M13.0755864,8 C13.4202143,8 13.748914,8.04312276 14.0616855,8.12936828 C14.374457,8.2156138 14.6582682,8.33400538 14.913119,8.48454301 L14.913119,8.48454301 L14.6307559,9.37365591 C14.1123661,9.08198925 13.6113524,8.93615591 13.127715,8.93615591 C12.6991022,8.93615591 12.3349262,9.04121864 12.0351868,9.25134409 C11.7354474,9.46146953 11.5081089,9.7609767 11.3531712,10.1498656 C11.1982334,10.5387545 11.1207646,10.9966398 11.1207646,11.5235215 C11.1207646,12.0253136 11.1946134,12.4659498 11.342311,12.8454301 C11.4900087,13.2249104 11.7195193,13.5228495 12.0308427,13.7392473 C12.3421662,13.9556452 12.7353026,14.0638441 13.210252,14.0638441 C13.7054735,14.0638441 14.2195193,13.9321237 14.7523892,13.6686828 L14.7523892,13.6686828 L15,14.5436828 C14.733565,14.687948 14.4475818,14.8000672 14.1420504,14.8800403 C13.836519,14.9600134 13.4911671,15 13.1059948,15 C12.4543875,15 11.8961772,14.8659274 11.431364,14.5977823 C10.9665508,14.3296371 10.6117869,13.9399642 10.3670721,13.4287634 C10.1223574,12.9175627 10,12.3044355 10,11.5893817 C10,10.8555108 10.1274254,10.218078 10.3822763,9.67708333 C10.6371271,9.13608871 10.9962352,8.72132616 11.4596003,8.4327957 C11.9229655,8.14426523 12.4616276,8 13.0755864,8 Z M9.5,1 C9.58113883,1 9.66063612,1.01973753 9.73182606,1.05699064 L9.8,1.1 L13.8,4.1 C13.9007223,4.17554175 13.9682889,4.28549436 13.9912867,4.40703161 L14,4.5 L14,6.5 C14,6.77614237 13.7761424,7 13.5,7 C13.2545401,7 13.0503916,6.82312484 13.0080557,6.58987563 L13,6.5 L13,5 L10,5 C9.22030388,5 8.57955132,4.40511192 8.50686658,3.64446001 L8.5,3.5 L8.5,2 L2.5,2 C2.25454011,2 2.05039163,2.17687516 2.00805567,2.41012437 L2,2.5 L2,13.5 C2,13.7454599 2.17687516,13.9496084 2.41012437,13.9919443 L2.5,14 L5.5,14 C5.77614237,14 6,14.2238576 6,14.5 C6,14.7454599 5.82312484,14.9496084 5.58987563,14.9919443 L5.5,15 L2.5,15 C1.72030388,15 1.07955132,14.4051119 1.00686658,13.64446 L1,13.5 L1,2.5 C1,1.72030388 1.59488808,1.07955132 2.35553999,1.00686658 L2.5,1 L9.5,1 Z M7.5,11 C7.77614237,11 8,11.2238576 8,11.5 C8,11.7761424 7.77614237,12 7.5,12 L3.5,12 C3.22385763,12 3,11.7761424 3,11.5 C3,11.2238576 3.22385763,11 3.5,11 L7.5,11 Z M7.5,8 C7.77614237,8 8,8.22385763 8,8.5 C8,8.77614237 7.77614237,9 7.5,9 L3.5,9 C3.22385763,9 3,8.77614237 3,8.5 C3,8.22385763 3.22385763,8 3.5,8 L7.5,8 Z M7.5,5 C7.77614237,5 8,5.22385763 8,5.5 C8,5.77614237 7.77614237,6 7.5,6 L3.5,6 C3.22385763,6 3,5.77614237 3,5.5 C3,5.22385763 3.22385763,5 3.5,5 L7.5,5 Z M9.5,2.125 L9.5,3.5 C9.5,3.74545989 9.67687516,3.94960837 9.91012437,3.99194433 L10,4 L12,4 L9.5,2.125 Z" id="形状结合" fill="#979797"></path>
    </g>
</svg>