<?xml version="1.0" encoding="UTF-8"?>
<svg width="14px" height="14px" viewBox="0 0 14 14" version="1.1" xmlns="http://www.w3.org/2000/svg" xmlns:xlink="http://www.w3.org/1999/xlink">
    <title>4.组件/2.通用/icon/tuning/下载csv</title>
    <g id="VS-Code补全web需求-0130" stroke="none" stroke-width="1" fill="none" fill-rule="evenodd">
        <g id="代码迁移工具-软件包重构-失败报告" transform="translate(-261.000000, -191.000000)" fill="#6C7280" fill-rule="nonzero">
            <g id="1.框架/3.内部框架/4.sidebar/2.实例" transform="translate(48.000000, 30.000000)">
                <g id="无代码，创建" transform="translate(19.500000, 147.000000)">
                    <g id="编组-5" transform="translate(5.000000, 13.000000)">
                        <g id="形状结合" transform="translate(187.500000, 0.000000)">
                            <path d="M11.25,8 L11.25,10.8763812 L13.755,10.8763812 L13.755,8 L15,8 L15,15 L13.755,15 L13.755,11.8529006 L11.25,11.8529006 L11.25,15 L10,15 L10,8 L11.25,8 Z M9.5,1 C9.58113883,1 9.66063612,1.01973753 9.73182606,1.05699064 L9.8,1.1 L13.8,4.1 C13.9007223,4.17554175 13.9682889,4.28549436 13.9912867,4.40703161 L14,4.5 L14,6.5 C14,6.77614237 13.7761424,7 13.5,7 C13.2545401,7 13.0503916,6.82312484 13.0080557,6.58987563 L13,6.5 L13,5 L10,5 C9.22030388,5 8.57955132,4.40511192 8.50686658,3.64446001 L8.5,3.5 L8.5,2 L2.5,2 C2.25454011,2 2.05039163,2.17687516 2.00805567,2.41012437 L2,2.5 L2,13.5 C2,13.7454599 2.17687516,13.9496084 2.41012437,13.9919443 L2.5,14 L5.5,14 C5.77614237,14 6,14.2238576 6,14.5 C6,14.7454599 5.82312484,14.9496084 5.58987563,14.9919443 L5.5,15 L2.5,15 C1.72030388,15 1.07955132,14.4051119 1.00686658,13.64446 L1,13.5 L1,2.5 C1,1.72030388 1.59488808,1.07955132 2.35553999,1.00686658 L2.5,1 L9.5,1 Z M7.5,11 C7.77614237,11 8,11.2238576 8,11.5 C8,11.7761424 7.77614237,12 7.5,12 L3.5,12 C3.22385763,12 3,11.7761424 3,11.5 C3,11.2238576 3.22385763,11 3.5,11 L7.5,11 Z M7.5,8 C7.77614237,8 8,8.22385763 8,8.5 C8,8.77614237 7.77614237,9 7.5,9 L3.5,9 C3.22385763,9 3,8.77614237 3,8.5 C3,8.22385763 3.22385763,8 3.5,8 L7.5,8 Z M7.5,5 C7.77614237,5 8,5.22385763 8,5.5 C8,5.77614237 7.77614237,6 7.5,6 L3.5,6 C3.22385763,6 3,5.77614237 3,5.5 C3,5.22385763 3.22385763,5 3.5,5 L7.5,5 Z M9.5,2.125 L9.5,3.5 C9.5,3.74545989 9.67687516,3.94960837 9.91012437,3.99194433 L10,4 L12,4 L9.5,2.125 Z"></path>
                        </g>
                    </g>
                </g>
            </g>
        </g>
    </g>
</svg>