<?xml version="1.0" encoding="UTF-8"?>
<svg width="16px" height="16px" viewBox="0 0 16 16" version="1.1" xmlns="http://www.w3.org/2000/svg" xmlns:xlink="http://www.w3.org/1999/xlink">
    <title>下载重构包-浅色</title>
    <g id="下载重构包-浅色" stroke="none" stroke-width="1" fill="none" fill-rule="evenodd">
        <path d="M6,3 L5,3 L5,2 L2.5,2 C2.25454011,2 2.05039163,2.17687516 2.00805567,2.41012437 L2,2.5 L2,13.5 C2,13.7454599 2.17687516,13.9496084 2.41012437,13.9919443 L2.5,14 L5,14 L5,10 L6,10 L6,9 L7,9 L7,14.6 C7,14.8209139 6.8209139,15 6.6,15 L2.5,15 C1.72030388,15 1.07955132,14.4051119 1.00686658,13.64446 L1,13.5 L1,2.5 C1,1.72030388 1.59488808,1.07955132 2.35553999,1.00686658 L2.5,1 L9.5,1 C9.58113883,1 9.66063612,1.01973753 9.73182606,1.05699064 L9.8,1.1 L13.8,4.1 C13.9007223,4.17554175 13.9682889,4.28549436 13.9912867,4.40703161 L14,4.5 L14,6.5 C14,6.77614237 13.7761424,7 13.5,7 C13.2545401,7 13.0503916,6.82312484 13.0080557,6.58987563 L13,6.5 L13,5 L10,5 C9.22030388,5 8.57955132,4.40511192 8.50686658,3.64446001 L8.5,3.5 L8.5,2 L6,2 L6,3 Z M12.2070312,7.9296875 L12.4496648,7.93505257 C13.0782014,7.96366625 13.5588469,8.10673466 13.8916016,8.36425781 C14.2659505,8.65397135 14.453125,9.05110677 14.453125,9.55566406 C14.453125,9.97558594 14.3334961,10.3263346 14.0942383,10.6079102 C13.8549805,10.8894857 13.5416667,11.0872396 13.1542969,11.2011719 C13.4765625,11.25 13.7638346,11.3517253 14.0161133,11.5063477 C14.2683919,11.6609701 14.4669596,11.8644206 14.6118164,12.1166992 C14.7566732,12.3689779 14.8291016,12.664388 14.8291016,13.0029297 C14.8291016,13.3968099 14.7306315,13.7443034 14.5336914,14.0454102 C14.3367513,14.3465169 14.0486654,14.5808919 13.6694336,14.7485352 C13.2902018,14.9161784 12.8352865,15 12.3046875,15 L12.3046875,15 L10,15 L10,7.9296875 L12.2070312,7.9296875 Z M12.0117188,11.7236328 L11.1914062,11.7236328 L11.1914062,14.0966797 L12.109375,14.0966797 C12.6139323,14.0966797 12.9907227,13.9949544 13.2397461,13.7915039 C13.4887695,13.5880534 13.6132812,13.3007812 13.6132812,12.9296875 C13.6132812,12.5358073 13.4757487,12.2363281 13.2006836,12.03125 C12.9256185,11.8261719 12.5292969,11.7236328 12.0117188,11.7236328 L12.0117188,11.7236328 Z M12.0019531,8.83300781 L11.1914062,8.83300781 L11.1914062,10.8203125 L11.953125,10.8203125 C12.2070312,10.8203125 12.4308268,10.7698568 12.6245117,10.6689453 C12.8181966,10.5680339 12.9671224,10.4321289 13.0712891,10.2612305 C13.1754557,10.090332 13.2275391,9.90234375 13.2275391,9.69726562 C13.2275391,9.40755208 13.1225586,9.19108073 12.9125977,9.04785156 C12.7026367,8.9046224 12.3990885,8.83300781 12.0019531,8.83300781 L12.0019531,8.83300781 Z M6,8 L6,9 L5,9 L5,8 L6,8 Z M7,7 L7,8 L6,8 L6,7 L7,7 Z M6,6 L6,7 L5,7 L5,6 L6,6 Z M7,5 L7,6 L6,6 L6,5 L7,5 Z M6,4 L6,5 L5,5 L5,4 L6,4 Z M9.5,2.125 L9.5,3.5 C9.5,3.74545989 9.67687516,3.94960837 9.91012437,3.99194433 L10,4 L12,4 L9.5,2.125 Z M7,3 L7,4 L6,4 L6,3 L7,3 Z" id="形状结合" fill="#979797"></path>
    </g>
</svg>