<?xml version="1.0" encoding="UTF-8"?>
<svg width="17px" height="16px" viewBox="0 0 17 16" version="1.1" xmlns="http://www.w3.org/2000/svg" xmlns:xlink="http://www.w3.org/1999/xlink">
    <title>txt</title>
    <defs>
        <path d="M7.28571429,3 L8.71428571,4.25 L12.2857143,4.25 C12.6802034,4.25 13,4.52982203 13,4.875 L13,12.375 C13,12.720178 12.6802034,13 12.2857143,13 L3.71428571,13 C3.31979661,13 3,12.720178 3,12.375 L3,3.625 C3,3.27982203 3.31979661,3 3.71428571,3 L7.28571429,3 Z M8.20920944,4.69194174 L6.98928571,3.625 L3.71428571,3.625 L3.71428571,12.375 L12.2857143,12.375 L12.2857143,4.875 L8.71428571,4.875 C8.55641876,4.875 8.40393998,4.8292722 8.27997892,4.74619961 L8.20920944,4.69194174 Z M8.3125,6.75 C8.48508898,6.75 8.625,6.97385763 8.625,7.25 C8.625,7.52614237 8.48508898,7.75 8.3125,7.75 L5.1875,7.75 C5.01491102,7.75 4.875,7.52614237 4.875,7.25 C4.875,6.97385763 5.01491102,6.75 5.1875,6.75 L8.3125,6.75 Z M10.8125,9.25 C10.985089,9.25 11.125,9.47385763 11.125,9.75 C11.125,10.0261424 10.985089,10.25 10.8125,10.25 L5.1875,10.25 C5.01491102,10.25 4.875,10.0261424 4.875,9.75 C4.875,9.47385763 5.01491102,9.25 5.1875,9.25 L10.8125,9.25 Z" id="path-1"></path>
    </defs>
    <g id="dep-port合入" stroke="none" stroke-width="1" fill="none" fill-rule="evenodd">
        <g id="代码迁移工具-软件包重构-已上传5" transform="translate(-72.000000, -215.000000)">
            <g id="1.框架/3.内部框架/4.sidebar/2.实例" transform="translate(48.000000, 30.000000)">
                <g id="无代码，创建" transform="translate(19.500000, 147.000000)">
                    <g id="txt" transform="translate(5.000000, 38.000000)">
                        <rect id="矩形" x="0" y="0" width="16" height="16"></rect>
                        <mask id="mask-2" fill="white">
                            <use xlink:href="#path-1"></use>
                        </mask>
                        <use id="蒙版" fill="#ED4B4B" fill-rule="nonzero" xlink:href="#path-1"></use>
                    </g>
                </g>
            </g>
        </g>
    </g>
</svg>