<?xml version="1.0" encoding="UTF-8"?>
<svg width="40px" height="40px" viewBox="0 0 40 40" version="1.1" xmlns="http://www.w3.org/2000/svg" xmlns:xlink="http://www.w3.org/1999/xlink">
    <title>0增强功能/内存一致性/hover</title>
    <defs>
        <path d="M29.3727679,11.7924107 L10.3995536,11.7924107 L10.3995536,19.3816964 L29.3727679,19.3816964 L29.3727679,11.7924107 Z M27.4754464,17.484375 L12.296875,17.484375 L12.296875,13.6897321 L27.4754464,13.6897321 L27.4754464,17.484375 Z M36.7723214,11.1283482 C36.8482143,11.1283482 36.9241071,11.1321429 37,11.1435268 L37,5 L3,5 L3,11.1397321 C3.07589286,11.1321429 3.15178571,11.1245536 3.22767857,11.1245536 C4.275,11.1245536 5.125,11.9745536 5.125,13.021875 C5.125,14.0691964 4.275,14.9191964 3.22767857,14.9191964 C3.15178571,14.9191964 3.07589286,14.9154018 3,14.9040179 L3,35.8392857 L12.296875,35.8392857 L12.296875,27.5895089 L14.1941964,27.5895089 L14.1941964,35.8392857 L37,35.8392857 L37,14.9078125 C36.9241071,14.9154018 36.8482143,14.9229911 36.7723214,14.9229911 C35.725,14.9229911 34.875,14.0729911 34.875,13.0256696 C34.875,11.9783482 35.725,11.1283482 36.7723214,11.1283482 Z M35.1026786,9.61808036 C33.8466518,10.2366071 32.9776786,11.5305804 32.9776786,13.0256696 C32.9776786,14.5207589 33.8466518,15.8147321 35.1026786,16.4332589 L35.1026786,33.9419643 L28.8415179,33.9419643 L28.8415179,25.6921875 L26.9441964,25.6921875 L26.9441964,33.9419643 L24.5915179,33.9419643 L24.5915179,25.6921875 L22.6941964,25.6921875 L22.6941964,33.9419643 L20.3415179,33.9419643 L20.3415179,25.6921875 L18.4441964,25.6921875 L18.4441964,33.9419643 L16.0915179,33.9419643 L16.0915179,25.6921875 L10.3995536,25.6921875 L10.3995536,33.9419643 L4.89732143,33.9419643 L4.89732143,16.4332589 C6.15334821,15.8147321 7.02232143,14.5207589 7.02232143,13.0256696 C7.02232143,11.5305804 6.15334821,10.2366071 4.89732143,9.61808036 L4.89732143,6.89732143 L35.1026786,6.89732143 L35.1026786,9.61808036 Z" id="path-1"></path>
    </defs>
    <g id="0增强功能/内存一致性/hover" stroke="none" stroke-width="1" fill="none" fill-rule="evenodd">
        <mask id="mask-2" fill="white">
            <use xlink:href="#path-1"></use>
        </mask>
        <use id="形状" fill="#0067FF" fill-rule="nonzero" xlink:href="#path-1"></use>
    </g>
</svg>