<?xml version="1.0" encoding="UTF-8"?>
<svg width="68px" height="68px" viewBox="0 0 68 68" version="1.1" xmlns="http://www.w3.org/2000/svg" xmlns:xlink="http://www.w3.org/1999/xlink">
    <g stroke="none" fill="none">
        <circle cx="34" cy="34" r="34" stroke="none" fill="#ffffff"/>
    </g>
    <g id="Web_SFW/icon/48/PCIE拓扑图/NUMA" stroke="none" stroke-width="1" fill="none" fill-rule="evenodd" transform="translate(18, 18)">
        <rect id="矩形" fill="#2957ED" x="0" y="0" width="32" height="32" rx="16"></rect>
        <rect id="BOX" opacity="0.200381324" x="6" y="6" width="20" height="20"></rect>
        <path d="M23.5,13.5 L23.5,9.5 C23.5,8.94771525 23.0522847,8.5 22.5,8.5 L8.5,8.5 C7.94771525,8.5 7.5,8.94771525 7.5,9.5 L7.5,23.5 C7.5,24.0522847 7.94771525,24.5 8.5,24.5 L22.5,24.5 C23.0522847,24.5 23.5,24.0522847 23.5,23.5 L23.5,18.5 L23.5,18.5" id="路径" stroke="#FFFFFF" stroke-linecap="round" stroke-linejoin="round"></path>
        <path d="M18.5036279,13.0106797 C18.6409876,13.0116764 18.7650806,13.0679914 18.8548337,13.1583981 C18.9445868,13.2488048 19,13.3733032 19,13.5106665 L19,13.5106665 L19.0000128,19.4489849 C18.9989907,19.5916843 18.943029,19.7179518 18.8509788,19.8086758 C18.7598425,19.8984991 18.6344397,19.953555 18.4963721,19.9525532 L18.4963721,19.9525532 L12.4963721,19.9090176 C12.3590124,19.9080209 12.2349194,19.8517059 12.1451663,19.7612992 C12.0554132,19.6708925 12,19.5463941 12,19.409033 L12,19.409033 L12.0000132,13.463503 C12.001015,13.3254355 12.0578849,13.2008448 12.1490212,13.1110215 L12.1490212,13.1110215 Z" id="路径-61" stroke="#FFFFFF"></path>
    </g>
</svg>