<?xml version="1.0" encoding="UTF-8"?>
<svg width="16px" height="17px" viewBox="0 0 16 17" version="1.1" xmlns="http://www.w3.org/2000/svg" xmlns:xlink="http://www.w3.org/1999/xlink">
    <title>设置</title>
    <defs>
        <path d="M12.4069628,9.87064473 C12.6726045,9.24483212 13.2906145,8.88134991 13.9309164,8.90366286 C14.0185459,8.33196128 14.0218436,7.75970018 13.9463085,7.20048955 C13.3045885,7.21140231 12.6940712,6.83667522 12.440259,6.20601892 C12.1859398,5.57655692 12.3653089,4.88170555 12.8339973,4.44497367 C12.4986781,3.98973315 12.0987799,3.58037378 11.6386073,3.2299986 C11.1923182,3.69033331 10.495263,3.85817193 9.87064473,3.59303719 C9.24483212,3.3273955 8.88134991,2.70938547 8.90366286,2.06908358 C8.33196128,1.98145414 7.75970018,1.97815638 7.20048955,2.05369151 C7.21140231,2.6954115 6.83667522,3.3059288 6.20721322,3.56024796 C5.57775121,3.81456712 4.88289985,3.63519809 4.44566102,3.16770396 C3.98973315,3.50132193 3.58037378,3.9012201 3.2299986,4.36139274 C3.69033331,4.80768179 3.85817193,5.50473697 3.59303719,6.12935527 C3.3273955,6.75516788 2.70938547,7.11865009 2.06908358,7.09633714 C1.98145414,7.66803872 1.97815638,8.24029982 2.05369151,8.79951045 C2.6954115,8.78859769 3.3059288,9.16332478 3.55974101,9.79398108 C3.81406017,10.4234431 3.63469114,11.1182944 3.16600271,11.5550263 C3.50132193,12.0102668 3.9012201,12.4196262 4.36139274,12.7700014 C4.80768179,12.3096667 5.50473697,12.1418281 6.12935527,12.4069628 C6.75516788,12.6726045 7.11865009,13.2906145 7.09633714,13.9309164 C7.38044323,13.9744637 7.66468751,13.9971847 7.94739967,13.9997541 C8.23358411,14.0023551 8.51819856,13.9843066 8.79951045,13.9463085 C8.78859769,13.3045885 9.16332478,12.6940712 9.79278678,12.439752 C10.4222488,12.1854329 11.1171001,12.3648019 11.554339,12.832296 C12.0102668,12.4986781 12.4196262,12.0987799 12.7700014,11.6386073 C12.3091597,11.1935125 12.1413211,10.4964573 12.4069628,9.87064473 Z M7.97800565,10.5972074 C6.64104578,10.5972074 5.55611958,9.51228119 5.55611958,8.17532132 C5.55611958,6.83836145 6.64104578,5.75343526 7.97800565,5.75343526 C9.31496552,5.75343526 10.3998917,6.83836145 10.3998917,8.17532132 C10.3998917,9.51228119 9.31496552,10.5972074 7.97800565,10.5972074 Z" id="path-1"></path>
    </defs>
    <g id="port-intelij-630" stroke="none" stroke-width="1" fill="none" fill-rule="evenodd">
        <g id="10源码迁移4" transform="translate(-1198.000000, -700.000000)">
            <g id="5.反馈/1.弹窗/2.二级弹窗/展开" transform="translate(833.000000, 288.000000)">
                <g id="顶部" transform="translate(0.000000, 1.000000)">
                    <g id="编组-2" transform="translate(18.000000, 39.000000)">
                        <g id="3" transform="translate(0.000000, 371.000000)">
                            <g id="设置" transform="translate(347.000000, 1.111111)">
                                <rect id="矩形" fill="#EBEBEB" x="0" y="0" width="16" height="16"></rect>
                                <mask id="mask-2" fill="white">
                                    <use xlink:href="#path-1"></use>
                                </mask>
                                <use id="蒙版" fill="#7E7E7E" xlink:href="#path-1"></use>
                            </g>
                        </g>
                    </g>
                </g>
            </g>
        </g>
    </g>
</svg>