<?xml version="1.0" encoding="UTF-8"?>
<svg width="22px" height="19px" viewBox="0 0 22 19" version="1.1" xmlns="http://www.w3.org/2000/svg" xmlns:xlink="http://www.w3.org/1999/xlink">
    <!-- Generator: Sketch 63.1 (92452) - https://sketch.com -->
    <title>编组备份</title>
    <desc>Created with Sketch.</desc>
    <defs>
        <polygon id="path-1" points="0.0514871795 0.320102564 5.03969231 0.320102564 5.03969231 1.53846154 0.0514871795 1.53846154"></polygon>
    </defs>
    <g id="页面-1" stroke="none" stroke-width="1" fill="none" fill-rule="evenodd">
        <g id="系统性能优化工具-任务列表备份" transform="translate(-1510.000000, -468.000000)">
            <g id="编组备份" transform="translate(1511.000000, 469.000000)">
                <path d="M6.02902564,13.7709744 L1.77261538,13.7709744 C0.864410256,13.7709744 0.128512821,13.0345641 0.128512821,12.126359 L0.128512821,1.77302564 C0.128512821,0.864820513 0.864410256,0.127897436 1.77261538,0.127897436 L17.5064615,0.127897436 C18.4146667,0.127897436 19.1510769,0.864820513 19.1510769,1.77302564 L19.1510769,5.41353846" id="Stroke-1" stroke="#6C92FA" stroke-width="1.5"></path>
                <g id="编组" transform="translate(3.589744, 15.989179)">
                    <mask id="mask-2" fill="white">
                        <use xlink:href="#path-1"></use>
                    </mask>
                    <g id="Clip-4"></g>
                    <path d="M4.43046154,1.5385641 L0.661230769,1.5385641 C0.324820513,1.5385641 0.0514871795,1.26574359 0.0514871795,0.929333333 C0.0514871795,0.592410256 0.324820513,0.320102564 0.661230769,0.320102564 L4.43046154,0.320102564 C4.76687179,0.320102564 5.03969231,0.592410256 5.03969231,0.929333333 C5.03969231,1.26574359 4.76687179,1.5385641 4.43046154,1.5385641" id="Fill-3" fill="#6C92FA" mask="url(#mask-2)"></path>
                </g>
                <path d="M16.0901026,11.2692308 C16.0901026,12.4753846 15.1126667,13.4528205 13.9065128,13.4528205 C12.7008718,13.4528205 11.7229231,12.4753846 11.7229231,11.2692308 C11.7229231,10.0630769 12.7008718,9.08564103 13.9065128,9.08564103 C15.1126667,9.08564103 16.0901026,10.0630769 16.0901026,11.2692308 Z" id="Stroke-5" stroke="#6C92FA"></path>
                <path d="M14.5922051,5.21979487 L12.9824615,5.21979487 L12.4116923,6.53774359 C12.3737436,6.62441026 12.304,6.69364103 12.2163077,6.72953846 L12.0491282,6.79876923 C12.0045128,6.81723077 11.9573333,6.82646154 11.9101538,6.82646154 C11.8645128,6.82646154 11.8188718,6.81825641 11.7763077,6.80082051 L10.6645128,6.36287179 C10.6209231,6.3454359 10.5763077,6.33723077 10.5311795,6.33723077 C10.4363077,6.33723077 10.3429744,6.37415385 10.2732308,6.44389744 L9.13374359,7.5854359 L9.65938462,8.91979487 C9.69374359,9.00748718 9.69323077,9.1054359 9.65682051,9.19261538 L9.58758974,9.36030769 C9.55117949,9.44748718 9.48246154,9.51723077 9.39579487,9.55517949 L8.07528205,10.1300513 L8.07528205,11.9787692 L9.39220513,12.5505641 C9.47938462,12.5885128 9.54810256,12.6582564 9.584,12.7454359 L9.65323077,12.913641 C9.68912821,13.0003077 9.69015385,13.0982564 9.65528205,13.1859487 L9.12964103,14.5208205 L10.2691282,15.6608205 C10.3393846,15.7305641 10.4327179,15.7674872 10.5275897,15.7674872 C10.5722051,15.7674872 10.6178462,15.7597949 10.6604103,15.7428718 L11.7737436,15.3033846 C11.8163077,15.2864615 11.8619487,15.2777436 11.9075897,15.2777436 C11.9547692,15.2777436 12.0014359,15.2869744 12.0455385,15.3054359 L12.2234872,15.3782564 C12.3122051,15.4146667 12.3829744,15.4844103 12.4209231,15.5721026 L12.9798974,16.8828718 L14.8363077,16.8828718 L15.3952821,15.5695385 C15.4327179,15.4818462 15.5029744,15.4121026 15.5916923,15.3756923 L15.7814359,15.2972308 C15.8260513,15.2792821 15.8737436,15.2695385 15.9204103,15.2695385 C15.9670769,15.2695385 16.0132308,15.2782564 16.0568205,15.2962051 L17.1537436,15.7392821 C17.1978462,15.7572308 17.2445128,15.7659487 17.2906667,15.7659487 C17.3855385,15.7659487 17.4788718,15.7290256 17.5481026,15.6592821 L18.6891282,14.5146667 L18.1557949,13.1931282 C18.1198974,13.1054359 18.1198974,13.0064615 18.1568205,12.9182564 L18.2347692,12.7285128 C18.2716923,12.6397949 18.3419487,12.5690256 18.4301538,12.5315897 L19.7378462,11.9813333 L19.7378462,10.1238974 L18.4265641,9.568 C18.338359,9.5305641 18.2686154,9.46030769 18.2322051,9.37158974 L18.1532308,9.18133333 C18.1173333,9.09312821 18.1168205,8.99415385 18.1522051,8.9054359 L18.6865641,7.58389744 L17.5455385,6.43979487 C17.4763077,6.37005128 17.3824615,6.33261538 17.2875897,6.33261538 C17.2419487,6.33261538 17.1947692,6.34133333 17.1506667,6.35928205 L16.0552821,6.80235897 C16.0111795,6.82030769 15.9645128,6.82902564 15.918359,6.82902564 C15.8706667,6.82902564 15.8229744,6.81979487 15.778359,6.80082051 L15.5988718,6.72594872 C15.5116923,6.68953846 15.4424615,6.62133333 15.4050256,6.53517949 L14.9265641,5.43825641 C14.8681026,5.3054359 14.7368205,5.21979487 14.5922051,5.21979487 Z" id="Stroke-7" stroke="#6C92FA"></path>
            </g>
        </g>
    </g>
</svg>