<?xml version="1.0" encoding="UTF-8"?>
<svg width="20px" height="18px" viewBox="0 0 20 18" version="1.1" xmlns="http://www.w3.org/2000/svg" xmlns:xlink="http://www.w3.org/1999/xlink">
    <!-- Generator: Sketch 63.1 (92452) - https://sketch.com -->
    <title>退出 (4)</title>
    <desc>Created with Sketch.</desc>
    <g id="页面-1" stroke="none" stroke-width="1" fill="none" fill-rule="evenodd">
        <g id="系统性能优化工具-任务列表备份" transform="translate(-1427.000000, -377.000000)" fill="#9EA4B3" fill-rule="nonzero">
            <g id="退出-(4)" transform="translate(1427.000000, 377.000000)">
                <path d="M18.8410762,0.0110438482 L6.87316176,0.0110438482 C6.28492647,0.0110438482 5.80364305,0.435127618 5.80364305,0.953452225 C5.80364305,1.47177683 6.28492647,1.8958606 6.87316176,1.8958606 L17.7715575,1.8958606 L17.7715575,16.0319863 L6.87316176,16.0319863 C6.28492647,16.0319863 5.80364305,16.45607 5.80364305,16.9743946 C5.80364305,17.4927192 6.28492647,17.916803 6.87316176,17.916803 L18.8410762,17.916803 C19.4293115,17.916803 19.9105949,17.4927192 19.9105949,16.9743946 L19.9105949,0.953452225 C19.9105949,0.435127618 19.4293115,0.0110438482 18.8410762,0.0110438482 Z" id="路径"></path>
                <path d="M5.87850936,11.8288449 L3.6753008,9.90633181 L11.9319853,9.90633181 C12.5202206,9.90633181 13.001504,9.48224804 13.001504,8.96392343 C13.001504,8.44559882 12.5202206,8.02151505 11.9319853,8.02151505 L3.68599599,8.02151505 L5.87850936,6.10842605 C6.29562166,5.74088678 6.30631684,5.1471695 5.88920455,4.77963024 C5.47209225,4.40266688 4.79829545,4.40266688 4.37048797,4.76078207 L0.338402406,8.2853894 C0.13519385,8.46444699 0.0175467914,8.70004908 0.0175467914,8.95449935 C0.0175467914,9.20894961 0.13519385,9.4445517 0.338402406,9.62360929 L4.38118316,13.1576407 C4.79857611,13.5225203 5.47181159,13.5225203 5.88920455,13.1576407 C6.08803784,12.9803085 6.19864884,12.740566 6.19664245,12.4912881 C6.19463607,12.2420102 6.08017713,12.0036743 5.87850936,11.8288449 Z" id="路径"></path>
            </g>
        </g>
    </g>
</svg>