<?xml version="1.0" encoding="UTF-8"?>
<svg width="16px" height="16px" viewBox="0 0 16 16" version="1.1" xmlns="http://www.w3.org/2000/svg" xmlns:xlink="http://www.w3.org/1999/xlink">
    <!-- Generator: Sketch 63.1 (92452) - https://sketch.com -->
    <title>4组件/2.通用/icon/错误</title>
    <desc>Created with Sketch.</desc>
    <defs>
        <path d="M10,2 C14.418278,2 18,5.581722 18,10 C18,14.418278 14.418278,18 10,18 C5.581722,18 2,14.418278 2,10 C2,5.581722 5.581722,2 10,2 Z" id="path-1"></path>
    </defs>
    <g id="-" stroke="none" stroke-width="1" fill="none" fill-rule="evenodd">
        <g id="2.配置-用户管理备份-3" transform="translate(-823.000000, -578.000000)">
            <g id="4.组件/5.反馈/1.弹窗/1创建用户" transform="translate(630.000000, 234.000000)">
                <g id="4.组件/2.通用/icon/20/错误" transform="translate(191.000000, 342.000000)">
                    <mask id="mask-2" fill="white">
                        <use xlink:href="#path-1"></use>
                    </mask>
                    <use id="蒙版" fill="#3AD53E" fill-rule="nonzero" xlink:href="#path-1"></use>
                    <g id="3.颜色/3.紧急告警色" mask="url(#mask-2)" fill="#ED4B4B" fill-rule="evenodd">
                        <rect id="矩形" x="0" y="0" width="20" height="20"></rect>
                    </g>
                    <path d="M10.463125,7.8203125 L10.7365625,15.9140625 L9.26,15.9140625 L9.47875,7.8203125 L10.463125,7.8203125 Z M10.681875,5.1953125 L10.681875,6.671875 L9.3146875,6.671875 L9.3146875,5.1953125 L10.681875,5.1953125 Z" id="形状结合" fill="#FFFFFF" fill-rule="nonzero" transform="translate(9.998281, 10.554688) rotate(180.000000) translate(-9.998281, -10.554688) "></path>
                </g>
            </g>
        </g>
    </g>
</svg>