<?xml version="1.0" encoding="UTF-8"?>
<svg width="18px" height="18px" viewBox="0 0 18 18" version="1.1" xmlns="http://www.w3.org/2000/svg" xmlns:xlink="http://www.w3.org/1999/xlink">
    <!-- Generator: Sketch 63.1 (92452) - https://sketch.com -->
    <title>icon-navgationbar-help</title>
    <desc>Created with Sketch.</desc>
    <defs>
        <path d="M9,0.1875 C13.8670094,0.1875 17.8125,4.13299064 17.8125,9 C17.8125,13.8670094 13.8670094,17.8125 9,17.8125 C4.13299064,17.8125 0.1875,13.8670094 0.1875,9 C0.1875,4.13299064 4.13299064,0.1875 9,0.1875 Z M9,1.3125 C4.75431099,1.3125 1.3125,4.75431099 1.3125,9 C1.3125,13.245689 4.75431099,16.6875 9,16.6875 C13.245689,16.6875 16.6875,13.245689 16.6875,9 C16.6875,4.75431099 13.245689,1.3125 9,1.3125 Z M9,12 C9.41421356,12 9.75,12.3357864 9.75,12.75 C9.75,13.1642136 9.41421356,13.5 9,13.5 C8.58578644,13.5 8.25,13.1642136 8.25,12.75 C8.25,12.3357864 8.58578644,12 9,12 Z M9.34425046,3.9375 C10.8728313,3.9375 12.120693,5.13757364 12.120693,6.62915756 C12.120693,7.35422238 11.7141633,7.95216752 11.070998,8.44129922 C10.7145808,8.7123569 10.3631974,8.89638525 10.166496,8.97290865 C9.95973193,9.08264514 9.66207817,9.41600405 9.66207817,9.45369318 L9.66207817,9.45369318 L9.66207817,10.5 C9.66207817,10.8106602 9.41023835,11.0625 9.09957817,11.0625 C8.788918,11.0625 8.53707817,10.8106602 8.53707817,10.5 L8.53707817,10.5 L8.53707817,9.45369318 C8.53707817,8.89786001 9.10357326,8.26341082 9.6914943,7.9547459 C9.72718807,7.94027799 9.80134223,7.90645827 9.90048132,7.85453664 C10.0683094,7.76664088 10.2360879,7.66288026 10.3899916,7.54583547 C10.781449,7.24812939 10.995693,6.93300812 10.995693,6.62915756 C10.995693,5.76893487 10.2611273,5.0625 9.34425046,5.0625 C8.24864084,5.0625 7.62069302,5.87103986 7.62069302,6.62915756 C7.62069302,6.93981773 7.36885319,7.19165756 7.05819302,7.19165756 C6.74753285,7.19165756 6.49569302,6.93981773 6.49569302,6.62915756 C6.49569302,5.30304728 7.55623744,3.9375 9.34425046,3.9375 Z" id="path-1"></path>
    </defs>
    <g id="-" stroke="none" stroke-width="1" fill="none" fill-rule="evenodd">
        <g id="33.配置-证书-默认" transform="translate(-408.000000, -307.000000)">
            <g id="编组-3" transform="translate(320.000000, 301.000000)">
                <g id="icon-navgationbar-help" transform="translate(88.000000, 6.000000)">
                    <g id="Group-4">
                        <mask id="mask-2" fill="white">
                            <use xlink:href="#path-1"></use>
                        </mask>
                        <use id="形状结合" fill="#9EA4B3" fill-rule="nonzero" xlink:href="#path-1"></use>
                        <rect id="换色" fill="#979797" mask="url(#mask-2)" x="0" y="0" width="18" height="18"></rect>
                    </g>
                </g>
            </g>
        </g>
    </g>
</svg>