<?xml version="1.0" encoding="UTF-8"?>
<svg width="60px" height="46px" viewBox="0 0 60 46" version="1.1" xmlns="http://www.w3.org/2000/svg" xmlns:xlink="http://www.w3.org/1999/xlink">
    <!-- Generator: Sketch 63.1 (92452) - https://sketch.com -->
    <title>华为logo</title>
    <desc>Created with Sketch.</desc>
    <defs>
        <radialGradient cx="156.061241%" cy="-8.20551998%" fx="156.061241%" fy="-8.20551998%" r="199.924092%" gradientTransform="translate(1.560612,-0.082055),scale(1.000000,0.789368),translate(-1.560612,0.082055)" id="radialGradient-1">
            <stop stop-color="#F6BEA3" offset="0%"></stop>
            <stop stop-color="#F4A691" offset="5%"></stop>
            <stop stop-color="#E50012" offset="43%"></stop>
            <stop stop-color="#E30011" offset="69%"></stop>
            <stop stop-color="#DC0010" offset="79%"></stop>
            <stop stop-color="#D0000D" offset="87%"></stop>
            <stop stop-color="#BE0008" offset="93%"></stop>
            <stop stop-color="#A80002" offset="98%"></stop>
            <stop stop-color="#9F0000" offset="100%"></stop>
        </radialGradient>
        <radialGradient cx="170.991407%" cy="-536.526611%" fx="170.991407%" fy="-536.526611%" r="691.712699%" gradientTransform="translate(1.709914,-5.365266),scale(0.336208,1.000000),translate(-1.709914,5.365266)" id="radialGradient-2">
            <stop stop-color="#F6BEA3" offset="0%"></stop>
            <stop stop-color="#F4A691" offset="5%"></stop>
            <stop stop-color="#E50012" offset="43%"></stop>
            <stop stop-color="#E30011" offset="69%"></stop>
            <stop stop-color="#DC0010" offset="79%"></stop>
            <stop stop-color="#D0000D" offset="87%"></stop>
            <stop stop-color="#BE0008" offset="93%"></stop>
            <stop stop-color="#A80002" offset="98%"></stop>
            <stop stop-color="#9F0000" offset="100%"></stop>
        </radialGradient>
        <radialGradient cx="155.336514%" cy="-124.897732%" fx="155.336514%" fy="-124.897732%" r="302.254675%" gradientTransform="translate(1.553365,-1.248977),scale(0.584986,1.000000),translate(-1.553365,1.248977)" id="radialGradient-3">
            <stop stop-color="#F6BEA3" offset="0%"></stop>
            <stop stop-color="#F4A691" offset="5%"></stop>
            <stop stop-color="#E50012" offset="43%"></stop>
            <stop stop-color="#E30011" offset="69%"></stop>
            <stop stop-color="#DC0010" offset="79%"></stop>
            <stop stop-color="#D0000D" offset="87%"></stop>
            <stop stop-color="#BE0008" offset="93%"></stop>
            <stop stop-color="#A80002" offset="98%"></stop>
            <stop stop-color="#9F0000" offset="100%"></stop>
        </radialGradient>
        <radialGradient cx="162.872461%" cy="16.0183541%" fx="162.872461%" fy="16.0183541%" r="336.608748%" gradientTransform="translate(1.628725,0.160184),scale(1.000000,0.381902),translate(-1.628725,-0.160184)" id="radialGradient-4">
            <stop stop-color="#F6BEA3" offset="0%"></stop>
            <stop stop-color="#F4A691" offset="5%"></stop>
            <stop stop-color="#E50012" offset="43%"></stop>
            <stop stop-color="#E30011" offset="69%"></stop>
            <stop stop-color="#DC0010" offset="79%"></stop>
            <stop stop-color="#D0000D" offset="87%"></stop>
            <stop stop-color="#BE0008" offset="93%"></stop>
            <stop stop-color="#A80002" offset="98%"></stop>
            <stop stop-color="#9F0000" offset="100%"></stop>
        </radialGradient>
        <radialGradient cx="48.9557399%" cy="15.0863174%" fx="48.9557399%" fy="15.0863174%" r="335.114923%" gradientTransform="translate(0.489557,0.150863),scale(1.000000,0.381640),translate(-0.489557,-0.150863)" id="radialGradient-5">
            <stop stop-color="#F6BEA3" offset="0%"></stop>
            <stop stop-color="#F4A691" offset="5%"></stop>
            <stop stop-color="#E50012" offset="43%"></stop>
            <stop stop-color="#E30011" offset="69%"></stop>
            <stop stop-color="#DC0010" offset="79%"></stop>
            <stop stop-color="#D0000D" offset="87%"></stop>
            <stop stop-color="#BE0008" offset="93%"></stop>
            <stop stop-color="#A80002" offset="98%"></stop>
            <stop stop-color="#9F0000" offset="100%"></stop>
        </radialGradient>
        <radialGradient cx="11.4996113%" cy="-525.753368%" fx="11.4996113%" fy="-525.753368%" r="687.008553%" gradientTransform="translate(0.114996,-5.257534),scale(0.336795,1.000000),translate(-0.114996,5.257534)" id="radialGradient-6">
            <stop stop-color="#F6BEA3" offset="0%"></stop>
            <stop stop-color="#F4A691" offset="5%"></stop>
            <stop stop-color="#E50012" offset="43%"></stop>
            <stop stop-color="#E30011" offset="69%"></stop>
            <stop stop-color="#DC0010" offset="79%"></stop>
            <stop stop-color="#D0000D" offset="87%"></stop>
            <stop stop-color="#BE0008" offset="93%"></stop>
            <stop stop-color="#A80002" offset="98%"></stop>
            <stop stop-color="#9F0000" offset="100%"></stop>
        </radialGradient>
        <radialGradient cx="7.42803398%" cy="-126.061035%" fx="7.42803398%" fy="-126.061035%" r="302.435887%" gradientTransform="translate(0.074280,-1.260610),scale(0.585406,1.000000),translate(-0.074280,1.260610)" id="radialGradient-7">
            <stop stop-color="#F6BEA3" offset="0%"></stop>
            <stop stop-color="#F4A691" offset="5%"></stop>
            <stop stop-color="#E50012" offset="43%"></stop>
            <stop stop-color="#E30011" offset="69%"></stop>
            <stop stop-color="#DC0010" offset="79%"></stop>
            <stop stop-color="#D0000D" offset="87%"></stop>
            <stop stop-color="#BE0008" offset="93%"></stop>
            <stop stop-color="#A80002" offset="98%"></stop>
            <stop stop-color="#9F0000" offset="100%"></stop>
        </radialGradient>
        <radialGradient cx="18.5918732%" cy="-8.67969663%" fx="18.5918732%" fy="-8.67969663%" r="200.441935%" gradientTransform="translate(0.185919,-0.086797),scale(1.000000,0.788625),translate(-0.185919,0.086797)" id="radialGradient-8">
            <stop stop-color="#F6BEA3" offset="0%"></stop>
            <stop stop-color="#F4A691" offset="5%"></stop>
            <stop stop-color="#E50012" offset="43%"></stop>
            <stop stop-color="#E30011" offset="69%"></stop>
            <stop stop-color="#DC0010" offset="79%"></stop>
            <stop stop-color="#D0000D" offset="87%"></stop>
            <stop stop-color="#BE0008" offset="93%"></stop>
            <stop stop-color="#A80002" offset="98%"></stop>
            <stop stop-color="#9F0000" offset="100%"></stop>
        </radialGradient>
    </defs>
    <g id="顶部导航" stroke="none" stroke-width="1" fill="none" fill-rule="evenodd">
        <g id="1.用户名3-关于" transform="translate(-662.000000, -436.000000)" fill-rule="nonzero">
            <g id="4.组件/5.反馈/1.弹窗/3退出登陆" transform="translate(630.000000, 426.000000)">
                <g id="华为logo" transform="translate(32.000000, 10.000000)">
                    <path d="M9.18419453,8.05167173 L9.18419453,8.05167173 C9.18419453,8.05167173 3.93920973,13.0303951 4.31306991,18.0164134 C4.51276596,21.7896657 7.35136778,24.0237082 7.35136778,24.0237082 C11.9243161,28.4799392 22.9987842,34.1079027 25.5720365,35.3854103 C25.6552359,35.4244218 25.7539449,35.4073025 25.8191489,35.3425532 C25.8839211,35.2873119 25.9046911,35.196072 25.8702128,35.1182371 L25.8702128,35.1182371 C18.825228,19.725228 9.18601824,8.05440729 9.18419453,8.05167173 Z" id="路径" fill="url(#radialGradient-1)"></path>
                    <path d="M5.43465046,39.6264438 C7.4343465,43.1899696 10.8009119,45.9592705 14.3079027,45.1085106 C16.7288754,44.5048632 22.2118541,40.6805471 24.0209726,39.387538 L24.0164134,39.3829787 C24.1559271,39.256231 24.1075988,39.1541033 24.1075988,39.1541033 C24.0716075,39.054348 23.9765626,38.9881822 23.8705167,38.9890578 L23.8705167,38.9826748 L5.43465046,39.6264438 Z" id="路径" fill="url(#radialGradient-2)"></path>
                    <path d="M1.02401216,31.3504559 C3.02279635,35.5778116 6.84164134,36.8589666 6.84164134,36.8589666 C7.96825776,37.3041711 9.15915272,37.5652566 10.368693,37.6322188 C10.6422492,37.6832827 21.3319149,37.63769 24.1960486,37.6240122 C24.2755112,37.6155152 24.3460631,37.5693851 24.3857143,37.5 C24.4768997,37.3550152 24.3164134,37.2264438 24.3164134,37.2264438 L24.3164134,37.2264438 C16.2182371,31.7598784 0.527051672,23.3744681 0.527051672,23.3744681 C-0.899088146,27.7942249 1.02401216,31.3504559 1.02401216,31.3504559 Z" id="路径" fill="url(#radialGradient-3)"></path>
                    <path d="M16.6066869,6.34468085 C15.7158055,9.1331307 16.6294833,12.1924012 16.6294833,12.1924012 C18.2589666,19.4215805 26.2759878,31.2993921 27.9993921,33.7942249 C28.1206687,33.9164134 28.2173252,33.8717325 28.2173252,33.8717325 C28.3224267,33.8457558 28.3945674,33.7491865 28.3896657,33.6410334 L28.3896657,33.6410334 C31.0449848,7.12066869 25.6103343,0.0911854103 25.6103343,0.0911854103 C24.8079027,0.161398176 22.6422492,0.654711246 22.6422492,0.654711246 C17.7610942,1.91489362 16.6066869,6.34468085 16.6066869,6.34468085 Z" id="路径" fill="url(#radialGradient-4)"></path>
                    <path d="M31.5683891,33.6620061 L31.5683891,33.6620061 C31.5714399,33.7514045 31.6262919,33.8308331 31.7088146,33.8653495 C31.8111166,33.9038383 31.9260214,33.8595234 31.9759878,33.76231 L31.9759878,33.76231 C33.7440729,31.2045593 41.7145897,19.3905775 43.3367781,12.1896657 C43.3367781,12.1896657 44.2158055,8.70364742 43.3659574,6.34194529 C43.3659574,6.34194529 42.1613982,1.84468085 37.2738602,0.6556231 C37.2738602,0.6556231 35.8659574,0.299088146 34.3705167,0.088449848 C34.3759878,0.0911854103 28.9130699,7.12431611 31.5683891,33.6620061 Z" id="路径" fill="url(#radialGradient-5)"></path>
                    <path d="M36.0756839,39 C35.9880473,39.0113478 35.91129,39.0643307 35.8696049,39.1422492 C35.8472773,39.2315268 35.8740065,39.325947 35.9398176,39.3902736 L35.9398176,39.3902736 C37.7051672,40.6550152 43.0522796,44.3954407 45.6328267,45.1221884 C45.6328267,45.1221884 50.3990881,46.7462006 54.5379939,39.6346505 L36.0802432,38.9917933 L36.0756839,39 Z" id="路径" fill="url(#radialGradient-6)"></path>
                    <path d="M35.668997,37.2100304 L35.668997,37.2100304 C35.5842651,37.2710147 35.5476297,37.3790892 35.5778116,37.4790274 C35.5778116,37.4790274 35.6544073,37.6167173 35.7674772,37.6167173 L35.7674772,37.6167173 C38.6680851,37.6212766 49.6495441,37.6349544 49.9258359,37.5829787 C49.9258359,37.5829787 51.3455927,37.5264438 53.1,36.8534954 C53.1,36.8534954 57.0054711,35.6115502 59.0343465,31.1753799 C59.0343465,31.1753799 60.843465,27.5580547 59.443769,23.3334347 C59.4401216,23.3361702 43.7726444,31.7462006 35.668997,37.2100304 Z" id="路径" fill="url(#radialGradient-7)"></path>
                    <path d="M34.1890578,35.3425532 C34.261343,35.3958316 34.3577813,35.4029226 34.4370821,35.3607903 L34.4370821,35.3607903 C37.081459,34.0495441 48.0683891,28.4580547 52.6194529,24.0227964 C52.6194529,24.0227964 55.5018237,21.7075988 55.6541033,17.9908815 C55.9860182,12.8297872 50.7930091,8.05167173 50.7902736,8.05167173 L50.7902736,8.05167173 C50.7902736,8.05167173 41.1775076,19.6878419 34.1343465,35.049848 L34.1343465,35.049848 C34.0893364,35.1492282 34.1111904,35.2661409 34.1890578,35.3425532 L34.1890578,35.3425532 Z" id="路径" fill="url(#radialGradient-8)"></path>
                </g>
            </g>
        </g>
    </g>
</svg>