<?xml version="1.0" encoding="UTF-8"?>
<svg width="16px" height="16px" viewBox="0 0 16 16" version="1.1" xmlns="http://www.w3.org/2000/svg" xmlns:xlink="http://www.w3.org/1999/xlink">
    <title>4.组件/2.通用/icon/状态栏/节点</title>
    <defs>
        <path d="M11.4052652,13.9344108 C11.7252621,13.9344108 11.9579942,14.1962207 12.0161655,14.4871398 C12.0161655,14.6325915 11.9579942,14.7780432 11.6961686,14.9816662 C10.5907263,15.6507534 9.28166093,15.9998437 7.97257996,15.9998437 C6.63442115,15.9998437 5.35443365,15.6507534 4.2489757,15.0107597 C4.07443053,14.865308 3.98716576,14.7198562 3.98716576,14.5162176 C3.98716576,14.1962207 4.1908044,13.9635043 4.51080128,13.9635043 L4.51080128,13.9635043 L4.68533082,13.9635043 L4.74351774,13.9925977 C6.66349901,15.0980401 9.19438054,15.0980401 11.1143618,13.9925977 L11.1143618,13.9925977 L11.2598135,13.9344108 Z M7.97257996,-1.77635684e-15 C9.07802229,-1.77635684e-15 9.95073253,0.901803687 10.0089194,1.97816819 C10.0089194,2.87997187 9.42711263,3.66541733 8.58346462,3.89814944 L8.58346462,3.89814944 L8.5544024,3.89814944 L8.5544024,5.84720852 L8.58346462,5.84720852 C9.97982598,6.13812756 10.9689101,7.33083467 10.9689101,8.72718041 C10.9689101,9.01809944 10.9107232,9.33809631 10.7943649,9.68717103 L10.7943649,9.68717103 L10.7943649,9.71626448 L12.4525362,10.6762551 L12.4816297,10.6471617 C12.8597979,10.2980869 13.3252464,10.0944483 13.8488819,10.0944483 C14.1106919,10.0944483 14.4888757,10.0944483 14.837966,10.3271648 C15.303399,10.5889903 15.652505,11.0544389 15.7688632,11.5780744 C15.8852214,12.1016943 15.8852214,12.5089716 15.5070533,13.1489653 C15.1579629,13.7016787 14.6925143,13.9925977 14.0816141,14.0798625 C14.0234115,14.108956 13.9361467,14.108956 13.8488819,14.108956 C13.4125268,14.108956 12.9470783,13.9925977 12.6561592,13.7889591 C11.9289007,13.294417 11.579826,12.4507847 11.7543555,11.6362457 L11.7543555,11.6362457 L11.7543555,11.6071523 L10.1252777,10.6762551 L10.0961842,10.7053486 C9.51437742,11.3744358 8.72893196,11.7235261 7.8562061,11.7235261 C7.04168281,11.7235261 6.19805043,11.3453423 5.64532145,10.7053486 L5.64532145,10.7053486 L5.61622798,10.6762551 L3.98716576,11.6071523 L3.98716576,11.6362457 C4.21988224,12.5380651 3.84171406,13.4107753 3.08534645,13.8180526 C2.91080128,13.8762395 2.56172656,14.050769 2.09626235,14.050769 C1.33992599,14.050769 0.670823151,13.6726009 0.379935369,13.0326071 C0.118109791,12.5962364 0.118109776,12.043523 0.234468026,11.5198875 C0.350826276,10.996252 0.670823151,10.5598969 1.13627173,10.3271648 C1.33991037,10.2399 1.71809418,10.0944483 2.12535582,10.0944483 C2.5908044,10.0944483 3.1144399,10.2980869 3.49262371,10.6180838 L3.49262371,10.6180838 L3.52171718,10.6471617 L5.17987287,9.68717103 L5.17987287,9.65809319 C5.06351463,9.36717416 5.0053277,9.04717728 5.0053277,8.69810256 C5.0053277,7.3017412 5.99441179,6.07994062 7.39075753,5.81813069 L7.39075753,5.81813069 L7.44894445,5.81813069 L7.44894445,3.92722727 L7.41986662,3.92722727 C6.54714076,3.63632386 5.99441178,2.87997187 5.99441178,2.00724602 C5.99441178,0.901803687 6.86713763,-1.77635684e-15 7.97257996,-1.77635684e-15 Z M2.06718451,11.1126102 C1.89263934,11.1126102 1.7762811,11.1707972 1.63081378,11.2580776 C1.39809729,11.4035293 1.25262995,11.5780588 1.19445865,11.8107909 C1.13628735,12.043523 1.19445867,12.2762395 1.3108169,12.4798781 C1.4562686,12.7416881 1.77626548,12.9453423 2.09626235,12.9453423 C2.29990099,12.9453423 2.41625923,12.9162332 2.56172656,12.799875 C2.76534956,12.6835167 2.93989473,12.5089716 2.99808167,12.2762395 C3.02715951,12.0726009 3.02715951,11.8107909 2.85262996,11.5780744 C2.70717826,11.3162489 2.38718138,11.1126102 2.06718451,11.1126102 Z M13.9070533,11.1126259 L13.8197729,11.1126259 C13.5288694,11.1417037 13.2379504,11.3162489 13.0634209,11.6071523 C12.9179692,11.7816975 12.8888757,11.9853361 12.9470626,12.1889747 C13.0052339,12.4507847 13.1797791,12.6253298 13.3834177,12.7707815 C13.5288694,12.8871398 13.7325081,12.9162332 13.9070533,12.9162332 C14.1979567,12.9162332 14.4597822,12.7707815 14.6343118,12.4798781 C14.8379504,12.043523 14.7797635,11.6071523 14.4306732,11.3162489 C14.256128,11.1417037 14.0815828,11.1126259 13.9070533,11.1126259 L13.9070533,11.1126259 Z M7.97256434,6.83629261 C6.92529332,6.83629261 6.08167656,7.65083155 6.08167656,8.69810256 C6.08167656,9.74537358 6.95438678,10.5598969 7.97256434,10.5598969 C9.01981973,10.5598969 9.83435865,9.7162645 9.86345212,8.69810256 C9.86345212,7.65083153 8.99072628,6.83629261 7.97256434,6.83629261 Z M4.42352087,2.35633636 C4.56897259,2.26907159 4.68534645,2.23997812 4.85987599,2.29816506 C5.00534332,2.32724289 5.0926081,2.41450767 5.17987287,2.559975 C5.26715326,2.67633323 5.26715326,2.82178494 5.23805979,2.96723664 C5.17987287,3.0836105 5.12170156,3.19996875 4.97624985,3.28723352 C3.02717513,4.39267586 1.7762811,6.45812444 1.7762811,8.69810256 L1.7762811,8.69810256 L1.7762811,8.8144608 C1.80535895,8.9599125 1.74718763,9.07627075 1.63081378,9.19264461 C1.51445553,9.27990937 1.39808167,9.36717414 1.22355212,9.39626761 C0.932648713,9.39626761 0.699916619,9.19264461 0.670823151,8.9599125 L0.670823151,8.9599125 L0.670823151,8.72718041 C0.670823151,6.10903409 2.09624673,3.66543295 4.42352087,2.35633636 Z M11.1143618,2.29816506 C11.288907,2.26907159 11.4052652,2.26907159 11.5507169,2.35633636 C13.8779598,3.63632387 15.3034146,6.07994062 15.3034146,8.69810256 L15.3034146,8.69810256 L15.3034146,8.90174119 C15.2743212,9.19264459 15.0416047,9.39626761 14.7797791,9.39626761 L14.7797791,9.39626761 L14.7216078,9.39626761 C14.5179692,9.39626761 14.4016109,9.30900284 14.2852371,9.16355114 C14.1979723,9.07627073 14.1688788,8.9599125 14.1979723,8.8144608 L14.1979723,8.8144608 L14.1979723,8.72718041 C14.1979723,6.48720227 12.9470783,4.42178494 10.9689101,3.31632698 C10.8525518,3.25815567 10.7652714,3.14178181 10.7071001,2.96723664 C10.6489132,2.85087841 10.6780067,2.70544233 10.7652714,2.559975 C10.8816453,2.44361677 10.9689101,2.32724291 11.1143618,2.29816506 Z M7.94347087,1.10544233 C7.44892882,1.10544233 7.04166718,1.51271959 7.04166718,2.00724602 C7.04166718,2.47271023 7.44892881,2.90906534 7.94347087,2.90906534 C8.43801293,2.90906534 8.84527457,2.50178806 8.84527457,2.00724602 C8.84527457,1.51271959 8.43801292,1.10544233 7.94347087,1.10544233 Z" id="path-1"></path>
    </defs>
    <g id="4.组件/2.通用/icon/状态栏/节点" stroke="none" stroke-width="1" fill="none" fill-rule="evenodd">
        <g id="3.颜色/10.辅助说明文本" transform="translate(0.000000, -0.000000)">
            <mask id="mask-2" fill="white">
                <use xlink:href="#path-1"></use>
            </mask>
            <use id="蒙版" fill="#6c92fa" fill-rule="nonzero" xlink:href="#path-1"></use>
            <g id="3.颜色/15.白色选中" mask="url(#mask-2)" fill="#FFFFFF">
                <g transform="translate(0.000000, 0.000000)" id="矩形备份-6">
                    <rect x="0" y="0" width="16" height="16"></rect>
                </g>
            </g>
        </g>
    </g>
</svg>