<?xml version="1.0" encoding="UTF-8"?>
<svg width="16px" height="16px" viewBox="0 0 16 16" version="1.1" xmlns="http://www.w3.org/2000/svg" xmlns:xlink="http://www.w3.org/1999/xlink">
    <title>4.组件/2.通用/icon/导航栏/设置</title>
    <defs>
        <path d="M9.8230563,0.183673469 L10.080429,0.224489796 L10.9383378,2.67346939 C11.0241287,2.91836735 11.3243968,3.12244898 11.5817694,3.08163265 L14.3270777,2.75510204 L14.4986595,2.91836735 C14.7989276,3.24489796 15.0563003,3.6122449 15.2707775,3.97959184 C15.5281501,4.3877551 15.7426273,4.83673469 15.9142091,5.32653061 L16,5.53061224 L14.2412869,7.6122449 C14.0697051,7.81632653 14.0697051,8.14285714 14.2412869,8.34693878 L16,10.3469388 L15.9142091,10.5510204 C15.6514745,11.3367347 15.2573727,12.059949 14.7319035,12.7206633 L14.3270777,13.2040816 L11.6246649,12.7959184 C11.3672922,12.755102 11.0670241,12.9183673 10.9812332,13.1632653 L10.0375335,15.7755102 L9.8230563,15.8163265 C8.62198391,16.0612245 7.37801609,16.0612245 6.21983914,15.8163265 L5.96246649,15.7755102 L5.10455764,13.2040816 C5.01876676,12.9591837 4.71849866,12.7959184 4.46112601,12.8367347 L1.67292225,13.244898 L1.50134048,13.0816327 C1.20107239,12.755102 0.943699732,12.3877551 0.72922252,12.0204082 C0.471849866,11.5714286 0.257372654,11.122449 0.0857908847,10.6326531 L0,10.4285714 L1.80160858,8.3877551 C1.97319035,8.18367347 1.97319035,7.85714286 1.80160858,7.65306122 L0,5.57142857 L0.0857908847,5.36734694 C0.428954424,4.46938776 0.90080429,3.6122449 1.54423592,2.87755102 L1.71581769,2.71428571 L4.41823056,3.12244898 C4.67560322,3.16326531 4.97587131,3 5.10455764,2.75510204 L6.04825737,0.224489796 L6.26273458,0.183673469 C7.42091153,-0.0612244898 8.62198391,-0.0612244898 9.8230563,0.183673469 Z M9.26747425,1.09899113 C8.55636231,0.986093494 7.84833879,0.970108061 7.14770151,1.05178453 L6.788,1.102 L6.04152795,3.10451102 L5.98978455,3.22026149 C5.68774346,3.79506419 5.04626407,4.16755625 4.40595484,4.12645043 L4.26888776,4.11123446 L2.092,3.782 L1.919879,4.01340283 C1.68142854,4.34821371 1.46789989,4.71692389 1.27709313,5.12131159 L1.159,5.383 L2.56703039,7.00953232 C3.0190929,7.54722146 3.0492304,8.34055136 2.64464092,8.92718515 L2.55128453,9.04956019 L1.155,10.631 L1.27599061,10.9073221 L1.42493253,11.2094943 L1.59280542,11.5162013 C1.71023085,11.7173223 1.83535222,11.9062171 1.95663667,12.0693351 L2.042,12.18 L4.304495,11.8490775 C4.98713723,11.7408183 5.70440824,12.1133615 5.99983139,12.7556152 L6.05315613,12.8875996 L6.722,14.893 L6.77060617,14.9020427 C7.46392043,15.014165 8.18867124,15.0299566 8.91304104,14.9482316 L9.292,14.896 L10.037467,12.8326519 C10.2700848,12.1686231 10.9592292,11.7478119 11.6384369,11.7920244 L11.7740077,11.8071329 L13.921,12.131 L13.9480929,12.0995908 C14.2726283,11.6914193 14.5393655,11.2542412 14.7559803,10.7693911 L14.847,10.55 L13.4758651,8.99046768 C13.0238025,8.45277854 12.993665,7.65944864 13.3867151,7.08617601 L13.477418,6.96687345 L14.849,5.343 L14.7760566,5.16995066 C14.7049471,5.0124999 14.6271532,4.85934337 14.5415639,4.70852268 L14.4071946,4.48379871 C14.2897692,4.28267771 14.1646478,4.09378289 14.0433633,3.93066487 L13.947,3.807 L11.7384004,4.06928984 C11.0397728,4.18008411 10.3317823,3.75601322 10.0459758,3.13154853 L9.99457152,3.00408278 L9.33,1.11 L9.26747425,1.09899113 Z M8,5 C9.67142857,5 11,6.32857143 11,8 C11,9.67142857 9.67142857,11 8,11 C6.32857143,11 5,9.67142857 5,8 C5,6.32857143 6.32857143,5 8,5 Z M8,6 C6.88085618,6 6,6.88085618 6,8 C6,9.11914382 6.88085618,10 8,10 C9.11914382,10 10,9.11914382 10,8 C10,6.88085618 9.11914382,6 8,6 Z" id="path-1"></path>
    </defs>
    <g id="4.组件/2.通用/icon/导航栏/设置" stroke="none" stroke-width="1" fill="none" fill-rule="evenodd">
        <mask id="mask-2" fill="white">
            <use xlink:href="#path-1"></use>
        </mask>
        <use id="蒙版" fill="#fff" fill-rule="nonzero" xlink:href="#path-1"></use>
    </g>
</svg>