<?xml version="1.0" encoding="UTF-8"?>
<svg width="70px" height="70px" viewBox="0 0 70 70" version="1.1" xmlns="http://www.w3.org/2000/svg" xmlns:xlink="http://www.w3.org/1999/xlink">
    <title>深色-申请远程环境</title>
    <g id="切图" stroke="none" stroke-width="1" fill="none" fill-rule="evenodd">
        <g transform="translate(-56.000000, -112.000000)" fill="#E8E8E8" fill-rule="nonzero" id="深色-申请远程环境">
            <g transform="translate(56.000000, 112.000000)">
                <rect id="矩形" opacity="0" x="0" y="0" width="70" height="70"></rect>
                <path d="M64.75,5 C67.4285714,5 69.5714286,7.14285714 69.5714286,9.82142857 L69.5714286,48.3928571 C69.5714286,51.0714286 67.4285714,53.2142857 64.75,53.2142857 L43.145,53.214 L44.676,61.785 L50.5,61.7857143 C51.2058824,61.7857143 51.7219476,62.4500741 51.7802187,63.2428397 L51.7857143,63.3928571 C51.7857143,64.202381 51.2123016,64.916336 50.5167732,64.9931658 L50.3928571,65 L45.25,64.999 L45.25,65 L25.3214286,65 L25.321,64.999 L20.0714286,65 C19.3630952,65 18.7503307,64.3310185 18.684432,63.534612 L18.6785714,63.3928571 C18.6785714,62.5833333 19.2519841,61.8693783 19.9475125,61.7925485 L20.0714286,61.7857143 L25.895,61.785 L27.426,53.214 L5.82142857,53.2142857 C3.14285714,53.2142857 1,51.0714286 1,48.3928571 L1,9.82142857 C1,7.14285714 3.14285714,5 5.82142857,5 L64.75,5 Z M39.7857143,53.2142857 L30.6785714,53.2142857 L29.1785714,61.7857143 L41.3928571,61.7857143 L39.7857143,53.2142857 Z M66.3571429,44.6428571 L4.21428571,44.6428571 L4.21428571,48.3928571 C4.21428571,49.25 4.96428571,50 5.82142857,50 L64.75,50 C65.6071429,50 66.3571429,49.25 66.3571429,48.3928571 L66.3571429,44.6428571 Z M64.75,8.21428571 L5.82142857,8.21428571 C4.96428571,8.21428571 4.21428571,8.96428571 4.21428571,9.82142857 L4.21428571,41.4285714 L66.3571429,41.4285714 L66.3571429,9.82142857 C66.3571429,8.96428571 65.6071429,8.21428571 64.75,8.21428571 Z M20.5418859,16.4285714 L20.5418859,19.4200728 L13.8466208,19.4200728 L13.8466208,22.340348 L19.6871712,22.340348 L19.6871712,25.3318495 L13.8466208,25.3318495 L13.8466208,30.8874949 L10.1428571,30.8874949 L10.1428571,16.4285714 L20.5418859,16.4285714 Z M28.3767705,16.4285714 L28.6698156,16.4400258 C31.9448652,16.6074025 33.6515812,18.051851 33.7899636,20.7733711 C33.7899636,23.0526103 32.7215702,24.5008768 30.5847835,25.1181708 L30.5847835,25.1181708 L34.7159045,30.8874949 L30.2286524,30.8874949 L26.9522461,25.4030757 L25.7414002,25.4030757 L25.7414002,30.8874949 L22.0376366,30.8874949 L22.0376366,16.4285714 L28.3767705,16.4285714 Z M47.1092675,16.4285714 L47.1092675,19.4200728 L40.2003238,19.4200728 L40.2003238,22.1978956 L46.6106839,22.1978956 L46.6106839,25.1181708 L40.2003238,25.1181708 L40.2003238,27.8959935 L47.3229462,27.8959935 L47.3229462,30.8874949 L36.4965601,30.8874949 L36.4965601,16.4285714 L47.1092675,16.4285714 Z M60.2148928,16.4285714 L60.2148928,19.4200728 L53.305949,19.4200728 L53.305949,22.1978956 L59.7163092,22.1978956 L59.7163092,25.1181708 L53.305949,25.1181708 L53.305949,27.8959935 L60.4285714,27.8959935 L60.4285714,30.8874949 L49.6021854,30.8874949 L49.6021854,16.4285714 L60.2148928,16.4285714 Z M28.2772799,19.2748747 L28.0918656,19.2776204 L25.7414002,19.2776204 L25.7414002,22.5540267 L28.0918656,22.5540267 C29.3739377,22.5065426 30.0387158,21.9604748 30.0861999,20.9158236 C30.0861999,19.776204 29.4214218,19.2301362 28.0918656,19.2776204 Z" id="形状结合"></path>
            </g>
        </g>
    </g>
</svg>