<?xml version="1.0" encoding="UTF-8"?>
<svg width="70px" height="60px" viewBox="0 0 70 60" version="1.1" xmlns="http://www.w3.org/2000/svg" xmlns:xlink="http://www.w3.org/1999/xlink">
    <title>查收邮件-深</title>
    <g id="查收邮件-深" stroke="none" stroke-width="1" fill="none" fill-rule="evenodd">
        <path d="M64.5909091,26.1818182 L58.3181818,20.7272727 L58.3181818,1.36363634 C58.3181818,0.545454525 57.7727273,0 56.9545455,0 L13.1818182,0 C12.3636364,0 11.8181818,0.545454525 11.8181818,1.36363634 L11.8181818,21.1363636 L5.54545452,26.1818182 C5.13636362,26.4545455 5,26.8636364 5,27.2727272 L5,58.6363637 C5,59.4545455 5.54545452,60 6.36363634,60 L63.6363637,60 C64.4545455,60 65,59.4545455 65,58.6363637 L65,27.2727272 C65,26.8636363 64.8636364,26.4545454 64.5909091,26.1818182 Z M58.2258065,24.1935484 L61.1290323,26.8817205 L58.2258065,29.0322581 L58.2258065,24.1935484 Z M14.6774194,2.90322581 L55.3225806,2.90322581 L55.3225806,31.0748848 L41.367742,40.6451613 L28.632258,40.6451613 L14.6774194,31.0748848 L14.6774194,2.90322581 Z M11.7741935,24.1935484 L11.7741935,29.0322581 L8.87096774,26.8202765 L11.7741935,24.1935484 Z M7.90322581,30 L26.2903226,42.4489107 L7.90322581,56.1290323 L7.90322581,30 Z M10.8064516,57.0967742 L29.0403226,43.5483871 L41.7903226,43.5483871 L60.1612903,57.0967742 L10.8064516,57.0967742 Z M62.0967742,56.1290323 L43.7096774,42.4489107 L62.0967742,30 L62.0967742,56.1290323 L62.0967742,56.1290323 Z M50.483871,23.2258065 L20.483871,23.2258065 L20.483871,26.1290323 L50.483871,26.1290323 L50.483871,23.2258065 Z M50.483871,16.4516129 L20.483871,16.4516129 L20.483871,19.3548387 L50.483871,19.3548387 L50.483871,16.4516129 Z M28.2258065,9.67741935 L20.483871,9.67741935 L20.483871,12.5806452 L28.2258065,12.5806452 L28.2258065,9.67741935 Z" id="形状" fill="#AFB1B3" fill-rule="nonzero"></path>
    </g>
</svg>