<?xml version="1.0" encoding="UTF-8"?>
<svg width="70px" height="70px" viewBox="0 0 70 70" version="1.1" xmlns="http://www.w3.org/2000/svg" xmlns:xlink="http://www.w3.org/1999/xlink">
    <title>深色-释放环境</title>
    <g id="切图" stroke="none" stroke-width="1" fill="none" fill-rule="evenodd">
        <g transform="translate(-377.000000, -111.000000)" fill="#E8E8E8" fill-rule="nonzero" id="深色-释放环境">
            <g transform="translate(377.000000, 111.000000)">
                <rect id="矩形" opacity="0" x="0" y="0" width="70" height="70"></rect>
                <path d="M64.75,5 C67.4285714,5 69.5714286,7.14285714 69.5714286,9.82142857 L69.5714286,48.3928571 C69.5714286,51.0714286 67.4285714,53.2142857 64.75,53.2142857 L43.145,53.214 L44.676,61.785 L50.5,61.7857143 C51.2058824,61.7857143 51.7219476,62.4500741 51.7802187,63.2428397 L51.7857143,63.3928571 C51.7857143,64.202381 51.2123016,64.916336 50.5167732,64.9931658 L50.3928571,65 L45.25,64.999 L45.25,65 L25.3214286,65 L25.321,64.999 L20.0714286,65 C19.3630952,65 18.7503307,64.3310185 18.684432,63.534612 L18.6785714,63.3928571 C18.6785714,62.5833333 19.2519841,61.8693783 19.9475125,61.7925485 L20.0714286,61.7857143 L25.895,61.785 L27.426,53.214 L5.82142857,53.2142857 C3.14285714,53.2142857 1,51.0714286 1,48.3928571 L1,9.82142857 C1,7.14285714 3.14285714,5 5.82142857,5 L64.75,5 Z M39.7857143,53.2142857 L30.6785714,53.2142857 L29.1785714,61.7857143 L41.3928571,61.7857143 L39.7857143,53.2142857 Z M66.3571429,44.6428571 L4.21428571,44.6428571 L4.21428571,48.3928571 C4.21428571,49.25 4.96428571,50 5.82142857,50 L64.75,50 C65.6071429,50 66.3571429,49.25 66.3571429,48.3928571 L66.3571429,44.6428571 Z M64.75,8.21428571 L5.82142857,8.21428571 C4.96428571,8.21428571 4.21428571,8.96428571 4.21428571,9.82142857 L4.21428571,41.4285714 L66.3571429,41.4285714 L66.3571429,9.82142857 C66.3571429,8.96428571 65.6071429,8.21428571 64.75,8.21428571 Z M23.99438,25.1057776 L28.8491818,25.1617451 C29.5920053,25.1703085 30.2011248,25.7834092 30.2096883,26.5311438 C30.2178236,27.2414916 29.6810304,27.817802 28.9904525,27.866315 L28.8801929,27.8695315 L26.718,27.845 L26.85627,28.1320642 C29.2312646,33.0084345 32.3721659,35.3333666 36.3704524,35.3333666 C40.4639363,35.3333666 43.658721,32.8964055 46.0529761,27.7794098 C46.36637,27.1096252 47.1765312,26.8147115 47.8625219,27.1207017 C48.5485126,27.4266919 48.8505619,28.2177137 48.537168,28.8874983 C45.7325714,34.881475 41.6442764,38 36.3704524,38 C31.4129715,38 27.5030605,35.2443752 24.7222616,29.9350291 L24.7509195,32.4515559 C24.7590548,33.1619037 24.2222617,33.7382141 23.5316837,33.7867271 L23.4214241,33.7899436 C22.7157418,33.7818083 22.1307273,33.2280781 22.066648,32.5316365 L22.0609177,32.4205448 L22.0001369,27.1133592 C21.9877857,26.0348958 22.8128035,25.1624024 23.8668358,25.1083022 L23.99438,25.1057776 Z M35.6876637,12 C40.4814047,12 44.2956331,14.5766006 47.0566224,19.5472509 L47.0338125,17.5481194 C47.0256772,16.8377715 47.5624704,16.2614612 48.2530484,16.2129481 L48.3633079,16.2097317 C49.0689903,16.217867 49.6540047,16.7715971 49.7180841,17.4680387 L49.7238144,17.5791304 L49.7845952,22.8863161 C49.7969463,23.9647794 48.9719285,24.8372729 47.9178963,24.8913731 L47.7903521,24.8938976 L42.9355502,24.8379302 C42.1927267,24.8293667 41.5836072,24.216266 41.5750438,23.4685315 C41.5669085,22.7581836 42.1037016,22.1818733 42.7942796,22.1333602 L42.9045392,22.1301438 L45.34,22.157 L45.2018462,21.8679358 C42.8268516,16.9915655 39.6859502,14.6666334 35.6876637,14.6666334 C31.5941799,14.6666334 28.3993952,17.1035945 26.0051401,22.2205902 C25.6917462,22.8903748 24.8815849,23.1852885 24.1955942,22.8792983 C23.5096036,22.5733081 23.2075542,21.7822863 23.5209481,21.1125017 C26.3255448,15.118525 30.4138398,12 35.6876637,12 Z" id="形状结合"></path>
            </g>
        </g>
    </g>
</svg>