<?xml version="1.0" encoding="UTF-8"?>
<svg width="16px" height="16px" viewBox="0 0 16 16" version="1.1" xmlns="http://www.w3.org/2000/svg" xmlns:xlink="http://www.w3.org/1999/xlink">
    <title>4.组件/2.通用/icon/tuning/新建</title>
    <desc>Created with Sketch.</desc>
    <g id="4.组件/2.通用/icon/tuning/新建" stroke="none" stroke-width="1" fill="none" fill-rule="evenodd">
        <rect id="BOX" fill="#979797" opacity="0" x="0" y="0" width="16" height="16"></rect>
        <path d="M14,1 C14.5522847,1 15,1.44771525 15,2 L15,14 C15,14.5522847 14.5522847,15 14,15 L2,15 C1.44771525,15 1,14.5522847 1,14 L1,2 C1,1.44771525 1.44771525,1 2,1 L14,1 Z M14,2 L2,2 L2,14 L14,14 L14,2 Z M8,3.5 C8.27614237,3.5 8.5,3.72385763 8.5,4 L8.5,7 L11.5,7 C11.7761424,7 12,7.22385763 12,7.5 C12,7.77614237 11.7761424,8 11.5,8 L8.499,8 L8.5,11 C8.5,11.2761424 8.27614237,11.5 8,11.5 C7.72385763,11.5 7.5,11.2761424 7.5,11 L7.5,8 L4.5,8 C4.22385763,8 4,7.77614237 4,7.5 C4,7.22385763 4.22385763,7 4.5,7 L7.5,7 L7.5,4 C7.5,3.72385763 7.72385763,3.5 8,3.5 Z" id="形状结合" fill="#979797"></path>
    </g>
</svg>