<?xml version="1.0" encoding="UTF-8"?>
<svg width="11px" height="12px" viewBox="0 0 11 12" version="1.1" xmlns="http://www.w3.org/2000/svg" xmlns:xlink="http://www.w3.org/1999/xlink">
    <title>编组 7</title>
    <desc>Created with Sketch.</desc>
    <g id="页面-1备份" stroke="none" stroke-width="1" fill="none" fill-rule="evenodd">
        <g id="28分析记录管理" transform="translate(-281.000000, -332.000000)">
            <g id="编组-7" transform="translate(280.000000, 332.000000)">
                <g id="编-辑">
                    <g id="编组-68"></g>
                    <g id="入住记录管理" transform="translate(1.000000, 0.000000)" fill="#CCCCCC">
                        <path d="M7.46991979,9.30481283 L2.17580214,9.30481283 C1.93516043,9.30481283 1.77473262,9.46524064 1.77473262,9.70588235 C1.77473262,9.94652406 1.93516043,10.1069519 2.17580214,10.1069519 L7.55013369,10.1069519 C7.7907754,10.1069519 7.95120321,9.94652406 7.95120321,9.70588235 C7.8709893,9.46524064 7.7105615,9.30481283 7.46991979,9.30481283 Z" id="路径"></path>
                        <path d="M8.59291444,11.9518717 L1.2934492,11.9518717 C0.571524064,11.9518717 0.010026738,11.3903743 0.010026738,10.6684492 L0.010026738,1.52406417 C0.010026738,0.802139037 0.571524064,0.240641711 1.2934492,0.240641711 L6.90842246,0.240641711 C7.14906417,0.240641711 7.30949198,0.401069519 7.30949198,0.64171123 C7.30949198,0.882352941 7.14906417,1.04278075 6.90842246,1.04278075 L1.2934492,1.04278075 C1.05280749,1.04278075 0.812165775,1.28342246 0.812165775,1.52406417 L0.812165775,10.6684492 C0.812165775,10.9090909 1.05280749,11.1497326 1.2934492,11.1497326 L8.59291444,11.1497326 C8.83355615,11.1497326 9.07419786,10.9090909 9.07419786,10.6684492 L9.07419786,5.37433155 C9.07419786,5.13368984 9.23462567,4.97326203 9.47526738,4.97326203 C9.71590909,4.97326203 9.8763369,5.13368984 9.8763369,5.37433155 L9.8763369,10.6684492 C9.8763369,11.3903743 9.31483957,11.9518717 8.59291444,11.9518717 Z" id="路径"></path>
                        <path d="M10.7586898,0.802139037 L10.1971925,0.240641711 C9.8763369,-0.0802139037 9.31483957,-0.0802139037 8.99398396,0.320855615 L4.26136364,5.13368984 L3.29879679,7.78074866 L5.94585561,6.81818182 L10.6784759,2.0855615 C10.8389037,1.92513369 10.9191176,1.68449198 10.9993316,1.52406417 C10.9993316,1.20320856 10.9191176,0.962566845 10.7586898,0.802139037 Z M5.46457219,6.09625668 L4.58221925,6.4171123 L4.90307487,5.53475936 L8.43248663,2.00534759 L8.99398396,2.56684492 L5.46457219,6.09625668 Z M10.1169786,1.52406417 L9.55548128,2.00534759 L8.99398396,1.44385027 L9.55548128,0.882352941 L9.63569519,0.802139037 L10.1169786,1.28342246 C10.1971925,1.44385027 10.1971925,1.44385027 10.1169786,1.52406417 Z" id="形状"></path>
                    </g>
                </g>
            </g>
        </g>
    </g>
</svg>