<?xml version="1.0" encoding="UTF-8"?>
<svg width="13px" height="12px" viewBox="0 0 13 12" version="1.1" xmlns="http://www.w3.org/2000/svg" xmlns:xlink="http://www.w3.org/1999/xlink">
    <title>容器-离线</title>
    <desc>Created with Sketch.</desc>
    <g id="页面-1备份" stroke="none" stroke-width="1" fill="none" fill-rule="evenodd">
        <g id="容器-离线" transform="translate(1.000000, 1.000000)">
            <g id="编组-12" transform="translate(0.000003, 0.000002)" fill="#FFFFFF" stroke="#FFFFFF" stroke-width="0.2">
                <path d="M7.5466421,6.31394089 C6.99700663,6.63655172 6.38346969,7.05019704 5.89687855,7.28014778 C5.70215934,7.37218719 5.64304604,7.22440394 5.65850417,7.02406897 C5.66911501,6.88680788 5.65850417,6.65706404 5.65900663,6.47336946 C5.66007067,6.12415764 5.6612825,5.72836453 5.65410023,5.34412808 C5.64919383,5.08600985 5.74537117,4.91608867 5.96595245,4.79322167 C6.22460269,4.64957635 6.47944013,4.50114286 6.69458299,4.37484729 L7.42090811,3.947133 C7.4501692,3.9300197 7.47931205,3.91361576 7.51608053,3.89307389 L7.74567658,3.76376355 L7.74496722,5.29819704 C7.74490811,5.50692611 7.74487855,5.72274877 7.74631041,5.93469951 C7.74739087,6.10810837 7.6802086,6.23573399 7.5466421,6.31394089 L7.5466421,6.31394089 Z M5.51329235,4.67112315 C5.44303619,4.67112315 5.37476033,4.6522069 5.31035639,4.61487685 L3.42212979,3.51395074 L4.10468151,3.11505419 C4.50600171,2.88031527 4.90336131,2.64802956 5.3010756,2.41639409 C5.43786378,2.33679803 5.5857357,2.3353202 5.71746969,2.41213793 C6.1675288,2.6737734 6.61714456,2.93614778 7.07187363,3.20159606 L7.60628742,3.51335961 L5.72669136,4.61070936 C5.65811993,4.65075862 5.58629727,4.67112315 5.51329235,4.67112315 L5.51329235,4.67112315 Z M5.38002141,7.4248867 L3.97918397,6.60720197 C3.83249432,6.52033498 3.68083915,6.43054187 3.53001156,6.34550739 C3.36558791,6.25264039 3.28209038,6.11741872 3.28191304,5.94359606 C3.28120368,5.54002956 3.28125097,5.1364335 3.28125097,4.73277833 C3.28125097,4.73277833 3.28144013,4.18006897 3.28144013,3.98809852 C3.28144013,3.82538916 3.42629727,3.85494581 3.5646224,3.92180296 C3.81940072,4.04499507 3.99706575,4.17590148 3.99706575,4.17590148 C4.34577511,4.38055172 4.74103619,4.61248276 5.12586378,4.83341872 C5.29741057,4.93207882 5.38073077,5.072 5.38052426,5.26125123 L5.38002141,7.4248867 Z M7.88414949,3.34861084 C7.03566673,2.85891626 6.32781452,2.44521182 5.65640565,2.04666995 C5.60276033,2.01483744 5.55786378,2 5.5150953,2 C5.4715288,2 5.42497708,2.01551724 5.3686421,2.04885714 C4.6562086,2.47139901 3.90650417,2.9093399 3.14042535,3.35041379 C3.03774555,3.40943842 2.99970614,3.47549754 3,3.59410837 C3.00236624,4.43141872 3.00242535,5.28572414 3.00017905,6.20582266 C2.99988348,6.32091626 3.03538102,6.38431527 3.13111501,6.43967488 C3.89110516,6.87927094 4.64926279,7.32259113 5.38454358,7.75731034 C5.47944998,7.8124335 5.55103619,7.81178325 5.64836624,7.75459113 C6.25953865,7.39494581 7.06658299,6.92106404 7.88902634,6.44526108 C7.99306575,6.38505419 8.03290811,6.31272906 8.03116427,6.18726108 C8.02714456,5.89698522 8.02779481,5.60183251 8.0284155,5.31646305 L8.02918397,4.89531034 L8.0284155,4.47448276 C8.02779481,4.18905419 8.02714456,3.89396059 8.03116427,3.60344828 C8.03290811,3.48238424 7.99167658,3.41094581 7.88414949,3.34861084 L7.88414949,3.34861084 Z" id="Fill-1"></path>
                <path d="M0.85773399,9.21071921 C0.487891626,9.21071921 0.327369458,9.08072906 0.327369458,8.71384236 L0.327369458,0.83929064 C0.327369458,0.472640394 0.584541872,0.340226601 0.854128079,0.340226601 L9.92427586,0.340226601 C10.3903842,0.340226601 10.5114778,0.553123153 10.5114778,0.940226601 L10.5111823,5.55138916 C10.6420887,5.47149754 10.6928079,5.40496552 10.8396749,5.35371429 L10.8394975,4.43388177 L10.8401478,0.637211823 C10.8401478,0.472669951 10.8325517,0.326748768 10.7382069,0.205004926 C10.6253892,0.0593793103 10.4749163,0 10.2185714,0 C8.52444335,0.00115270936 5.83146798,0.00115270936 4.13816749,0.000827586208 L0.540236453,0.000827586208 C0.174325123,0.000827586208 0,0.177073892 0,0.545054187 L0.000325123153,8.98076847 C0.000650246305,9.33600985 0.19746798,9.54000985 0.540236453,9.54033498 C3.24570443,9.54219704 4.65411527,9.54190148 7.35999704,9.54033498 C7.28412512,9.4086601 7.21776059,9.35773399 7.16999704,9.21071921 L0.85773399,9.21071921 Z" id="Fill-5"></path>
            </g>
            <path d="M10.0000195,6.33333333 C8.89715831,6.33333333 8,7.23046135 8,8.33333333 C8,9.43620531 8.89715831,10.3333333 10.0000195,10.3333333 C11.1028807,10.3333333 12,9.43620531 12,8.33333333 C12,7.23046135 11.1028807,6.33333333 10.0000195,6.33333333" id="Fill-7" fill="#ED4B4B"></path>
        </g>
    </g>
</svg>