<?xml version="1.0" encoding="UTF-8"?>
<svg width="16px" height="16px" viewBox="0 0 16 16" version="1.1" xmlns="http://www.w3.org/2000/svg" xmlns:xlink="http://www.w3.org/1999/xlink">
    <title>4.组件/2.通用/icon/tuning/目标环境管理</title>
    <desc>Created with Sketch.</desc>
    <g id="4.组件/2.通用/icon/tuning/目标环境管理" stroke="none" stroke-width="1" fill="none" fill-rule="evenodd">
        <rect id="BOX" fill="#979797" opacity="0" x="0" y="0" width="16" height="16"></rect>
        <path d="M9.05445022,1 C9.50415823,1 9.8985503,1.3001912 10.0183279,1.73365472 L10.476,3.391 L12.1410494,2.95920853 C12.5763286,2.84620722 13.0334978,3.03766517 13.2583518,3.42712373 L14.4972026,5.57287627 C14.7220566,5.96233483 14.6592795,6.45398399 14.3437779,6.77444619 L13.137,8 L12.1370001,8.00050001 C12.1368934,7.78582977 12.2054973,7.57113177 12.3428117,7.39216345 L12.4244561,7.29837251 L13.6311772,6.07287627 L12.3923264,3.92712373 L10.7270232,4.35898108 C10.2361084,4.48628831 9.73466612,4.22598552 9.54913612,3.7666361 L9.512078,3.65718485 L9.054,2 L6.5767486,2 L6.11774292,3.65783251 C5.98246586,4.14642481 5.50651297,4.45040705 5.01609023,4.38153505 L4.90280737,4.35893712 L3.23887239,3.92712373 L2.00002158,6.07287627 L3.20560623,7.29743578 C3.55911599,7.65650947 3.58652602,8.21602862 3.28768548,8.60618572 L3.20617836,8.69998261 L2.00002158,9.92712373 L3.23887239,12.0728763 L4.90226245,11.6402045 C5.39316052,11.5125148 5.89485992,11.7725491 6.08066298,12.2318684 L6.11778429,12.341317 L6.5767486,14 L7.999,14 L8,15 L6.5767486,15 C6.12704059,15 5.73264852,14.6998088 5.61287091,14.2663453 L5.154,12.608 L3.49014945,13.0407915 C3.05487023,13.1537928 2.59770099,12.9623348 2.37284699,12.5728763 L1.13399618,10.4271237 C0.909142172,10.0376652 0.971919346,9.54601601 1.28742096,9.22555381 L2.493,7.999 L1.28742096,6.77444619 C0.971919346,6.45398399 0.909142172,5.96233483 1.13399618,5.57287627 L2.37284699,3.42712373 C2.59770099,3.03766517 3.05487023,2.84620722 3.49014945,2.95920853 L5.154,3.391 L5.61287091,1.73365472 C5.73264852,1.3001912 6.12704059,1 6.5767486,1 L9.05445022,1 Z M14.5,14 C14.7761424,14 15,14.2238576 15,14.5 C15,14.7761424 14.7761424,15 14.5,15 L10.5,15 C10.2238576,15 10,14.7761424 10,14.5 C10,14.2238576 10.2238576,14 10.5,14 L14.5,14 Z M14.5,12 C14.7761424,12 15,12.2238576 15,12.5 C15,12.7761424 14.7761424,13 14.5,13 L10.5,13 C10.2238576,13 10,12.7761424 10,12.5 C10,12.2238576 10.2238576,12 10.5,12 L14.5,12 Z M14.5,10 C14.7761424,10 15,10.2238576 15,10.5 C15,10.7761424 14.7761424,11 14.5,11 L10.5,11 C10.2238576,11 10,10.7761424 10,10.5 C10,10.2238576 10.2238576,10 10.5,10 L14.5,10 Z M8,6 C9.1045695,6 10,6.8954305 10,8 L9,8 C9,7.44771525 8.55228475,7 8,7 C7.44771525,7 7,7.44771525 7,8 C7,8.55228475 7.44771525,9 8,9 L8,10 C6.8954305,10 6,9.1045695 6,8 C6,6.8954305 6.8954305,6 8,6 Z" id="形状结合" fill="#979797"></path>
    </g>
</svg>