<?xml version="1.0" encoding="UTF-8"?>
<svg width="16px" height="16px" viewBox="0 0 16 16" version="1.1" xmlns="http://www.w3.org/2000/svg" xmlns:xlink="http://www.w3.org/1999/xlink">
    <title>4.组件/2.通用/icon/tuning/导入</title>
    <desc>Created with Sketch.</desc>
    <g id="4.组件/2.通用/icon/tuning/导入" stroke="none" stroke-width="1" fill="none" fill-rule="evenodd">
        <rect id="BOX" fill="#979797" opacity="0" x="0" y="0" width="16" height="16"></rect>
        <g id="编组" transform="translate(0.500000, 0.500000)" fill="#979797">
            <path d="M7,0.5 C7.27614237,0.5 7.5,0.723857625 7.5,1 C7.5,1.24545989 7.32312484,1.44960837 7.08987563,1.49194433 L7,1.5 L2,1.5 C1.75454011,1.5 1.55039163,1.67687516 1.50805567,1.91012437 L1.5,2 L1.5,13 C1.5,13.2454599 1.67687516,13.4496084 1.91012437,13.4919443 L2,13.5 L13,13.5 C13.2454599,13.5 13.4496084,13.3231248 13.4919443,13.0898756 L13.5,13 L13.5,10 C13.5,9.72385763 13.7238576,9.5 14,9.5 C14.2454599,9.5 14.4496084,9.67687516 14.4919443,9.91012437 L14.5,10 L14.5,13 C14.5,13.7796961 13.9051119,14.4204487 13.14446,14.4931334 L13,14.5 L2,14.5 C1.22030388,14.5 0.579551322,13.9051119 0.506866578,13.14446 L0.5,13 L0.5,2 C0.5,1.22030388 1.09488808,0.579551322 1.85553999,0.506866578 L2,0.5 L7,0.5 Z M12.3535534,2.64644661 C12.5271197,2.82001296 12.5464049,3.08943736 12.4114088,3.2843055 L12.3535534,3.35355339 L7.206,8.5 L10,8.5 C10.2454599,8.5 10.4496084,8.67687516 10.4919443,8.91012437 L10.5,9 C10.5,9.24545989 10.3231248,9.44960837 10.0898756,9.49194433 L10,9.5 L6,9.5 L5.98043349,9.49961939 C5.96293275,9.49893824 5.94546098,9.49734289 5.92809589,9.49483331 L6,9.5 C5.96390296,9.5 5.92869933,9.49617485 5.89477235,9.48890777 C5.87952575,9.48560387 5.86416529,9.48155198 5.84898836,9.47675865 C5.83526315,9.4724419 5.82197493,9.46759155 5.80896344,9.46220776 C5.79546114,9.45664853 5.78172431,9.45025039 5.76824181,9.44319503 C5.75595333,9.43670666 5.74431753,9.42998066 5.73298968,9.42281199 C5.72116536,9.41539065 5.70939085,9.40722546 5.69790749,9.39849739 C5.68424576,9.38807975 5.67118132,9.3770608 5.65871357,9.36541125 C5.654675,9.36164305 5.65053422,9.357641 5.64644661,9.35355339 L5.63458875,9.34128643 C5.6229392,9.32881868 5.61192025,9.31575424 5.60158273,9.30214392 L5.64644661,9.35355339 C5.61961234,9.32671912 5.59646582,9.29759357 5.57700705,9.26680652 C5.57001934,9.25568247 5.56329334,9.24404667 5.55703434,9.23212724 C5.54974961,9.21827569 5.54335147,9.20453886 5.53761056,9.1905951 C5.53240845,9.17802507 5.5275581,9.16473685 5.52326842,9.15119917 C5.51844802,9.13583471 5.51439613,9.12047425 5.51108568,9.10498705 C5.51000217,9.10013861 5.50898955,9.09502084 5.50805567,9.08987563 L5.50546187,9.07391777 C5.5023875,9.05323734 5.500611,9.03240118 5.50013238,9.01154077 L5.5,9 L5.5,5 C5.5,4.72385763 5.72385763,4.5 6,4.5 C6.24545989,4.5 6.44960837,4.67687516 6.49194433,4.91012437 L6.5,5 L6.5,7.792 L11.6464466,2.64644661 C11.8417088,2.45118446 12.1582912,2.45118446 12.3535534,2.64644661 Z" id="形状结合"></path>
        </g>
    </g>
</svg>