<?xml version="1.0" encoding="UTF-8"?>
<svg width="14px" height="14px" viewBox="0 0 14 14" version="1.1" xmlns="http://www.w3.org/2000/svg" xmlns:xlink="http://www.w3.org/1999/xlink">
    <title>稍后启动任务</title>
    <g id="稍后启动任务" stroke="none" stroke-width="1" fill="none" fill-rule="evenodd">
        <path d="M9.60335304,8.46699252 L7.52700523,7.26576079 L7.52700523,3.98970624 C7.52700523,3.71325882 7.30290032,3.48915391 7.0264529,3.48915391 C6.75000549,3.48915391 6.52590058,3.71325882 6.52590058,3.98970624 L6.52590058,7.49521482 C6.52590058,7.68091305 6.75664499,7.83681509 6.90679896,7.922919 C6.94844323,7.98532675 7.0624664,8.0419864 7.13214722,8.08210567 L9.19676426,9.33413168 C9.43595484,9.47220295 9.69532236,9.3900875 9.83339362,9.15089691 C9.97146488,8.91170632 9.84289554,8.60529839 9.60311843,8.46699252 L9.60335304,8.46699252 Z" id="路径" fill="#CCCCCC" fill-rule="nonzero"></path>
        <path d="M7,0.5 C3.41014913,0.5 0.5,3.41014913 0.5,7 C0.5,10.5898509 3.41014913,13.5 7,13.5 C10.5898509,13.5 13.5,10.5898509 13.5,7 C13.5,3.41014913 10.5898509,0.5 7,0.5 Z M7,1.58333333 C9.99154239,1.58333333 12.4166667,4.00845761 12.4166667,7 C12.4166667,9.99154239 9.99154239,12.4166667 7,12.4166667 C4.00845761,12.4166667 1.58333333,9.99154239 1.58333333,7 C1.58333333,4.00845761 4.00845761,1.58333333 7,1.58333333 Z" id="椭圆形备份" fill="#CCCCCC" fill-rule="nonzero"></path>
    </g>
</svg>