<?xml version="1.0" encoding="UTF-8"?>
<svg width="14px" height="14px" viewBox="0 0 14 14" version="1.1" xmlns="http://www.w3.org/2000/svg" xmlns:xlink="http://www.w3.org/1999/xlink">
    <title>修改</title>
    <g id="修改" stroke="none" stroke-width="1" fill="none" fill-rule="evenodd">
        <path d="M11.831579,12.9995112 L2.13684211,12.9995112 C1.84367484,13.0084536 1.55915134,12.8943846 1.34592541,12.6824229 C1.13269947,12.4704611 1.00825665,12.1779886 1,11.8694094 L1,2.1305906 C1.00825665,1.82201143 1.13269947,1.52953885 1.34592541,1.31757712 C1.55915134,1.10561539 1.84367484,0.991546375 2.13684211,1.00048877 L7.31578947,1.00048877 C7.57739803,1.00048877 7.78947368,1.2237081 7.78947368,1.49906311 C7.78947368,1.77441811 7.57739803,1.99763745 7.31578947,1.99763745 L2.13684211,1.99763745 C2.04210526,1.99763745 1.94736842,2.06411403 1.94736842,2.1305906 L1.94736842,11.8361711 C1.96293703,11.9331744 2.04338486,12.0037369 2.13684211,12.0023626 L11.8631579,12.0023626 C11.9578947,12.0023626 12.0526316,11.935886 12.0526316,11.8694094 L12.0526316,5.55413442 C12.0526316,5.27877941 12.2647072,5.05556008 12.5263158,5.05556008 C12.7879244,5.05556008 13,5.27877941 13,5.55413442 L13,11.8361711 C12.9664104,12.4892887 12.452999,13.0004674 11.831579,12.9995112 L11.831579,12.9995112 Z" id="路径" fill="#979797" fill-rule="nonzero"></path>
        <path d="M5.55119563,9.99990703 C5.42101897,9.9982942 5.29392224,9.96232418 5.18430156,9.89607125 C4.97002951,9.70545632 4.93864369,9.39456556 5.11092274,9.16922079 L12.0452209,1.17386576 C12.2472769,0.971726535 12.576828,0.942117896 12.8156984,1.10464191 C13.0299705,1.29525684 13.0613563,1.60614761 12.8890773,1.83149237 L5.95477913,9.82684741 C5.85492207,9.93915023 5.70654536,10.0027753 5.55119563,9.99990703 L5.55119563,9.99990703 Z" id="路径" fill="#979797" fill-rule="nonzero"></path>
    </g>
</svg>