<?xml version="1.0" encoding="UTF-8"?>
<svg width="13px" height="12px" viewBox="0 0 13 12" version="1.1" xmlns="http://www.w3.org/2000/svg" xmlns:xlink="http://www.w3.org/1999/xlink">
    <title>物理-创建中</title>
    <desc>Created with Sketch.</desc>
    <g id="页面-1备份" stroke="none" stroke-width="1" fill="none" fill-rule="evenodd">
        <g id="物理-创建中" transform="translate(1.000000, 1.000000)">
            <g id="编组-11" fill="#FFFFFF" stroke="#FFFFFF" stroke-width="0.2">
                <path d="M10.3862896,0.349871738 C10.4607831,0.349871738 10.5211574,0.416158332 10.5211574,0.497877709 L10.5211574,3.70212229 C10.5211574,3.78387266 10.4607831,3.85009727 10.3862896,3.85009727 L0.453682201,3.85009727 C0.379188634,3.85009727 0.318814393,3.78387266 0.318814393,3.70212229 L0.318814393,0.497877709 C0.318814393,0.416158332 0.379188634,0.349871738 0.453682201,0.349871738 L10.3862896,0.349871738 Z M10.3862896,4.2 C10.6368511,4.2 10.84,3.97709235 10.84,3.70212229 L10.84,0.497877709 C10.84,0.222907654 10.6368511,0 10.3862896,0 L0.453682201,0 C0.203120632,0 0,0.222907654 0,0.497877709 L0,3.70212229 C0,3.97709235 0.203120632,4.2 0.453682201,4.2 L10.3862896,4.2 Z" id="Fill-1"></path>
                <path d="M1.33290418,1.8 C1.5167371,1.8 1.66580835,1.94904177 1.66580835,2.13287469 C1.66580835,2.31670762 1.5167371,2.46574939 1.33290418,2.46574939 C1.14907125,2.46574939 1,2.31670762 1,2.13287469 C1,1.94904177 1.14907125,1.8 1.33290418,1.8" id="Fill-3"></path>
                <path d="M1.33290418,7.1 C1.5167371,7.1 1.66580835,7.24904177 1.66580835,7.43287469 C1.66580835,7.61670762 1.5167371,7.76574939 1.33290418,7.76574939 C1.14907125,7.76574939 1,7.61670762 1,7.43287469 C1,7.24904177 1.14907125,7.1 1.33290418,7.1" id="Fill-7"></path>
                <path d="M7.46766585,9.19009727 L0.477493857,9.19009727 C0.397651106,9.19009727 0.332874693,9.12204428 0.332874693,9.03809365 L0.332874693,5.84190635 C0.332874693,5.75792473 0.397651106,5.68987174 0.477493857,5.68987174 L9.53875184,5.68987174 C9.57917445,5.68987174 9.88171007,5.43324748 10,5.34 C9.55555556,5.34 9.22222222,5.34 9,5.34 C6.88388752,5.34 4.04305214,5.34 0.477493857,5.34 C0.213788698,5.34 0,5.56470505 0,5.84190635 L0,9.03809365 C0,9.31529495 0.213788698,9.54 0.477493857,9.54 L7.65211794,9.54 L7.46766585,9.19009727 Z" id="Fill-9"></path>
            </g>
            <path d="M9.99998032,6.33333333 C11.1045634,6.33333333 12,7.22876994 12,8.33335302 C12,9.43789673 11.1045634,10.3333333 9.99998032,10.3333333 C8.89539724,10.3333333 8,9.43789673 8,8.33335302 C8,7.22876994 8.89539724,6.33333333 9.99998032,6.33333333" id="Fill-13" fill="#AAAAAA"></path>
        </g>
    </g>
</svg>