<?xml version="1.0" encoding="UTF-8"?>
<svg width="14px" height="14px" viewBox="0 0 14 14" version="1.1" xmlns="http://www.w3.org/2000/svg" xmlns:xlink="http://www.w3.org/1999/xlink">
    <title>重新分析</title>
    <g id="重新分析" stroke="none" stroke-width="1" fill="none" fill-rule="evenodd">
        <path d="M7,0.5 C10.3137085,0.5 13,3.1862915 13,6.5 C13,8.0207434 12.4313355,9.45399628 11.4245319,10.5526425 C11.2379647,10.7562287 10.921683,10.7700253 10.7180969,10.5834582 C10.5145107,10.396891 10.5007141,10.0806093 10.6872812,9.87702318 C11.5266966,8.9610347 12,7.76812836 12,6.5 C12,3.73857625 9.76142375,1.5 7,1.5 C4.23857625,1.5 2,3.73857625 2,6.5 C2,9.26142375 4.23857625,11.5 7,11.5 C7.27614237,11.5 7.5,11.7238576 7.5,12 C7.5,12.2761424 7.27614237,12.5 7,12.5 C3.6862915,12.5 1,9.8137085 1,6.5 C1,3.1862915 3.6862915,0.5 7,0.5 Z" id="路径" fill="#979797" fill-rule="nonzero"></path>
        <path d="M2.71576335,10.6987389 C2.90803852,10.5005348 3.22458453,10.4957284 3.42278864,10.6880036 C3.59897007,10.8589148 3.6223434,11.1280154 3.49032139,11.3249106 L3.43352393,11.3950289 L1.69279895,13.1894303 C1.50052377,13.3876344 1.18397777,13.3924408 0.98577366,13.2001656 C0.809592229,13.0292543 0.786218902,12.7601538 0.918240907,12.5632586 L0.975038369,12.4931403 L2.71576335,10.6987389 Z" id="路径-18" fill="#979797" fill-rule="nonzero"></path>
        <path d="M12.4883867,10.4037321 C12.7644545,10.3973183 12.9934512,10.615916 12.9998651,10.8919839 C13.0055663,11.1373776 12.8334806,11.3455792 12.6012776,11.3933214 L12.5116133,11.4034624 L10.6116133,11.447605 C10.3355455,11.4540189 10.1065488,11.2354211 10.1001349,10.9593532 C10.0944337,10.7139596 10.2665194,10.5057579 10.4987224,10.4580158 L10.5883867,10.4478748 L12.4883867,10.4037321 Z" id="路径-18备份" fill="#979797" fill-rule="nonzero"></path>
        <path d="M9.85996237,8.52001098 C10.0955985,8.45126374 10.3411149,8.56388307 10.4470838,8.77593993 L10.479989,8.85996237 L11.0401395,10.7799185 C11.1174802,11.0450091 10.9652787,11.3226045 10.7001881,11.3999451 C10.464552,11.4686924 10.2190356,11.356073 10.1130667,11.1440162 L10.0801615,11.0599937 L9.52001098,9.14003763 C9.44267033,8.87494701 9.59487176,8.59735162 9.85996237,8.52001098 Z" id="路径-18备份" fill="#979797" fill-rule="nonzero"></path>
    </g>
</svg>