<?xml version="1.0" encoding="UTF-8"?>
<svg width="14px" height="14px" viewBox="0 0 14 14" version="1.1" xmlns="http://www.w3.org/2000/svg" xmlns:xlink="http://www.w3.org/1999/xlink">
    <title>预约任务</title>
    <g id="预约任务" stroke="none" stroke-width="1" fill="none" fill-rule="evenodd">
        <path d="M10,6 C8.06700338,6 6.5,7.56700338 6.5,9.5 C6.5,11.4329966 8.06700338,13 10,13 C11.9329966,13 13.5,11.4329966 13.5,9.5 C13.5,7.56700338 11.9329966,6 10,6 Z M10,7 C11.3807119,7 12.5,8.11928813 12.5,9.5 C12.5,10.8807119 11.3807119,12 10,12 C8.61928813,12 7.5,10.8807119 7.5,9.5 C7.5,8.11928813 8.61928813,7 10,7 Z" id="椭圆形" fill="#CCCCCC" fill-rule="nonzero"></path>
        <path d="M12,1 C12.2454599,1 12.4496084,1.17687516 12.4919443,1.41012437 L12.5,1.5 L12.5,5.32608696 C12.5,5.60222933 12.2761424,5.82608696 12,5.82608696 C11.7545401,5.82608696 11.5503916,5.6492118 11.5080557,5.41596259 L11.5,5.32608696 L11.5,2 L2.5,2 L2.5,12 L6,12 C6.24545989,12 6.44960837,12.1768752 6.49194433,12.4101244 L6.5,12.5 C6.5,12.7454599 6.32312484,12.9496084 6.08987563,12.9919443 L6,13 L2,13 C1.75454011,13 1.55039163,12.8231248 1.50805567,12.5898756 L1.5,12.5 L1.5,1.5 C1.5,1.25454011 1.67687516,1.05039163 1.91012437,1.00805567 L2,1 L12,1 Z" id="路径-21" fill="#CCCCCC" fill-rule="nonzero"></path>
        <path d="M9,3.5 C9.27614237,3.5 9.5,3.72385763 9.5,4 C9.5,4.24545989 9.32312484,4.44960837 9.08987563,4.49194433 L9,4.5 L4,4.5 C3.72385763,4.5 3.5,4.27614237 3.5,4 C3.5,3.75454011 3.67687516,3.55039163 3.91012437,3.50805567 L4,3.5 L9,3.5 Z" id="路径-22" fill="#CCCCCC" fill-rule="nonzero"></path>
        <path d="M6,6.5 C6.27614237,6.5 6.5,6.72385763 6.5,7 C6.5,7.24545989 6.32312484,7.44960837 6.08987563,7.49194433 L6,7.5 L4,7.5 C3.72385763,7.5 3.5,7.27614237 3.5,7 C3.5,6.75454011 3.67687516,6.55039163 3.91012437,6.50805567 L4,6.5 L6,6.5 Z" id="路径-22备份" fill="#CCCCCC" fill-rule="nonzero"></path>
        <path d="M5,9.5 C5.27614237,9.5 5.5,9.72385763 5.5,10 C5.5,10.2454599 5.32312484,10.4496084 5.08987563,10.4919443 L5,10.5 L4,10.5 C3.72385763,10.5 3.5,10.2761424 3.5,10 C3.5,9.75454011 3.67687516,9.55039163 3.91012437,9.50805567 L4,9.5 L5,9.5 Z" id="路径-22备份-2" fill="#CCCCCC" fill-rule="nonzero"></path>
        <path d="M9.8,7.7 C10.0454599,7.7 10.2496084,7.87687516 10.2919443,8.11012437 L10.3,8.2 L10.299,9.2 L10.8,9.2 C11.0454599,9.2 11.2496084,9.37687516 11.2919443,9.61012437 L11.3,9.7 C11.3,9.94545989 11.1231248,10.1496084 10.8898756,10.1919443 L10.8,10.2 L9.8,10.2 C9.55454011,10.2 9.35039163,10.0231248 9.30805567,9.78987563 L9.3,9.7 L9.3,8.2 C9.3,7.92385763 9.52385763,7.7 9.8,7.7 Z" id="路径-23" fill="#CCCCCC" fill-rule="nonzero"></path>
    </g>
</svg>