<?xml version="1.0" encoding="UTF-8"?>
<svg width="14px" height="14px" viewBox="0 0 14 14" version="1.1" xmlns="http://www.w3.org/2000/svg" xmlns:xlink="http://www.w3.org/1999/xlink">
    <title>停止分析</title>
    <g id="停止分析" stroke="none" stroke-width="1" fill="none" fill-rule="evenodd">
        <path d="M7,0.5 C3.41014913,0.5 0.5,3.41014913 0.5,7 C0.5,10.5898509 3.41014913,13.5 7,13.5 C10.5898509,13.5 13.5,10.5898509 13.5,7 C13.5,3.41014913 10.5898509,0.5 7,0.5 Z M7,1.58333333 C9.99154239,1.58333333 12.4166667,4.00845761 12.4166667,7 C12.4166667,9.99154239 9.99154239,12.4166667 7,12.4166667 C4.00845761,12.4166667 1.58333333,9.99154239 1.58333333,7 C1.58333333,4.00845761 4.00845761,1.58333333 7,1.58333333 Z" id="椭圆形" fill="#979797" fill-rule="nonzero"></path>
        <path d="M7.58333333,6.5 C7.81345198,6.5 8,6.72385763 8,7 C8,7.24545989 7.85260403,7.44960837 7.65822969,7.49194433 L7.58333333,7.5 L3.41666667,7.5 C3.18654802,7.5 3,7.27614237 3,7 C3,6.75454011 3.14739597,6.55039163 3.34177031,6.50805567 L3.41666667,6.5 L7.58333333,6.5 Z" id="路径-22备份-3" fill="#979797" fill-rule="nonzero" transform="translate(5.500000, 7.000000) rotate(-90.000000) translate(-5.500000, -7.000000) "></path>
        <path d="M10.5833333,6.5 C10.813452,6.5 11,6.72385763 11,7 C11,7.24545989 10.852604,7.44960837 10.6582297,7.49194433 L10.5833333,7.5 L6.41666667,7.5 C6.18654802,7.5 6,7.27614237 6,7 C6,6.75454011 6.14739597,6.55039163 6.34177031,6.50805567 L6.41666667,6.5 L10.5833333,6.5 Z" id="路径-22备份-4" fill="#979797" fill-rule="nonzero" transform="translate(8.500000, 7.000000) rotate(-90.000000) translate(-8.500000, -7.000000) "></path>
    </g>
</svg>