<?xml version="1.0" encoding="UTF-8"?>
<svg width="16px" height="16px" viewBox="0 0 16 16" version="1.1" xmlns="http://www.w3.org/2000/svg" xmlns:xlink="http://www.w3.org/1999/xlink">
    <title>4.组件/2.通用/icon/tuning/停止</title>
    <desc>Created with Sketch.</desc>
    <g id="4.组件/2.通用/icon/tuning/停止" stroke="none" stroke-width="1" fill="none" fill-rule="evenodd">
        <rect id="BOX" fill="#979797" opacity="0" x="1" y="1" width="14" height="14"></rect>
        <g id="停止分析">
            <rect id="BOX" fill="#979797" fill-rule="nonzero" opacity="0" x="0" y="0" width="16" height="16"></rect>
            <path d="M10.2781746,1 C10.6759993,1 11.0575302,1.15803526 11.3388348,1.43933983 L11.3388348,1.43933983 L14.5606602,4.66116523 C14.8419647,4.9424698 15,5.32400067 15,5.7218254 L15,5.7218254 L15,10.2781746 C15,10.6759993 14.8419647,11.0575302 14.5606602,11.3388348 L14.5606602,11.3388348 L11.3388348,14.5606602 C11.0575302,14.8419647 10.6759993,15 10.2781746,15 L10.2781746,15 L5.7218254,15 C5.32400067,15 4.9424698,14.8419647 4.66116523,14.5606602 L4.66116523,14.5606602 L1.43933983,11.3388348 C1.15803526,11.0575302 1,10.6759993 1,10.2781746 L1,10.2781746 L1,5.7218254 C1,5.32400067 1.15803526,4.9424698 1.43933983,4.66116523 L1.43933983,4.66116523 L4.66116523,1.43933983 C4.9424698,1.15803526 5.32400067,1 5.7218254,1 L5.7218254,1 Z M10.2781746,2 L5.7218254,2 C5.58921716,2 5.4620402,2.05267842 5.36827201,2.14644661 L5.36827201,2.14644661 L2.14644661,5.36827201 C2.05267842,5.4620402 2,5.58921716 2,5.7218254 L2,5.7218254 L2,10.2781746 C2,10.4107828 2.05267842,10.5379598 2.14644661,10.631728 L2.14644661,10.631728 L5.36827201,13.8535534 C5.4620402,13.9473216 5.58921716,14 5.7218254,14 L5.7218254,14 L10.2781746,14 C10.4107828,14 10.5379598,13.9473216 10.631728,13.8535534 L10.631728,13.8535534 L13.8535534,10.631728 C13.9473216,10.5379598 14,10.4107828 14,10.2781746 L14,10.2781746 L14,5.7218254 C14,5.58921716 13.9473216,5.4620402 13.8535534,5.36827201 L13.8535534,5.36827201 L10.631728,2.14644661 C10.5379598,2.05267842 10.4107828,2 10.2781746,2 L10.2781746,2 Z M5.75735931,5.05025253 L8,7.293 L10.2426407,5.05025253 C10.4379028,4.85499039 10.7544853,4.85499039 10.9497475,5.05025253 C11.1450096,5.24551467 11.1450096,5.56209717 10.9497475,5.75735931 L8.707,8 L10.9497475,10.2426407 C11.1450096,10.4379028 11.1450096,10.7544853 10.9497475,10.9497475 C10.7544853,11.1450096 10.4379028,11.1450096 10.2426407,10.9497475 L8,8.707 L5.75735931,10.9497475 C5.56209717,11.1450096 5.24551467,11.1450096 5.05025253,10.9497475 C4.85499039,10.7544853 4.85499039,10.4379028 5.05025253,10.2426407 L7.293,8 L5.05025253,5.75735931 C4.85499039,5.56209717 4.85499039,5.24551467 5.05025253,5.05025253 C5.24551467,4.85499039 5.56209717,4.85499039 5.75735931,5.05025253 Z" id="形状结合" fill="#979797"></path>
            <g id="编组-14" transform="translate(4.000000, 4.500000)"></g>
        </g>
    </g>
</svg>