<?xml version="1.0" encoding="UTF-8"?>
<svg width="16px" height="16px" viewBox="0 0 16 16" version="1.1" xmlns="http://www.w3.org/2000/svg" xmlns:xlink="http://www.w3.org/1999/xlink">
    <title>4.组件/2.通用/icon/tuning/查看关联报告</title>
    <g id="4.组件/2.通用/icon/tuning/查看关联报告" stroke="none" stroke-width="1" fill="none" fill-rule="evenodd">
        <rect id="BOX" fill="#CCCCCC" opacity="0" x="0" y="0" width="16" height="16"></rect>
        <path d="M10,6 L10,7 L5.5,7 C5.25454011,7 5.05039163,7.17687516 5.00805567,7.41012437 L5,
        7.5 L5,13.5 C5,13.7454599 5.17687516,13.9496084 5.41012437,13.9919443 L5.5,
        14 L13.5,14 C13.7454599,14 13.9496084,13.8231248 13.9919443,13.5898756 L14,
        13.5 L14,7.5 C14,7.25454011 13.8231248,7.05039163 13.5898756,7.00805567 L13.5,7 L13,7 L13,
        6 L13.5,6 C14.2796961,6 14.9204487,6.59488808 14.9931334,7.35553999 L15,7.5 L15,13.5 C15,
        14.2796961 14.4051119,14.9204487 13.64446,14.9931334 L13.5,15 L5.5,15 C4.72030388,15 4.07955132,
        14.4051119 4.00686658,13.64446 L4,13.5 L4,7.5 C4,6.72030388 4.59488808,6.07955132 5.35553999,
        6.00686658 L5.5,6 L10,6 Z M10.5,1 C11.2796961,1 11.9204487,1.59488808 11.9931334,2.35553999 L12,
        2.5 L12,8.5 C12,9.27969612 11.4051119,9.92044868 10.64446,9.99313342 L10.5,10 L6,10 L6,9 L10.5,
        9 C10.7454599,9 10.9496084,8.82312484 10.9919443,8.58987563 L11,8.5 L11,2.5 C11,2.25454011 10.8231248,
        2.05039163 10.5898756,2.00805567 L10.5,2 L2.5,2 C2.25454011,2 2.05039163,2.17687516 2.00805567,
        2.41012437 L2,2.5 L2,8.5 C2,8.74545989 2.17687516,8.94960837 2.41012437,8.99194433 L2.5,9 L3,
        9 L3,10 L2.5,10 C1.72030388,10 1.07955132,9.40511192 1.00686658,8.64446001 L1,8.5 L1,2.5 C1,
        1.72030388 1.59488808,1.07955132 2.35553999,1.00686658 L2.5,1 L10.5,1 Z" id="形状结合" fill="#CCCCCC"></path>
    </g>
</svg>