<?xml version="1.0" encoding="UTF-8"?>
<svg width="16px" height="16px" viewBox="0 0 16 16" version="1.1" xmlns="http://www.w3.org/2000/svg" xmlns:xlink="http://www.w3.org/1999/xlink">
    <title>4.组件/2.通用/icon/tuning/删除</title>
    <desc>Created with Sketch.</desc>
    <g id="4.组件/2.通用/icon/tuning/删除" stroke="none" stroke-width="1" fill="none" fill-rule="evenodd">
        <rect id="BOX" fill="#D8D8D8" opacity="0" x="0" y="0" width="16" height="16"></rect>
        <path d="M12.4444444,5 C12.7171777,5 12.9440093,5.19652796 12.9910493,5.45569374 L13,5.55555556 L13,13.3333333 C13,14.1996624 12.3390132,14.9116096 11.4938445,14.9923705 L11.3333333,15 L4.66666667,15 C3.80033765,15 3.08839036,14.3390132 3.00762953,13.4938445 L3,13.3333333 L3,5.55555556 C3,5.24873069 3.24873069,5 3.55555556,5 C3.82828877,5 4.05512041,5.19652796 4.10216037,5.45569374 L4.11111111,5.55555556 L4.11111111,13.3333333 C4.11111111,13.6060665 4.30763907,13.8328982 4.56680485,13.8799381 L4.66666667,13.8888889 L11.3333333,13.8888889 C11.6060665,13.8888889 11.8328982,13.6923609 11.8799381,13.4331951 L11.8888889,13.3333333 L11.8888889,5.55555556 C11.8888889,5.24873069 12.1376196,5 12.4444444,5 Z M9.5,5.5 C9.74545989,5.5 9.94960837,5.67687516 9.99194433,5.91012437 L10,6 L10,12 C10,12.2761424 9.77614237,12.5 9.5,12.5 C9.25454011,12.5 9.05039163,12.3231248 9.00805567,12.0898756 L9,12 L9,6 C9,5.72385763 9.22385763,5.5 9.5,5.5 Z M6.5,5.5 C6.74545989,5.5 6.94960837,5.67687516 6.99194433,5.91012437 L7,6 L7,12 C7,12.2761424 6.77614237,12.5 6.5,12.5 C6.25454011,12.5 6.05039163,12.3231248 6.00805567,12.0898756 L6,12 L6,6 C6,5.72385763 6.22385763,5.5 6.5,5.5 Z M13.4545455,3 C13.7557917,3 14,3.22385763 14,3.5 C14,3.74545989 13.8070453,3.94960837 13.5525916,3.99194433 L13.4545455,4 L2.54545455,4 C2.24420832,4 2,3.77614237 2,3.5 C2,3.25454011 2.19295472,3.05039163 2.4474084,3.00805567 L2.54545455,3 L13.4545455,3 Z M10.4,1 C10.7313708,1 11,1.22385763 11,1.5 C11,1.74545989 10.7877498,1.94960837 10.5078508,1.99194433 L10.4,2 L5.6,2 C5.26862915,2 5,1.77614237 5,1.5 C5,1.25454011 5.21225019,1.05039163 5.49214924,1.00805567 L5.6,1 L10.4,1 Z" id="形状结合" fill="#CCCCCC"></path>
    </g>
</svg>