<?xml version="1.0" encoding="UTF-8"?>
<svg width="16px" height="16px" viewBox="0 0 16 16" version="1.1" xmlns="http://www.w3.org/2000/svg" xmlns:xlink="http://www.w3.org/1999/xlink">
    <title>4.组件/2.通用/icon/tuning/导出</title>
    <desc>Created with Sketch.</desc>
    <g id="4.组件/2.通用/icon/tuning/导出" stroke="none" stroke-width="1" fill="none" fill-rule="evenodd">
        <g id="编组">
            <rect id="BOX" fill="#D8D8D8" opacity="0" x="0" y="0" width="16" height="16"></rect>
            <path d="M5.5,1 C5.77614237,1 6,1.22385763 6,1.5 C6,1.74545989 5.82312484,1.94960837 5.58987563,1.99194433 L5.5,2 L2.5,2 C2.25454011,2 2.05039163,2.17687516 2.00805567,2.41012437 L2,2.5 L2,13.5 C2,13.7454599 2.17687516,13.9496084 2.41012437,13.9919443 L2.5,14 L13.5,14 C13.7454599,14 13.9496084,13.8231248 13.9919443,13.5898756 L14,13.5 L14,11.5 C14,11.2238576 14.2238576,11 14.5,11 C14.7454599,11 14.9496084,11.1768752 14.9919443,11.4101244 L15,11.5 L15,13.5 C15,14.2796961 14.4051119,14.9204487 13.64446,14.9931334 L13.5,15 L2.5,15 C1.72030388,15 1.07955132,14.4051119 1.00686658,13.64446 L1,13.5 L1,2.5 C1,1.72030388 1.59488808,1.07955132 2.35553999,1.00686658 L2.5,1 L5.5,1 Z M14.5,1 L14.5115408,1.00013238 C14.5324012,1.000611 14.5532373,1.0023875 14.5739178,1.00546187 L14.5,1 C14.536097,1 14.5713007,1.00382515 14.6052277,1.01109223 C14.6204743,1.01439613 14.6358347,1.01844802 14.6510116,1.02324135 C14.6647369,1.0275581 14.6780251,1.03240845 14.6910366,1.03779224 C14.7045389,1.04335147 14.7182757,1.04974961 14.7317582,1.05680497 C14.7440467,1.06329334 14.7556825,1.07001934 14.7670103,1.07718801 C14.7788346,1.08460935 14.7906092,1.09277454 14.8020925,1.10150261 C14.8157542,1.11192025 14.8288187,1.1229392 14.8412864,1.13458875 C14.845325,1.13835695 14.8494658,1.142359 14.8535534,1.14644661 L14.8654113,1.15871357 C14.8770608,1.17118132 14.8880797,1.18424576 14.8984173,1.19785608 L14.8535534,1.14644661 C14.8789603,1.17185353 14.9010614,1.19931445 14.9198565,1.22829485 C14.9279221,1.24078159 14.9357539,1.2541389 14.9429657,1.26787276 C14.9495913,1.28046473 14.9554473,1.29289667 14.9607632,1.30550233 C14.9665648,1.3191819 14.9719906,1.33383901 14.9767316,1.34880083 C14.9812433,1.36318793 14.9850789,1.37754815 14.9882655,1.39202251 C14.9895896,1.39781538 14.9908237,1.40395012 14.9919443,1.41012437 L14.9948333,1.42809589 C14.9973429,1.44546098 14.9989382,1.46293275 14.9996194,1.48043349 L15,1.5 L15,5.5 C15,5.77614237 14.7761424,6 14.5,6 C14.2545401,6 14.0503916,5.82312484 14.0080557,5.58987563 L14,5.5 L14,2.706 L7.85355339,8.85355339 C7.65829124,9.04881554 7.34170876,9.04881554 7.14644661,8.85355339 C6.97288026,8.67998704 6.95359511,8.41056264 7.08859116,8.2156945 L7.14644661,8.14644661 L13.292,2 L10.5,2 C10.2545401,2 10.0503916,1.82312484 10.0080557,1.58987563 L10,1.5 C10,1.25454011 10.1768752,1.05039163 10.4101244,1.00805567 L10.5,1 L14.5,1 Z" id="形状结合" fill="#CCCCCC"></path>
        </g>
    </g>
</svg>