<?xml version="1.0" encoding="UTF-8"?>
<svg width="12px" height="14px" viewBox="0 0 12 14" version="1.1" xmlns="http://www.w3.org/2000/svg" xmlns:xlink="http://www.w3.org/1999/xlink">
    <title>导入的工程</title>
    <g id="控件" stroke="none" stroke-width="1" fill="none" fill-rule="evenodd">
        <g id="1.框架/3.内部框架/4.sidebar/3.有数据" transform="translate(-43.000000, -392.000000)">
            <g id="编组-2备份-22" transform="translate(16.000000, 387.000000)">
                <g id="编组" transform="translate(25.000000, 4.000000)">
                    <rect id="BOX" fill="#D8D8D8" opacity="0" x="0" y="0" width="16" height="16"></rect>
                    <g id="编组备份-2" transform="translate(2.000000, 1.000000)" fill="#CCCCCC">
                        <path d="M6,0 C6.27614237,0 6.5,0.223857625 6.5,0.5 C6.5,0.745459889 6.32312484,0.94960837 6.08987563,0.991944331 L6,1 L1.5,1 C1.25454011,1 1.05039163,1.17687516 1.00805567,1.41012437 L1,1.5 L1,12.5 C1,12.7454599 1.17687516,12.9496084 1.41012437,12.9919443 L1.5,13 L10.5,13 C10.7454599,13 10.9496084,12.8231248 10.9919443,12.5898756 L11,12.5 L11,9.5 C11,9.22385763 11.2238576,9 11.5,9 C11.7454599,9 11.9496084,9.17687516 11.9919443,9.41012437 L12,9.5 L12,12.5 C12,13.2796961 11.4051119,13.9204487 10.64446,13.9931334 L10.5,14 L1.5,14 C0.720303883,14 0.0795513218,13.4051119 0.00686657806,12.64446 L0,12.5 L0,1.5 C0,0.720303883 0.594888083,0.0795513218 1.35553999,0.00686657806 L1.5,0 L6,0 Z M7.5,10 C7.77614237,10 8,10.2238576 8,10.5 C8,10.7761424 7.77614237,11 7.5,11 L3.5,11 C3.22385763,11 3,10.7761424 3,10.5 C3,10.2238576 3.22385763,10 3.5,10 L7.5,10 Z M9.70142687,1.99378165 L9.9220834,2.00200978 C9.96805978,2.00485728 9.9988245,2.0075929 10.0243451,2.01040325 C10.29872,2.04159698 10.4958572,2.28930926 10.4646635,2.56368412 C10.4369358,2.80757288 10.2381316,2.99043441 10.001593,3.00615098 L9.86026801,3.00009738 C9.362638,2.96927725 8.7502339,3.04503262 8.17550261,3.31197653 C7.06881425,3.82599712 6.42078492,4.91184547 6.46229017,6.82862406 L7.64644661,5.64644661 C7.82001296,5.47288026 8.08943736,5.45359511 8.2843055,5.58859116 L8.35355339,5.64644661 C8.52711974,5.82001296 8.54640489,6.08943736 8.41140884,6.2843055 L8.35355339,6.35355339 L6.35355339,8.35355339 C6.17998704,8.52711974 5.91056264,8.54640489 5.7156945,8.41140884 L5.64644661,8.35355339 L3.64644661,6.35355339 C3.45118446,6.15829124 3.45118446,5.84170876 3.64644661,5.64644661 C3.82001296,5.47288026 4.08943736,5.45359511 4.2843055,5.58859116 L4.35355339,5.64644661 L5.46205147,6.75399554 C5.44276354,4.50075998 6.29769151,3.08155701 7.7542558,2.40503049 C8.42039945,2.09562853 9.10218116,1.98606893 9.70142687,1.99378165 Z" id="形状结合"></path>
                    </g>
                </g>
            </g>
        </g>
    </g>
</svg>