<?xml version="1.0" encoding="UTF-8"?>
<svg width="16px" height="16px" viewBox="0 0 16 16" version="1.1" xmlns="http://www.w3.org/2000/svg" xmlns:xlink="http://www.w3.org/1999/xlink">
    <title>4.组件/2.通用/icon/tuning/再次分析</title>
    <g id="4.组件/2.通用/icon/tuning/再次分析" stroke="none" stroke-width="1" fill="none" fill-rule="evenodd">
        <rect id="BOX" opacity="0.344308036" x="1" y="1" width="14" height="14"></rect>
        <g id="编组-16" transform="translate(1.000000, 1.000000)" fill="#CCCCCC">
            <path d="M4.97397684,1.17411982 C5.06588503,1.43451855 4.92929647,1.72011973 4.66889775,1.81202793 C2.48817758,
            2.58171702 1,4.64942579 1,7 C1,9.10192702 2.18995766,10.9765725 3.99860997,11.9001403 L4,10.9996192 C4,
            10.9206493 4.02337521,10.8434462 4.06717988,10.7777392 C4.17440324,10.6169041 4.3779474,10.5587715 4.5502974,
            10.6288443 L4.62188008,10.6667991 L6.50076982,11.9193923 C6.54471074,11.9486862 6.58241592,11.9863914 6.61170986,
            12.0303323 C6.71893322,12.1911674 6.6943079,12.401413 6.56333687,12.5335542 L6.50076982,12.5850325 L4.62188008,
            13.8376257 C4.55617307,13.8814304 4.47896999,13.9048056 4.4,13.9048056 C4.20670034,13.9048056 4.04542508,
            13.7676928 4.00812658,13.5854195 L4,13.5048056 L3.99918414,13.0014778 C1.60804056,12.0053709 5.32907052e-14,
            9.65636172 5.32907052e-14,7 C5.32907052e-14,4.22216495 1.75856333,1.77877588 4.33606873,0.869040737 C4.59646746,
            0.777132542 4.88206864,0.913721102 4.97397684,1.17411982 Z M10.9328201,0.205794772 C10.9766248,0.271501779 11,
            0.348704856 11,0.427674851 L11.0006393,1.52131691 C12.8303884,2.69136532 14.0001361,4.73445055 14.0001361,
            7 C14.0001361,9.79985911 12.2136694,12.2582622 9.60671556,13.1508988 C9.34546366,13.240353 9.06116018,
            13.1010835 8.97170597,12.8398316 C8.88225175,12.5785797 9.02152129,12.2942762 9.28277319,12.204822 C11.4883298,
            11.4496262 13.0001361,9.36919037 13.0001361,7 C13.0001361,5.31582095 12.2361537,3.77685589 11.0008445,
            2.75650535 L11,2.93286118 C11,3.15377508 10.8209139,3.33286118 10.6,3.33286118 C10.52103,3.33286118 10.4438269,
            3.30948597 10.3781199,3.26568129 L8.49923018,2.01308813 C8.3154187,1.89054715 8.26574915,1.64219941 8.38829014,
            1.45838794 C8.41758408,1.41444702 8.45528926,1.37674184 8.49923018,1.3474479 L10.3781199,0.0948547329 C10.5619314,
            -0.0276862507 10.8102791,0.0219832967 10.9328201,0.205794772 Z M5.71088894,4.1569021 C5.78338652,4.1569021 5.85452108,
            4.17660524 5.91668724,4.21390493 L9.73922699,6.50742878 C9.92865909,6.62108805 9.99008512,6.86679215 9.87642585,
            7.05622425 C9.84264595,7.1125241 9.79552683,7.15964322 9.73922699,7.19342312 L5.91668724,9.48694697 C5.72725513,
            9.60060623 5.48155103,9.53918021 5.36789177,9.3497481 C5.33059207,9.28758194 5.31088894,9.21644738 5.31088894,
            9.1439498 L5.31088894,4.5569021 C5.31088894,4.3359882 5.48997504,4.1569021 5.71088894,4.1569021 Z" id="形状结合"></path>
        </g>
    </g>
</svg>