<?xml version="1.0" encoding="UTF-8"?>
<svg width="16px" height="16px" viewBox="0 0 16 16" version="1.1" xmlns="http://www.w3.org/2000/svg" xmlns:xlink="http://www.w3.org/1999/xlink">
    <title>4.组件/2.通用/icon/tuning/记录管理</title>
    <desc>Created with Sketch.</desc>
    <g id="4.组件/2.通用/icon/tuning/记录管理" stroke="none" stroke-width="1" fill="none" fill-rule="evenodd">
        <rect id="BOX" fill="#D8D8D8" opacity="0" x="1" y="1" width="14" height="14"></rect>
        <g id="编组" transform="translate(1.500000, 1.000000)" fill="#CCCCCC">
            <path d="M8.5,0 C9.05228475,0 9.5,0.44771525 9.5,1 L11,1 C11.7796961,1 12.4204487,1.59488808 12.4931334,2.35553999 L12.5,2.5 L12.5,12.5 C12.5,13.2796961 11.9051119,13.9204487 11.14446,13.9931334 L11,14 L2,14 C1.22030388,14 0.579551322,13.4051119 0.506866578,12.64446 L0.5,12.5 L0.5,2.5 C0.5,1.72030388 1.09488808,1.07955132 1.85553999,1.00686658 L2,1 L3.5,1 C3.5,0.44771525 3.94771525,0 4.5,0 L8.5,0 Z M3.5,2 L2,2 C1.75454011,2 1.55039163,2.17687516 1.50805567,2.41012437 L1.5,2.5 L1.5,12.5 C1.5,12.7454599 1.67687516,12.9496084 1.91012437,12.9919443 L2,13 L11,13 C11.2454599,13 11.4496084,12.8231248 11.4919443,12.5898756 L11.5,12.5 L11.5,2.5 C11.5,2.25454011 11.3231248,2.05039163 11.0898756,2.00805567 L11,2 L9.5,2 C9.5,2.55228475 9.05228475,3 8.5,3 L4.5,3 C3.94771525,3 3.5,2.55228475 3.5,2 Z M9,9 C9.27614237,9 9.5,9.22385763 9.5,9.5 C9.5,9.77614237 9.27614237,10 9,10 L4,10 C3.72385763,10 3.5,9.77614237 3.5,9.5 C3.5,9.22385763 3.72385763,9 4,9 L9,9 Z M8,7 C8.27614237,7 8.5,7.22385763 8.5,7.5 C8.5,7.77614237 8.27614237,8 8,8 L4,8 C3.72385763,8 3.5,7.77614237 3.5,7.5 C3.5,7.22385763 3.72385763,7 4,7 L8,7 Z M6,5 C6.27614237,5 6.5,5.22385763 6.5,5.5 C6.5,5.77614237 6.27614237,6 6,6 L4,6 C3.72385763,6 3.5,5.77614237 3.5,5.5 C3.5,5.22385763 3.72385763,5 4,5 L6,5 Z M8.5,1 L4.5,1 L4.5,2 L8.5,2 L8.5,1 Z" id="形状结合"></path>
        </g>
    </g>
</svg>