<?xml version="1.0" encoding="UTF-8"?>
<svg width="14px" height="14px" viewBox="0 0 14 14" version="1.1" xmlns="http://www.w3.org/2000/svg" xmlns:xlink="http://www.w3.org/1999/xlink">
    <title>立即分析</title>
    <g id="立即分析" stroke="none" stroke-width="1" fill="none" fill-rule="evenodd">
        <path d="M7,0.5 C3.41014913,0.5 0.5,3.41014913 0.5,7 C0.5,10.5898509 3.41014913,13.5 7,13.5 C10.5898509,13.5 13.5,10.5898509 13.5,7 C13.5,3.41014913 10.5898509,0.5 7,0.5 Z M7,1.58333333 C9.99154239,1.58333333 12.4166667,4.00845761 12.4166667,7 C12.4166667,9.99154239 9.99154239,12.4166667 7,12.4166667 C4.00845761,12.4166667 1.58333333,9.99154239 1.58333333,7 C1.58333333,4.00845761 4.00845761,1.58333333 7,1.58333333 Z" id="椭圆形" fill="#CCCCCC" fill-rule="nonzero"></path>
        <path d="M6.96299737,5.1957477 L4.33799737,8.1957477 C4.05511735,8.51903914 4.28470631,9.025 4.71428571,9.025 L9.96428571,9.025 C10.3938651,9.025 10.6234541,8.51903914 10.3405741,8.1957477 L7.71557406,5.1957477 C7.51636842,4.9680841 7.16220301,4.9680841 6.96299737,5.1957477 Z M7.339,6.284 L8.861,8.024 L5.816,8.024 L7.339,6.284 Z" id="三角形" fill="#CCCCCC" fill-rule="nonzero" transform="translate(7.339286, 7.025000) rotate(-270.000000) translate(-7.339286, -7.025000) "></path>
    </g>
</svg>