<?xml version="1.0" encoding="UTF-8"?>
<svg width="16px" height="16px" viewBox="0 0 16 16" version="1.1" xmlns="http://www.w3.org/2000/svg" xmlns:xlink="http://www.w3.org/1999/xlink">
    <title>4.组件/2.通用/icon/tuning/设置</title>
    <desc>Created with Sketch.</desc>
    <g id="4.组件/2.通用/icon/tuning/设置" stroke="none" stroke-width="1" fill="none" fill-rule="evenodd">
        <rect id="BOX" fill="#D8D8D8" opacity="0" x="0" y="0" width="16" height="16"></rect>
        <path d="M9.5,9 C10.7096818,9 11.7186941,9.85916789 11.9501074,11.000574 L13.5,11 C13.7761424,11 14,11.2238576 14,11.5 C14,11.7761424 13.7761424,12 13.5,12 L11.9499027,12.0004345 C11.7180997,13.1413382 10.7093254,14 9.5,14 C8.29067455,14 7.28190033,13.1413382 7.05009729,12.0004345 L2.5,12 C2.22385763,12 2,11.7761424 2,11.5 C2,11.2238576 2.22385763,11 2.5,11 L7.0498926,11.000574 C7.2813059,9.85916789 8.29031824,9 9.5,9 Z M9.5,10 C8.67157288,10 8,10.6715729 8,11.5 C8,12.3284271 8.67157288,13 9.5,13 C10.3284271,13 11,12.3284271 11,11.5 C11,10.6715729 10.3284271,10 9.5,10 Z M6.5,2 C7.70968176,2 8.7186941,2.85916789 8.9501074,4.00057405 L13.5,4 C13.7761424,4 14,4.22385763 14,4.5 C14,4.77614237 13.7761424,5 13.5,5 L8.94990271,5.00043449 C8.71809967,6.14133817 7.70932545,7 6.5,7 C5.29067455,7 4.28190033,6.14133817 4.05009729,5.00043449 L2.5,5 C2.22385763,5 2,4.77614237 2,4.5 C2,4.22385763 2.22385763,4 2.5,4 L4.0498926,4.00057405 C4.2813059,2.85916789 5.29031824,2 6.5,2 Z M6.5,3 C5.67157288,3 5,3.67157288 5,4.5 C5,5.32842712 5.67157288,6 6.5,6 C7.32842712,6 8,5.32842712 8,4.5 C8,3.67157288 7.32842712,3 6.5,3 Z" id="形状结合" fill="#CCCCCC"></path>
    </g>
</svg>