<?xml version="1.0" encoding="UTF-8"?>
<svg width="16px" height="16px" viewBox="0 0 16 16" version="1.1" xmlns="http://www.w3.org/2000/svg" xmlns:xlink="http://www.w3.org/1999/xlink">
    <title>4.组件/2.通用/icon/tuning/查看详情</title>
    <g id="4.组件/2.通用/icon/tuning/查看详情" stroke="none" stroke-width="1" fill="none" fill-rule="evenodd">
        <rect id="BOX" opacity="0.344308036" x="1" y="1" width="14" height="14"></rect>
        <path d="M4,15 C2.28729128,15 1.08812285,13.8619997 1.00465254,12.188157 L1,12 L1,7 C1,6.22030388 1.59488808,
        5.57955132 2.35553999,5.50686658 L2.5,5.5 L4,5.5 L4,2 C4,1.44771525 4.44771525,1 5,1 L14,1 C14.5522847,1 15,
        1.44771525 15,2 L15,14 C15,14.5522847 14.5522847,15 14,15 L4,15 Z M14,2 L5,2 L5,14 L14,14 L14,2 Z M4,
        6.5 L2.5,6.5 C2.25454011,6.5 2.05039163,6.67687516 2.00805567,6.91012437 L2,7 L2,12 C2,13.1682277 2.70718758,
        13.9285166 3.83591626,13.99522 L4,14 L4,6.5 Z M12.5,7 C12.7761424,7 13,7.22385763 13,7.5 C13,7.77614237 12.7761424,
        8 12.5,8 L6.5,8 C6.22385763,8 6,7.77614237 6,7.5 C6,7.22385763 6.22385763,7 6.5,7 L12.5,7 Z M12.5,4 C12.7761424,
        4 13,4.22385763 13,4.5 C13,4.77614237 12.7761424,5 12.5,5 L6.5,5 C6.22385763,5 6,4.77614237 6,4.5 C6,
        4.22385763 6.22385763,4 6.5,4 L12.5,4 Z" id="形状结合备份" fill="#CCCCCC"></path>
    </g>
</svg>