<?xml version="1.0" encoding="UTF-8"?>
<svg width="48px" height="48px" viewBox="0 0 48 48" version="1.1" xmlns="http://www.w3.org/2000/svg" xmlns:xlink="http://www.w3.org/1999/xlink">
    <title>Java性能分析</title>
    <defs>
        <filter id="filter-1">
            <feColorMatrix in="SourceGraphic" type="matrix" values="0 0 0 0 0.133333 0 0 0 0 0.133333 0 0 0 0 0.133333 0 0 0 1.000000 0"></feColorMatrix>
        </filter>
    </defs>
    <g id="调优助手" stroke="none" stroke-width="1" fill="none" fill-rule="evenodd">
        <g id="切图" transform="translate(-144.000000, -16.000000)">
            <g id="icon/72/调优助手备份-3" transform="translate(144.000000, 16.000000)" filter="url(#filter-1)">
                <g id="编组" transform="translate(8.666667, 3.333333)" fill="#616161">
                    <path d="M24,6.66666667 C23.0782322,7.4798853 22.1803806,8.1731823 21.1948364,9.17752605 C20.4494501,9.94202652 19.1031709,10.9863442 19.0314225,12.3929251 C18.9188174,14.5327769 21.5475994,16.511484 20.1534879,19.2247111 C19.6233469,20.2590353 18.7264918,20.6999972 17.5884822,21.3333333 C17.4529575,21.0222866 17.8844444,20.7612072 18.0697945,20.4301735 C19.816669,17.2559975 16.2501751,16.2004372 16.7075712,12.2917412 C17.1480267,8.51420947 20.6985766,7.19881895 24,6.66666667" id="Fill-3"></path>
                    <path d="M30.6666667,35.3369005 C29.3365851,39.1035074 24.2265206,39.3633119 19.8370153,40 L15.7522711,40 C12.1896371,39.6320366 8.76048372,39.1391887 5.87234043,37.937175 C13.4240378,39.6498773 24.4356009,39.5249927 29.7169459,35.87435 C30.0028071,35.6769878 30.267406,35.2922988 30.6666667,35.3369005 Z M6.94694466,32.178405 C6.03070877,32.4336569 3.65736999,32.0707207 3.57102315,33.4613114 C3.54224087,33.995745 4.38172402,34.625898 4.92139176,34.8505728 C8.06585577,36.1653857 14.3823668,36.3687895 19.581166,35.7054006 C21.9928812,35.3956418 26.5248909,34.4982721 25.9468468,31.7503264 C26.6700016,31.8460459 27.3164036,32.3605379 27.3943556,33.1409172 C27.6833777,36.0909372 21.5671433,37.3313016 19.0990629,37.6317543 C13.7263707,38.2831783 7.01410332,38.154223 2.89583885,36.5615578 C1.55506434,36.0483952 -0.0651381392,35.0965186 0.00202051261,33.6740213 C0.118348892,31.2797058 5.32674219,30.6163169 6.94694466,32.178405 Z M11.5491174,30 C11.8365885,30.0867727 11.4479276,30.2353709 11.4559768,30.3481753 C12.2976921,31.7278608 16.4602732,31.2386799 18.5772102,30.7852927 C19.0026674,30.6898427 19.4281245,30.4100009 19.7788392,30.4360327 C20.8528312,30.5065355 21.2587403,31.5608234 22.1843972,31.7441307 C19.2337941,33.4459597 12.0849635,34.1347178 9.14470941,32.006618 C9.0067233,30.4533872 10.3279403,30.2798419 11.5491174,30 Z M9.75765704,25.3333333 C10.1903095,25.4036471 9.4531979,25.7347075 9.57337914,26.1580547 C11.1563377,28.1605309 16.0803348,27.5950914 18.5022729,26.9813112 C19.0081787,26.8524027 19.5140845,26.4642124 19.8826403,26.5110882 C20.8028852,26.6165588 21.3923456,27.9832817 22.1843972,28.1605309 C19.3858912,29.7733519 13.9823137,30.5409434 10.0335016,29.5741297 C9.01138877,29.3265668 7.2349956,28.619035 7.1800556,27.5701886 C7.09650103,26.1463357 8.93813545,25.5457394 9.75765704,25.3333333 Z M28.7036003,24.0350835 C28.8771249,27.3276682 24.9949882,29.1733507 22.1843972,29.3333333 C23.4877312,28.1793406 26.9316234,26.3254238 26.2577909,23.656301 C25.9842047,22.5787706 24.5377446,21.9247238 22.8974944,22.2376311 C24.9949882,20.5731055 28.5503414,21.225976 28.7036003,24.0350835 Z M10.8970148,20.0242703 C9.91352328,20.5438463 8.27278899,20.6405115 7.5574146,21.7521624 C8.28227986,22.3684037 9.34169831,22.3469225 10.3240034,22.4006254 C14.3505054,22.6060392 19.3877851,22.2166928 22.822294,21.5373506 C22.9373708,21.8179485 22.3453777,22.3026176 21.9645565,22.6167798 C19.7970789,24.4091154 13.0621197,24.9166082 8.41515205,24.5594836 C6.86102195,24.4413372 3.30194539,23.9768067 3.26279555,22.4006254 C3.2153412,20.4901433 7.57639634,20.283387 9.36898456,20.1330188 C9.7225195,20.100797 10.3809487,19.9396882 10.8970148,20.0242703 Z" id="形状结合"></path>
                    <path d="M17.6404586,0 C18.2381052,0.601200946 18.6666667,1.72095186 18.6666667,2.91429611 C18.6666667,6.43771861 15.1594809,8.47795233 13.4494885,10.8363357 C13.073035,11.3639433 12.5859849,12.1746022 12.5944923,13.0214917 C12.6115072,14.9428439 14.4756966,17.0917693 15.1594809,18.6666667 C13.9631243,17.8288348 12.5094181,16.7090839 11.4821466,15.3889327 C10.4570019,14.0778391 9.42973039,11.947029 10.3708642,10.1071956 C11.7820333,7.33895392 15.9804473,5.6915954 17.4692467,2.73201108 C17.8286853,2.0130608 18.1104938,0.911425163 17.6404586,0 L17.6404586,0 Z" id="Fill-9-path"></path>
                </g>
            </g>
        </g>
    </g>
</svg>