<?xml version="1.0" encoding="UTF-8"?>
<svg width="320px" height="130px" viewBox="0 0 320 130" version="1.1" xmlns="http://www.w3.org/2000/svg" xmlns:xlink="http://www.w3.org/1999/xlink">
    <title>缺省页/插画/网络中断</title>
    <defs>
        <linearGradient x1="50%" y1="0%" x2="50%" y2="100%" id="linearGradient-1">
            <stop stop-color="#929292" stop-opacity="0.119072334" offset="0%"></stop>
            <stop stop-color="#545454" stop-opacity="0" offset="100%"></stop>
        </linearGradient>
        <linearGradient x1="115.428439%" y1="48.5426342%" x2="43.6425371%" y2="50.5605536%" id="linearGradient-2">
            <stop stop-color="#9B9B9B" offset="0%"></stop>
            <stop stop-color="#4C4C4C" offset="100%"></stop>
        </linearGradient>
        <path d="M5.39036668,0 L5.49852837,0 L5.49852837,0 L63.4672514,0 L64.0252419,0 C65.5633387,-3.83525748e-15 66.9380475,0.959696659 67.4681798,2.4035462 L67.4681798,2.4035462 L67.4681798,2.4035462 L69.2789969,7.3354232 L3.28171253e-13,7.3354232 L2.4794555,1.87515151 C2.99797774,0.733258751 4.13625968,2.3037572e-16 5.39036668,0 Z" id="path-3"></path>
        <pattern id="pattern-5" patternUnits="objectBoundingBox" y="-422.222222%" height="522.222222%" width="100%">
            <use xlink:href="#image-6" transform="scale(0.135310541,0.135310541)"></use>
        </pattern>
        <linearGradient x1="50%" y1="0%" x2="50%" y2="100%" id="linearGradient-7">
            <stop stop-color="#979797" offset="0%"></stop>
            <stop stop-color="#3B3B3B" stop-opacity="0" offset="100%"></stop>
        </linearGradient>
        <polygon id="path-8" points="1.67403534e-15 26.1579154 54.830436 63.8856779 120.626959 26.1579154 120.626959 1.5091105 0 -1.21463088e-13"></polygon>
        <path d="M59.3165626,0 C64.4886247,0 69.5060793,0.668033181 74.2888271,1.92326454 L66.1828823,8.50793797 C63.936807,8.20498634 61.6447828,8.04858934 59.3165626,8.04858934 C30.9615862,8.04858934 7.97533615,31.2459673 7.97533615,59.8613832 C7.97533615,88.4767991 30.9615862,111.674177 59.3165626,111.674177 C87.671539,111.674177 110.657789,88.4767991 110.657789,59.8613832 C110.657789,37.3478173 96.4293723,18.1879999 76.5523461,11.0405437 L85.6834498,6.22438039 C105.212509,16.0204805 118.633125,36.35926 118.633125,59.8613832 C118.633125,92.9219123 92.0761955,119.722766 59.3165626,119.722766 C26.5569297,119.722766 0,92.9219123 0,59.8613832 C0,26.8008542 26.5569297,0 59.3165626,0 Z M59.3165626,18.109326 C60.7341009,18.109326 62.1349882,18.1812724 63.5158346,18.3217442 L70.7811083,25.6548785 L69.8306084,27.862095 C66.5247956,26.7564281 62.989938,26.1579154 59.3165626,26.1579154 C40.8720634,26.1579154 25.9198425,41.2474719 25.9198425,59.8613832 C25.9198425,78.4752945 40.8720634,93.5648511 59.3165626,93.5648511 C77.7610618,93.5648511 92.7132827,78.4752945 92.7132827,59.8613832 C92.7132827,46.8231844 85.3771763,35.514163 74.6433862,29.9089157 L77.7595274,25.6548785 L75.1098561,21.2593499 C90.1240009,27.5223596 100.688619,42.4467901 100.688619,59.8613832 C100.688619,82.9204077 82.1657184,101.61344 59.3165626,101.61344 C36.4674069,101.61344 17.9445063,82.9204077 17.9445063,59.8613832 C17.9445063,36.8023588 36.4674069,18.109326 59.3165626,18.109326 Z M59.3165626,37.7277625 C61.3669587,37.7277625 63.3541729,37.9996014 65.2427719,38.5089829 L62.0068465,46.0195257 C61.1356048,45.8598896 60.2363739,45.7763519 59.3165626,45.7763519 C51.3090415,45.7763519 44.8612658,52.1074854 44.8612658,59.8613832 C44.8612658,67.6152811 51.3090415,73.9464146 59.3165626,73.9464146 C67.3240837,73.9464146 73.7718594,67.6152811 73.7718594,59.8613832 C73.7718594,53.2478566 69.0811775,47.6693745 62.7328177,46.1715611 L67.7353482,39.3402701 C75.9426612,42.62212 81.7471955,50.5600225 81.7471955,59.8613832 C81.7471955,72.1104945 71.680578,81.9950039 59.3165626,81.9950039 C46.9525472,81.9950039 36.8859297,72.1104945 36.8859297,59.8613832 C36.8859297,47.6122719 46.9525472,37.7277625 59.3165626,37.7277625 Z" id="path-10"></path>
        <pattern id="pattern-12" patternUnits="objectBoundingBox" x="-0.459248311%" width="100.459248%" height="100%">
            <use xlink:href="#image-13" transform="scale(0.233833528,0.233833528)"></use>
        </pattern>
        <linearGradient x1="50%" y1="48.4681502%" x2="48.7481914%" y2="54.5194965%" id="linearGradient-14">
            <stop stop-color="#000000" stop-opacity="0" offset="0%"></stop>
            <stop stop-color="#000000" stop-opacity="0.320831512" offset="100%"></stop>
        </linearGradient>
    </defs>
    <g id="缺省页/插画/网络中断" stroke="none" stroke-width="1" fill="none" fill-rule="evenodd">
        <g id="编组-2" transform="translate(30.000000, 20.000000)">
            <path d="M87.7214334,49.085465 L87.7214334,82.3197492 L31.7868339,82.3197492 L31.7868339,49.085465 L87.7214334,49.085465 Z M182.610486,0 L182.609834,26.101 L196.594136,26.1013839 L196.594136,82.3197492 L89.7190977,82.3197492 L89.7190977,26.1013839 L126.675834,26.101 L126.675887,0 L182.610486,0 Z M235.548589,48.1871703 L235.548589,82.3197492 L201.588297,82.3197492 L201.588297,48.1871703 L235.548589,48.1871703 Z" id="形状结合" fill-opacity="0.022809222" fill="#FFFFFF"></path>
            <path d="M0,82.3197492 L260,82.3197492 C230.747341,94.2737722 185.907166,100.250784 125.479476,100.250784 C65.0517857,100.250784 23.2252938,94.2737722 0,82.3197492 Z" id="路径-44备份" fill="url(#linearGradient-1)"></path>
            <g id="矩形" transform="translate(94.545455, 74.984326)">
                <mask id="mask-4" fill="white">
                    <use xlink:href="#path-3"></use>
                </mask>
                <g id="蒙版" fill-rule="nonzero">
                    <use fill="url(#linearGradient-2)" xlink:href="#path-3"></use>
                    <use fill-opacity="0.4" fill="url(#pattern-5)" style="mix-blend-mode: color-burn;" xlink:href="#path-3"></use>
                </g>
                <polygon fill="url(#linearGradient-7)" opacity="0.249581473" mask="url(#mask-4)" points="-1.47677064e-12 4.65368899e-16 69.2789969 4.65368899e-16 69.2789969 7.3354232 -1.47677064e-12 7.3354232"></polygon>
            </g>
            <rect id="矩形" fill-opacity="0.136008523" fill="#FFFFFF" x="102.695925" y="65.2037618" width="4.07523511" height="9.78056426"></rect>
            <rect id="矩形备份-5" fill-opacity="0.136008523" fill="#FFFFFF" x="115.736677" y="65.2037618" width="4.07523511" height="9.78056426"></rect>
            <rect id="矩形备份-6" fill-opacity="0.136008523" fill="#FFFFFF" x="138.557994" y="65.2037618" width="4.07523511" height="9.78056426"></rect>
            <rect id="矩形备份-7" fill-opacity="0.136008523" fill="#FFFFFF" x="151.598746" y="65.2037618" width="4.07523511" height="9.78056426"></rect>
            <rect id="矩形" fill-opacity="0.486696897" fill="#000000" x="148.338558" y="78.2445141" width="4.07523511" height="1.63009404" rx="0.815047022"></rect>
            <rect id="矩形备份-8" fill-opacity="0.486696897" fill="#000000" x="154.043887" y="78.2445141" width="3.26018809" height="1.63009404" rx="0.815047022"></rect>
            <g id="编组" transform="translate(74.169279, 0.815047)">
                <mask id="mask-9" fill="white">
                    <use xlink:href="#path-8"></use>
                </mask>
                <g id="蒙版"></g>
                <g mask="url(#mask-9)" id="矩形">
                    <g transform="translate(-3.987668, 1.509111)">
                        <mask id="mask-11" fill="white">
                            <use xlink:href="#path-10"></use>
                        </mask>
                        <g id="形状结合">
                            <use fill="#555555" xlink:href="#path-10"></use>
                            <use fill-opacity="0.4" fill="url(#pattern-12)" style="mix-blend-mode: multiply;" xlink:href="#path-10"></use>
                        </g>
                        <polygon id="路径-50" fill="url(#linearGradient-14)" mask="url(#mask-11)" points="-5.98150211 18.109326 124.614627 24.6488049 73.7718594 53.8249412 45.8581829 53.8249412"></polygon>
                    </g>
                </g>
            </g>
        </g>
    </g>
</svg>