<?xml version="1.0" encoding="UTF-8"?>
<svg width="320px" height="130px" viewBox="0 0 320 130" version="1.1" xmlns="http://www.w3.org/2000/svg" xmlns:xlink="http://www.w3.org/1999/xlink">
    <title>Web_SFW/缺省页/插画/空数据</title>
    <defs>
        <linearGradient x1="49.9902458%" y1="3.28731867%" x2="49.9902458%" y2="106.785213%" id="linearGradient-1">
            <stop stop-color="#7C8084" offset="0%"></stop>
            <stop stop-color="#7A7E82" stop-opacity="0.95" offset="14%"></stop>
            <stop stop-color="#74787D" stop-opacity="0.83" offset="33%"></stop>
            <stop stop-color="#6B6F73" stop-opacity="0.62" offset="55%"></stop>
            <stop stop-color="#5E6267" stop-opacity="0.33" offset="78%"></stop>
            <stop stop-color="#4F5359" stop-opacity="0" offset="100%"></stop>
        </linearGradient>
        <linearGradient x1="50%" y1="3.28300259%" x2="50%" y2="106.786022%" id="linearGradient-2">
            <stop stop-color="#B8BDC6" offset="0%"></stop>
            <stop stop-color="#BABFC8" stop-opacity="0.97" offset="11%"></stop>
            <stop stop-color="#BFC4CC" stop-opacity="0.88" offset="26%"></stop>
            <stop stop-color="#C8CCD3" stop-opacity="0.74" offset="42%"></stop>
            <stop stop-color="#D4D7DE" stop-opacity="0.55" offset="61%"></stop>
            <stop stop-color="#E3E5EB" stop-opacity="0.3" offset="80%"></stop>
            <stop stop-color="#F5F6FA" stop-opacity="0" offset="100%"></stop>
        </linearGradient>
    </defs>
    <g id="Web_SFW/缺省页/插画/空数据" stroke="none" stroke-width="1" fill="none" fill-rule="evenodd">
        <g id="浅色-空页面" transform="translate(64.000000, 7.000000)">
            <g id="编组" opacity="0.5" transform="translate(17.370822, 16.433333)" fill="url(#linearGradient-1)" fill-rule="nonzero">
                <rect id="矩形" opacity="0.17" x="0.132174015" y="0.174222222" width="30.7965456" height="26.5937778"></rect>
            </g>
            <g id="编组" opacity="0.5" transform="translate(103.424743, 6.766667)" fill-rule="nonzero">
                <rect id="矩形" fill="url(#linearGradient-2)" opacity="0.17" x="0.274474266" y="0.23623176" width="84.782051" height="70.2032332"></rect>
                <rect id="矩形" fill="#FFFFFF" x="0.274474266" y="0.23623176" width="84.782051" height="3.63433476"></rect>
                <rect id="矩形" fill="#E1E4EA" x="76.5173259" y="1.23567382" width="1.52485703" height="1.51430615"></rect>
                <rect id="矩形" fill="#E1E4EA" x="79.3139137" y="1.23567382" width="1.52485703" height="1.51430615"></rect>
                <rect id="矩形" fill="#E1E4EA" x="82.1105015" y="1.23567382" width="1.52485703" height="1.51430615"></rect>
            </g>
            <path d="M192.379357,50.2357063 C181.640387,44.7764027 172.136307,46.3323042 174.560351,59.4831599 C176.984394,72.6340156 175.834879,83.7861596 165.595963,81.9724577 C155.357048,80.1587557 145.121181,55.4281106 143.425875,35.6775634 C141.730569,15.9270163 107.754322,-10.9054607 92.0879882,4.65052149 C92.0879882,4.65052149 87.5478614,10.167451 87.9838843,20.2974921" id="路径" stroke="#0077FF" stroke-width="0.75" stroke-dasharray="4"></path>
            <path d="M156.604132,100.179727 L156.604132,26.1 L38.642578,26.1 L38.642578,100.179727 L94.68339,100.179727 L94.68339,113.220273 L76.5717545,113.220273 C75.8033378,113.220273 75.1804131,113.842536 75.1804131,114.610136 C75.1804131,115.377737 75.8033378,116 76.5717545,116 L118.986495,116 C119.483573,116 119.942893,115.735094 120.191432,115.305068 C120.439971,114.875043 120.439971,114.34523 120.191432,113.915205 C119.942893,113.485179 119.483573,113.220273 118.986495,113.220273 L100.877884,113.220273 L100.877884,100.179727 L156.604132,100.179727 Z" id="路径" stroke="#B8BCC1" stroke-linejoin="round"></path>
            <rect id="矩形" stroke="#B8BCC1" fill="#FBFDFF" fill-rule="nonzero" x="38.642578" y="25.1333333" width="117.961554" height="66.7"></rect>
            <line x1="45.4108638" y1="32.8666667" x2="152.73654" y2="32.8666667" id="路径" stroke="#B8BCC1" stroke-linecap="round" stroke-linejoin="round"></line>
            <rect id="矩形" fill="#B8BCC1" fill-rule="nonzero" x="146.935152" y="29" width="1.93379596" height="1.93333333"></rect>
            <rect id="矩形" fill="#B8BCC1" fill-rule="nonzero" x="143.06756" y="29" width="1.93379596" height="1.93333333"></rect>
            <rect id="矩形" fill="#B8BCC1" fill-rule="nonzero" x="150.802744" y="29" width="1.93379596" height="1.93333333"></rect>
            <path d="M186.897255,56.7138957 C188.870222,59.2986627 185.944132,62.2231964 183.357989,60.2544549 L183.357989,60.2544549 C181.385023,57.6665125 184.311113,54.7419788 186.897255,56.7138957 Z" id="路径" stroke="#B8BCC1" stroke-linejoin="round"></path>
            <polygon id="路径" stroke="#9398A0" fill="#B8BDC6" fill-rule="nonzero" stroke-linejoin="round" points="115.994417 61.8752307 127.56139 63.8 127.597192 63.7550388 116.325583 61.8666667"></polygon>
            <polygon id="路径" stroke="#9398A0" fill="#B8BDC6" fill-rule="nonzero" stroke-linejoin="round" points="79.2522932 61.8752307 67.6883027 63.8 67.6495174 63.7550388 78.9211263 61.8666667"></polygon>
            <rect id="矩形" stroke="#91969B" fill="#E8EBF2" fill-rule="nonzero" x="78.2853952" y="61.8666667" width="37.7090213" height="19.3333333"></rect>
            <polygon id="路径" stroke="#91969B" fill="#F0F6FF" fill-rule="nonzero" points="116.527044 60.9 78.3784532 60.9 74.4178033 71.5333333 119.862008 71.5333333"></polygon>
            <polygon id="矩形" fill="#0077FF" fill-rule="nonzero" transform="translate(97.521520, 47.759428) rotate(179.900000) translate(-97.521520, -47.759428) " points="96.2937569 43.3284159 98.7493255 43.3284041 98.7492829 52.1904406 96.2937143 52.1904524"></polygon>
            <polygon id="矩形" fill="#0077FF" fill-rule="nonzero" transform="translate(107.348753, 51.183537) rotate(-139.940000) translate(-107.348753, -51.183537) " points="106.113553 46.7559029 108.571931 46.7592433 108.583953 55.6111707 106.125575 55.6078304"></polygon>
            <polygon id="矩形" fill="#0077FF" fill-rule="nonzero" transform="translate(87.712659, 51.219690) rotate(-40.250000) translate(-87.712659, -51.219690) " points="86.4894768 46.7954383 88.9478764 46.7920942 88.9358407 55.6439418 86.4774411 55.6472859"></polygon>
            <ellipse id="椭圆形" stroke="#B8BCC1" stroke-linejoin="round" cx="24.1391082" cy="80.2333333" rx="1" ry="1"></ellipse>
            <path d="M93.906109,30.9333333 C99.4698377,38.0547194 107.602843,53.4313938 67.7577991,47.257926 C51.6618591,44.7621412 15.573547,35.8349108 6.31078916,43.1782777 C-3.46521661,50.9326093 3.07641633,58 3.07641633,58" id="路径" stroke="#0077FF" stroke-width="0.75" stroke-dasharray="4"></path>
            <path d="M5.28459759,62.8333333 C6.6196051,62.8333333 7.70184255,61.7513548 7.70184255,60.4166667 C7.70184255,59.0819785 6.6196051,58 5.28459759,58 C3.94959006,58 2.86735264,59.0819785 2.86735264,60.4166667 C2.86735264,61.7513548 3.94959006,62.8333333 5.28459759,62.8333333 Z" id="椭圆形" stroke="#0077FF" stroke-width="0.75" stroke-dasharray="4"></path>
        </g>
    </g>
</svg>