<?xml version="1.0" encoding="UTF-8"?>
<svg width="20px" height="20px" viewBox="0 0 20 20" version="1.1" xmlns="http://www.w3.org/2000/svg" xmlns:xlink="http://www.w3.org/1999/xlink">
    <title>icon/公共/箭头/返回</title>
    <defs>
        <path d="M17.9186674,3.69227934 C18.3328809,3.69227934 18.6686674,4.02806578 18.6686674,4.44227934 C18.6686674,4.82197511 18.3865135,5.1357703 18.0204379,5.18543272 L17.9186674,5.19227934 L7.552,5.192 L7.55227934,15.5586674 C7.55227934,15.9383631 7.27012546,16.2521583 6.9040499,16.3018207 L6.80227934,16.3086674 C6.42258357,16.3086674 6.10878838,16.0265135 6.05912596,15.6604379 L6.05227934,15.5586674 L6.05227934,5.08325064 C6.05227934,4.76682295 6.09212653,4.56047726 6.20770262,4.34436877 C6.32117924,4.13218593 6.49218593,3.96117924 6.70436877,3.84770262 C6.88445918,3.75138921 7.05776987,3.70766532 7.29365546,3.69576606 L7.44325064,3.69227934 L17.9186674,3.69227934 Z" id="path-1"></path>
    </defs>
    <g id="icon/公共/箭头/返回" stroke="none" stroke-width="1" fill="none" fill-rule="evenodd">
        <mask id="mask-2" fill="white">
        </mask>
        <use id="蒙版" fill="#555555" fill-rule="nonzero" transform="translate(12.360473, 10.000473) rotate(-45.000000) translate(-12.360473, -10.000473) " xlink:href="#path-1"></use>
        <g id="颜色/白#FFFFFF" mask="url(#mask-2)" fill="#FFFFFF">
            <rect id="矩形" x="0" y="0" width="20" height="20"></rect>
        </g>
    </g>
</svg>