<?xml version="1.0" encoding="UTF-8"?>
<svg width="218px" height="84px" viewBox="0 0 320 130" version="1.1" xmlns="http://www.w3.org/2000/svg" xmlns:xlink="http://www.w3.org/1999/xlink" style="background: #FFFFFF;">
    <title>缺省页/插画/空数据@1x</title>
    <defs>
        <linearGradient x1="50%" y1="0%" x2="50%" y2="100%" id="linearGradient-1">
            <stop stop-color="#4294FF" stop-opacity="0.119072334" offset="0%"></stop>
            <stop stop-color="#87BDFF" stop-opacity="0" offset="100%"></stop>
        </linearGradient>
        <linearGradient x1="56.137461%" y1="27.7985318%" x2="43.6425371%" y2="72.2014682%" id="linearGradient-2">
            <stop stop-color="#F7FBFF" offset="0%"></stop>
            <stop stop-color="#63A1FF" offset="100%"></stop>
        </linearGradient>
        <polygon id="path-3" points="14.6714463 0.906755857 56.5136257 0.906755857 53.9147459 7.33397228 73.9572267 7.33397228 59.6692158 49.8177852 0.556399029 49.8177852"></polygon>
        <pattern id="pattern-5" patternUnits="objectBoundingBox" y="-25.0350469%" height="125.035047%" width="100%">
            <use xlink:href="#image-6" transform="scale(0.143360991,0.143360991)"></use>
        </pattern>
        <linearGradient x1="50%" y1="0%" x2="50%" y2="100%" id="linearGradient-7">
            <stop stop-color="#D1E9FF" offset="0%"></stop>
            <stop stop-color="#6BB5FF" stop-opacity="0" offset="100%"></stop>
        </linearGradient>
        <polygon id="path-8" points="1.90566313e-12 0.25420019 12.5991724 46.0932441 71.9843039 46 65.7619053 9.86259043 34.490722 9.86259043 31.5408279 0.25420019"></polygon>
        <pattern id="pattern-10" patternUnits="objectBoundingBox" y="-28.5185485%" height="128.518549%" width="100%">
            <use xlink:href="#image-11" transform="scale(0.140594344,0.140594344)"></use>
        </pattern>
        <linearGradient x1="50%" y1="50%" x2="50%" y2="89.9701129%" id="linearGradient-12">
            <stop stop-color="#0067FF" stop-opacity="0.0460828234" offset="0%"></stop>
            <stop stop-color="#0067FF" stop-opacity="0.164963942" offset="100%"></stop>
        </linearGradient>
        <path d="M2,24.1609561 L2,21.1609561 C2,20.6086714 1.55228475,20.1609561 1,20.1609561 C0.44771525,20.1609561 0,20.6086714 0,21.1609561 L0,24.1609561 L2,24.1609561 Z M2,18.1609561 L2,15.1609561 C2,14.6086714 1.55228475,14.1609561 1,14.1609561 C0.44771525,14.1609561 0,14.6086714 0,15.1609561 L0,18.1609561 C0,18.7132409 0.44771525,19.1609561 1,19.1609561 C1.55228475,19.1609561 2,18.7132409 2,18.1609561 Z M2,12.1609561 L2,9.16095614 C2,8.60867139 1.55228475,8.16095614 1,8.16095614 C0.44771525,8.16095614 0,8.60867139 0,9.16095614 L0,12.1609561 C0,12.7132409 0.44771525,13.1609561 1,13.1609561 C1.55228475,13.1609561 2,12.7132409 2,12.1609561 Z M2,6.16095614 L2,5.00000009 C2,4.60537855 2.07575551,4.22305071 2.22069571,3.86780253 L2.31590943,3.65802147 C2.56340265,3.16429528 2.36379138,2.56341823 1.87006518,2.31592501 C1.37633899,2.0684318 0.775461939,2.26804307 0.527968724,2.76176926 C0.182476123,3.45099521 0,4.21350342 0,5.00000009 L0,6.16095614 C0,6.71324089 0.44771525,7.16095614 1,7.16095614 C1.55228475,7.16095614 2,6.71324089 2,6.16095614 Z M3.88152951,2.20543899 L3.99365354,2.17266778 C4.295072,2.0653727 4.61344266,2.0068734 4.94071224,2.00057043 L6.71653014,2.00000009 C7.26881485,1.99976743 7.71634152,1.55186368 7.71610904,0.999578983 C7.71587637,0.447294282 7.26797263,-0.000232391412 6.71568793,9.05365596e-08 L4.92103543,0.000755927078 C4.35860611,0.0114104855 3.82680049,0.109127566 3.3229457,0.288483341 C2.80264253,0.473694197 2.53099654,1.04562632 2.7162074,1.56592948 C2.88818891,2.04906813 3.39361885,2.31780341 3.88152951,2.20543899 Z M9.71610903,2.00000009 L12.716109,2.00000009 C13.2683938,2.00000009 13.716109,1.55228484 13.716109,1.00000009 C13.716109,0.447715343 13.2683938,9.24769665e-08 12.716109,9.24769665e-08 L9.71610903,9.24769665e-08 C9.16382429,9.24769665e-08 8.71610903,0.447715343 8.71610903,1.00000009 C8.71610903,1.55228484 9.16382429,2.00000009 9.71610903,2.00000009 Z M15.716109,2.00000009 L18.716109,2.00000009 C19.2683938,2.00000009 19.716109,1.55228484 19.716109,1.00000009 C19.716109,0.447715343 19.2683938,9.24769665e-08 18.716109,9.24769665e-08 L15.716109,9.24769665e-08 C15.1638243,9.24769665e-08 14.716109,0.447715343 14.716109,1.00000009 C14.716109,1.55228484 15.1638243,2.00000009 15.716109,2.00000009 Z M21.716109,2.00000009 L24.716109,2.00000009 C25.2683938,2.00000009 25.716109,1.55228484 25.716109,1.00000009 C25.716109,0.447715343 25.2683938,9.24769665e-08 24.716109,9.24769665e-08 L21.716109,9.24769665e-08 C21.1638243,9.24769665e-08 20.716109,0.447715343 20.716109,1.00000009 C20.716109,1.55228484 21.1638243,2.00000009 21.716109,2.00000009 Z M27.716109,2.00000009 L30.716109,2.00000009 C31.2683938,2.00000009 31.716109,1.55228484 31.716109,1.00000009 C31.716109,0.447715343 31.2683938,9.24769665e-08 30.716109,9.24769665e-08 L27.716109,9.24769665e-08 C27.1638243,9.24769665e-08 26.716109,0.447715343 26.716109,1.00000009 C26.716109,1.55228484 27.1638243,2.00000009 27.716109,2.00000009 Z M33.716109,2.00000009 L36.716109,2.00000009 C37.2683938,2.00000009 37.716109,1.55228484 37.716109,1.00000009 C37.716109,0.447715343 37.2683938,9.24769665e-08 36.716109,9.24769665e-08 L33.716109,9.24769665e-08 C33.1638243,9.24769665e-08 32.716109,0.447715343 32.716109,1.00000009 C32.716109,1.55228484 33.1638243,2.00000009 33.716109,2.00000009 Z M39.716109,2.00000009 L42.716109,2.00000009 C43.2683938,2.00000009 43.716109,1.55228484 43.716109,1.00000009 C43.716109,0.447715343 43.2683938,9.24769665e-08 42.716109,9.24769665e-08 L39.716109,9.24769665e-08 C39.1638243,9.24769665e-08 38.716109,0.447715343 38.716109,1.00000009 C38.716109,1.55228484 39.1638243,2.00000009 39.716109,2.00000009 Z M45.716109,2.00000009 L45.9079634,2.00000009 L45.9079634,1.00000009 L45.1946248,1.70081966 L47.1626282,3.70397833 C47.5496802,4.09794435 48.1828203,4.10354931 48.5767863,3.71649735 C48.9707524,3.3294454 48.9763573,2.69630523 48.5893054,2.3023392 L46.6213019,0.299180529 C46.4332823,0.107802202 46.1762488,9.24769665e-08 45.9079634,9.24769665e-08 L45.716109,9.24769665e-08 C45.1638243,9.24769665e-08 44.716109,0.447715343 44.716109,1.00000009 C44.716109,1.55228484 45.1638243,2.00000009 45.716109,2.00000009 Z M49.2650869,5.84399409 L51.3675456,7.98400985 C51.7545975,8.37797587 52.3877377,8.38358083 52.7817037,7.99652888 C53.1756697,7.60947692 53.1812747,6.97633675 52.7942227,6.58237073 L50.6917641,4.44235496 C50.3047121,4.04838894 49.6715719,4.04278398 49.2776059,4.42983594 C48.8836399,4.8168879 48.8780349,5.45002807 49.2650869,5.84399409 Z M52.9999267,9.49791995 L52.9990862,12.4979198 C52.9989315,13.0502046 53.4465213,13.4980452 53.998806,13.4982001 C54.5510907,13.4983547 54.9989314,13.0507649 54.9990862,12.4984802 L54.9999267,9.49848029 C55.0000814,8.94619557 54.5524916,8.4983549 54.0002069,8.49820012 C53.4479221,8.49804543 53.0000815,8.94563522 52.9999267,9.49791995 Z M52.9982457,15.4979197 L52.9974052,18.4979196 C52.9972505,19.0502043 53.4448403,19.498045 53.997125,19.4981999 C54.5494097,19.4983545 54.9972504,19.0507647 54.9974052,18.4984799 L54.9982457,15.4984801 C54.9984004,14.9461953 54.5508106,14.4983547 53.9985258,14.4981999 C53.4462411,14.4980452 52.9984005,14.945635 52.9982457,15.4979197 Z M52.9965647,21.4979195 L52.9957241,24.4979194 C52.9955694,25.0502041 53.4431592,25.4980448 53.995444,25.4981997 C54.5477287,25.4983542 54.9955694,25.0507644 54.9957241,24.4984797 L54.9965647,21.4984798 C54.9967193,20.9461951 54.5491296,20.4983544 53.9968448,20.4981997 C53.4445601,20.498045 52.9967194,20.9456348 52.9965647,21.4979195 Z M52.9948837,27.4979192 L52.9940431,30.4979191 C52.9938884,31.0502039 53.4414782,31.4980445 53.9937629,31.4981994 C54.5460477,31.498354 54.9938883,31.0507642 54.9940431,30.4984795 L54.9948836,27.4984796 C54.9950383,26.9461949 54.5474485,26.4983542 53.9951638,26.4981994 C53.4428791,26.4980447 52.9950384,26.9456345 52.9948837,27.4979192 Z M52.9932026,33.497919 L52.9923621,36.4979189 C52.9922074,37.0502036 53.4397972,37.4980443 53.9920819,37.4981992 C54.5443666,37.4983538 54.9922073,37.050764 54.9923621,36.4984792 L54.9932026,33.4984794 C54.9933573,32.9461946 54.5457675,32.498354 53.9934828,32.4981992 C53.441198,32.4980445 52.9933574,32.9456343 52.9932026,33.497919 Z M52.9915216,39.4979188 L52.9906811,42.4979187 C52.9905264,43.0502034 53.4381162,43.4980441 53.9904009,43.4981989 C54.5426856,43.4983535 54.9905263,43.0507637 54.9906811,42.498479 L54.9915216,39.4984791 C54.9916763,38.9461944 54.5440865,38.4983537 53.9918017,38.4981989 C53.439517,38.4980443 52.9916763,38.945634 52.9915216,39.4979188 Z M52.9898406,45.4979185 L52.989,48.4979184 C52.9888453,49.0502031 53.4364351,49.4980438 53.9887199,49.4981987 C54.5410046,49.4983533 54.9888453,49.0507635 54.989,48.4984788 L54.9898405,45.4984789 C54.9899952,44.9461942 54.5424054,44.4983535 53.9901207,44.4981987 C53.437836,44.498044 52.9899953,44.9456338 52.9898406,45.4979185 Z M52.9881596,51.4979183 L52.987319,54.4979182 C52.9871643,55.0502029 53.4347541,55.4980436 53.9870388,55.4981985 C54.5393236,55.4983531 54.9871642,55.0507633 54.987319,54.4984785 L54.9881595,51.4984786 C54.9883142,50.9461939 54.5407244,50.4983532 53.9884397,50.4981985 C53.436155,50.4980438 52.9883143,50.9456336 52.9881596,51.4979183 Z M53.9853578,61.498198 C54.6521081,61.199908 54.9855348,60.8666681 54.9856379,60.4984783 L54.9864787,57.4984784 C54.9866332,56.9461937 54.5390434,56.498353 53.9867587,56.498198 C53.7682696,56.498137 53.5012234,56.6318191 53.1856203,56.8992444 L53.9853578,61.498198 Z" id="path-13"></path>
        <linearGradient x1="50%" y1="0%" x2="50%" y2="100%" id="linearGradient-15">
            <stop stop-color="#000000" stop-opacity="0" offset="0%"></stop>
            <stop stop-color="#0028FF" stop-opacity="0.376720935" offset="100%"></stop>
        </linearGradient>
    </defs>
    <g id="缺省页/插画/空数据" stroke="none" stroke-width="1" fill="none" fill-rule="evenodd">
        <rect fill="#FFFFFF" x="0" y="0" width="320" height="130"></rect>
        <g id="编组-2备份-5" transform="translate(30.000000, 15.000000)">
            <path d="M0,82 L260,82 C230.747341,94 185.907166,100 125.479476,100 C65.0517857,100 23.2252938,94 0,82 Z" id="路径-44备份" fill="url(#linearGradient-1)"></path>
            <path d="M88,35 L88,82 L32,82 L32,35 L88,35 Z M183,0 L183,26 L197,26 L197,82 L90,82 L90,26 L127,26 L127,0 L183,0 Z M236,48 L236,82 L202,82 L202,48 L236,48 Z" id="形状结合" fill-opacity="0.0320968094" fill="#008CFF"></path>
            <g id="编组" transform="translate(86.000000, 32.000000)">
                <g id="矩形" transform="translate(12.443601, 0.093244)">
                    <mask id="mask-4" fill="white">
                        <use xlink:href="#path-3"></use>
                    </mask>
                    <g id="蒙版" fill-rule="nonzero">
                        <use fill="url(#linearGradient-2)" xlink:href="#path-3"></use>
                        <use fill-opacity="0.4" fill="url(#pattern-5)" style="mix-blend-mode: color-burn;" xlink:href="#path-3"></use>
                    </g>
                    <polygon fill="url(#linearGradient-7)" opacity="0.714983259" mask="url(#mask-4)" points="-6.6824709 -0.0932441426 78 -3 75.423104 41 8.55426229 38.9877364"></polygon>
                </g>
                <g id="路径-50" transform="translate(0.443601, 4.000000)">
                    <mask id="mask-9" fill="white">
                        <use xlink:href="#path-8"></use>
                    </mask>
                    <g id="蒙版">
                        <use fill="#E4F1FF" xlink:href="#path-8"></use>
                        <use fill="url(#pattern-10)" style="mix-blend-mode: overlay;" xlink:href="#path-8"></use>
                    </g>
                    <polygon fill="url(#linearGradient-12)" mask="url(#mask-9)" points="-10.443601 -0.76934629 93.3358797 -1 93.3358797 47.2693463 -10.443601 47.5"></polygon>
                </g>
            </g>
            <g id="矩形" transform="translate(103.000000, 12.093244)">
                <mask id="mask-14" fill="white">
                    <use xlink:href="#path-13"></use>
                </mask>
                <use id="蒙版" fill="#5FA1FF" fill-rule="nonzero" xlink:href="#path-13"></use>
                <rect fill="url(#linearGradient-15)" mask="url(#mask-14)" x="-7" y="16.9067559" width="64" height="46"></rect>
            </g>
        </g>
    </g>
</svg>