<?xml version="1.0" encoding="UTF-8"?>
<svg width="16px" height="16px" viewBox="0 0 16 16" version="1.1" xmlns="http://www.w3.org/2000/svg" xmlns:xlink="http://www.w3.org/1999/xlink">
    <title>4.组件/2.通用/icon/16/告警/成功</title>
    <defs>
        <path d="M8,0 C12.418278,0 16,3.581722 16,8 C16,12.418278 12.418278,16 8,16 C3.581722,16 0,12.418278 0,8 C0,3.581722 3.581722,0 8,0 Z" id="path-1"></path>
    </defs>
    <g id="VS-Code补全web需求-0130" stroke="none" stroke-width="1" fill="none" fill-rule="evenodd">
        <g id="代码迁移工具-软件包重构-成功报告" transform="translate(-526.000000, -269.000000)">
            <g id="中心内容" transform="translate(304.000000, 104.000000)">
                <g id="配置信息" transform="translate(80.000000, 38.000000)">
                    <g id="编组" transform="translate(142.000000, 127.000000)">
                        <mask id="mask-2" fill="white">
                            <use xlink:href="#path-1"></use>
                        </mask>
                        <use id="蒙版" fill="#3AD53E" fill-rule="nonzero" xlink:href="#path-1"></use>
                        <g mask="url(#mask-2)" fill="#61D274" id="3.颜色/2.成功-安全">
                            <g>
                                <rect id="矩形" x="0" y="0" width="16" height="16"></rect>
                            </g>
                        </g>
                        <path d="M5.07067608,4.08190397 C5.28676075,4.08181549 5.46654171,4.23744964 5.50389526,4.44276966 L5.51101928,4.52188659 L5.51256655,8.29915708 L12.1905305,8.29915708 C12.4336258,8.29915708 12.6306935,8.49622474 12.6306935,8.73932001 C12.6306935,8.9554047 12.4749857,9.13512189 12.2696504,9.17239133 L12.1905305,9.17948294 L5.51256655,9.17948294 C5.0611039,9.17948294 4.6890154,8.83964178 4.63816332,8.40196604 L4.63224073,8.29933739 L4.63069346,4.52224721 C4.63059391,4.27915195 4.82758083,4.08200359 5.07067608,4.08190397 Z" id="路径" fill="#FFFFFF" fill-rule="nonzero" transform="translate(8.630693, 6.630693) rotate(-45.000000) translate(-8.630693, -6.630693) "></path>
                    </g>
                </g>
            </g>
        </g>
    </g>
</svg>