<?xml version="1.0" encoding="UTF-8"?>
<svg width="52px" height="52px" viewBox="0 0 52 52" version="1.1" xmlns="http://www.w3.org/2000/svg" xmlns:xlink="http://www.w3.org/1999/xlink">
    <title>条件-Hover</title>
    <g id="调优助手" stroke="none" stroke-width="1" fill="none" fill-rule="evenodd">
        <g id="导图图标样式" transform="translate(-186.000000, -111.000000)">
            <g id="条件-Hover" transform="translate(188.000000, 113.000000)">
                <circle id="椭圆形" fill="#454646" cx="24" cy="24" r="24"></circle>
                <g id="编组" transform="translate(12.000000, 12.000000)">
                    <g id="编组-2备份" transform="translate(1.000000, 1.000000)">
                        <rect id="矩形" x="0" y="0" width="22" height="22"></rect>
                        <g id="编组" transform="translate(1.000000, 1.000000)" fill="#267DFF">
                            <path d="M6.59151607,0.711658401 C6.79072398,0.4294472 7.20927602,0.4294472 7.40848393,0.711658401 L7.40848393,0.711658401 L9.99999991,4.382 L12.5915161,0.711658401 C12.7726142,0.455102763 13.1349884,0.431779524 13.3490458,0.641688682 L13.4084839,0.711658401 L19.4084839,9.2116584 C19.5276907,9.38053468 19.5306878,9.60535612 19.4160251,9.7773501 L19.4160251,9.7773501 L13.4160251,18.7773501 C13.2181141,19.0742166 12.7818859,19.0742166 12.5839749,18.7773501 L12.5839749,18.7773501 L9.99899991,14.902 L7.41602515,18.7773501 C7.23610603,19.0472288 6.85923054,19.0717632 6.64350118,18.8509534 L6.58397485,18.7773501 L0.583974853,9.7773501 C0.4693122,9.60535612 0.472309287,9.38053468 0.591516068,9.2116584 L0.591516068,9.2116584 Z M7,1.867 L1.606,9.507 L7,17.597 L9.39799991,13.999 L6.58397485,9.7773501 C6.48569258,9.62992669 6.4738542,9.44369126 6.54754655,9.28714204 L6.59151607,9.2116584 L9.38799991,5.249 L7,1.867 Z M13,1.867 L10.6109999,5.249 L13.4084839,9.2116584 C13.5106612,9.35640949 13.5274599,9.54226316 13.4579669,9.70072118 L13.4160251,9.7773501 L10.6009999,13.999 L13,17.597 L18.393,9.507 L13,1.867 Z M9.99999991,6.116 L7.606,9.507 L9.99999991,13.097 L12.393,9.507 L9.99999991,6.116 Z" id="形状结合"></path>
                        </g>
                    </g>
                </g>
            </g>
        </g>
    </g>
</svg>