<?xml version="1.0" encoding="UTF-8"?>
<svg width="52px" height="52px" viewBox="0 0 52 52" version="1.1" xmlns="http://www.w3.org/2000/svg" xmlns:xlink="http://www.w3.org/1999/xlink">
    <title>条件-选中</title>
    <g id="调优助手" stroke="none" stroke-width="1" fill="none" fill-rule="evenodd">
        <g id="导图图标样式" transform="translate(-351.000000, -111.000000)">
            <g id="条件-选中" transform="translate(353.000000, 113.000000)">
                <circle id="椭圆形" stroke="#0067FF" stroke-width="2" fill="#515253" cx="24" cy="24" r="23"></circle>
                <g id="编组" transform="translate(12.000000, 12.000000)">
                    <g id="编组-2备份" transform="translate(1.000000, 1.000000)">
                        <rect id="矩形" x="0" y="0" width="22" height="22"></rect>
                        <path d="M14.3490458,1.64168868 L14.4084839,1.7116584 L20.4084839,10.2116584 C20.5106612,10.3564095 20.5274599,10.5422632 20.4579669,10.7007212 L20.4160251,10.7773501 L14.4160251,19.7773501 C14.236106,20.0472288 13.8592305,20.0717632 13.6435012,19.8509534 L13.5839749,19.7773501 L10.9989999,15.902 L8.41602515,19.7773501 C8.23610603,20.0472288 7.85923054,20.0717632 7.64350118,19.8509534 L7.58397485,19.7773501 L1.58397485,10.7773501 C1.48569258,10.6299267 1.4738542,10.4436913 1.54754655,10.287142 L1.59151607,10.2116584 L7.59151607,1.7116584 C7.77261417,1.45510276 8.13498841,1.43177952 8.34904581,1.64168868 L8.40848393,1.7116584 L10.9999999,5.382 L13.5915161,1.7116584 C13.7726142,1.45510276 14.1349884,1.43177952 14.3490458,1.64168868 Z M8,2.867 L2.606,10.507 L8,18.597 L10.3979999,14.999 L7.58397485,10.7773501 C7.48569258,10.6299267 7.4738542,10.4436913 7.54754655,10.287142 L7.59151607,10.2116584 L10.3879999,6.249 L8,2.867 Z M14,2.867 L11.6109999,6.249 L14.4084839,10.2116584 C14.5106612,10.3564095 14.5274599,10.5422632 14.4579669,10.7007212 L14.4160251,10.7773501 L11.6009999,14.999 L14,18.597 L19.393,10.507 L14,2.867 Z" id="形状结合" fill="#E8E8E8"></path>
                    </g>
                </g>
            </g>
        </g>
    </g>
</svg>