<?xml version="1.0" encoding="UTF-8"?>
<svg width="40px" height="40px" viewBox="0 0 40 40" version="1.1" xmlns="http://www.w3.org/2000/svg" xmlns:xlink="http://www.w3.org/1999/xlink">
    <title>4.组件/2.通用/Bigicon/存储IO/选中</title>
    <defs>
        <linearGradient x1="78.8051781%" y1="15.4483408%" x2="78.8051781%" y2="93.9717074%" id="linearGradient-1">
            <stop stop-color="#B8BDCA" offset="0%"></stop>
            <stop stop-color="#868B98" offset="100%"></stop>
        </linearGradient>
        <path d="M26,1.54500412e-10 C27.1045695,1.54500412e-10 28,0.886476195 28,1.98 L28,31.02 C28,32.1135238 27.1045695,33 26,33 L2,33 C0.8954305,33 0,32.1135238 0,31.02 L0,1.98 C0,0.886476195 0.8954305,1.54500412e-10 2,1.54500412e-10 L26,1.54500412e-10 Z M25.6,2 L2.4,2 C2.1790861,2 2,2.1790861 2,2.4 L2,30.6 C2,30.8209139 2.1790861,31 2.4,31 L25.6,31 C25.8209139,31 26,30.8209139 26,30.6 L26,2.4 C26,2.1790861 25.8209139,2 25.6,2 Z M13.5,9.99999999 C17.0898509,9.99999999 20,12.9101491 20,16.5 C20,20.0898509 17.0898509,23 13.5,23 C13.1418103,23 12.7903875,22.9710273 12.4479473,22.9152976 C11.3982063,25.2210881 10.6716885,26.6174066 10.2398084,27.1507341 C9.19260363,28.4439243 7.47100738,28.6125441 6.27431029,27.6434779 C5.09085932,26.6851382 5.02407879,24.8362672 6.14682813,23.7374504 L6.2842112,23.6088757 C6.73122292,23.204581 7.68143856,22.4483725 9.14846568,21.3286556 C7.82954398,20.1395115 7,18.4166309 7,16.5 C7,12.9101491 9.91014913,9.99999999 13.5,9.99999999 Z M23,26 C23.5522847,26 24,26.4477152 24,27 C24,27.5522847 23.5522847,28 23,28 C22.4477153,28 22,27.5522847 22,27 C22,26.4477152 22.4477153,26 23,26 Z M12.1164763,20.3342348 C9.14685053,22.8136829 7.53439905,24.1835238 7.27912183,24.4437575 C6.61594474,25.1198106 6.55486413,26.1549865 7.11340415,26.6072833 C7.74108878,27.1155723 8.7070744,26.9248153 9.41375731,26.0521346 C9.70519887,25.6922342 10.6519907,23.9758356 12.2541329,20.9029386 L12.4223838,20.5803045 C12.4734126,20.482219 12.4352656,20.3613379 12.33718,20.3103091 C12.2655222,20.2730292 12.1784806,20.2824651 12.1164763,20.3342348 Z M13.5,11 C10.4624339,11 8,13.4624339 8,16.5 C8,18.1900431 8.76226972,19.7020486 9.96175371,20.710961 C10.2980801,20.4562064 10.6561782,20.1863614 11.0360473,19.9011715 L12.6907763,18.6641269 C13.023389,18.4164474 13.4847506,18.4654512 13.7585887,18.7645846 L13.8107623,18.8277325 C13.981573,19.0571171 14.0169631,19.3602289 13.9035903,19.6227936 L13.1791283,21.2837623 C13.0758993,21.5177549 12.9751463,21.7448541 12.87685,21.9650906 C13.082008,21.9881886 13.2896246,22 13.5,22 C16.5375661,22 19,19.5375661 19,16.5 C19,13.4624339 16.5375661,11 13.5,11 Z M5,5 C5.55228475,5 6,5.44771525 6,6 C6,6.55228475 5.55228475,7 5,7 C4.44771525,7 4,6.55228475 4,6 C4,5.44771525 4.44771525,5 5,5 Z M23,5 C23.5522847,5 24,5.44771525 24,6 C24,6.55228475 23.5522847,7 23,7 C22.4477153,7 22,6.55228475 22,6 C22,5.44771525 22.4477153,5 23,5 Z" id="path-2"></path>
        <filter x="-7.1%" y="-3.0%" width="114.3%" height="112.1%" filterUnits="objectBoundingBox" id="filter-4">
            <feOffset dx="0" dy="1" in="SourceAlpha" result="shadowOffsetOuter1"></feOffset>
            <feGaussianBlur stdDeviation="0.5" in="shadowOffsetOuter1" result="shadowBlurOuter1"></feGaussianBlur>
            <feColorMatrix values="0 0 0 0 0   0 0 0 0 0   0 0 0 0 0  0 0 0 0.883987107 0" type="matrix" in="shadowBlurOuter1"></feColorMatrix>
        </filter>
    </defs>
    <g id="4.组件/2.通用/Bigicon/存储IO/选中" stroke="none" stroke-width="1" fill="none" fill-rule="evenodd">
        <g id="路径-5" transform="translate(6.000000, 3.000000)">
            <mask id="mask-3" fill="white">
                <use xlink:href="#path-2"></use>
            </mask>
            <g id="蒙版" fill-rule="nonzero">
                <use fill="black" fill-opacity="1" filter="url(#filter-4)" xlink:href="#path-2"></use>
                <use fill="url(#linearGradient-1)" xlink:href="#path-2"></use>
            </g>
            <polygon fill="#65D9D7" mask="url(#mask-3)" points="8.5 10 23 10 23 23.5 11 29.5 4 27 5 14.5"></polygon>
        </g>
    </g>
</svg>