<?xml version="1.0" encoding="UTF-8"?>
<svg width="16px" height="16px" viewBox="0 0 16 16" version="1.1" xmlns="http://www.w3.org/2000/svg" xmlns:xlink="http://www.w3.org/1999/xlink">
    <title>取消</title>
    <desc>Created with Sketch.</desc>
    <g id="Porting-advisor" stroke="none" stroke-width="1" fill="none" fill-rule="evenodd">
        <g id="编辑修改操作2" transform="translate(-995.000000, -228.000000)" fill="#6C7280" fill-rule="nonzero">
            <g id="编组-12" transform="translate(851.000000, 172.000000)">
                <g id="Button按钮/描边小按钮/a默认备份-5" transform="translate(136.000000, 48.000000)">
                    <g id="编组">
                        <g id="取消" transform="translate(8.000000, 8.000000)">
                            <path d="M10.8522188,3.65042098 C10.8522188,3.30926166 10.5828594,3.03013277 10.2536406,3.03013277 L3.99090625,3.03013277 C3.6616875,3.03013277 3.39232813,3.30926166 3.39232813,3.65042098 C3.39232813,3.99158031 3.6616875,4.2707092 3.99090625,4.2707092 L10.2536406,4.2707092 C10.582875,4.27069301 10.8522188,3.99158031 10.8522188,3.65042098 L10.8522188,3.65042098 Z M8.5033125,5.9496114 L3.99090625,5.9496114 C3.6616875,5.9496114 3.39232813,6.22874028 3.39232813,6.56989961 C3.39232813,6.91105894 3.6616875,7.19018782 3.99090625,7.19018782 L8.5033125,7.19018782 C8.83251562,7.19018782 9.10189062,6.91105894 9.10189062,6.56989961 C9.10189062,6.22874028 8.83251562,5.9496114 8.5033125,5.9496114 Z M14.0955625,13.071454 L15.8254062,11.2788698 C16.0581875,11.0376457 16.0581875,10.6428918 15.8254062,10.4016516 C15.5926094,10.1604275 15.2116719,10.1604275 14.978875,10.4016516 L13.2490312,12.1942358 L11.5191875,10.4016516 C11.2864062,10.1604275 10.9054531,10.1604275 10.6726719,10.4016516 C10.4398906,10.6428918 10.4398906,11.0376457 10.6726719,11.2788698 L12.4025156,13.071454 L10.6726719,14.8640544 C10.4398906,15.1052785 10.4398906,15.5000486 10.6726719,15.7412727 C10.9054531,15.9824968 11.2864062,15.9824968 11.5191875,15.7412727 L13.2490312,13.9486885 L14.978875,15.7412727 C15.2116719,15.9824968 15.5926094,15.9824968 15.8254062,15.7412727 C16.0581875,15.5000486 16.0581875,15.1052785 15.8254062,14.8640544 L14.0955625,13.071454 Z M7.51184375,8.86910622 L3.99090625,8.86910622 C3.6616875,8.86910622 3.39232813,9.1482513 3.39232813,9.48939443 C3.39232813,9.83055376 3.6616875,10.1096988 3.99090625,10.1096988 L7.51185938,10.1096988 C7.84107813,10.1096988 8.1104375,9.83055376 8.1104375,9.48939443 C8.1104375,9.1482513 7.84107813,8.86910622 7.51184375,8.86910622 L7.51184375,8.86910622 Z" id="形状"></path>
                            <path d="M7.46895313,14.7085654 L1.95189063,14.7085654 C1.52248438,14.7085654 1.17114063,14.3444948 1.17114063,13.8994981 L1.17114063,2.03314443 C1.17114063,1.58818005 1.52248438,1.22407707 1.95189063,1.22407707 L12.1017187,1.22407707 C12.5311406,1.22407707 12.8824687,1.58818005 12.8824687,2.03314443 L12.8824687,7.93073187 C12.8824687,8.26585168 13.1446406,8.53753238 13.4680312,8.53753238 C13.7914219,8.53753238 14.0535937,8.26585168 14.0535937,7.93073187 L14.0535937,1.62861075 C14.0535937,0.738617228 13.3509062,0.0104598446 12.4920781,0.0104598446 L1.56151562,0.0104598446 C0.7026875,0.0104598446 0,0.738617228 0,1.62861075 L0,14.3040479 C0,15.1940253 0.7026875,15.9221988 1.56151562,15.9221988 L7.46895313,15.9221988 C7.79234375,15.9221988 8.05451563,15.6505181 8.05451563,15.3153983 C8.05451563,14.9802785 7.79234375,14.7085654 7.46895313,14.7085654 Z" id="路径"></path>
                        </g>
                    </g>
                </g>
            </g>
        </g>
    </g>
</svg>