<?xml version="1.0" encoding="UTF-8"?>
<svg width="18px" height="86px" viewBox="0 0 18 86" version="1.1" xmlns="http://www.w3.org/2000/svg" xmlns:xlink="http://www.w3.org/1999/xlink">
    <title>分组 34</title>
    <desc>Created with Sketch.</desc>
    <defs>
        <path d="M0,0 L9.11107923,10.6295924 C10.9752941,12.8045097 12,15.5745537 12,18.4390889 L12,61.5609111 C12,64.4254463 10.9752941,67.1954903 9.11107923,69.3704076 L0,80 L0,80 L0,0 Z" id="path-1"></path>
        <filter x="-41.7%" y="-5.0%" width="183.3%" height="112.5%" filterUnits="objectBoundingBox" id="filter-2">
            <feOffset dx="0" dy="1" in="SourceAlpha" result="shadowOffsetOuter1"></feOffset>
            <feGaussianBlur stdDeviation="1.5" in="shadowOffsetOuter1" result="shadowBlurOuter1"></feGaussianBlur>
            <feComposite in="shadowBlurOuter1" in2="SourceAlpha" operator="out" result="shadowBlurOuter1"></feComposite>
            <feColorMatrix values="0 0 0 0 0   0 0 0 0 0   0 0 0 0 0  0 0 0 0.1 0" type="matrix" in="shadowBlurOuter1"></feColorMatrix>
        </filter>
        <polygon id="path-3" points="0 0 8 0 4 5"></polygon>
    </defs>
    <g id="Porting" stroke="none" stroke-width="1" fill="none" fill-rule="evenodd">
        <g id="源码编辑-展开文件列表" transform="translate(-413.000000, -582.000000)">
            <g id="编组-13" transform="translate(64.000000, 252.000000)">
                <g id="分组-34" transform="translate(352.000000, 334.000000)">
                    <g id="矩形" transform="translate(6.000000, 40.000000) rotate(-180.000000) translate(-6.000000, -40.000000) ">
                        <use fill="black" fill-opacity="1" filter="url(#filter-2)" xlink:href="#path-1"></use>
                        <path stroke="#D4D9E6" stroke-width="1" d="M0.5,1.3516287 L0.5,78.6483713 L8.73145093,69.0450119 C10.5179901,66.9607161 11.5,64.3060907 11.5,61.5609111 L11.5,18.4390889 C11.5,15.6939093 10.5179901,13.0392839 8.73145093,10.9549881 L0.5,1.3516287 Z" stroke-linejoin="square" fill="#FFFFFF" fill-rule="evenodd"></path>
                    </g>
                    <g id="icon-下展" transform="translate(6.000000, 40.500000) rotate(90.000000) translate(-6.000000, -40.500000) translate(2.000000, 38.000000)">
                        <mask id="mask-4" fill="white">
                            <use xlink:href="#path-3"></use>
                        </mask>
                        <g id="蒙版"></g>
                        <g id="颜色/6C7280" mask="url(#mask-4)" fill="#6C7280" fill-rule="evenodd" stroke-width="1">
                            <g id="颜色/888888">
                                <rect id="矩形备份" x="0" y="0" width="8" height="5"></rect>
                            </g>
                        </g>
                    </g>
                </g>
            </g>
        </g>
    </g>
</svg>