<?xml version="1.0" encoding="UTF-8"?>
<svg width="16px" height="16px" viewBox="0 0 16 16" version="1.1" xmlns="http://www.w3.org/2000/svg" xmlns:xlink="http://www.w3.org/1999/xlink">
    <title>形状</title>
    <g id="8月份需求" stroke="none" stroke-width="1" fill="none" fill-rule="evenodd">
        <g id="代码迁移工具报告1" transform="translate(-1241.000000, -449.000000)" fill="#616161" fill-rule="nonzero">
            <g id="结构变量内存空间分配" transform="translate(1136.000000, 224.000000)">
                <g id="编组9" transform="translate(0.000000, 46.000000)">
                    <g id="编组10" transform="translate(24.000000, 24.000000)">
                        <g id="编组5备份-3" transform="translate(61.000000, 0.000000)">
                            <g id="编组-5" transform="translate(20.000000, 155.000000)">
                                <path d="M6.49936842,4.73903158 C6.49936842,4.50661053 6.68800001,4.31797894 6.92042106,4.31797894 L11.7669053,4.31797894 C11.9994462,4.31797894 12.1879579,4.50649064 12.1879579,4.73903158 C12.1879579,4.97157252 11.9994462,5.16008422 11.7669053,5.16008422 L6.92042106,5.16008422 C6.68788011,5.16008422 6.49936842,4.97157253 6.49936842,4.73903158 Z M6.92042106,7.14273685 L11.7669053,7.14273685 C11.9994462,7.14273685 12.1879579,6.95422516 12.1879579,6.72168421 C12.1879579,6.48914326 11.9994462,6.30063157 11.7669053,6.30063157 L6.92042106,6.30063157 C6.68788012,6.30063157 6.49936844,6.48914327 6.49936844,6.72168421 C6.49936844,6.95422515 6.68788012,7.14273685 6.92042106,7.14273685 Z M16,11.3047579 L16,14.8298105 C15.9994426,15.4514325 15.4955589,15.9551654 14.8739368,15.9555368 L1.12606317,15.9555368 C0.50451793,15.95498 0.00074277875,15.4513556 0,14.8298105 L0,11.3047579 C0,10.8857263 0.232421052,10.5239579 0.572968421,10.3296 L0.572968421,3.19696842 C0.573896953,2.18607921 1.39315289,1.36682327 2.4040421,1.36589474 L3.32294738,1.36589474 C3.52976843,0.581052631 4.24353685,-1.17239551e-13 5.09237895,-1.17239551e-13 L13.5966316,-1.17239551e-13 C14.6074216,0.00148453401 15.4264067,0.820620285 15.4277053,1.83141054 L15.4277053,10.3134316 C15.4277053,10.318821 15.4246737,10.3228631 15.4243368,10.3279158 C15.7662316,10.5219368 16,10.884379 16,11.3047579 Z M4.10273684,1.83107368 L4.10273684,10.1783579 L5.72294738,10.1783579 C5.93898458,10.178277 6.12002957,10.3417123 6.14197894,10.5566316 C6.18846315,11.0127158 6.94635789,11.5008 8.00033684,11.5008 C9.05431578,11.5008 9.81221052,11.0127158 9.85869473,10.5566316 C9.88079311,10.3417878 10.0617491,10.1784329 10.2777263,10.1783579 L14.5852632,10.1783579 L14.5852632,1.83107368 C14.5847065,1.28505769 14.1423105,0.842511013 13.5962947,0.84176842 L5.09237895,0.84176842 C4.54617692,0.842325067 4.10347943,1.28487187 4.10273684,1.83107368 Z M1.41507369,3.19696842 L1.41507369,10.1786947 L3.26063158,10.1786947 L3.26063158,2.208 L2.40370527,2.208 C1.85787553,2.2087426 1.41563035,2.65113846 1.41507369,3.19696842 Z M15.1578947,11.3047579 C15.1577096,11.1479544 15.03074,11.0208342 14.8739368,11.0204632 L10.6000842,11.0204632 C10.2794105,11.7955368 9.24395789,12.3429053 8,12.3429053 C6.75604211,12.3429053 5.72058947,11.7955368 5.39991579,11.0204632 L1.12606317,11.0204632 C0.969260032,11.0208342 0.842290406,11.1479544 0.842105273,11.3047579 L0.842105273,14.8298105 C0.842105273,14.9864421 0.969431589,15.1134316 1.12606317,15.1134316 L14.8739368,15.1134316 C15.030631,15.1134316 15.1577088,14.9865046 15.1578947,14.8298105 L15.1578947,11.3047579 Z" id="形状"></path>
                            </g>
                        </g>
                    </g>
                </g>
            </g>
        </g>
    </g>
</svg>