<?xml version="1.0" encoding="UTF-8"?>
<svg width="14px" height="16px" viewBox="0 0 14 16" version="1.1" xmlns="http://www.w3.org/2000/svg" xmlns:xlink="http://www.w3.org/1999/xlink">
    <title>文件列表</title>
    <desc>Created with Sketch.</desc>
    <g id="Porting" stroke="none" stroke-width="1" fill="none" fill-rule="evenodd">
        <g id="源码编辑-折叠文件列表备份" transform="translate(-64.000000, -210.000000)" fill="#6C7280" fill-rule="nonzero">
            <g id="文件列表" transform="translate(64.000000, 210.000000)">
                <polygon id="路径" points="3.0841974 3.08179723 10.4574693 3.08179723 10.4574693 4.31067587 3.0841974 4.31067587 3.0841974 3.08179723"></polygon>
                <polygon id="路径" points="3.0841974 5.53955454 10.4574693 5.53955454 10.4574693 6.76843318 3.0841974 6.76843318"></polygon>
                <polygon id="路径" points="3.0841974 7.99731183 10.4574693 7.99731183 10.4574693 9.22619047 3.0841974 9.22619047"></polygon>
                <path d="M12.9152266,0.00960062164 L0.626440087,0.00960062164 C0.286808753,0.00960062164 0.012000756,0.284715827 0.012000756,0.624039953 L0.012000756,15.3705837 C0.012000756,15.7102151 0.286808737,15.9850231 0.626440087,15.9850231 L8.61415129,15.9850231 L13.5296659,11.6839478 L13.5296659,0.624039936 C13.5296659,0.284715827 13.2548579,0.00960062164 12.9152266,0.00960062164 Z M1.24087942,1.23847927 L12.3007872,1.23847927 L12.3007872,10.4550691 L8.61415131,10.4550691 C8.27451998,10.4550691 7.99971198,10.7298771 7.99971198,11.0695085 L7.99971198,14.7561444 L1.24087942,14.7561444 L1.24087942,1.23847927 Z M11.6635522,11.6839478 L9.22859063,13.814086 L9.22859063,11.6839478 L11.6635522,11.6839478 Z" id="形状"></path>
            </g>
        </g>
    </g>
</svg>