<?xml version="1.0" encoding="UTF-8"?>
<svg width="16px" height="16px" viewBox="0 0 16 16" version="1.1" xmlns="http://www.w3.org/2000/svg" xmlns:xlink="http://www.w3.org/1999/xlink">
    <title>灯泡</title>
    <g id="灯泡" stroke="none" stroke-width="1" fill="none" fill-rule="evenodd">
        <path d="M9.20542875,15.210364 C9.42257866,15.210364 9.60024676,15.3781616 9.61011721,15.605182 C9.61011721,15.8253229 9.43377242,15.9897761 9.23408373,15.9995408 L9.2152992,16 L6.48118445,16 C6.2541641,16 6.08636644,15.8223319 6.08636644,15.605182 C6.08636644,15.385041 6.26271124,15.2205879 6.46239992,15.2108232 L6.48118445,15.210364 L9.20542875,15.210364 Z M9.79765577,14.0456508 C10.0148057,14.0456508 10.1826033,14.2134485 10.1924738,14.4404688 C10.1924738,14.6606098 10.016129,14.8250629 9.8164403,14.8348276 L9.79765577,14.8352869 L5.89882788,14.8352869 C5.67180753,14.8352869 5.50400987,14.6576188 5.50400987,14.4404688 C5.50400987,14.2203279 5.68035467,14.0558748 5.88004335,14.0461101 L5.89882788,14.0456508 L9.79765577,14.0456508 Z M7.8433066,0 C11.0808143,0 13.6866132,2.61566934 13.7063541,5.8630475 C13.7063541,7.92488587 12.632537,9.73519951 11.0212308,10.7768148 L10.9722394,10.8081431 L10.9722394,12.8611968 C10.9722394,13.2776181 10.6396871,13.6275289 10.2169602,13.6405848 L10.1924738,13.6409624 L5.51388032,13.6409624 C5.09745906,13.6409624 4.74754825,13.3084101 4.73449232,12.8856832 L4.73411474,12.8611968 L4.73411474,10.7982727 C3.08574954,9.77174584 2,7.93584207 2,5.85317705 C2,2.60579889 4.60579889,0 7.8433066,0 Z M6.3331277,2.13201727 C6.18507094,1.91486737 5.88895743,1.85564466 5.67180753,2.00370142 C4.59592844,2.73411474 3.80629241,3.81986428 3.44108575,5.06354102 C3.36212215,5.32017273 3.5101789,5.57680444 3.76681061,5.65576804 L3.82255891,5.66698088 C3.84932758,5.67195558 3.87538556,5.67550895 3.90499692,5.67550895 C4.10919341,5.67463181 4.28895199,5.5431862 4.35266002,5.35087742 L4.35903763,5.33004318 C4.66502159,4.3133868 5.31647131,3.40530537 6.21468229,2.8032079 C6.4318322,2.65515114 6.4910549,2.35903763 6.3331277,2.13201727 Z" id="形状备份-2" fill="#ED4B4B" fill-rule="nonzero"></path>
    </g>
</svg>