<?xml version="1.0" encoding="UTF-8"?>
<svg width="16px" height="17px" viewBox="0 0 16 17" version="1.1" xmlns="http://www.w3.org/2000/svg" xmlns:xlink="http://www.w3.org/1999/xlink">
    <title>缺失</title>
    <g id="顶部导航" stroke="none" stroke-width="1" fill="none" fill-rule="evenodd">
        <g id="代码迁移工具-报告1" transform="translate(-1210.000000, -304.000000)" fill="#EF6D6D">
            <g id="编组-9" transform="translate(1154.000000, 204.000000)">
                <g id="编组-10" transform="translate(40.000000, 30.000000)">
                    <g id="编组-5备份">
                        <g id="缺失" transform="translate(16.000029, 70.654420)">
                            <path d="M2.4443681,0.977766871 C1.63533742,0.977766871 0.977766871,1.63533742 0.977766871,2.4443681 L0.977766871,13.2228712 C0.977766871,14.0319018 1.63533742,14.6894724 2.4443681,14.6894724 L9.41909202,14.6894724 C10.2281227,14.6894724 10.8856933,14.0319018 10.8856933,13.2228712 L10.8856933,2.4443681 C10.8856933,1.63533742 10.2281227,0.977766871 9.41909202,0.977766871 L2.4443681,0.977766871 Z M9.41909202,15.6652761 L2.4443681,15.6652761 C1.09663804,15.6652761 5.13367127e-13,14.5687362 5.13367127e-13,13.220908 L5.13367127e-13,2.4443681 C5.13367127e-13,1.09663804 1.09663804,2.48689958e-14 2.4443681,2.48689958e-14 L9.41909202,2.48689958e-14 C10.7668221,2.48689958e-14 11.8634601,1.09663804 11.8634601,2.4443681 L11.8634601,13.2228712 C11.8615951,14.5706012 10.7649571,15.6652761 9.41909202,15.6652761 L9.41909202,15.6652761 Z" id="Fill-1"></path>
                            <path d="M2.99457178,8.61776687 C2.72424049,8.61776687 2.50573742,8.39916564 2.50573742,8.12893252 C2.50573742,7.85860123 2.72424049,7.64 2.99457178,7.64 L7.75874356,7.64 C8.02907485,7.64 8.24769963,7.85860123 8.24769963,8.12893252 C8.2495411,8.39916564 8.03103804,8.61776687 7.76070675,8.61776687 L2.99457178,8.61776687 Z M2.99457178,5.32785276 C2.72424049,5.32785276 2.50573742,5.10925153 2.50573742,4.83892025 C2.50573742,4.56868712 2.72424049,4.35008589 2.99457178,4.35008589 L8.74809325,4.35008589 C9.01842454,4.35008589 9.23692761,4.56868712 9.23692761,4.83892025 C9.23692761,5.10925153 9.01842454,5.32785276 8.74809325,5.32785276 L2.99457178,5.32785276 Z M9.41911166,15.6653252 C9.14878037,15.6653252 8.93017914,15.4467239 8.93017914,15.1763926 C8.93017914,14.9061595 9.14878037,14.6875583 9.41911166,14.6875583 L12.0609767,14.6875583 C12.8450748,14.6875583 13.4835043,14.0491288 13.4835043,13.2650307 L13.4835043,7.86159509 C13.4835043,7.5912638 13.7020074,7.37266258 13.9723387,7.37266258 C14.2426699,7.37266258 14.4612712,7.5912638 14.4612712,7.86159509 L14.4612712,13.2668957 C14.459308,14.5897914 13.3837742,15.6653252 12.0609767,15.6653252 L9.41911166,15.6653252 Z" id="Fill-3"></path>
                            <path d="M13.4528491,4.9876908 C13.4605055,4.01571534 13.5429595,3.5920589 14.4017571,2.99004663 C14.7430577,2.75043926 14.9616589,2.34396074 14.9328982,2.00266012 C14.9136589,1.78602209 14.7967509,1.62886871 14.5762847,1.52531043 C14.3327509,1.41026748 14.1237693,1.39112638 13.935892,1.46778896 C13.5677939,1.61924908 13.3185669,2.11200982 13.2610454,2.27112638 C13.1690699,2.52604663 12.889119,2.65640245 12.6341988,2.56442699 C12.3811436,2.47235337 12.2488245,2.19250061 12.3408,1.9394454 C12.3791804,1.83402209 12.7357939,0.904157055 13.5639656,0.562856442 C14.0068613,0.380770552 14.5014871,0.407568098 14.9961129,0.641482209 C15.529119,0.892672393 15.8608,1.35853742 15.9087018,1.92020613 C15.9681865,2.61232883 15.5981252,3.34666012 14.9654871,3.78945767 C14.4382724,4.15951902 14.4382724,4.24000982 14.432481,4.9954454 C14.4286528,5.2638135 14.2100515,5.48045153 13.9416834,5.48045153 C13.6675239,5.47848834 13.4508859,5.25802209 13.4528491,4.9876908 Z" id="Fill-5"></path>
                            <path d="M13.9703951,6.85310429 C14.2404319,6.85310429 14.4593276,6.63430675 14.4593276,6.36426994 C14.4593276,6.09433129 14.2404319,5.87543558 13.9703951,5.87543558 C13.7003583,5.87543558 13.4815607,6.09433129 13.4815607,6.36426994 C13.4815607,6.63430675 13.7003583,6.85310429 13.9703951,6.85310429 Z" id="Fill-7"></path>
                        </g>
                    </g>
                </g>
            </g>
        </g>
    </g>
</svg>