<?xml version="1.0" encoding="UTF-8"?>
<svg width="70px" height="60px" viewBox="0 0 70 60" version="1.1" xmlns="http://www.w3.org/2000/svg" xmlns:xlink="http://www.w3.org/1999/xlink">
    <title>配置远端服务器-浅</title>
    <g id="配置远端服务器-浅" stroke="none" stroke-width="1" fill="none" fill-rule="evenodd">
        <path d="M62.9750104,20.0166597 C65.1803415,20.0166597 66.9733444,21.8096626 66.9733444,24.0149938 L66.9733444,24.0149938 L66.9733444,56.001666 C66.9733444,58.2069971 65.1803415,60 62.9750104,60 L62.9750104,60 L38.9850062,60 C36.7796751,60 34.9866722,58.2069971 34.9866722,56.001666 L34.9866722,56.001666 L34.9866722,24.0149938 C34.9866722,21.8096626 36.7796751,20.0166597 38.9850062,20.0166597 L38.9850062,20.0166597 Z M40.9841733,0 C44.4639733,0 47.9250312,0.83090379 51.0049979,2.40524781 C53.9787589,3.92961266 56.608913,6.15368596 58.6143274,8.84006664 C59.2765514,9.727197 59.0953769,10.9766764 58.2082466,11.6389005 C57.3211162,12.3011245 56.0716368,12.11995 55.4094127,11.2328197 C53.7725948,9.03373594 51.6172428,7.21574344 49.180758,5.96626406 C46.6318201,4.6605581 43.8704706,3.99833403 40.9841733,3.99833403 C36.179925,3.99833403 31.6630571,5.8788005 28.2644731,9.27113703 C24.8658892,12.6634736 22.9916701,17.1865889 22.9916701,21.9908372 L22.9916701,21.9908372 L22.9916701,22.0158267 C22.9916701,23.121616 22.0982924,24.0149938 20.9925031,24.0149938 C17.2565598,24.0149938 13.7392753,25.4706372 11.0966264,28.1132861 C8.45397751,30.755935 6.99833403,34.2732195 6.99833403,38.0091628 C6.99833403,41.7451062 8.45397751,45.2623907 11.0966264,47.9050396 C13.7392753,50.5476885 17.2565598,52.0033319 20.9925031,52.0033319 L20.9925031,52.0033319 L28.9891712,52.0033319 C30.0949604,52.0033319 30.9883382,52.8967097 30.9883382,54.002499 C30.9883382,55.1082882 30.0949604,56.001666 28.9891712,56.001666 L28.9891712,56.001666 L20.9925031,56.001666 C16.1882549,56.001666 11.6651395,54.1274469 8.272803,50.728863 C4.87421908,47.3365264 3,42.8134111 3,38.0091628 C3,33.2049146 4.87421908,28.6817993 8.272803,25.2832153 C11.2153269,22.3469388 14.9950021,20.5476885 19.0745523,20.1166181 C19.2682216,17.8113286 19.8179925,15.5685131 20.7238651,13.4319034 C21.8296543,10.8142441 23.4164931,8.45897543 25.4344023,6.44106622 C27.4523115,4.42315702 29.8075802,2.8363182 32.4252395,1.73052895 C35.1366097,0.581007913 38.0166597,0 40.9841733,0 Z M62.9750104,48.0049979 L38.9850062,48.0049979 L38.9850062,56.001666 L62.9750104,56.001666 L62.9750104,48.0049979 Z M56.9775094,50.0041649 C58.0816188,50.0041649 58.9766764,50.8992225 58.9766764,52.0033319 C58.9766764,53.1074414 58.0816188,54.002499 56.9775094,54.002499 C55.8733999,54.002499 54.9783424,53.1074414 54.9783424,52.0033319 C54.9783424,50.8992225 55.8733999,50.0041649 56.9775094,50.0041649 Z M62.9750104,36.0099958 L38.9850062,36.0099958 L38.9850062,44.0066639 L62.9750104,44.0066639 L62.9750104,36.0099958 Z M56.9775094,38.0091628 C58.0816188,38.0091628 58.9766764,38.9042204 58.9766764,40.0083299 C58.9766764,41.1124393 58.0816188,42.0074969 56.9775094,42.0074969 C55.8733999,42.0074969 54.9783424,41.1124393 54.9783424,40.0083299 C54.9783424,38.9042204 55.8733999,38.0091628 56.9775094,38.0091628 Z M62.9750104,24.0149938 L38.9850062,24.0149938 L38.9850062,32.0116618 L62.9750104,32.0116618 L62.9750104,24.0149938 Z M56.9775094,26.0141608 C58.0816188,26.0141608 58.9766764,26.9092183 58.9766764,28.0133278 C58.9766764,29.1174372 58.0816188,30.0124948 56.9775094,30.0124948 C55.8733999,30.0124948 54.9783424,29.1174372 54.9783424,28.0133278 C54.9783424,26.9092183 55.8733999,26.0141608 56.9775094,26.0141608 Z" id="形状结合" fill="#7E7E7E" fill-rule="nonzero"></path>
    </g>
</svg>