<?xml version="1.0" encoding="UTF-8"?>
<svg width="32px" height="32px" viewBox="0 0 32 32" version="1.1" xmlns="http://www.w3.org/2000/svg" xmlns:xlink="http://www.w3.org/1999/xlink">
    <title>建议反馈</title>
    <defs>
        <rect id="path-1" x="0" y="0" width="32" height="32" rx="1"></rect>
        <filter x="-109.4%" y="-78.1%" width="318.8%" height="318.8%" filterUnits="objectBoundingBox" id="filter-2">
            <feOffset dx="0" dy="10" in="SourceAlpha" result="shadowOffsetOuter1"></feOffset>
            <feGaussianBlur stdDeviation="10" in="shadowOffsetOuter1" result="shadowBlurOuter1"></feGaussianBlur>
            <feColorMatrix values="0 0 0 0 0   0 0 0 0 0   0 0 0 0 0  0 0 0 0.13595389 0" type="matrix" in="shadowBlurOuter1"></feColorMatrix>
        </filter>
    </defs>
    <g id="建议反馈" stroke="none" stroke-width="1" fill="none" fill-rule="evenodd">
        <g id="bgc">
            <use fill="black" fill-opacity="1" filter="url(#filter-2)" xlink:href="#path-1"></use>
            <use fill="#FFFFFF" fill-rule="evenodd" xlink:href="#path-1"></use>
        </g>
        <path d="M15.5,9 C15.7761424,9 16,9.22385763 16,9.5 C16,9.74545989 15.8231248,9.94960837 15.5898756,9.99194433 L15.5,10 L11.5,10 C11.2545401,10 11.0503916,10.1768752 11.0080557,10.4101244 L11,10.5 L11,21.5 C11,21.7454599 11.1768752,21.9496084 11.4101244,21.9919443 L11.5,22 L20.5,22 C20.7454599,22 20.9496084,21.8231248 20.9919443,21.5898756 L21,21.5 L21,15.5 C21,15.2238576 21.2238576,15 21.5,15 C21.7454599,15 21.9496084,15.1768752 21.9919443,15.4101244 L22,15.5 L22,21.5 C22,22.2796961 21.4051119,22.9204487 20.64446,22.9931334 L20.5,23 L11.5,23 C10.7203039,23 10.0795513,22.4051119 10.0068666,21.64446 L10,21.5 L10,10.5 C10,9.72030388 10.5948881,9.07955132 11.35554,9.00686658 L11.5,9 L15.5,9 Z M18.5,19 C18.7761424,19 19,19.2238576 19,19.5 C19,19.7761424 18.7761424,20 18.5,20 L13.5,20 C13.2238576,20 13,19.7761424 13,19.5 C13,19.2238576 13.2238576,19 13.5,19 L18.5,19 Z M18.5,17 C18.7761424,17 19,17.2238576 19,17.5 C19,17.7761424 18.7761424,18 18.5,18 L13.5,18 C13.2238576,18 13,17.7761424 13,17.5 C13,17.2238576 13.2238576,17 13.5,17 L18.5,17 Z M21.8535534,9.14644661 C22.0271197,9.32001296 22.0464049,9.58943736 21.9114088,9.7843055 L21.8535534,9.85355339 L15.8535534,15.8535534 C15.6582912,16.0488155 15.3417088,16.0488155 15.1464466,15.8535534 C14.9728803,15.679987 14.9535951,15.4105626 15.0885912,15.2156945 L15.1464466,15.1464466 L21.1464466,9.14644661 C21.3417088,8.95118446 21.6582912,8.95118446 21.8535534,9.14644661 Z" id="形状结合" fill="#616161"></path>
    </g>
</svg>