<?xml version="1.0" encoding="UTF-8"?>
<svg width="16px" height="16px" viewBox="0 0 16 16" version="1.1" xmlns="http://www.w3.org/2000/svg" xmlns:xlink="http://www.w3.org/1999/xlink">
    <title>树-折叠</title>
    <defs>
        <path d="M14,0 C15.1045695,0 16,0.8954305 16,2 L16,14 C16,15.1045695 15.1045695,16 14,16 L2,16 C0.8954305,16 0,15.1045695 0,14 L0,2 C0,0.8954305 0.8954305,0 2,0 L14,0 Z M14,1 L2,1 C1.48716416,1 1.06449284,1.38604019 1.00672773,1.88337887 L1,2 L1,14 C1,14.5128358 1.38604019,14.9355072 1.88337887,14.9932723 L2,15 L14,15 C14.5128358,15 14.9355072,14.6139598 14.9932723,14.1166211 L15,14 L15,2 C15,1.48716416 14.6139598,1.06449284 14.1166211,1.00672773 L14,1 Z M12,7.5 C12.2761424,7.5 12.5,7.72385763 12.5,8 C12.5,8.24545989 12.3231248,8.44960837 12.0898756,8.49194433 L12,8.5 L4,8.5 C3.72385763,8.5 3.5,8.27614237 3.5,8 C3.5,7.75454011 3.67687516,7.55039163 3.91012437,7.50805567 L4,7.5 L12,7.5 Z" id="path-1"></path>
    </defs>
    <g id="树-折叠" stroke="none" stroke-width="1" fill="none" fill-rule="evenodd">
        <mask id="mask-2" fill="white">
            <use xlink:href="#path-1"></use>
        </mask>
        <use id="形状结合" fill="#979797" fill-rule="nonzero" xlink:href="#path-1"></use>
    </g>
</svg>