<?xml version="1.0" encoding="UTF-8"?>
<svg width="16px" height="16px" viewBox="0 0 16 16" version="1.1" xmlns="http://www.w3.org/2000/svg" xmlns:xlink="http://www.w3.org/1999/xlink">
    <title>下载</title>
    <defs>
        <path d="M15.5,10.5000061 C15.7454599,10.5000061 15.9496084,10.6768813 15.9919443,10.9101305 L16,11.0000061 L16,14.1428633 C16,14.8581831 15.4214798,15.4291935 14.6994551,15.4938961 L14.5625,15.5000061 L1.4375,15.5000061 C0.699236538,15.5000061 0.0772890737,14.9710734 0.00667332861,14.2752062 L0,14.1428633 L0,11.0000061 C0,10.7238638 0.223857625,10.5000061 0.5,10.5000061 C0.745459889,10.5000061 0.94960837,10.6768813 0.991944331,10.9101305 L1,11.0000061 L1,14.1428633 C1,14.3062665 1.14269031,14.4571516 1.34659969,14.4923197 L1.4375,14.5000061 L14.5625,14.5000061 C14.7822379,14.5000061 14.9523954,14.3695464 14.9915014,14.2118259 L15,14.1428633 L15,11.0000061 C15,10.7238638 15.2238576,10.5000061 15.5,10.5000061 Z M7.79469723,7.55381599e-07 C8.04015674,0.000434429949 8.24399683,0.177664909 8.28592645,0.410987504 L8.29382131,0.500877031 L8.278,9.43800613 L12.3105524,6.11420017 C12.4999522,5.95806471 12.7699848,5.96468615 12.95102,6.11773438 L13.0144052,6.18195933 C13.1705407,6.3713591 13.1639192,6.64139166 13.010871,6.82242692 L12.946646,6.88581208 L8.05437544,10.9158198 L7.99921162,10.9477691 C7.94894652,10.973574 7.89663377,10.989483 7.8441361,10.9965881 L7.75714264,10.9996486 L7.72153772,10.9975222 L7.66409684,10.9873246 L7.58022246,10.9600573 L7.50413004,10.9195143 L7.44350711,10.8730703 L2.96092521,6.87307026 C2.75488758,6.68921405 2.73690598,6.37314264 2.92076219,6.16710501 C3.08418994,5.98396045 3.35208401,5.94940338 3.55430521,6.07311316 L3.62672744,6.126942 L7.278,9.38400534 L7.29382131,0.499135224 C7.29430807,0.222993268 7.51855527,-0.000474100525 7.79469723,7.55381599e-07 Z" id="path-1"></path>
    </defs>
    <g id="下载" stroke="none" stroke-width="1" fill="none" fill-rule="evenodd">
        <mask id="mask-2" fill="white">
            <use xlink:href="#path-1"></use>
        </mask>
        <use id="蒙版" fill="#979797" fill-rule="nonzero" xlink:href="#path-1"></use>
    </g>
</svg>