<?xml version="1.0" encoding="UTF-8"?>
<svg width="24px" height="24px" viewBox="0 0 24 24" version="1.1" xmlns="http://www.w3.org/2000/svg" xmlns:xlink="http://www.w3.org/1999/xlink">
    <title>4.组件/2.通用/icon/24/失败</title>
    <defs>
        <path d="M12,0 C18.627417,0 24,5.372583 24,12 C24,18.627417 18.627417,24 12,24 C5.372583,24 0,18.627417 0,12 C0,5.372583 5.372583,0 12,0 Z" id="path-1"></path>
    </defs>
    <g id="4.组件/2.通用/icon/24/失败" stroke="none" stroke-width="1" fill="none" fill-rule="evenodd">
        <mask id="mask-2" fill="white">
            <use xlink:href="#path-1"></use>
        </mask>
        <use id="蒙版" fill="#3AD53E" fill-rule="nonzero" xlink:href="#path-1"></use>
        <g id="3.颜色/3.紧急告警色" mask="url(#mask-2)" fill="#ED4B4B">
            <g transform="translate(-1.714286, -1.714286)" id="矩形">
                <rect x="0" y="0" width="27.4285714" height="27.4285714"></rect>
            </g>
        </g>
        <path d="M13.0625,9.5 L13.53125,19.5714286 L11,19.5714286 L11.375,9.5 L13.0625,9.5 Z M13.4375,5 L13.4375,7.53125 L11.09375,7.53125 L11.09375,5 L13.4375,5 Z" id="形状结合" fill="#FFFFFF" fill-rule="nonzero" transform="translate(12.265625, 12.285714) scale(1, -1) translate(-12.265625, -12.285714) "></path>
    </g>
</svg>