<?xml version="1.0" encoding="UTF-8"?>
<svg width="20px" height="20px" viewBox="0 0 20 20" version="1.1" xmlns="http://www.w3.org/2000/svg" xmlns:xlink="http://www.w3.org/1999/xlink">
    <title>右下角箭头向上icon20*20</title>
    <defs>
        <path d="M12.8721526,1.21966991 C13.1650458,0.926776695 13.6399195,0.926776695 13.9328128,1.21966991 C14.2012982,1.48815536 14.223672,1.909555 13.9999341,2.20352615 L13.9328128,2.28033009 L6.60227446,9.61047335 L13.9328128,16.9406166 C14.2012982,17.2091021 14.223672,17.6305017 13.9999341,17.9244728 L13.9328128,18.0012768 C13.6643273,18.2697622 13.2429277,18.292136 12.9489565,18.0683981 L12.8721526,18.0012768 L5.4649144,10.5940386 C5.24116624,10.3702904 5.12343402,10.1962058 5.05234687,9.96166935 C4.98255104,9.73139334 4.98255104,9.48955335 5.05234687,9.25927734 C5.11158616,9.06383033 5.20321786,8.91036371 5.36160012,8.73515336 L5.4649144,8.62690811 L12.8721526,1.21966991 Z" id="path-1"></path>
    </defs>
    <g id="右下角箭头向上icon20*20" stroke="none" stroke-width="1" fill="none" fill-rule="evenodd">
        <mask id="mask-2" fill="white">
            <use xlink:href="#path-1"></use>
        </mask>
        <use id="蒙版" fill="#FFFFFF" fill-rule="nonzero" transform="translate(9.576241, 9.610473) rotate(90.000000) translate(-9.576241, -9.610473) " xlink:href="#path-1"></use>
    </g>
</svg>