<?xml version="1.0" encoding="UTF-8"?>
<svg width="166px" height="117px" viewBox="0 0 166 117" version="1.1" xmlns="http://www.w3.org/2000/svg" xmlns:xlink="http://www.w3.org/1999/xlink">
    <title>1.无数据备份</title>
    <g id="-" stroke="none" stroke-width="1" fill="none" fill-rule="evenodd">
        <g id="系统性能优化备份-4" transform="translate(-1003.000000, -551.000000)">
            <g id="1.无数据" transform="translate(987.000000, 510.000000)">
                <rect id="Rectangle" x="0" y="0" width="198" height="198"></rect>
                <g id="无数据_2_" stroke-width="1" fill-rule="evenodd" transform="translate(16.632000, 41.184000)">
                    <g id="Group-5_2_">
                        <path d="M149.924261,98.9071059 C145.415561,102.05658 140.19496,104.497423 134.73706,106.150897 C131.414859,107.174477 128.013559,107.804372 124.612259,108.119319 C118.205158,108.749214 111.877157,108.119319 106.261056,105.993424 C87.1979542,98.6708953 66.0782518,115.048163 47.0151496,116.307953 C46.7778495,116.307953 46.4614495,116.307953 46.1450495,116.38669 C41.2408489,116.6229 36.4948484,115.756795 31.9861478,113.237215 C28.4266474,111.268793 24.946247,108.670477 21.5449466,105.521002 C3.58924454,88.8287874 -9.14585693,62.9243593 8.33524509,37.6498262 C29.0594475,7.72981807 38.3703837,12.6115036 49.7045499,16.5483468 C61.038716,20.4851899 66.2760018,22.6033961 86.4465041,21.5798169 C106.617006,20.5562377 108.429509,18.8317158 129.391011,12.6115036 C150.352514,6.39129139 158.387962,41.1142482 164.162263,68.4359398 C166.772563,81.0338379 160.207263,91.7420514 149.924261,98.9071059 Z" id="Path" fill="#EDF2FF"></path>
                        <g id="板子_2_" transform="translate(27.720000, 0.000000)">
                            <rect id="Rectangle_4_" fill="#BACCFF" x="0" y="0" width="109.296" height="82.368"></rect>
                            <rect id="Rectangle_1_" fill="#EDF2FF" x="4.752" y="5.544" width="99.792" height="71.28"></rect>
                            <g id="Group_2_" transform="translate(15.048000, 38.016000)" fill="#CCDAFF">
                                <rect id="Rectangle-Copy_2_" x="0" y="0" width="79.6694516" height="4.9896"></rect>
                                <rect id="Rectangle-Copy-2_2_" x="0" y="9.2664" width="79.6694516" height="4.9896"></rect>
                                <rect id="Rectangle-Copy-3_2_" x="0" y="19.2456" width="36.6414968" height="4.9896"></rect>
                            </g>
                            <g id="Graph_2_" transform="translate(29.304000, 12.672000)">
                                <path d="M1.6192,8.5536 L1.6192,8.5536 C2.112,8.5536 2.5344,9.0288 2.5344,9.6624 L2.5344,13.9392 C2.5344,14.4936 2.112,15.048 1.6192,15.048 L1.6192,15.048 C1.1264,15.048 0.6336,14.5728 0.6336,13.9392 L0.6336,9.6624 C0.704,9.0288 1.1264,8.5536 1.6192,8.5536 Z" id="Value_10_" fill="#DFE8FF"></path>
                                <path d="M5.4208,4.2768 L5.4208,4.2768 C5.9136,4.2768 6.4064,4.752 6.4064,5.3856 L6.4064,13.9392 C6.4064,14.4936 5.984,15.048 5.4208,15.048 L5.4208,15.048 C4.928,15.048 4.5056,14.5728 4.5056,13.9392 L4.5056,5.3856 C4.5056,4.752 4.928,4.2768 5.4208,4.2768 Z" id="Value_4_" fill="#DFE8FF"></path>
                                <path d="M9.9264,2.1384 L9.9264,2.1384 C10.4192,2.1384 10.8416,2.6136 10.8416,3.168 L10.8416,13.86 C10.8416,14.4144 10.4192,14.9688 9.856,14.9688 L9.856,14.9688 C9.3632,14.9688 8.8704,14.4936 8.8704,13.86 L8.8704,3.168 C8.9408,2.6136 9.3632,2.1384 9.9264,2.1384 Z" id="Value_3_" fill="#DFE8FF"></path>
                                <path d="M13.728,4.2768 L13.728,4.2768 C14.2208,4.2768 14.7136,4.752 14.7136,5.3856 L14.7136,13.9392 C14.7136,14.4936 14.2912,15.048 13.728,15.048 L13.728,15.048 C13.2352,15.048 12.7424,14.5728 12.7424,13.9392 L12.7424,5.3856 C12.7424,4.752 13.1648,4.2768 13.728,4.2768 Z" id="Value_2_" fill="#DFE8FF"></path>
                                <path d="M17.5296,0 L17.5296,0 C18.0224,0 18.5152,0.4752 18.5152,1.1088 L18.5152,13.9392 C18.5152,14.4936 18.0928,15.048 17.5296,15.048 L17.5296,15.048 C17.0368,15.048 16.544,14.5728 16.544,13.9392 L16.544,1.1088 C16.544,0.4752 16.9664,0 17.5296,0 Z" id="Value_1_" fill="#CCDAFF"></path>
                            </g>
                            <g id="分组-9_2_" transform="translate(64.944000, 12.672000)">
                                <path d="M2.2968,2.2968 C3.7224,0.8712 5.6232,0 7.7616,0 L7.7616,7.7616 L2.2968,2.2968 Z" id="合并形状_8_" fill="#DFE8FF"></path>
                                <path d="M2.2968,13.3848 C0.8712,11.9592 0,9.9792 0,7.8408 C0,5.7024 0.8712,3.8016 2.2176,2.376 L7.7616,7.92 L2.2968,13.3848 Z" id="合并形状_3_" fill="#CCDAFF"></path>
                                <path d="M2.376,13.464 L7.8408,7.9992 L13.464,13.3056 C12.0384,14.7312 10.0584,15.6816 7.8408,15.6816 C5.7024,15.6816 3.8016,14.8104 2.376,13.464 Z" id="合并形状_2_" fill="#DFE8FF"></path>
                                <path d="M7.92,0 C12.1968,0.0792 15.6816,3.564 15.6816,7.8408 C15.6816,9.9 14.8896,11.8008 13.5432,13.2264 L7.92,7.8408 L7.92,0 Z" id="合并形状_1_" fill="#CCDAFF"></path>
                            </g>
                        </g>
                        <g id="纸_2_" transform="translate(54.648000, 83.952000)">
                            <g id="Group" transform="translate(43.535909, 0.000000)">
                                <polygon id="path-1_3_" fill="#CCDAFF" points="3.8016 0.1584 1.98 1.2672 1.8216 1.4256 1.98 4.8312 6.0984 6.8112 9.9792 4.5144 8.2368 0.1584"></polygon>
                                <path d="M8.2368,0.1584 L5.3856,3.3264 C8.5536,6.6528 10.1376,8.3952 10.1376,8.3952 C10.1376,8.3952 10.6128,6.4944 11.5632,2.6928 L8.2368,0.1584 Z" id="Path-2_6_" fill="#BACCFF"></path>
                                <path d="M1.9008,1.2672 C2.0592,1.2672 3.2208,1.9536 5.3856,3.3264 L10.1376,8.3952 L6.9696,9.0288 C2.6136,6.1776 0.4752,4.6728 0.4752,4.5144 C0.5544,4.4352 1.584,1.2672 1.9008,1.2672 Z" id="Path-11_6_" fill="#DFE8FF"></path>
                            </g>
                            <g id="Group" transform="translate(0.000000, 2.851200)">
                                <g id="Path-8_2_" transform="translate(1.584000, 0.000000)" fill="#D4DFFF">
                                    <polygon id="path-3_3_" points="2.2176 0.1584 0.396 1.2672 0.2376 1.4256 0.396 4.8312 4.5144 6.8112 8.3952 4.5144 6.6528 0.1584"></polygon>
                                </g>
                                <path d="M8.2368,0.1584 L5.3856,3.3264 C8.5536,6.6528 10.1376,8.3952 10.1376,8.3952 C10.1376,8.3952 10.6128,6.4944 11.5632,2.6928 L8.2368,0.1584 Z" id="Path-2_2_" fill="#BACCFF"></path>
                                <path d="M1.9008,1.2672 C2.1384,1.2672 3.3264,1.9008 5.3856,3.2472 C6.9696,5.148 9.7416,7.2072 10.296,8.3952 L6.9696,9.0288 C2.6136,6.1776 0.4752,4.6728 0.4752,4.5144 C0.5544,4.4352 1.584,1.2672 1.9008,1.2672 Z" id="Path-11_2_" fill="#DFE8FF"></path>
                            </g>
                            <g id="Group" transform="translate(17.920882, 12.117600)">
                                <path d="M2.1384,0 L0.8712,0.792 L0.792,0.8712 L0.9504,3.3264 L3.2472,4.9896 C4.356,4.8312 5.148,4.5936 5.544,4.356 C5.94,4.1184 6.2568,3.6432 6.4944,2.9304 L5.2272,0 L2.1384,0 Z" id="path-5_3_" fill="#CCDAFF"></path>
                                <path d="M4.9896,0 L3.6432,3.0888 C5.3856,4.8312 6.2568,5.7024 6.2568,5.7024 C6.2568,5.7024 6.5736,4.356 7.2072,1.7424 L4.9896,0 Z" id="Path-2_1_" fill="#BACCFF"></path>
                                <path d="M0.9504,0.7128 C1.056,0.7128 1.9536,1.5312 3.6432,3.168 L6.84061498,3.168 L6.21384868,6.4152 L4.4352,6.4152 C1.5048,4.356 0.0792,3.2472 0.0792,3.168 C0.0792,3.0096 0.7128,0.7128 0.9504,0.7128 Z" id="Path-11_1_" fill="#DFE8FF"></path>
                            </g>
                        </g>
                    </g>
                    <path d="M146.52,30.888 C143.352,49.5 135.1944,57.4992 121.968,54.8064 C115.632,54.1728 121.7304,43.164 125.928,48.6288 C126.6408,49.4208 127.2744,51.5592 127.0368,54.4104 C126.2448,61.776 119.1168,73.8144 90.288,80.0712" id="Path-15_2_" stroke="#BACCFF" stroke-dasharray="2,2"></path>
                    <path d="M146.52,62.568 C145.0944,70.9632 141.5304,74.6064 135.828,73.3392 C133.056,73.0224 135.7488,68.112 137.5704,70.5672 C137.8872,70.9632 138.204,71.9136 138.0456,73.1808 C137.7288,76.5072 134.64,81.972 122.0472,84.744" id="Path-15-Copy_2_" stroke="#BACCFF" stroke-dasharray="2,2"></path>
                </g>
            </g>
        </g>
    </g>
</svg>