<?xml version="1.0" encoding="UTF-8"?>
<svg width="24px" height="24px" viewBox="0 0 24 24" version="1.1" xmlns="http://www.w3.org/2000/svg" xmlns:xlink="http://www.w3.org/1999/xlink">
    <title>4.组件/2.通用/icon/24/成功</title>
    <defs>
        <path d="M12,0 C18.627417,0 24,5.372583 24,12 C24,18.627417 18.627417,24 12,24 C5.372583,24 0,18.627417 0,12 C0,5.372583 5.372583,0 12,0 Z M20.1734113,7.07814984 C19.8787353,6.78347386 19.4009712,6.78347386 19.1062952,7.07814984 L19.1062952,7.07814984 L11.0113805,15.1730646 L6.43076161,10.5961969 L6.32622179,10.5089283 C6.03205699,10.3053222 5.62547249,10.3345926 5.36364557,10.596634 C5.06909038,10.8914307 5.06928609,11.3691948 5.3640827,11.6637501 L5.3640827,11.6637501 L9.94448299,16.2403992 L10.076067,16.3576247 C10.6682521,16.8265257 11.5312412,16.7874361 12.0784966,16.2401807 L12.0784966,16.2401807 L20.1734113,8.14526593 L20.2607227,8.04076186 C20.4644493,7.74668049 20.4353455,7.34008403 20.1734113,7.07814984 Z" id="path-1"></path>
    </defs>
    <g id="4.组件/2.通用/icon/24/成功" stroke="none" stroke-width="1" fill="none" fill-rule="evenodd">
        <mask id="mask-2" fill="white">
            <use xlink:href="#path-1"></use>
        </mask>
        <use id="形状结合" fill="#3AD53E" fill-rule="nonzero" xlink:href="#path-1"></use>
        <g id="3.颜色/2.成功-安全" mask="url(#mask-2)" fill="#61D274">
            <rect id="矩形" x="0" y="0" width="24" height="24"></rect>
        </g>
    </g>
</svg>