<?xml version="1.0" encoding="utf-8"?>
<!-- Generator: Adobe Illustrator 16.0.0, SVG Export Plug-In . SVG Version: 6.00 Build 0)  -->
<!DOCTYPE svg PUBLIC "-//W3C//DTD SVG 1.1//EN" "http://www.w3.org/Graphics/SVG/1.1/DTD/svg11.dtd">
<svg version="1.1" id="图层_1" xmlns="http://www.w3.org/2000/svg" xmlns:xlink="http://www.w3.org/1999/xlink" x="0px" y="0px"
	 width="56px" height="56px" viewBox="0 0 56 56" enable-background="new 0 0 56 56" xml:space="preserve">
<g>
	<polygon points="54.114,46.645 54.114,55.844 56,55.844 56,46.645 54.114,46.645 	"/>
	<g>
		<path d="M6.863,21.86c4.303,4.014,14.517,9.16,16.973,10.351c0.098,0.049,0.195,0.02,0.249-0.02
			c0.078-0.068,0.068-0.186,0.029-0.264C17.57,17.929,8.573,7.271,8.573,7.271s-4.85,4.36-4.538,9.077
			C4.172,19.746,6.863,21.86,6.863,21.86L6.863,21.86z"/>
		<path d="M26.127,30.756c0.063,0.088,0.151,0.117,0.244,0.098c0.059-0.02,0.127-0.068,0.142-0.195C28.989,6.421,23.89,0,23.89,0
			c-1.392,0.19-2.711,0.513-2.711,0.513c-4.557,1.089-5.68,5.195-5.68,5.195c-0.792,2.158,0.024,5.341,0.024,5.341
			C17.042,17.626,24.491,28.441,26.127,30.756L26.127,30.756z"/>
		<path d="M22.303,35.531c-4.293,0.146-17.227,0.586-17.227,0.586c3.863,6.504,8.313,5.02,8.313,5.02
			c2.408-0.664,7.4-4.082,9.046-5.244c0.103-0.068,0.078-0.195,0.049-0.254C22.449,35.57,22.361,35.531,22.303,35.531L22.303,35.531
			z"/>
		<path d="M31.9,32.191c0.059,0.039,0.156,0.068,0.254,0.02c2.462-1.191,12.67-6.337,16.979-10.351c0,0,2.677-2.114,2.823-5.513
			c0.303-4.717-4.533-9.077-4.533-9.077s-8.997,10.659-15.552,24.657C31.837,32.006,31.822,32.123,31.9,32.191L31.9,32.191z"/>
		<path d="M55.482,21.23c0,0-14.614,7.685-22.175,12.67c-0.059,0.039-0.127,0.117-0.088,0.244c0.02,0.068,0.088,0.137,0.176,0.137
			c2.706,0,12.963,0.01,13.217-0.029c0,0,1.328-0.059,2.96-0.674c0,0,3.644-1.133,5.539-5.181
			C55.111,28.397,56.801,25.087,55.482,21.23L55.482,21.23z"/>
		<path d="M6.419,33.578c1.636,0.615,2.96,0.674,2.96,0.674c0.259,0.039,10.506,0.029,13.217,0.029c0.088,0,0.156-0.068,0.176-0.137
			c0.039-0.127-0.034-0.205-0.088-0.244C15.127,28.915,0.494,21.23,0.494,21.23c-1.304,3.857,0.386,7.167,0.386,7.167
			C2.77,32.445,6.419,33.578,6.419,33.578L6.419,33.578z"/>
		<path d="M50.91,36.117c0,0-12.924-0.439-17.222-0.586c-0.059,0-0.146,0.039-0.186,0.107c-0.029,0.059-0.049,0.186,0.059,0.254
			c1.641,1.162,6.633,4.58,9.046,5.244C42.607,41.137,47.052,42.621,50.91,36.117L50.91,36.117z"/>
		<path d="M29.619,30.854c0.093,0.02,0.182-0.01,0.245-0.098c1.631-2.314,9.089-13.129,10.604-19.707c0,0,0.82-3.184,0.029-5.341
			c0,0-1.133-4.106-5.695-5.195c0,0-1.309-0.322-2.706-0.513c0,0-5.099,6.421-2.618,30.658
			C29.492,30.785,29.561,30.834,29.619,30.854L29.619,30.854z"/>
		<polygon points="6.312,50.365 1.999,50.365 1.999,46.654 0.089,46.654 0.089,55.863 1.999,55.863 1.999,52.123 6.312,52.123 
			6.312,55.863 8.221,55.863 8.221,46.654 6.312,46.654 6.312,50.365 		"/>
		<path d="M17.072,51.918c0,1.504-0.762,2.295-2.14,2.295c-1.387,0-2.154-0.82-2.154-2.354v-5.205h-1.91v5.264
			c0,2.588,1.47,4.082,4.039,4.082c2.584,0,4.069-1.514,4.069-4.16v-5.186h-1.905V51.918L17.072,51.918z"/>
		<polygon points="39.14,52.982 37,46.645 35.437,46.645 33.308,52.982 31.227,46.654 29.194,46.654 32.477,55.863 34.06,55.863 
			36.199,49.809 38.338,55.863 39.931,55.863 43.203,46.654 41.22,46.654 39.14,52.982 		"/>
		<polygon points="46.622,51.898 50.1,51.898 50.1,50.219 46.622,50.219 46.622,48.334 51.663,48.334 51.663,46.654 44.746,46.654 
			44.746,55.854 51.839,55.854 51.839,54.174 46.622,54.174 46.622,51.898 		"/>
		<path d="M24.09,46.654l-4.146,9.199h1.949l0.859-1.914h4.308l0.845,1.914h2.003l-4.133-9.199H24.09L24.09,46.654z M23.46,52.27
			L23.46,52.27l1.441-3.291l1.446,3.291H23.46L23.46,52.27z"/>
	</g>
</g>
</svg>
