<?xml version="1.0" encoding="UTF-8"?>
<svg width="16px" height="16px" viewBox="0 0 16 16" version="1.1" xmlns="http://www.w3.org/2000/svg" xmlns:xlink="http://www.w3.org/1999/xlink">
    <title>画板</title>
    <defs>
        <path d="M8.3406287,0 C10.352861,0 12.2563687,0.686465735 13.7557371,1.91510964 C13.9709634,2.09147487 14.000622,2.40670034 13.8219816,2.61918544 C13.6433412,2.83167055 13.3240492,2.8609515 13.1088229,2.68458627 C11.7902129,1.60406319 10.1152001,1 8.3406287,1 C4.29020765,1 1.01290046,4.1375088 1.01290046,8 C1.01290046,11.8624912 4.29020765,15 8.3406287,15 C10.220809,15 11.9878691,14.3214523 13.3350062,13.1222125 C13.5427337,12.9372907 13.8629726,12.9536336 14.05028,13.1587154 C14.2375874,13.3637972 14.2210337,13.6799576 14.0133062,13.8648794 C12.4811685,15.2288092 10.4728492,16 8.3406287,16 C3.73765516,16 3.55271368e-15,12.42178 3.55271368e-15,8 C3.55271368e-15,3.57821995 3.73765516,0 8.3406287,0 Z M11.4522967,3.31776462 L11.5223644,3.37643991 L15.8197372,7.67381262 C15.9955426,7.84961806 16.01669,8.1209047 15.8820801,8.31615903 L15.8242982,8.3854804 L11.5816575,12.6281211 C11.3863953,12.8233832 11.0677708,12.8213412 10.8699897,12.6235601 C10.6941842,12.4477546 10.6730369,12.176468 10.8076467,11.9812137 L10.8654287,11.9118923 L14.281,8.495 L14.2348784,8.5 L4.10587384,8.5 C3.8261691,8.5 3.59942361,8.27614237 3.59942361,8 C3.59942361,7.75454011 3.77858054,7.55039163 4.01483877,7.50805567 L4.10587384,7.5 L14.232,7.5 L10.8152577,4.08354669 C10.6394522,3.90774126 10.6183048,3.63645461 10.7529147,3.44120028 L10.8106967,3.37187891 C10.984263,3.19831256 11.2553009,3.18064087 11.4522967,3.31776462 Z" id="path-1"></path>
    </defs>
    <g id="画板" stroke="none" stroke-width="1" fill="none" fill-rule="evenodd">
        <mask id="mask-2" fill="white">
            <use xlink:href="#path-1"></use>
        </mask>
        <use id="蒙版" fill="#fff" fill-rule="nonzero" transform="translate(8.000000, 8.000000) scale(-1, 1) translate(-8.000000, -8.000000) " xlink:href="#path-1"></use>
    </g>
</svg>