<?xml version="1.0" encoding="UTF-8"?>
<svg width="16px" height="16px" viewBox="0 0 16 16" version="1.1" xmlns="http://www.w3.org/2000/svg" xmlns:xlink="http://www.w3.org/1999/xlink">
    <title>复制</title>
    <defs>
        <path d="M12.0343499,2 C12.658427,2 13.1659711,2.50754416 13.1659711,3.1316212 L13.1659711,3.1316212 L13.1659711,10.5791332 C13.1659711,11.2032103 12.658427,11.7107544 12.0343499,11.7107544 L12.0343499,11.7107544 L11.0288925,11.7107544 L11.0288925,12.8202247 C11.0288925,13.4443018 10.5213483,13.9518459 9.89727127,13.9518459 L9.89727127,13.9518459 L3.13162119,13.9518459 C2.50754415,13.9518459 2,13.4443018 2,12.8202247 L2,12.8202247 L2,5.37271268 C2,4.74863564 2.50754415,4.2410915 3.13162119,4.2410915 L3.13162119,4.2410915 L4.13707865,4.2410915 L4.13707865,3.1316212 C4.13707865,2.50754415 4.6446228,2 5.26869984,2 L5.26869984,2 Z M9.89727127,4.9634029 L3.13162119,4.9634029 C2.90626004,4.9634029 2.7223114,5.14735152 2.7223114,5.37271268 L2.7223114,5.37271268 L2.7223114,12.8211878 C2.7223114,12.9297435 2.76543498,13.0338531 2.84219545,13.1106135 C2.91895593,13.187374 3.02306548,13.2304976 3.13162119,13.2304976 L3.13162119,13.2304976 L9.89727127,13.2304976 C10.1231071,13.2299681 10.3060516,13.0470237 10.3065811,12.8211878 L10.3065811,12.8211878 L10.3065811,5.37271268 C10.3065811,5.14735154 10.1226324,4.9634029 9.89727127,4.9634029 L9.89727127,4.9634029 Z M12.0343499,2.7223114 L5.26869984,2.7223114 C5.04333869,2.7223114 4.85939005,2.90626004 4.85939005,3.1316212 L4.85939005,3.1316212 L4.85939005,4.2410915 L9.89727127,4.2410915 C10.5213483,4.2410915 11.0288925,4.74863564 11.0288925,5.37271268 L11.0288925,5.37271268 L11.0288925,10.988443 L12.0343499,10.988443 C12.2601858,10.9879135 12.4431302,10.8049691 12.4436597,10.5791332 L12.4436597,10.5791332 L12.4436597,3.1316212 C12.4436597,2.90626004 12.2597111,2.7223114 12.0343499,2.7223114 L12.0343499,2.7223114 Z M8.39582664,10.0850722 C8.59528743,10.0850722 8.75698234,10.2467671 8.75698234,10.4462279 C8.75698234,10.6456887 8.59528743,10.8073836 8.39582664,10.8073836 L8.39582664,10.8073836 L4.63402889,10.8073836 C4.4345681,10.8073836 4.27287319,10.6456887 4.27287319,10.4462279 C4.27287319,10.2467671 4.4345681,10.0850722 4.63402889,10.0850722 L4.63402889,10.0850722 Z M8.39582664,6.96950241 C8.59528743,6.96950241 8.75698234,7.13119732 8.75698234,7.33065811 C8.75698234,7.53011889 8.59528743,7.69181381 8.39582664,7.69181381 L8.39582664,7.69181381 L4.63402889,7.69181381 C4.4345681,7.69181381 4.27287319,7.53011889 4.27287319,7.33065811 C4.27287319,7.13119732 4.4345681,6.96950241 4.63402889,6.96950241 L4.63402889,6.96950241 Z" id="path-1"></path>
    </defs>
    <g id="复制" stroke="none" stroke-width="1" fill="none" fill-rule="evenodd">
        <mask id="mask-2" fill="white">
            <use xlink:href="#path-1"></use>
        </mask>
        <use id="蒙版" fill="#888888" fill-rule="nonzero" xlink:href="#path-1"></use>
    </g>
</svg>
