<?xml version="1.0" encoding="UTF-8"?>
<svg width="16px" height="16px" viewBox="0 0 16 16" version="1.1" xmlns="http://www.w3.org/2000/svg" xmlns:xlink="http://www.w3.org/1999/xlink">
    <title>4.组件/2.通用/icon/加载完成</title>
    <g id="dep-port合入" stroke="none" stroke-width="1" fill="none" fill-rule="evenodd">
        <g id="代码迁移工具-软件包重构-已上传2" transform="translate(-408.000000, -626.000000)">
            <g id="中心内容" transform="translate(384.000000, 364.000000)">
                <g id="编组" transform="translate(0.000000, 68.000000)">
                    <g id="编组-3" transform="translate(0.000000, 80.000000)">
                        <g id="4.组件/3.数据录入/1.输入框/单行输入框/8.带标题+说明" transform="translate(24.000000, 40.000000)">
                            <g id="2.文本/2.标题/带选择-小" transform="translate(0.000000, 72.000000)">
                                <g id="编组" transform="translate(0.000000, 2.000000)">
                                    <rect id="矩形-copy-3" fill="#0067FF" x="0" y="0" width="16" height="16" rx="2"></rect>
                                    <path d="M12.1507589,4.64644661 C12.3460211,4.45118446 12.6626036,4.45118446 12.8578657,4.64644661 C13.0314321,4.82001296 13.0507172,5.08943736 12.9157212,5.2843055 L12.8578657,5.35355339 L7.25939499,10.9520241 C6.89103094,11.3203882 6.31140035,11.3487239 5.91064769,11.0371451 L5.81441193,10.9521689 L2.64659147,7.78694269 C2.45124935,7.59176054 2.45111967,7.27517808 2.64630181,7.07983597 C2.81979705,6.90619853 3.08921353,6.88680301 3.28413695,7.02171923 L3.35340853,7.07954631 L6.52137385,10.2449173 L6.53683103,10.2513199 L6.55228821,10.2449173 L12.1507589,4.64644661 Z" id="路径" fill="#FFFFFF" fill-rule="nonzero"></path>
                                </g>
                            </g>
                        </g>
                    </g>
                </g>
            </g>
        </g>
    </g>
</svg>