<?xml version="1.0" encoding="UTF-8"?>
<svg width="24px" height="24px" viewBox="0 0 24 24" version="1.1" xmlns="http://www.w3.org/2000/svg" xmlns:xlink="http://www.w3.org/1999/xlink">
    <title>Web_SFW/icon/24/对比报告/未选/Normal</title>
    <g id="Web_SFW/icon/24/对比报告/未选/Normal" stroke="none" stroke-width="1" fill="none" fill-rule="evenodd">
        <g id="编组" transform="translate(1.000000, 1.000000)" fill="#616161">
            <path d="M21,0 C21.5522847,0 22,0.44771525 22,1 L22,17 C22,17.5522847 21.5522847,18 21,18 L14,18 L14,21 C14,21.5522847 13.5522847,22 13,22 L1,22 C0.44771525,22 0,21.5522847 0,21 L0,5 C0,4.44771525 0.44771525,4 1,4 L8,4 L8,1 C8,0.44771525 8.44771525,0 9,0 L21,0 Z M21,1 L9,1 L9,5 L7.982,5 L8.28630345,5.29954459 C8.13873015,5.44988999 8.03829051,5.64666016 8.00890989,5.86592973 L8,6 L8,6.242 L7,6.24264069 L7,6 C7,5.64293909 7.0945977,5.29966355 7.26755047,5.00027202 L1,5 L1,21 L13,21 L13,17.995 L12.8534867,17.999686 L12.828,17 L13,17 C13.3448455,17 13.6489222,16.8254479 13.8286961,16.5598778 L13.8286961,16.5598778 L14.478,17 L21,17 L21,1 Z M11.828,17 L11.8284271,18 L10.8284271,18 L10.828,17 L11.828,17 Z M8.82899764,16.9854364 C8.88456406,16.9950109 8.9416994,17 9,17 L9,17 L9.828,17 L9.82842712,18 L9,18 C8.88526753,18 8.77132204,17.9902344 8.65919917,17.9709152 L8.65919917,17.9709152 Z M8.00000582,15.242 L8.00000582,16 C8.00000582,16.1095803 8.01762547,16.215044 8.0501961,16.3137106 L8.0501961,16.3137106 L7.10076128,16.6276751 C7.04994845,16.4738822 7.01790523,16.3139446 7.00285023,16.079408 L7.00285023,16.079408 L7.00000582,15.2460539 L8.00000582,15.242 Z M15,14.5857864 L15,15.5857864 L14,15.585 L14,14.585 L15,14.5857864 Z M8,13.242 L8,14.242 L7,14.2426407 L7,13.2426407 L8,13.242 Z M15,12.5857864 L15,13.5857864 L14,13.585 L14,12.585 L15,12.5857864 Z M8,11.242 L8,12.242 L7,12.2426407 L7,11.2426407 L8,11.242 Z M15,10.5857864 L15,11.5857864 L14,11.585 L14,10.585 L15,10.5857864 Z M8,9.242 L8,10.242 L7,10.2426407 L7,9.24264069 L8,9.242 Z M15,8.58578644 L15,9.58578644 L14,9.585 L14,8.585 L15,8.58578644 Z M8,7.242 L8,8.242 L7,8.24264069 L7,7.24264069 L8,7.242 Z M15,6.58578644 L15,7.58578644 L14,7.585 L14,6.585 L15,6.58578644 Z M13,4 C13.7216386,4 14.3770531,4.38625592 14.7316294,4.99893826 L14.7316294,4.99893826 L13.8661429,5.4998705 C13.6932197,5.20104123 13.3700877,5 13,5 L13,5 Z M10.3431458,4 L10.343,5 L9.343,5 L9.34314575,4 L10.3431458,4 Z M12.3431458,4 L12.343,5 L11.343,5 L11.3431458,4 L12.3431458,4 Z" id="形状结合"></path>
        </g>
    </g>
</svg>