<?xml version="1.0" encoding="UTF-8"?>
<svg width="24px" height="24px" viewBox="0 0 24 24" version="1.1" xmlns="http://www.w3.org/2000/svg" xmlns:xlink="http://www.w3.org/1999/xlink">
    <title>Web_SFW/icon/24/对比报告/已选/Active</title>
    <g id="Web_SFW/icon/24/对比报告/已选/Active" stroke="none" stroke-width="1" fill="none" fill-rule="evenodd">
        <path d="M22,1 C22.5522847,1 23,1.44771525 23,2 L23,18 C23,18.5522847 22.5522847,19 22,19 L15,19 L15,22 C15,22.5522847 14.5522847,23 14,23 L2,23 C1.44771525,23 1,22.5522847 1,22 L1,6 C1,5.44771525 1.44771525,5 2,5 L9,5 L9,2 C9,1.44771525 9.44771525,1 10,1 L22,1 Z M9,6 L2,6 L2,22 L14,22 L14,19 L14,19 L10,19 C9.44771525,19 9,18.5522847 9,18 L9,6 Z M22,2 L10,2 L10,5 L10,5 L14,5 C14.5522847,5 15,5.44771525 15,6 L15,18 L22,18 L22,2 Z" id="形状结合" fill="#0067FF"></path>
    </g>
</svg>