<?xml version="1.0" encoding="UTF-8"?>
<svg width="24px" height="24px" viewBox="0 0 24 24" version="1.1" xmlns="http://www.w3.org/2000/svg" xmlns:xlink="http://www.w3.org/1999/xlink">
    <title>Web_SFW/icon/24/现状-已选</title>
    <g id="控件" stroke="none" stroke-width="1" fill="none" fill-rule="evenodd">
        <g id="编组备份" transform="translate(1.000000, 2.000000)">
            <path d="M21,0 C21.5522847,0 22,0.44771525 22,1 L22,13 C22,13.5522847 21.5522847,14 21,14 L1,14 C0.44771525,14 0,13.5522847 0,13 L0,1 C0,0.44771525 0.44771525,0 1,0 L21,0 Z" id="矩形" fill="#267DFF" fill-rule="nonzero"></path>
            <polyline id="路径-75" stroke="#FFFFFF" stroke-linecap="round" stroke-linejoin="round" points="5 8.5 8.5 5.5 12.5 8.5 16.5 4.5"></polyline>
            <line x1="5.5" y1="13.5" x2="3.5" y2="19.5" id="路径-73" stroke="#267DFF" stroke-linecap="round" stroke-linejoin="round"></line>
            <line x1="18.5" y1="13.5" x2="16.5" y2="19.5" id="路径-73备份" stroke="#267DFF" stroke-linecap="round" stroke-linejoin="round" transform="translate(17.500000, 16.500000) scale(-1, 1) translate(-17.500000, -16.500000) "></line>
            <line x1="4.5" y1="16.5" x2="17.5" y2="16.5" id="路径-74" stroke="#267DFF"></line>
        </g>
    </g>
</svg>