<?xml version="1.0" encoding="UTF-8"?>
<svg width="24px" height="24px" viewBox="0 0 24 24" version="1.1" xmlns="http://www.w3.org/2000/svg" xmlns:xlink="http://www.w3.org/1999/xlink">
    <title>Web_SFW/icon/24/调优分析/已选/Active</title>
    <g id="Web_SFW/icon/24/调优分析/已选/Active" stroke="none" stroke-width="1" fill="none" fill-rule="evenodd">
        <g id="面" transform="translate(0.899055, -0.354998)">
            <path d="M11.6009451,1.35499755 C12.7824983,1.35499755 13.8273046,3.19508705 14.461072,6.0132053 C17.7902496,4.99411367 20.4839619,5.10685934 21.3102372,6.53801025 C22.0873607,7.88402766 21.0285745,10.0774998 18.7809118,12.3087539 C21.0006124,14.5250341 22.0419507,16.7001373 21.2695294,18.0380102 C20.4487718,19.459604 17.7854355,19.5803422 14.4867141,18.583429 C13.8552528,21.4653133 12.7983152,23.3549975 11.6009451,23.3549975 C10.3814325,23.3549975 9.30759436,21.3947769 8.68101747,18.4221796 C5.15055604,19.5892414 2.25402445,19.5316815 1.39165294,18.0380102 C0.619325244,16.7002994 1.66031752,14.5255613 3.87950177,12.3085709 C1.63229532,10.0768524 0.573936259,7.88382902 1.35094509,6.53801025 C2.21859924,5.03518918 5.14541119,4.98612775 8.70520748,6.17438948 C9.33488432,3.26576103 10.3969152,1.35499755 11.6009451,1.35499755 Z" id="形状结合" fill="#0057D9"></path>
            <g id="编组">
                <path d="M11.1009451,0.854997548 C9.81548913,0.854997548 8.36925932,3.53427589 7.99784935,10.8549975" id="路径-81" stroke="#FFFFFF" stroke-linecap="round"></path>
                <path d="M0.600945087,6.85499755 C-0.205237537,8.79640974 4.60094509,12.8549975 9.10094509,15.8549975 C13.6009451,18.8549975 20.6009451,19.8549975 22.1009451,18.8549975" id="路径-83" stroke="#FFFFFF" stroke-linecap="round"></path>
                <path d="M10.6009451,7.85499755 C16.6009451,5.52166421 20.1009451,5.02166421 21.1009451,6.35499755 C22.6009451,8.35499755 20.4518199,11.5 15.1009451,14.8549975" id="路径-84" stroke="#FFFFFF" stroke-linecap="round"></path>
                <path d="M8.10094509,17.3549975 C8.26870973,20.3549975 9.01925872,22.3549975 10.352592,23.3549975" id="路径-85" stroke="#FFFFFF" stroke-linecap="round"></path>
                <path d="M14.9788141,9.35499755 C15.1725465,10.0216642 15.2510372,10.6883309 15.214286,11.3549975" id="路径-87" stroke="#FFFFFF" stroke-linecap="round"></path>
                <circle id="椭圆形" fill="#FFFFFF" cx="11.1009451" cy="12.3549975" r="1"></circle>
            </g>
        </g>
    </g>
</svg>