<?xml version="1.0" encoding="UTF-8"?>
<svg width="24px" height="24px" viewBox="0 0 24 24" version="1.1" xmlns="http://www.w3.org/2000/svg" xmlns:xlink="http://www.w3.org/1999/xlink">
    <title>Web_SFW/icon/24/调优分析/未选/Normal</title>
    <g id="Web_SFW/icon/24/调优分析/未选/Normal" stroke="none" stroke-width="1" fill="none" fill-rule="evenodd">
        <g id="线条" transform="translate(1.000000, 1.000000)" fill="#616161">
            <path d="M11.5,-2.55795385e-13 C12.6836816,-2.55795385e-13 13.6026104,1.47028606 14.4784317,4.35473091 C14.5031019,4.43598009 14.5060825,4.51864848 14.4906975,4.59651362 C17.8545076,3.63096694 20.0097361,3.6261696 21.0203463,4.6484888 C22.5020249,6.14733438 21.477764,8.69524782 18.9261801,11.146146 C21.4262622,13.6568634 22.1376043,15.6778677 20.8162795,17.1425209 C19.6998825,18.380017 17.2893581,18.4049459 14.4286779,17.5341662 C13.9181455,20.4605751 12.9881787,22 11.5,22 C10.1234948,22 8.97025277,20.4066012 7.88580905,17.2659799 L8.12596408,17.2033133 C4.77595426,18.0754035 2.60664624,18.0754035 1.56256455,17.0816076 C0.435527857,16.008852 0.865799264,14.3473841 2.61097318,12.1859011 C2.78444522,11.9710475 3.09924534,11.9375011 3.31409892,12.1109732 C3.5289525,12.2844452 3.56249887,12.5992453 3.38902682,12.8140989 C1.9326199,14.6179299 1.63441723,15.7694222 2.25201321,16.3572731 C2.92910823,17.0017574 4.71966995,17.0233361 7.57361069,16.3121237 C7.55647524,16.2585392 7.53923963,16.2028389 7.52201731,16.1467397 C7.44097519,15.8827572 7.58927771,15.6030594 7.85326025,15.5220173 C8.1172428,15.4409752 8.39694056,15.5892777 8.47798269,15.8532603 C9.53784931,19.3056166 10.6160933,21 11.5,21 C12.3355142,21 13.0396843,19.7914826 13.4682461,17.214514 C11.9491956,16.6662231 10.3351508,15.8896981 8.74166366,14.9280915 C4.19251289,12.1828585 0.67501585,8.11667113 1.01490653,5.81647619 C1.16530121,4.79868694 2.10642972,4.13495337 3.62005436,4.00192007 C4.58277922,3.91730566 6.03320279,4.11674925 7.99512985,4.59431141 C8.73198014,1.70428471 10.0598388,-2.55795385e-13 11.5,-2.55795385e-13 Z M11.5,1 C10.1076529,1 8.48077731,4.21592089 8.39684138,9.50792944 C8.39246207,9.78403709 8.16508247,10.0043164 7.88897482,10 C7.61286717,9.99555781 7.39258783,9.7681782 7.39690296,9.49207056 C7.41983152,8.04747984 7.5550708,6.73122571 7.77835067,5.56960329 L8.04425823,5.63655151 C6.03344418,5.13205435 4.57873277,4.92151625 3.7076074,4.99807993 C2.60978382,5.09456824 2.07690596,5.47038187 2.00416472,5.96265495 C1.74405406,7.72294219 5.02785581,11.5189804 9.25833634,14.0719085 C13.8926186,16.868515 18.7241267,17.9687287 20.0737766,16.472678 C20.9221773,15.5322485 20.3741413,14.0030826 18.1851775,11.8187901 C17.331604,12.5505811 16.3479821,13.263736 15.2602876,13.9269079 C15.0245128,14.0706608 14.7168449,13.9960623 14.5730921,13.7602876 C14.4293392,13.5245128 14.5039377,13.2168449 14.7397124,13.0730921 C19.2684326,10.3119123 21.6893503,6.74767374 20.3091786,5.3515112 C19.3487815,4.37998687 16.0844439,4.86170068 10.6814515,6.96591346 C10.4241346,7.06612636 10.1342994,6.9387684 10.0340865,6.6814515 C9.93387364,6.4241346 10.0612316,6.13429943 10.3185485,6.03408654 C11.5269463,5.56347214 12.635943,5.16831749 13.6470256,4.85014533 C13.5890538,4.795798 13.5460476,4.7258897 13.5215683,4.64526909 L13.350002,4.1023493 C12.6642478,2.01940123 11.9894705,1 11.5,1 Z M11,10 C11.5522847,10 12,10.4477153 12,11 C12,11.5522847 11.5522847,12 11,12 C10.4477153,12 10,11.5522847 10,11 C10,10.4477153 10.4477153,10 11,10 Z M15.3580066,7.86047264 C15.5673372,8.58081531 15.6524727,9.30392039 15.6125829,10.0275216 C15.5973831,10.3032453 15.361543,10.5144418 15.0858193,10.499242 C14.8100955,10.4840422 14.5988991,10.2482021 14.6140989,9.97247839 C14.6477115,9.36274628 14.5758657,8.75251803 14.3977314,8.13952736 C14.3206726,7.87435468 14.473169,7.59692123 14.7383416,7.5198624 C15.0035143,7.44280357 15.2809478,7.59529997 15.3580066,7.86047264 Z" id="形状结合"></path>
        </g>
    </g>
</svg>