<?xml version="1.0" encoding="UTF-8"?>
<svg width="40px" height="40px" viewBox="0 0 40 40" version="1.1" xmlns="http://www.w3.org/2000/svg" xmlns:xlink="http://www.w3.org/1999/xlink">
    <title>0增强功能/字节对齐/normal</title>
    <defs>
        <path d="M33.7307692,30.3961538 C35.5363,30.3961538 37,31.8598538 37,33.6653846 C37,35.4709154 35.5363,36.9346154 33.7307692,36.9346154 L23.2692308,36.9346154 C21.4637,36.9346154 20,35.4709154 20,33.6653846 C20,31.8598538 21.4637,30.3961538 23.2692308,30.3961538 L33.7307692,30.3961538 Z M33.7307692,32.3576923 L23.2692308,32.3576923 C22.5469923,32.3576923 21.9615385,32.9431462 21.9615385,33.6653846 C21.9615385,34.3876231 22.5469923,34.9730769 23.2692308,34.9730769 L33.7307692,34.9730769 C34.4530077,34.9730769 35.0384615,34.3876231 35.0384615,33.6653846 C35.0384615,32.9431462 34.4530077,32.3576923 33.7307692,32.3576923 Z M6.26923077,3 C8.07476154,3 9.53846154,4.4637 9.53846154,6.26923077 C9.53846154,7.73306154 8.57639231,8.97223077 7.25,9.38873077 L7.25,20 L15.4230769,20 C15.9647231,20 16.4038462,20.4391231 16.4038462,20.9807692 C16.4038462,21.5224154 15.9647231,21.9615385 15.4230769,21.9615385 L7.25,21.9615385 L7.25,32.0307692 C7.25,32.3858077 7.53291923,32.6746769 7.88553846,32.6843538 L7.90384615,32.6846154 L17.3846154,32.6846154 C17.9262615,32.6846154 18.3653846,33.1237385 18.3653846,33.6653846 C18.3653846,34.2002308 17.9373115,34.6350385 17.4051462,34.6461538 L17.3846154,34.6461538 L7.90384615,34.6461538 C6.47388462,34.6461538 5.31193462,33.4985231 5.28878846,32.0739885 L5.28846154,32.0307692 L5.28846154,9.38879615 C3.96213462,8.97229615 3,7.73306154 3,6.26923077 C3,4.4637 4.4637,3 6.26923077,3 Z M33.7307692,17.7115385 C35.5363,17.7115385 37,19.1752385 37,20.9807692 C37,22.7863 35.5363,24.25 33.7307692,24.25 L23.2692308,24.25 C21.4637,24.25 20,22.7863 20,20.9807692 C20,19.1752385 21.4637,17.7115385 23.2692308,17.7115385 L33.7307692,17.7115385 Z M33.7307692,19.6730769 L23.2692308,19.6730769 C22.5469923,19.6730769 21.9615385,20.2585308 21.9615385,20.9807692 C21.9615385,21.7030077 22.5469923,22.2884615 23.2692308,22.2884615 L33.7307692,22.2884615 C34.4530077,22.2884615 35.0384615,21.7030077 35.0384615,20.9807692 C35.0384615,20.2585308 34.4530077,19.6730769 33.7307692,19.6730769 Z M33.7307692,3 C35.5363,3 37,4.4637 37,6.26923077 C37,8.07476154 35.5363,9.53846154 33.7307692,9.53846154 L15.4230769,9.53846154 C13.6175462,9.53846154 12.1538462,8.07476154 12.1538462,6.26923077 C12.1538462,4.4637 13.6175462,3 15.4230769,3 L33.7307692,3 Z M6.26923077,4.96153846 C5.54699231,4.96153846 4.96153846,5.54699231 4.96153846,6.26923077 C4.96153846,6.99146923 5.54699231,7.57692308 6.26923077,7.57692308 C6.99146923,7.57692308 7.57692308,6.99146923 7.57692308,6.26923077 C7.57692308,5.54699231 6.99146923,4.96153846 6.26923077,4.96153846 Z M33.7307692,4.96153846 L15.4230769,4.96153846 C14.7008385,4.96153846 14.1153846,5.54699231 14.1153846,6.26923077 C14.1153846,6.99146923 14.7008385,7.57692308 15.4230769,7.57692308 L33.7307692,7.57692308 C34.4530077,7.57692308 35.0384615,6.99146923 35.0384615,6.26923077 C35.0384615,5.54699231 34.4530077,4.96153846 33.7307692,4.96153846 Z" id="path-1"></path>
    </defs>
    <g id="0增强功能/字节对齐/normal" stroke="none" stroke-width="1" fill="none" fill-rule="evenodd">
        <rect id="BOX" fill="#D8D8D8" opacity="0" x="0" y="0" width="40" height="40"></rect>
        <mask id="mask-2" fill="white">
            <use xlink:href="#path-1"></use>
        </mask>
        <use id="形状" fill="#80858F" fill-rule="nonzero" xlink:href="#path-1"></use>
    </g>
</svg>