<?xml version="1.0" encoding="UTF-8"?>
<svg width="40px" height="40px" viewBox="0 0 40 40" version="1.1" xmlns="http://www.w3.org/2000/svg" xmlns:xlink="http://www.w3.org/1999/xlink">
    <title>0增强功能/缓存行对齐/hover</title>
    <g id="0增强功能/缓存行对齐/hover" stroke="none" stroke-width="1" fill="none" fill-rule="evenodd">
        <path d="M27.6806385,3 C29.4470877,3 30.8913164,4.40407169 30.9552068,6.15490056 L30.9574114,6.27760073 L30.9574114,11.2581077 L30.717807,11.2906945 C30.215937,11.3589501 29.749713,11.4516127 29.3129554,11.5725062 L29.0543874,11.6484605 L28.6951722,11.7602576 L28.6951722,6.27677246 C28.6951722,5.74552941 28.283671,5.30728406 27.7629011,5.26478763 L27.6798103,5.26141058 L14.1918769,5.26135385 L12.5925522,6.11762157 L6.26190769,11.3846769 L6.26220699,32.8971546 C6.26220699,33.4008275 6.63121151,33.821029 7.11250335,33.9000326 L7.19371434,33.9099964 L7.27674061,33.9133766 L27.6806385,33.9133766 C28.2116912,33.9133766 28.6501367,33.5013086 28.6926536,32.980283 L28.6960323,32.8971546 L28.6960323,31.0272748 L29.0556243,31.1397514 C29.4902495,31.2756977 29.9557472,31.380711 30.4615544,31.4599259 L30.7178609,31.4974073 L30.9574114,31.5300347 L30.9574114,32.8971546 C30.9574114,34.6637286 29.5532461,36.1077652 27.8025041,36.1724908 L27.6798103,36.1747553 L7.27674061,36.1747553 C5.51058682,36.1747553 4.06697051,34.7710011 4.00226385,33.0198764 L4,32.8971546 L4,10.3254824 L12.803381,3 L27.6806385,3 Z M31.0981914,12.493481 C36.0069045,12.493481 40,16.4860369 40,21.3944613 C40,26.3030569 36.0076254,30.2954417 31.0990196,30.2954417 C26.1904196,30.2954417 22.1980711,26.3030627 22.1980711,21.3944613 C22.1980711,16.4857322 26.1897828,12.493481 31.0981914,12.493481 Z M22.4426802,26.7926203 L22.5245104,26.9192077 C22.8632567,27.4432322 23.2376496,27.9268436 23.6465649,28.3662344 L23.8538942,28.5822271 L24.3210513,29.0539995 L8.24463652,29.0539995 L8.24463652,26.7926526 L22.4426802,26.7926203 Z M31.0983555,14.4470929 C27.267329,14.4470929 24.15168,17.5634092 24.15168,21.3944613 C24.15168,25.1782166 27.1914751,28.2647747 30.9574623,28.3404093 L31.0990227,28.3418298 L31.2405832,28.3404093 C35.006571,28.2647747 38.0463912,25.1782166 38.0463912,21.3944613 C38.0463912,17.5634092 34.929382,14.4470929 31.0983555,14.4470929 Z M20.9441152,22.3835736 L20.9737113,22.6270857 C21.0292271,23.0838606 21.1132776,23.5311986 21.2252615,23.966135 L21.3144776,24.2899657 L21.418777,24.6449534 L8.24463652,24.6449204 L8.24463652,22.3835736 L20.9441152,22.3835736 Z M31.9086188,18.5494737 L36.3199429,18.6521221 L35.8650543,23.0538006 L34.4653972,21.4935338 L31.9862369,23.6779528 C31.7058053,23.8715353 31.3383906,23.849332 31.0645704,23.6493406 L31.0031247,23.60005 L30.9838732,23.581431 L30.9761983,23.5781546 C30.9504407,23.5643356 30.9263846,23.5487272 30.9045025,23.5314935 L30.873369,23.5044445 L30.8335586,23.4595687 L29.5912636,21.9543462 L27.1684378,24.099145 C26.8470842,24.3210892 26.4170447,24.2590018 26.1415866,23.9822886 L26.0886341,23.9241048 L26.0402718,23.860321 L26.0218202,23.8336178 C25.77681,23.4788125 25.8268792,23.0052055 26.1195546,22.7547628 L26.1772614,22.7105035 L29.2254928,20.0918026 L29.2512466,20.0725158 C29.585558,19.8216337 30.0075498,19.7623251 30.2340322,19.9938375 L30.2741374,20.0406784 L31.6827211,21.7666644 L33.3713493,20.1853556 L31.9086188,18.5494737 Z M21.473275,17.9753865 L21.3594533,18.3357211 C21.2225862,18.7690124 21.1167319,19.2342519 21.0365416,19.7408466 L20.9985604,19.9976337 L20.9655942,20.2367334 L8.24463652,20.2367334 L8.24463652,17.9753507 L21.473275,17.9753865 Z" id="形状结合备份" fill="#0067FF" fill-rule="nonzero"></path>
    </g>
</svg>
