<?xml version="1.0" encoding="UTF-8"?>
<svg width="40px" height="40px" viewBox="0 0 40 40" version="1.1" xmlns="http://www.w3.org/2000/svg" xmlns:xlink="http://www.w3.org/1999/xlink">
    <title>0增强功能/运行模式/normal</title>
    <g id="0增强功能/运行模式/normal" stroke="none" stroke-width="1" fill="none" fill-rule="evenodd">
        <path d="M26.3609492,3.00004736 C26.9319237,2.99623841 27.4804271,3.22232646 27.8828416,3.62740593 C28.2852561,4.03248539 28.5077188,4.58246919 28.5000926,5.15340581 L28.5000926,5.15340581 L28.5000926,7.25004964 L34.8466901,7.25004964 C35.415162,7.24246934 35.9629656,7.4629993 36.3676251,7.86233433 C36.7722846,8.26166935 37,8.80650406 37,9.3750265 L37,9.3750265 L37,34.8747488 C37,36.0483411 36.0486154,36.9997257 34.8750231,36.9997257 L34.8750231,36.9997257 L13.6252546,36.9997257 C12.4516622,36.9997257 11.5002777,36.0483411 11.5002777,34.8747488 L11.5002777,34.8747488 L11.5002777,32.7497719 L5.15368014,32.7497719 C4.59008655,32.7573366 4.0465764,32.5406789 3.64274146,32.1474712 C3.23890652,31.7542635 3.00783475,31.216723 3.0001805,30.6531281 L3.0001805,30.6531281 L3.0001805,5.15340581 C2.99281035,4.58738153 3.21140534,4.04173576 3.6076715,3.63749109 C4.00393766,3.23324641 4.5451181,3.00381927 5.11118061,3.00004736 L5.11118061,3.00004736 Z M26.674494,4.85402756 L4.88263492,4.85402756 L4.88263492,30.8958403 L11.7713229,30.8958403 L11.7713229,24.7051851 C11.8307579,24.3670764 12.1612121,24.0866662 12.5485996,24.0866662 C12.9359871,24.0866662 13.2664413,24.3670764 13.3294902,24.7492988 L13.3258763,35.1032945 L35.1174337,35.1032945 L35.1463704,9.11814779 L13.3542093,9.11814779 L13.3542093,12.4974144 C13.3542093,12.9345164 12.9998681,13.2888576 12.5627661,13.2888576 C12.1256641,13.2888576 11.7713229,12.9345164 11.7713229,12.4974144 L11.7713229,9.38919301 C11.7679513,8.88921634 11.9652013,8.41067566 12.318612,8.05959 C12.6720228,7.70850433 13.151855,7.51441723 13.6499675,7.52107069 L26.674494,7.52109487 L26.674494,4.85402756 Z" id="形状结合" fill="#979797" fill-rule="nonzero"></path>
        <path d="M18.8357499,11.9614007 C18.5314338,11.825649 18.1704983,11.8948569 17.9380172,12.1412869 C17.7055361,12.3877169 17.657453,12.7520686 17.8106868,13.0479677 L17.8386419,13.0958926 L22.7771951,18.0809017 L10.4207104,18.0790948 C10.1180916,18.0439755 9.82217921,18.1856699 9.65980916,18.4434439 C9.49743911,18.7012179 9.49743911,19.0293055 9.65980916,19.2870795 C9.80864837,19.5233723 10.0697003,19.662126 10.3693357,19.6551681 L10.4519558,19.6496216 L22.7757748,19.6496216 L17.8139803,24.6738225 C17.5053667,24.9828204 17.5053667,25.4833976 17.8144988,25.7929161 C17.9604126,25.9398057 18.1589007,26.0224099 18.3659451,26.0224099 C18.547109,26.0224099 18.7217219,25.959166 18.8607225,25.8445219 L18.9180291,25.7922762 L25.2928405,19.417465 C25.5821658,19.1277794 25.6002486,18.6697136 25.3484161,18.3602982 L25.2944511,18.3004911 L18.8778293,11.9824388 L18.8357499,11.9614007 Z" id="路径" fill="#979797" fill-rule="nonzero"></path>
        <path d="M24.4611557,31.5221516 C24.9165117,31.5221516 25.3377159,31.4213227 25.7247685,31.2196651 C26.1118211,31.0180074 26.4175601,30.7350362 26.6419856,30.3707514 C26.866411,30.0064667 26.9786237,29.5933937 26.9786237,29.1315327 C26.9786237,28.6891869 26.8843,28.2956292 26.6956525,27.9508597 C26.507005,27.6060901 26.2402965,27.3377554 25.895527,27.1458553 C25.5507575,26.9539553 25.1571998,26.8580053 24.714854,26.8580053 C24.5197015,26.8580053 24.3440641,26.8807731 24.1879421,26.9263087 C24.3180438,26.7506714 24.4383879,26.5750341 24.5489743,26.3993968 L24.5489743,26.3993968 L25.9443152,24.2527186 L24.4123675,24.2527186 L22.8706623,26.6921256 C22.5258928,27.2385528 22.2852046,27.6792724 22.1485978,28.0142843 C22.011991,28.3492961 21.9436876,28.6989445 21.9436876,29.0632293 C21.9436876,29.5511107 22.0542741,29.9804463 22.275447,30.3512362 C22.4966199,30.7220261 22.7991064,31.0098761 23.1829064,31.2147863 C23.5667064,31.4196965 23.9927895,31.5221516 24.4611557,31.5221516 Z M24.4513981,30.2536599 C24.145659,30.2536599 23.8968395,30.1528311 23.7049395,29.9511734 C23.5130395,29.7495158 23.4170895,29.4828073 23.4170895,29.1510479 C23.4170895,28.8257937 23.5114132,28.5607114 23.7000607,28.3558012 C23.8887082,28.150891 24.139154,28.0484359 24.4513981,28.0484359 C24.7571371,28.0484359 25.0043303,28.150891 25.1929778,28.3558012 C25.3816253,28.5607114 25.475949,28.8257937 25.475949,29.1510479 C25.475949,29.4763022 25.3816253,29.7413844 25.1929778,29.9462946 C25.0043303,30.1512048 24.7571371,30.2536599 24.4513981,30.2536599 Z M32.1306514,31.40506 L32.1306514,29.9511734 L33.0966566,29.9511734 L33.0966566,28.7412275 L32.1306514,28.7412275 L32.1306514,27.0726731 L30.7450682,27.0726731 L30.7450682,28.7412275 L29.2716663,28.7412275 L31.6232547,24.2527186 L30.1400952,24.2527186 L27.681173,28.9851682 L27.681173,29.9511734 L30.7450682,29.9511734 L30.7450682,31.40506 L32.1306514,31.40506 Z" id="64" fill="#979797" fill-rule="nonzero"></path>
    </g>
</svg>
