<?xml version="1.0" encoding="UTF-8"?>
<svg width="20px" height="20px" viewBox="0 0 20 20" version="1.1" xmlns="http://www.w3.org/2000/svg" xmlns:xlink="http://www.w3.org/1999/xlink">
    <title>编组 4备份</title>
    <g id="sys-perf-ALL" stroke="none" stroke-width="1" fill="none" fill-rule="evenodd">
        <g id="10Top数据备份" transform="translate(-408.000000, -202.000000)" fill="#0067FF">
            <g id="4.组件/2.通用/icon/加载运行备份" transform="translate(408.000000, 202.000000)">
                <path d="M15.323,2 C16.247625,2 17,2.75466667 17,3.68213333 L17,3.68213333 L17,14.6992 C17,14.7194667 16.99025,14.7365333 16.9875417,14.7562667 C17.0060842,14.9278469 16.9376043,15.0974103 16.8044583,15.2096 L16.8044583,15.2096 L13.5544583,17.8762667 C13.4271667,17.9808 13.2662917,18.0117333 13.114625,17.9850667 C13.0891667,17.9888 13.0664167,18 13.039875,18 L13.039875,18 L5.67645833,18 C4.752375,18 4,17.2453333 4,16.3178667 L4,16.3178667 L4,3.68213333 C4,2.75466667 4.752375,2 5.67645833,2 L5.67645833,2 Z M15.323,3.06666667 L5.67645833,3.06666667 C5.34929167,3.06666667 5.08333333,3.34293333 5.08333333,3.68213333 L5.08333333,3.68213333 L5.08333333,16.3178667 C5.08333333,16.6570667 5.34929167,16.9333333 5.67645833,16.9333333 L5.67645833,16.9333333 L12.6666667,16.9333333 L12.6666667,15.3333333 C12.6666667,14.4496777 13.3942039,13.7333333 14.2916667,13.7333333 L14.2916667,13.7333333 L15.9166667,13.7333333 L15.9166667,3.68213333 C15.9166667,3.34293333 15.6507083,3.06666667 15.323,3.06666667 L15.323,3.06666667 Z M15.61225,14.8 L14.2916667,14.8 C13.9925124,14.8 13.75,15.0387815 13.75,15.3333333 L13.75,15.3333333 L13.75,16.328 L15.61225,14.8 Z M11.0625,13 C11.3731602,13 11.625,13.2238576 11.625,13.5 C11.625,13.7761424 11.3731602,14 11.0625,14 L11.0625,14 L6.5625,14 C6.25183983,14 6,13.7761424 6,13.5 C6,13.2238576 6.25183983,13 6.5625,13 L6.5625,13 Z M14.4375,9.5 C14.7481602,9.5 15,9.72385763 15,10 C15,10.2761424 14.7481602,10.5 14.4375,10.5 L14.4375,10.5 L6.5625,10.5 C6.25183983,10.5 6,10.2761424 6,10 C6,9.72385763 6.25183983,9.5 6.5625,9.5 L6.5625,9.5 Z M14.4375,6 C14.7481602,6 15,6.22385763 15,6.5 C15,6.77614237 14.7481602,7 14.4375,7 L14.4375,7 L6.5625,7 C6.25183983,7 6,6.77614237 6,6.5 C6,6.22385763 6.25183983,6 6.5625,6 L6.5625,6 Z" id="形状结合"></path>
            </g>
        </g>
    </g>
</svg>