<?xml version="1.0" encoding="UTF-8"?>
<svg width="16px" height="16px" viewBox="0 0 16 16" version="1.1" xmlns="http://www.w3.org/2000/svg" xmlns:xlink="http://www.w3.org/1999/xlink">
    <title>4.组件/2.通用/icon/优化建议</title>
    <g id="页面-1" stroke="none" stroke-width="1" fill="none" fill-rule="evenodd">
        <g id="总览topo" transform="translate(-404.000000, -202.000000)" fill="#0067FF">
            <g id="编组-5" transform="translate(384.000000, 152.000000)">
                <g id="优化建议/标题/展开备份" transform="translate(0.000000, 36.000000)">
                    <g id="编组" transform="translate(20.000000, 14.000000)">
                        <path d="M5.685175,7.156 L3.197975,7.156 C2.83913337,7.16843873 2.55466093,7.46294285 2.55466093,7.822 C2.55466093,8.18105715 2.83913337,8.47556127 3.197975,8.488 L5.688375,8.488 C5.9318188,8.49643863 6.16047009,8.37137767 6.28469342,8.16184329 C6.40891676,7.95230891 6.40891676,7.69169109 6.28469342,7.48215671 C6.16047009,7.27262233 5.9318188,7.14756137 5.688375,7.156 L5.685175,7.156 L5.685175,7.156 Z M14.615575,8.212 C13.4703076,7.06345612 11.7988545,6.61397216 10.2319916,7.03317518 C8.66512877,7.4523782 7.4414214,8.67644178 7.02267442,10.2434266 C6.60392744,11.8104114 7.05389785,13.4817336 8.202775,14.6266667 C9.97494929,16.3927571 12.8425867,16.390083 14.6114642,14.6206907 C16.3803417,12.8512983 16.3821811,9.9836602 14.615575,8.212 Z M13.881175,13.892 C12.6996569,15.0722722 10.8489646,15.2536373 9.46079522,14.3251907 C8.07262584,13.3967441 7.53355341,11.6170372 8.17322039,10.0743599 C8.81288737,8.53168249 10.4531609,7.65563553 12.0910147,7.9819212 C13.7288684,8.30820686 14.908197,9.74596192 14.9078668,11.416 C14.9113751,12.346765 14.5415606,13.2400832 13.881175,13.896 L13.881175,13.892 L13.881175,13.892 Z" id="形状"></path>
                        <path d="M5.280375,14.8944 L2.043575,14.8944 C1.487575,14.8944 1.034775,14.4048 1.034775,13.8056 L1.034775,2.1928 C1.034775,1.5936 1.485975,1.104 2.043575,1.104 L12.798775,1.104 C13.353175,1.104 13.807575,1.592 13.807575,2.1928 L13.807575,5.1472 C13.7944855,5.33804836 13.8888798,5.5202755 14.0523213,5.61968019 C14.2157629,5.71908487 14.4209871,5.71908487 14.5844287,5.61968019 C14.7478702,5.5202755 14.8422645,5.33804836 14.829175,5.1472 L14.829175,2.1928 C14.829175,0.984 13.918775,0 12.798775,0 L2.043575,0 C0.923575,0 0.014775,0.984 0.014775,2.1928 L0.014775,13.804 C0.014775,15.0128 0.925175,15.9952 2.045175,15.9952 L5.280375,15.9952 C5.56810911,15.9732445 5.7903769,15.7333705 5.7903769,15.4448 C5.7903769,15.1562295 5.56810911,14.9163555 5.280375,14.8944 L5.280375,14.8944 Z" id="路径"></path>
                        <path d="M9.504375,4.64 L3.196375,4.64 C2.83753337,4.62756127 2.55306093,4.33305715 2.55306093,3.974 C2.55306093,3.61494285 2.83753337,3.32043873 3.196375,3.308 L9.504375,3.308 C9.86321663,3.32043873 10.1476891,3.61494285 10.1476891,3.974 C10.1476891,4.33305715 9.86321663,4.62756127 9.504375,4.64 L9.504375,4.64 Z M11.057175,12.2288 C11.110775,12.3888 11.217175,12.4936 11.377175,12.4936 C11.537175,12.4936 11.641975,12.388 11.697175,12.2288 L11.909175,9.3168 C11.9082964,9.02467469 11.6717003,8.78807858 11.379575,8.7872 C11.059575,8.7872 10.849975,9.0528 10.849975,9.3704 L11.057175,12.2288 L11.057175,12.2288 Z M11.377175,13.0224 C11.1627561,13.0214283 10.9689093,13.1498433 10.8861806,13.3476623 C10.8034518,13.5454814 10.8481678,13.7736643 10.9994418,13.9256269 C11.1507157,14.0775895 11.3786932,14.1233414 11.5768859,14.041512 C11.7750787,13.9596826 11.9043728,13.7664211 11.904375,13.552 C11.9128584,13.4091091 11.8597914,13.2694177 11.7585744,13.1682006 C11.6573573,13.0669836 11.5176659,13.0139166 11.374775,13.0224 L11.377175,13.0224 Z" id="形状"></path>
                    </g>
                </g>
            </g>
        </g>
    </g>
</svg>