<?xml version="1.0" encoding="UTF-8"?>
<svg width="16px" height="16px" viewBox="0 0 16 16" version="1.1" xmlns="http://www.w3.org/2000/svg" xmlns:xlink="http://www.w3.org/1999/xlink">
    <title>4.控件/2.通用/1.icon/6.tuning/优化建议</title>
    <defs>
        <path d="M13.5488,0.64 L9.33490332,4.85490332 L9.2284219,4.97548871 C8.83799004,5.47762146 8.87348385,6.20367721 9.33490332,6.66509668 C9.79632279,7.12651615 10.5223785,7.16200996 11.0245113,6.7715781 L11.1450967,6.66509668 L15.36,2.44992 L15.36,14.72 C15.36,15.4269245 14.7869245,16 14.08,16 L1.28,16 C0.57307552,16 7.63833441e-14,15.4269245 7.63833441e-14,14.72 L7.63833441e-14,1.92 C7.63833441e-14,1.21307552 0.57307552,0.64 1.28,0.64 L13.5488,0.64 Z M12.16,10.88 L3.2,10.88 L3.08495919,10.8903113 C2.78640021,10.9445013 2.56,11.2058113 2.56,11.52 C2.56,11.8341887 2.78640021,12.0954987 3.08495919,12.1496887 L3.2,12.16 L12.16,12.16 L12.2750408,12.1496887 C12.5735998,12.0954987 12.8,11.8341887 12.8,11.52 C12.8,11.1665378 12.5134622,10.88 12.16,10.88 Z M7.04,7.04 L3.2,7.04 L3.08495919,7.05031126 C2.78640021,7.10450129 2.56,7.36581134 2.56,7.68 C2.56,7.99418866 2.78640021,8.25549871 3.08495919,8.30968874 L3.2,8.32 L7.04,8.32 L7.15504081,8.30968874 C7.45359979,8.25549871 7.68,7.99418866 7.68,7.68 C7.68,7.32653776 7.39346224,7.04 7.04,7.04 Z M15.8125483,0.18745166 C16.0347133,0.40961659 16.0593983,0.754479824 15.8866033,1.00391104 L15.8125483,1.09254834 L10.6925483,6.21254834 C10.4426128,6.46248389 10.0373872,6.46248389 9.78745166,6.21254834 C9.56528673,5.99038341 9.54060174,5.64552018 9.71339668,5.39608896 L9.78745166,5.30745166 L14.9074517,0.18745166 C15.1573872,-0.0624838867 15.5626128,-0.0624838867 15.8125483,0.18745166 Z" id="path-1"></path>
    </defs>
    <g id="4.控件/2.通用/1.icon/6.tuning/优化建议" stroke="none" stroke-width="1" fill="none" fill-rule="evenodd">
        <mask id="mask-2" fill="white">
            <use xlink:href="#path-1"></use>
        </mask>
        <use id="蒙版" fill="#2F65CA" xlink:href="#path-1"></use>
        <g id="编组" mask="url(#mask-2)" fill="#4B6EAF">
            <g id="3.颜色/1.主色调蓝">
                <rect id="矩形" x="0" y="0" width="16" height="16"></rect>
            </g>
        </g>
    </g>
</svg>