<?xml version="1.0" encoding="UTF-8"?>
<svg width="16px" height="16px" viewBox="0 0 16 16" version="1.1" xmlns="http://www.w3.org/2000/svg" xmlns:xlink="http://www.w3.org/1999/xlink">
    <g id="icon/16/优化建议为空" stroke="none" stroke-width="1" fill="none" fill-rule="evenodd">
        <path d="M9.5,15 C9.77614237,15 10,15.2238576 10,15.5 C10,15.7761424 9.77614237,16 9.5,16 L6.5,16 C6.22385763,16 6,15.7761424 6,15.5 C6,15.2238576 6.22385763,15 6.5,15 L9.5,15 Z M9.5,13 C9.77614237,13 10,13.2238576 10,13.5 C10,13.7761424 9.77614237,14 9.5,14 L6.5,14 C6.22385763,14 6,13.7761424 6,13.5 C6,13.2238576 6.22385763,13 6.5,13 L9.5,13 Z M8,0 C11.0375661,0 13.5,2.46243388 13.5,5.5 C13.5,7.21397734 12.7091575,8.79127376 11.4058769,9.81916966 L11.2065763,9.96918195 L10.986,10.118 L10.6744373,11.3638034 C10.5297581,11.9425205 10.0598199,12.3715379 9.48901633,12.4756542 L9.35560406,12.4938338 L9.21922359,12.5 L6.78077641,12.5 C6.13836171,12.5 5.57288947,12.0919314 5.36465736,11.4947583 L5.32560631,11.3639779 L5.013,10.118 L4.78420074,9.96254637 C3.50377461,9.03932353 2.67133953,7.60533086 2.52361445,6.01149131 L2.5053741,5.74443149 L2.5,5.5 C2.5,2.46243388 4.96243388,0 8,0 Z M8,1 C5.51471863,1 3.5,3.01471863 3.5,5.5 C3.5,7.10681559 4.34868402,8.5659075 5.70525439,9.37184088 C5.79693546,9.42630826 5.86818066,9.50825902 5.90958829,9.60506658 L5.93490257,9.6802606 L6.29570516,11.1212678 C6.3443953,11.3160284 6.5036001,11.4599248 6.69634325,11.4928558 L6.78077641,11.5 L9.21922359,11.5 C9.41997819,11.5 9.59819104,11.3804487 9.6769151,11.2013304 L9.7043385,11.1210933 L10.0650974,9.6802606 C10.097474,9.55095211 10.1801443,9.43992511 10.2947456,9.37184088 C11.651316,8.5659075 12.5,7.10681559 12.5,5.5 C12.5,3.01471863 10.4852814,1 8,1 Z M7.40486557,4.04251336 L7.47962415,4.09874763 L9.004,5.485 L10.1619765,4.31738357 C10.3347625,4.14304031 10.6040977,4.12254666 10.7995695,4.25666714 L10.8690762,4.31421135 C11.0434195,4.4869973 11.0639131,4.75633247 10.9297926,4.95180427 L10.8722484,5.02131101 L9.37761955,6.52941085 C9.21268093,6.69583604 8.95863574,6.7227052 8.76497299,6.60613361 L8.68610738,6.54738095 L7.136,5.138 L5.80971007,6.30087899 C5.62503595,6.46257632 5.3549259,6.46398593 5.16942052,6.31638756 L5.10415395,6.25407545 C4.94245662,6.06940133 4.94104701,5.79929129 5.08864538,5.6137859 L5.15095749,5.54851934 L6.81387164,4.09250163 C6.98120924,3.94598383 7.22143354,3.92972662 7.40486557,4.04251336 Z" id="形状结合" fill="#0067FF" fill-rule="nonzero"></path>
    </g>
</svg>