<?xml version="1.0" encoding="UTF-8"?>
<svg width="28px" height="28px" viewBox="0 0 28 28" version="1.1" xmlns="http://www.w3.org/2000/svg" xmlns:xlink="http://www.w3.org/1999/xlink">
    <title>4.组件/2.通用/按钮/4.图标按钮/集合信息对比-normal</title>
    <g id="4.组件/2.通用/按钮/4.图标按钮/集合信息对比-normal" stroke="none" stroke-width="1" fill="none" fill-rule="evenodd">
        <g id="图表normal" fill="#313131">
            <rect id="bgc" x="0" y="0" width="28" height="28" rx="1"></rect>
        </g>
        <rect id="BOX" opacity="0.19249907" x="6" y="6" width="16" height="16"></rect>
        <path d="M21.5007198,12.741429 C21.8494723,12.5898723 22.2330557,12.8676609 22.1978528,13.246288 L22.1978528,13.246288 L21.6523983,19.1129546 C21.634897,19.30119 21.5127275,19.4634594 21.3366671,19.5323186 L21.3366671,19.5323186 L15.8821216,21.6656519 C15.5167852,21.8085391 15.1367103,21.4942655 15.2084265,21.1085917 L15.2084265,21.1085917 L16.2993356,15.241925 C16.3297106,15.0785747 16.4392453,14.9409833 16.5916288,14.8747623 L16.5916288,14.8747623 Z M18.7,6 C19.5894691,6 20.3193901,6.68310681 20.39376,7.55331749 L20.4,7.7 L20.4,10.7 C20.4,11.0865993 20.0865993,11.4 19.7,11.4 C19.3456173,11.4 19.0527418,11.1366564 19.0063902,10.7949859 L19,10.7 L19,7.7 C19,7.55798392 18.9013199,7.43901581 18.7687872,7.40792321 L18.7,7.4 L8.7,7.4 C8.55798392,7.4 8.43901581,7.4986801 8.40792321,7.63121275 L8.4,7.7 L8.4,19.7 C8.4,19.8420161 8.4986801,19.9609842 8.63121275,19.9920768 L8.7,20 L12.2,20 C12.5865993,20 12.9,20.3134007 12.9,20.7 C12.9,21.0543827 12.6366564,21.3472582 12.2949859,21.3936098 L12.2,21.4 L8.7,21.4 C7.81053088,21.4 7.0806099,20.7168932 7.00624001,19.8466825 L7,19.7 L7,7.7 C7,6.81053088 7.68310681,6.0806099 8.55331749,6.00624001 L8.7,6 L18.7,6 Z M17.12,16.294 L16.356,20.406 L20.13,18.929 L17.12,16.294 Z M21.124,13.995 L17.707,15.478 L20.739,18.132 L21.124,13.995 Z M12.7,16.2 C12.9761424,16.2 13.2,16.4238576 13.2,16.7 C13.2,16.9454599 13.0231248,17.1496084 12.7898756,17.1919443 L12.7,17.2 L10.7,17.2 C10.4238576,17.2 10.2,16.9761424 10.2,16.7 C10.2,16.4545401 10.3768752,16.2503916 10.6101244,16.2080557 L10.7,16.2 L12.7,16.2 Z M14.7,13.2 C14.9761424,13.2 15.2,13.4238576 15.2,13.7 C15.2,13.9454599 15.0231248,14.1496084 14.7898756,14.1919443 L14.7,14.2 L10.7,14.2 C10.4238576,14.2 10.2,13.9761424 10.2,13.7 C10.2,13.4545401 10.3768752,13.2503916 10.6101244,13.2080557 L10.7,13.2 L14.7,13.2 Z M16.5,10.2 C16.7761424,10.2 17,10.4238576 17,10.7 C17,10.9454599 16.8231248,11.1496084 16.5898756,11.1919443 L16.5,11.2 L10.7,11.2 C10.4238576,11.2 10.2,10.9761424 10.2,10.7 C10.2,10.4545401 10.3768752,10.2503916 10.6101244,10.2080557 L10.7,10.2 L16.5,10.2 Z" id="形状结合" fill="#BBBBBB"></path>
    </g>
</svg>