<?xml version="1.0" encoding="UTF-8"?>
<svg width="16px" height="16px" viewBox="0 0 16 16" version="1.1" xmlns="http://www.w3.org/2000/svg" xmlns:xlink="http://www.w3.org/1999/xlink">
    <title>icons/16/优化建议</title>
    <g id="各类分析" stroke="none" stroke-width="1" fill="none" fill-rule="evenodd">
        <g id="3典型配置" transform="translate(-418.000000, -254.000000)" fill="#0067FF">
            <g id="优化建议/内容收起" transform="translate(394.000000, 240.000000)">
                <g id="形状结合" transform="translate(24.000000, 14.000000)">
                    <path d="M12.7903358,8.84625706e-13 C13.9095973,8.84625706e-13 14.819397,0.984 14.819397,2.1928 L14.819397,2.1928 L14.819397,5.1472 C14.8324779,5.33804836 14.7381459,5.5202755 14.5748121,5.61968019 C14.4114783,5.71908487 14.2063893,5.71908487 14.0430555,5.61968019 C13.8797218,5.5202755 13.7853897,5.33804836 13.7984706,5.1472 L13.7984706,5.1472 L13.7984706,2.1928 C13.7984706,1.592 13.3443702,1.104 12.7903358,1.104 L12.7903358,1.104 L2.04222752,1.104 C1.48499518,1.104 1.03409269,1.5936 1.03409269,2.1928 L1.03409269,2.1928 L1.03409269,13.8056 C1.03409269,14.4048 1.48659413,14.8944 2.04222752,14.8944 L2.04222752,14.8944 L5.27689325,14.8944 C5.56443764,14.9163555 5.78655887,15.1562295 5.78655887,15.4448 C5.78655887,15.7333705 5.56443764,15.9732445 5.27689325,15.9952 L5.27689325,15.9952 L2.04382646,15.9952 C0.924564962,15.9952 0.0147652577,15.0128 0.0147652577,13.804 L0.0147652577,13.804 L0.0147652577,2.1928 C0.0147652577,0.984 0.922966017,8.84625706e-13 2.04222752,8.84625706e-13 L2.04222752,8.84625706e-13 Z M10.2252449,7.03317518 C11.7910746,6.61397216 13.4614256,7.06345612 14.6059379,8.212 C16.3713791,9.9836602 16.3695409,12.8512983 14.6018298,14.6206907 C12.8341186,16.390083 9.96837205,16.3927571 8.19736629,14.6266667 C7.04924668,13.4817336 6.59957297,11.8104114 7.01804384,10.2434266 C7.43651471,8.67644178 8.6594152,7.4523782 10.2252449,7.03317518 Z M12.0830422,7.9819212 C10.4462683,7.65563553 8.80707637,8.53168249 8.16783117,10.0743599 C7.52858597,11.6170372 8.06730295,13.3967441 9.454557,14.3251907 C10.8418111,15.2536373 12.6912831,15.0722722 13.8720221,13.892 L13.8720221,13.892 C14.5319723,13.2400832 14.9015429,12.346765 14.8980369,11.416 C14.8983669,9.74596192 13.719816,8.30820686 12.0830422,7.9819212 Z M11.3687653,13.022 L11.4522871,13.0245888 C11.5643732,13.0370694 11.6699008,13.087227 11.750821,13.1682006 C11.8519714,13.2694177 11.9050034,13.4091091 11.8965255,13.552 C11.8965233,13.7664211 11.7673145,13.9596826 11.5692524,14.041512 C11.3711903,14.1233414 11.1433632,14.0775895 10.992189,13.9256269 C10.8410148,13.7736643 10.7963283,13.5454814 10.8790025,13.3476623 C10.9616767,13.1498433 11.1553956,13.0214283 11.3696732,13.0224 L11.3687653,13.022 Z M11.3720716,8.7872 C11.6640043,8.78807858 11.9004444,9.02467469 11.9013224,9.3168 L11.9013224,9.3168 L11.6894622,12.2288 C11.6342986,12.388 11.5295677,12.4936 11.3696732,12.4936 C11.2097787,12.4936 11.1034488,12.3888 11.0498842,12.2288 L11.0498842,12.2288 L10.8428208,9.3704 C10.8428208,9.0528 11.0522826,8.7872 11.3720716,8.7872 Z M5.68462423,7.156 C5.9279075,7.14756137 6.15640802,7.27262233 6.28054945,7.48215671 C6.40469088,7.69169109 6.40469088,7.95230891 6.28054945,8.16184329 C6.15640802,8.37137767 5.9279075,8.49643863 5.68462423,8.488 L5.68462423,8.488 L3.19586633,8.488 C2.83726131,8.47556127 2.55297645,8.18105715 2.55297645,7.822 C2.55297645,7.46294285 2.83726131,7.16843873 3.19586633,7.156 L3.19586633,7.156 Z M9.49810805,3.308 C9.85671307,3.32043873 10.1409979,3.61494285 10.1409979,3.974 C10.1409979,4.33305715 9.85671307,4.62756127 9.49810805,4.64 L3.19426739,4.64 C2.83566237,4.62756127 2.5513775,4.33305715 2.5513775,3.974 C2.5513775,3.61494285 2.83566237,3.32043873 3.19426739,3.308 L9.49810805,3.308 Z"></path>
                </g>
            </g>
        </g>
    </g>
</svg>