<?xml version="1.0" encoding="UTF-8"?>
<svg width="28px" height="28px" viewBox="0 0 28 28" version="1.1" xmlns="http://www.w3.org/2000/svg" xmlns:xlink="http://www.w3.org/1999/xlink">
    <!-- Generator: Sketch 63.1 (92452) - https://sketch.com -->
    <title>4.组件/2.通用/icon/tuning/优化建议/Click</title>
    <desc>Created with Sketch.</desc>
    <g id="4.组件/2.通用/icon/tuning/优化建议/Click" stroke="none" stroke-width="1" fill="none" fill-rule="evenodd">
        <g id="4.组件/2.通用/按钮/4.图标按钮/下载/按下">
            <rect id="bgc" stroke="#0057D9" fill="#262626" x="0.5" y="0.5" width="27" height="27" rx="2"></rect>
            <path d="M18.2173622,7 C19.2001098,7 19.9989432,7.86125838 19.9989432,8.91927578 L19.9989432,8.91927578 L19.9981539,11.5877433 C19.9859678,11.7233459 19.9195103,11.8461914 19.8,11.9186958 C19.6565877,12.005701 19.3934123,12.005701 19.25,11.9186958 C19.1065877,11.8316906 18.9885146,11.672194 19,11.5051515 L19,11.5051515 L19,8.91927578 C19,8.39341803 18.7038222,8 18.2173622,8 L18.2173622,8 L8.78017713,8 C8.2909092,8 8,8.39481845 8,8.91927578 L8,8.91927578 L8,19.0835251 C8,19.6079824 8.29231313,20 8.78017713,20 L8.78017713,20 L11.6203178,20 C11.872791,20.0192168 12.0678206,20.247425 12.0678206,20.5 C12.0678206,20.752575 11.872791,20.9807832 11.6203178,21 L11.6203178,21 L8.78158105,21 C7.79883343,21 7,20.140142 7,19.0821246 L7,19.0821246 L7,8.91927578 C7,7.86125838 7.7974295,7 8.78017713,7 L8.78017713,7 Z M19.8324778,14.1756942 C21.3905884,15.7382625 21.3889661,18.2674609 19.8288521,19.8280289 C18.2687382,21.388597 15.7395404,21.3909555 14.1765187,19.8332997 C13.1632325,18.823492 12.7663677,17.3494198 13.1356941,15.9673711 C13.5050204,14.5853224 14.5843054,13.5057232 15.9662465,13.1359947 C17.3481877,12.7662662 18.8223753,13.1627019 19.8324778,14.1756942 Z M16.1944875,13.9879706 C15.1175021,14.2761103 14.276275,15.1175823 13.9883734,16.1949331 C13.7004388,17.2724076 14.0098403,18.4216155 14.7997162,19.2087798 C16.0178204,20.4227023 17.9886514,20.4208645 19.2044903,19.2046717 C20.4206502,17.9881577 20.421915,16.0163242 19.2073162,14.7982505 C18.4201024,14.0087845 17.2713489,13.6998639 16.1944875,13.9879706 Z M16.9741582,18.4183691 C17.100185,18.4108869 17.22339,18.4576909 17.3126614,18.5469623 C17.4019328,18.6362337 17.4487368,18.7594387 17.4412546,18.8854655 C17.4412526,19.0745806 17.3272179,19.2450333 17.1524159,19.3172052 C16.9776139,19.389377 16.7765424,19.3490247 16.6431219,19.2149968 C16.5097014,19.0809689 16.4702628,18.8797163 16.5432278,18.7052439 C16.6161929,18.5307715 16.7871618,18.4175121 16.9741582,18.4183691 Z M16.9783917,14.6830089 C17.2074126,14.6836977 17.3977368,14.8486516 17.4377479,15.0662544 L17.4454881,15.1501053 L17.2585084,17.7184301 C17.2098231,17.8588412 17.1173917,17.9519783 16.9762749,17.9519783 C16.8586776,17.9519783 16.7739096,17.8877898 16.7215625,17.7847288 L16.6940414,17.7184301 L16.5112953,15.1973794 C16.5112953,14.9172627 16.6961582,14.6830089 16.9783917,14.6830089 Z M12.6464994,13.9721858 C12.8117258,13.9658543 12.9669125,14.0596873 13.0512235,14.2169006 C13.1355344,14.3741139 13.1355344,14.569655 13.0512235,14.7268683 C12.9669125,14.8840816 12.8117258,14.9779146 12.6464994,14.9715831 L12.6464994,14.9715831 L10.0510769,14.9715831 C9.80752942,14.9622504 9.61445667,14.7412844 9.61445667,14.4718844 C9.61445667,14.2024845 9.80752942,13.9815185 10.0510769,13.9721858 L10.0510769,13.9721858 Z M16.1755649,10.4859422 C16.4203795,10.4952806 16.6144567,10.7163798 16.6144567,10.9859422 C16.6144567,11.2555046 16.4203795,11.4766038 16.1755649,11.4859422 L10.0533484,11.4859422 C9.80853388,11.4766038 9.61445667,11.2555046 9.61445667,10.9859422 C9.61445667,10.7163798 9.80853388,10.4952806 10.0533484,10.4859422 L16.1755649,10.4859422 Z" id="形状结合备份-2" fill="#0057D9"></path>
        </g>
    </g>
</svg>