<?xml version="1.0" encoding="UTF-8"?>
<svg width="28px" height="28px" viewBox="0 0 28 28" version="1.1" xmlns="http://www.w3.org/2000/svg" xmlns:xlink="http://www.w3.org/1999/xlink">
    <title>icon/Javaperf/28/优化建议-Hover@1x</title>
    <g id="icon/Javaperf/28/优化建议-Hover" stroke="none" stroke-width="1" fill="none" fill-rule="evenodd">
        <rect id="矩形" fill="#2F65CA" x="0" y="0" width="28" height="28" rx="2"></rect>
        <path d="M19,6 C19.5522847,6 20,6.44771525 20,7 L20.0011858,12.3247652 C19.2279824,11.9342576 18.3539655,11.7142857 17.4285714,11.7142857 C14.2726586,11.7142857 11.7142857,14.2726586 11.7142857,17.4285714 C11.7142857,19.2985252 12.6124909,20.9586919 14.0009972,22.0011674 L7,22 C6.44771525,22 6,21.5522847 6,21 L6,7 C6,6.44771525 6.44771525,6 7,6 L19,6 Z M17.5,13 C19.9852814,13 22,15.0147186 22,17.5 C22,19.9852814 19.9852814,22 17.5,22 C15.0147186,22 13,19.9852814 13,17.5 C13,15.0147186 15.0147186,13 17.5,13 Z M17.534,19.452 C17.2945602,19.4510068 17.0766264,19.5954737 16.983618,19.8180201 C16.8906095,20.0405666 16.9408818,20.2972724 17.1109528,20.4682303 C17.2810237,20.6391882 17.5373293,20.6906591 17.7601491,20.598601 C17.9829689,20.5065429 18.1283289,20.2891238 18.1283314,20.0479 C18.137869,19.8871477 18.0782079,19.7299949 17.9644138,19.6161257 C17.8733786,19.5250304 17.75466,19.468603 17.6285631,19.4545624 L17.534,19.452 Z M17.5383207,14.6875 C17.1785581,14.6875 16.9429135,14.9863 16.9429135,15.3436 L17.1758598,18.5593 C17.2361201,18.7393 17.3557412,18.8572 17.5356225,18.8572 C17.7155038,18.8572 17.833326,18.7384 17.8953851,18.5593 L18.1337278,15.2833 C18.1327401,14.954659 17.866745,14.6884884 17.5383207,14.6875 Z M10.5,13 L8.5,13 L8.41012437,13.0080557 C8.17687516,13.0503916 8,13.2545401 8,13.5 C8,13.7454599 8.17687516,13.9496084 8.41012437,13.9919443 L8.5,14 L10.5,14 L10.5898756,13.9919443 C10.8231248,13.9496084 11,13.7454599 11,13.5 C11,13.2238576 10.7761424,13 10.5,13 Z M17.5,8 L8.5,8 L8.41012437,8.00805567 C8.17687516,8.05039163 8,8.25454011 8,8.5 C8,8.74545989 8.17687516,8.94960837 8.41012437,8.99194433 L8.5,9 L17.5,9 L17.5898756,8.99194433 C17.8231248,8.94960837 18,8.74545989 18,8.5 C18,8.22385763 17.7761424,8 17.5,8 Z" id="形状结合" fill="#DCDCDC"></path>
    </g>
</svg>