<?xml version="1.0" encoding="UTF-8"?>
<svg width="56px" height="15px" viewBox="0 0 56 15" version="1.1" xmlns="http://www.w3.org/2000/svg" xmlns:xlink="http://www.w3.org/1999/xlink">
    <title>路径 6备份 6</title>
    <desc>Created with Sketch.</desc>
    <g id="页面-1" stroke="none" stroke-width="1" fill="none" fill-rule="evenodd">
        <g id="Lock-graph显示优化1备份" transform="translate(-1623.000000, -335.000000)" fill="#9EA4B3" fill-rule="nonzero">
            <g id="编组-10备份-2" transform="translate(1623.000000, 334.000000)">
                <g id="编组-22">
                    <path id="路径-6备份-6" d="M42,1.5 L56,8.5 L42,15.5 L42,9.5 L40,9.5 L40,7.5 L42,7.5 L42,1.5 Z M4,7.5 L4,9.5 L0,9.5 L0,7.5 L4,7.5 Z M12,7.5 L12,9.5 L8,9.5 L8,7.5 L12,7.5 Z M20,7.5 L20,9.5 L16,9.5 L16,7.5 L20,7.5 Z M28,7.5 L28,9.5 L24,9.5 L24,7.5 L28,7.5 Z M36,7.5 L36,9.5 L32,9.5 L32,7.5 L36,7.5 Z"></path>
                </g>
            </g>
        </g>
    </g>
</svg>