<?xml version="1.0" encoding="UTF-8"?>
<svg width="49px" height="9px" viewBox="0 0 49 9" version="1.1" xmlns="http://www.w3.org/2000/svg" xmlns:xlink="http://www.w3.org/1999/xlink">
    <title>路径 6备份 6</title>
    <desc>Created with Sketch.</desc>
    <g id="页面-1备份" stroke="none" stroke-width="1" fill="none" fill-rule="evenodd">
        <g id="36线程-锁分析图" transform="translate(-1626.000000, -273.000000)" fill="#B7B7B7" fill-rule="nonzero">
            <g id="编组-22" transform="translate(384.000000, 200.000000)">
                <g id="编组-5备份" transform="translate(320.000000, 1.000000)">
                    <g id="编组-10备份-2" transform="translate(922.000000, 68.000000)">
                        <g id="编组-22">
                            <path id="路径-6备份-6" d="M39.5,4 L48.5,8.5 L39.5,13 L39.5,4 Z M4,8 L4,9 L0,9 L0,8 L4,8 Z M12,8 L12,9 L8,9 L8,8 L12,8 Z M20,8 L20,9 L16,9 L16,8 L20,8 Z M28,8 L28,9 L24,9 L24,8 L28,8 Z M36,8 L36,9 L32,9 L32,8 L36,8 Z"></path>
                        </g>
                    </g>
                </g>
            </g>
        </g>
    </g>
</svg>