<?xml version="1.0" encoding="UTF-8"?>
<svg width="12px" height="11px" viewBox="0 0 12 11" version="1.1" xmlns="http://www.w3.org/2000/svg" xmlns:xlink="http://www.w3.org/1999/xlink">
    <title>4.组件/2.通用/按钮/4.图标按钮/下展备份 6</title>
    <desc>Created with Sketch.</desc>
    <g id="IDE-Lignt-Components" stroke="none" stroke-width="1" fill="none" fill-rule="evenodd">
        <g id="Genera通用组件-按钮" transform="translate(-476.000000, -884.000000)" fill="#0057D9">
            <g id="4.组件/2.通用/按钮/4.图标按钮/排序/normal" transform="translate(476.000000, 884.000000)">
                <path d="M4,0.5 C4.24545989,0.5 4.44960837,0.676875161 4.49194433,0.910124368 L4.5,1 L4.5,10 C4.5,10.4157556 4.03084485,10.6378031 3.71219845,10.4094692 L3.64644661,10.3535534 L0.646446609,7.35355339 C0.451184464,7.15829124 0.451184464,6.84170876 0.646446609,6.64644661 C0.820012961,6.47288026 1.08943736,6.45359511 1.2843055,6.58859116 L1.35355339,6.64644661 L3.5,8.793 L3.5,1 C3.5,0.754540111 3.67687516,0.55039163 3.91012437,0.508055669 L4,0.5 Z M9,8.5 C9.27614237,8.5 9.5,8.72385763 9.5,9 C9.5,9.24545989 9.32312484,9.44960837 9.08987563,9.49194433 L9,9.5 L6,9.5 C5.72385763,9.5 5.5,9.27614237 5.5,9 C5.5,8.75454011 5.67687516,8.55039163 5.91012437,8.50805567 L6,8.5 L9,8.5 Z M10,5.5 C10.2761424,5.5 10.5,5.72385763 10.5,6 C10.5,6.24545989 10.3231248,6.44960837 10.0898756,6.49194433 L10,6.5 L6,6.5 C5.72385763,6.5 5.5,6.27614237 5.5,6 C5.5,5.75454011 5.67687516,5.55039163 5.91012437,5.50805567 L6,5.5 L10,5.5 Z M11,2.5 C11.2761424,2.5 11.5,2.72385763 11.5,3 C11.5,3.24545989 11.3231248,3.44960837 11.0898756,3.49194433 L11,3.5 L6,3.5 C5.72385763,3.5 5.5,3.27614237 5.5,3 C5.5,2.75454011 5.67687516,2.55039163 5.91012437,2.50805567 L6,2.5 L11,2.5 Z" id="形状结合"></path>
            </g>
        </g>
    </g>
</svg>