<?xml version="1.0" encoding="UTF-8"?>
<svg width="16px" height="16px" viewBox="0 0 16 16" version="1.1" xmlns="http://www.w3.org/2000/svg" xmlns:xlink="http://www.w3.org/1999/xlink">
    <!-- Generator: Sketch 63.1 (92452) - https://sketch.com -->
    <title>4.组件/2.通用/icon/树/文件夹</title>
    <desc>Created with Sketch.</desc>
    <defs>
        <path d="M0.848131391,16 C0.301318766,16 -0.0531972281,15.6173142 0.00654816791,15.1231112 C0.002533278,15.0824954 0,15.0415435 0,15 L0,1 C0,0.44771525 0.44771525,0 1,0 L6,0 L8,2 L13,2 C13.5522847,2 14,2.44771525 14,3 L14,6 L15.1518686,6 C15.743319,6 16.1097959,6.44771525 15.9704178,7 L13.9514859,15 C13.8121077,15.5522847 13.2196541,16 12.6282037,16 L0.848131391,16 Z M14.938,7 L3.3717963,7 C3.25237,7 3.09677585,7.10468912 3.03851538,7.19896016 L3.01811435,7.2446946 L1.061,15 L12.6282037,15 C12.74763,15 12.9032241,14.8953109 12.9614846,14.8010398 L12.9818857,14.7553054 L14.938,7 Z M13,3 L8,3 C7.77898626,3 7.56551597,2.92683553 7.39197049,2.79391937 L7.29289322,2.70710678 L5.585,1 L1,1 L1,11.153 L2.04851414,7 C2.18789231,6.44771525 2.78034591,6 3.3717963,6 L13,6 L13,3 Z" id="path-1"></path>
    </defs>
    <g id="IDE-Dark-Components" stroke="none" stroke-width="1" fill="none" fill-rule="evenodd">
        <g id="Navigation导航" transform="translate(-522.000000, -2064.000000)">
            <g id="4.组件/2.通用/icon/树/文件夹" transform="translate(522.000000, 2064.000000)">
                <mask id="mask-2" fill="white">
                    <use xlink:href="#path-1"></use>
                </mask>
                <use id="蒙版" fill="#979797" fill-rule="nonzero" xlink:href="#path-1"></use>
                <g id="3.颜色/10.辅助说明文本" mask="url(#mask-2)" fill="#979797" fill-rule="evenodd">
                    <rect id="矩形备份-6" x="0" y="0" width="16" height="16"></rect>
                </g>
            </g>
        </g>
    </g>
</svg>