<?xml version="1.0" encoding="UTF-8"?>
<svg width="16px" height="16px" viewBox="0 0 16 16" version="1.1" xmlns="http://www.w3.org/2000/svg" xmlns:xlink="http://www.w3.org/1999/xlink">
    <title>VSCode-配置图标</title>
    <defs>
        <path d="M12.6000718,7.03777123 C12.8663145,7.08253713 13.0960856,7.25768504 13.2101381,7.51806103 L13.2473287,7.61960889 C13.3263125,7.90249129 13.5160788,8.15215644 13.7684167,8.30109831 C13.9847063,8.42968122 14.2243582,8.48426335 14.4673476,8.4553978 L14.5890277,8.43396732 C14.8885507,8.36753282 15.204486,8.48432896 15.3788658,8.73292258 C15.5983792,9.08223949 15.803532,9.43155639 15.9461132,9.81409054 C16.0430478,10.0756764 16.0064729,10.3758204 15.8583783,10.6032577 L15.7881455,10.695955 C15.421435,11.1128545 15.3952414,11.7588852 15.7095647,12.2222444 L15.7881455,12.3257434 C15.9932983,12.5582641 16.0568956,12.907581 15.9461132,13.2076078 C15.803532,13.590142 15.5983792,13.9555317 15.3624536,14.2716314 C15.1937724,14.493556 14.9262127,14.609651 14.6685589,14.586051 L14.5726155,14.5705867 C14.2884789,14.5041522 14.0043424,14.5534423 13.7520045,14.7034557 C13.5357149,14.8320386 13.3767006,15.0330478 13.2762535,15.2659965 L13.2309165,15.3849451 C13.1365462,15.7010447 12.8831826,15.9174926 12.5836596,15.9667827 C12.3938933,15.9839271 12.1887405,16 12,16 C11.8112595,16 11.605081,15.9828556 11.4163404,15.9496384 C11.1500977,15.9048725 10.9203267,15.7297245 10.8062741,15.4693486 L10.7690835,15.3678007 C10.6072864,14.8087508 10.087174,14.467187 9.54400792,14.5330284 L9.42738451,14.5534423 C9.1278615,14.6198768 8.82731272,14.5030806 8.63754642,14.254487 C8.400595,13.9223145 8.19544224,13.5729976 8.05388685,13.1904634 C7.95695217,12.9288776 7.99352706,12.6287336 8.1416217,12.4012963 L8.21185446,12.308599 C8.57856501,11.8916995 8.60475862,11.2456688 8.2904353,10.7823095 L8.21185446,10.6788106 C8.00670171,10.4462898 7.94310436,10.0969729 8.05388685,9.79694616 C8.19646801,9.414412 8.40162076,9.04902223 8.63754642,8.73292258 C8.80622757,8.51099801 9.07378728,8.39490298 9.34224753,8.41850297 L9.44277097,8.43396732 C9.72690753,8.50040182 10.0110441,8.45111171 10.263382,8.30109831 C10.4796716,8.1725154 10.6386859,7.9715062 10.739133,7.73855746 L10.78447,7.61960889 C10.8788402,7.30350924 11.1322039,7.08706134 11.4317269,7.03777123 C11.8102337,6.98740959 12.2051528,6.98740959 12.6000718,7.03777123 Z M12.7242574,-8.8817842e-16 C13.8390233,-8.8817842e-16 14.7451688,0.979683021 14.7451688,2.18317981 L14.7451688,2.18317981 L14.7451688,5.12461834 C14.7581972,5.31462941 14.664244,5.4960571 14.5015663,5.59502567 C14.3388885,5.69399425 14.1346233,5.69399425 13.9719455,5.59502567 C13.8092678,5.4960571 13.7153147,5.31462941 13.728343,5.12461834 L13.728343,5.12461834 L13.728343,2.18317981 C13.728343,1.58501562 13.2760665,1.09915656 12.7242574,1.09915656 L12.7242574,1.09915656 L2.01931894,1.09915656 C1.46432474,1.09915656 1.0152333,1.5866086 1.0152333,2.18317981 L1.0152333,2.18317981 L1.0152333,13.7450324 C1.0152333,14.3416036 1.46591726,14.8290557 2.01931894,14.8290557 L2.01931894,14.8290557 L5.24099261,14.8290557 C5.52738207,14.8509148 5.74861116,15.0897364 5.74861116,15.377041 C5.74861116,15.6643455 5.52738207,15.9031671 5.24099261,15.9250263 L5.24099261,15.9250263 L2.02091146,15.9250263 C0.906145487,15.9250263 2.13162821e-14,14.9469362 2.13162821e-14,13.7434395 L2.13162821e-14,13.7434395 L2.13162821e-14,2.18317981 C2.13162821e-14,0.979683021 0.904552964,-8.8817842e-16 2.01931894,-8.8817842e-16 L2.01931894,-8.8817842e-16 Z M11.750813,8.00921871 L11.6253746,8.02133565 L11.5752057,8.15927719 C11.4253554,8.52565068 11.1902492,8.84051018 10.8820078,9.06514062 L10.745462,9.1557737 C10.3635536,9.38576259 9.93224384,9.47626979 9.50951855,9.41496201 L9.39474811,9.3922577 L9.31899303,9.50190894 C9.21621232,9.65885949 9.12599603,9.8246655 9.0527376,9.99171829 L9,10.1216643 L9.08053059,10.2256288 C9.61707317,10.980265 9.61661633,12.036729 9.07182519,12.7772096 L9,12.8662267 L9.04894322,12.9873635 C9.11881103,13.1465177 9.2064976,13.3070266 9.31054646,13.4693047 L9.39303554,13.592009 L9.46661556,13.5782851 C10.375361,13.435861 11.2585045,13.9765188 11.5836431,14.8792703 L11.611674,14.9674615 L11.7160964,14.9832895 L11.8591484,14.9957243 L12.0004281,15 C12.0848067,15 12.178127,14.9958734 12.2776676,14.9895078 L12.3900385,14.981053 L12.4405221,14.845677 C12.5903724,14.4793035 12.8254786,14.164444 13.13372,13.9398135 L13.2702658,13.8491805 C13.6521742,13.6191916 14.083484,13.5286844 14.5126164,13.5914655 L14.6069645,13.6092248 L14.6818633,13.5030452 C14.784644,13.3460947 14.8748603,13.1802887 14.9481187,13.0132359 L15,12.8825365 L14.9203257,12.7793254 C14.3837831,12.0246892 14.38424,10.9682251 14.9290311,10.2277446 L15,10.1379741 L14.9662943,10.0512509 C14.894292,9.88080193 14.8013079,9.70410542 14.6758622,9.49240845 L14.6172399,9.39588209 L14.5289326,9.41338418 C14.1530699,9.46842394 13.7760388,9.40611329 13.4331694,9.23641972 L13.2884199,9.1571485 C12.9001633,8.92500675 12.5976394,8.55503379 12.4405371,8.13183787 L12.4054517,8.02314784 L12.2899313,8.01141667 C12.1040174,7.99680129 11.9214761,7.99638263 11.750813,8.00921871 Z M11.97,10 C12.7945614,10 13.47,10.6746134 13.47,11.5 C13.47,12.3253866 12.8101559,13 11.97,13 C11.1454386,13 10.47,12.3253866 10.47,11.5 C10.47,10.6746134 11.1454386,10 11.97,10 Z M11.97,11 C11.6977329,11 11.47,11.2252336 11.47,11.5 C11.47,11.7747664 11.6977329,12 11.97,12 C12.2489848,12 12.47,11.7798321 12.47,11.5 C12.47,11.2252336 12.2422671,11 11.97,11 Z M6.43922419,7.96520262 C6.62729596,7.95889891 6.80393981,8.05232027 6.89990817,8.20884384 C6.99587653,8.3653674 6.99587653,8.56005064 6.89990817,8.71657421 C6.80393981,8.87309778 6.62729596,8.96651913 6.43922419,8.96021542 L6.43922419,8.96021542 L3.4849408,8.96021542 C3.20771879,8.95092361 2.98795048,8.73092709 2.98795048,8.46270902 C2.98795048,8.19449096 3.20771879,7.97449444 3.4849408,7.96520262 L3.4849408,7.96520262 Z M10.4562425,3.98245131 C10.7349068,3.99174872 10.9558184,4.21187791 10.9558184,4.48025772 C10.9558184,4.74863753 10.7349068,4.96876672 10.4562425,4.97806413 L3.48752638,4.97806413 C3.20886213,4.96876672 2.98795048,4.74863753 2.98795048,4.48025772 C2.98795048,4.21187791 3.20886213,3.99174872 3.48752638,3.98245131 L10.4562425,3.98245131 Z" id="path-1"></path>
    </defs>
    <g id="630检视" stroke="none" stroke-width="1" fill="none" fill-rule="evenodd">
        <g id="57画板" transform="translate(-797.000000, -395.000000)">
            <g id="VSCode-配置图标" transform="translate(797.000000, 395.000000)">
                <mask id="mask-2" fill="white">
                    <use xlink:href="#path-1"></use>
                </mask>
                <use id="形状结合" fill="#AAAAAA" fill-rule="nonzero" xlink:href="#path-1"></use>
                <g id="编组" mask="url(#mask-2)">
                    <g transform="translate(-2.000000, -2.000000)">
                        <rect id="矩形" fill="#AAAAAA" x="0" y="0" width="20" height="20"></rect>
                    </g>
                </g>
            </g>
        </g>
    </g>
</svg>