<?xml version="1.0" encoding="UTF-8"?>
<svg width="14px" height="8px" viewBox="0 0 14 8" version="1.1" xmlns="http://www.w3.org/2000/svg" xmlns:xlink="http://www.w3.org/1999/xlink">
    <title>4.组件/2.通用/icon/箭头/下-big</title>
    <desc>Created with Sketch.</desc>
    <g id="1230-TI2需求设计" stroke="none" stroke-width="1" fill="none" fill-rule="evenodd">
        <g id="Sampling-GC优化-1" transform="translate(-1825.000000, -205.000000)" fill="#AAAAAA" fill-rule="nonzero">
            <g id="编组" transform="translate(384.000000, 152.000000)">
                <g id="优化建议/标题/展开备份" transform="translate(0.000000, 36.000000)">
                    <g id="编组-24">
                        <g id="4.组件/2.通用/icon/20/返回上一级" transform="translate(1448.000000, 22.000000) rotate(-90.000000) translate(-1448.000000, -22.000000) translate(1440.000000, 14.000000)">
                            <g id="4.组件/2.通用/icon/tuning/箭头/下-big" transform="translate(8.000000, 8.000000) rotate(-90.000000) translate(-8.000000, -8.000000) translate(0.000000, 0.000000)">
                                <path d="M1.64644661,5.64644661 C1.82001296,5.47288026 2.08943736,5.45359511 2.2843055,5.58859116 L2.35355339,5.64644661 L8,11.293 L13.6464466,5.64644661 C13.820013,5.47288026 14.0894374,5.45359511 14.2843055,5.58859116 L14.3535534,5.64644661 C14.5271197,5.82001296 14.5464049,6.08943736 14.4114088,6.2843055 L14.3535534,6.35355339 L8.35355339,12.3535534 C8.17998704,12.5271197 7.91056264,12.5464049 7.7156945,12.4114088 L7.64644661,12.3535534 L1.64644661,6.35355339 C1.45118446,6.15829124 1.45118446,5.84170876 1.64644661,5.64644661 Z" id="路径-16"></path>
                            </g>
                        </g>
                    </g>
                </g>
            </g>
        </g>
    </g>
</svg>