<?xml version="1.0" encoding="UTF-8"?>
<svg width="16px" height="16px" viewBox="0 0 16 16" version="1.1" xmlns="http://www.w3.org/2000/svg" xmlns:xlink="http://www.w3.org/1999/xlink">
    <title>icon/Javaperf/16/配置信息</title>
    <g id="icon/Javaperf/16/配置信息" stroke="none" stroke-width="1" fill="none" fill-rule="evenodd">
        <path d="M13,1 C13.5522847,1 14,1.44771525 14,2 L14.0003901,6.59990903 C13.2502268,6.21635366 12.4003795,6 11.5,6 C8.46243388,6 6,8.46243388 6,11.5 C6,12.8298843 6.47199869,14.0495273 7.25761415,15.0005473 L2,15 C1.44771525,15 1,14.5522847 1,14 L1,2 C1,1.44771525 1.44771525,1 2,1 L13,1 Z M5.5,7 L3.5,7 L3.41012437,7.00805567 C3.17687516,7.05039163 3,7.25454011 3,7.5 C3,7.74545989 3.17687516,7.94960837 3.41012437,7.99194433 L3.5,8 L5.5,8 L5.58987563,7.99194433 C5.82312484,7.94960837 6,7.74545989 6,7.5 C6,7.22385763 5.77614237,7 5.5,7 Z M10.4285714,3 L3.57142857,3 L3.46871356,3.00805567 C3.20214304,3.05039163 3,3.25454011 3,3.5 C3,3.74852814 3.2072282,3.95470563 3.47873989,3.99345584 L3.57142857,4 L10.4285714,4 L10.5312864,3.99194433 C10.797857,3.94960837 11,3.74545989 11,3.5 C11,3.22385763 10.7441627,3 10.4285714,3 Z" id="形状结合" fill="#888888"></path>
        <path d="M12.6509901,7 C13.1551316,7.12857539 13.6262985,7.3396188 14.0492719,7.61791345 C13.9061094,7.81057808 13.8217798,8.04912942 13.8217798,8.30737447 C13.8217798,8.94855206 14.3416233,9.46832921 14.9828828,9.46832921 C15.204987,9.46832921 15.4125258,9.40597541 15.5889446,9.29782027 C15.7665004,9.62545717 15.9054987,9.97790684 16,10.3481484 C15.4264472,10.4190451 14.9828828,10.9077292 14.9828828,11.5 L14.9865232,11.5926098 C15.0299339,12.142554 15.4566342,12.5846863 16,12.6518516 C15.9054987,13.0220932 15.7665004,13.3745428 15.5889446,13.7021797 C15.4125258,13.5940246 15.204987,13.5316708 14.9828828,13.5316708 C14.3416233,13.5316708 13.8217798,14.0514479 13.8217798,14.6926255 C13.8217798,14.9508706 13.9061094,15.1894219 14.0492719,15.3820865 C13.6791702,15.6255944 13.2721703,15.817613 12.8384678,15.9479483 L12.6509901,16 L12.6480874,15.9722616 C12.5651563,15.4124321 12.0825368,14.9828642 11.4995736,14.9828642 C10.9073635,14.9828642 10.4187056,15.4261679 10.3475749,15.9998515 C9.84377849,15.8712941 9.3729208,15.6603792 8.95041093,15.3822507 C9.09303794,15.1894219 9.17736753,14.9508706 9.17736753,14.6926255 C9.17736753,14.0514479 8.65752398,13.5316708 8.01626447,13.5316708 C7.79400975,13.5316708 7.58634016,13.5941092 7.41011085,13.7031701 C7.23264688,13.3745428 7.09364861,13.0220932 7,12.65201 C7.54275134,12.5844816 7.96923612,12.1424096 8.01262578,11.5925887 L8.01626447,11.5 C8.01626447,10.9078655 7.57290419,10.41927 7,10.34799 C7.09364861,9.97790684 7.23264688,9.62545717 7.41011085,9.2968299 C7.58634016,9.40589084 7.79400975,9.46832921 8.01626447,9.46832921 C8.65752398,9.46832921 9.17736753,8.94855206 9.17736753,8.30737447 C9.17736753,8.04912942 9.09303794,7.81057808 8.95041093,7.61774931 C9.3729208,7.33962075 9.84377849,7.12870585 10.3475749,7.00014854 C10.4187056,7.57383214 10.9073635,8.01713578 11.4995736,8.01713578 C12.0825368,8.01713578 12.5651563,7.58756789 12.6480874,7.02773842 L12.6509901,7 Z M11.4995736,9.75856789 C10.5376844,9.75856789 9.75791906,10.5382336 9.75791906,11.5 C9.75791906,12.4617664 10.5376844,13.2414321 11.4995736,13.2414321 C12.4614629,13.2414321 13.2412282,12.4617664 13.2412282,11.5 C13.2412282,10.5382336 12.4614629,9.75856789 11.4995736,9.75856789 Z" id="形状结合" fill="#888888"></path>
    </g>
</svg>