<?xml version="1.0" encoding="UTF-8"?>
<svg width="16px" height="16px" viewBox="0 0 16 16" version="1.1" xmlns="http://www.w3.org/2000/svg" xmlns:xlink="http://www.w3.org/1999/xlink">
    <!-- Generator: Sketch 63.1 (92452) - https://sketch.com -->
    <title>icons/16/优化建议</title>
    <desc>Created with Sketch.</desc>
    <g id="330-TI4需求设计" stroke="none" stroke-width="1" fill="none" fill-rule="evenodd">
        <g id="分析报告和优化建议2" transform="translate(-874.000000, -530.000000)" fill="#979797" fill-rule="nonzero">
            <g id="编组-10备份-8" transform="translate(782.000000, 240.000000)">
                <g id="编组-11">
                    <g id="编组-18" transform="translate(40.000000, 66.000000)">
                        <g id="编组-2备份-4" transform="translate(0.000000, 210.000000)">
                            <g id="优化建议/内容收起">
                                <g id="内容收起">
                                    <g id="icons/16/优化建议" transform="translate(52.000000, 14.000000)">
                                        <path d="M12.8198425,0 C13.9429826,0 14.8559351,0.984295291 14.8559351,2.19345803 L14.8559351,2.19345803 L14.855033,5.2431352 C14.8411061,5.3981096 14.7651546,5.53850446 14.6285714,5.62136663 C14.4646717,5.72080114 14.1638998,5.72080114 14,5.62136663 C13.8361002,5.52193211 13.7011595,5.33965028 13.7142857,5.14874457 L13.7142857,5.14874457 L13.7142857,2.19345803 C13.7142857,1.59247775 13.3757968,1.14285714 12.8198425,1.14285714 L12.8198425,1.14285714 L2.03448815,1.14285714 C1.4753248,1.14285714 1.14285714,1.59407823 1.14285714,2.19345803 L1.14285714,2.19345803 L1.14285714,13.809743 C1.14285714,14.4091227 1.47692929,14.8571429 2.03448815,14.8571429 L2.03448815,14.8571429 L5.2803632,14.8571429 C5.568904,14.8791049 5.79179497,15.1399143 5.79179497,15.4285714 C5.79179497,15.7172286 5.568904,15.9780379 5.2803632,16 L5.2803632,16 L2.03609263,16 C0.912952491,16 0,15.0173051 0,13.8081424 L0,13.8081424 L0,2.19345803 C0,0.984295291 0.911348,0 2.03448815,0 L2.03448815,0 L12.8198425,0 Z M14.6656889,8.20079337 C16.4463867,9.98658571 16.4445327,12.8770982 14.6615453,14.6606045 C12.8785579,16.4441109 9.98804617,16.4468063 8.20173566,14.6666282 C7.04369428,13.5125623 6.59013451,11.8279083 7.01222183,10.2484241 C7.43430903,8.66893988 8.6677776,7.43511223 10.2471389,7.01256537 C11.8265002,6.59001851 13.5112861,7.04308788 14.6656889,8.20079337 Z M10.5079857,7.98625211 C9.27714526,8.31555463 8.31574286,9.27723691 7.98671246,10.508495 C7.65764434,11.7398944 8.01124606,13.0532749 8.91396137,13.9528912 C10.3060805,15.3402312 12.5584587,15.3381309 13.9479889,13.9481962 C15.3378859,12.5578945 15.3393314,10.3043705 13.9512185,8.91228628 C13.0515456,8.01003943 11.7386845,7.65698731 10.5079857,7.98625211 Z M11.3990379,13.0495647 C11.5430686,13.0410136 11.6838743,13.0945039 11.7858987,13.1965283 C11.8879232,13.2985528 11.9414135,13.4393585 11.9328624,13.5833891 C11.9328601,13.7995207 11.8025347,13.9943238 11.602761,14.0768059 C11.4029873,14.159288 11.1731913,14.1131711 11.0207107,13.9599963 C10.8682302,13.8068216 10.8231575,13.5768186 10.9065461,13.3774216 C10.9899347,13.1780246 11.1853278,13.0485853 11.3990379,13.0495647 Z M11.4038762,8.7805816 C11.6656144,8.7813688 11.8831278,8.96988754 11.9288547,9.21857646 L11.9377007,9.31440606 L11.7240096,12.2496344 C11.6683693,12.4101042 11.5627334,12.5165466 11.401457,12.5165466 C11.2670601,12.5165466 11.1701824,12.4431883 11.1103571,12.3254043 L11.0789045,12.2496344 L10.8700518,9.3684336 C10.8700518,9.04830023 11.0813237,8.7805816 11.4038762,8.7805816 Z M6.45314217,7.96821234 C6.64197234,7.96097634 6.81932857,8.06821406 6.915684,8.2478864 C7.01203931,8.42755874 7.01203931,8.65103428 6.915684,8.83070663 C6.81932857,9.01037897 6.64197234,9.11761668 6.45314217,9.11038068 L6.45314217,9.11038068 L3.48694503,9.11038068 C3.20860505,9.09971474 2.98795048,8.84718217 2.98795048,8.53929646 C2.98795048,8.23141086 3.20860505,7.97887828 3.48694503,7.96821234 L3.48694503,7.96821234 L6.45314217,7.96821234 Z M10.4863599,3.98393394 C10.766148,3.9946064 10.9879505,4.2472912 10.9879505,4.55536251 C10.9879505,4.86343383 10.766148,5.11611863 10.4863599,5.12679108 L3.48954103,5.12679108 C3.20975301,5.11611863 2.98795048,4.86343383 2.98795048,4.55536251 C2.98795048,4.2472912 3.20975301,3.9946064 3.48954103,3.98393394 L10.4863599,3.98393394 Z" id="形状结合备份-2"></path>
                                    </g>
                                </g>
                            </g>
                        </g>
                    </g>
                </g>
            </g>
        </g>
    </g>
</svg>