<?xml version="1.0" encoding="UTF-8"?>
<svg width="14px" height="14px" viewBox="0 0 14 14" version="1.1" xmlns="http://www.w3.org/2000/svg" xmlns:xlink="http://www.w3.org/1999/xlink">
    <!-- Generator: Sketch 63.1 (92452) - https://sketch.com -->
    <title>形状结合备份-2</title>
    <desc>Created with Sketch.</desc>
    <g id="330-TI4需求设计" stroke="none" stroke-width="1" fill="none" fill-rule="evenodd">
        <g id="分析报告和优化建议1" transform="translate(-691.000000, -217.000000)" fill="#0057D9" fill-rule="nonzero">
            <g id="4.组件/5.反馈/2.Alert告警提示/3默认-提示/单行" transform="translate(384.000000, 204.000000)">
                <path d="M318.217362,13 C319.20011,13 319.998943,13.8612584 319.998943,14.9192758 L319.998943,14.9192758 L319.998154,17.5877433 C319.985968,17.7233459 319.91951,17.8461914 319.8,17.9186958 C319.656588,18.005701 319.393412,18.005701 319.25,17.9186958 C319.106588,17.8316906 318.988515,17.672194 319,17.5051515 L319,17.5051515 L319,14.9192758 C319,14.393418 318.703822,14 318.217362,14 L318.217362,14 L308.780177,14 C308.290909,14 308,14.3948185 308,14.9192758 L308,14.9192758 L308,25.0835251 C308,25.6079824 308.292313,26 308.780177,26 L308.780177,26 L311.620318,26 C311.872791,26.0192168 312.067821,26.247425 312.067821,26.5 C312.067821,26.752575 311.872791,26.9807832 311.620318,27 L311.620318,27 L308.781581,27 C307.798833,27 307,26.140142 307,25.0821246 L307,25.0821246 L307,14.9192758 C307,13.8612584 307.79743,13 308.780177,13 L308.780177,13 L318.217362,13 Z M319.832478,20.1756942 C321.390588,21.7382625 321.388966,24.2674609 319.828852,25.8280289 C318.268738,27.388597 315.73954,27.3909555 314.176519,25.8332997 C313.163232,24.823492 312.766368,23.3494198 313.135694,21.9673711 C313.50502,20.5853224 314.584305,19.5057232 315.966247,19.1359947 C317.348188,18.7662662 318.822375,19.1627019 319.832478,20.1756942 Z M316.194487,19.9879706 C315.117502,20.2761103 314.276275,21.1175823 313.988373,22.1949331 C313.700439,23.2724076 314.00984,24.4216155 314.799716,25.2087798 C316.01782,26.4227023 317.988651,26.4208645 319.20449,25.2046717 C320.42065,23.9881577 320.421915,22.0163242 319.207316,20.7982505 C318.420102,20.0087845 317.271349,19.6998639 316.194487,19.9879706 Z M316.974158,24.4183691 C317.100185,24.4108869 317.22339,24.4576909 317.312661,24.5469623 C317.401933,24.6362337 317.448737,24.7594387 317.441255,24.8854655 C317.441253,25.0745806 317.327218,25.2450333 317.152416,25.3172052 C316.977614,25.389377 316.776542,25.3490247 316.643122,25.2149968 C316.509701,25.0809689 316.470263,24.8797163 316.543228,24.7052439 C316.616193,24.5307715 316.787162,24.4175121 316.974158,24.4183691 Z M316.978392,20.6830089 C317.207413,20.6836977 317.397737,20.8486516 317.437748,21.0662544 L317.445488,21.1501053 L317.258508,23.7184301 C317.209823,23.8588412 317.117392,23.9519783 316.976275,23.9519783 C316.858678,23.9519783 316.77391,23.8877898 316.721563,23.7847288 L316.694041,23.7184301 L316.511295,21.1973794 C316.511295,20.9172627 316.696158,20.6830089 316.978392,20.6830089 Z M312.646499,19.9721858 C312.811726,19.9658543 312.966912,20.0596873 313.051223,20.2169006 C313.135534,20.3741139 313.135534,20.569655 313.051223,20.7268683 C312.966912,20.8840816 312.811726,20.9779146 312.646499,20.9715831 L312.646499,20.9715831 L310.051077,20.9715831 C309.807529,20.9622504 309.614457,20.7412844 309.614457,20.4718845 C309.614457,20.2024845 309.807529,19.9815185 310.051077,19.9721858 L310.051077,19.9721858 L312.646499,19.9721858 Z M316.175565,16.4859422 C316.42038,16.4952806 316.614457,16.7163798 316.614457,16.9859422 C316.614457,17.2555046 316.42038,17.4766038 316.175565,17.4859422 L310.053348,17.4859422 C309.808534,17.4766038 309.614457,17.2555046 309.614457,16.9859422 C309.614457,16.7163798 309.808534,16.4952806 310.053348,16.4859422 L316.175565,16.4859422 Z" id="形状结合备份-2"></path>
            </g>
        </g>
    </g>
</svg>