<?xml version="1.0" encoding="UTF-8"?>
<svg width="16px" height="16px" viewBox="0 0 16 16" version="1.1" xmlns="http://www.w3.org/2000/svg" xmlns:xlink="http://www.w3.org/1999/xlink">
    <!-- Generator: Sketch 63.1 (92452) - https://sketch.com -->
    <title>4.组件/2.通用/icon/对比备份 3</title>
    <desc>Created with Sketch.</desc>
    <g id="Profiling分析模块" stroke="none" stroke-width="1" fill="none" fill-rule="evenodd">
        <g id="画板" transform="translate(-403.000000, -234.000000)" fill="#616161" fill-rule="nonzero">
            <g id="4.组件/2.通用/icon/对比备份-3" transform="translate(403.000000, 234.000000)">
                <path d="M11.3855383,0.00920518507 C12.0559294,0.00920518507 12.5841163,0.557706948 12.5841163,1.20778314 L12.5841163,1.20778314 L12.5832052,3.40120519 L14.6359193,3.40179024 C15.367255,3.40179024 15.9563865,3.99092179 15.9563865,4.72225749 L15.9563865,14.676549 C15.9563865,15.4078847 15.3672549,15.9970163 14.6359193,15.9970163 L4.68162772,15.9970163 C3.95029202,15.9970163 3.36116049,15.4078847 3.36116049,14.676549 L3.36020519,12.5832052 L1.20778314,12.5841163 C0.579291515,12.5841163 0.0757840312,12.1020347 0.0153006411,11.5061282 L0.00920518507,11.3855383 L0.00920518507,1.20778314 C0.00920518507,0.537392074 0.557706948,0.00920518507 1.20778314,0.00920518507 L1.20778314,0.00920518507 Z M14.6562341,4.25501524 L4.70194262,4.25501524 C4.41753429,4.25501524 4.1940706,4.47847893 4.1940706,4.76288726 L4.1940706,14.7171788 C4.1940706,15.0015871 4.41753429,15.2250508 4.70194262,15.2250508 L14.6562341,15.2250508 C14.9406425,15.2250508 15.1641061,15.0015871 15.1641061,14.7171788 L15.1641061,4.76288726 C15.1641061,4.47847893 14.9406425,4.25501524 14.6562341,4.25501524 Z M13.2341925,12.116874 L13.2341925,12.970099 L6.2865033,12.970099 L6.2865033,12.116874 L13.2341925,12.116874 Z M11.3855383,0.821800402 L1.20778314,0.821800402 C0.984319448,0.821800402 0.821800402,1.00463432 0.821800402,1.20778314 L0.821800402,1.20778314 L0.821800402,11.3855383 C0.821800402,11.609002 1.00463432,11.7715211 1.20778314,11.7715211 L1.20778314,11.7715211 L3.36020519,11.7712052 L3.36116049,4.72225749 C3.36116049,3.99092179 3.95029204,3.40179024 4.68162772,3.40179024 L11.7712052,3.40120519 L11.7715211,1.20778314 C11.7715211,1.01225241 11.6315389,0.863382423 11.4604495,0.829220094 L11.3855383,0.821800402 Z M13.2341925,9.47593956 L13.2341925,10.3291645 L6.2865033,10.3291645 L6.2865033,9.47593956 L13.2341925,9.47593956 Z M13.2341925,6.75374555 L13.2341925,7.60697055 L6.2865033,7.60697055 L6.2865033,6.75374555 L13.2341925,6.75374555 Z" id="形状结合"></path>
            </g>
        </g>
    </g>
</svg>