<?xml version="1.0" encoding="UTF-8"?>
<svg width="10px" height="10px" viewBox="0 0 10 10" version="1.1" xmlns="http://www.w3.org/2000/svg" xmlns:xlink="http://www.w3.org/1999/xlink">
    <title>4.组件/2.通用/按钮/4.图标按钮/下展备份 9</title>
    <g id="IDE-Dark-Components" stroke="none" stroke-width="1" fill="none" fill-rule="evenodd">
        <g id="Genera通用组件-按钮" transform="translate(-1317.000000, -1929.000000)" fill="#267DFF">
            <g id="编组-6" transform="translate(120.000000, 1283.000000)">
                <g id="编组" transform="translate(918.000000, 471.000000)">
                    <g transform="translate(278.000000, 174.000000)" id="4.组件/2.通用/按钮/4.图标按钮/下展备份-9">
                        <path d="M1.64644661,1.64644661 C1.82001296,1.47288026 2.08943736,1.45359511 2.2843055,1.58859116 L2.35355339,1.64644661 L6,5.293 L9.64644661,1.64644661 C9.82001296,1.47288026 10.0894374,1.45359511 10.2843055,1.58859116 L10.3535534,1.64644661 C10.5271197,1.82001296 10.5464049,2.08943736 10.4114088,2.2843055 L10.3535534,2.35355339 L6.35355339,6.35355339 C6.17998704,6.52711974 5.91056264,6.54640489 5.7156945,6.41140884 L5.64644661,6.35355339 L1.64644661,2.35355339 C1.45118446,2.15829124 1.45118446,1.84170876 1.64644661,1.64644661 Z" id="路径-5"></path>
                        <path d="M1.64644661,5.64644661 C1.82001296,5.47288026 2.08943736,5.45359511 2.2843055,5.58859116 L2.35355339,5.64644661 L6,9.293 L9.64644661,5.64644661 C9.82001296,5.47288026 10.0894374,5.45359511 10.2843055,5.58859116 L10.3535534,5.64644661 C10.5271197,5.82001296 10.5464049,6.08943736 10.4114088,6.2843055 L10.3535534,6.35355339 L6.35355339,10.3535534 C6.17998704,10.5271197 5.91056264,10.5464049 5.7156945,10.4114088 L5.64644661,10.3535534 L1.64644661,6.35355339 C1.45118446,6.15829124 1.45118446,5.84170876 1.64644661,5.64644661 Z" id="路径-5备份"></path>
                    </g>
                </g>
            </g>
        </g>
    </g>
</svg>