<?xml version="1.0" encoding="UTF-8"?>
<svg width="16px" height="16px" viewBox="0 0 16 16" version="1.1" xmlns="http://www.w3.org/2000/svg" xmlns:xlink="http://www.w3.org/1999/xlink">
    <title>4.组件/2.通用/icon/16/保存-默认-VSCode</title>
    <defs>
        <path d="M3.33,1.01466667 L1.014,1.01466667 L1.014,15.008 L15.0056667,15.008 L15.0056667,3.66466667 L12.6623333,1.01466667 L12.6623333,7.33333333 C12.6623333,7.70152316 12.3638565,7.99999999 11.9956667,8 L3.99666667,8 C3.81985568,8 3.6502864,7.92976211 3.52526215,7.80473785 C3.40023789,7.6797136 3.33,7.51014432 3.33,7.33333333 L3.33,1.01466667 Z M0.666666672,0 L12.693,0 C12.8878745,0 13.0729982,0.0852414953 13.1996667,0.233333328 L15.8396667,3.151 C15.9430575,3.27171394 16,3.42539463 16,3.58433333 L16,15.3333333 C16,15.7015232 15.7015232,16 15.3333333,16 L0.666666672,16 C0.298476836,16 0,15.7015232 0,15.3333333 L0,0.666666672 C0,0.298476836 0.298476836,0 0.666666672,0 Z M4.33333333,1 L4.33333333,7 L11.6666667,7 L11.6666667,1 L4.33333333,1 Z M9.33333333,1.66666667 C9.42173883,1.66666667 9.50652347,1.70178561 9.56903559,1.76429774 C9.63154772,1.82680986 9.66666667,1.9115945 9.66666667,2 L9.66666667,5.66666667 C9.66666667,5.75507217 9.63154772,5.83985681 9.56903559,5.90236893 C9.50652347,5.96488106 9.42173883,6 9.33333333,6 L9,6 C8.81590509,6 8.66666667,5.85076159 8.66666667,5.66666667 L8.66666667,2 C8.66666667,1.81590509 8.81590509,1.66666667 9,1.66666667 L9.33333333,1.66666667 Z" id="path-1"></path>
    </defs>
    <g id="4.组件/2.通用/icon/16/保存-默认-VSCode" stroke="none" stroke-width="1" fill="none" fill-rule="evenodd">
        <mask id="mask-2" fill="white">
            <use xlink:href="#path-1"></use>
        </mask>
        <use id="形状备份-2" fill="#888888" fill-rule="nonzero" xlink:href="#path-1"></use>
        <g id="3.颜色/9.辅助文字" mask="url(#mask-2)" fill="#888888">
            <rect id="矩形" x="0" y="0" width="16" height="16"></rect>
        </g>
    </g>
</svg>