<?xml version="1.0" encoding="UTF-8"?>
<svg width="30px" height="30px" viewBox="0 0 30 30" version="1.1" xmlns="http://www.w3.org/2000/svg" xmlns:xlink="http://www.w3.org/1999/xlink">
    <title>网络_选中态</title>
    <defs>
        <path d="M14.3283582,0 L14.639,0.003 L14.7526054,0.00612678131 C14.8529308,0.0090259339 14.9533101,0.0129662557 15.0534189,0.0179283953 C15.0913891,0.0198102977 15.1293914,0.0218432761 15.1673541,0.0240232415 C15.2451587,0.0284921107 15.3226081,0.0335644962 15.3998869,0.0392464735 C15.440392,0.0422231759 15.4813632,0.0454094317 15.5222857,0.048766716 C15.6165578,0.0565055085 15.709855,0.0650790401 15.8028887,0.0745377892 C15.8261186,0.0768988895 15.8497495,0.079359677 15.8733632,0.0818775177 C16.105479,0.106631926 16.3356464,0.136853711 16.5640247,0.172440462 C16.6029984,0.178513172 16.6420335,0.184760762 16.6810155,0.191164838 C16.7557934,0.20344918 16.8304476,0.216322293 16.9049013,0.229767599 L17.0660156,0.259814489 L17.1949285,0.28523307 C17.2567137,0.297710782 17.3182586,0.310563196 17.3796569,0.323807013 C17.6010481,0.371555487 17.8209119,0.424494127 18.0387308,0.482409545 C18.0767536,0.492519065 18.1148067,0.502805697 18.1527965,0.513244025 C18.2240868,0.532832817 18.2950464,0.552924413 18.3657792,0.573544002 L18.4313431,0.592827169 L18.4968099,0.612422866 C18.5570632,0.630614154 18.617382,0.649263463 18.6775284,0.668297007 L18.8198754,0.714165119 C18.9038509,0.741707448 18.9879765,0.770173273 19.0717465,0.799391244 C19.0930555,0.806824182 19.1139942,0.81418284 19.1349105,0.821588463 C19.4584214,0.936122194 19.7768682,1.06201987 20.0894707,1.19870034 C20.1252515,1.21434623 20.1605573,1.22995526 20.1957875,1.24570173 C20.2687563,1.278313 20.3418215,1.31171034 20.4145525,1.34569794 C20.4412146,1.35815825 20.4674655,1.37052389 20.4936724,1.3829664 C20.5643959,1.41654224 20.6351359,1.45084451 20.7055468,1.48570607 C20.7605658,1.51294787 20.8151989,1.54043664 20.8696296,1.56826184 C21.0403593,1.65553809 21.2091838,1.74617278 21.375929,1.84003542 C21.4159473,1.86256326 21.4555826,1.88512557 21.4950987,1.90787019 C21.554222,1.94189739 21.6135438,1.97660972 21.6725903,2.01173272 C21.7108717,2.03450642 21.7484393,2.05708945 21.7858936,2.07983868 L21.9759959,2.19734078 C22.1405632,2.30084077 22.302804,2.40754119 22.4626898,2.51739076 C22.5102295,2.55005543 22.5571408,2.5827024 22.6038453,2.61562054 C22.6448345,2.64450908 22.6859223,2.67379235 22.7268472,2.70328554 L22.9100989,2.83756192 C22.9291157,2.85172873 22.9480894,2.86593643 22.9670263,2.88018986 C23.2408735,3.08630956 23.5070225,3.30197236 23.7649919,3.52669455 L23.8269602,3.58098922 C23.8942079,3.64025174 23.9608049,3.70005445 24.0268301,3.76046581 C24.043805,3.77599829 24.0604452,3.79129681 24.0770489,3.80663401 C24.1271111,3.85287464 24.1771816,3.89979134 24.2269104,3.94706057 C24.2568481,3.97551839 24.2865223,4.00396883 24.3160729,4.03254496 L24.3557944,4.07110478 C24.5819901,4.29153228 24.8008694,4.51935762 25.0120366,4.7541871 C25.0384202,4.7835255 25.0649414,4.81326503 25.0913392,4.84311529 C25.1476621,4.90680714 25.2032366,4.97078521 25.2582447,5.03525631 C25.2786107,5.05912523 25.299003,5.08318532 25.3193165,5.10731329 C25.4551148,5.26861206 25.5873774,5.43292833 25.7159998,5.60016084 L25.7468047,5.64035965 L25.8921744,5.83413508 C27.5204923,8.04337253 28.5241732,10.7365047 28.6445034,13.6562325 L28.6567164,13.65625 L28.6567164,14.84375 L28.6445151,14.8434832 C28.3316615,22.4383129 22.0417939,28.5 14.3283582,28.5 C14.2191508,28.5 14.1102288,28.4987849 14.0016051,28.4963676 L14.2614304,28.5 C9.6006936,28.5 5.45970343,26.2868699 2.84298388,22.8596403 L2.87693288,22.8162757 C1.18241512,20.5792919 0.135221321,17.8299158 0.0122012941,14.8434832 L0,14.84375 L0,13.65625 L0.0122012941,13.6565168 C0.130380157,10.7876082 1.10142663,8.13746565 2.67990587,5.95018174 L2.90991172,5.64089035 L2.94071657,5.60016084 C3.0685385,5.4339692 3.19995535,5.27065761 3.3348516,5.11034093 C3.35874185,5.08235182 3.38192565,5.05500699 3.40521078,5.02775042 C3.45720531,4.96650349 3.51049525,4.90518928 3.56429867,4.84433507 L3.64482763,4.75435565 C3.86169084,4.51285898 4.08684673,4.27892803 4.31971788,4.05282155 L4.48578849,3.89432972 C4.50626291,3.8748797 4.52621715,3.85622368 4.54622504,3.83762403 C4.59081483,3.79635703 4.63581961,3.75504482 4.6810899,3.71401733 C4.71281469,3.68509313 4.74477876,3.65638734 4.77687305,3.62782329 C4.82363971,3.58636372 4.87038786,3.54529561 4.91740618,3.50452778 C5.16562849,3.28915241 5.42198166,3.08184193 5.68544887,2.88338336 C5.70891323,2.86580054 5.73249297,2.84815063 5.75612913,2.83057162 C5.836332,2.77083694 5.91721747,2.71198398 5.99874029,2.65396018 C6.0848305,2.59268556 6.17163148,2.53233562 6.25912856,2.47292495 L6.33118333,2.42437876 C6.41671207,2.36700089 6.50246663,2.31085258 6.58885691,2.2556022 L6.66842936,2.20512823 C6.73995173,2.15999685 6.81191328,2.11552079 6.88429654,2.07166504 L6.93847473,2.0390429 C7.03414646,1.98160858 7.13088864,1.92510131 7.22834799,1.86969951 C7.22954337,1.86905272 7.2305361,1.86848855 7.2315289,1.8679245 C7.31643847,1.81962354 7.40511487,1.77045071 7.49436443,1.7221937 L7.55042064,1.69207082 C7.74671935,1.58703131 7.94578439,1.48642686 8.14746042,1.39037672 C8.20662526,1.36221499 8.26587158,1.334495 8.32533822,1.30716845 C8.36220679,1.29021247 8.39928337,1.27336618 8.43644436,1.25667294 L8.59443594,1.18685644 L8.80627761,1.09676702 L8.87039056,1.07030416 C8.95818511,1.03429515 9.04648642,0.999110686 9.13521667,0.964780086 C9.15922962,0.955495717 9.18327685,0.946266163 9.20735529,0.937099362 C9.28458414,0.907692337 9.36211309,0.878944665 9.43995636,0.850848838 C9.51887583,0.822370541 9.59789186,0.794634675 9.67722229,0.767571854 C9.71775071,0.753741637 9.75857876,0.740018812 9.7994888,0.726474462 L9.87784744,0.700785741 L10.0031106,0.66075232 C10.0534195,0.644927011 10.1037324,0.629408079 10.1541631,0.614158281 C10.1994173,0.600474837 10.2450471,0.586924114 10.2907717,0.573594035 C10.36167,0.552924413 10.4326296,0.532832817 10.5038116,0.513273798 L10.6199661,0.481884244 C10.70977,0.458019331 10.7998951,0.43500788 10.8903584,0.412850966 C10.9088613,0.408319912 10.9273096,0.403840436 10.9457718,0.399396521 L10.9586943,0.396291721 C11.0645175,0.370923901 11.1707986,0.34672419 11.2775229,0.323707077 L11.4499386,0.287631448 C11.4977488,0.277935961 11.5451213,0.268578324 11.5925772,0.259453573 C11.6482711,0.248743941 11.704332,0.23830955 11.7605068,0.228200855 L11.9661679,0.192734246 L12.092555,0.172461779 C12.3209468,0.136869479 12.551201,0.106634962 12.7831111,0.0819033302 L12.8491724,0.075011831 C12.9449642,0.065240916 13.0411022,0.0564030297 13.1375106,0.0485143662 C13.1763008,0.0453399508 13.2152729,0.042309039 13.2542885,0.0394335083 C13.3323838,0.0336775166 13.4106936,0.0285417425 13.4891727,0.0240341341 C13.5272789,0.0218457925 13.5652833,0.0198125809 13.6033268,0.0179269367 C13.7034063,0.0129662557 13.8037856,0.0090259339 13.9044251,0.00611770196 C13.9210933,0.00563564123 13.9381076,0.00517326535 13.9551292,0.00474041222 C14.0794012,0.00158337123 14.2036938,0 14.3283582,0 Z M14.2614304,18.40625 C12.7782747,18.40625 11.3364395,18.6522002 9.98308276,19.1152094 C10.7830637,23.4565159 12.5833671,26.5018202 14.4281083,26.707634 L14.553,26.716 L14.5646607,26.7165796 C14.6432535,26.7151348 14.7216696,26.7129707 14.7999025,26.7100938 C16.369645,26.558057 17.9108036,24.3444291 18.8339245,21.0208468 C18.276376,20.6474808 17.9104478,20.0146778 17.9104478,19.296875 C17.9104478,19.1707175 17.9217512,19.0471857 17.9434059,18.9272265 C16.8455391,18.6087967 15.6946654,18.4310509 14.5158024,18.408664 L14.2614304,18.40625 Z M8.85046243,19.5637297 L8.62302408,19.6673673 C7.21017117,20.3354122 5.92343298,21.2530641 4.82518694,22.3821077 C6.6055764,24.4389897 9.04894653,25.91074 11.8251886,26.4701957 C10.4937979,25.0180495 9.43290785,22.5649121 8.85046243,19.5637297 Z M21.5998696,20.6324487 L21.526033,20.7164728 C21.1447238,21.121732 20.6021015,21.375 20,21.375 C19.9919181,21.375 19.9838469,21.3749544 19.9757867,21.3748633 C19.3948666,23.4407064 18.568173,25.1449529 17.5843864,26.2938631 C20.0170692,25.6451652 22.1573958,24.2870087 23.7678917,22.4561654 C23.1099983,21.7683487 22.3826984,21.1577378 21.5998696,20.6324487 Z M26.8517348,14.8431662 L20.889706,14.8436397 C20.8728485,15.7022602 20.8195979,16.5403457 20.7332293,17.3507616 C21.5252801,17.645234 22.0895522,18.4055185 22.0895522,19.296875 C22.0895522,19.3736189 22.0853694,19.4493911 22.077218,19.5239786 C22.9616749,20.0968683 23.7799109,20.7661917 24.5157145,21.515897 C25.8868713,19.6212992 26.7347539,17.3272683 26.8517348,14.8431662 Z M6.76835251,14.8439685 L1.80498157,14.8431662 C1.92037454,17.2935465 2.74695973,19.558981 4.08408995,21.4399197 C5.38011817,20.1375563 6.92669617,19.0838685 8.64585867,18.354784 C8.53729966,17.6014076 8.45767948,16.8193621 8.41007956,16.0152487 C7.68292597,15.9318224 7.07015299,15.4756086 6.76835251,14.8439685 Z M19.6953389,14.8441569 L10.5445993,14.8449746 C10.3452299,15.261657 10.0104965,15.6019067 9.59694181,15.8094902 C9.63495112,16.537648 9.70242463,17.2447323 9.79413983,17.9259675 C11.2003861,17.4665701 12.7018084,17.21875 14.2614304,17.21875 C15.7361879,17.21875 17.158907,17.4403343 18.4977634,17.8518527 C18.7745077,17.5675962 19.1331387,17.3610188 19.5359564,17.2701771 C19.6244409,16.4914349 19.6780108,15.6793921 19.6953389,14.8441569 Z M4.11241993,7.02302505 L4.07549373,7.07218783 C2.74341743,8.95073729 1.92012705,11.2117089 1.80498157,13.6568338 L6.58834701,13.6560973 C6.72370093,12.7154967 7.4923862,11.9781145 8.4509834,11.8849451 C8.50019268,11.2817976 8.56682978,10.6911948 8.65041882,10.1170304 C6.93897837,9.38312696 5.40070914,8.32571357 4.11241993,7.02302505 Z M24.5453122,7.02180996 L24.316259,7.24830856 C23.6013282,7.93978314 22.8140427,8.55766513 21.9667721,9.08965737 C22.0456019,9.30955527 22.0895522,9.54811063 22.0895522,9.796875 C22.0895522,10.6668999 21.5519649,11.4120512 20.7891266,11.7217005 C20.8424478,12.3515215 20.8767784,12.9979026 20.889706,13.6563603 L26.8517348,13.6568338 C26.7355582,11.1898116 25.8984962,8.91025582 24.5453122,7.02180996 Z M9.79689887,10.5539178 C9.72826713,11.0602677 9.67302814,11.5814394 9.6325263,12.1150755 C10.2121115,12.420834 10.6288101,12.9870583 10.7250858,13.6560973 L19.6953389,13.6558431 C19.6824564,13.0348913 19.6495427,12.4267582 19.5984454,11.8344278 C18.9682041,11.7138498 18.4411937,11.3120199 18.151286,10.7663472 C16.9350021,11.1025714 15.6526612,11.28125 14.3283582,11.28125 C12.7447316,11.28125 11.22111,11.0257427 9.79689887,10.5539178 Z M14.571,1.783 L14.6268657,1.78125 C12.7170389,1.78125 10.8180432,4.87744469 9.98748327,9.36188831 C11.2815293,9.81325388 12.6575542,10.0644376 14.0739862,10.091336 L14.3283582,10.09375 C15.5639598,10.09375 16.7708833,9.92305117 17.9218623,9.59835824 C17.9864459,8.90696495 18.3914093,8.31596898 18.9676243,7.98968838 C18.0662296,4.38417024 16.4487977,1.94958849 14.7994645,1.78963834 L14.571,1.783 Z M11.8255325,2.02985237 L11.6194185,2.07307034 C8.94486251,2.65892248 6.5906741,4.09410133 4.85734755,6.07975595 C6.00512016,7.27135573 7.36267563,8.22911124 8.85654356,8.90999286 C9.43961205,5.91932199 10.4983004,3.47660199 11.8255325,2.02985237 Z M17.5848461,2.20599817 L17.6061389,2.23166106 C18.6730858,3.48953718 19.553613,5.40202233 20.1342676,7.72196008 C20.5522317,7.74936376 20.9366758,7.89786201 21.2520709,8.13298369 C22.1792511,7.56189158 23.0352899,6.8734674 23.7991598,6.08223079 C22.1861075,4.23125076 20.0333904,2.85918879 17.5848461,2.20599817 Z" id="path-1"></path>
    </defs>
    <g id="页面-1" stroke="none" stroke-width="1" fill="none" fill-rule="evenodd">
        <g id="编组" transform="translate(-5.000000, -4.000000)">
            <g id="编组" transform="translate(5.970149, 4.750000)">
                <mask id="mask-2" fill="white">
                    <use xlink:href="#path-1"></use>
                </mask>
                <use id="蒙版" fill="#979797" fill-rule="nonzero" xlink:href="#path-1"></use>
                <g mask="url(#mask-2)" id="3.颜色/10.辅助说明文本">
                    <g transform="translate(-5.970149, -4.750000)">
                        <rect id="矩形" fill="#2072EA" x="0" y="0" width="40" height="38"></rect>
                    </g>
                </g>
            </g>
        </g>
    </g>
</svg>