<?xml version="1.0" encoding="UTF-8"?>
<svg width="34px" height="24px" viewBox="0 0 34 24" version="1.1" xmlns="http://www.w3.org/2000/svg" xmlns:xlink="http://www.w3.org/1999/xlink">
    <title>内存_默认态</title>
    <defs>
        <path d="M31.875,0 C32.9105339,0 33.75,0.839466094 33.75,1.875 L33.75,20.625 C33.75,21.6605339 32.9105339,22.5 31.875,22.5 L28.125,22.5 C27.0894661,22.5 26.25,21.6605339 26.25,20.625 L26.25,18.125 L21.875,18.125 L21.875,21.5625 C21.875,22.080267 21.455267,22.5 20.9375,22.5 C20.419733,22.5 20,22.080267 20,21.5625 L20,18.125 L17.5,18.125 L17.5,21.5625 C17.5,22.080267 17.080267,22.5 16.5625,22.5 C16.044733,22.5 15.625,22.080267 15.625,21.5625 L15.625,18.125 L13.125,18.125 L13.125,21.5625 C13.125,22.080267 12.705267,22.5 12.1875,22.5 C11.669733,22.5 11.25,22.080267 11.25,21.5625 L11.25,18.125 L7.5,18.125 L7.5,20.625 C7.5,21.6605339 6.66053391,22.5 5.625,22.5 L1.875,22.5 C0.839466094,22.5 0,21.6605339 0,20.625 L0,1.875 C0,0.839466094 0.839466094,0 1.875,0 L31.875,0 Z M31.875,1.875 L1.875,1.875 L1.875,20.625 L5.625,20.625 L5.625,16.25 L28.125,16.25 L28.125,20.625 L31.875,20.625 L31.875,1.875 Z M10,5.625 C10.6903559,5.625 11.25,6.18464406 11.25,6.875 L11.25,10.625 C11.25,11.3153559 10.6903559,11.875 10,11.875 L6.25,11.875 C5.55964406,11.875 5,11.3153559 5,10.625 L5,6.875 C5,6.18464406 5.55964406,5.625 6.25,5.625 L10,5.625 Z M18.75,5.625 C19.4403559,5.625 20,6.18464406 20,6.875 L20,10.625 C20,11.3153559 19.4403559,11.875 18.75,11.875 L15,11.875 C14.3096441,11.875 13.75,11.3153559 13.75,10.625 L13.75,6.875 C13.75,6.18464406 14.3096441,5.625 15,5.625 L18.75,5.625 Z M27.5,5.625 C28.1903559,5.625 28.75,6.18464406 28.75,6.875 L28.75,10.625 C28.75,11.3153559 28.1903559,11.875 27.5,11.875 L23.75,11.875 C23.0596441,11.875 22.5,11.3153559 22.5,10.625 L22.5,6.875 C22.5,6.18464406 23.0596441,5.625 23.75,5.625 L27.5,5.625 Z M10,6.875 L6.25,6.875 L6.25,10.625 L10,10.625 L10,6.875 Z M18.75,6.875 L15,6.875 L15,10.625 L18.75,10.625 L18.75,6.875 Z M27.5,6.875 L23.75,6.875 L23.75,10.625 L27.5,10.625 L27.5,6.875 Z" id="path-1"></path>
    </defs>
    <g id="页面-1" stroke="none" stroke-width="1" fill="none" fill-rule="evenodd">
        <g id="编组" transform="translate(-3.000000, -8.000000)">
            <g id="编组" transform="translate(3.125000, 8.750000)">
                <mask id="mask-2" fill="white">
                    <use xlink:href="#path-1"></use>
                </mask>
                <use id="蒙版" fill="#979797" fill-rule="nonzero" xlink:href="#path-1"></use>
                <g mask="url(#mask-2)" id="3.颜色/10.辅助说明文本">
                    <g transform="translate(-3.125000, -8.750000)">
                        <rect id="矩形" fill="#888888" x="0" y="0" width="40" height="40"></rect>
                    </g>
                </g>
            </g>
        </g>
    </g>
</svg>