<?xml version="1.0" encoding="UTF-8"?>
<svg width="40px" height="40px" viewBox="0 0 40 40" version="1.1" xmlns="http://www.w3.org/2000/svg" xmlns:xlink="http://www.w3.org/1999/xlink">
    <title>4.组件/2.通用/icon/Bigicon/存储IO诊断/选中</title>
    <g id="4.组件/2.通用/icon/Bigicon/存储IO诊断/选中" stroke="none" stroke-width="1" fill="none" fill-rule="evenodd">
        <path d="M32,3.00000001 C33.1045695,3.00000001 34,3.8864762 34,4.98000001 L34,34.02 C34,35.1135238 33.1045695,36 32,36 L8,36 C6.8954305,36 6,35.1135238 6,34.02 L6,4.98000001 C6,3.8864762 6.8954305,3.00000001 8,3.00000001 L32,3.00000001 Z M31.6,5.00000001 L8.4,5.00000001 C8.1790861,5.00000001 8,5.17908611 8,5.40000001 L8,33.6 C8,33.8209139 8.1790861,34 8.4,34 L31.6,34 C31.8209139,34 32,33.8209139 32,33.6 L32,5.40000001 C32,5.17908611 31.8209139,5.00000001 31.6,5.00000001 Z M19.5,13 C23.0898509,13 26,15.9101491 26,19.5 C26,23.0898509 23.0898509,26 19.5,26 C19.1418103,26 18.7903875,25.9710273 18.4479473,25.9152976 C17.3982063,28.2210881 16.6716885,29.6174066 16.2398084,30.1507341 C15.1926036,31.4439243 13.4710074,31.6125441 12.2743103,30.6434779 C11.0908593,29.6851382 11.0240788,27.8362672 12.1468281,26.7374504 L12.2842112,26.6088757 C12.7312229,26.204581 13.6814386,25.4483725 15.1484657,24.3286557 C13.829544,23.1395115 13,21.4166309 13,19.5 C13,15.9101491 15.9101491,13 19.5,13 Z M29,29 C29.5522847,29 30,29.4477153 30,30 C30,30.5522848 29.5522847,31 29,31 C28.4477153,31 28,30.5522848 28,30 C28,29.4477153 28.4477153,29 29,29 Z M18.1164763,23.3342348 C15.1468505,25.8136829 13.5343991,27.1835238 13.2791218,27.4437575 C12.6159447,28.1198107 12.5548641,29.1549865 13.1134041,29.6072833 C13.7410888,30.1155723 14.7070744,29.9248153 15.4137573,29.0521346 C15.7051989,28.6922343 16.6519907,26.9758356 18.2541329,23.9029387 L18.4223838,23.5803045 C18.4734126,23.482219 18.4352656,23.3613379 18.33718,23.3103091 C18.2655222,23.2730293 18.1784806,23.2824651 18.1164763,23.3342348 Z M19.5,14 C16.4624339,14 14,16.4624339 14,19.5 C14,21.1900431 14.7622697,22.7020486 15.9617537,23.710961 C16.2980801,23.4562064 16.6561782,23.1863614 17.0360473,22.9011715 L18.6907763,21.6641269 C19.023389,21.4164474 19.4847506,21.4654513 19.7585887,21.7645846 L19.8107623,21.8277325 C19.981573,22.0571171 20.0169631,22.360229 19.9035903,22.6227936 L19.1791283,24.2837623 C19.0758993,24.5177549 18.9751463,24.7448541 18.87685,24.9650906 C19.082008,24.9881886 19.2896246,25 19.5,25 C22.5375661,25 25,22.5375661 25,19.5 C25,16.4624339 22.5375661,14 19.5,14 Z M11,8.00000001 C11.5522847,8.00000001 12,8.44771526 12,9.00000001 C12,9.55228476 11.5522847,10 11,10 C10.4477153,10 10,9.55228476 10,9.00000001 C10,8.44771526 10.4477153,8.00000001 11,8.00000001 Z M29,8.00000001 C29.5522847,8.00000001 30,8.44771526 30,9.00000001 C30,9.55228476 29.5522847,10 29,10 C28.4477153,10 28,9.55228476 28,9.00000001 C28,8.44771526 28.4477153,8.00000001 29,8.00000001 Z" id="形状结合" fill="#0067FF"></path>
    </g>
</svg>