<?xml version="1.0" encoding="UTF-8"?>
<svg width="16px" height="15px" viewBox="0 0 24 22" version="1.1" xmlns="http://www.w3.org/2000/svg" xmlns:xlink="http://www.w3.org/1999/xlink">
    <title>icon-告警</title>
    <desc>Created with Sketch.</desc>
    <g id="组件规范" stroke="none" stroke-width="1" fill="none" fill-rule="evenodd">
        <g id="消息提示类弹窗" transform="translate(-594.000000, -1579.000000)">
            <g id="icon-告警" transform="translate(594.000000, 1578.000000)">
                <g id="abnormal">
                    <path d="M13.7538982,2.40044299 L23.3772294,19.9607116 C23.9080671,20.9293628 23.5531491,22.1449387 22.5844978,22.6757763 C22.2898656,22.8372399 21.9593054,22.9218782 21.6233313,22.9218782 L2.37666874,22.9218782 C1.27209924,22.9218782 0.376668736,22.0264477 0.376668736,20.9218782 C0.376668736,20.5859041 0.461307016,20.2553438 0.622770557,19.9607116 L10.2461018,2.40044299 C10.7769395,1.43179178 11.9925154,1.07687375 12.9611666,1.60771139 C13.2955817,1.79097665 13.5706329,2.0660279 13.7538982,2.40044299 Z" id="三角形" fill="#FA8E5A"></path>
                    <path d="M13.6956522,17.3395349 L13.6956522,20.1738372 L10.8695652,20.1738372 L10.8695652,17.3395349 L13.6956522,17.3395349 Z M13.6956522,7.70290698 L13.1304348,15.6389535 L11.4347826,15.6389535 L10.8695652,7.70290698 L13.6956522,7.70290698 Z" id="形状结合" fill="#FFFFFF"></path>
                </g>
            </g>
        </g>
    </g>
</svg>