<?xml version="1.0" encoding="UTF-8"?>
<svg width="25px" height="22px" viewBox="0 0 25 22" version="1.1" xmlns="http://www.w3.org/2000/svg" xmlns:xlink="http://www.w3.org/1999/xlink">
    <title>4.组件/2.通用/icon/警示备份</title>
    <defs>
        <path d="M11.9727774,0.878964729 C12.0525896,0.923859117 12.1185401,0.989809633 12.1634345,1.06962188 L23.5176362,21.2548694 C23.6530181,21.4955483 23.567658,21.8004059 23.3269791,21.9357878 C23.2521383,21.9778857 23.1677169,22 23.0818485,22 L0.37344502,22 C0.0973026453,22 -0.12655498,21.7761424 -0.12655498,21.5 C-0.12655498,21.4141316 -0.10444071,21.3297102 -0.0623427484,21.2548694 L11.291859,1.06962188 C11.4272409,0.828942939 11.7320984,0.743582826 11.9727774,0.878964729 Z M12.3178895,16.9495845 L10.9290006,16.9495845 L10.9290006,18.4495845 L12.3178895,18.4495845 L12.3178895,16.9495845 Z M12.373445,8.81466382 L10.873445,8.81466382 L11.0956672,15.7829178 L12.0956672,15.7829178 L12.373445,8.81466382 Z" id="path-1"></path>
    </defs>
    <g id="port" stroke="none" stroke-width="1" fill="none" fill-rule="evenodd">
        <g id="配置-用户管理删除" transform="translate(-711.000000, -503.000000)">
            <g id="4组件-/-5反馈-/-1弹窗-/-2删除用户" transform="translate(680.000000, 413.000000)">
                <g id="编组" transform="translate(32.000000, 90.000000)">
                    <mask id="mask-2" fill="white">
                        <use xlink:href="#path-1"></use>
                    </mask>
                    <use id="形状结合" fill="#D8D8D8" xlink:href="#path-1"></use>
                    <g mask="url(#mask-2)" id="3.颜色/2.成功-安全">
                        <g transform="translate(0.000000, 1.000000)">
                            <rect id="矩形备份" fill="#FF9B00" x="0" y="0" width="24" height="21"></rect>
                        </g>
                    </g>
                </g>
            </g>
        </g>
    </g>
</svg>