<?xml version="1.0" encoding="UTF-8"?>
<svg width="16px" height="16px" viewBox="0 0 16 16" version="1.1" xmlns="http://www.w3.org/2000/svg" xmlns:xlink="http://www.w3.org/1999/xlink">
    <title>icon-prompt16</title>
    <g id="页面-1" stroke="none" stroke-width="1" fill="none" fill-rule="evenodd">
        <g id="微架构分析-时序信息" transform="translate(-934.000000, -404.000000)">
            <g id="编组-3" transform="translate(904.000000, 394.000000)">
                <g id="分组-19" transform="translate(12.000000, 0.000000)">
                    <g id="icon-提示图标" transform="translate(18.000000, 10.000000)">
                        <path d="M8,0 C3.6,0 0,3.6 0,8 C0,12.4 3.6,16 8,16 C12.4,16 16,12.4 16,8 C16,3.6 12.4,0 8,0 Z" id="XMLID_298_" fill="#0067FF"></path>
                        <path d="M8.88132426,10.9566866 L8.88132426,12.952381 L6.72798707,12.952381 L6.72798707,10.9566866 L8.88132426,10.9566866 Z M8.73010161,3.80952381 L9.14285714,9.03566635 L6.47619048,9.03566635 L6.901663,3.80952381 L8.73010161,3.80952381 Z" id="形状结合" fill="#FFFFFF" transform="translate(7.809524, 8.380952) rotate(-180.000000) translate(-7.809524, -8.380952) "></path>
                    </g>
                </g>
            </g>
        </g>
    </g>
</svg>