<?xml version="1.0" encoding="UTF-8"?>
<svg width="14px" height="14px" viewBox="0 0 14 14" version="1.1" xmlns="http://www.w3.org/2000/svg" xmlns:xlink="http://www.w3.org/1999/xlink">
    <title>icon/14/问号</title>
    <defs>
        <path d="M7,0 C10.8659932,0 14,3.13400675 14,7 C14,10.8659932 10.8659932,14 7,14 C3.13400675,14 0,10.8659932 0,7 C0,3.13400675 3.13400675,0 7,0 Z M7,0.875 C3.61725591,0.875 0.875,3.61725591 0.875,7 C0.875,10.3827441 3.61725591,13.125 7,13.125 C10.3827441,13.125 13.125,10.3827441 13.125,7 C13.125,3.61725591 10.3827441,0.875 7,0.875 Z M7.175,9.835 C7.56159932,9.835 7.875,10.1484007 7.875,10.535 C7.875,10.9215993 7.56159932,11.235 7.175,11.235 C6.78840068,11.235 6.475,10.9215993 6.475,10.535 C6.475,10.1484007 6.78840068,9.835 7.175,9.835 Z M7.24455543,2.975 C8.53515522,2.975 9.40953679,3.58820157 9.7015249,4.56894459 C9.9452223,5.38748656 9.72240516,6.34972593 9.17110658,6.87879075 C8.83466453,7.20166416 8.49095774,7.42156094 8.01593869,7.69223663 C7.8303739,7.81095729 7.78091031,7.86180967 7.77144386,7.9564389 L7.76955543,8 L7.76955543,8.75 C7.76955543,9.03994949 7.53450493,9.275 7.24455543,9.275 C6.98360089,9.275 6.76711452,9.08460909 6.7264268,8.83515773 L6.71955543,8.75 L6.71955543,8 C6.71955543,7.45540329 6.96610443,7.11739511 7.45007027,6.80776337 L7.74914659,6.63104089 C8.06005566,6.4428303 8.24986957,6.30758549 8.44407819,6.12120925 C8.70220948,5.87348835 8.83002897,5.32149782 8.69517836,4.86855541 C8.53942151,4.34539218 8.08256518,4.025 7.24455543,4.025 C5.96674304,4.025 5.425,4.54489465 5.425,5.75 C5.425,6.03994949 5.18994949,6.275 4.9,6.275 C4.61005051,6.275 4.375,6.03994949 4.375,5.75 C4.375,3.95510535 5.39629392,2.975 7.24455543,2.975 Z" id="path-1"></path>
    </defs>
    <g id="icon/14/问号" stroke="none" stroke-width="1" fill="none" fill-rule="evenodd">
        <g id="3.颜色/10.辅助说明文本">
            <mask id="mask-2" fill="white">
                <use xlink:href="#path-1"></use>
            </mask>
            <use id="蒙版" fill="#979797" fill-rule="nonzero" xlink:href="#path-1"></use>
            <g id="编组" mask="url(#mask-2)" fill="#979797">
                <g id="3.颜色/10.辅助说明文本">
                    <rect id="矩形备份-6" x="0" y="0" width="14" height="14"></rect>
                </g>
            </g>
        </g>
    </g>
</svg>