<?xml version="1.0" encoding="UTF-8"?>
<svg width="32px" height="32px" viewBox="0 0 32 32" version="1.1" xmlns="http://www.w3.org/2000/svg" xmlns:xlink="http://www.w3.org/1999/xlink">
    <title>按钮/固定/已选Normal</title>
    <g id="按钮/固定/已选Normal" stroke="none" stroke-width="1" fill="none" fill-rule="evenodd">
        <g id="Button按钮/带描边图标按钮/a.默认备份-2" fill="#0067FF">
            <path d="M0,0 L30,0 C31.1045695,-2.02906125e-16 32,0.8954305 32,2 L32,30 C32,31.1045695 31.1045695,32 30,32 L0,32 L0,32 L0,0 Z" id="bgc"></path>
        </g>
        <rect id="BOX" x="6" y="6" width="20" height="20"></rect>
        <path d="M16,6 C16.5522847,6 17,6.44771525 17,7 L17.0010101,9.07103341 C20.066221,9.50993388 22.4906422,11.9346412 22.92911,14.9999918 L24,15 C24.5522847,15 25,15.4477153 25,16 C25,16.5522847 24.5522847,17 24,17 L22.9289666,17.0010101 C22.4901139,20.0658871 20.0658871,22.4901139 17.0010101,22.9289666 L17,25 C17,25.5522847 16.5522847,26 16,26 C15.4477153,26 15,25.5522847 15,25 L14.9999918,22.92911 C11.9346412,22.4906422 9.50993388,20.066221 9.07103341,17.0010101 L8,17 C7.44771525,17 7,16.5522847 7,16 C7,15.4477153 7.44771525,15 8,15 L9.07089004,14.9999918 C9.50940557,11.9343072 11.9343072,9.50940557 14.9999918,9.07089004 L15,7 C15,6.44771525 15.4477153,6 16,6 Z M10.4889578,15.0003919 L11,15 C11.5522847,15 12,15.4477153 12,16 C12,16.5522847 11.5522847,17 11,17 L10.489138,17.0006081 C10.9023842,19.2916287 12.7092304,21.0982016 15.0003919,21.5110422 L15,21 C15,20.4477153 15.4477153,20 16,20 C16.5522847,20 17,20.4477153 17,21 L17.0006081,21.510862 C19.2912953,21.0976759 21.0976759,19.2912953 21.510862,17.0006081 L21,17 C20.4477153,17 20,16.5522847 20,16 C20,15.4477153 20.4477153,15 21,15 L21.5110422,15.0003919 C21.0982016,12.7092304 19.2916287,10.9023842 17.0006081,10.489138 L17,11 C17,11.5522847 16.5522847,12 16,12 C15.4477153,12 15,11.5522847 15,11 L15.0003919,10.4889578 C12.7088971,10.9018584 10.9018584,12.7088971 10.4889578,15.0003919 Z M16,14 C17.1045695,14 18,14.8954305 18,16 C18,17.1045695 17.1045695,18 16,18 C14.8954305,18 14,17.1045695 14,16 C14,14.8954305 14.8954305,14 16,14 Z" id="形状结合" fill="#FFFFFF"></path>
    </g>
</svg>