<?xml version="1.0" encoding="UTF-8"?>
<svg width="32px" height="32px" viewBox="0 0 32 32" version="1.1" xmlns="http://www.w3.org/2000/svg" xmlns:xlink="http://www.w3.org/1999/xlink">
    <title>按钮/占比与时刻/时刻/未选择/Hover</title>
    <g id="按钮/占比与时刻/时刻/未选择/Hover" stroke="none" stroke-width="1" fill="none" fill-rule="evenodd">
        <path d="M31.5,0.5 L31.5,31.5 L2,31.5 C1.58578644,31.5 1.21078644,31.3321068 0.939339828,31.0606602 C0.667893219,30.7892136 0.5,30.4142136 0.5,30 L0.5,30 L0.5,2 C0.5,1.58578644 0.667893219,1.21078644 0.939339828,0.939339828 C1.21078644,0.667893219 1.58578644,0.5 2,0.5 L2,0.5 L31.5,0.5 Z" id="bgc" stroke="#267DFF" fill="#FFFFFF"></path>
        <rect id="BOX" x="6" y="6" width="20" height="20"></rect>
        <path d="M16,6 C21.5228475,6 26,10.4771525 26,16 C26,21.5228475 21.5228475,26 16,26 C10.4771525,26 6,21.5228475 6,16 C6,10.4771525 10.4771525,6 16,6 Z M16,7.4 C11.2503512,7.4 7.4,11.2503512 7.4,16 C7.4,20.7496488 11.2503512,24.6 16,24.6 C20.7496488,24.6 24.6,20.7496488 24.6,16 C24.6,11.2503512 20.7496488,7.4 16,7.4 Z M16,10.3 C16.3543827,10.3 16.6472582,10.5633436 16.6936098,10.9050141 L16.7,11 L16.7,15.567 L20.3130495,17.373901 C20.6273995,17.5310759 20.771809,17.8928614 20.6655707,18.2171349 L20.626099,18.3130495 C20.4689241,18.6273995 20.1071386,18.771809 19.7828651,18.6655707 L19.6869505,18.626099 L15.6869505,16.626099 C15.4794453,16.5223464 15.3388152,16.323802 15.3069,16.0981636 L15.3,16 L15.3,11 C15.3,10.6134007 15.6134007,10.3 16,10.3 Z" id="形状结合" fill="#267DFF"></path>
    </g>
</svg>