<?xml version="1.0" encoding="UTF-8"?>
<svg width="70px" height="70px" viewBox="0 0 70 70" version="1.1" xmlns="http://www.w3.org/2000/svg" xmlns:xlink="http://www.w3.org/1999/xlink">
    <title>深色-查收邮件</title>
    <g id="切图" stroke="none" stroke-width="1" fill="none" fill-rule="evenodd">
        <g transform="translate(-166.000000, -111.000000)" fill="#E8E8E8" fill-rule="nonzero" id="深色-查收邮件">
            <g transform="translate(166.000000, 111.000000)">
                <rect id="矩形" opacity="0" x="0" y="0" width="70" height="70"></rect>
                <path d="M64.5909091,31.1818182 L58.3181818,25.7272727 L58.3181818,6.36363634 C58.3181818,5.54545452 57.7727273,5 56.9545455,5 L13.1818182,5 C12.3636364,5 11.8181818,5.54545452 11.8181818,6.36363634 L11.8181818,26.1363636 L5.54545452,31.1818182 C5.13636362,31.4545455 5,31.8636364 5,32.2727272 L5,63.6363637 C5,64.4545455 5.54545452,65 6.36363634,65 L63.6363637,65 C64.4545455,65 65,64.4545455 65,63.6363637 L65,32.2727272 C65,31.8636363 64.8636364,31.4545454 64.5909091,31.1818182 Z M58.2258065,29.1935484 L61.1290323,31.8817205 L58.2258065,34.0322581 L58.2258065,29.1935484 Z M14.6774194,7.90322581 L55.3225806,7.90322581 L55.3225806,36.0748848 L41.367742,45.6451613 L28.632258,45.6451613 L14.6774194,36.0748848 L14.6774194,7.90322581 Z M11.7741935,29.1935484 L11.7741935,34.0322581 L8.87096774,31.8202765 L11.7741935,29.1935484 Z M7.90322581,35 L26.2903226,47.4489107 L7.90322581,61.1290323 L7.90322581,35 Z M10.8064516,62.0967742 L29.0403226,48.5483871 L41.7903226,48.5483871 L60.1612903,62.0967742 L10.8064516,62.0967742 Z M62.0967742,61.1290323 L43.7096774,47.4489107 L62.0967742,35 L62.0967742,61.1290323 L62.0967742,61.1290323 Z M50.483871,28.2258065 L20.483871,28.2258065 L20.483871,31.1290323 L50.483871,31.1290323 L50.483871,28.2258065 Z M50.483871,21.4516129 L20.483871,21.4516129 L20.483871,24.3548387 L50.483871,24.3548387 L50.483871,21.4516129 Z M28.2258065,14.6774194 L20.483871,14.6774194 L20.483871,17.5806452 L28.2258065,17.5806452 L28.2258065,14.6774194 Z" id="形状"></path>
            </g>
        </g>
    </g>
</svg>