<?xml version="1.0" encoding="UTF-8"?>
<svg width="80px" height="12px" viewBox="0 0 80 12" version="1.1" xmlns="http://www.w3.org/2000/svg" xmlns:xlink="http://www.w3.org/1999/xlink">
    <title>收起按钮-横</title>
    <defs>
        <path d="M0,0 L9.11107923,10.6295924 C10.9752941,12.8045097 12,15.5745537 12,18.4390889 L12,61.5609111 C12,64.4254463 10.9752941,67.1954903 9.11107923,69.3704076 L0,80 L0,80 L0,0 Z" id="path-1"></path>
        <filter x="-4.2%" y="-0.6%" width="108.3%" height="101.2%" filterUnits="objectBoundingBox" id="filter-2">
            <feOffset dx="0" dy="-1" in="SourceAlpha" result="shadowOffsetInner1"></feOffset>
            <feComposite in="shadowOffsetInner1" in2="SourceAlpha" operator="arithmetic" k2="-1" k3="1" result="shadowInnerInner1"></feComposite>
            <feColorMatrix values="0 0 0 0 0.901960784   0 0 0 0 0.921568627   0 0 0 0 0.960784314  0 0 0 1 0" type="matrix" in="shadowInnerInner1"></feColorMatrix>
        </filter>
        <path d="M8.47504233,0 L0.524684975,0 C0.0592856604,0 -0.175985264,0.561871317 0.154422537,0.890423189 L4.12960121,4.84733052 C4.33401693,5.05088983 4.66571037,5.05088983 4.87012609,4.84733052 L8.84530477,0.890423189 C9.17571257,0.561871317 8.94172728,0 8.47504233,0" id="path-3"></path>
    </defs>
    <g id="Profiling分析模块" stroke="none" stroke-width="1" fill="none" fill-rule="evenodd">
        <g id="12.9″-iPad-Pro" transform="translate(-1085.000000, -200.000000)">
            <g id="收起按钮-横" transform="translate(1125.000000, 206.000000) rotate(-270.000000) translate(-1125.000000, -206.000000) translate(1119.000000, 166.000000)">
                <g id="矩形">
                    <use fill="#FFFFFF" fill-rule="evenodd" xlink:href="#path-1"></use>
                    <use fill="black" fill-opacity="1" filter="url(#filter-2)" xlink:href="#path-1"></use>
                    <path stroke="#E6EBF5" stroke-width="1" d="M0.5,1.3516287 L0.5,78.6483713 L8.73145093,69.0450119 C10.5179901,66.9607161 11.5,64.3060907 11.5,61.5609111 L11.5,18.4390889 C11.5,15.6939093 10.5179901,13.0392839 8.73145093,10.9549881 L0.5,1.3516287 Z" stroke-linejoin="square"></path>
                </g>
                <g id="icon-下展" transform="translate(6.000000, 40.000000) scale(-1, 1) rotate(90.000000) translate(-6.000000, -40.000000) translate(1.500000, 37.500000)">
                    <mask id="mask-4" fill="white">
                        <use xlink:href="#path-3"></use>
                    </mask>
                    <use id="Mask" fill="#979797" transform="translate(4.500000, 2.500000) scale(1, -1) translate(-4.500000, -2.500000) " xlink:href="#path-3"></use>
                </g>
            </g>
        </g>
    </g>
</svg>