<?xml version="1.0" encoding="UTF-8"?>
<svg width="60px" height="60px" viewBox="0 0 60 60" version="1.1" xmlns="http://www.w3.org/2000/svg" xmlns:xlink="http://www.w3.org/1999/xlink">
    <title>编组 3备份</title>
    <g id="页面-1" stroke="none" stroke-width="1" fill="none" fill-rule="evenodd">
        <g id="8-1登陆成功后页面" transform="translate(-420.000000, -770.000000)">
            <g id="编组-3备份" transform="translate(420.000000, 770.000000)">
                <g id="icon-default-性能全景分析备份">
                    <rect id="BOX" x="0" y="0" width="60" height="60"></rect>
                </g>
                <g id="编组" transform="translate(4.000000, 4.000000)" fill="#80858F" fill-rule="nonzero">
                    <path d="M50.1090909,36 C51.1534112,36 52,36.8954305 52,38 L52,50 C52,51.1045695 51.1534112,52 50.1090909,52 L1.89090909,52 C0.846588837,52 0,51.1045695 0,50 L0,38 C0,36.8954305 0.846588837,36 1.89090909,36 L50.1090909,36 Z M48,40 L4,40 L4,48 L48,48 L48,40 Z M50.1090909,18 C51.1534112,18 52,18.8954305 52,20 L52,32 C52,33.1045695 51.1534112,34 50.1090909,34 L1.89090909,34 C0.846588837,34 0,33.1045695 0,32 L0,20 C0,18.8954305 0.846588837,18 1.89090909,18 L50.1090909,18 Z M48,22 L4,22 L4,30 L48,30 L48,22 Z M50.1090909,0 C51.1534112,0 52,0.8954305 52,2 L52,14 C52,15.1045695 51.1534112,16 50.1090909,16 L1.89090909,16 C0.846588837,16 0,15.1045695 0,14 L0,2 C0,0.8954305 0.846588837,0 1.89090909,0 L50.1090909,0 Z M48,4 L4,4 L4,12 L48,12 L48,4 Z" id="形状结合"></path>
                    <circle id="椭圆形" cx="8.5" cy="7.5" r="1.5"></circle>
                    <circle id="椭圆形备份" cx="8.5" cy="25.5" r="1.5"></circle>
                    <circle id="椭圆形备份-2" cx="8.5" cy="43.5" r="1.5"></circle>
                </g>
            </g>
        </g>
    </g>
</svg>