<?xml version="1.0" encoding="UTF-8"?>
<svg width="15px" height="13px" viewBox="0 0 15 13" version="1.1" xmlns="http://www.w3.org/2000/svg" xmlns:xlink="http://www.w3.org/1999/xlink">
    <title>箭头</title>
    <g id="页面-1" stroke="none" stroke-width="1" fill="none" fill-rule="evenodd">
        <g id="8-1登陆成功后页面" transform="translate(-556.000000, -569.000000)" fill="#5B5B5B" fill-rule="nonzero">
            <g id="编组" transform="translate(564.000000, 575.500000) rotate(-90.000000) translate(-564.000000, -575.500000) translate(558.000000, 568.000000)">
                <path d="M3.817875,0.005203125 L7.76653125,0.005203125 C8.1149375,0.005203125 8.46335937,0.1408125 8.46335937,0.547640625 L8.46335937,5.9719375 C8.46335937,6.37876562 8.5795,6.514375 8.92790625,6.514375 L11.2506562,6.514375 C11.808125,6.514375 11.8545781,7.35515625 11.4596875,7.81620312 L6.27995312,13.8642812 C6.04767187,14.1355 5.6528125,14.1355 5.3973125,13.8642812 L0.21759375,7.8161875 C-0.177265625,7.35510937 -0.0146875,6.51435937 0.54278125,6.51435937 L2.67970312,6.59575 C3.02810937,6.59575 3.3300625,6.37878125 3.3300625,5.97195312 L3.3300625,0.54765625 C3.35328125,0.167953125 3.46942187,0.005203125 3.81784375,0.005203125 L3.81784375,0.005203125 L3.817875,0.005203125 Z" id="箭头"></path>
            </g>
        </g>
    </g>
</svg>