<?xml version="1.0" encoding="UTF-8"?>
<svg width="60px" height="60px" viewBox="0 0 60 60" version="1.1" xmlns="http://www.w3.org/2000/svg" xmlns:xlink="http://www.w3.org/1999/xlink">
    <title>编组 2备份</title>
    <g id="页面-1" stroke="none" stroke-width="1" fill="none" fill-rule="evenodd">
        <g id="8-1登陆成功后页面" transform="translate(-420.000000, -534.000000)">
            <g id="编组-2备份" transform="translate(420.000000, 534.000000)">
                <g id="icon-default-性能全景分析备份">
                    <rect id="BOX" x="0" y="0" width="60" height="60"></rect>
                </g>
                <g id="编组" transform="translate(2.500000, 8.000000)" fill="#80858F" fill-rule="nonzero">
                    <path d="M17.2638983,0 C18.3093694,0 19.3056627,0.428204745 20.0241479,1.17887033 L20.1737736,1.34462433 L24.845,6.833 L51.1785714,6.83333333 C53.2233235,6.83333333 54.8926896,8.43950047 54.9950281,10.4588817 L55,10.6555556 L55,28.4222222 L51,28.4222222 L51,10.833 L23.9210526,10.8333333 C23.3933873,10.8333333 22.8896389,10.6249543 22.517149,10.2577942 L22.3979944,10.1295947 L17.181,4 L4,4 L4,41 L34,41 L34,45 L3.82142857,45 C1.77667651,45 0.107310418,43.3938329 0.00497186546,41.3744517 L0,41.1777778 L0,3.82222222 C0,1.77742342 1.60546759,0.107356325 3.6247612,0.00497400526 L3.82142857,0 L17.2638983,0 Z" id="路径"></path>
                    <polygon id="路径-10备份" points="48 34 48 45 44 45 44 34"></polygon>
                    <polygon id="路径-10" points="40.5 37 40.5 45 36.5 45 36.5 37"></polygon>
                    <polygon id="路径-10备份-2" points="55 31 55 45 51 45 51 31"></polygon>
                    <path d="M41.7266667,18 C42.1537669,18 42.5,18.4477153 42.5,19 C42.5,19.5128358 42.2014623,19.9355072 41.8168537,19.9932723 L41.7266667,20 L14.2733333,20 C13.8462331,20 13.5,19.5522847 13.5,19 C13.5,18.4871642 13.7985377,18.0644928 14.1831463,18.0067277 L14.2733333,18 L41.7266667,18 Z" id="路径-12"></path>
                </g>
            </g>
        </g>
    </g>
</svg>