<?xml version="1.0" encoding="UTF-8"?>
<svg width="60px" height="60px" viewBox="0 0 60 60" version="1.1" xmlns="http://www.w3.org/2000/svg" xmlns:xlink="http://www.w3.org/1999/xlink">
    <title>编组 3备份</title>
    <g id="页面-1" stroke="none" stroke-width="1" fill="none" fill-rule="evenodd">
        <g id="8-1登陆成功后页面" transform="translate(-648.000000, -534.000000)">
            <g id="编组-3备份" transform="translate(648.000000, 534.000000)">
                <g id="icon-default-性能全景分析备份">
                    <rect id="BOX" x="0" y="0" width="60" height="60"></rect>
                </g>
                <g id="编组" transform="translate(6.000000, 3.000000)" fill="#80858F" fill-rule="nonzero">
                    <polygon id="路径-10" transform="translate(24.000000, 27.000000) rotate(-90.000000) translate(-24.000000, -27.000000) " points="26 19 26 35 22 35 22 19"></polygon>
                    <polygon id="路径-10备份-2" points="26 19 26 35 22 35 22 19"></polygon>
                    <path d="M32,39 C32.5522847,39 33,39.4477153 33,40 C33,40.5128358 32.6139598,40.9355072 32.1166211,40.9932723 L32,41 L16,41 C15.4477153,41 15,40.5522847 15,40 C15,39.4871642 15.3860402,39.0644928 15.8833789,39.0067277 L16,39 L32,39 Z" id="路径-15"></path>
                    <path d="M29,3 L33,3 L33,12 L48,12 L48,16 L33,16 C30.8578046,16 29.1089211,14.3160315 29.0048953,12.1996403 L29,12 L29,3 Z" id="路径-18"></path>
                    <path d="M33,0 L48,12 L48,52 C48,53.0543618 47.1841222,53.9181651 46.1492623,53.9945143 L46,54 L2,54 C0.945638205,54 0.0818348781,53.1841222 0.00548573643,52.1492623 L0,52 L0,2 C0,0.945638205 0.815877791,0.0818348781 1.85073766,0.00548573643 L2,0 L33,0 Z M31.597,4 L4,4 L4,50 L44,50 L44,13.922 L31.597,4 Z" id="路径-20"></path>
                </g>
            </g>
        </g>
    </g>
</svg>