<?xml version="1.0" encoding="UTF-8"?>
<svg width="60px" height="60px" viewBox="0 0 60 60" version="1.1" xmlns="http://www.w3.org/2000/svg" xmlns:xlink="http://www.w3.org/1999/xlink">
    <title>编组 3备份</title>
    <g id="页面-1" stroke="none" stroke-width="1" fill="none" fill-rule="evenodd">
        <g id="8-1登陆成功后页面" transform="translate(-876.000000, -534.000000)">
            <g id="编组-3备份" transform="translate(876.000000, 534.000000)">
                <g id="icon-default-性能全景分析备份">
                    <rect id="BOX" x="0" y="0" width="60" height="60"></rect>
                </g>
                <g id="编组" transform="translate(6.000000, 3.000000)">
                    <path d="M46,4 C47.1045695,4 48,4.8954305 48,6 L48,52 C48,53.1045695 47.1045695,54 46,54 L2,54 C0.8954305,54 0,53.1045695 0,52 L0,6 C0,4.8954305 0.8954305,4 2,4 L46,4 Z M44,8 L4,8 L4,50 L44,50 L44,8 Z" id="矩形" fill="#80858F" fill-rule="nonzero"></path>
                    <rect id="矩形" fill="#1E1E1E" x="12" y="2" width="25" height="9"></rect>
                    <polygon id="路径-10备份" fill="#80858F" fill-rule="nonzero" points="35 24 35 36 31 36 31 24"></polygon>
                    <polygon id="路径-10" fill="#80858F" fill-rule="nonzero" points="17 27 17 36 13 36 13 27"></polygon>
                    <polygon id="路径-10备份-2" fill="#80858F" fill-rule="nonzero" points="26 21 26 36 22 36 22 21"></polygon>
                    <path d="M35.5862069,0 L12.4137931,0 C11.080692,0 10,1.03318904 10,2.30769231 L10,9.69230769 C10,10.966811 11.080692,12 12.4137931,12 L35.5862069,12 C36.919308,12 38,10.966811 38,9.69230769 L38,2.30769231 C38,1.03318904 36.919308,0 35.5862069,0 Z M34,4 L34,9 L14,9 L14,4 L34,4 Z" id="矩形" fill="#80858F" fill-rule="nonzero"></path>
                    <path d="M35,39 C35.5522847,39 36,39.4477153 36,40 C36,40.5128358 35.6139598,40.9355072 35.1166211,40.9932723 L35,41 L13,41 C12.4477153,41 12,40.5522847 12,40 C12,39.4871642 12.3860402,39.0644928 12.8833789,39.0067277 L13,39 L35,39 Z" id="路径-15" fill="#80858F" fill-rule="nonzero"></path>
                </g>
            </g>
        </g>
    </g>
</svg>