<?xml version="1.0" encoding="UTF-8"?>
<svg width="20px" height="20px" viewBox="0 0 20 20" version="1.1" xmlns="http://www.w3.org/2000/svg" xmlns:xlink="http://www.w3.org/1999/xlink">
    <title>4.组件/2.通用/icon/20/三角警示</title>
    <defs>
        <path d="M10.4357878,2.25495806 L18.580864,16.7350936 C18.7162459,16.9757726 18.6308858,17.2806301 18.3902069,17.416012 C18.3153661,17.45811 18.2309447,17.4802242 18.1450763,17.4802242 L1.85492374,17.4802242 C1.57878137,17.4802242 1.35492374,17.2563666 1.35492374,16.9802242 C1.35492374,16.8943558 1.37703801,16.8099344 1.41913597,16.7350936 L9.56421223,2.25495806 C9.69959413,2.01427912 10.0044517,1.928919 10.2451306,2.06430091 C10.3249429,2.1091953 10.3908934,2.17514581 10.4357878,2.25495806 Z" id="path-1"></path>
    </defs>
    <g id="4.组件/2.通用/icon/20/三角警示" stroke="none" stroke-width="1" fill="none" fill-rule="evenodd">
        <mask id="mask-2" fill="white">
            <use xlink:href="#path-1"></use>
        </mask>
        <use id="蒙版" fill="#D8D8D8" xlink:href="#path-1"></use>
        <g id="3.颜色/4.重要告警色" mask="url(#mask-2)" fill="#FF9B00">
            <rect id="矩形备份" x="0" y="0" width="20" height="20"></rect>
        </g>
        <path d="M10.681875,14.8239742 L10.681875,16.3005367 L9.3146875,16.3005367 L9.3146875,14.8239742 L10.681875,14.8239742 Z M10.7365625,5.19897425 L10.463125,13.2927242 L9.47875,13.2927242 L9.26,5.19897425 L10.7365625,5.19897425 Z" id="形状结合" fill="#FFFFFF"></path>
    </g>
</svg>