<?xml version="1.0" encoding="UTF-8"?>
<svg width="400px" height="121px" viewBox="0 0 400 121" version="1.1" xmlns="http://www.w3.org/2000/svg" xmlns:xlink="http://www.w3.org/1999/xlink">
    <title>编组 22备份</title>
    <defs>
        <rect id="path-1" x="0" y="0" width="400" height="119.008264"></rect>
        <linearGradient x1="50%" y1="2.13887675%" x2="50%" y2="98.6205201%" id="linearGradient-3">
            <stop stop-color="#FFFFFF" stop-opacity="0.0620902535" offset="0%"></stop>
            <stop stop-color="#FFFFFF" stop-opacity="0" offset="100%"></stop>
        </linearGradient>
        <linearGradient x1="50%" y1="2.13887675%" x2="50%" y2="98.6205201%" id="linearGradient-4">
            <stop stop-color="#FFFFFF" stop-opacity="0.0620902535" offset="0%"></stop>
            <stop stop-color="#FFFFFF" stop-opacity="0" offset="100%"></stop>
        </linearGradient>
        <linearGradient x1="50%" y1="2.13887675%" x2="50%" y2="98.6205201%" id="linearGradient-5">
            <stop stop-color="#FFFFFF" stop-opacity="0.0620902535" offset="0%"></stop>
            <stop stop-color="#FFFFFF" stop-opacity="0" offset="100%"></stop>
        </linearGradient>
        <linearGradient x1="50%" y1="0%" x2="50%" y2="100%" id="linearGradient-6">
            <stop stop-color="#FFFFFF" stop-opacity="0.2" offset="0%"></stop>
            <stop stop-color="#FFFFFF" stop-opacity="0" offset="100%"></stop>
        </linearGradient>
    </defs>
    <g id="sys-perf-ALL" stroke="none" stroke-width="1" fill="none" fill-rule="evenodd">
        <g id="下载-1" transform="translate(-1305.000000, -223.000000)">
            <g id="编组-23备份" transform="translate(1175.000000, 133.000000)">
                <g id="编组-22备份" transform="translate(130.000000, 90.000000)">
                    <g id="编组-20" transform="translate(0.000000, 0.991736)">
                        <mask id="mask-2" fill="white">
                            <use xlink:href="#path-1"></use>
                        </mask>
                        <use id="蒙版" fill="#D8D8D8" opacity="0" xlink:href="#path-1"></use>
                        <g mask="url(#mask-2)" opacity="0.3">
                            <g transform="translate(-23.500000, 43.636364)">
                                <ellipse id="椭圆形备份-5" fill="url(#linearGradient-3)" cx="223.5" cy="74.8760331" rx="223" ry="74.8760331"></ellipse>
                                <ellipse id="椭圆形备份-4" fill="url(#linearGradient-4)" cx="223.5" cy="78.8429752" rx="198" ry="45.1239669"></ellipse>
                                <ellipse id="椭圆形" fill="url(#linearGradient-5)" cx="223.5" cy="79.338843" rx="140" ry="25.785124"></ellipse>
                            </g>
                        </g>
                    </g>
                    <g id="编组-21" transform="translate(105.000000, 0.000000)">
                        <rect id="矩形" stroke="#595959" stroke-width="2" x="1" y="1" width="188" height="106.099174" rx="3"></rect>
                        <rect id="矩形备份-3" fill="#2E2E2E" x="7" y="6.94214876" width="176" height="94.214876" rx="3"></rect>
                        <path d="M70,107.107438 L63.8953619,116.945491 C63.3129727,117.884052 63.6017071,119.117026 64.540268,119.699415 C64.8569044,119.895892 65.2221352,120 65.5947768,120 L125.405223,120 C126.509793,120 127.405223,119.104569 127.405223,118 C127.405223,117.627358 127.301115,117.262128 127.104638,116.945491 L121,107.107438 L121,107.107438 L70,107.107438 Z" id="路径-7" stroke="#595959" stroke-width="2" stroke-linejoin="round"></path>
                        <path d="M7,68.4297521 C9.6993865,71.0743802 12.1288344,72.3966942 14.2883436,72.3966942 C20.7668712,72.3966942 29.8187886,57.5206612 38.5828221,57.5206612 C47.4907975,57.5206612 45.8711656,68.4297521 50.7300613,68.4297521 C54.02834,68.4297521 56.398773,46.6115702 61.2576687,46.6115702 C64.4969325,46.6115702 65.7074542,59.9106065 68.5460123,59.5041322 C72.0519766,59.002087 73.404908,51.5702479 79.0736196,51.5702479 C84.7423313,51.5702479 92.8404908,62.4793388 97.6993865,62.4793388 C102.558282,62.4793388 107.417178,46.6115702 111.466258,46.6115702 C115.515337,46.6115702 117.134969,62.4793388 121.993865,62.4793388 C126.852761,62.4793388 129.282209,57.5206612 133.331288,57.5206612 C136.030675,57.5206612 137.920245,59.1735537 139,62.4793388 L139,95.2066116 L7,95.2066116 L7,68.4297521 Z" id="路径-8备份" fill="url(#linearGradient-6)"></path>
                        <path d="M7,68.4297521 C9.6993865,71.0743802 12.1288344,72.3966942 14.2883436,72.3966942 C20.7668712,72.3966942 29.8187886,57.5206612 38.5828221,57.5206612 C47.4907975,57.5206612 45.8711656,68.4297521 50.7300613,68.4297521 C54.02834,68.4297521 56.398773,46.6115702 61.2576687,46.6115702 C64.4969325,46.6115702 65.7074542,59.9106065 68.5460123,59.5041322 C72.0519766,59.002087 73.404908,51.5702479 79.0736196,51.5702479 C84.7423313,51.5702479 92.8404908,62.4793388 97.6993865,62.4793388 C102.558282,62.4793388 107.417178,46.6115702 111.466258,46.6115702 C115.515337,46.6115702 117.134969,62.4793388 121.993865,62.4793388 C126.852761,62.4793388 129.282209,57.5206612 133.331288,57.5206612 C137.380368,57.5206612 137.380368,62.4793388 139,62.4793388 C140.619632,62.4793388 141,64.4628099 148,60.4958678 C155,56.5289256 159,46.6115702 164,46.6115702 C169,46.6115702 168.197734,53.1006752 172,52.5619835 C175.802266,52.0232917 181,36.6942149 183,36.6942149" id="路径-8" stroke="#979797" stroke-linecap="round" stroke-linejoin="round"></path>
                        <rect id="矩形" fill="#4B4B4B" x="172" y="10.9090909" width="6" height="3.96694215" rx="1.98347107"></rect>
                        <rect id="矩形备份-4" fill="#4B4B4B" x="162" y="10.9090909" width="6" height="3.96694215" rx="1.98347107"></rect>
                        <rect id="矩形备份-5" fill="#4B4B4B" x="152" y="10.9090909" width="6" height="3.96694215" rx="1.98347107"></rect>
                    </g>
                </g>
            </g>
        </g>
    </g>
</svg>