<?xml version="1.0" encoding="UTF-8"?>
<svg width="28px" height="28px" viewBox="0 0 28 28" version="1.1" xmlns="http://www.w3.org/2000/svg" xmlns:xlink="http://www.w3.org/1999/xlink">
    <title>icon/28/导出normal</title>
    <g id="icon/28/导出normal" stroke="none" stroke-width="1" fill="none" fill-rule="evenodd">
        <rect id="bgc备份" fill="#313131" x="0" y="0" width="28" height="28" rx="1"></rect>
        <g id="形状结合" transform="translate(6.000000, 6.000000)" fill="#BBBBBB">
            <path d="M6,1 C6.27614237,1 6.5,1.22385763 6.5,1.5 C6.5,1.74545989 6.32312484,1.94960837 6.08987563,1.99194433 L6,2 L2.5,2 C2.25454011,2 2.05039163,2.17687516 2.00805567,2.41012437 L2,2.5 L2,14.5 C2,14.7454599 2.17687516,14.9496084 2.41012437,14.9919443 L2.5,15 L14.5,15 C14.7454599,15 14.9496084,14.8231248 14.9919443,14.5898756 L15,14.5 L15,12 C15,11.7238576 15.2238576,11.5 15.5,11.5 C15.7454599,11.5 15.9496084,11.6768752 15.9919443,11.9101244 L16,12 L16,14.5 C16,15.2796961 15.4051119,15.9204487 14.64446,15.9931334 L14.5,16 L2.5,16 C1.72030388,16 1.07955132,15.4051119 1.00686658,14.64446 L1,14.5 L1,2.5 C1,1.72030388 1.59488808,1.07955132 2.35553999,1.00686658 L2.5,1 L6,1 Z M15.5,1 L15.5115408,1.00013238 C15.5324012,1.000611 15.5532373,1.0023875 15.5739178,1.00546187 L15.5,1 C15.536097,1 15.5713007,1.00382515 15.6052277,1.01109223 C15.6204743,1.01439613 15.6358347,1.01844802 15.6510116,1.02324135 C15.6647369,1.0275581 15.6780251,1.03240845 15.6910366,1.03779224 C15.7045389,1.04335147 15.7182757,1.04974961 15.7317582,1.05680497 C15.7440467,1.06329334 15.7556825,1.07001934 15.7670103,1.07718801 C15.7788346,1.08460935 15.7906092,1.09277454 15.8020925,1.10150261 C15.8157542,1.11192025 15.8288187,1.1229392 15.8412864,1.13458875 C15.845325,1.13835695 15.8494658,1.142359 15.8535534,1.14644661 L15.8654113,1.15871357 C15.8770608,1.17118132 15.8880797,1.18424576 15.8984173,1.19785608 L15.8535534,1.14644661 C15.8789603,1.17185353 15.9010614,1.19931445 15.9198565,1.22829485 C15.9279221,1.24078159 15.9357539,1.2541389 15.9429657,1.26787276 C15.9495913,1.28046473 15.9554473,1.29289667 15.9607632,1.30550233 C15.9665648,1.3191819 15.9719906,1.33383901 15.9767316,1.34880083 C15.9812433,1.36318793 15.9850789,1.37754815 15.9882655,1.39202251 C15.9895896,1.39781538 15.9908237,1.40395012 15.9919443,1.41012437 L15.9948333,1.42809589 C15.9973429,1.44546098 15.9989382,1.46293275 15.9996194,1.48043349 L16,1.5 L16,6.5 C16,6.77614237 15.7761424,7 15.5,7 C15.2545401,7 15.0503916,6.82312484 15.0080557,6.58987563 L15,6.5 L15,2.706 L7.85355339,9.85355339 C7.65829124,10.0488155 7.34170876,10.0488155 7.14644661,9.85355339 C6.95118446,9.65829124 6.95118446,9.34170876 7.14644661,9.14644661 L14.292,2 L10.5,2 C10.2545401,2 10.0503916,1.82312484 10.0080557,1.58987563 L10,1.5 C10,1.25454011 10.1768752,1.05039163 10.4101244,1.00805567 L10.5,1 L15.5,1 Z"></path>
        </g>
    </g>
</svg>