<?xml version="1.0" encoding="UTF-8"?>
<svg width="16px" height="16px" viewBox="0 0 16 16" version="1.1" xmlns="http://www.w3.org/2000/svg" xmlns:xlink="http://www.w3.org/1999/xlink">
    <title>icon-download</title>
    <defs>
        <path d="M15.25,12 C15.6642136,12 16,12.3357864 16,12.75 L16,15 C16,15.5522847 15.5522847,16 15,16 L1,16 C0.44771525,16 6.76353751e-17,15.5522847 0,15 L0,12.75 C-5.07265313e-17,12.3357864 0.335786438,12 0.75,12 C1.16421356,12 1.5,12.3357864 1.5,12.75 L1.5,14.5 L14.5,14.5 L14.5,12.75 C14.5,12.3357864 14.8357864,12 15.25,12 Z M8,0.287304967 C8.37969577,0.287304967 8.69349096,0.569458849 8.74315338,0.93553441 L8.75,1.03730497 L8.74940157,9.22030497 L11.4482024,6.50992407 C11.7138501,6.24304008 12.1304565,6.21786681 12.4245729,6.43503906 L12.5088597,6.50746173 C12.7757437,6.77310944 12.800917,7.1897158 12.5837447,7.48383226 L12.511322,7.56811905 L8.53155982,11.5664025 C8.51827476,11.5797493 8.50461218,11.5924917 8.49060628,11.6046294 L8.47350689,11.6189717 L8.47350689,11.6189717 L8.45540932,11.6332585 C8.44361119,11.6423439 8.43213704,11.6506102 8.42048956,11.6585129 C8.403097,11.6702453 8.38480395,11.6815582 8.36601136,11.6920855 C8.35465635,11.6985169 8.3427223,11.7047833 8.330662,11.7107063 C8.31225679,11.7197172 8.29354795,11.7279882 8.27445665,11.7354989 C8.25982529,11.7412275 8.24512696,11.7464664 8.23030945,11.751233 C8.21338003,11.7567513 8.19564326,11.7617699 8.17765274,11.7661398 C8.1624267,11.7697545 8.14772595,11.7728451 8.13296096,11.7754912 L8.073,11.783305 L8,11.787305 C7.99018612,11.787305 7.98041626,11.7871165 7.97069385,11.7867429 C7.95747855,11.7862322 7.94374594,11.785332 7.93004157,11.7840559 L7.89334644,11.7797741 L7.89334644,11.7797741 L7.85742308,11.7737699 C7.84974112,11.7722266 7.84204336,11.7706184 7.83436748,11.7688882 C7.8111626,11.7637213 7.78842627,11.7574328 7.76614991,11.7501293 C7.75386039,11.7460746 7.74121024,11.741565 7.72866428,11.7367054 C7.7075081,11.7284988 7.68699601,11.7194357 7.66699027,11.7095057 L7.63640646,11.6934978 L7.63640646,11.6934978 C7.61709973,11.6827005 7.59860752,11.6713365 7.58066787,11.6592167 L7.527,11.618305 L7.54742237,11.6354151 C7.51961143,11.6143383 7.49331596,11.5913664 7.46872822,11.5666917 L3.4561524,7.57043035 C3.16266343,7.27813409 3.16169654,6.80326134 3.45399279,6.50977237 C3.71971666,6.24296422 4.13633019,6.21790985 4.43038465,6.43516604 L4.51465077,6.50761277 L7.24940157,9.23130497 L7.25,1.03730497 C7.25,0.657609202 7.53215388,0.343814007 7.89822944,0.294151583 L8,0.287304967 Z" id="path-1"></path>
    </defs>
    <g id="页面-1" stroke="none" stroke-width="1" fill="none" fill-rule="evenodd">
        <g id="采集日志备份-5" transform="translate(-1761.000000, -258.000000)">
            <g id="编组-10" transform="translate(1753.000000, 250.000000)">
                <g id="icon-download" transform="translate(8.000000, 8.000000)">
                    <g>
                        <mask id="mask-2" fill="white">
                            <use xlink:href="#path-1"></use>
                        </mask>
                        <use fill="#6C7280" xlink:href="#path-1"></use>
                        <rect id="换色" fill="#6C7280" mask="url(#mask-2)" x="0" y="8" width="16" height="16"></rect>
                    </g>
                </g>
            </g>
        </g>
    </g>
</svg>