<?xml version="1.0" encoding="UTF-8"?>
<svg width="12px" height="12px" viewBox="0 0 12 12" version="1.1" xmlns="http://www.w3.org/2000/svg" xmlns:xlink="http://www.w3.org/1999/xlink">
    <g id="icon/12/筛选/hover" stroke="none" stroke-width="1" fill="none" fill-rule="evenodd">
        <path d="M11.1542772,0 L0.845691697,0 C0.37862907,0 0,0.363793113 0,0.81255466 L0.0077566857,0.922364667 C0.028326518,1.06727088 0.089348038,1.2048923 0.185317428,1.32015353 L3.88575519,5.76507531 L3.88575519,11.1874453 C3.88575519,11.6362069 4.26438426,12 4.73144688,12 C4.86273637,12 4.99222282,11.9706301 5.10965171,11.9142163 L7.6467268,10.6953843 L7.74907293,10.6372616 C7.97565083,10.4869919 8.11421367,10.2379147 8.11421367,9.96861335 L8.11421367,5.76405962 L11.8146514,1.32015353 C12.1064231,0.969729637 12.0472912,0.458395186 11.6825766,0.17805607 C11.5326244,0.0627948352 11.3463096,0 11.1542772,0 Z M10.7136585,1.01569332 L7.24241648,5.18560021 L7.17707816,5.27600312 C7.09892669,5.40150223 7.05709905,5.54559268 7.05709905,5.69319908 L7.05709905,9.84206832 L4.94286981,10.8577616 L4.94286981,5.69319908 L4.93511312,5.58338907 C4.91454329,5.43848286 4.85352177,5.30086144 4.75755238,5.18560021 L1.28525322,1.01569332 L10.7136585,1.01569332 Z" id="形状结合" fill="#267DFF" fill-rule="nonzero"></path>
    </g>
</svg>