<?xml version="1.0" encoding="UTF-8"?>
<svg width="12px" height="12px" viewBox="0 0 12 12" version="1.1" xmlns="http://www.w3.org/2000/svg" xmlns:xlink="http://www.w3.org/1999/xlink">
    <title>IntelliJ_SFW/icon/12/筛选/normal</title>
    <g id="IntelliJ_SFW/icon/12/筛选/normal" stroke="none" stroke-width="1" fill="none" fill-rule="evenodd">
        <path d="M0.361082189,1.82710321 C0.282491737,1.73624623 0.239240209,1.62013097 0.239240209,1.5 C0.239240209,1.22385763 0.463097834,1 0.739240209,1 L0.739240209,1 L11.25589,1 C11.3765981,1 11.4932314,1.04366729 11.5842595,1.122941 C11.7925035,1.30429446 11.8143025,1.62012554 11.632949,1.82836947 L11.632949,1.82836947 L8,6 L8,10.690983 C8,10.9671254 7.77614237,11.190983 7.5,11.190983 C7.42237745,11.190983 7.34582092,11.1729105 7.2763932,11.1381966 L4.2763932,9.6381966 C4.10700119,9.55350059 4,9.38036903 4,9.19098301 L4,6.0339893 Z" id="形状结合" fill="#AAAAAA"></path>
    </g>
</svg>