<?xml version="1.0" encoding="UTF-8"?>
<svg width="28px" height="28px" viewBox="0 0 28 28" version="1.1" xmlns="http://www.w3.org/2000/svg" xmlns:xlink="http://www.w3.org/1999/xlink">
    <defs>
        <path d="M20.2172338,11.1285149 C20.5609181,10.7313525 21.1322454,10.6552862 21.5544902,10.9509452 L21.5544902,10.9509452 L23.4935855,12.1556054 L23.5656595,12.2098995 C23.7413949,12.3690052 23.78382,12.6357664 23.6542213,12.8442244 C23.5084227,13.0787397 23.2001175,13.1506588 22.9656023,13.0048602 L22.9656023,13.0048602 L21.7532767,12.249414 C22.1566215,14.6218949 21.4063641,17.0693326 19.6625912,18.8131055 C16.7336591,21.7420377 11.9849217,21.7420377 9.05598953,18.8131055 C8.86072738,18.6178434 8.86072738,18.3012609 9.05598953,18.1059988 C9.25125167,17.9107366 9.56783416,17.9107366 9.76309631,18.1059988 C12.3015042,20.6444067 16.4170766,20.6444067 18.9554845,18.1059988 C20.5238339,16.5376493 21.1647478,14.3139238 20.7237808,12.1855509 L19.7737228,13.7050244 L19.7192929,13.776996 C19.5598562,13.9524311 19.2930156,13.9943532 19.0848022,13.8643618 C18.8505623,13.7181214 18.7792245,13.4096812 18.9254649,13.1754412 L18.9254649,13.1754412 L20.1472088,11.2185174 Z M19.6718909,8.19669914 C19.867153,8.39196129 19.867153,8.70854378 19.6718909,8.90380592 C19.4766287,9.09906807 19.1600462,9.09906807 18.9647841,8.90380592 C16.4263762,6.36539803 12.3108038,6.36539803 9.77239593,8.90380592 C8.20419787,10.472004 7.5632563,12.6954517 8.00397192,14.8236375 L8.95651797,13.3057297 L9.01110476,13.233877 C9.17092379,13.0587902 9.4378553,13.0174503 9.64578454,13.1478956 C9.87970492,13.2946466 9.95036965,13.6032418 9.80361863,13.8371622 L9.80361863,13.8371622 L8.57822388,15.7904351 L8.50830706,15.8802648 C8.16509325,16.2766755 7.59376593,16.3527417 7.1715211,16.0570827 L7.1715211,16.0570827 L5.23629279,14.8562076 L5.16419112,14.8019502 C4.98837485,14.6429339 4.94581401,14.3761943 5.07530662,14.1676704 C5.22098581,13.933081 5.52925441,13.8610051 5.7638438,14.0066843 L5.7638438,14.0066843 L6.97443393,14.7593916 C6.57146954,12.3872227 7.32176103,9.94022726 9.06528915,8.19669914 C11.9942213,5.26776695 16.7429587,5.26776695 19.6718909,8.19669914 Z" id="path-1"></path>
    </defs>
    <g id="4.组件/2.通用/按钮/4.图标按钮/刷新/hover" stroke="none" stroke-width="1" fill="none" fill-rule="evenodd">
        <g id="图表normal" fill="#464646">
            <rect id="bgc" x="0" y="0" width="28" height="28" rx="1"></rect>
        </g>
        <mask id="mask-2" fill="white">
            <use xlink:href="#path-1"></use>
        </mask>
        <use id="蒙版" fill="#E8E8E8" fill-rule="nonzero" xlink:href="#path-1"></use>
    </g>
</svg>