<?xml version="1.0" encoding="UTF-8"?>
<svg width="14px" height="13px" viewBox="0 0 14 13" version="1.1" xmlns="http://www.w3.org/2000/svg" xmlns:xlink="http://www.w3.org/1999/xlink">
    <title>4.组件/2.通用/icon/tuning/小火箭备份</title>
    <g id="页面-1" stroke="none" stroke-width="1" fill="none" fill-rule="evenodd">
        <g id="无topo总览" transform="translate(-651.000000, -1419.000000)" fill="#E85D54">
            <g id="4.组件/4.数据展示/2.折叠面板/2.实例/展开单层备份" transform="translate(384.000000, 1053.000000)">
                <g id="形状备份" transform="translate(267.000000, 365.000000)">
                    <path d="M6.01780106,3.15280226 C8.05484843,1.48661156 10.630239,0.749270477 13.261087,1.07556893 C13.7096053,1.12729679 14.0354057,1.52113046 13.9969129,1.96504919 C13.8102512,4.59412061 12.5827476,6.96295397 10.5450239,8.62914467 C10.3245466,8.80930947 10.1033931,8.98947426 9.87750538,9.16963905 L9.48118738,11.6232166 C9.45278233,11.8260688 9.34592526,12.0062336 9.1869923,12.1356853 L7.13236083,13.8132197 C6.90617875,14.0023962 6.5923379,14.0522484 6.31740662,13.9426715 C6.03805332,13.8456512 5.83150643,13.6101402 5.77432926,13.3234384 L5.40100584,11.4997704 C4.07678977,11.6232166 3.23884101,10.9819634 2.7579842,10.4020997 L2.63895354,10.2499605 C2.06747113,9.4732501 1.90921446,8.59511356 2.17500449,7.6555875 L0.517367325,6.96829218 C0.24557931,6.85395996 0.0529761017,6.60916623 0.00810549624,6.32103349 C-0.0324731472,6.03410439 0.0811470363,5.74183705 0.307711056,5.55633405 L2.35693205,3.87346144 C2.5145124,3.74400969 2.71875819,3.67594745 2.92232767,3.68195294 L5.27588838,3.76602984 C5.51936018,3.55783941 5.76891878,3.35565449 6.01780106,3.15213498 L6.01780106,3.15280226 Z M8.47486144,4.00023444 C7.64795021,4.0153424 6.98488332,4.69752514 7.00026221,5.52497679 C7.00972613,6.35242842 7.69231239,7.01485461 8.52454708,6.99974662 C9.35204982,6.98521974 10.0151167,6.30245592 9.99973779,5.47500429 C9.98495041,4.64813372 9.30177265,3.98570756 8.47486144,4.00023444 Z M2.79191233,12.393247 C2.88459302,12.3697393 2.95870107,12.3007821 2.98830978,12.2105003 C3.01641942,12.1187658 2.99301597,12.0191153 2.92693557,11.9491724 L1.19372817,10.0845464 C1.12894479,10.0160814 1.03278045,9.98626904 0.940252731,10.0059652 C0.847572035,10.029473 0.773463988,10.0984302 0.743855288,10.188712 L0.0104336079,12.639346 C0.00440675414,12.6651437 0.000912558593,12.6914604 8.8817842e-16,12.7179271 L8.8817842e-16,12.7228004 C0.00490992989,12.8848358 0.119065951,12.9999663 0.268818978,12.9999663 C0.314482987,13.0007452 0.359348098,12.9880224 0.397704789,12.9634169 L2.79191233,12.3938562 L2.79191233,12.393247 Z"></path>
                </g>
            </g>
        </g>
    </g>
</svg>