<?xml version="1.0" encoding="UTF-8"?>
<svg width="16px" height="15px" viewBox="0 0 16 15" version="1.1" xmlns="http://www.w3.org/2000/svg" xmlns:xlink="http://www.w3.org/1999/xlink">
    <title>4.组件/2.通用/icon/问号备份 4</title>
    <g id="IDE-Dark-Components" stroke="none" stroke-width="1" fill="none" fill-rule="evenodd">
        <g id="DataDisplay数据展示" transform="translate(-1122.000000, -5710.000000)" fill="#E85D54">
            <g id="4.组件/4.数据展示/折叠面板/展开单层" transform="translate(261.000000, 5246.000000)">
                <g id="编组-7" transform="translate(576.000000, 126.000000)">
                    <g id="形状" transform="translate(285.000000, 337.000000)">
                        <path d="M6.87749358,3.48400261 C9.20554602,1.56147488 12.1488474,0.710696704 15.1555287,1.08719492 C15.6681206,1.14688091 16.0404636,1.60130437 15.9964719,2.1135183 C15.7831444,5.14706224 14.3802841,7.88033151 12.0514587,9.80285924 C11.7994849,10.0107417 11.5467382,10.2186241 11.288581,10.4265066 L10.8356465,13.2575576 C10.8031836,13.4916178 10.6810613,13.6995003 10.4994238,13.8488677 L8.15127525,15.7844843 C7.89278163,16.0027649 7.53410664,16.0602866 7.21989968,15.9338517 C6.90063901,15.8219052 6.66458559,15.5501618 6.5992403,15.219352 L6.17258528,13.1151196 C4.65919658,13.2575576 3.70154156,12.5176501 3.15199133,11.8485766 L3.01595638,11.6730314 C2.3628341,10.776827 2.18196947,9.76359257 2.48572928,8.67952404 L0.591288191,7.88649098 C0.280673544,7.75456918 0.0605557524,7.47211488 0.00927509785,7.13965403 C-0.0371004608,6.80858199 0.0927510827,6.47135044 0.351681202,6.25730852 L2.69364634,4.31553243 C2.87373804,4.16616503 3.10716163,4.08763167 3.33981229,4.09456108 L6.029594,4.1915729 C6.30784728,3.95135316 6.5930569,3.71806287 6.87749358,3.48323267 L6.87749358,3.48400261 Z M9.96648192,4.00031258 C8.86393361,4.02045653 7.97984443,4.93003352 8.00034961,6.03330239 C8.01296817,7.13657123 8.92308319,8.01980614 10.0327294,7.99966216 C11.1360664,7.98029299 12.0201556,7.06994123 11.9996504,5.96667239 C11.9799339,4.86417829 11.0690302,3.98094341 9.96648192,4.00031258 Z M3.72254978,14.190996 C3.84612403,14.1596523 3.94493476,14.0677095 3.98441304,13.9473337 C4.02189256,13.8250211 3.99068796,13.6921537 3.90258076,13.5988966 L1.59163756,11.1127285 C1.50525972,11.0214419 1.37704061,10.9816921 1.25367031,11.0079536 C1.13009605,11.0392973 1.03128532,11.1312402 0.99180705,11.251616 L0.0139114772,14.519128 C0.00587567219,14.553525 0.00121674479,14.5886139 0,14.6239028 L0,14.6304005 C0.00654657318,14.8464478 0.158754602,14.999955 0.358425304,14.999955 C0.419310649,15.0009937 0.479130797,14.9840299 0.530273053,14.9512226 L3.72254978,14.1918083 L3.72254978,14.190996 Z"></path>
                    </g>
                </g>
            </g>
        </g>
    </g>
</svg>