<?xml version="1.0" encoding="UTF-8"?>
<svg width="14px" height="14px" viewBox="0 0 14 14" version="1.1" xmlns="http://www.w3.org/2000/svg" xmlns:xlink="http://www.w3.org/1999/xlink">
    <title>4.组件/2.通用/icon/清除</title>
    <defs>
        <path d="M8,1 C11.8659932,1 15,4.13400675 15,8 C15,11.8659932 11.8659932,15 8,15 C4.13400675,15 1,11.8659932 1,8 C1,4.13400675 4.13400675,1 8,1 Z" id="path-1"></path>
    </defs>
    <g id="dep" stroke="none" stroke-width="1" fill="none" fill-rule="evenodd">
        <g id="设置状态弹窗" transform="translate(-117.000000, -488.000000)">
            <g id="4.组件/5.反馈/2.Alert告警提示/1默认-正确/单行备份" transform="translate(100.000000, 475.000000)">
                <g id="4.组件/2.通用/icon/告警/失败" transform="translate(16.000000, 12.000000)">
                    <mask id="mask-2" fill="white">
                        <use xlink:href="#path-1"></use>
                    </mask>
                    <use id="蒙版" fill="#3AD53E" fill-rule="nonzero" xlink:href="#path-1"></use>
                    <g id="3.颜色/3.紧急告警色" mask="url(#mask-2)" fill="#ED4B4B" fill-rule="evenodd">
                        <rect id="矩形" x="0" y="0" width="16" height="16"></rect>
                    </g>
                    <g id="编组" stroke-width="1" fill-rule="evenodd" transform="translate(8.080000, 8.080000) rotate(45.000000) translate(-8.080000, -8.080000) translate(3.080000, 3.080000)" fill="#FFFFFF">
                        <g id="编组-2" transform="translate(-0.000000, -0.000000)" fill-rule="nonzero">
                            <path d="M9.32842712,4.42 C9.6045695,4.42 9.82842712,4.64385763 9.82842712,4.92 C9.82842712,5.16545989 9.65155196,5.36960837 9.41830276,5.41194433 L9.32842712,5.42 L0.5,5.42 C0.223857625,5.42 -1.77635684e-15,5.19614237 -1.77635684e-15,4.92 C-1.77635684e-15,4.67454011 0.176875161,4.47039163 0.410124368,4.42805567 L0.5,4.42 L9.32842712,4.42 Z" id="路径"></path>
                            <path d="M4.92,9.76996262e-15 C5.16545989,9.76996262e-15 5.36960837,0.176875161 5.41194433,0.410124368 L5.42,0.5 L5.42,9.32842712 C5.42,9.6045695 5.19614237,9.82842712 4.92,9.82842712 C4.67454011,9.82842712 4.47039163,9.65155196 4.42805567,9.41830276 L4.42,9.32842712 L4.42,0.5 C4.42,0.223857625 4.64385763,9.76996262e-15 4.92,9.76996262e-15 Z" id="路径"></path>
                        </g>
                    </g>
                </g>
            </g>
        </g>
    </g>
</svg>