<?xml version="1.0" encoding="UTF-8"?>
<svg width="60px" height="60px" viewBox="0 0 60 60" version="1.1" xmlns="http://www.w3.org/2000/svg" xmlns:xlink="http://www.w3.org/1999/xlink">
    <title>4.组件/2.通用/Bigicon/资源调度/hover</title>
    <defs>
        <filter x="-7.7%" y="-7.7%" width="115.4%" height="115.4%" filterUnits="objectBoundingBox" id="filter-1">
            <feOffset dx="0" dy="1" in="SourceAlpha" result="shadowOffsetOuter1"></feOffset>
            <feGaussianBlur stdDeviation="0.5" in="shadowOffsetOuter1" result="shadowBlurOuter1"></feGaussianBlur>
            <feColorMatrix values="0 0 0 0 0   0 0 0 0 0   0 0 0 0 0  0 0 0 0.883987107 0" type="matrix" in="shadowBlurOuter1" result="shadowMatrixOuter1"></feColorMatrix>
            <feMerge>
                <feMergeNode in="shadowMatrixOuter1"></feMergeNode>
                <feMergeNode in="SourceGraphic"></feMergeNode>
            </feMerge>
        </filter>
        <linearGradient x1="78.8051781%" y1="22.6153725%" x2="78.8051781%" y2="84.0142462%" id="linearGradient-2">
            <stop stop-color="#B8BDCA" offset="0%"></stop>
            <stop stop-color="#868B98" offset="100%"></stop>
        </linearGradient>
    </defs>
    <g id="4.组件/2.通用/Bigicon/资源调度/hover" stroke="none" stroke-width="1" fill="none" fill-rule="evenodd">
        <rect id="BOX" x="0" y="0" width="60" height="60" rx="2"></rect>
        <g id="调度运行" filter="url(#filter-1)" transform="translate(4.000000, 4.000000)" fill-rule="nonzero">
            <path d="M24.827576,15.1027141 L30.4929903,15.1027141 L30.4929903,27.3212776 C30.4929903,28.2635981 31.2399517,29.027797 32.1621616,29.027797 C33.0843715,29.027797 33.8313329,28.2635981 33.8313329,27.3212776 L33.8313329,15.1027141 L39.4910014,15.1027141 C39.8602021,15.0981129 40.1987784,14.8965011 40.3787362,14.5740953 C40.5631801,14.248394 40.5653555,13.8503012 40.384482,13.5226036 L33.0470235,0.545587017 C32.8713018,0.218332268 32.5307309,0.0133284123 32.1592887,0.0112223757 C31.7868145,0.0122766524 31.4448932,0.217429436 31.2686809,0.545587017 L23.9427141,13.5226036 C23.7574756,13.8483574 23.7563855,14.2473341 23.9398412,14.5740953 C24.1189589,14.8986959 24.4597124,15.1009495 24.8304489,15.1027141 L24.827576,15.1027141 Z" id="路径" fill="#65D9D7"></path>
            <path d="M18.386471,38.2240401 C18.8345065,38.2293421 19.2620817,38.4124247 19.5751188,38.7330049 C19.888156,39.0535851 20.0610078,39.4853976 20.0556423,39.9334323 L20.0556423,39.9334323 L20.0556423,50.0174102 C20.0556423,50.9597307 19.305808,51.7239296 18.3835981,51.7239296 C17.464261,51.7239296 16.7172997,50.9597307 16.7172997,50.0174102 L16.7172997,50.0174102 L16.7172997,39.9305594 C16.7077248,38.9986847 17.4546126,38.2350852 18.386471,38.2240401 Z M5.16812845,15.2118854 C9.15913257,12.9449633 14.1867425,13.7336547 17.2918854,17.1137638 C20.4397415,20.5325983 20.9414323,25.6233541 18.5214986,29.5908909 C18.0216091,30.3579627 17.0132113,30.5791782 16.2490124,30.0907804 C15.4800193,29.5905135 15.2354295,28.5768526 15.6916644,27.7809461 C17.30625,25.1407251 16.9701174,21.7190677 14.8728798,19.4609461 C12.8013479,17.2081853 9.4487917,16.6839761 6.78845994,18.1968577 C4.11216595,19.7456309 2.79632799,22.8883689 3.57078039,25.8819406 C4.33497928,28.8927693 6.9981837,30.9957528 10.0434876,30.9900069 L10.0434876,30.9900069 L43.1108909,30.9900069 L43.1108909,28.8381837 C43.1123921,28.4658904 43.3085555,28.1215146 43.628018,27.9303384 C43.9449031,27.7427102 44.3385979,27.7416105 44.6565262,27.9274655 L44.6565262,27.9274655 L51.1809461,31.7829351 C51.5080565,31.9701326 51.7074802,32.3163846 51.7067043,32.6907804 C51.7085117,33.0662015 51.5089497,33.4137903 51.1838191,33.6014986 L51.1838191,33.6014986 L44.6593992,37.4569682 C44.3405041,37.6408356 43.9497859,37.6408356 43.6337638,37.4512224 C43.3148688,37.2616091 43.1166367,36.9168577 43.1166367,36.5433771 L43.1166367,36.5433771 L43.1166367,34.4030456 L10.0434876,34.4030456 C5.4784047,34.4059185 1.48503453,31.2543163 0.33586326,26.7352003 C-0.810435083,22.2160843 1.17475829,17.4757528 5.16812845,15.2118854 Z" id="形状结合" fill="url(#linearGradient-2)"></path>
            <path d="M32.1621616,38.2240401 C31.2314303,38.2366549 30.4862796,38.9997919 30.4958633,39.9305594 L30.4958633,50.0174102 C30.4958633,50.9597307 31.2428246,51.7239296 32.1621616,51.7239296 C33.0843715,51.7239296 33.8313329,50.9597307 33.8313329,50.0174102 L33.8313329,39.9334323 C33.8425129,39.0015488 33.0968998,38.2366526 32.1650345,38.2240401 L32.1621616,38.2240401 Z" id="路径" fill="#65D9D7"></path>
        </g>
    </g>
</svg>