<?xml version="1.0" encoding="UTF-8"?>
<svg width="58px" height="49px" viewBox="0 0 58 49" version="1.1" xmlns="http://www.w3.org/2000/svg" xmlns:xlink="http://www.w3.org/1999/xlink">
    <title>4.组件/2.通用/Bigicon/禁用/访存分析备份 24</title>
    <g id="IDE-Dark-Components" stroke="none" stroke-width="1" fill="none" fill-rule="evenodd">
        <g id="Genera通用组件-icon" transform="translate(-346.000000, -1005.000000)">
            <g id="进程线程性能分析" transform="translate(345.000000, 1001.000000)">
                <rect id="BOX" x="0" y="0" width="60" height="60" rx="2"></rect>
                <g id="编组-3" transform="translate(1.000000, 4.000000)" fill="#616161" fill-rule="nonzero">
                    <path d="M40,0 L17,0 C13.6862915,0 11,2.6862915 11,6 L11,17 C11,20.3137085 13.6862915,23 17,23 L40,23 C43.3137085,23 46,20.3137085 46,17 L46,6 C46,2.6862915 43.3137085,0 40,0 Z M40,4 C41.1045695,4 42,4.8954305 42,6 L42,17 C42,18.1045695 41.1045695,19 40,19 L17,19 C15.8954305,19 15,18.1045695 15,17 L15,6 C15,4.8954305 15.8954305,4 17,4 L40,4 Z" id="矩形"></path>
                    <path d="M11,33 L5,33 C2.23857625,33 0,35.2385763 0,38 L0,44 C0,46.7614237 2.23857625,49 5,49 L11,49 C13.7614237,49 16,46.7614237 16,44 L16,38 C16,35.2385763 13.7614237,33 11,33 Z M11,36 C12.1045695,36 13,36.8954305 13,38 L13,44 C13,45.1045695 12.1045695,46 11,46 L5,46 C3.8954305,46 3,45.1045695 3,44 L3,38 C3,36.8954305 3.8954305,36 5,36 L11,36 Z" id="矩形备份"></path>
                    <path d="M32,33 L26,33 C23.2385763,33 21,35.2385763 21,38 L21,44 C21,46.7614237 23.2385763,49 26,49 L32,49 C34.7614237,49 37,46.7614237 37,44 L37,38 C37,35.2385763 34.7614237,33 32,33 Z M32,36 C33.1045695,36 34,36.8954305 34,38 L34,44 C34,45.1045695 33.1045695,46 32,46 L26,46 C24.8954305,46 24,45.1045695 24,44 L24,38 C24,36.8954305 24.8954305,36 26,36 L32,36 Z" id="矩形备份-4"></path>
                    <path d="M53,33 L47,33 C44.2385763,33 42,35.2385763 42,38 L42,44 C42,46.7614237 44.2385763,49 47,49 L53,49 C55.7614237,49 58,46.7614237 58,44 L58,38 C58,35.2385763 55.7614237,33 53,33 Z M53,36 C54.1045695,36 55,36.8954305 55,38 L55,44 C55,45.1045695 54.1045695,46 53,46 L47,46 C45.8954305,46 45,45.1045695 45,44 L45,38 C45,36.8954305 45.8954305,36 47,36 L53,36 Z" id="矩形备份-5"></path>
                    <path d="M47,26.5 C49.4142733,26.5 51.3844891,28.4012365 51.495102,30.7881643 L51.5,31 L51.5,35 L48.5,35 L48.5,31 C48.5,30.2203039 47.9051119,29.5795513 47.14446,29.5068666 L47,29.5 L11,29.5 C10.2203039,29.5 9.57955132,30.0948881 9.50686658,30.85554 L9.5,31 L9.5,33.8333333 L6.5,33.8333333 L6.5,31 C6.5,28.5857267 8.40123652,26.6155109 10.7881643,26.504898 L11,26.5 L47,26.5 Z" id="路径-2"></path>
                    <polygon id="路径-3" points="30 23 30 35 27 35 27 23"></polygon>
                </g>
            </g>
        </g>
    </g>
</svg>