<?xml version="1.0" encoding="UTF-8"?>
<svg width="60px" height="60px" viewBox="0 0 60 60" version="1.1" xmlns="http://www.w3.org/2000/svg" xmlns:xlink="http://www.w3.org/1999/xlink">
    <title>4.组件/2.通用/Bigicon/浅色/存储IO/选中</title>
    <g id="4.组件/2.通用/Bigicon/浅色/存储IO/选中" stroke="none" stroke-width="1" fill="none" fill-rule="evenodd">
        <rect id="BOX" stroke="#979797" fill="#D8D8D8" opacity="0" x="0.5" y="0.5" width="59" height="59"></rect>
        <path d="M54.6766784,38 L54.865263,38.0051207 C56.5505258,38.0968845 57.9004645,39.4108696 57.9947391,41.051248 L58,41.2348099 L58,49.7651901 L57.9947391,49.948752 C57.9004645,51.5891304 56.5505258,52.9031155 54.865263,52.9948793 L54.6766784,53 L5.32332155,53 L5.13473696,52.9948793 C3.44947417,52.9031155 2.09953548,51.5891304 2.00526086,49.948752 L2,49.7651901 L2,41.3012636 L2.00526086,41.1177017 C2.09953548,39.4773233 3.44947417,38.1633382 5.13473696,38.0715744 L5.32332155,38.0664537 L11.6611355,38.0664537 L11.7949923,38.0730328 C12.455158,38.1382907 12.9703228,38.6809724 12.9703228,39.3407727 C12.9703228,40.000573 12.455158,40.5432548 11.7949923,40.6085126 L11.6611355,40.6150918 L5.32332155,40.6150918 L5.22766442,40.6213557 C4.91798778,40.6622481 4.6722043,40.8988801 4.62614438,41.1990391 L4.61837456,41.3012636 L4.61837456,49.7651901 L4.62480989,49.8582995 C4.66682114,50.1597284 4.90992797,50.3989658 5.21829998,50.443799 L5.32332155,50.4513619 L54.6766784,50.4513619 L54.7723356,50.4450979 C55.0820122,50.4042056 55.3277957,50.1675735 55.3738556,49.8674145 L55.3816254,49.7651901 L55.3816254,41.2348099 L55.3751901,41.1417005 C55.3331789,40.8402716 55.090072,40.6010342 54.7817,40.556201 L54.6766784,40.5486381 L49.3111084,40.5486381 L49.1772516,40.542059 C48.517086,40.4768011 48.0019211,39.9341194 48.0019211,39.2743191 C48.0019211,38.6145188 48.517086,38.071837 49.1772516,38.0065792 L49.3111084,38 L54.6766784,38 Z M38,16 C38.517767,16 38.9436271,16.4676043 39,17 L38.9999523,34 L42.5870477,34 C42.6957941,34 42.803007,34.022166 42.9022696,34.0647207 L42.9986443,34.1140057 C43.3459365,34.322381 43.4781074,34.752665 43.3226309,35.1147538 L43.273042,35.2115966 L38.6859943,42.8566761 C38.6184345,42.9692758 38.5241963,43.063514 38.4115966,43.1310738 C38.0643044,43.3394492 37.622444,43.2535839 37.3761192,42.9460041 L37.3140057,42.8566761 L32.726958,35.2115966 C32.6523586,35.0872643 32.6129523,34.9449952 32.6129523,34.8 C32.6129523,34.392159 32.9181405,34.0555984 33.312602,34.0062331 L33.4129523,34 L36.9999523,34 L37,17 C37,16.5320298 37.4477153,16 38,16 Z M22.7631669,16.2991963 C23.0094917,15.9916165 23.4513521,15.9057512 23.7986443,16.1141266 C23.911244,16.1816864 24.0054822,16.2759246 24.073042,16.3885243 L24.073042,16.3885243 L28.6600897,24.0336038 L28.7096786,24.1304466 C28.8651551,24.4925354 28.7329842,24.9228194 28.385692,25.1311947 L28.385692,25.1311947 L28.2893173,25.1804797 C28.1900547,25.2230344 28.0828418,25.2452004 27.9740954,25.2452004 L27.9740954,25.2452004 L24.387,25.2452004 L24.3870477,42.2452004 C24.3306748,42.7775961 23.9048146,43.2452004 23.3870477,43.2452004 C22.8347629,43.2452004 22.3870477,42.7131706 22.3870477,42.2452004 L22.3870477,42.2452004 L22.387,25.2452004 L18.8,25.2452004 L18.6996497,25.2389673 C18.3051881,25.189602 18,24.8530414 18,24.4452004 C18,24.3002052 18.0394063,24.1579361 18.1140057,24.0336038 L18.1140057,24.0336038 L22.7010534,16.3885243 Z M54.6766784,6 C56.4488079,6 57.8969729,7.35011488 57.9947391,9.051248 L58,9.23480994 L58,17.7651901 C58,19.4901216 56.612943,20.8997168 54.865263,20.9948793 L54.6766784,21 L49.3111084,21 C48.5880642,21 48.0019211,20.4294679 48.0019211,19.7256809 C48.0019211,19.0658806 48.517086,18.5231989 49.1772516,18.457941 L49.3111084,18.4513619 L54.6766784,18.4513619 C55.0335656,18.4513619 55.3285109,18.1932205 55.3751901,17.8582995 L55.3816254,17.7651901 L55.3816254,9.23480994 C55.3816254,8.8874279 55.1164207,8.60033801 54.7723356,8.55490207 L54.6766784,8.54863813 L5.32332155,8.54863813 C4.96643437,8.54863813 4.67148906,8.80677952 4.62480989,9.14170049 L4.61837456,9.23480994 L4.61837456,17.6987364 C4.61837456,18.0461184 4.88357927,18.3332083 5.22766442,18.3786443 L5.32332155,18.3849082 L11.6611355,18.3849082 C12.3841797,18.3849082 12.9703228,18.9554403 12.9703228,19.6592273 C12.9703228,20.3190276 12.455158,20.8617093 11.7949923,20.9269672 L11.6611355,20.9335463 L5.32332155,20.9335463 C3.55119208,20.9335463 2.10302713,19.5834315 2.00526086,17.8822983 L2,17.6987364 L2,9.23480994 C2,7.50987844 3.38705703,6.10028316 5.13473696,6.00512074 L5.32332155,6 L54.6766784,6 Z" id="形状结合" fill="#0067FF" fill-rule="nonzero"></path>
    </g>
</svg>