<?xml version="1.0" encoding="UTF-8"?>
<svg width="60px" height="60px" viewBox="0 0 60 60" version="1.1" xmlns="http://www.w3.org/2000/svg" xmlns:xlink="http://www.w3.org/1999/xlink">
    <title>4.组件/2.通用/Bigicon/浅色/系统/未选中</title>
    <g id="4.组件/2.通用/Bigicon/浅色/系统/未选中" stroke="none" stroke-width="1" fill="none" fill-rule="evenodd">
        <g id="icon/Home/系统">
            <rect id="BOX" stroke="#979797" fill="#D8D8D8" opacity="0" x="0.5" y="0.5" width="59" height="59"></rect>
            <g id="icon" transform="translate(1.500000, 5.250000)" fill="#979797">
                <path d="M38.625,45.75 C39.6605339,45.75 40.5,46.5894661 40.5,47.625 C40.5,48.6605339 39.6605339,49.5 38.625,49.5 L19.125,49.5 C18.0894661,49.5 17.25,48.6605339 17.25,47.625 C17.25,46.5894661 18.0894661,45.75 19.125,45.75 L38.625,45.75 Z M55.5,0 C56.3284271,0 57,0.671572875 57,1.5 L57,36 C57,36.8284271 56.3284271,37.5 55.5,37.5 L1.5,37.5 C0.671572875,37.5 0,36.8284271 0,36 L0,1.5 C0,0.671572875 0.671572875,0 1.5,0 L55.5,0 Z M52.5,4.5 L4.5,4.5 L4.5,33 L52.5,33 L52.5,4.5 Z" id="形状结合"></path>
                <path d="M16.5,10.5 C17.3284271,10.5 18,11.1715729 18,12 L18,18.75 L18,18.75 L15,18.75 L15,12 C15,11.1715729 15.6715729,10.5 16.5,10.5 Z" id="矩形"></path>
                <path d="M16.5,21.75 C17.3284271,21.75 18,22.4215729 18,23.25 L18,27 L18,27 L15,27 L15,23.25 C15,22.4215729 15.6715729,21.75 16.5,21.75 Z" id="矩形备份-9" transform="translate(16.500000, 24.375000) rotate(-180.000000) translate(-16.500000, -24.375000) "></path>
                <path d="M28.5,18.75 C29.3284271,18.75 30,19.4215729 30,20.25 L30,27 L30,27 L27,27 L27,20.25 C27,19.4215729 27.6715729,18.75 28.5,18.75 Z" id="矩形备份-10" transform="translate(28.500000, 22.875000) rotate(-180.000000) translate(-28.500000, -22.875000) "></path>
                <path d="M40.5,24 C41.3284271,24 42,24.6715729 42,25.5 L42,27 L42,27 L39,27 L39,25.5 C39,24.6715729 39.6715729,24 40.5,24 Z" id="矩形备份-13" transform="translate(40.500000, 25.500000) rotate(-180.000000) translate(-40.500000, -25.500000) "></path>
                <rect id="矩形" x="12.75" y="18.75" width="7.5" height="1.5" rx="0.75"></rect>
                <rect id="矩形备份-11" x="24.75" y="15.75" width="7.5" height="1.5" rx="0.75"></rect>
                <rect id="矩形备份-12" x="36.75" y="20.25" width="7.5" height="1.5" rx="0.75"></rect>
                <path d="M28.5,10.5 C29.3284271,10.5 30,11.1715729 30,12 L30,15.75 L30,15.75 L27,15.75 L27,12 C27,11.1715729 27.6715729,10.5 28.5,10.5 Z" id="矩形备份-7"></path>
                <path d="M40.5,10.5 C41.3284271,10.5 42,11.1715729 42,12 L42,20.25 L42,20.25 L39,20.25 L39,12 C39,11.1715729 39.6715729,10.5 40.5,10.5 Z" id="矩形备份-8"></path>
            </g>
        </g>
    </g>
</svg>