<?xml version="1.0" encoding="UTF-8"?>
<svg width="60px" height="60px" viewBox="0 0 60 60" version="1.1" xmlns="http://www.w3.org/2000/svg" xmlns:xlink="http://www.w3.org/1999/xlink">
    <title>4.组件/2.通用/Bigicon/浅色/锁与等待/未选中</title>
    <g id="4.组件/2.通用/Bigicon/浅色/锁与等待/未选中" stroke="none" stroke-width="1" fill="none" fill-rule="evenodd">
        <path d="M30.4502829,6 C37.8028833,6 43.757882,12.1387517 43.757882,19.7021778 L43.757882,24.7022901 L48.3373754,24.7022901 C49.8067906,24.7022901 51,25.9289403 51,27.4416255 L51,52.2606646 C51,53.7733498 49.8123147,55 48.3373754,55 L12.6626246,55 C11.1932094,55 10,53.7733498 10,52.2606646 L10,27.4416255 C10,25.9289403 11.1932094,24.7022901 12.6626246,24.7022901 L17.1371598,24.7022901 L17.1371598,19.7021778 C17.1371598,12.133251 23.0976826,6 30.4502829,6 Z M46.7409054,27.9806915 L14.2590946,27.9806915 C13.6735381,27.9806915 13.1929399,28.4702515 13.1929399,29.0753256 L13.1929399,50.6159632 C13.1929399,51.2210373 13.668014,51.7105972 14.2590946,51.7105972 L46.7409054,51.7105972 C47.3264619,51.7105972 47.8070601,51.2210373 47.8070601,50.6159632 L47.8070601,29.0753256 C47.8070601,28.4702515 47.331986,27.9806915 46.7409054,27.9806915 Z M30.4447588,9.28940278 C24.8543519,9.28940278 20.3245756,13.953974 20.3245756,19.7021778 L20.3245756,24.7022901 L40.5594179,24.7022901 L40.5594179,19.7021778 L40.5649421,19.7021778 C40.5649421,13.9484733 36.0351657,9.28940278 30.4447588,9.28940278 Z" id="形状结合" fill="#979797"></path>
        <path d="M30.5,44.4772115 C29.6161412,44.4772115 28.90353,43.7401212 28.90353,42.8325101 L28.90353,36.8587786 C28.90353,35.9511675 29.6161412,35.2140772 30.5,35.2140772 C31.3838588,35.2140772 32.09647,35.9511675 32.09647,36.8587786 L32.09647,42.8325101 C32.09647,43.7401212 31.3838588,44.4772115 30.5,44.4772115 Z" id="路径" fill="#979797"></path>
    </g>
</svg>