<?xml version="1.0" encoding="UTF-8"?>
<svg width="55px" height="62px" viewBox="0 0 55 62" version="1.1" xmlns="http://www.w3.org/2000/svg" xmlns:xlink="http://www.w3.org/1999/xlink">
    <title>4.组件/2.通用/Bigicon/禁用/访存分析备份 23</title>
    <defs>
        <filter x="-7.7%" y="-6.8%" width="115.4%" height="113.6%" filterUnits="objectBoundingBox" id="filter-1">
            <feOffset dx="0" dy="1" in="SourceAlpha" result="shadowOffsetOuter1"></feOffset>
            <feGaussianBlur stdDeviation="0.5" in="shadowOffsetOuter1" result="shadowBlurOuter1"></feGaussianBlur>
            <feColorMatrix values="0 0 0 0 0   0 0 0 0 0   0 0 0 0 0  0 0 0 0.883987107 0" type="matrix" in="shadowBlurOuter1" result="shadowMatrixOuter1"></feColorMatrix>
            <feMerge>
                <feMergeNode in="shadowMatrixOuter1"></feMergeNode>
                <feMergeNode in="SourceGraphic"></feMergeNode>
            </feMerge>
        </filter>
        <linearGradient x1="50%" y1="31.1311638%" x2="50%" y2="97.5865407%" id="linearGradient-2">
            <stop stop-color="#B8BDCA" offset="0%"></stop>
            <stop stop-color="#868B98" offset="100%"></stop>
        </linearGradient>
    </defs>
    <g id="IDE-Dark-Components" stroke="none" stroke-width="1" fill="none" fill-rule="evenodd">
        <g id="Genera通用组件-icon" transform="translate(-1051.000000, -727.000000)">
            <g id="编组" transform="translate(1048.000000, 727.000000)">
                <rect id="矩形" x="0" y="0" width="60" height="60"></rect>
                <g id="icon" filter="url(#filter-1)" transform="translate(4.500000, 0.750000)" fill-rule="nonzero">
                    <path d="M25.1325586,0.241438852 L1.23600685,12.3052686 C0.478012862,12.687931 0,13.4647212 0,14.3138298 L0,42.462766 C0,43.2668519 0.429099813,44.0098202 1.12557786,44.4116566 L25.0221296,58.1988907 C25.7249608,58.6043926 26.5916843,58.6000554 27.290422,58.1875399 L50.6438703,44.4003058 C51.3293684,43.9956066 51.75,43.2588119 51.75,42.462766 L51.75,14.3138298 C51.75,13.4722595 51.2803525,12.7010417 50.532652,12.3147976 L27.1792037,0.250967763 C26.5379988,-0.0802632795 25.77682,-0.0838072284 25.1325586,0.241438852 Z M26.13525,4.776 L47.25,15.684 L47.25,41.17725 L26.133,53.6445 L4.5,41.163 L4.5,15.69825 L26.13525,4.776 Z" id="路径" fill="url(#linearGradient-2)"></path>
                    <path d="M39.5204652,23.2024154 L39.5788419,23.3041701 C39.9448383,24.0031216 39.7052063,24.8586059 39.0475846,25.2704652 L38.9458299,25.3288419 L27.374741,31.3876942 L27.375,42 C27.375,42.8284271 26.7034271,43.5 25.875,43.5 C25.0842287,43.5 24.4363762,42.8880917 24.3791143,42.1119468 L24.375,42 L24.374741,31.9146942 L12.7580123,25.3036312 C12.0380367,24.8938427 11.7865803,23.9779879 12.1963688,23.2580123 C12.5866436,22.5723212 13.4359354,22.311591 14.1378773,22.6423051 L14.2419877,22.6963688 L25.389,29.04075 L37.5541701,22.6711581 C38.2531216,22.3051617 39.1086059,22.5447937 39.5204652,23.2024154 Z" id="形状结合" fill="#65D9D7"></path>
                </g>
            </g>
        </g>
    </g>
</svg>