<?xml version="1.0" encoding="UTF-8"?>
<svg width="60px" height="51px" viewBox="0 0 60 51" version="1.1" xmlns="http://www.w3.org/2000/svg" xmlns:xlink="http://www.w3.org/1999/xlink">
    <title>4.组件/2.通用/Bigicon/禁用/访存分析备份 18</title>
    <defs>
        <filter x="-6.7%" y="-6.7%" width="113.3%" height="113.3%" filterUnits="objectBoundingBox" id="filter-1">
            <feOffset dx="0" dy="1" in="SourceAlpha" result="shadowOffsetOuter1"></feOffset>
            <feGaussianBlur stdDeviation="0.5" in="shadowOffsetOuter1" result="shadowBlurOuter1"></feGaussianBlur>
            <feColorMatrix values="0 0 0 0 0   0 0 0 0 0   0 0 0 0 0  0 0 0 0.883987107 0" type="matrix" in="shadowBlurOuter1" result="shadowMatrixOuter1"></feColorMatrix>
            <feMerge>
                <feMergeNode in="shadowMatrixOuter1"></feMergeNode>
                <feMergeNode in="SourceGraphic"></feMergeNode>
            </feMerge>
        </filter>
        <linearGradient x1="78.8051781%" y1="15.4483408%" x2="78.8051781%" y2="93.9717074%" id="linearGradient-2">
            <stop stop-color="#B8BDCA" offset="0%"></stop>
            <stop stop-color="#868B98" offset="100%"></stop>
        </linearGradient>
    </defs>
    <g id="IDE-Dark-Components" stroke="none" stroke-width="1" fill="none" fill-rule="evenodd">
        <g id="Genera通用组件-icon" transform="translate(-343.000000, -731.000000)">
            <g id="进程线程性能分析" transform="translate(343.000000, 727.000000)" filter="url(#filter-1)">
                <rect id="BOX" x="0" y="0" width="60" height="60" rx="2"></rect>
                <g id="编组-3" transform="translate(1.000000, 4.000000)" fill-rule="nonzero">
                    <path d="M40,0 L17,0 C13.6862915,0 11,2.6862915 11,6 L11,17 C11,20.3137085 13.6862915,23 17,23 L40,23 C43.3137085,23 46,20.3137085 46,17 L46,6 C46,2.6862915 43.3137085,0 40,0 Z M40,4 C41.1045695,4 42,4.8954305 42,6 L42,17 C42,18.1045695 41.1045695,19 40,19 L17,19 C15.8954305,19 15,18.1045695 15,17 L15,6 C15,4.8954305 15.8954305,4 17,4 L40,4 Z" id="矩形" fill="#65D9D7"></path>
                    <path d="M30,23 L30,26.5 L47,26.5 C49.4142733,26.5 51.3844891,28.4012365 51.495102,30.7881643 L51.5,31 L51.5,33 L53,33 C55.6887547,33 57.8818181,35.1223067 57.9953805,37.7831104 L58,38 L58,44 C58,46.7614237 55.7614237,49 53,49 L53,49 L47,49 C44.2385763,49 42,46.7614237 42,44 L42,44 L42,38 C42,35.2385763 44.2385763,33 47,33 L47,33 L48.5,33 L48.5,31 C48.5,30.2203039 47.9051119,29.5795513 47.14446,29.5068666 L47,29.5 L30,29.5 L30,33 L32,33 C34.6887547,33 36.8818181,35.1223067 36.9953805,37.7831104 L37,38 L37,44 C37,46.7614237 34.7614237,49 32,49 L32,49 L26,49 C23.2385763,49 21,46.7614237 21,44 L21,44 L21,38 C21,35.2385763 23.2385763,33 26,33 L26,33 L27,33 L27,29.5 L11,29.5 C10.2203039,29.5 9.57955132,30.0948881 9.50686658,30.85554 L9.5,31 L9.5,33 L11,33 C13.6887547,33 15.8818181,35.1223067 15.9953805,37.7831104 L16,38 L16,44 C16,46.7614237 13.7614237,49 11,49 L11,49 L5,49 C2.23857625,49 0,46.7614237 0,44 L0,44 L0,38 C0,35.2385763 2.23857625,33 5,33 L5,33 L6.5,33 L6.5,31 C6.5,28.5857267 8.40123652,26.6155109 10.7881643,26.504898 L11,26.5 L27,26.5 L27,23 L30,23 Z M11,36 L5,36 C3.8954305,36 3,36.8954305 3,38 L3,38 L3,44 C3,45.1045695 3.8954305,46 5,46 L5,46 L11,46 C12.1045695,46 13,45.1045695 13,44 L13,44 L13,38 C13,36.8954305 12.1045695,36 11,36 L11,36 Z M32,36 L26,36 C24.8954305,36 24,36.8954305 24,38 L24,38 L24,44 C24,45.1045695 24.8954305,46 26,46 L26,46 L32,46 C33.1045695,46 34,45.1045695 34,44 L34,44 L34,38 C34,36.8954305 33.1045695,36 32,36 L32,36 Z M53,36 L47,36 C45.8954305,36 45,36.8954305 45,38 L45,38 L45,44 C45,45.1045695 45.8954305,46 47,46 L47,46 L53,46 C54.1045695,46 55,45.1045695 55,44 L55,44 L55,38 C55,36.8954305 54.1045695,36 53,36 L53,36 Z" id="形状结合" fill="url(#linearGradient-2)"></path>
                </g>
            </g>
        </g>
    </g>
</svg>