<?xml version="1.0" encoding="UTF-8"?>
<svg width="11px" height="11px" viewBox="0 0 11 11" version="1.1" xmlns="http://www.w3.org/2000/svg" xmlns:xlink="http://www.w3.org/1999/xlink">
    <title>？备份 2</title>
    <desc>Created with Sketch.</desc>
    <g id="分析-总览全" stroke="none" stroke-width="1" fill="none" fill-rule="evenodd">
        <g id="进程/线程性能分析-总览1" transform="translate(-601.000000, -282.000000)" fill="#9EA4B3">
            <g id="分组-9-copy备份-2" transform="translate(394.000000, 223.000000)">
                <g id="编组-6" transform="translate(0.000000, 48.000000)">
                    <g id="编组-12" transform="translate(42.000000, 0.000000)">
                        <g id="编组-8">
                            <g id="编组-5" transform="translate(102.000000, 8.000000)">
                                <g id="编组-13">
                                    <path d="M68.5,3 C71.5375661,3 74,5.46243388 74,8.5 C74,11.5375661 71.5375661,14 68.5,14 C65.4624339,14 63,11.5375661 63,8.5 C63,5.46243388 65.4624339,3 68.5,3 Z M68.43,10.57 C68.23,10.57 68.05,10.63 67.91,10.77 C67.77,10.9 67.7,11.07 67.7,11.28 C67.7,11.48 67.77,11.65 67.91,11.79 C68.05,11.93 68.23,12 68.43,12 C68.63,12 68.81,11.93 68.95,11.8 C69.09,11.66 69.17,11.49 69.17,11.28 C69.17,11.07 69.1,10.9 68.96,10.77 C68.82,10.63 68.64,10.57 68.43,10.57 Z M68.61,4.72 C67.87,4.72 67.29,4.93 66.87,5.36 C66.45,5.78 66.24,6.35 66.24,7.08 L66.24,7.08 L67.29,7.08 C67.29,6.64 67.38,6.3 67.56,6.06 C67.76,5.77 68.09,5.63 68.54,5.63 C68.9,5.63 69.19,5.73 69.39,5.93 C69.58,6.13 69.68,6.4 69.68,6.75 C69.68,7.01 69.58,7.25 69.4,7.48 L69.4,7.48 L69.23,7.67 C68.61,8.22 68.23,8.63 68.1,8.91 C67.96,9.17 67.9,9.49 67.9,9.86 L67.9,9.86 L67.9,10.03 L68.97,10.03 L68.97,9.86 C68.97,9.62 69.02,9.4 69.13,9.2 C69.22,9.02 69.36,8.84 69.55,8.68 C70.02,8.27 70.3,8.01 70.39,7.9 C70.64,7.58 70.77,7.17 70.77,6.68 C70.77,6.08 70.57,5.6 70.17,5.25 C69.77,4.89 69.25,4.72 68.61,4.72 Z" id="？备份-2"></path>
                                </g>
                            </g>
                        </g>
                    </g>
                </g>
            </g>
        </g>
    </g>
</svg>