<?xml version="1.0" encoding="UTF-8"?>
<svg width="53px" height="43px" viewBox="0 0 53 43" version="1.1" xmlns="http://www.w3.org/2000/svg" xmlns:xlink="http://www.w3.org/1999/xlink">
    <title>4.组件/2.通用/Bigicon/禁用/访存分析备份 26</title>
    <g id="IDE-Dark-Components" stroke="none" stroke-width="1" fill="none" fill-rule="evenodd">
        <g id="Genera通用组件-icon" transform="translate(-160.000000, -1010.000000)">
            <g id="icon" transform="translate(157.000000, 1001.000000)">
                <rect id="BOX" x="0" y="0" width="60" height="60"></rect>
                <g id="编组-4" transform="translate(3.000000, 8.000000)" fill="#616161" fill-rule="nonzero">
                    <path d="M46.4992636,2.66233547 L53.3356592,15.5308448 C53.5947665,16.0185761 53.40943,16.6240084 52.9216987,16.8831157 C52.7772284,16.9598655 52.616135,17 52.4525435,17 L38.7797523,17 C38.2274676,17 37.7797523,16.5522847 37.7797523,16 C37.7797523,15.8364085 37.8198868,15.675315 37.8966366,15.5308448 L44.7330322,2.66233547 C44.9921395,2.17460413 45.5975718,1.9892677 46.0853031,2.24837498 C46.2614955,2.34197716 46.4056614,2.48614314 46.4992636,2.66233547 Z" id="三角形" transform="translate(45.616148, 9.000000) rotate(-270.000000) translate(-45.616148, -9.000000) "></path>
                    <path d="M38,7.13387905 C38.8284271,7.13387905 39.5,7.80545193 39.5,8.63387905 C39.5,9.46230618 38.8284271,10.1338791 38,10.1338791 C31.5091376,10.1338791 26.7276358,14.5183889 23.5766759,23.655044 L23.4230249,24.1082207 C19.8533845,34.8171419 12.4569846,39.2549818 1.7058258,37.1047501 C0.893486168,36.9422821 0.366661061,36.1520445 0.529128986,35.3397048 C0.691596912,34.5273652 1.48183457,34.0005401 2.2941742,34.163008 C11.4145592,35.987085 17.3143951,32.5485211 20.4462876,23.5433512 L20.5769751,23.1595374 C24.095342,12.6044365 29.9306033,7.13387905 38,7.13387905 Z" id="路径-7"></path>
                </g>
                <g id="编组-4" transform="translate(30.000000, 34.000000) scale(1, -1) translate(-30.000000, -34.000000) translate(3.000000, 15.000000)" fill="#616161" fill-rule="nonzero">
                    <path d="M46.4992636,2.66233547 L53.3356592,15.5308448 C53.5947665,16.0185761 53.40943,16.6240084 52.9216987,16.8831157 C52.7772284,16.9598655 52.616135,17 52.4525435,17 L38.7797523,17 C38.2274676,17 37.7797523,16.5522847 37.7797523,16 C37.7797523,15.8364085 37.8198868,15.675315 37.8966366,15.5308448 L44.7330322,2.66233547 C44.9921395,2.17460413 45.5975718,1.9892677 46.0853031,2.24837498 C46.2614955,2.34197716 46.4056614,2.48614314 46.4992636,2.66233547 Z" id="三角形" transform="translate(45.616148, 9.000000) rotate(-270.000000) translate(-45.616148, -9.000000) "></path>
                    <path d="M18.5655055,27.7265019 L19.8538548,31.2067435 C15.7634504,36.6850673 9.65061775,38.6937085 1.7058258,37.1047501 C0.893486168,36.9422821 0.366661061,36.1520445 0.529128986,35.3397048 C0.691596912,34.5273652 1.48183457,34.0005401 2.2941742,34.163008 C9.8334281,35.6708588 15.1719846,33.58259 18.5655055,27.7265019 Z M38,7.13387905 C38.8284271,7.13387905 39.5,7.80545193 39.5,8.63387905 C39.5,9.46230618 38.8284271,10.1338791 38,10.1338791 C33.3325003,10.1338791 29.5488891,12.401053 26.6198592,17.0720992 L25.3524393,13.6514984 C28.6534691,9.33935615 32.8763842,7.13387905 38,7.13387905 Z" id="形状结合"></path>
                </g>
            </g>
        </g>
    </g>
</svg>