<?xml version="1.0" encoding="UTF-8"?>
<svg width="60px" height="60px" viewBox="0 0 60 60" version="1.1" xmlns="http://www.w3.org/2000/svg" xmlns:xlink="http://www.w3.org/1999/xlink">
    <title>4.组件/2.通用/Bigicon/资源调度/禁用</title>
    <g id="4.组件/2.通用/Bigicon/资源调度/禁用" stroke="none" stroke-width="1" fill="none" fill-rule="evenodd">
        <rect id="BOX" x="0" y="0" width="60" height="60" rx="2"></rect>
        <path d="M22.386471,42.2240401 C22.8345065,42.2293421 23.2620817,42.4124247 23.5751188,42.7330049 C23.8490263,43.0135125 24.0156044,43.3791825 24.0493747,43.7663653 L24.0556423,43.9334323 L24.0556423,54.0174102 C24.0556423,54.9597307 23.305808,55.7239296 22.3835981,55.7239296 C21.5126472,55.7239296 20.7964047,55.0380558 20.7234234,54.164632 L20.7172997,54.0174102 L20.7172997,43.9305594 C20.7077248,42.9986847 21.4546126,42.2350852 22.386471,42.2240401 Z M36.1650345,42.2240401 C37.0968998,42.2366526 37.8425129,43.0015488 37.8313329,43.9334323 L37.8313329,43.9334323 L37.8313329,54.0174102 C37.8313329,54.9597307 37.0843715,55.7239296 36.1621616,55.7239296 C35.2428246,55.7239296 34.4958633,54.9597307 34.4958633,54.0174102 L34.4958633,54.0174102 L34.4958633,43.9305594 C34.4862796,42.9997919 35.2314303,42.2366549 36.1621616,42.2240401 L36.1621616,42.2240401 Z M21.2918854,21.1137638 C24.4397415,24.5325983 24.9414323,29.6233541 22.5214986,33.5908909 C22.0216091,34.3579627 21.0132113,34.5791782 20.2490124,34.0907804 C19.4800193,33.5905135 19.2354295,32.5768526 19.6916644,31.7809461 C21.30625,29.1407251 20.9701174,25.7190677 18.8728798,23.4609461 C16.8013479,21.2081853 13.4487917,20.6839761 10.7884599,22.1968577 C8.11216595,23.7456309 6.79632799,26.8883689 7.57078039,29.8819406 C8.31375153,32.8091352 10.8516932,34.8782199 13.7906292,34.9856301 L14.0434876,34.9900069 L47.1108909,34.9900069 L47.1108909,32.8381837 C47.1123921,32.4658904 47.3085555,32.1215146 47.628018,31.9303384 C47.9052924,31.7661637 48.2413743,31.7447999 48.5340496,31.8665325 L48.6565262,31.9274655 L55.1809461,35.7829351 C55.5080565,35.9701326 55.7074802,36.3163846 55.7067043,36.6907804 C55.7083108,37.0244881 55.5508107,37.3362047 55.2874413,37.5331888 L55.1838191,37.6014986 L48.6593992,41.4569682 C48.3405041,41.6408356 47.9497859,41.6408356 47.6337638,41.4512224 C47.3503016,41.2826773 47.162178,40.9915539 47.1238723,40.6666332 L47.1166367,40.5433771 L47.1166367,38.4030456 L14.0434876,38.4030456 C9.4784047,38.4059185 5.48503453,35.2543163 4.33586326,30.7352003 C3.18956492,26.2160843 5.17475829,21.4757528 9.16812845,19.2118854 C13.1591326,16.9449633 18.1867425,17.7336547 21.2918854,21.1137638 Z M36.1592887,4.01122238 C36.5307309,4.01332841 36.8713018,4.21833227 37.0470235,4.54558702 L37.0470235,4.54558702 L44.384482,17.5226036 C44.5653555,17.8503012 44.5631801,18.248394 44.3787362,18.5740953 C44.1987784,18.8965011 43.8602021,19.0981129 43.4910014,19.1027141 L43.4910014,19.1027141 L37.8313329,19.1027141 L37.8313329,31.3212776 C37.8313329,32.2635981 37.0843715,33.027797 36.1621616,33.027797 C35.2399517,33.027797 34.4929903,32.2635981 34.4929903,31.3212776 L34.4929903,31.3212776 L34.4929903,19.1027141 L28.8304489,19.1027141 C28.4597124,19.1009495 28.1189589,18.8986959 27.9398412,18.5740953 C27.7563855,18.2473341 27.7574756,17.8483574 27.9427141,17.5226036 L27.9427141,17.5226036 L35.2686809,4.54558702 C35.4448932,4.21742944 35.7868145,4.01227665 36.1592887,4.01122238 Z" id="形状结合" fill="#616161" fill-rule="nonzero"></path>
    </g>
</svg>