<?xml version="1.0" encoding="UTF-8"?>
<svg width="60px" height="60px" viewBox="0 0 60 60" version="1.1" xmlns="http://www.w3.org/2000/svg" xmlns:xlink="http://www.w3.org/1999/xlink">
    <title>4.组件/2.通用/Bigicon/浅色/C++/未选中</title>
    <g id="4.组件/2.通用/Bigicon/浅色/C++/未选中" stroke="none" stroke-width="1" fill="none" fill-rule="evenodd">
        <path d="M49.5,6 C52.5375661,6 55,8.46243388 55,11.5 L55,11.5 L55,47.7962963 C55,50.8338624 52.5375661,53.2962963 49.5,53.2962963 L49.5,53.2962963 L11.5,53.2962963 C8.46243388,53.2962963 6,50.8338624 6,47.7962963 L6,47.7962963 L6,11.5 C6,8.46243388 8.46243388,6 11.5,6 L11.5,6 Z M49.5,9 L11.5,9 C10.1192881,9 9,10.1192881 9,11.5 L9,11.5 L9,47.7962963 C9,49.1770082 10.1192881,50.2962963 11.5,50.2962963 L11.5,50.2962963 L49.5,50.2962963 C50.8807119,50.2962963 52,49.1770082 52,47.7962963 L52,47.7962963 L52,11.5 C52,10.1192881 50.8807119,9 49.5,9 L49.5,9 Z M31.2,18.5 C35.1386667,18.5 37.864,20.2546667 39.376,23.764 L39.376,23.764 L36.744,24.8 L36.6327857,24.5544643 C35.6029286,22.3848215 33.792,21.3 31.2,21.3 C29.408,21.3 27.896,21.944 26.664,23.232 C25.264,24.7066667 24.564,26.7226667 24.564,29.28 C24.564,31.8373333 25.236,33.7786667 26.58,35.104 C27.6813333,36.1866667 29.0533333,36.728 30.696,36.728 C33.44,36.728 35.4186667,35.3746667 36.632,32.668 L36.632,32.668 L39.068,33.76 L38.8975111,34.1305955 C38.0902815,35.8298429 37.1204444,37.1063111 35.988,37.96 C34.588,38.9866667 32.824,39.5 30.696,39.5 C28.0453333,39.5 25.8986667,38.6506667 24.256,36.952 C22.5013333,35.104 21.624,32.5466667 21.624,29.28 C21.624,26.2186667 22.5386667,23.652 24.368,21.58 C26.1973333,19.5266667 28.4746667,18.5 31.2,18.5 Z" id="形状结合" fill="#979797"></path>
    </g>
</svg>