<?xml version="1.0" encoding="UTF-8"?>
<svg width="49px" height="49px" viewBox="0 0 49 49" version="1.1" xmlns="http://www.w3.org/2000/svg" xmlns:xlink="http://www.w3.org/1999/xlink">
    <title>4.组件/2.通用/Bigicon/禁用/访存分析备份 15</title>
    <g id="IDE-Dark-Components" stroke="none" stroke-width="1" fill="none" fill-rule="evenodd">
        <g id="Genera通用组件-icon" transform="translate(-707.000000, -495.000000)">
            <g id="Icon" transform="translate(701.000000, 490.000000)">
                <rect id="BOX" x="0" y="0" width="60" height="60"></rect>
                <path d="M22.7553191,17.4468085 C22.7553191,22.6443769 27.1322188,27.0212766 32.3297872,27.0212766 C37.5273556,27.0212766 41.9042553,22.6443769 41.9042553,17.4468085 C41.9042553,12.2492401 37.5273556,7.87234043 32.3297872,7.87234043 C26.8586626,7.87234043 22.7553191,11.9756839 22.7553191,17.4468085 M16.606383,50.4893617 C20.356383,50.4893617 23.606383,47.2393617 23.606383,43.4893617 C23.606383,39.7393617 20.606383,36.4893617 16.606383,36.4893617 C12.856383,36.4893617 9.60638298,39.4893617 9.60638298,43.4893617 C9.60638298,47.2393617 12.856383,50.4893617 16.606383,50.4893617 Z M41.9042553,41.9148936 C41.9042553,44.8404255 44.2978723,47.2340426 47.2234043,47.2340426 C50.1489362,47.2340426 52.5425532,44.8404255 52.5425532,41.9148936 C52.5425532,38.9893617 50.1489362,36.5957447 47.2234043,36.5957447 C44.2978723,36.5957447 41.9042553,38.9893617 41.9042553,41.9148936 M54.9361702,41.8610113 C54.9361702,46.3097541 51.4178835,49.8051948 46.940064,49.8051948 C42.4622445,49.8051948 38.9439577,46.3097541 38.9439577,41.8610113 C38.9439577,38.6833379 40.8630232,35.8234319 44.38131,34.2345952 L40.8630232,27.5614811 C38.6241135,29.4680851 35.1058267,30.7391545 32.5470727,30.7391545 C30.6280072,30.7391545 27.749409,30.4213871 26.1501877,28.8325504 L22.631901,35.1878972 C25.5104992,36.7767339 27.1097205,40.2721746 27.1097205,43.449848 C27.1097205,49.1696601 22.3120567,53.9361702 16.5548602,53.9361702 C10.7976637,53.9361702 6,49.1696601 6,43.449848 C6,37.7300359 10.7976637,32.9635258 16.5548602,32.9635258 C17.8342372,32.9635258 19.1136142,33.2812932 20.3929912,33.5990605 L24.2311222,27.2437137 C21.352524,25.0193424 19.7533027,21.5239016 19.7533027,17.7106936 C19.7533027,10.7198121 25.5104992,5 32.5470727,5 C39.5836462,5 45.3408427,10.7198121 45.3408427,17.7106936 C45.3408427,20.888367 44.38131,23.748273 42.4622445,25.9726444 L46.6202197,33.9168279 L46.940064,33.9168279 C51.4178835,33.9168279 54.9361702,37.4122686 54.9361702,41.8610113 Z" id="形状" fill="#80858F" fill-rule="nonzero"></path>
            </g>
        </g>
    </g>
</svg>