<?xml version="1.0" encoding="UTF-8"?>
<svg width="51px" height="51px" viewBox="0 0 51 51" version="1.1" xmlns="http://www.w3.org/2000/svg" xmlns:xlink="http://www.w3.org/1999/xlink">
    <title>4.组件/2.通用/Bigicon/禁用/访存分析备份 21</title>
    <defs>
        <filter x="-6.7%" y="-6.7%" width="113.3%" height="113.3%" filterUnits="objectBoundingBox" id="filter-1">
            <feOffset dx="0" dy="1" in="SourceAlpha" result="shadowOffsetOuter1"></feOffset>
            <feGaussianBlur stdDeviation="0.5" in="shadowOffsetOuter1" result="shadowBlurOuter1"></feGaussianBlur>
            <feColorMatrix values="0 0 0 0 0   0 0 0 0 0   0 0 0 0 0  0 0 0 0.883987107 0" type="matrix" in="shadowBlurOuter1" result="shadowMatrixOuter1"></feColorMatrix>
            <feMerge>
                <feMergeNode in="shadowMatrixOuter1"></feMergeNode>
                <feMergeNode in="SourceGraphic"></feMergeNode>
            </feMerge>
        </filter>
        <linearGradient x1="50%" y1="31.1311638%" x2="50%" y2="97.5865407%" id="linearGradient-2">
            <stop stop-color="#B8BDCA" offset="0%"></stop>
            <stop stop-color="#868B98" offset="100%"></stop>
        </linearGradient>
        <path d="M16.7553191,12.4468085 C16.7553191,17.6443769 21.1322188,22.0212766 26.3297872,22.0212766 C31.5273556,22.0212766 35.9042553,17.6443769 35.9042553,12.4468085 C35.9042553,7.24924012 31.5273556,2.87234043 26.3297872,2.87234043 C20.8586626,2.87234043 16.7553191,6.97568389 16.7553191,12.4468085 M10.606383,45.4893617 C14.356383,45.4893617 17.606383,42.2393617 17.606383,38.4893617 C17.606383,34.7393617 14.606383,31.4893617 10.606383,31.4893617 C6.85638298,31.4893617 3.60638298,34.4893617 3.60638298,38.4893617 C3.60638298,42.2393617 6.85638298,45.4893617 10.606383,45.4893617 Z M35.9042553,36.9148936 C35.9042553,39.8404255 38.2978723,42.2340426 41.2234043,42.2340426 C44.1489362,42.2340426 46.5425532,39.8404255 46.5425532,36.9148936 C46.5425532,33.9893617 44.1489362,31.5957447 41.2234043,31.5957447 C38.2978723,31.5957447 35.9042553,33.9893617 35.9042553,36.9148936 M48.9361702,36.8610113 C48.9361702,41.3097541 45.4178835,44.8051948 40.940064,44.8051948 C36.4622445,44.8051948 32.9439577,41.3097541 32.9439577,36.8610113 C32.9439577,33.6833379 34.8630232,30.8234319 38.38131,29.2345952 L34.8630232,22.5614811 C32.6241135,24.4680851 29.1058267,25.7391545 26.5470727,25.7391545 C24.6280072,25.7391545 21.749409,25.4213871 20.1501877,23.8325504 L16.631901,30.1878972 C19.5104992,31.7767339 21.1097205,35.2721746 21.1097205,38.449848 C21.1097205,44.1696601 16.3120567,48.9361702 10.5548602,48.9361702 C4.79766375,48.9361702 0,44.1696601 0,38.449848 C0,32.7300359 4.79766375,27.9635258 10.5548602,27.9635258 C11.8342372,27.9635258 13.1136142,28.2812932 14.3929912,28.5990605 L18.2311222,22.2437137 C15.352524,20.0193424 13.7533027,16.5239016 13.7533027,12.7106936 C13.7533027,5.7198121 19.5104992,0 26.5470727,0 C33.5836462,0 39.3408427,5.7198121 39.3408427,12.7106936 C39.3408427,15.888367 38.38131,18.748273 36.4622445,20.9726444 L40.6202197,28.9168279 L40.940064,28.9168279 C45.4178835,28.9168279 48.9361702,32.4122686 48.9361702,36.8610113 Z" id="path-3"></path>
    </defs>
    <g id="IDE-Dark-Components" stroke="none" stroke-width="1" fill="none" fill-rule="evenodd">
        <g id="Genera通用组件-icon" transform="translate(-705.000000, -732.000000)">
            <g id="Icon" transform="translate(700.000000, 727.000000)" filter="url(#filter-1)">
                <rect id="BOX" x="0" y="0" width="60" height="60"></rect>
                <g id="椭圆形" transform="translate(6.000000, 5.000000)">
                    <mask id="mask-4" fill="white">
                        <use xlink:href="#path-3"></use>
                    </mask>
                    <use id="蒙版" fill="url(#linearGradient-2)" fill-rule="nonzero" xlink:href="#path-3"></use>
                    <path d="M26.5,26 C34,26 40,18.4558441 40,11 C40,3.54415588 33.9558441,-1 26.5,-1 C19.0441559,-1 12,2.54415588 12,10 C12,17.4558441 19,26 26.5,26 Z" fill="#65D9D7" mask="url(#mask-4)"></path>
                </g>
            </g>
        </g>
    </g>
</svg>