<?xml version="1.0" encoding="UTF-8"?>
<svg width="54px" height="54px" viewBox="0 0 54 54" version="1.1" xmlns="http://www.w3.org/2000/svg" xmlns:xlink="http://www.w3.org/1999/xlink">
    <title>4.组件/2.通用/Bigicon/禁用/访存分析备份 19</title>
    <defs>
        <filter x="-7.7%" y="-7.7%" width="115.4%" height="115.4%" filterUnits="objectBoundingBox" id="filter-1">
            <feOffset dx="0" dy="1" in="SourceAlpha" result="shadowOffsetOuter1"></feOffset>
            <feGaussianBlur stdDeviation="0.5" in="shadowOffsetOuter1" result="shadowBlurOuter1"></feGaussianBlur>
            <feColorMatrix values="0 0 0 0 0   0 0 0 0 0   0 0 0 0 0  0 0 0 0.883987107 0" type="matrix" in="shadowBlurOuter1" result="shadowMatrixOuter1"></feColorMatrix>
            <feMerge>
                <feMergeNode in="shadowMatrixOuter1"></feMergeNode>
                <feMergeNode in="SourceGraphic"></feMergeNode>
            </feMerge>
        </filter>
        <linearGradient x1="50%" y1="31.1311638%" x2="50%" y2="97.5865407%" id="linearGradient-2">
            <stop stop-color="#B8BDCA" offset="0%"></stop>
            <stop stop-color="#868B98" offset="100%"></stop>
        </linearGradient>
    </defs>
    <g id="IDE-Dark-Components" stroke="none" stroke-width="1" fill="none" fill-rule="evenodd">
        <g id="Genera通用组件-icon" transform="translate(-526.000000, -731.000000)">
            <g id="icon-default-性能全景分析" transform="translate(523.000000, 727.000000)">
                <rect id="BOX" x="0" y="0" width="60" height="60"></rect>
                <g id="编组" filter="url(#filter-1)" transform="translate(4.000000, 4.000000)" fill-rule="nonzero">
                    <path d="M25.6124257,0 C39.7564305,0 51.2248515,11.468421 51.2248515,25.6124257 C51.2248515,39.7564305 39.7564305,51.2248515 25.6124257,51.2248515 C11.468421,51.2248515 -2.38742359e-12,39.7564305 -2.38742359e-12,25.6124257 C-2.38742359e-12,11.468421 11.468421,0 25.6124257,0 Z M25.6124257,3.65891796 C22.6452719,3.65891796 19.7695911,4.23634095 17.0654221,5.38546987 C14.4527259,6.48886232 12.1030146,8.07248775 10.0848926,10.0906097 C8.06677069,12.1087316 6.48314526,14.458443 5.37975281,17.0711391 C4.23062389,19.7753082 3.6532009,22.650989 3.6532009,25.6181428 C3.6532009,28.5852966 4.23634095,31.4609774 5.37975281,34.1651465 C6.48314526,36.7778426 8.06677069,39.1275539 10.0848926,41.1456759 C12.1030146,43.1637978 14.4527259,44.7474233 17.0654221,45.8508157 C19.7695911,46.9999446 22.6452719,47.5773676 25.6124257,47.5773676 C28.5795795,47.5773676 31.4552603,46.9942276 34.1594294,45.8508157 C36.7721255,44.7474233 39.1218369,43.1637978 41.1399588,41.1456759 C43.1580808,39.1275539 44.7417062,36.7778426 45.8450986,34.1651465 C46.9942276,31.4609774 47.5716506,28.5852966 47.5716506,25.6181428 C47.5716506,22.650989 46.9885105,19.7753082 45.8450986,17.0711391 C44.7417062,14.458443 43.1580808,12.1087316 41.1399588,10.0906097 C39.1218369,8.07248775 36.7721255,6.48886232 34.1594294,5.38546987 C31.4552603,4.23634095 28.5795795,3.65891796 25.6124257,3.65891796 Z M35.9603031,15.2645484 C35.9603031,15.2645484 29.6315184,26.7672717 28.2022536,28.1965365 C26.7729888,29.6258014 24.4575797,29.6258014 23.0283149,28.1965365 C21.5990501,26.7672717 21.5990501,24.4518627 23.0283149,23.0225979 C24.4575797,21.593333 35.9603031,15.2645484 35.9603031,15.2645484 Z" id="形状结合" fill="url(#linearGradient-2)"></path>
                    <path d="M10.8624127,19.3808311 C11.6685181,17.4770503 12.823364,15.7619325 14.2926483,14.2926483 C15.7619325,12.823364 17.4770503,11.6685181 19.3808311,10.8624127 C21.3532165,10.027722 23.4513773,9.60465965 25.6124257,9.60465965 C27.7734741,9.60465965 29.8716349,10.027722 31.8440204,10.8624127 C33.7478011,11.6685181 35.4629189,12.823364 36.9322032,14.2926483 L38.550131,12.6747205 C35.2399536,9.36454316 30.6663062,7.31783592 25.6124257,7.31783592 C15.5103819,7.31783592 7.31783592,15.5103819 7.31783592,25.6124257 L9.60465965,25.6124257 C9.60465965,23.4513773 10.027722,21.3532165 10.8624127,19.3808311 Z" id="形状-path" fill="#65D9D7"></path>
                </g>
            </g>
        </g>
    </g>
</svg>