<?xml version="1.0" encoding="UTF-8"?>
<svg width="53px" height="60px" viewBox="0 0 53 60" version="1.1" xmlns="http://www.w3.org/2000/svg" xmlns:xlink="http://www.w3.org/1999/xlink">
    <title>4.组件/2.通用/Bigicon/禁用/访存分析备份 29</title>
    <g id="IDE-Dark-Components" stroke="none" stroke-width="1" fill="none" fill-rule="evenodd">
        <g id="Genera通用组件-icon" transform="translate(-1054.000000, -1001.000000)">
            <g id="编组" transform="translate(1050.000000, 1001.000000)">
                <rect id="矩形" x="0" y="0" width="60" height="60"></rect>
                <g id="icon" transform="translate(4.500000, 0.750000)" fill="#616161" fill-rule="nonzero">
                    <path d="M25.1325586,0.241438852 L1.23600685,12.3052686 C0.478012862,12.687931 0,13.4647212 0,14.3138298 L0,42.462766 C0,43.2668519 0.429099813,44.0098202 1.12557786,44.4116566 L25.0221296,58.1988907 C25.7249608,58.6043926 26.5916843,58.6000554 27.290422,58.1875399 L50.6438703,44.4003058 C51.3293684,43.9956066 51.75,43.2588119 51.75,42.462766 L51.75,14.3138298 C51.75,13.4722595 51.2803525,12.7010417 50.532652,12.3147976 L27.1792037,0.250967763 C26.5379988,-0.0802632795 25.77682,-0.0838072284 25.1325586,0.241438852 Z M26.13525,4.776 L47.25,15.684 L47.25,41.17725 L26.133,53.6445 L4.5,41.163 L4.5,15.69825 L26.13525,4.776 Z" id="路径"></path>
                    <path d="M12.1963688,23.2580123 C12.5866436,22.5723212 13.4359354,22.311591 14.1378773,22.6423051 L14.2419877,22.6963688 L25.389,29.04075 L37.5541701,22.6711581 C38.2531216,22.3051617 39.1086059,22.5447937 39.5204652,23.2024154 L39.5788419,23.3041701 C39.9448383,24.0031216 39.7052063,24.8586059 39.0475846,25.2704652 L38.9458299,25.3288419 L26.0552049,32.0788419 C25.6405721,32.2959587 25.1508025,32.30607 24.7302568,32.111707 L24.6173873,32.0536312 L12.7580123,25.3036312 C12.0380367,24.8938427 11.7865803,23.9779879 12.1963688,23.2580123 Z" id="路径-2"></path>
                    <path d="M25.875,29.25 C26.6657713,29.25 27.3136238,29.8619083 27.3708857,30.6380532 L27.375,30.75 L27.375,42 C27.375,42.8284271 26.7034271,43.5 25.875,43.5 C25.0842287,43.5 24.4363762,42.8880917 24.3791143,42.1119468 L24.375,42 L24.375,30.75 C24.375,29.9215729 25.0465729,29.25 25.875,29.25 Z" id="路径-3"></path>
                </g>
            </g>
        </g>
    </g>
</svg>