<?xml version="1.0" encoding="UTF-8"?>
<svg width="45px" height="58px" viewBox="0 0 45 58" version="1.1" xmlns="http://www.w3.org/2000/svg" xmlns:xlink="http://www.w3.org/1999/xlink">
    <title>4.组件/2.通用/Bigicon/禁用/访存分析备份 46</title>
    <defs>
        <filter x="-11.9%" y="-7.1%" width="121.4%" height="114.3%" filterUnits="objectBoundingBox" id="filter-1">
            <feOffset dx="0" dy="1" in="SourceAlpha" result="shadowOffsetOuter1"></feOffset>
            <feGaussianBlur stdDeviation="0.5" in="shadowOffsetOuter1" result="shadowBlurOuter1"></feGaussianBlur>
            <feColorMatrix values="0 0 0 0 0   0 0 0 0 0   0 0 0 0 0  0 0 0 0.883987107 0" type="matrix" in="shadowBlurOuter1" result="shadowMatrixOuter1"></feColorMatrix>
            <feMerge>
                <feMergeNode in="shadowMatrixOuter1"></feMergeNode>
                <feMergeNode in="SourceGraphic"></feMergeNode>
            </feMerge>
        </filter>
        <linearGradient x1="78.8051781%" y1="15.4483408%" x2="78.8051781%" y2="93.9717074%" id="linearGradient-2">
            <stop stop-color="#B8BDCA" offset="0%"></stop>
            <stop stop-color="#868B98" offset="100%"></stop>
        </linearGradient>
    </defs>
    <g id="IDE-Dark-Components" stroke="none" stroke-width="1" fill="none" fill-rule="evenodd">
        <g id="Icon图标/缺省页" transform="translate(-1351.000000, -977.000000)">
            <g id="编组" transform="translate(1344.000000, 975.000000)">
                <rect id="BOX" x="0" y="0" width="60" height="60" rx="2"></rect>
                <g filter="url(#filter-1)" transform="translate(9.000000, 2.000000)" fill-rule="nonzero">
                    <path d="M32,9 C30.6173483,10.1089345 29.2705708,11.0543395 27.7922546,12.4238992 C26.6741752,13.4663998 24.6547564,14.8904693 24.5471338,16.8085342 C24.378226,19.7265139 28.3213992,22.4247509 26.2302319,26.1246061 C25.4350204,27.5350481 24.0897376,28.1363598 22.3827233,29 C22.1794362,28.5758453 22.8266666,28.219828 23.1046917,27.7684184 C25.7250035,23.4399966 20.3752626,22.0005962 21.0613568,16.6705562 C21.7220401,11.5193765 27.0478649,9.72566221 32,9" id="Fill-3" fill="#65D9D7"></path>
                    <path d="M42,49.0053507 C40.1224393,54.6552611 32.9090043,55.0449678 26.7127203,56 L20.9466413,56 C15.9175798,55.4480549 11.0769414,54.7087831 7,52.9057625 C17.6600762,55.4748159 33.2041448,55.2874891 40.6593616,49.811525 C41.0628871,49.5154817 41.4363983,48.9384483 42,49.0053507 Z M8.88645153,45.1408468 C7.58252265,45.4854368 4.20493726,44.9954729 4.08205391,46.8727704 C4.04109279,47.5942557 5.23579202,48.4449623 6.00381296,48.7482733 C10.4788149,50.5232707 19.4680733,50.7978658 26.8666749,49.9022908 C30.2988752,49.4841165 36.7485443,48.2726673 35.9259085,44.5629407 C36.9550566,44.6921619 37.874975,45.3867261 37.9859114,46.4402382 C38.3972292,50.4227652 29.692992,52.0972572 26.1805762,52.5028684 C18.5345012,53.3822907 8.98202747,53.208201 3.12117438,51.058103 C1.21306904,50.3653336 -1.09270047,49.0803001 -0.997124534,47.1599288 C-0.831573355,43.9276029 6.58068201,43.0320278 8.88645153,45.1408468 Z M13.5152639,41 C13.9338156,41.130159 13.3679338,41.3530563 13.3796532,41.522263 C14.6051724,43.5917912 20.6658,42.8580198 23.7480142,42.177939 C24.3674706,42.0347641 24.986927,41.6150013 25.49756,41.654049 C27.0612689,41.7598032 27.6522638,43.3412351 29,43.6161961 C24.7039861,46.1689396 14.2954442,47.2020767 10.0144981,44.009927 C9.81359332,41.6800808 11.7372566,41.4197628 13.5152639,41 Z M11.7827279,35 C12.4169849,35.0904034 11.3363988,35.5160525 11.5125813,36.060356 C13.8331568,38.6349683 21.0516061,37.9079747 24.6021033,37.1188287 C25.3437478,36.9530892 26.0853923,36.4539873 26.6256853,36.5142562 C27.97474,36.6498613 28.8388733,38.4070765 30,38.6349683 C25.8974643,40.7085953 17.9759628,41.6954986 12.1871087,40.4524525 C10.6887183,40.1341573 8.08457294,39.2244735 8.00403237,37.8759568 C7.88154357,36.0452888 10.5813309,35.2730935 11.7827279,35 Z M38.9922487,32.7149065 C39.2315994,37.2422104 33.8767826,39.7800238 30,40 C31.7977509,38.4132601 36.5480762,35.8641243 35.6186267,32.1940806 C35.2412563,30.7124763 33.2460847,29.8131619 30.9836091,30.2434094 C33.8767826,27.9546867 38.7808514,28.8523836 38.9922487,32.7149065 Z M13.9208023,28.0312047 C12.5139818,28.6992309 10.1670184,28.8235148 9.14372204,30.2527802 C10.1805945,31.0450904 11.6960235,31.0174718 13.101147,31.0865184 C18.8607954,31.3506218 26.0662955,30.8500337 30.9791364,29.9765937 C31.1437463,30.3373624 30.2969388,30.9605083 29.7521989,31.3644311 C26.6517636,33.6688626 17.0178436,34.3213534 10.3706595,33.8621932 C8.14757778,33.7102906 3.05655087,33.1130372 3.00054958,31.0865184 C2.93266922,28.6301843 9.17087418,28.3643547 11.7350547,28.1710241 C12.2407634,28.1295961 13.1826034,27.9224562 13.9208023,28.0312047 Z" id="形状结合" fill="url(#linearGradient-2)"></path>
                    <path d="M23.4606879,0 C24.3571577,0.869594226 25,2.48923394 25,4.21532116 C25,9.31170013 19.7392213,12.2627525 17.1742328,15.6739856 C16.6095525,16.4371323 15.8789774,17.6096925 15.8917385,18.8346576 C15.9172608,21.6137563 18.7135449,24.7220234 19.7392213,27 C17.9446864,25.7881361 15.7641271,24.1684964 14.2232199,22.2589919 C12.6855029,20.3625887 11.1445956,17.280524 12.5562964,14.6193364 C14.6730499,10.6152726 20.970671,8.2324862 23.20387,3.95165888 C23.743028,2.91174865 24.1657407,1.3183114 23.4606879,0 L23.4606879,0 Z" id="Fill-9-path" fill="#65D9D7"></path>
                </g>
            </g>
        </g>
    </g>
</svg>