<?xml version="1.0" encoding="UTF-8"?>
<svg width="51px" height="50px" viewBox="0 0 51 50" version="1.1" xmlns="http://www.w3.org/2000/svg" xmlns:xlink="http://www.w3.org/1999/xlink">
    <title>4.组件/2.通用/Bigicon/normal/进程线程分析</title>
    <defs>
        <filter x="-8.2%" y="-8.3%" width="116.3%" height="116.7%" filterUnits="objectBoundingBox" id="filter-1">
            <feOffset dx="0" dy="1" in="SourceAlpha" result="shadowOffsetOuter1"></feOffset>
            <feGaussianBlur stdDeviation="0.5" in="shadowOffsetOuter1" result="shadowBlurOuter1"></feGaussianBlur>
            <feColorMatrix values="0 0 0 0 0   0 0 0 0 0   0 0 0 0 0  0 0 0 0.883987107 0" type="matrix" in="shadowBlurOuter1" result="shadowMatrixOuter1"></feColorMatrix>
            <feMerge>
                <feMergeNode in="shadowMatrixOuter1"></feMergeNode>
                <feMergeNode in="SourceGraphic"></feMergeNode>
            </feMerge>
        </filter>
        <linearGradient x1="78.8051781%" y1="15.4483408%" x2="78.8051781%" y2="93.9717074%" id="linearGradient-2">
            <stop stop-color="#B8BDCA" offset="0%"></stop>
            <stop stop-color="#868B98" offset="100%"></stop>
        </linearGradient>
    </defs>
    <g id="sys-perf-ALL" stroke="none" stroke-width="1" fill="none" fill-rule="evenodd">
        <g id="新建C任务-应用2" transform="translate(-886.000000, -932.000000)" fill-rule="nonzero">
            <g id="编组-9备份-2" transform="translate(846.000000, 902.000000)">
                <g id="编组" transform="translate(35.000000, 24.000000)">
                    <g filter="url(#filter-1)" transform="translate(6.000000, 6.000000)">
                        <path d="M43.5,-3.55271368e-15 L5.5,-3.55271368e-15 C2.46243388,-3.55271368e-15 0,2.46243388 0,5.5 L0,41.7962963 C0,44.8338624 2.46243388,47.2962963 5.5,47.2962963 L43.5,47.2962963 C46.5375661,47.2962963 49,44.8338624 49,41.7962963 L49,5.5 C49,2.46243388 46.5375661,-3.55271368e-15 43.5,-3.55271368e-15 Z M5.5,3 L43.5,3 C44.8807119,3 46,4.11928813 46,5.5 L46,41.7962963 C46,43.1770082 44.8807119,44.2962963 43.5,44.2962963 L5.5,44.2962963 C4.11928813,44.2962963 3,43.1770082 3,41.7962963 L3,5.5 C3,4.11928813 4.11928813,3 5.5,3 Z" id="矩形" fill="url(#linearGradient-2)"></path>
                        <path d="M24.696,33.5 C26.824,33.5 28.588,32.9866667 29.988,31.96 C31.2013333,31.0453333 32.228,29.6453333 33.068,27.76 L33.068,27.76 L30.632,26.668 C29.4186667,29.3746667 27.44,30.728 24.696,30.728 C23.0533333,30.728 21.6813333,30.1866667 20.58,29.104 C19.236,27.7786667 18.564,25.8373333 18.564,23.28 C18.564,20.7226667 19.264,18.7066667 20.664,17.232 C21.896,15.944 23.408,15.3 25.2,15.3 C27.888,15.3 29.736,16.4666667 30.744,18.8 L30.744,18.8 L33.376,17.764 C31.864,14.2546667 29.1386667,12.5 25.2,12.5 C22.4746667,12.5 20.1973333,13.5266667 18.368,15.58 C16.5386667,17.652 15.624,20.2186667 15.624,23.28 C15.624,26.5466667 16.5013333,29.104 18.256,30.952 C19.8986667,32.6506667 22.0453333,33.5 24.696,33.5 Z" id="C" fill="#65D9D7"></path>
                    </g>
                </g>
            </g>
        </g>
    </g>
</svg>