<?xml version="1.0" encoding="UTF-8"?>
<svg width="43px" height="56px" viewBox="0 0 43 56" version="1.1" xmlns="http://www.w3.org/2000/svg" xmlns:xlink="http://www.w3.org/1999/xlink">
    <title>4.组件/2.通用/Bigicon/禁用/访存分析备份 49</title>
    <g id="IDE-Dark-Components" stroke="none" stroke-width="1" fill="none" fill-rule="evenodd">
        <g id="Icon图标/缺省页" transform="translate(-1353.000000, -1334.000000)">
            <g id="编组" transform="translate(1344.000000, 1332.000000)">
                <rect id="BOX" x="0" y="0" width="60" height="60" rx="2"></rect>
                <path d="M52,51.0053507 C50.1224393,56.6552611 42.9090043,57.0449678 36.7127203,58 L30.9466413,58 C25.9175798,57.4480549 21.0769414,56.7087831 17,54.9057625 C27.6600762,57.4748159 43.2041448,57.2874891 50.6593616,51.811525 C51.0628871,51.5154817 51.4363983,50.9384483 52,51.0053507 Z M18.8864515,47.1408468 C17.5825227,47.4854368 14.2049373,46.9954729 14.0820539,48.8727704 C14.0410928,49.5942557 15.235792,50.4449623 16.003813,50.7482733 C20.4788149,52.5232707 29.4680733,52.7978658 36.8666749,51.9022908 C40.2988752,51.4841165 46.7485443,50.2726673 45.9259085,46.5629407 C46.9550566,46.6921619 47.874975,47.3867261 47.9859114,48.4402382 C48.3972292,52.4227652 39.692992,54.0972572 36.1805762,54.5028684 C28.5345012,55.3822907 18.9820275,55.208201 13.1211744,53.058103 C11.213069,52.3653336 8.90729953,51.0803001 9.00287547,49.1599288 C9.16842664,45.9276029 16.580682,45.0320278 18.8864515,47.1408468 Z M23.5152639,43 C23.9338156,43.130159 23.3679338,43.3530563 23.3796532,43.522263 C24.6051724,45.5917912 30.6658,44.8580198 33.7480142,44.177939 C34.3674706,44.0347641 34.986927,43.6150013 35.49756,43.654049 C37.0612689,43.7598032 37.6522638,45.3412351 39,45.6161961 C34.7039861,48.1689396 24.2954442,49.2020767 20.0144981,46.009927 C19.8135933,43.6800808 21.7372566,43.4197628 23.5152639,43 Z M21.7827279,37 C22.4169849,37.0904034 21.3363988,37.5160525 21.5125813,38.060356 C23.8331568,40.6349683 31.0516061,39.9079747 34.6021033,39.1188287 C35.3437478,38.9530892 36.0853923,38.4539873 36.6256853,38.5142562 C37.97474,38.6498613 38.8388733,40.4070765 40,40.6349683 C35.8974643,42.7085953 27.9759628,43.6954986 22.1871087,42.4524525 C20.6887183,42.1341573 18.0845729,41.2244735 18.0040324,39.8759568 C17.8815436,38.0452888 20.5813309,37.2730935 21.7827279,37 Z M48.9922487,34.7149065 C49.2315994,39.2422104 43.8767826,41.7800238 40,42 C41.7977509,40.4132601 46.5480762,37.8641243 45.6186267,34.1940806 C45.2412563,32.7124763 43.2460847,31.8131619 40.9836091,32.2434094 C43.8767826,29.9546867 48.7808514,30.8523836 48.9922487,34.7149065 Z M23.9208023,30.0312047 C22.5139818,30.6992309 20.1670184,30.8235148 19.143722,32.2527802 C20.1805945,33.0450904 21.6960235,33.0174718 23.101147,33.0865184 C28.8607954,33.3506218 36.0662955,32.8500337 40.9791364,31.9765937 C41.1437463,32.3373624 40.2969388,32.9605083 39.7521989,33.3644311 C36.6517636,35.6688626 27.0178436,36.3213534 20.3706595,35.8621932 C18.1475778,35.7102906 13.0565509,35.1130372 13.0005496,33.0865184 C12.9326692,30.6301843 19.1708742,30.3643547 21.7350547,30.1710241 C22.2407634,30.1295961 23.1826034,29.9224562 23.9208023,30.0312047 Z M42,11 C40.6173483,12.1089345 39.2705708,13.0543395 37.7922546,14.4238992 C36.6741752,15.4663998 34.6547564,16.8904693 34.5471338,18.8085342 C34.378226,21.7265139 38.3213992,24.4247509 36.2302319,28.1246061 C35.4350204,29.5350481 34.0897376,30.1363598 32.3827233,31 C32.1794362,30.5758453 32.8266666,30.219828 33.1046917,29.7684184 C35.7250035,25.4399966 30.3752626,24.0005962 31.0613568,18.6705562 C31.7220401,13.5193765 37.0478649,11.7256622 42,11 Z M33.4606879,2 C34.3571577,2.86959423 35,4.48923394 35,6.21532116 C35,11.3117001 29.7392213,14.2627525 27.1742328,17.6739856 C26.6095525,18.4371323 25.8789774,19.6096925 25.8917385,20.8346576 C25.9172608,23.6137563 28.7135449,26.7220234 29.7392213,29 C27.9446864,27.7881361 25.7641271,26.1684964 24.2232199,24.2589919 C22.6855029,22.3625887 21.1445956,19.280524 22.5562964,16.6193364 C24.6730499,12.6152726 30.970671,10.2324862 33.20387,5.95165888 C33.743028,4.91174865 34.1657407,3.3183114 33.4606879,2 Z" id="形状结合" fill="#616161" fill-rule="nonzero"></path>
            </g>
        </g>
    </g>
</svg>