<?xml version="1.0" encoding="UTF-8"?>
<svg width="60px" height="60px" viewBox="0 0 60 60" version="1.1" xmlns="http://www.w3.org/2000/svg" xmlns:xlink="http://www.w3.org/1999/xlink">
    <title>4.组件/2.通用/Bigicon/存储IO分析/Hover</title>
    <defs>
        <filter x="-7.1%" y="-8.5%" width="114.3%" height="117.0%" filterUnits="objectBoundingBox" id="filter-1">
            <feOffset dx="0" dy="1" in="SourceAlpha" result="shadowOffsetOuter1"></feOffset>
            <feGaussianBlur stdDeviation="0.5" in="shadowOffsetOuter1" result="shadowBlurOuter1"></feGaussianBlur>
            <feColorMatrix values="0 0 0 0 0   0 0 0 0 0   0 0 0 0 0  0 0 0 0.883987107 0" type="matrix" in="shadowBlurOuter1" result="shadowMatrixOuter1"></feColorMatrix>
            <feMerge>
                <feMergeNode in="shadowMatrixOuter1"></feMergeNode>
                <feMergeNode in="SourceGraphic"></feMergeNode>
            </feMerge>
        </filter>
        <linearGradient x1="78.8051781%" y1="15.4483408%" x2="78.8051781%" y2="93.9717074%" id="linearGradient-2">
            <stop stop-color="#B8BDCA" offset="0%"></stop>
            <stop stop-color="#868B98" offset="100%"></stop>
        </linearGradient>
    </defs>
    <g id="4.组件/2.通用/Bigicon/存储IO分析/Hover" stroke="none" stroke-width="1" fill="none" fill-rule="evenodd">
        <rect id="BOX" stroke="#979797" fill="#D8D8D8" opacity="0" x="0.5" y="0.5" width="59" height="59"></rect>
        <g id="编组" filter="url(#filter-1)" transform="translate(2.000000, 6.000000)" fill-rule="nonzero">
            <path d="M52.6766784,32 L52.865263,32.0051207 C54.612943,32.1002832 56,33.5098784 56,35.2348099 L56,35.2348099 L56,43.7651901 L55.9947391,43.948752 C55.8969729,45.6498851 54.4488079,47 52.6766784,47 L52.6766784,47 L3.32332155,47 L3.13473696,46.9948793 C1.38705703,46.8997168 0,45.4901216 0,43.7651901 L0,43.7651901 L0,35.3012636 L0.00526085808,35.1177017 C0.103027133,33.4165685 1.55119208,32.0664537 3.32332155,32.0664537 L3.32332155,32.0664537 L9.66113554,32.0664537 L9.79499234,32.0730328 C10.455158,32.1382907 10.9703228,32.6809724 10.9703228,33.3407727 C10.9703228,34.0445597 10.3841797,34.6150918 9.66113554,34.6150918 L9.66113554,34.6150918 L3.32332155,34.6150918 L3.22766442,34.6213557 C2.88357927,34.6667917 2.61837456,34.9538816 2.61837456,35.3012636 L2.61837456,35.3012636 L2.61837456,43.7651901 L2.62480989,43.8582995 C2.67148906,44.1932205 2.96643437,44.4513619 3.32332155,44.4513619 L3.32332155,44.4513619 L52.6766784,44.4513619 L52.7723356,44.4450979 C53.1164207,44.399662 53.3816254,44.1125721 53.3816254,43.7651901 L53.3816254,43.7651901 L53.3816254,35.2348099 L53.3751901,35.1417005 C53.3285109,34.8067795 53.0335656,34.5486381 52.6766784,34.5486381 L52.6766784,34.5486381 L47.3111084,34.5486381 L47.1772516,34.542059 C46.517086,34.4768011 46.0019211,33.9341194 46.0019211,33.2743191 C46.0019211,32.5705321 46.5880642,32 47.3111084,32 L47.3111084,32 L52.6766784,32 Z M52.6766784,-4.35207426e-14 C54.4488079,-4.35207426e-14 55.8969729,1.35011488 55.9947391,3.051248 L56,3.23480994 L56,11.7651901 C56,13.4901216 54.612943,14.8997168 52.865263,14.9948793 L52.6766784,15 L47.3111084,15 C46.5880642,15 46.0019211,14.4294679 46.0019211,13.7256809 C46.0019211,13.0658806 46.517086,12.5231989 47.1772516,12.457941 L47.3111084,12.4513619 L52.6766784,12.4513619 C53.0335656,12.4513619 53.3285109,12.1932205 53.3751901,11.8582995 L53.3816254,11.7651901 L53.3816254,3.23480994 C53.3816254,2.8874279 53.1164207,2.60033801 52.7723356,2.55490207 L52.6766784,2.54863813 L3.32332155,2.54863813 C2.96643437,2.54863813 2.67148906,2.80677952 2.62480989,3.14170049 L2.61837456,3.23480994 L2.61837456,11.6987364 C2.61837456,12.0461184 2.88357927,12.3332083 3.22766442,12.3786443 L3.32332155,12.3849082 L9.66113554,12.3849082 C10.3841797,12.3849082 10.9703228,12.9554403 10.9703228,13.6592273 C10.9703228,14.3190276 10.455158,14.8617093 9.79499234,14.9269672 L9.66113554,14.9335463 L3.32332155,14.9335463 C1.55119208,14.9335463 0.103027133,13.5834315 0.00526085808,11.8822983 L0,11.6987364 L0,3.23480994 C0,1.50987844 1.38705703,0.100283162 3.13473696,0.00512074313 L3.32332155,-4.35207426e-14 L52.6766784,-4.35207426e-14 Z" id="蒙版" fill="url(#linearGradient-2)"></path>
            <path d="M36,10 C36.517767,10 36.9436271,10.4676043 37,11 L36.9999523,28 L40.5870477,28 C40.6957941,28 40.803007,28.022166 40.9022696,28.0647207 L40.9986443,28.1140057 C41.3775085,28.3413242 41.5003606,28.8327324 41.273042,29.2115966 L41.273042,29.2115966 L36.6859943,36.8566761 C36.6184345,36.9692758 36.5241963,37.063514 36.4115966,37.1310738 C36.0327324,37.3583924 35.5413242,37.2355403 35.3140057,36.8566761 L35.3140057,36.8566761 L30.726958,29.2115966 C30.6523586,29.0872643 30.6129523,28.9449952 30.6129523,28.8 C30.6129523,28.3581722 30.9711245,28 31.4129523,28 L31.4129523,28 L34.9999523,28 L35,11 C35,10.5320298 35.4477153,10 36,10 Z" id="形状结合" fill="#65D9D7"></path>
            <path d="M21.3870477,10 C21.9048146,10 22.3306748,10.4676043 22.3870477,11 L22.387,28 L25.9740954,28 C26.0828418,28 26.1900547,28.022166 26.2893173,28.0647207 L26.385692,28.1140057 C26.7645562,28.3413242 26.8874083,28.8327324 26.6600897,29.2115966 L26.6600897,29.2115966 L22.073042,36.8566761 C22.0054822,36.9692758 21.911244,37.063514 21.7986443,37.1310738 C21.4197801,37.3583924 20.9283719,37.2355403 20.7010534,36.8566761 L20.7010534,36.8566761 L16.1140057,29.2115966 C16.0394063,29.0872643 16,28.9449952 16,28.8 C16,28.3581722 16.3581722,28 16.8,28 L16.8,28 L20.387,28 L20.3870477,11 C20.3870477,10.5320298 20.8347629,10 21.3870477,10 Z" id="形状结合备份" fill="#65D9D7" transform="translate(21.387108, 23.622600) scale(1, -1) translate(-21.387108, -23.622600) "></path>
        </g>
    </g>
</svg>