<?xml version="1.0" encoding="UTF-8"?>
<svg width="60px" height="60px" viewBox="0 0 60 60" version="1.1" xmlns="http://www.w3.org/2000/svg" xmlns:xlink="http://www.w3.org/1999/xlink">
    <title>4.组件/2.通用/Bigicon/浅色/微架构/选中</title>
    <g id="4.组件/2.通用/Bigicon/浅色/微架构/选中" stroke="none" stroke-width="1" fill="none" fill-rule="evenodd">
        <rect id="BOX" x="0" y="0" width="60" height="60"></rect>
        <path d="M32,6 C39.1797017,6 45,11.8202983 45,19 C45,22.1942347 43.847964,25.1193969 41.9367206,27.382658 L46.208,35.0022587 L46.2491793,35.0038068 C50.5521622,35.1354571 54,38.6650857 54,43 C54,47.418278 50.418278,51 46,51 C41.581722,51 38,47.418278 38,43 C38,39.6136813 40.1039793,36.7187733 43.0760103,35.5512034 L39.6786377,29.4910162 C37.5270848,31.0684618 34.8723286,32 32,32 C29.508963,32 27.1815684,31.2993634 25.2041293,30.0844034 L21.7639755,36.072292 C24.3347926,37.9861995 26,41.0486348 26,44.5 C26,50.2989899 21.2989899,55 15.5,55 C9.70101013,55 5,50.2989899 5,44.5 C5,38.7010101 9.70101013,34 15.5,34 C16.7743292,34 17.9956367,34.2270125 19.1256881,34.6428029 L22.8224506,28.2072032 C20.4611947,25.8535048 19,22.5973926 19,19 C19,11.8202983 24.8202983,6 32,6 Z M15.5,37 C11.3578644,37 8,40.3578644 8,44.5 C8,48.6421356 11.3578644,52 15.5,52 C19.6421356,52 23,48.6421356 23,44.5 C23,40.3578644 19.6421356,37 15.5,37 Z M46,38 C43.2385763,38 41,40.2385763 41,43 C41,45.7614237 43.2385763,48 46,48 C48.7614237,48 51,45.7614237 51,43 C51,40.2385763 48.7614237,38 46,38 Z M32,9 C26.4771525,9 22,13.4771525 22,19 C22,24.5228475 26.4771525,29 32,29 C37.5228475,29 42,24.5228475 42,19 C42,13.4771525 37.5228475,9 32,9 Z" id="形状结合" fill="#0067FF"></path>
    </g>
</svg>