<?xml version="1.0" encoding="UTF-8"?>
<svg width="60px" height="60px" viewBox="0 0 60 60" version="1.1" xmlns="http://www.w3.org/2000/svg" xmlns:xlink="http://www.w3.org/1999/xlink">
    <title>4.组件/2.通用/Bigicon/浅色/应用/未选中</title>
    <g id="4.组件/2.通用/Bigicon/浅色/应用/未选中" stroke="none" stroke-width="1" fill="none" fill-rule="evenodd">
        <rect id="矩形" x="0" y="0" width="60" height="60"></rect>
        <path d="M29.6325586,0.991438852 L5.73600685,13.0552686 C4.97801286,13.437931 4.5,14.2147212 4.5,15.0638298 L4.5,43.212766 C4.5,44.0168519 4.92909981,44.7598202 5.62557786,45.1616566 L29.5221296,58.9488907 C30.2249608,59.3543926 31.0916843,59.3500554 31.790422,58.9375399 L55.1438703,45.1503058 C55.8293684,44.7456066 56.25,44.0088119 56.25,43.212766 L56.25,15.0638298 C56.25,14.2222595 55.7803525,13.4510417 55.032652,13.0647976 L31.6792037,1.00096776 C31.0379988,0.66973672 30.27682,0.666192772 29.6325586,0.991438852 Z M30.63525,5.526 L51.75,16.434 L51.75,41.92725 L30.633,54.3945 L9,41.913 L9,16.44825 L30.63525,5.526 Z" id="路径" fill="#979797"></path>
        <path d="M16.6963688,24.0080123 C17.0866436,23.3223212 17.9359354,23.061591 18.6378773,23.3923051 L18.7419877,23.4463688 L29.889,29.79075 L42.0541701,23.4211581 C42.7531216,23.0551617 43.6086059,23.2947937 44.0204652,23.9524154 L44.0788419,24.0541701 C44.4448383,24.7531216 44.2052063,25.6086059 43.5475846,26.0204652 L43.4458299,26.0788419 L30.5552049,32.8288419 C30.1405721,33.0459587 29.6508025,33.05607 29.2302568,32.861707 L29.1173873,32.8036312 L17.2580123,26.0536312 C16.5380367,25.6438427 16.2865803,24.7279879 16.6963688,24.0080123 Z" id="路径-2" fill="#979797"></path>
        <path d="M30.375,30 C31.1657713,30 31.8136238,30.6119083 31.8708857,31.3880532 L31.875,31.5 L31.875,42.75 C31.875,43.5784271 31.2034271,44.25 30.375,44.25 C29.5842287,44.25 28.9363762,43.6380917 28.8791143,42.8619468 L28.875,42.75 L28.875,31.5 C28.875,30.6715729 29.5465729,30 30.375,30 Z" id="路径-3" fill="#979797"></path>
    </g>
</svg>