<?xml version="1.0" encoding="UTF-8"?>
<svg width="41px" height="49px" viewBox="0 0 41 49" version="1.1" xmlns="http://www.w3.org/2000/svg" xmlns:xlink="http://www.w3.org/1999/xlink">
    <title>4.组件/2.通用/Bigicon/禁用/访存分析备份 48</title>
    <g id="IDE-Dark-Components" stroke="none" stroke-width="1" fill="none" fill-rule="evenodd">
        <g id="Icon图标/缺省页" transform="translate(-1226.000000, -1338.000000)">
            <g id="编组" transform="translate(1216.000000, 1332.000000)">
                <rect id="BOX" x="0" y="0" width="60" height="60" rx="2"></rect>
                <g id="编组备份" transform="translate(10.000000, 6.000000)" fill="#616161" fill-rule="nonzero">
                    <path d="M20.4502829,3.55271368e-15 C27.8028833,3.55271368e-15 33.757882,6.13875168 33.757882,13.7021778 L33.757882,18.7022901 L38.3373754,18.7022901 C39.8067906,18.7022901 41,19.9289403 41,21.4416255 L41,46.2606646 C41,47.7733498 39.8123147,49 38.3373754,49 L2.66262463,49 C1.19320938,49 3.19744231e-14,47.7733498 3.19744231e-14,46.2606646 L3.19744231e-14,21.4416255 C3.19744231e-14,19.9289403 1.19320938,18.7022901 2.66262463,18.7022901 L7.1371598,18.7022901 L7.1371598,13.7021778 C7.1371598,6.13325101 13.0976826,3.55271368e-15 20.4502829,3.55271368e-15 Z M36.7409054,21.9806915 L4.25909458,21.9806915 C3.67353813,21.9806915 3.19293991,22.4702515 3.19293991,23.0753256 L3.19293991,44.6159632 C3.19293991,45.2210373 3.66801401,45.7105972 4.25909458,45.7105972 L36.7409054,45.7105972 C37.3264619,45.7105972 37.8070601,45.2210373 37.8070601,44.6159632 L37.8070601,23.0753256 C37.8070601,22.4702515 37.331986,21.9806915 36.7409054,21.9806915 Z M20.4447588,3.28940278 C14.8543519,3.28940278 10.3245756,7.95397396 10.3245756,13.7021778 L10.3245756,18.7022901 L30.5594179,18.7022901 L30.5594179,13.7021778 L30.5649421,13.7021778 C30.5649421,7.94847328 26.0351657,3.28940278 20.4447588,3.28940278 Z" id="形状结合"></path>
                    <path d="M20.5,38.4772115 C19.6161412,38.4772115 18.90353,37.7401212 18.90353,36.8325101 L18.90353,30.8587786 C18.90353,29.9511675 19.6161412,29.2140772 20.5,29.2140772 C21.3838588,29.2140772 22.09647,29.9511675 22.09647,30.8587786 L22.09647,36.8325101 C22.09647,37.7401212 21.3838588,38.4772115 20.5,38.4772115 Z" id="路径"></path>
                </g>
            </g>
        </g>
    </g>
</svg>