<?xml version="1.0" encoding="UTF-8"?>
<svg width="55px" height="45px" viewBox="0 0 55 45" version="1.1" xmlns="http://www.w3.org/2000/svg" xmlns:xlink="http://www.w3.org/1999/xlink">
    <title>4.组件/2.通用/Bigicon/禁用/访存分析备份 20</title>
    <defs>
        <filter x="-6.7%" y="-6.7%" width="113.3%" height="113.3%" filterUnits="objectBoundingBox" id="filter-1">
            <feOffset dx="0" dy="1" in="SourceAlpha" result="shadowOffsetOuter1"></feOffset>
            <feGaussianBlur stdDeviation="0.5" in="shadowOffsetOuter1" result="shadowBlurOuter1"></feGaussianBlur>
            <feColorMatrix values="0 0 0 0 0   0 0 0 0 0   0 0 0 0 0  0 0 0 0.883987107 0" type="matrix" in="shadowBlurOuter1" result="shadowMatrixOuter1"></feColorMatrix>
            <feMerge>
                <feMergeNode in="shadowMatrixOuter1"></feMergeNode>
                <feMergeNode in="SourceGraphic"></feMergeNode>
            </feMerge>
        </filter>
        <linearGradient x1="81.658346%" y1="68.7042948%" x2="81.658346%" y2="4.05194152%" id="linearGradient-2">
            <stop stop-color="#B8BDCA" offset="0%"></stop>
            <stop stop-color="#868B98" offset="100%"></stop>
        </linearGradient>
    </defs>
    <g id="IDE-Dark-Components" stroke="none" stroke-width="1" fill="none" fill-rule="evenodd">
        <g id="Genera通用组件-icon" transform="translate(-157.000000, -736.000000)">
            <g id="icon" transform="translate(155.000000, 727.000000)" filter="url(#filter-1)">
                <rect id="BOX" x="0" y="0" width="60" height="60"></rect>
                <g id="编组-4" transform="translate(3.000000, 8.000000)" fill="#65D9D7">
                    <path d="M46.4992636,2.66233547 L53.3356592,15.5308448 C53.5947665,16.0185761 53.40943,16.6240084 52.9216987,16.8831157 C52.7772284,16.9598655 52.616135,17 52.4525435,17 L38.7797523,17 C38.2274676,17 37.7797523,16.5522847 37.7797523,16 C37.7797523,15.8364085 37.8198868,15.675315 37.8966366,15.5308448 L44.7330322,2.66233547 C44.9921395,2.17460413 45.5975718,1.9892677 46.0853031,2.24837498 C46.2614955,2.34197716 46.4056614,2.48614314 46.4992636,2.66233547 Z" id="三角形" transform="translate(45.616148, 9.000000) rotate(-270.000000) translate(-45.616148, -9.000000) "></path>
                    <path d="M38,7.13387905 C38.8284271,7.13387905 39.5,7.80545193 39.5,8.63387905 C39.5,9.46230618 38.8284271,10.1338791 38,10.1338791 C31.5091376,10.1338791 26.7276358,14.5183889 23.5766759,23.655044 L23.4230249,24.1082207 C19.8533845,34.8171419 12.4569846,39.2549818 1.7058258,37.1047501 C0.893486168,36.9422821 0.366661061,36.1520445 0.529128986,35.3397048 C0.691596912,34.5273652 1.48183457,34.0005401 2.2941742,34.163008 C11.4145592,35.987085 17.3143951,32.5485211 20.4462876,23.5433512 L20.5769751,23.1595374 C24.095342,12.6044365 29.9306033,7.13387905 38,7.13387905 Z" id="路径-7" fill-rule="nonzero"></path>
                </g>
                <g id="编组-4" transform="translate(29.500000, 33.500000) scale(1, -1) translate(-29.500000, -33.500000) translate(3.000000, 15.000000)" fill="url(#linearGradient-2)">
                    <path d="M18.5655055,26.7265019 L19.8538548,30.2067435 C15.7634504,35.6850673 9.65061775,37.6937085 1.7058258,36.1047501 C0.893486168,35.9422821 0.366661061,35.1520445 0.529128986,34.3397048 C0.691596912,33.5273652 1.48183457,33.0005401 2.2941742,33.163008 C9.8334281,34.6708588 15.1719846,32.58259 18.5655055,26.7265019 Z M38.6161479,0.163604433 C38.7797394,0.163604433 38.9408329,0.20373889 39.0853031,0.280488714 L51.9538124,7.11688428 C52.4415438,7.37599156 52.6268802,7.98142388 52.3677729,8.46915523 C52.2741707,8.64534756 52.1300048,8.78951354 51.9538124,8.88311572 L39.0853031,15.7195113 C38.5975718,15.9786186 37.9921395,15.7932821 37.7330322,15.3055508 C37.6562824,15.1610805 37.6161479,14.9999871 37.6161479,14.8363956 L37.6164339,9.13903912 C33.1247755,9.26056063 29.4682347,11.529676 26.6198592,16.0720992 L25.3524393,12.6514984 C28.5706955,8.44748352 32.6651839,6.24580873 37.6162739,6.13803764 L37.6161479,1.16360443 C37.6161479,0.611319683 38.0638631,0.163604433 38.6161479,0.163604433 Z" id="形状结合"></path>
                </g>
            </g>
        </g>
    </g>
</svg>