<?xml version="1.0" encoding="UTF-8"?>
<svg width="43px" height="56px" viewBox="0 0 43 56" version="1.1" xmlns="http://www.w3.org/2000/svg" xmlns:xlink="http://www.w3.org/1999/xlink">
    <title>4.组件/2.通用/Bigicon/禁用/访存分析备份 43</title>
    <g id="IDE-Dark-Components" stroke="none" stroke-width="1" fill="none" fill-rule="evenodd">
        <g id="Icon图标/缺省页" transform="translate(-1352.000000, -628.000000)">
            <g id="编组" transform="translate(1344.000000, 626.000000)">
                <rect id="BOX" x="0" y="0" width="60" height="60" rx="2"></rect>
                <path d="M51,51.0053507 C49.1224393,56.6552611 41.9090043,57.0449678 35.7127203,58 L29.9466413,58 C24.9175798,57.4480549 20.0769414,56.7087831 16,54.9057625 C26.6600762,57.4748159 42.2041448,57.2874891 49.6593616,51.811525 C50.0628871,51.5154817 50.4363983,50.9384483 51,51.0053507 Z M17.8864515,47.1408468 C16.5825227,47.4854368 13.2049373,46.9954729 13.0820539,48.8727704 C13.0410928,49.5942557 14.235792,50.4449623 15.003813,50.7482733 C19.4788149,52.5232707 28.4680733,52.7978658 35.8666749,51.9022908 C39.2988752,51.4841165 45.7485443,50.2726673 44.9259085,46.5629407 C45.9550566,46.6921619 46.874975,47.3867261 46.9859114,48.4402382 C47.3972292,52.4227652 38.692992,54.0972572 35.1805762,54.5028684 C27.5345012,55.3822907 17.9820275,55.208201 12.1211744,53.058103 C10.213069,52.3653336 7.90729953,51.0803001 8.00287547,49.1599288 C8.16842664,45.9276029 15.580682,45.0320278 17.8864515,47.1408468 Z M22.5152639,43 C22.9338156,43.130159 22.3679338,43.3530563 22.3796532,43.522263 C23.6051724,45.5917912 29.6658,44.8580198 32.7480142,44.177939 C33.3674706,44.0347641 33.986927,43.6150013 34.49756,43.654049 C36.0612689,43.7598032 36.6522638,45.3412351 38,45.6161961 C33.7039861,48.1689396 23.2954442,49.2020767 19.0144981,46.009927 C18.8135933,43.6800808 20.7372566,43.4197628 22.5152639,43 Z M20.7827279,37 C21.4169849,37.0904034 20.3363988,37.5160525 20.5125813,38.060356 C22.8331568,40.6349683 30.0516061,39.9079747 33.6021033,39.1188287 C34.3437478,38.9530892 35.0853923,38.4539873 35.6256853,38.5142562 C36.97474,38.6498613 37.8388733,40.4070765 39,40.6349683 C34.8974643,42.7085953 26.9759628,43.6954986 21.1871087,42.4524525 C19.6887183,42.1341573 17.0845729,41.2244735 17.0040324,39.8759568 C16.8815436,38.0452888 19.5813309,37.2730935 20.7827279,37 Z M47.9922487,34.7149065 C48.2315994,39.2422104 42.8767826,41.7800238 39,42 C40.7977509,40.4132601 45.5480762,37.8641243 44.6186267,34.1940806 C44.2412563,32.7124763 42.2460847,31.8131619 39.9836091,32.2434094 C42.8767826,29.9546867 47.7808514,30.8523836 47.9922487,34.7149065 Z M22.9208023,30.0312047 C21.5139818,30.6992309 19.1670184,30.8235148 18.143722,32.2527802 C19.1805945,33.0450904 20.6960235,33.0174718 22.101147,33.0865184 C27.8607954,33.3506218 35.0662955,32.8500337 39.9791364,31.9765937 C40.1437463,32.3373624 39.2969388,32.9605083 38.7521989,33.3644311 C35.6517636,35.6688626 26.0178436,36.3213534 19.3706595,35.8621932 C17.1475778,35.7102906 12.0565509,35.1130372 12.0005496,33.0865184 C11.9326692,30.6301843 18.1708742,30.3643547 20.7350547,30.1710241 C21.2407634,30.1295961 22.1826034,29.9224562 22.9208023,30.0312047 Z M41,11 C39.6173483,12.1089345 38.2705708,13.0543395 36.7922546,14.4238992 C35.6741752,15.4663998 33.6547564,16.8904693 33.5471338,18.8085342 C33.378226,21.7265139 37.3213992,24.4247509 35.2302319,28.1246061 C34.4350204,29.5350481 33.0897376,30.1363598 31.3827233,31 C31.1794362,30.5758453 31.8266666,30.219828 32.1046917,29.7684184 C34.7250035,25.4399966 29.3752626,24.0005962 30.0613568,18.6705562 C30.7220401,13.5193765 36.0478649,11.7256622 41,11 Z M32.4606879,2 C33.3571577,2.86959423 34,4.48923394 34,6.21532116 C34,11.3117001 28.7392213,14.2627525 26.1742328,17.6739856 C25.6095525,18.4371323 24.8789774,19.6096925 24.8917385,20.8346576 C24.9172608,23.6137563 27.7135449,26.7220234 28.7392213,29 C26.9446864,27.7881361 24.7641271,26.1684964 23.2232199,24.2589919 C21.6855029,22.3625887 20.1445956,19.280524 21.5562964,16.6193364 C23.6730499,12.6152726 29.970671,10.2324862 32.20387,5.95165888 C32.743028,4.91174865 33.1657407,3.3183114 32.4606879,2 Z" id="形状结合" fill="#80858F" fill-rule="nonzero"></path>
            </g>
        </g>
    </g>
</svg>