<?xml version="1.0" encoding="UTF-8"?>
<svg width="58px" height="49px" viewBox="0 0 58 49" version="1.1" xmlns="http://www.w3.org/2000/svg" xmlns:xlink="http://www.w3.org/1999/xlink">
    <title>4.组件/2.通用/Bigicon/禁用/访存分析备份 13</title>
    <g id="IDE-Dark-Components" stroke="none" stroke-width="1" fill="none" fill-rule="evenodd">
        <g id="Genera通用组件-icon" transform="translate(-345.000000, -494.000000)">
            <g id="进程线程性能分析" transform="translate(344.000000, 490.000000)">
                <rect id="BOX" x="0" y="0" width="60" height="60" rx="2"></rect>
                <g id="编组-3" transform="translate(4.000000, 8.000000)" fill="#80858F" fill-rule="nonzero">
                    <path d="M37,-4 L14,-4 C10.6862915,-4 8,-1.3137085 8,2 L8,13 C8,16.3137085 10.6862915,19 14,19 L37,19 C40.3137085,19 43,16.3137085 43,13 L43,2 C43,-1.3137085 40.3137085,-4 37,-4 Z M37,0 C38.1045695,0 39,0.8954305 39,2 L39,13 C39,14.1045695 38.1045695,15 37,15 L14,15 C12.8954305,15 12,14.1045695 12,13 L12,2 C12,0.8954305 12.8954305,0 14,0 L37,0 Z" id="矩形"></path>
                    <path d="M8,29 L2,29 C-0.761423749,29 -3,31.2385763 -3,34 L-3,40 C-3,42.7614237 -0.761423749,45 2,45 L8,45 C10.7614237,45 13,42.7614237 13,40 L13,34 C13,31.2385763 10.7614237,29 8,29 Z M8,32 C9.1045695,32 10,32.8954305 10,34 L10,40 C10,41.1045695 9.1045695,42 8,42 L2,42 C0.8954305,42 0,41.1045695 0,40 L0,34 C0,32.8954305 0.8954305,32 2,32 L8,32 Z" id="矩形备份"></path>
                    <path d="M29,29 L23,29 C20.2385763,29 18,31.2385763 18,34 L18,40 C18,42.7614237 20.2385763,45 23,45 L29,45 C31.7614237,45 34,42.7614237 34,40 L34,34 C34,31.2385763 31.7614237,29 29,29 Z M29,32 C30.1045695,32 31,32.8954305 31,34 L31,40 C31,41.1045695 30.1045695,42 29,42 L23,42 C21.8954305,42 21,41.1045695 21,40 L21,34 C21,32.8954305 21.8954305,32 23,32 L29,32 Z" id="矩形备份-4"></path>
                    <path d="M50,29 L44,29 C41.2385763,29 39,31.2385763 39,34 L39,40 C39,42.7614237 41.2385763,45 44,45 L50,45 C52.7614237,45 55,42.7614237 55,40 L55,34 C55,31.2385763 52.7614237,29 50,29 Z M50,32 C51.1045695,32 52,32.8954305 52,34 L52,40 C52,41.1045695 51.1045695,42 50,42 L44,42 C42.8954305,42 42,41.1045695 42,40 L42,34 C42,32.8954305 42.8954305,32 44,32 L50,32 Z" id="矩形备份-5"></path>
                    <path d="M44,22.5 C46.4142733,22.5 48.3844891,24.4012365 48.495102,26.7881643 L48.5,27 L48.5,31 L45.5,31 L45.5,27 C45.5,26.2203039 44.9051119,25.5795513 44.14446,25.5068666 L44,25.5 L8,25.5 C7.22030388,25.5 6.57955132,26.0948881 6.50686658,26.85554 L6.5,27 L6.5,29.8333333 L3.5,29.8333333 L3.5,27 C3.5,24.5857267 5.40123652,22.6155109 7.7881643,22.504898 L8,22.5 L44,22.5 Z" id="路径-2"></path>
                    <polygon id="路径-3" points="27 19 27 31 24 31 24 19"></polygon>
                </g>
            </g>
        </g>
    </g>
</svg>