<?xml version="1.0" encoding="UTF-8"?>
<svg width="64px" height="64px" viewBox="0 0 64 64" version="1.1" xmlns="http://www.w3.org/2000/svg" xmlns:xlink="http://www.w3.org/1999/xlink">
    <title>icon-hover-C++程序分析</title>
    <g id="icon-hover-C++程序分析" stroke="none" stroke-width="1" fill="none" fill-rule="evenodd">
        <g id="编组" transform="translate(9.000000, 10.000000)">
            <rect id="矩形" stroke="#5B7EDE" stroke-width="3" x="0" y="7.10542736e-15" width="46" height="44.2962963" rx="4"></rect>
            <path d="M23.196,32 C25.324,32 27.088,31.4866667 28.488,30.46 C29.7013333,29.5453333 30.728,28.1453333 31.568,26.26 L31.568,26.26 L29.132,25.168 C27.9186667,27.8746667 25.94,29.228 23.196,29.228 C21.5533333,29.228 20.1813333,28.6866667 19.08,27.604 C17.736,26.2786667 17.064,24.3373333 17.064,21.78 C17.064,19.2226667 17.764,17.2066667 19.164,15.732 C20.396,14.444 21.908,13.8 23.7,13.8 C26.388,13.8 28.236,14.9666667 29.244,17.3 L29.244,17.3 L31.876,16.264 C30.364,12.7546667 27.6386667,11 23.7,11 C20.9746667,11 18.6973333,12.0266667 16.868,14.08 C15.0386667,16.152 14.124,18.7186667 14.124,21.78 C14.124,25.0466667 15.0013333,27.604 16.756,29.452 C18.3986667,31.1506667 20.5453333,32 23.196,32 Z" id="C" fill="#5B7EDE" fill-rule="nonzero"></path>
        </g>
    </g>
</svg>