<?xml version="1.0" encoding="UTF-8"?>
<svg width="16px" height="16px" viewBox="0 0 16 16" version="1.1" xmlns="http://www.w3.org/2000/svg" xmlns:xlink="http://www.w3.org/1999/xlink">
    <title>Web_SFW/icon/16/OOM/Normal</title>
    <g id="Web_SFW/icon/16/OOM/Normal" stroke="none" stroke-width="1" fill="none" fill-rule="evenodd">
        <g id="编组-2" fill="#979797">
            <path d="M8,0 C12.5,0 16,3.581722 16,8 C16,9.01114207 15.0602545,9.77375193 14.0009636,10.0221331 L14,14.5 C14,15.2796961 13.4051119,15.9204487 12.64446,15.9931334 L12.5,16 L3.5,16 C2.72030388,16 2.07955132,15.4051119 2.00686658,14.64446 L2,14.5 L2.00031231,7.58366258 C1.8389224,7.76637394 1.6893871,7.93687097 1.5,8 C0.5,8.33333333 0,8.16666667 0,7.5 C0.333333333,5.83333333 0.833333333,4.5 1.5,3.5 C3.14630334,1.03054499 5.96770554,0 8,0 Z M3,7 L3,14.5 C3,14.7454599 3.17687516,14.9496084 3.41012437,14.9919443 L3.5,15 L12.5,15 C12.7454599,15 12.9496084,14.8231248 12.9919443,14.5898756 L13,14.5 L13.0000623,10.0964326 C12.828594,10.0804689 12.6607298,10.0487059 12.5,10 C11.4399041,9.67875956 10.5,8 10,8 C8.88170634,8 8,9.5 5.5,9.5 C3.5,9.5 3.61571558,7 3,7 Z M5.19105224,10.4 C5.79105224,10.4 6.39105224,11.9442296 6.39105224,12.5333333 C6.39105224,12.7453692 6.32145077,12.9429551 6.20144835,13.1090238 C5.98804556,13.4043472 5.61525355,13.6 5.19105224,13.6 C4.52831054,13.6 3.99105224,13.1224371 3.99105224,12.5333333 C3.99105224,11.9442296 4.59105224,10.4 5.19105224,10.4 Z M8,1 C5.93803986,1 3.61617623,2.12851129 2.33205029,4.0547002 C1.84298345,4.78830046 1.4454451,5.75330639 1.1474028,6.95017083 L1.118,7.071 L1.13045654,7.06710402 C1.12285158,7.06760632 1.12484871,7.06282713 1.13475348,7.05120239 L1.31872786,6.84519861 C1.81130671,6.29601456 2.27404647,6 3,6 C3.69204408,6 4.00955532,6.37433123 4.29052171,7.00120969 L4.56466909,7.66326263 C4.59283078,7.72960159 4.61706954,7.78507797 4.63352024,7.81957615 C4.87350807,8.32284629 5.0851645,8.5 5.5,8.5 C6.3811064,8.5 7.01916942,8.3013539 7.78123699,7.87654389 L8.47095821,7.47805176 C8.77572925,7.3072237 9.02231407,7.19201302 9.2864771,7.11096652 C9.52243929,7.03857218 9.7583802,7 10,7 C10.4823301,7 10.7964507,7.20724291 11.2044779,7.60241313 L11.9010467,8.33480949 C12.3051866,8.75690109 12.5945222,8.9837378 12.7900068,9.04297541 C13.747904,9.33324663 15,8.66675846 15,8 C15,4.10400278 11.9178994,1 8,1 Z" id="形状结合"></path>
        </g>
    </g>
</svg>